G04 #@! TF.GenerationSoftware,KiCad,Pcbnew,5.1.5+dfsg1-2build2*
G04 #@! TF.CreationDate,2021-08-10T13:41:00-07:00*
G04 #@! TF.ProjectId,Telemetry Board Shrink,54656c65-6d65-4747-9279-20426f617264,rev?*
G04 #@! TF.SameCoordinates,Original*
G04 #@! TF.FileFunction,Soldermask,Bot*
G04 #@! TF.FilePolarity,Negative*
%FSLAX46Y46*%
G04 Gerber Fmt 4.6, Leading zero omitted, Abs format (unit mm)*
G04 Created by KiCad (PCBNEW 5.1.5+dfsg1-2build2) date 2021-08-10 13:41:00*
%MOMM*%
%LPD*%
G04 APERTURE LIST*
%ADD10C,0.100000*%
G04 APERTURE END LIST*
D10*
G36*
X175610618Y-129385420D02*
G01*
X175687553Y-129408758D01*
X175733336Y-129422646D01*
X175846425Y-129483094D01*
X175945554Y-129564446D01*
X176026906Y-129663575D01*
X176087354Y-129776664D01*
X176087355Y-129776668D01*
X176124580Y-129899382D01*
X176134000Y-129995027D01*
X176134000Y-130608973D01*
X176124580Y-130704618D01*
X176097040Y-130795404D01*
X176087354Y-130827336D01*
X176026906Y-130940425D01*
X175945554Y-131039553D01*
X175846424Y-131120906D01*
X175733335Y-131181354D01*
X175701403Y-131191040D01*
X175610617Y-131218580D01*
X175483000Y-131231149D01*
X175355382Y-131218580D01*
X175264596Y-131191040D01*
X175232664Y-131181354D01*
X175119575Y-131120906D01*
X175020447Y-131039554D01*
X174939094Y-130940424D01*
X174878646Y-130827335D01*
X174868960Y-130795403D01*
X174841420Y-130704617D01*
X174832000Y-130608972D01*
X174832000Y-129995027D01*
X174841420Y-129899382D01*
X174878645Y-129776668D01*
X174878645Y-129776667D01*
X174910957Y-129716217D01*
X174939095Y-129663574D01*
X174946389Y-129654686D01*
X175020447Y-129564446D01*
X175119576Y-129483094D01*
X175232665Y-129422646D01*
X175278448Y-129408758D01*
X175355383Y-129385420D01*
X175483000Y-129372851D01*
X175610618Y-129385420D01*
G37*
G36*
X177610618Y-129385420D02*
G01*
X177687553Y-129408758D01*
X177733336Y-129422646D01*
X177846425Y-129483094D01*
X177945554Y-129564446D01*
X178026906Y-129663575D01*
X178087354Y-129776664D01*
X178087355Y-129776668D01*
X178124580Y-129899382D01*
X178134000Y-129995027D01*
X178134000Y-130608973D01*
X178124580Y-130704618D01*
X178097040Y-130795404D01*
X178087354Y-130827336D01*
X178026906Y-130940425D01*
X177945554Y-131039553D01*
X177846424Y-131120906D01*
X177733335Y-131181354D01*
X177701403Y-131191040D01*
X177610617Y-131218580D01*
X177483000Y-131231149D01*
X177355382Y-131218580D01*
X177264596Y-131191040D01*
X177232664Y-131181354D01*
X177119575Y-131120906D01*
X177020447Y-131039554D01*
X176939094Y-130940424D01*
X176878646Y-130827335D01*
X176868960Y-130795403D01*
X176841420Y-130704617D01*
X176832000Y-130608972D01*
X176832000Y-129995027D01*
X176841420Y-129899382D01*
X176878645Y-129776668D01*
X176878645Y-129776667D01*
X176910957Y-129716217D01*
X176939095Y-129663574D01*
X176946389Y-129654686D01*
X177020447Y-129564446D01*
X177119576Y-129483094D01*
X177232665Y-129422646D01*
X177278448Y-129408758D01*
X177355383Y-129385420D01*
X177483000Y-129372851D01*
X177610618Y-129385420D01*
G37*
G36*
X179610618Y-129385420D02*
G01*
X179687553Y-129408758D01*
X179733336Y-129422646D01*
X179846425Y-129483094D01*
X179945554Y-129564446D01*
X180026906Y-129663575D01*
X180087354Y-129776664D01*
X180087355Y-129776668D01*
X180124580Y-129899382D01*
X180134000Y-129995027D01*
X180134000Y-130608973D01*
X180124580Y-130704618D01*
X180097040Y-130795404D01*
X180087354Y-130827336D01*
X180026906Y-130940425D01*
X179945554Y-131039553D01*
X179846424Y-131120906D01*
X179733335Y-131181354D01*
X179701403Y-131191040D01*
X179610617Y-131218580D01*
X179483000Y-131231149D01*
X179355382Y-131218580D01*
X179264596Y-131191040D01*
X179232664Y-131181354D01*
X179119575Y-131120906D01*
X179020447Y-131039554D01*
X178939094Y-130940424D01*
X178878646Y-130827335D01*
X178868960Y-130795403D01*
X178841420Y-130704617D01*
X178832000Y-130608972D01*
X178832000Y-129995027D01*
X178841420Y-129899382D01*
X178878645Y-129776668D01*
X178878645Y-129776667D01*
X178910957Y-129716217D01*
X178939095Y-129663574D01*
X178946389Y-129654686D01*
X179020447Y-129564446D01*
X179119576Y-129483094D01*
X179232665Y-129422646D01*
X179278448Y-129408758D01*
X179355383Y-129385420D01*
X179483000Y-129372851D01*
X179610618Y-129385420D01*
G37*
G36*
X139002618Y-129385420D02*
G01*
X139079553Y-129408758D01*
X139125336Y-129422646D01*
X139238425Y-129483094D01*
X139337554Y-129564446D01*
X139418906Y-129663575D01*
X139479354Y-129776664D01*
X139479355Y-129776668D01*
X139516580Y-129899382D01*
X139526000Y-129995027D01*
X139526000Y-130608973D01*
X139516580Y-130704618D01*
X139489040Y-130795404D01*
X139479354Y-130827336D01*
X139418906Y-130940425D01*
X139337554Y-131039553D01*
X139238424Y-131120906D01*
X139125335Y-131181354D01*
X139093403Y-131191040D01*
X139002617Y-131218580D01*
X138875000Y-131231149D01*
X138747382Y-131218580D01*
X138656596Y-131191040D01*
X138624664Y-131181354D01*
X138511575Y-131120906D01*
X138412447Y-131039554D01*
X138331094Y-130940424D01*
X138270646Y-130827335D01*
X138260960Y-130795403D01*
X138233420Y-130704617D01*
X138224000Y-130608972D01*
X138224000Y-129995027D01*
X138233420Y-129899382D01*
X138270645Y-129776668D01*
X138270645Y-129776667D01*
X138302957Y-129716217D01*
X138331095Y-129663574D01*
X138338389Y-129654686D01*
X138412447Y-129564446D01*
X138511576Y-129483094D01*
X138624665Y-129422646D01*
X138670448Y-129408758D01*
X138747383Y-129385420D01*
X138875000Y-129372851D01*
X139002618Y-129385420D01*
G37*
G36*
X141002618Y-129385420D02*
G01*
X141079553Y-129408758D01*
X141125336Y-129422646D01*
X141238425Y-129483094D01*
X141337554Y-129564446D01*
X141418906Y-129663575D01*
X141479354Y-129776664D01*
X141479355Y-129776668D01*
X141516580Y-129899382D01*
X141526000Y-129995027D01*
X141526000Y-130608973D01*
X141516580Y-130704618D01*
X141489040Y-130795404D01*
X141479354Y-130827336D01*
X141418906Y-130940425D01*
X141337554Y-131039553D01*
X141238424Y-131120906D01*
X141125335Y-131181354D01*
X141093403Y-131191040D01*
X141002617Y-131218580D01*
X140875000Y-131231149D01*
X140747382Y-131218580D01*
X140656596Y-131191040D01*
X140624664Y-131181354D01*
X140511575Y-131120906D01*
X140412447Y-131039554D01*
X140331094Y-130940424D01*
X140270646Y-130827335D01*
X140260960Y-130795403D01*
X140233420Y-130704617D01*
X140224000Y-130608972D01*
X140224000Y-129995027D01*
X140233420Y-129899382D01*
X140270645Y-129776668D01*
X140270645Y-129776667D01*
X140302957Y-129716217D01*
X140331095Y-129663574D01*
X140338389Y-129654686D01*
X140412447Y-129564446D01*
X140511576Y-129483094D01*
X140624665Y-129422646D01*
X140670448Y-129408758D01*
X140747383Y-129385420D01*
X140875000Y-129372851D01*
X141002618Y-129385420D01*
G37*
G36*
X197581618Y-129385420D02*
G01*
X197658553Y-129408758D01*
X197704336Y-129422646D01*
X197817425Y-129483094D01*
X197916554Y-129564446D01*
X197997906Y-129663575D01*
X198058354Y-129776664D01*
X198058355Y-129776668D01*
X198095580Y-129899382D01*
X198105000Y-129995027D01*
X198105000Y-130608973D01*
X198095580Y-130704618D01*
X198068040Y-130795404D01*
X198058354Y-130827336D01*
X197997906Y-130940425D01*
X197916554Y-131039553D01*
X197817424Y-131120906D01*
X197704335Y-131181354D01*
X197672403Y-131191040D01*
X197581617Y-131218580D01*
X197454000Y-131231149D01*
X197326382Y-131218580D01*
X197235596Y-131191040D01*
X197203664Y-131181354D01*
X197090575Y-131120906D01*
X196991447Y-131039554D01*
X196910094Y-130940424D01*
X196849646Y-130827335D01*
X196839960Y-130795403D01*
X196812420Y-130704617D01*
X196803000Y-130608972D01*
X196803000Y-129995027D01*
X196812420Y-129899382D01*
X196849645Y-129776668D01*
X196849645Y-129776667D01*
X196881957Y-129716217D01*
X196910095Y-129663574D01*
X196917389Y-129654686D01*
X196991447Y-129564446D01*
X197090576Y-129483094D01*
X197203665Y-129422646D01*
X197249448Y-129408758D01*
X197326383Y-129385420D01*
X197454000Y-129372851D01*
X197581618Y-129385420D01*
G37*
G36*
X199581618Y-129385420D02*
G01*
X199658553Y-129408758D01*
X199704336Y-129422646D01*
X199817425Y-129483094D01*
X199916554Y-129564446D01*
X199997906Y-129663575D01*
X200058354Y-129776664D01*
X200058355Y-129776668D01*
X200095580Y-129899382D01*
X200105000Y-129995027D01*
X200105000Y-130608973D01*
X200095580Y-130704618D01*
X200068040Y-130795404D01*
X200058354Y-130827336D01*
X199997906Y-130940425D01*
X199916554Y-131039553D01*
X199817424Y-131120906D01*
X199704335Y-131181354D01*
X199672403Y-131191040D01*
X199581617Y-131218580D01*
X199454000Y-131231149D01*
X199326382Y-131218580D01*
X199235596Y-131191040D01*
X199203664Y-131181354D01*
X199090575Y-131120906D01*
X198991447Y-131039554D01*
X198910094Y-130940424D01*
X198849646Y-130827335D01*
X198839960Y-130795403D01*
X198812420Y-130704617D01*
X198803000Y-130608972D01*
X198803000Y-129995027D01*
X198812420Y-129899382D01*
X198849645Y-129776668D01*
X198849645Y-129776667D01*
X198881957Y-129716217D01*
X198910095Y-129663574D01*
X198917389Y-129654686D01*
X198991447Y-129564446D01*
X199090576Y-129483094D01*
X199203665Y-129422646D01*
X199249448Y-129408758D01*
X199326383Y-129385420D01*
X199454000Y-129372851D01*
X199581618Y-129385420D01*
G37*
G36*
X201581618Y-129385420D02*
G01*
X201658553Y-129408758D01*
X201704336Y-129422646D01*
X201817425Y-129483094D01*
X201916554Y-129564446D01*
X201997906Y-129663575D01*
X202058354Y-129776664D01*
X202058355Y-129776668D01*
X202095580Y-129899382D01*
X202105000Y-129995027D01*
X202105000Y-130608973D01*
X202095580Y-130704618D01*
X202068040Y-130795404D01*
X202058354Y-130827336D01*
X201997906Y-130940425D01*
X201916554Y-131039553D01*
X201817424Y-131120906D01*
X201704335Y-131181354D01*
X201672403Y-131191040D01*
X201581617Y-131218580D01*
X201454000Y-131231149D01*
X201326382Y-131218580D01*
X201235596Y-131191040D01*
X201203664Y-131181354D01*
X201090575Y-131120906D01*
X200991447Y-131039554D01*
X200910094Y-130940424D01*
X200849646Y-130827335D01*
X200839960Y-130795403D01*
X200812420Y-130704617D01*
X200803000Y-130608972D01*
X200803000Y-129995027D01*
X200812420Y-129899382D01*
X200849645Y-129776668D01*
X200849645Y-129776667D01*
X200881957Y-129716217D01*
X200910095Y-129663574D01*
X200917389Y-129654686D01*
X200991447Y-129564446D01*
X201090576Y-129483094D01*
X201203665Y-129422646D01*
X201249448Y-129408758D01*
X201326383Y-129385420D01*
X201454000Y-129372851D01*
X201581618Y-129385420D01*
G37*
G36*
X137002618Y-129385420D02*
G01*
X137079553Y-129408758D01*
X137125336Y-129422646D01*
X137238425Y-129483094D01*
X137337554Y-129564446D01*
X137418906Y-129663575D01*
X137479354Y-129776664D01*
X137479355Y-129776668D01*
X137516580Y-129899382D01*
X137526000Y-129995027D01*
X137526000Y-130608973D01*
X137516580Y-130704618D01*
X137489040Y-130795404D01*
X137479354Y-130827336D01*
X137418906Y-130940425D01*
X137337554Y-131039553D01*
X137238424Y-131120906D01*
X137125335Y-131181354D01*
X137093403Y-131191040D01*
X137002617Y-131218580D01*
X136875000Y-131231149D01*
X136747382Y-131218580D01*
X136656596Y-131191040D01*
X136624664Y-131181354D01*
X136511575Y-131120906D01*
X136412447Y-131039554D01*
X136331094Y-130940424D01*
X136270646Y-130827335D01*
X136260960Y-130795403D01*
X136233420Y-130704617D01*
X136224000Y-130608972D01*
X136224000Y-129995027D01*
X136233420Y-129899382D01*
X136270645Y-129776668D01*
X136270645Y-129776667D01*
X136302957Y-129716217D01*
X136331095Y-129663574D01*
X136338389Y-129654686D01*
X136412447Y-129564446D01*
X136511576Y-129483094D01*
X136624665Y-129422646D01*
X136670448Y-129408758D01*
X136747383Y-129385420D01*
X136875000Y-129372851D01*
X137002618Y-129385420D01*
G37*
G36*
X143366242Y-129380404D02*
G01*
X143403337Y-129391657D01*
X143437515Y-129409925D01*
X143467481Y-129434519D01*
X143492075Y-129464485D01*
X143510343Y-129498663D01*
X143521596Y-129535758D01*
X143526000Y-129580474D01*
X143526000Y-131023526D01*
X143521596Y-131068242D01*
X143510343Y-131105337D01*
X143492075Y-131139515D01*
X143467481Y-131169481D01*
X143437515Y-131194075D01*
X143403337Y-131212343D01*
X143366242Y-131223596D01*
X143321526Y-131228000D01*
X142428474Y-131228000D01*
X142383758Y-131223596D01*
X142346663Y-131212343D01*
X142312485Y-131194075D01*
X142282519Y-131169481D01*
X142257925Y-131139515D01*
X142239657Y-131105337D01*
X142228404Y-131068242D01*
X142224000Y-131023526D01*
X142224000Y-129580474D01*
X142228404Y-129535758D01*
X142239657Y-129498663D01*
X142257925Y-129464485D01*
X142282519Y-129434519D01*
X142312485Y-129409925D01*
X142346663Y-129391657D01*
X142383758Y-129380404D01*
X142428474Y-129376000D01*
X143321526Y-129376000D01*
X143366242Y-129380404D01*
G37*
G36*
X181974242Y-129380404D02*
G01*
X182011337Y-129391657D01*
X182045515Y-129409925D01*
X182075481Y-129434519D01*
X182100075Y-129464485D01*
X182118343Y-129498663D01*
X182129596Y-129535758D01*
X182134000Y-129580474D01*
X182134000Y-131023526D01*
X182129596Y-131068242D01*
X182118343Y-131105337D01*
X182100075Y-131139515D01*
X182075481Y-131169481D01*
X182045515Y-131194075D01*
X182011337Y-131212343D01*
X181974242Y-131223596D01*
X181929526Y-131228000D01*
X181036474Y-131228000D01*
X180991758Y-131223596D01*
X180954663Y-131212343D01*
X180920485Y-131194075D01*
X180890519Y-131169481D01*
X180865925Y-131139515D01*
X180847657Y-131105337D01*
X180836404Y-131068242D01*
X180832000Y-131023526D01*
X180832000Y-129580474D01*
X180836404Y-129535758D01*
X180847657Y-129498663D01*
X180865925Y-129464485D01*
X180890519Y-129434519D01*
X180920485Y-129409925D01*
X180954663Y-129391657D01*
X180991758Y-129380404D01*
X181036474Y-129376000D01*
X181929526Y-129376000D01*
X181974242Y-129380404D01*
G37*
G36*
X203945242Y-129380404D02*
G01*
X203982337Y-129391657D01*
X204016515Y-129409925D01*
X204046481Y-129434519D01*
X204071075Y-129464485D01*
X204089343Y-129498663D01*
X204100596Y-129535758D01*
X204105000Y-129580474D01*
X204105000Y-131023526D01*
X204100596Y-131068242D01*
X204089343Y-131105337D01*
X204071075Y-131139515D01*
X204046481Y-131169481D01*
X204016515Y-131194075D01*
X203982337Y-131212343D01*
X203945242Y-131223596D01*
X203900526Y-131228000D01*
X203007474Y-131228000D01*
X202962758Y-131223596D01*
X202925663Y-131212343D01*
X202891485Y-131194075D01*
X202861519Y-131169481D01*
X202836925Y-131139515D01*
X202818657Y-131105337D01*
X202807404Y-131068242D01*
X202803000Y-131023526D01*
X202803000Y-129580474D01*
X202807404Y-129535758D01*
X202818657Y-129498663D01*
X202836925Y-129464485D01*
X202861519Y-129434519D01*
X202891485Y-129409925D01*
X202925663Y-129391657D01*
X202962758Y-129380404D01*
X203007474Y-129376000D01*
X203900526Y-129376000D01*
X203945242Y-129380404D01*
G37*
G36*
X157830618Y-129258420D02*
G01*
X157911400Y-129282925D01*
X157953336Y-129295646D01*
X158066425Y-129356094D01*
X158165554Y-129437446D01*
X158246906Y-129536575D01*
X158307354Y-129649664D01*
X158307355Y-129649668D01*
X158344580Y-129772382D01*
X158354000Y-129868027D01*
X158354000Y-130481973D01*
X158344580Y-130577618D01*
X158335068Y-130608974D01*
X158307354Y-130700336D01*
X158246906Y-130813425D01*
X158165554Y-130912553D01*
X158066424Y-130993906D01*
X157953335Y-131054354D01*
X157932899Y-131060553D01*
X157830617Y-131091580D01*
X157703000Y-131104149D01*
X157575382Y-131091580D01*
X157473100Y-131060553D01*
X157452664Y-131054354D01*
X157339575Y-130993906D01*
X157240447Y-130912554D01*
X157159094Y-130813424D01*
X157098646Y-130700335D01*
X157070932Y-130608973D01*
X157061420Y-130577617D01*
X157052000Y-130481972D01*
X157052000Y-129868027D01*
X157061420Y-129772382D01*
X157094426Y-129663575D01*
X157098645Y-129649667D01*
X157144197Y-129564446D01*
X157159095Y-129536574D01*
X157190208Y-129498663D01*
X157240447Y-129437446D01*
X157339576Y-129356094D01*
X157452665Y-129295646D01*
X157494601Y-129282925D01*
X157575383Y-129258420D01*
X157703000Y-129245851D01*
X157830618Y-129258420D01*
G37*
G36*
X159830618Y-129258420D02*
G01*
X159911400Y-129282925D01*
X159953336Y-129295646D01*
X160066425Y-129356094D01*
X160165554Y-129437446D01*
X160246906Y-129536575D01*
X160307354Y-129649664D01*
X160307355Y-129649668D01*
X160344580Y-129772382D01*
X160354000Y-129868027D01*
X160354000Y-130481973D01*
X160344580Y-130577618D01*
X160335068Y-130608974D01*
X160307354Y-130700336D01*
X160246906Y-130813425D01*
X160165554Y-130912553D01*
X160066424Y-130993906D01*
X159953335Y-131054354D01*
X159932899Y-131060553D01*
X159830617Y-131091580D01*
X159703000Y-131104149D01*
X159575382Y-131091580D01*
X159473100Y-131060553D01*
X159452664Y-131054354D01*
X159339575Y-130993906D01*
X159240447Y-130912554D01*
X159159094Y-130813424D01*
X159098646Y-130700335D01*
X159070932Y-130608973D01*
X159061420Y-130577617D01*
X159052000Y-130481972D01*
X159052000Y-129868027D01*
X159061420Y-129772382D01*
X159094426Y-129663575D01*
X159098645Y-129649667D01*
X159144197Y-129564446D01*
X159159095Y-129536574D01*
X159190208Y-129498663D01*
X159240447Y-129437446D01*
X159339576Y-129356094D01*
X159452665Y-129295646D01*
X159494601Y-129282925D01*
X159575383Y-129258420D01*
X159703000Y-129245851D01*
X159830618Y-129258420D01*
G37*
G36*
X161830618Y-129258420D02*
G01*
X161911400Y-129282925D01*
X161953336Y-129295646D01*
X162066425Y-129356094D01*
X162165554Y-129437446D01*
X162246906Y-129536575D01*
X162307354Y-129649664D01*
X162307355Y-129649668D01*
X162344580Y-129772382D01*
X162354000Y-129868027D01*
X162354000Y-130481973D01*
X162344580Y-130577618D01*
X162335068Y-130608974D01*
X162307354Y-130700336D01*
X162246906Y-130813425D01*
X162165554Y-130912553D01*
X162066424Y-130993906D01*
X161953335Y-131054354D01*
X161932899Y-131060553D01*
X161830617Y-131091580D01*
X161703000Y-131104149D01*
X161575382Y-131091580D01*
X161473100Y-131060553D01*
X161452664Y-131054354D01*
X161339575Y-130993906D01*
X161240447Y-130912554D01*
X161159094Y-130813424D01*
X161098646Y-130700335D01*
X161070932Y-130608973D01*
X161061420Y-130577617D01*
X161052000Y-130481972D01*
X161052000Y-129868027D01*
X161061420Y-129772382D01*
X161094426Y-129663575D01*
X161098645Y-129649667D01*
X161144197Y-129564446D01*
X161159095Y-129536574D01*
X161190208Y-129498663D01*
X161240447Y-129437446D01*
X161339576Y-129356094D01*
X161452665Y-129295646D01*
X161494601Y-129282925D01*
X161575383Y-129258420D01*
X161703000Y-129245851D01*
X161830618Y-129258420D01*
G37*
G36*
X164194242Y-129253404D02*
G01*
X164231337Y-129264657D01*
X164265515Y-129282925D01*
X164295481Y-129307519D01*
X164320075Y-129337485D01*
X164338343Y-129371663D01*
X164349596Y-129408758D01*
X164354000Y-129453474D01*
X164354000Y-130896526D01*
X164349596Y-130941242D01*
X164338343Y-130978337D01*
X164320075Y-131012515D01*
X164295481Y-131042481D01*
X164265515Y-131067075D01*
X164231337Y-131085343D01*
X164194242Y-131096596D01*
X164149526Y-131101000D01*
X163256474Y-131101000D01*
X163211758Y-131096596D01*
X163174663Y-131085343D01*
X163140485Y-131067075D01*
X163110519Y-131042481D01*
X163085925Y-131012515D01*
X163067657Y-130978337D01*
X163056404Y-130941242D01*
X163052000Y-130896526D01*
X163052000Y-129453474D01*
X163056404Y-129408758D01*
X163067657Y-129371663D01*
X163085925Y-129337485D01*
X163110519Y-129307519D01*
X163140485Y-129282925D01*
X163174663Y-129264657D01*
X163211758Y-129253404D01*
X163256474Y-129249000D01*
X164149526Y-129249000D01*
X164194242Y-129253404D01*
G37*
G36*
X192500617Y-110970420D02*
G01*
X192581399Y-110994925D01*
X192623335Y-111007646D01*
X192736424Y-111068094D01*
X192835554Y-111149447D01*
X192916906Y-111248575D01*
X192977354Y-111361664D01*
X192987040Y-111393596D01*
X193014580Y-111484382D01*
X193024000Y-111580027D01*
X193024000Y-112193973D01*
X193014580Y-112289618D01*
X192987040Y-112380404D01*
X192977354Y-112412336D01*
X192916906Y-112525425D01*
X192835554Y-112624554D01*
X192736425Y-112705906D01*
X192623336Y-112766354D01*
X192591404Y-112776040D01*
X192500618Y-112803580D01*
X192373000Y-112816149D01*
X192245383Y-112803580D01*
X192154597Y-112776040D01*
X192122665Y-112766354D01*
X192009576Y-112705906D01*
X191910447Y-112624554D01*
X191829096Y-112525427D01*
X191829095Y-112525425D01*
X191768647Y-112412336D01*
X191768645Y-112412333D01*
X191756237Y-112371427D01*
X191731420Y-112289618D01*
X191722000Y-112193973D01*
X191722000Y-111580028D01*
X191731420Y-111484383D01*
X191768645Y-111361669D01*
X191768646Y-111361665D01*
X191829094Y-111248576D01*
X191910447Y-111149446D01*
X192009575Y-111068094D01*
X192122664Y-111007646D01*
X192164600Y-110994925D01*
X192245382Y-110970420D01*
X192373000Y-110957851D01*
X192500617Y-110970420D01*
G37*
G36*
X190864242Y-110965404D02*
G01*
X190901337Y-110976657D01*
X190935515Y-110994925D01*
X190965481Y-111019519D01*
X190990075Y-111049485D01*
X191008343Y-111083663D01*
X191019596Y-111120758D01*
X191024000Y-111165474D01*
X191024000Y-112608526D01*
X191019596Y-112653242D01*
X191008343Y-112690337D01*
X190990075Y-112724515D01*
X190965481Y-112754481D01*
X190935515Y-112779075D01*
X190901337Y-112797343D01*
X190864242Y-112808596D01*
X190819526Y-112813000D01*
X189926474Y-112813000D01*
X189881758Y-112808596D01*
X189844663Y-112797343D01*
X189810485Y-112779075D01*
X189780519Y-112754481D01*
X189755925Y-112724515D01*
X189737657Y-112690337D01*
X189726404Y-112653242D01*
X189722000Y-112608526D01*
X189722000Y-111165474D01*
X189726404Y-111120758D01*
X189737657Y-111083663D01*
X189755925Y-111049485D01*
X189780519Y-111019519D01*
X189810485Y-110994925D01*
X189844663Y-110976657D01*
X189881758Y-110965404D01*
X189926474Y-110961000D01*
X190819526Y-110961000D01*
X190864242Y-110965404D01*
G37*
G36*
X151886228Y-107258703D02*
G01*
X152041100Y-107322853D01*
X152180481Y-107415985D01*
X152299015Y-107534519D01*
X152392147Y-107673900D01*
X152456297Y-107828772D01*
X152489000Y-107993184D01*
X152489000Y-108160816D01*
X152456297Y-108325228D01*
X152392147Y-108480100D01*
X152299015Y-108619481D01*
X152180481Y-108738015D01*
X152041100Y-108831147D01*
X151886228Y-108895297D01*
X151721816Y-108928000D01*
X151554184Y-108928000D01*
X151389772Y-108895297D01*
X151234900Y-108831147D01*
X151095519Y-108738015D01*
X150976985Y-108619481D01*
X150883853Y-108480100D01*
X150819703Y-108325228D01*
X150787000Y-108160816D01*
X150787000Y-107993184D01*
X150819703Y-107828772D01*
X150883853Y-107673900D01*
X150976985Y-107534519D01*
X151095519Y-107415985D01*
X151234900Y-107322853D01*
X151389772Y-107258703D01*
X151554184Y-107226000D01*
X151721816Y-107226000D01*
X151886228Y-107258703D01*
G37*
G36*
X149346228Y-107258703D02*
G01*
X149501100Y-107322853D01*
X149640481Y-107415985D01*
X149759015Y-107534519D01*
X149852147Y-107673900D01*
X149916297Y-107828772D01*
X149949000Y-107993184D01*
X149949000Y-108160816D01*
X149916297Y-108325228D01*
X149852147Y-108480100D01*
X149759015Y-108619481D01*
X149640481Y-108738015D01*
X149501100Y-108831147D01*
X149346228Y-108895297D01*
X149181816Y-108928000D01*
X149014184Y-108928000D01*
X148849772Y-108895297D01*
X148694900Y-108831147D01*
X148555519Y-108738015D01*
X148436985Y-108619481D01*
X148343853Y-108480100D01*
X148279703Y-108325228D01*
X148247000Y-108160816D01*
X148247000Y-107993184D01*
X148279703Y-107828772D01*
X148343853Y-107673900D01*
X148436985Y-107534519D01*
X148555519Y-107415985D01*
X148694900Y-107322853D01*
X148849772Y-107258703D01*
X149014184Y-107226000D01*
X149181816Y-107226000D01*
X149346228Y-107258703D01*
G37*
G36*
X147409000Y-108928000D02*
G01*
X145707000Y-108928000D01*
X145707000Y-107226000D01*
X147409000Y-107226000D01*
X147409000Y-108928000D01*
G37*
G36*
X154426228Y-107258703D02*
G01*
X154581100Y-107322853D01*
X154720481Y-107415985D01*
X154839015Y-107534519D01*
X154932147Y-107673900D01*
X154996297Y-107828772D01*
X155029000Y-107993184D01*
X155029000Y-108160816D01*
X154996297Y-108325228D01*
X154932147Y-108480100D01*
X154839015Y-108619481D01*
X154720481Y-108738015D01*
X154581100Y-108831147D01*
X154426228Y-108895297D01*
X154261816Y-108928000D01*
X154094184Y-108928000D01*
X153929772Y-108895297D01*
X153774900Y-108831147D01*
X153635519Y-108738015D01*
X153516985Y-108619481D01*
X153423853Y-108480100D01*
X153359703Y-108325228D01*
X153327000Y-108160816D01*
X153327000Y-107993184D01*
X153359703Y-107828772D01*
X153423853Y-107673900D01*
X153516985Y-107534519D01*
X153635519Y-107415985D01*
X153774900Y-107322853D01*
X153929772Y-107258703D01*
X154094184Y-107226000D01*
X154261816Y-107226000D01*
X154426228Y-107258703D01*
G37*
G36*
X189986228Y-107258703D02*
G01*
X190141100Y-107322853D01*
X190280481Y-107415985D01*
X190399015Y-107534519D01*
X190492147Y-107673900D01*
X190556297Y-107828772D01*
X190589000Y-107993184D01*
X190589000Y-108160816D01*
X190556297Y-108325228D01*
X190492147Y-108480100D01*
X190399015Y-108619481D01*
X190280481Y-108738015D01*
X190141100Y-108831147D01*
X189986228Y-108895297D01*
X189821816Y-108928000D01*
X189654184Y-108928000D01*
X189489772Y-108895297D01*
X189334900Y-108831147D01*
X189195519Y-108738015D01*
X189076985Y-108619481D01*
X188983853Y-108480100D01*
X188919703Y-108325228D01*
X188887000Y-108160816D01*
X188887000Y-107993184D01*
X188919703Y-107828772D01*
X188983853Y-107673900D01*
X189076985Y-107534519D01*
X189195519Y-107415985D01*
X189334900Y-107322853D01*
X189489772Y-107258703D01*
X189654184Y-107226000D01*
X189821816Y-107226000D01*
X189986228Y-107258703D01*
G37*
G36*
X192526228Y-107258703D02*
G01*
X192681100Y-107322853D01*
X192820481Y-107415985D01*
X192939015Y-107534519D01*
X193032147Y-107673900D01*
X193096297Y-107828772D01*
X193129000Y-107993184D01*
X193129000Y-108160816D01*
X193096297Y-108325228D01*
X193032147Y-108480100D01*
X192939015Y-108619481D01*
X192820481Y-108738015D01*
X192681100Y-108831147D01*
X192526228Y-108895297D01*
X192361816Y-108928000D01*
X192194184Y-108928000D01*
X192029772Y-108895297D01*
X191874900Y-108831147D01*
X191735519Y-108738015D01*
X191616985Y-108619481D01*
X191523853Y-108480100D01*
X191459703Y-108325228D01*
X191427000Y-108160816D01*
X191427000Y-107993184D01*
X191459703Y-107828772D01*
X191523853Y-107673900D01*
X191616985Y-107534519D01*
X191735519Y-107415985D01*
X191874900Y-107322853D01*
X192029772Y-107258703D01*
X192194184Y-107226000D01*
X192361816Y-107226000D01*
X192526228Y-107258703D01*
G37*
G36*
X195066228Y-107258703D02*
G01*
X195221100Y-107322853D01*
X195360481Y-107415985D01*
X195479015Y-107534519D01*
X195572147Y-107673900D01*
X195636297Y-107828772D01*
X195669000Y-107993184D01*
X195669000Y-108160816D01*
X195636297Y-108325228D01*
X195572147Y-108480100D01*
X195479015Y-108619481D01*
X195360481Y-108738015D01*
X195221100Y-108831147D01*
X195066228Y-108895297D01*
X194901816Y-108928000D01*
X194734184Y-108928000D01*
X194569772Y-108895297D01*
X194414900Y-108831147D01*
X194275519Y-108738015D01*
X194156985Y-108619481D01*
X194063853Y-108480100D01*
X193999703Y-108325228D01*
X193967000Y-108160816D01*
X193967000Y-107993184D01*
X193999703Y-107828772D01*
X194063853Y-107673900D01*
X194156985Y-107534519D01*
X194275519Y-107415985D01*
X194414900Y-107322853D01*
X194569772Y-107258703D01*
X194734184Y-107226000D01*
X194901816Y-107226000D01*
X195066228Y-107258703D01*
G37*
G36*
X184906228Y-107258703D02*
G01*
X185061100Y-107322853D01*
X185200481Y-107415985D01*
X185319015Y-107534519D01*
X185412147Y-107673900D01*
X185476297Y-107828772D01*
X185509000Y-107993184D01*
X185509000Y-108160816D01*
X185476297Y-108325228D01*
X185412147Y-108480100D01*
X185319015Y-108619481D01*
X185200481Y-108738015D01*
X185061100Y-108831147D01*
X184906228Y-108895297D01*
X184741816Y-108928000D01*
X184574184Y-108928000D01*
X184409772Y-108895297D01*
X184254900Y-108831147D01*
X184115519Y-108738015D01*
X183996985Y-108619481D01*
X183903853Y-108480100D01*
X183839703Y-108325228D01*
X183807000Y-108160816D01*
X183807000Y-107993184D01*
X183839703Y-107828772D01*
X183903853Y-107673900D01*
X183996985Y-107534519D01*
X184115519Y-107415985D01*
X184254900Y-107322853D01*
X184409772Y-107258703D01*
X184574184Y-107226000D01*
X184741816Y-107226000D01*
X184906228Y-107258703D01*
G37*
G36*
X182366228Y-107258703D02*
G01*
X182521100Y-107322853D01*
X182660481Y-107415985D01*
X182779015Y-107534519D01*
X182872147Y-107673900D01*
X182936297Y-107828772D01*
X182969000Y-107993184D01*
X182969000Y-108160816D01*
X182936297Y-108325228D01*
X182872147Y-108480100D01*
X182779015Y-108619481D01*
X182660481Y-108738015D01*
X182521100Y-108831147D01*
X182366228Y-108895297D01*
X182201816Y-108928000D01*
X182034184Y-108928000D01*
X181869772Y-108895297D01*
X181714900Y-108831147D01*
X181575519Y-108738015D01*
X181456985Y-108619481D01*
X181363853Y-108480100D01*
X181299703Y-108325228D01*
X181267000Y-108160816D01*
X181267000Y-107993184D01*
X181299703Y-107828772D01*
X181363853Y-107673900D01*
X181456985Y-107534519D01*
X181575519Y-107415985D01*
X181714900Y-107322853D01*
X181869772Y-107258703D01*
X182034184Y-107226000D01*
X182201816Y-107226000D01*
X182366228Y-107258703D01*
G37*
G36*
X179826228Y-107258703D02*
G01*
X179981100Y-107322853D01*
X180120481Y-107415985D01*
X180239015Y-107534519D01*
X180332147Y-107673900D01*
X180396297Y-107828772D01*
X180429000Y-107993184D01*
X180429000Y-108160816D01*
X180396297Y-108325228D01*
X180332147Y-108480100D01*
X180239015Y-108619481D01*
X180120481Y-108738015D01*
X179981100Y-108831147D01*
X179826228Y-108895297D01*
X179661816Y-108928000D01*
X179494184Y-108928000D01*
X179329772Y-108895297D01*
X179174900Y-108831147D01*
X179035519Y-108738015D01*
X178916985Y-108619481D01*
X178823853Y-108480100D01*
X178759703Y-108325228D01*
X178727000Y-108160816D01*
X178727000Y-107993184D01*
X178759703Y-107828772D01*
X178823853Y-107673900D01*
X178916985Y-107534519D01*
X179035519Y-107415985D01*
X179174900Y-107322853D01*
X179329772Y-107258703D01*
X179494184Y-107226000D01*
X179661816Y-107226000D01*
X179826228Y-107258703D01*
G37*
G36*
X197606228Y-107258703D02*
G01*
X197761100Y-107322853D01*
X197900481Y-107415985D01*
X198019015Y-107534519D01*
X198112147Y-107673900D01*
X198176297Y-107828772D01*
X198209000Y-107993184D01*
X198209000Y-108160816D01*
X198176297Y-108325228D01*
X198112147Y-108480100D01*
X198019015Y-108619481D01*
X197900481Y-108738015D01*
X197761100Y-108831147D01*
X197606228Y-108895297D01*
X197441816Y-108928000D01*
X197274184Y-108928000D01*
X197109772Y-108895297D01*
X196954900Y-108831147D01*
X196815519Y-108738015D01*
X196696985Y-108619481D01*
X196603853Y-108480100D01*
X196539703Y-108325228D01*
X196507000Y-108160816D01*
X196507000Y-107993184D01*
X196539703Y-107828772D01*
X196603853Y-107673900D01*
X196696985Y-107534519D01*
X196815519Y-107415985D01*
X196954900Y-107322853D01*
X197109772Y-107258703D01*
X197274184Y-107226000D01*
X197441816Y-107226000D01*
X197606228Y-107258703D01*
G37*
G36*
X200146228Y-107258703D02*
G01*
X200301100Y-107322853D01*
X200440481Y-107415985D01*
X200559015Y-107534519D01*
X200652147Y-107673900D01*
X200716297Y-107828772D01*
X200749000Y-107993184D01*
X200749000Y-108160816D01*
X200716297Y-108325228D01*
X200652147Y-108480100D01*
X200559015Y-108619481D01*
X200440481Y-108738015D01*
X200301100Y-108831147D01*
X200146228Y-108895297D01*
X199981816Y-108928000D01*
X199814184Y-108928000D01*
X199649772Y-108895297D01*
X199494900Y-108831147D01*
X199355519Y-108738015D01*
X199236985Y-108619481D01*
X199143853Y-108480100D01*
X199079703Y-108325228D01*
X199047000Y-108160816D01*
X199047000Y-107993184D01*
X199079703Y-107828772D01*
X199143853Y-107673900D01*
X199236985Y-107534519D01*
X199355519Y-107415985D01*
X199494900Y-107322853D01*
X199649772Y-107258703D01*
X199814184Y-107226000D01*
X199981816Y-107226000D01*
X200146228Y-107258703D01*
G37*
G36*
X205226228Y-107258703D02*
G01*
X205381100Y-107322853D01*
X205520481Y-107415985D01*
X205639015Y-107534519D01*
X205732147Y-107673900D01*
X205796297Y-107828772D01*
X205829000Y-107993184D01*
X205829000Y-108160816D01*
X205796297Y-108325228D01*
X205732147Y-108480100D01*
X205639015Y-108619481D01*
X205520481Y-108738015D01*
X205381100Y-108831147D01*
X205226228Y-108895297D01*
X205061816Y-108928000D01*
X204894184Y-108928000D01*
X204729772Y-108895297D01*
X204574900Y-108831147D01*
X204435519Y-108738015D01*
X204316985Y-108619481D01*
X204223853Y-108480100D01*
X204159703Y-108325228D01*
X204127000Y-108160816D01*
X204127000Y-107993184D01*
X204159703Y-107828772D01*
X204223853Y-107673900D01*
X204316985Y-107534519D01*
X204435519Y-107415985D01*
X204574900Y-107322853D01*
X204729772Y-107258703D01*
X204894184Y-107226000D01*
X205061816Y-107226000D01*
X205226228Y-107258703D01*
G37*
G36*
X202686228Y-107258703D02*
G01*
X202841100Y-107322853D01*
X202980481Y-107415985D01*
X203099015Y-107534519D01*
X203192147Y-107673900D01*
X203256297Y-107828772D01*
X203289000Y-107993184D01*
X203289000Y-108160816D01*
X203256297Y-108325228D01*
X203192147Y-108480100D01*
X203099015Y-108619481D01*
X202980481Y-108738015D01*
X202841100Y-108831147D01*
X202686228Y-108895297D01*
X202521816Y-108928000D01*
X202354184Y-108928000D01*
X202189772Y-108895297D01*
X202034900Y-108831147D01*
X201895519Y-108738015D01*
X201776985Y-108619481D01*
X201683853Y-108480100D01*
X201619703Y-108325228D01*
X201587000Y-108160816D01*
X201587000Y-107993184D01*
X201619703Y-107828772D01*
X201683853Y-107673900D01*
X201776985Y-107534519D01*
X201895519Y-107415985D01*
X202034900Y-107322853D01*
X202189772Y-107258703D01*
X202354184Y-107226000D01*
X202521816Y-107226000D01*
X202686228Y-107258703D01*
G37*
G36*
X156966228Y-107258703D02*
G01*
X157121100Y-107322853D01*
X157260481Y-107415985D01*
X157379015Y-107534519D01*
X157472147Y-107673900D01*
X157536297Y-107828772D01*
X157569000Y-107993184D01*
X157569000Y-108160816D01*
X157536297Y-108325228D01*
X157472147Y-108480100D01*
X157379015Y-108619481D01*
X157260481Y-108738015D01*
X157121100Y-108831147D01*
X156966228Y-108895297D01*
X156801816Y-108928000D01*
X156634184Y-108928000D01*
X156469772Y-108895297D01*
X156314900Y-108831147D01*
X156175519Y-108738015D01*
X156056985Y-108619481D01*
X155963853Y-108480100D01*
X155899703Y-108325228D01*
X155867000Y-108160816D01*
X155867000Y-107993184D01*
X155899703Y-107828772D01*
X155963853Y-107673900D01*
X156056985Y-107534519D01*
X156175519Y-107415985D01*
X156314900Y-107322853D01*
X156469772Y-107258703D01*
X156634184Y-107226000D01*
X156801816Y-107226000D01*
X156966228Y-107258703D01*
G37*
G36*
X187446228Y-107258703D02*
G01*
X187601100Y-107322853D01*
X187740481Y-107415985D01*
X187859015Y-107534519D01*
X187952147Y-107673900D01*
X188016297Y-107828772D01*
X188049000Y-107993184D01*
X188049000Y-108160816D01*
X188016297Y-108325228D01*
X187952147Y-108480100D01*
X187859015Y-108619481D01*
X187740481Y-108738015D01*
X187601100Y-108831147D01*
X187446228Y-108895297D01*
X187281816Y-108928000D01*
X187114184Y-108928000D01*
X186949772Y-108895297D01*
X186794900Y-108831147D01*
X186655519Y-108738015D01*
X186536985Y-108619481D01*
X186443853Y-108480100D01*
X186379703Y-108325228D01*
X186347000Y-108160816D01*
X186347000Y-107993184D01*
X186379703Y-107828772D01*
X186443853Y-107673900D01*
X186536985Y-107534519D01*
X186655519Y-107415985D01*
X186794900Y-107322853D01*
X186949772Y-107258703D01*
X187114184Y-107226000D01*
X187281816Y-107226000D01*
X187446228Y-107258703D01*
G37*
G36*
X159506228Y-107258703D02*
G01*
X159661100Y-107322853D01*
X159800481Y-107415985D01*
X159919015Y-107534519D01*
X160012147Y-107673900D01*
X160076297Y-107828772D01*
X160109000Y-107993184D01*
X160109000Y-108160816D01*
X160076297Y-108325228D01*
X160012147Y-108480100D01*
X159919015Y-108619481D01*
X159800481Y-108738015D01*
X159661100Y-108831147D01*
X159506228Y-108895297D01*
X159341816Y-108928000D01*
X159174184Y-108928000D01*
X159009772Y-108895297D01*
X158854900Y-108831147D01*
X158715519Y-108738015D01*
X158596985Y-108619481D01*
X158503853Y-108480100D01*
X158439703Y-108325228D01*
X158407000Y-108160816D01*
X158407000Y-107993184D01*
X158439703Y-107828772D01*
X158503853Y-107673900D01*
X158596985Y-107534519D01*
X158715519Y-107415985D01*
X158854900Y-107322853D01*
X159009772Y-107258703D01*
X159174184Y-107226000D01*
X159341816Y-107226000D01*
X159506228Y-107258703D01*
G37*
G36*
X162046228Y-107258703D02*
G01*
X162201100Y-107322853D01*
X162340481Y-107415985D01*
X162459015Y-107534519D01*
X162552147Y-107673900D01*
X162616297Y-107828772D01*
X162649000Y-107993184D01*
X162649000Y-108160816D01*
X162616297Y-108325228D01*
X162552147Y-108480100D01*
X162459015Y-108619481D01*
X162340481Y-108738015D01*
X162201100Y-108831147D01*
X162046228Y-108895297D01*
X161881816Y-108928000D01*
X161714184Y-108928000D01*
X161549772Y-108895297D01*
X161394900Y-108831147D01*
X161255519Y-108738015D01*
X161136985Y-108619481D01*
X161043853Y-108480100D01*
X160979703Y-108325228D01*
X160947000Y-108160816D01*
X160947000Y-107993184D01*
X160979703Y-107828772D01*
X161043853Y-107673900D01*
X161136985Y-107534519D01*
X161255519Y-107415985D01*
X161394900Y-107322853D01*
X161549772Y-107258703D01*
X161714184Y-107226000D01*
X161881816Y-107226000D01*
X162046228Y-107258703D01*
G37*
G36*
X164586228Y-107258703D02*
G01*
X164741100Y-107322853D01*
X164880481Y-107415985D01*
X164999015Y-107534519D01*
X165092147Y-107673900D01*
X165156297Y-107828772D01*
X165189000Y-107993184D01*
X165189000Y-108160816D01*
X165156297Y-108325228D01*
X165092147Y-108480100D01*
X164999015Y-108619481D01*
X164880481Y-108738015D01*
X164741100Y-108831147D01*
X164586228Y-108895297D01*
X164421816Y-108928000D01*
X164254184Y-108928000D01*
X164089772Y-108895297D01*
X163934900Y-108831147D01*
X163795519Y-108738015D01*
X163676985Y-108619481D01*
X163583853Y-108480100D01*
X163519703Y-108325228D01*
X163487000Y-108160816D01*
X163487000Y-107993184D01*
X163519703Y-107828772D01*
X163583853Y-107673900D01*
X163676985Y-107534519D01*
X163795519Y-107415985D01*
X163934900Y-107322853D01*
X164089772Y-107258703D01*
X164254184Y-107226000D01*
X164421816Y-107226000D01*
X164586228Y-107258703D01*
G37*
G36*
X167126228Y-107258703D02*
G01*
X167281100Y-107322853D01*
X167420481Y-107415985D01*
X167539015Y-107534519D01*
X167632147Y-107673900D01*
X167696297Y-107828772D01*
X167729000Y-107993184D01*
X167729000Y-108160816D01*
X167696297Y-108325228D01*
X167632147Y-108480100D01*
X167539015Y-108619481D01*
X167420481Y-108738015D01*
X167281100Y-108831147D01*
X167126228Y-108895297D01*
X166961816Y-108928000D01*
X166794184Y-108928000D01*
X166629772Y-108895297D01*
X166474900Y-108831147D01*
X166335519Y-108738015D01*
X166216985Y-108619481D01*
X166123853Y-108480100D01*
X166059703Y-108325228D01*
X166027000Y-108160816D01*
X166027000Y-107993184D01*
X166059703Y-107828772D01*
X166123853Y-107673900D01*
X166216985Y-107534519D01*
X166335519Y-107415985D01*
X166474900Y-107322853D01*
X166629772Y-107258703D01*
X166794184Y-107226000D01*
X166961816Y-107226000D01*
X167126228Y-107258703D01*
G37*
G36*
X169666228Y-107258703D02*
G01*
X169821100Y-107322853D01*
X169960481Y-107415985D01*
X170079015Y-107534519D01*
X170172147Y-107673900D01*
X170236297Y-107828772D01*
X170269000Y-107993184D01*
X170269000Y-108160816D01*
X170236297Y-108325228D01*
X170172147Y-108480100D01*
X170079015Y-108619481D01*
X169960481Y-108738015D01*
X169821100Y-108831147D01*
X169666228Y-108895297D01*
X169501816Y-108928000D01*
X169334184Y-108928000D01*
X169169772Y-108895297D01*
X169014900Y-108831147D01*
X168875519Y-108738015D01*
X168756985Y-108619481D01*
X168663853Y-108480100D01*
X168599703Y-108325228D01*
X168567000Y-108160816D01*
X168567000Y-107993184D01*
X168599703Y-107828772D01*
X168663853Y-107673900D01*
X168756985Y-107534519D01*
X168875519Y-107415985D01*
X169014900Y-107322853D01*
X169169772Y-107258703D01*
X169334184Y-107226000D01*
X169501816Y-107226000D01*
X169666228Y-107258703D01*
G37*
G36*
X172206228Y-107258703D02*
G01*
X172361100Y-107322853D01*
X172500481Y-107415985D01*
X172619015Y-107534519D01*
X172712147Y-107673900D01*
X172776297Y-107828772D01*
X172809000Y-107993184D01*
X172809000Y-108160816D01*
X172776297Y-108325228D01*
X172712147Y-108480100D01*
X172619015Y-108619481D01*
X172500481Y-108738015D01*
X172361100Y-108831147D01*
X172206228Y-108895297D01*
X172041816Y-108928000D01*
X171874184Y-108928000D01*
X171709772Y-108895297D01*
X171554900Y-108831147D01*
X171415519Y-108738015D01*
X171296985Y-108619481D01*
X171203853Y-108480100D01*
X171139703Y-108325228D01*
X171107000Y-108160816D01*
X171107000Y-107993184D01*
X171139703Y-107828772D01*
X171203853Y-107673900D01*
X171296985Y-107534519D01*
X171415519Y-107415985D01*
X171554900Y-107322853D01*
X171709772Y-107258703D01*
X171874184Y-107226000D01*
X172041816Y-107226000D01*
X172206228Y-107258703D01*
G37*
G36*
X174746228Y-107258703D02*
G01*
X174901100Y-107322853D01*
X175040481Y-107415985D01*
X175159015Y-107534519D01*
X175252147Y-107673900D01*
X175316297Y-107828772D01*
X175349000Y-107993184D01*
X175349000Y-108160816D01*
X175316297Y-108325228D01*
X175252147Y-108480100D01*
X175159015Y-108619481D01*
X175040481Y-108738015D01*
X174901100Y-108831147D01*
X174746228Y-108895297D01*
X174581816Y-108928000D01*
X174414184Y-108928000D01*
X174249772Y-108895297D01*
X174094900Y-108831147D01*
X173955519Y-108738015D01*
X173836985Y-108619481D01*
X173743853Y-108480100D01*
X173679703Y-108325228D01*
X173647000Y-108160816D01*
X173647000Y-107993184D01*
X173679703Y-107828772D01*
X173743853Y-107673900D01*
X173836985Y-107534519D01*
X173955519Y-107415985D01*
X174094900Y-107322853D01*
X174249772Y-107258703D01*
X174414184Y-107226000D01*
X174581816Y-107226000D01*
X174746228Y-107258703D01*
G37*
G36*
X177286228Y-107258703D02*
G01*
X177441100Y-107322853D01*
X177580481Y-107415985D01*
X177699015Y-107534519D01*
X177792147Y-107673900D01*
X177856297Y-107828772D01*
X177889000Y-107993184D01*
X177889000Y-108160816D01*
X177856297Y-108325228D01*
X177792147Y-108480100D01*
X177699015Y-108619481D01*
X177580481Y-108738015D01*
X177441100Y-108831147D01*
X177286228Y-108895297D01*
X177121816Y-108928000D01*
X176954184Y-108928000D01*
X176789772Y-108895297D01*
X176634900Y-108831147D01*
X176495519Y-108738015D01*
X176376985Y-108619481D01*
X176283853Y-108480100D01*
X176219703Y-108325228D01*
X176187000Y-108160816D01*
X176187000Y-107993184D01*
X176219703Y-107828772D01*
X176283853Y-107673900D01*
X176376985Y-107534519D01*
X176495519Y-107415985D01*
X176634900Y-107322853D01*
X176789772Y-107258703D01*
X176954184Y-107226000D01*
X177121816Y-107226000D01*
X177286228Y-107258703D01*
G37*
G36*
X182366228Y-92018703D02*
G01*
X182521100Y-92082853D01*
X182660481Y-92175985D01*
X182779015Y-92294519D01*
X182872147Y-92433900D01*
X182936297Y-92588772D01*
X182969000Y-92753184D01*
X182969000Y-92920816D01*
X182936297Y-93085228D01*
X182872147Y-93240100D01*
X182779015Y-93379481D01*
X182660481Y-93498015D01*
X182521100Y-93591147D01*
X182366228Y-93655297D01*
X182201816Y-93688000D01*
X182034184Y-93688000D01*
X181869772Y-93655297D01*
X181714900Y-93591147D01*
X181575519Y-93498015D01*
X181456985Y-93379481D01*
X181363853Y-93240100D01*
X181299703Y-93085228D01*
X181267000Y-92920816D01*
X181267000Y-92753184D01*
X181299703Y-92588772D01*
X181363853Y-92433900D01*
X181456985Y-92294519D01*
X181575519Y-92175985D01*
X181714900Y-92082853D01*
X181869772Y-92018703D01*
X182034184Y-91986000D01*
X182201816Y-91986000D01*
X182366228Y-92018703D01*
G37*
G36*
X146806228Y-92018703D02*
G01*
X146961100Y-92082853D01*
X147100481Y-92175985D01*
X147219015Y-92294519D01*
X147312147Y-92433900D01*
X147376297Y-92588772D01*
X147409000Y-92753184D01*
X147409000Y-92920816D01*
X147376297Y-93085228D01*
X147312147Y-93240100D01*
X147219015Y-93379481D01*
X147100481Y-93498015D01*
X146961100Y-93591147D01*
X146806228Y-93655297D01*
X146641816Y-93688000D01*
X146474184Y-93688000D01*
X146309772Y-93655297D01*
X146154900Y-93591147D01*
X146015519Y-93498015D01*
X145896985Y-93379481D01*
X145803853Y-93240100D01*
X145739703Y-93085228D01*
X145707000Y-92920816D01*
X145707000Y-92753184D01*
X145739703Y-92588772D01*
X145803853Y-92433900D01*
X145896985Y-92294519D01*
X146015519Y-92175985D01*
X146154900Y-92082853D01*
X146309772Y-92018703D01*
X146474184Y-91986000D01*
X146641816Y-91986000D01*
X146806228Y-92018703D01*
G37*
G36*
X149346228Y-92018703D02*
G01*
X149501100Y-92082853D01*
X149640481Y-92175985D01*
X149759015Y-92294519D01*
X149852147Y-92433900D01*
X149916297Y-92588772D01*
X149949000Y-92753184D01*
X149949000Y-92920816D01*
X149916297Y-93085228D01*
X149852147Y-93240100D01*
X149759015Y-93379481D01*
X149640481Y-93498015D01*
X149501100Y-93591147D01*
X149346228Y-93655297D01*
X149181816Y-93688000D01*
X149014184Y-93688000D01*
X148849772Y-93655297D01*
X148694900Y-93591147D01*
X148555519Y-93498015D01*
X148436985Y-93379481D01*
X148343853Y-93240100D01*
X148279703Y-93085228D01*
X148247000Y-92920816D01*
X148247000Y-92753184D01*
X148279703Y-92588772D01*
X148343853Y-92433900D01*
X148436985Y-92294519D01*
X148555519Y-92175985D01*
X148694900Y-92082853D01*
X148849772Y-92018703D01*
X149014184Y-91986000D01*
X149181816Y-91986000D01*
X149346228Y-92018703D01*
G37*
G36*
X184906228Y-92018703D02*
G01*
X185061100Y-92082853D01*
X185200481Y-92175985D01*
X185319015Y-92294519D01*
X185412147Y-92433900D01*
X185476297Y-92588772D01*
X185509000Y-92753184D01*
X185509000Y-92920816D01*
X185476297Y-93085228D01*
X185412147Y-93240100D01*
X185319015Y-93379481D01*
X185200481Y-93498015D01*
X185061100Y-93591147D01*
X184906228Y-93655297D01*
X184741816Y-93688000D01*
X184574184Y-93688000D01*
X184409772Y-93655297D01*
X184254900Y-93591147D01*
X184115519Y-93498015D01*
X183996985Y-93379481D01*
X183903853Y-93240100D01*
X183839703Y-93085228D01*
X183807000Y-92920816D01*
X183807000Y-92753184D01*
X183839703Y-92588772D01*
X183903853Y-92433900D01*
X183996985Y-92294519D01*
X184115519Y-92175985D01*
X184254900Y-92082853D01*
X184409772Y-92018703D01*
X184574184Y-91986000D01*
X184741816Y-91986000D01*
X184906228Y-92018703D01*
G37*
G36*
X187446228Y-92018703D02*
G01*
X187601100Y-92082853D01*
X187740481Y-92175985D01*
X187859015Y-92294519D01*
X187952147Y-92433900D01*
X188016297Y-92588772D01*
X188049000Y-92753184D01*
X188049000Y-92920816D01*
X188016297Y-93085228D01*
X187952147Y-93240100D01*
X187859015Y-93379481D01*
X187740481Y-93498015D01*
X187601100Y-93591147D01*
X187446228Y-93655297D01*
X187281816Y-93688000D01*
X187114184Y-93688000D01*
X186949772Y-93655297D01*
X186794900Y-93591147D01*
X186655519Y-93498015D01*
X186536985Y-93379481D01*
X186443853Y-93240100D01*
X186379703Y-93085228D01*
X186347000Y-92920816D01*
X186347000Y-92753184D01*
X186379703Y-92588772D01*
X186443853Y-92433900D01*
X186536985Y-92294519D01*
X186655519Y-92175985D01*
X186794900Y-92082853D01*
X186949772Y-92018703D01*
X187114184Y-91986000D01*
X187281816Y-91986000D01*
X187446228Y-92018703D01*
G37*
G36*
X189986228Y-92018703D02*
G01*
X190141100Y-92082853D01*
X190280481Y-92175985D01*
X190399015Y-92294519D01*
X190492147Y-92433900D01*
X190556297Y-92588772D01*
X190589000Y-92753184D01*
X190589000Y-92920816D01*
X190556297Y-93085228D01*
X190492147Y-93240100D01*
X190399015Y-93379481D01*
X190280481Y-93498015D01*
X190141100Y-93591147D01*
X189986228Y-93655297D01*
X189821816Y-93688000D01*
X189654184Y-93688000D01*
X189489772Y-93655297D01*
X189334900Y-93591147D01*
X189195519Y-93498015D01*
X189076985Y-93379481D01*
X188983853Y-93240100D01*
X188919703Y-93085228D01*
X188887000Y-92920816D01*
X188887000Y-92753184D01*
X188919703Y-92588772D01*
X188983853Y-92433900D01*
X189076985Y-92294519D01*
X189195519Y-92175985D01*
X189334900Y-92082853D01*
X189489772Y-92018703D01*
X189654184Y-91986000D01*
X189821816Y-91986000D01*
X189986228Y-92018703D01*
G37*
G36*
X192526228Y-92018703D02*
G01*
X192681100Y-92082853D01*
X192820481Y-92175985D01*
X192939015Y-92294519D01*
X193032147Y-92433900D01*
X193096297Y-92588772D01*
X193129000Y-92753184D01*
X193129000Y-92920816D01*
X193096297Y-93085228D01*
X193032147Y-93240100D01*
X192939015Y-93379481D01*
X192820481Y-93498015D01*
X192681100Y-93591147D01*
X192526228Y-93655297D01*
X192361816Y-93688000D01*
X192194184Y-93688000D01*
X192029772Y-93655297D01*
X191874900Y-93591147D01*
X191735519Y-93498015D01*
X191616985Y-93379481D01*
X191523853Y-93240100D01*
X191459703Y-93085228D01*
X191427000Y-92920816D01*
X191427000Y-92753184D01*
X191459703Y-92588772D01*
X191523853Y-92433900D01*
X191616985Y-92294519D01*
X191735519Y-92175985D01*
X191874900Y-92082853D01*
X192029772Y-92018703D01*
X192194184Y-91986000D01*
X192361816Y-91986000D01*
X192526228Y-92018703D01*
G37*
G36*
X195066228Y-92018703D02*
G01*
X195221100Y-92082853D01*
X195360481Y-92175985D01*
X195479015Y-92294519D01*
X195572147Y-92433900D01*
X195636297Y-92588772D01*
X195669000Y-92753184D01*
X195669000Y-92920816D01*
X195636297Y-93085228D01*
X195572147Y-93240100D01*
X195479015Y-93379481D01*
X195360481Y-93498015D01*
X195221100Y-93591147D01*
X195066228Y-93655297D01*
X194901816Y-93688000D01*
X194734184Y-93688000D01*
X194569772Y-93655297D01*
X194414900Y-93591147D01*
X194275519Y-93498015D01*
X194156985Y-93379481D01*
X194063853Y-93240100D01*
X193999703Y-93085228D01*
X193967000Y-92920816D01*
X193967000Y-92753184D01*
X193999703Y-92588772D01*
X194063853Y-92433900D01*
X194156985Y-92294519D01*
X194275519Y-92175985D01*
X194414900Y-92082853D01*
X194569772Y-92018703D01*
X194734184Y-91986000D01*
X194901816Y-91986000D01*
X195066228Y-92018703D01*
G37*
G36*
X197606228Y-92018703D02*
G01*
X197761100Y-92082853D01*
X197900481Y-92175985D01*
X198019015Y-92294519D01*
X198112147Y-92433900D01*
X198176297Y-92588772D01*
X198209000Y-92753184D01*
X198209000Y-92920816D01*
X198176297Y-93085228D01*
X198112147Y-93240100D01*
X198019015Y-93379481D01*
X197900481Y-93498015D01*
X197761100Y-93591147D01*
X197606228Y-93655297D01*
X197441816Y-93688000D01*
X197274184Y-93688000D01*
X197109772Y-93655297D01*
X196954900Y-93591147D01*
X196815519Y-93498015D01*
X196696985Y-93379481D01*
X196603853Y-93240100D01*
X196539703Y-93085228D01*
X196507000Y-92920816D01*
X196507000Y-92753184D01*
X196539703Y-92588772D01*
X196603853Y-92433900D01*
X196696985Y-92294519D01*
X196815519Y-92175985D01*
X196954900Y-92082853D01*
X197109772Y-92018703D01*
X197274184Y-91986000D01*
X197441816Y-91986000D01*
X197606228Y-92018703D01*
G37*
G36*
X200146228Y-92018703D02*
G01*
X200301100Y-92082853D01*
X200440481Y-92175985D01*
X200559015Y-92294519D01*
X200652147Y-92433900D01*
X200716297Y-92588772D01*
X200749000Y-92753184D01*
X200749000Y-92920816D01*
X200716297Y-93085228D01*
X200652147Y-93240100D01*
X200559015Y-93379481D01*
X200440481Y-93498015D01*
X200301100Y-93591147D01*
X200146228Y-93655297D01*
X199981816Y-93688000D01*
X199814184Y-93688000D01*
X199649772Y-93655297D01*
X199494900Y-93591147D01*
X199355519Y-93498015D01*
X199236985Y-93379481D01*
X199143853Y-93240100D01*
X199079703Y-93085228D01*
X199047000Y-92920816D01*
X199047000Y-92753184D01*
X199079703Y-92588772D01*
X199143853Y-92433900D01*
X199236985Y-92294519D01*
X199355519Y-92175985D01*
X199494900Y-92082853D01*
X199649772Y-92018703D01*
X199814184Y-91986000D01*
X199981816Y-91986000D01*
X200146228Y-92018703D01*
G37*
G36*
X202686228Y-92018703D02*
G01*
X202841100Y-92082853D01*
X202980481Y-92175985D01*
X203099015Y-92294519D01*
X203192147Y-92433900D01*
X203256297Y-92588772D01*
X203289000Y-92753184D01*
X203289000Y-92920816D01*
X203256297Y-93085228D01*
X203192147Y-93240100D01*
X203099015Y-93379481D01*
X202980481Y-93498015D01*
X202841100Y-93591147D01*
X202686228Y-93655297D01*
X202521816Y-93688000D01*
X202354184Y-93688000D01*
X202189772Y-93655297D01*
X202034900Y-93591147D01*
X201895519Y-93498015D01*
X201776985Y-93379481D01*
X201683853Y-93240100D01*
X201619703Y-93085228D01*
X201587000Y-92920816D01*
X201587000Y-92753184D01*
X201619703Y-92588772D01*
X201683853Y-92433900D01*
X201776985Y-92294519D01*
X201895519Y-92175985D01*
X202034900Y-92082853D01*
X202189772Y-92018703D01*
X202354184Y-91986000D01*
X202521816Y-91986000D01*
X202686228Y-92018703D01*
G37*
G36*
X205226228Y-92018703D02*
G01*
X205381100Y-92082853D01*
X205520481Y-92175985D01*
X205639015Y-92294519D01*
X205732147Y-92433900D01*
X205796297Y-92588772D01*
X205829000Y-92753184D01*
X205829000Y-92920816D01*
X205796297Y-93085228D01*
X205732147Y-93240100D01*
X205639015Y-93379481D01*
X205520481Y-93498015D01*
X205381100Y-93591147D01*
X205226228Y-93655297D01*
X205061816Y-93688000D01*
X204894184Y-93688000D01*
X204729772Y-93655297D01*
X204574900Y-93591147D01*
X204435519Y-93498015D01*
X204316985Y-93379481D01*
X204223853Y-93240100D01*
X204159703Y-93085228D01*
X204127000Y-92920816D01*
X204127000Y-92753184D01*
X204159703Y-92588772D01*
X204223853Y-92433900D01*
X204316985Y-92294519D01*
X204435519Y-92175985D01*
X204574900Y-92082853D01*
X204729772Y-92018703D01*
X204894184Y-91986000D01*
X205061816Y-91986000D01*
X205226228Y-92018703D01*
G37*
G36*
X179826228Y-92018703D02*
G01*
X179981100Y-92082853D01*
X180120481Y-92175985D01*
X180239015Y-92294519D01*
X180332147Y-92433900D01*
X180396297Y-92588772D01*
X180429000Y-92753184D01*
X180429000Y-92920816D01*
X180396297Y-93085228D01*
X180332147Y-93240100D01*
X180239015Y-93379481D01*
X180120481Y-93498015D01*
X179981100Y-93591147D01*
X179826228Y-93655297D01*
X179661816Y-93688000D01*
X179494184Y-93688000D01*
X179329772Y-93655297D01*
X179174900Y-93591147D01*
X179035519Y-93498015D01*
X178916985Y-93379481D01*
X178823853Y-93240100D01*
X178759703Y-93085228D01*
X178727000Y-92920816D01*
X178727000Y-92753184D01*
X178759703Y-92588772D01*
X178823853Y-92433900D01*
X178916985Y-92294519D01*
X179035519Y-92175985D01*
X179174900Y-92082853D01*
X179329772Y-92018703D01*
X179494184Y-91986000D01*
X179661816Y-91986000D01*
X179826228Y-92018703D01*
G37*
G36*
X177286228Y-92018703D02*
G01*
X177441100Y-92082853D01*
X177580481Y-92175985D01*
X177699015Y-92294519D01*
X177792147Y-92433900D01*
X177856297Y-92588772D01*
X177889000Y-92753184D01*
X177889000Y-92920816D01*
X177856297Y-93085228D01*
X177792147Y-93240100D01*
X177699015Y-93379481D01*
X177580481Y-93498015D01*
X177441100Y-93591147D01*
X177286228Y-93655297D01*
X177121816Y-93688000D01*
X176954184Y-93688000D01*
X176789772Y-93655297D01*
X176634900Y-93591147D01*
X176495519Y-93498015D01*
X176376985Y-93379481D01*
X176283853Y-93240100D01*
X176219703Y-93085228D01*
X176187000Y-92920816D01*
X176187000Y-92753184D01*
X176219703Y-92588772D01*
X176283853Y-92433900D01*
X176376985Y-92294519D01*
X176495519Y-92175985D01*
X176634900Y-92082853D01*
X176789772Y-92018703D01*
X176954184Y-91986000D01*
X177121816Y-91986000D01*
X177286228Y-92018703D01*
G37*
G36*
X174746228Y-92018703D02*
G01*
X174901100Y-92082853D01*
X175040481Y-92175985D01*
X175159015Y-92294519D01*
X175252147Y-92433900D01*
X175316297Y-92588772D01*
X175349000Y-92753184D01*
X175349000Y-92920816D01*
X175316297Y-93085228D01*
X175252147Y-93240100D01*
X175159015Y-93379481D01*
X175040481Y-93498015D01*
X174901100Y-93591147D01*
X174746228Y-93655297D01*
X174581816Y-93688000D01*
X174414184Y-93688000D01*
X174249772Y-93655297D01*
X174094900Y-93591147D01*
X173955519Y-93498015D01*
X173836985Y-93379481D01*
X173743853Y-93240100D01*
X173679703Y-93085228D01*
X173647000Y-92920816D01*
X173647000Y-92753184D01*
X173679703Y-92588772D01*
X173743853Y-92433900D01*
X173836985Y-92294519D01*
X173955519Y-92175985D01*
X174094900Y-92082853D01*
X174249772Y-92018703D01*
X174414184Y-91986000D01*
X174581816Y-91986000D01*
X174746228Y-92018703D01*
G37*
G36*
X172206228Y-92018703D02*
G01*
X172361100Y-92082853D01*
X172500481Y-92175985D01*
X172619015Y-92294519D01*
X172712147Y-92433900D01*
X172776297Y-92588772D01*
X172809000Y-92753184D01*
X172809000Y-92920816D01*
X172776297Y-93085228D01*
X172712147Y-93240100D01*
X172619015Y-93379481D01*
X172500481Y-93498015D01*
X172361100Y-93591147D01*
X172206228Y-93655297D01*
X172041816Y-93688000D01*
X171874184Y-93688000D01*
X171709772Y-93655297D01*
X171554900Y-93591147D01*
X171415519Y-93498015D01*
X171296985Y-93379481D01*
X171203853Y-93240100D01*
X171139703Y-93085228D01*
X171107000Y-92920816D01*
X171107000Y-92753184D01*
X171139703Y-92588772D01*
X171203853Y-92433900D01*
X171296985Y-92294519D01*
X171415519Y-92175985D01*
X171554900Y-92082853D01*
X171709772Y-92018703D01*
X171874184Y-91986000D01*
X172041816Y-91986000D01*
X172206228Y-92018703D01*
G37*
G36*
X164586228Y-92018703D02*
G01*
X164741100Y-92082853D01*
X164880481Y-92175985D01*
X164999015Y-92294519D01*
X165092147Y-92433900D01*
X165156297Y-92588772D01*
X165189000Y-92753184D01*
X165189000Y-92920816D01*
X165156297Y-93085228D01*
X165092147Y-93240100D01*
X164999015Y-93379481D01*
X164880481Y-93498015D01*
X164741100Y-93591147D01*
X164586228Y-93655297D01*
X164421816Y-93688000D01*
X164254184Y-93688000D01*
X164089772Y-93655297D01*
X163934900Y-93591147D01*
X163795519Y-93498015D01*
X163676985Y-93379481D01*
X163583853Y-93240100D01*
X163519703Y-93085228D01*
X163487000Y-92920816D01*
X163487000Y-92753184D01*
X163519703Y-92588772D01*
X163583853Y-92433900D01*
X163676985Y-92294519D01*
X163795519Y-92175985D01*
X163934900Y-92082853D01*
X164089772Y-92018703D01*
X164254184Y-91986000D01*
X164421816Y-91986000D01*
X164586228Y-92018703D01*
G37*
G36*
X162046228Y-92018703D02*
G01*
X162201100Y-92082853D01*
X162340481Y-92175985D01*
X162459015Y-92294519D01*
X162552147Y-92433900D01*
X162616297Y-92588772D01*
X162649000Y-92753184D01*
X162649000Y-92920816D01*
X162616297Y-93085228D01*
X162552147Y-93240100D01*
X162459015Y-93379481D01*
X162340481Y-93498015D01*
X162201100Y-93591147D01*
X162046228Y-93655297D01*
X161881816Y-93688000D01*
X161714184Y-93688000D01*
X161549772Y-93655297D01*
X161394900Y-93591147D01*
X161255519Y-93498015D01*
X161136985Y-93379481D01*
X161043853Y-93240100D01*
X160979703Y-93085228D01*
X160947000Y-92920816D01*
X160947000Y-92753184D01*
X160979703Y-92588772D01*
X161043853Y-92433900D01*
X161136985Y-92294519D01*
X161255519Y-92175985D01*
X161394900Y-92082853D01*
X161549772Y-92018703D01*
X161714184Y-91986000D01*
X161881816Y-91986000D01*
X162046228Y-92018703D01*
G37*
G36*
X159506228Y-92018703D02*
G01*
X159661100Y-92082853D01*
X159800481Y-92175985D01*
X159919015Y-92294519D01*
X160012147Y-92433900D01*
X160076297Y-92588772D01*
X160109000Y-92753184D01*
X160109000Y-92920816D01*
X160076297Y-93085228D01*
X160012147Y-93240100D01*
X159919015Y-93379481D01*
X159800481Y-93498015D01*
X159661100Y-93591147D01*
X159506228Y-93655297D01*
X159341816Y-93688000D01*
X159174184Y-93688000D01*
X159009772Y-93655297D01*
X158854900Y-93591147D01*
X158715519Y-93498015D01*
X158596985Y-93379481D01*
X158503853Y-93240100D01*
X158439703Y-93085228D01*
X158407000Y-92920816D01*
X158407000Y-92753184D01*
X158439703Y-92588772D01*
X158503853Y-92433900D01*
X158596985Y-92294519D01*
X158715519Y-92175985D01*
X158854900Y-92082853D01*
X159009772Y-92018703D01*
X159174184Y-91986000D01*
X159341816Y-91986000D01*
X159506228Y-92018703D01*
G37*
G36*
X156966228Y-92018703D02*
G01*
X157121100Y-92082853D01*
X157260481Y-92175985D01*
X157379015Y-92294519D01*
X157472147Y-92433900D01*
X157536297Y-92588772D01*
X157569000Y-92753184D01*
X157569000Y-92920816D01*
X157536297Y-93085228D01*
X157472147Y-93240100D01*
X157379015Y-93379481D01*
X157260481Y-93498015D01*
X157121100Y-93591147D01*
X156966228Y-93655297D01*
X156801816Y-93688000D01*
X156634184Y-93688000D01*
X156469772Y-93655297D01*
X156314900Y-93591147D01*
X156175519Y-93498015D01*
X156056985Y-93379481D01*
X155963853Y-93240100D01*
X155899703Y-93085228D01*
X155867000Y-92920816D01*
X155867000Y-92753184D01*
X155899703Y-92588772D01*
X155963853Y-92433900D01*
X156056985Y-92294519D01*
X156175519Y-92175985D01*
X156314900Y-92082853D01*
X156469772Y-92018703D01*
X156634184Y-91986000D01*
X156801816Y-91986000D01*
X156966228Y-92018703D01*
G37*
G36*
X154426228Y-92018703D02*
G01*
X154581100Y-92082853D01*
X154720481Y-92175985D01*
X154839015Y-92294519D01*
X154932147Y-92433900D01*
X154996297Y-92588772D01*
X155029000Y-92753184D01*
X155029000Y-92920816D01*
X154996297Y-93085228D01*
X154932147Y-93240100D01*
X154839015Y-93379481D01*
X154720481Y-93498015D01*
X154581100Y-93591147D01*
X154426228Y-93655297D01*
X154261816Y-93688000D01*
X154094184Y-93688000D01*
X153929772Y-93655297D01*
X153774900Y-93591147D01*
X153635519Y-93498015D01*
X153516985Y-93379481D01*
X153423853Y-93240100D01*
X153359703Y-93085228D01*
X153327000Y-92920816D01*
X153327000Y-92753184D01*
X153359703Y-92588772D01*
X153423853Y-92433900D01*
X153516985Y-92294519D01*
X153635519Y-92175985D01*
X153774900Y-92082853D01*
X153929772Y-92018703D01*
X154094184Y-91986000D01*
X154261816Y-91986000D01*
X154426228Y-92018703D01*
G37*
G36*
X169666228Y-92018703D02*
G01*
X169821100Y-92082853D01*
X169960481Y-92175985D01*
X170079015Y-92294519D01*
X170172147Y-92433900D01*
X170236297Y-92588772D01*
X170269000Y-92753184D01*
X170269000Y-92920816D01*
X170236297Y-93085228D01*
X170172147Y-93240100D01*
X170079015Y-93379481D01*
X169960481Y-93498015D01*
X169821100Y-93591147D01*
X169666228Y-93655297D01*
X169501816Y-93688000D01*
X169334184Y-93688000D01*
X169169772Y-93655297D01*
X169014900Y-93591147D01*
X168875519Y-93498015D01*
X168756985Y-93379481D01*
X168663853Y-93240100D01*
X168599703Y-93085228D01*
X168567000Y-92920816D01*
X168567000Y-92753184D01*
X168599703Y-92588772D01*
X168663853Y-92433900D01*
X168756985Y-92294519D01*
X168875519Y-92175985D01*
X169014900Y-92082853D01*
X169169772Y-92018703D01*
X169334184Y-91986000D01*
X169501816Y-91986000D01*
X169666228Y-92018703D01*
G37*
G36*
X151886228Y-92018703D02*
G01*
X152041100Y-92082853D01*
X152180481Y-92175985D01*
X152299015Y-92294519D01*
X152392147Y-92433900D01*
X152456297Y-92588772D01*
X152489000Y-92753184D01*
X152489000Y-92920816D01*
X152456297Y-93085228D01*
X152392147Y-93240100D01*
X152299015Y-93379481D01*
X152180481Y-93498015D01*
X152041100Y-93591147D01*
X151886228Y-93655297D01*
X151721816Y-93688000D01*
X151554184Y-93688000D01*
X151389772Y-93655297D01*
X151234900Y-93591147D01*
X151095519Y-93498015D01*
X150976985Y-93379481D01*
X150883853Y-93240100D01*
X150819703Y-93085228D01*
X150787000Y-92920816D01*
X150787000Y-92753184D01*
X150819703Y-92588772D01*
X150883853Y-92433900D01*
X150976985Y-92294519D01*
X151095519Y-92175985D01*
X151234900Y-92082853D01*
X151389772Y-92018703D01*
X151554184Y-91986000D01*
X151721816Y-91986000D01*
X151886228Y-92018703D01*
G37*
G36*
X167126228Y-92018703D02*
G01*
X167281100Y-92082853D01*
X167420481Y-92175985D01*
X167539015Y-92294519D01*
X167632147Y-92433900D01*
X167696297Y-92588772D01*
X167729000Y-92753184D01*
X167729000Y-92920816D01*
X167696297Y-93085228D01*
X167632147Y-93240100D01*
X167539015Y-93379481D01*
X167420481Y-93498015D01*
X167281100Y-93591147D01*
X167126228Y-93655297D01*
X166961816Y-93688000D01*
X166794184Y-93688000D01*
X166629772Y-93655297D01*
X166474900Y-93591147D01*
X166335519Y-93498015D01*
X166216985Y-93379481D01*
X166123853Y-93240100D01*
X166059703Y-93085228D01*
X166027000Y-92920816D01*
X166027000Y-92753184D01*
X166059703Y-92588772D01*
X166123853Y-92433900D01*
X166216985Y-92294519D01*
X166335519Y-92175985D01*
X166474900Y-92082853D01*
X166629772Y-92018703D01*
X166794184Y-91986000D01*
X166961816Y-91986000D01*
X167126228Y-92018703D01*
G37*
G36*
X191532512Y-84791927D02*
G01*
X191681812Y-84821624D01*
X191845784Y-84889544D01*
X191993354Y-84988147D01*
X192118853Y-85113646D01*
X192217456Y-85261216D01*
X192285376Y-85425188D01*
X192320000Y-85599259D01*
X192320000Y-85776741D01*
X192285376Y-85950812D01*
X192217456Y-86114784D01*
X192118853Y-86262354D01*
X191993354Y-86387853D01*
X191845784Y-86486456D01*
X191681812Y-86554376D01*
X191532512Y-86584073D01*
X191507742Y-86589000D01*
X191330258Y-86589000D01*
X191305488Y-86584073D01*
X191156188Y-86554376D01*
X190992216Y-86486456D01*
X190844646Y-86387853D01*
X190719147Y-86262354D01*
X190620544Y-86114784D01*
X190552624Y-85950812D01*
X190518000Y-85776741D01*
X190518000Y-85599259D01*
X190552624Y-85425188D01*
X190620544Y-85261216D01*
X190719147Y-85113646D01*
X190844646Y-84988147D01*
X190992216Y-84889544D01*
X191156188Y-84821624D01*
X191305488Y-84791927D01*
X191330258Y-84787000D01*
X191507742Y-84787000D01*
X191532512Y-84791927D01*
G37*
G36*
X184032512Y-84791927D02*
G01*
X184181812Y-84821624D01*
X184345784Y-84889544D01*
X184493354Y-84988147D01*
X184618853Y-85113646D01*
X184717456Y-85261216D01*
X184785376Y-85425188D01*
X184820000Y-85599259D01*
X184820000Y-85776741D01*
X184785376Y-85950812D01*
X184717456Y-86114784D01*
X184618853Y-86262354D01*
X184493354Y-86387853D01*
X184345784Y-86486456D01*
X184181812Y-86554376D01*
X184032512Y-86584073D01*
X184007742Y-86589000D01*
X183830258Y-86589000D01*
X183805488Y-86584073D01*
X183656188Y-86554376D01*
X183492216Y-86486456D01*
X183344646Y-86387853D01*
X183219147Y-86262354D01*
X183120544Y-86114784D01*
X183052624Y-85950812D01*
X183018000Y-85776741D01*
X183018000Y-85599259D01*
X183052624Y-85425188D01*
X183120544Y-85261216D01*
X183219147Y-85113646D01*
X183344646Y-84988147D01*
X183492216Y-84889544D01*
X183656188Y-84821624D01*
X183805488Y-84791927D01*
X183830258Y-84787000D01*
X184007742Y-84787000D01*
X184032512Y-84791927D01*
G37*
G36*
X155024855Y-85045140D02*
G01*
X155088618Y-85051420D01*
X155179404Y-85078960D01*
X155211336Y-85088646D01*
X155324425Y-85149094D01*
X155423554Y-85230446D01*
X155504906Y-85329575D01*
X155565354Y-85442664D01*
X155565355Y-85442668D01*
X155602580Y-85565382D01*
X155615149Y-85693000D01*
X155602580Y-85820618D01*
X155575040Y-85911404D01*
X155565354Y-85943336D01*
X155504906Y-86056425D01*
X155423554Y-86155554D01*
X155324425Y-86236906D01*
X155211336Y-86297354D01*
X155179404Y-86307040D01*
X155088618Y-86334580D01*
X155024855Y-86340860D01*
X154992974Y-86344000D01*
X154379026Y-86344000D01*
X154347145Y-86340860D01*
X154283382Y-86334580D01*
X154192596Y-86307040D01*
X154160664Y-86297354D01*
X154047575Y-86236906D01*
X153948446Y-86155554D01*
X153867094Y-86056425D01*
X153806646Y-85943336D01*
X153796960Y-85911404D01*
X153769420Y-85820618D01*
X153756851Y-85693000D01*
X153769420Y-85565382D01*
X153806645Y-85442668D01*
X153806646Y-85442664D01*
X153867094Y-85329575D01*
X153948446Y-85230446D01*
X154047575Y-85149094D01*
X154160664Y-85088646D01*
X154192596Y-85078960D01*
X154283382Y-85051420D01*
X154347145Y-85045140D01*
X154379026Y-85042000D01*
X154992974Y-85042000D01*
X155024855Y-85045140D01*
G37*
G36*
X155452242Y-83046404D02*
G01*
X155489337Y-83057657D01*
X155523515Y-83075925D01*
X155553481Y-83100519D01*
X155578075Y-83130485D01*
X155596343Y-83164663D01*
X155607596Y-83201758D01*
X155612000Y-83246474D01*
X155612000Y-84139526D01*
X155607596Y-84184242D01*
X155596343Y-84221337D01*
X155578075Y-84255515D01*
X155553481Y-84285481D01*
X155523515Y-84310075D01*
X155489337Y-84328343D01*
X155452242Y-84339596D01*
X155407526Y-84344000D01*
X153964474Y-84344000D01*
X153919758Y-84339596D01*
X153882663Y-84328343D01*
X153848485Y-84310075D01*
X153818519Y-84285481D01*
X153793925Y-84255515D01*
X153775657Y-84221337D01*
X153764404Y-84184242D01*
X153760000Y-84139526D01*
X153760000Y-83246474D01*
X153764404Y-83201758D01*
X153775657Y-83164663D01*
X153793925Y-83130485D01*
X153818519Y-83100519D01*
X153848485Y-83075925D01*
X153882663Y-83057657D01*
X153919758Y-83046404D01*
X153964474Y-83042000D01*
X155407526Y-83042000D01*
X155452242Y-83046404D01*
G37*
G36*
X184032512Y-82251927D02*
G01*
X184181812Y-82281624D01*
X184345784Y-82349544D01*
X184493354Y-82448147D01*
X184618853Y-82573646D01*
X184717456Y-82721216D01*
X184785376Y-82885188D01*
X184815073Y-83034488D01*
X184819682Y-83057657D01*
X184820000Y-83059259D01*
X184820000Y-83236741D01*
X184785376Y-83410812D01*
X184717456Y-83574784D01*
X184618853Y-83722354D01*
X184493354Y-83847853D01*
X184345784Y-83946456D01*
X184181812Y-84014376D01*
X184032512Y-84044073D01*
X184007742Y-84049000D01*
X183830258Y-84049000D01*
X183805488Y-84044073D01*
X183656188Y-84014376D01*
X183492216Y-83946456D01*
X183344646Y-83847853D01*
X183219147Y-83722354D01*
X183120544Y-83574784D01*
X183052624Y-83410812D01*
X183018000Y-83236741D01*
X183018000Y-83059259D01*
X183018319Y-83057657D01*
X183022927Y-83034488D01*
X183052624Y-82885188D01*
X183120544Y-82721216D01*
X183219147Y-82573646D01*
X183344646Y-82448147D01*
X183492216Y-82349544D01*
X183656188Y-82281624D01*
X183805488Y-82251927D01*
X183830258Y-82247000D01*
X184007742Y-82247000D01*
X184032512Y-82251927D01*
G37*
G36*
X191532512Y-82251927D02*
G01*
X191681812Y-82281624D01*
X191845784Y-82349544D01*
X191993354Y-82448147D01*
X192118853Y-82573646D01*
X192217456Y-82721216D01*
X192285376Y-82885188D01*
X192315073Y-83034488D01*
X192319682Y-83057657D01*
X192320000Y-83059259D01*
X192320000Y-83236741D01*
X192285376Y-83410812D01*
X192217456Y-83574784D01*
X192118853Y-83722354D01*
X191993354Y-83847853D01*
X191845784Y-83946456D01*
X191681812Y-84014376D01*
X191532512Y-84044073D01*
X191507742Y-84049000D01*
X191330258Y-84049000D01*
X191305488Y-84044073D01*
X191156188Y-84014376D01*
X190992216Y-83946456D01*
X190844646Y-83847853D01*
X190719147Y-83722354D01*
X190620544Y-83574784D01*
X190552624Y-83410812D01*
X190518000Y-83236741D01*
X190518000Y-83059259D01*
X190518319Y-83057657D01*
X190522927Y-83034488D01*
X190552624Y-82885188D01*
X190620544Y-82721216D01*
X190719147Y-82573646D01*
X190844646Y-82448147D01*
X190992216Y-82349544D01*
X191156188Y-82281624D01*
X191305488Y-82251927D01*
X191330258Y-82247000D01*
X191507742Y-82247000D01*
X191532512Y-82251927D01*
G37*
G36*
X184032512Y-79711927D02*
G01*
X184181812Y-79741624D01*
X184345784Y-79809544D01*
X184493354Y-79908147D01*
X184618853Y-80033646D01*
X184717456Y-80181216D01*
X184785376Y-80345188D01*
X184820000Y-80519259D01*
X184820000Y-80696741D01*
X184785376Y-80870812D01*
X184717456Y-81034784D01*
X184618853Y-81182354D01*
X184493354Y-81307853D01*
X184345784Y-81406456D01*
X184181812Y-81474376D01*
X184032512Y-81504073D01*
X184007742Y-81509000D01*
X183830258Y-81509000D01*
X183805488Y-81504073D01*
X183656188Y-81474376D01*
X183492216Y-81406456D01*
X183344646Y-81307853D01*
X183219147Y-81182354D01*
X183120544Y-81034784D01*
X183052624Y-80870812D01*
X183018000Y-80696741D01*
X183018000Y-80519259D01*
X183052624Y-80345188D01*
X183120544Y-80181216D01*
X183219147Y-80033646D01*
X183344646Y-79908147D01*
X183492216Y-79809544D01*
X183656188Y-79741624D01*
X183805488Y-79711927D01*
X183830258Y-79707000D01*
X184007742Y-79707000D01*
X184032512Y-79711927D01*
G37*
G36*
X191532512Y-79711927D02*
G01*
X191681812Y-79741624D01*
X191845784Y-79809544D01*
X191993354Y-79908147D01*
X192118853Y-80033646D01*
X192217456Y-80181216D01*
X192285376Y-80345188D01*
X192320000Y-80519259D01*
X192320000Y-80696741D01*
X192285376Y-80870812D01*
X192217456Y-81034784D01*
X192118853Y-81182354D01*
X191993354Y-81307853D01*
X191845784Y-81406456D01*
X191681812Y-81474376D01*
X191532512Y-81504073D01*
X191507742Y-81509000D01*
X191330258Y-81509000D01*
X191305488Y-81504073D01*
X191156188Y-81474376D01*
X190992216Y-81406456D01*
X190844646Y-81307853D01*
X190719147Y-81182354D01*
X190620544Y-81034784D01*
X190552624Y-80870812D01*
X190518000Y-80696741D01*
X190518000Y-80519259D01*
X190552624Y-80345188D01*
X190620544Y-80181216D01*
X190719147Y-80033646D01*
X190844646Y-79908147D01*
X190992216Y-79809544D01*
X191156188Y-79741624D01*
X191305488Y-79711927D01*
X191330258Y-79707000D01*
X191507742Y-79707000D01*
X191532512Y-79711927D01*
G37*
G36*
X168025242Y-79744404D02*
G01*
X168062337Y-79755657D01*
X168096515Y-79773925D01*
X168126481Y-79798519D01*
X168151075Y-79828485D01*
X168169343Y-79862663D01*
X168180596Y-79899758D01*
X168185000Y-79944474D01*
X168185000Y-80837526D01*
X168180596Y-80882242D01*
X168169343Y-80919337D01*
X168151075Y-80953515D01*
X168126481Y-80983481D01*
X168096515Y-81008075D01*
X168062337Y-81026343D01*
X168025242Y-81037596D01*
X167980526Y-81042000D01*
X166537474Y-81042000D01*
X166492758Y-81037596D01*
X166455663Y-81026343D01*
X166421485Y-81008075D01*
X166391519Y-80983481D01*
X166366925Y-80953515D01*
X166348657Y-80919337D01*
X166337404Y-80882242D01*
X166333000Y-80837526D01*
X166333000Y-79944474D01*
X166337404Y-79899758D01*
X166348657Y-79862663D01*
X166366925Y-79828485D01*
X166391519Y-79798519D01*
X166421485Y-79773925D01*
X166455663Y-79755657D01*
X166492758Y-79744404D01*
X166537474Y-79740000D01*
X167980526Y-79740000D01*
X168025242Y-79744404D01*
G37*
G36*
X167597855Y-77743140D02*
G01*
X167661618Y-77749420D01*
X167752404Y-77776960D01*
X167784336Y-77786646D01*
X167897425Y-77847094D01*
X167996554Y-77928446D01*
X168077906Y-78027575D01*
X168138354Y-78140664D01*
X168138355Y-78140668D01*
X168175580Y-78263382D01*
X168188149Y-78391000D01*
X168175580Y-78518618D01*
X168148040Y-78609404D01*
X168138354Y-78641336D01*
X168077906Y-78754425D01*
X167996554Y-78853554D01*
X167897425Y-78934906D01*
X167784336Y-78995354D01*
X167752404Y-79005040D01*
X167661618Y-79032580D01*
X167597855Y-79038860D01*
X167565974Y-79042000D01*
X166952026Y-79042000D01*
X166920145Y-79038860D01*
X166856382Y-79032580D01*
X166765596Y-79005040D01*
X166733664Y-78995354D01*
X166620575Y-78934906D01*
X166521446Y-78853554D01*
X166440094Y-78754425D01*
X166379646Y-78641336D01*
X166369960Y-78609404D01*
X166342420Y-78518618D01*
X166329851Y-78391000D01*
X166342420Y-78263382D01*
X166379645Y-78140668D01*
X166379646Y-78140664D01*
X166440094Y-78027575D01*
X166521446Y-77928446D01*
X166620575Y-77847094D01*
X166733664Y-77786646D01*
X166765596Y-77776960D01*
X166856382Y-77749420D01*
X166920145Y-77743140D01*
X166952026Y-77740000D01*
X167565974Y-77740000D01*
X167597855Y-77743140D01*
G37*
G36*
X184032512Y-77171927D02*
G01*
X184181812Y-77201624D01*
X184345784Y-77269544D01*
X184493354Y-77368147D01*
X184618853Y-77493646D01*
X184717456Y-77641216D01*
X184785376Y-77805188D01*
X184820000Y-77979259D01*
X184820000Y-78156741D01*
X184785376Y-78330812D01*
X184717456Y-78494784D01*
X184618853Y-78642354D01*
X184493354Y-78767853D01*
X184345784Y-78866456D01*
X184181812Y-78934376D01*
X184032512Y-78964073D01*
X184007742Y-78969000D01*
X183830258Y-78969000D01*
X183805488Y-78964073D01*
X183656188Y-78934376D01*
X183492216Y-78866456D01*
X183344646Y-78767853D01*
X183219147Y-78642354D01*
X183120544Y-78494784D01*
X183052624Y-78330812D01*
X183018000Y-78156741D01*
X183018000Y-77979259D01*
X183052624Y-77805188D01*
X183120544Y-77641216D01*
X183219147Y-77493646D01*
X183344646Y-77368147D01*
X183492216Y-77269544D01*
X183656188Y-77201624D01*
X183805488Y-77171927D01*
X183830258Y-77167000D01*
X184007742Y-77167000D01*
X184032512Y-77171927D01*
G37*
G36*
X191532512Y-77171927D02*
G01*
X191681812Y-77201624D01*
X191845784Y-77269544D01*
X191993354Y-77368147D01*
X192118853Y-77493646D01*
X192217456Y-77641216D01*
X192285376Y-77805188D01*
X192320000Y-77979259D01*
X192320000Y-78156741D01*
X192285376Y-78330812D01*
X192217456Y-78494784D01*
X192118853Y-78642354D01*
X191993354Y-78767853D01*
X191845784Y-78866456D01*
X191681812Y-78934376D01*
X191532512Y-78964073D01*
X191507742Y-78969000D01*
X191330258Y-78969000D01*
X191305488Y-78964073D01*
X191156188Y-78934376D01*
X190992216Y-78866456D01*
X190844646Y-78767853D01*
X190719147Y-78642354D01*
X190620544Y-78494784D01*
X190552624Y-78330812D01*
X190518000Y-78156741D01*
X190518000Y-77979259D01*
X190552624Y-77805188D01*
X190620544Y-77641216D01*
X190719147Y-77493646D01*
X190844646Y-77368147D01*
X190992216Y-77269544D01*
X191156188Y-77201624D01*
X191305488Y-77171927D01*
X191330258Y-77167000D01*
X191507742Y-77167000D01*
X191532512Y-77171927D01*
G37*
G36*
X167597855Y-75743140D02*
G01*
X167661618Y-75749420D01*
X167752404Y-75776960D01*
X167784336Y-75786646D01*
X167897425Y-75847094D01*
X167996554Y-75928446D01*
X168077906Y-76027575D01*
X168138354Y-76140664D01*
X168138355Y-76140668D01*
X168175580Y-76263382D01*
X168188149Y-76391000D01*
X168175580Y-76518618D01*
X168148040Y-76609404D01*
X168138354Y-76641336D01*
X168077906Y-76754425D01*
X167996554Y-76853554D01*
X167897425Y-76934906D01*
X167784336Y-76995354D01*
X167752404Y-77005040D01*
X167661618Y-77032580D01*
X167597855Y-77038860D01*
X167565974Y-77042000D01*
X166952026Y-77042000D01*
X166920145Y-77038860D01*
X166856382Y-77032580D01*
X166765596Y-77005040D01*
X166733664Y-76995354D01*
X166620575Y-76934906D01*
X166521446Y-76853554D01*
X166440094Y-76754425D01*
X166379646Y-76641336D01*
X166369960Y-76609404D01*
X166342420Y-76518618D01*
X166329851Y-76391000D01*
X166342420Y-76263382D01*
X166379645Y-76140668D01*
X166379646Y-76140664D01*
X166440094Y-76027575D01*
X166521446Y-75928446D01*
X166620575Y-75847094D01*
X166733664Y-75786646D01*
X166765596Y-75776960D01*
X166856382Y-75749420D01*
X166920145Y-75743140D01*
X166952026Y-75740000D01*
X167565974Y-75740000D01*
X167597855Y-75743140D01*
G37*
G36*
X184820000Y-76429000D02*
G01*
X183018000Y-76429000D01*
X183018000Y-74627000D01*
X184820000Y-74627000D01*
X184820000Y-76429000D01*
G37*
G36*
X191532512Y-74631927D02*
G01*
X191681812Y-74661624D01*
X191845784Y-74729544D01*
X191993354Y-74828147D01*
X192118853Y-74953646D01*
X192217456Y-75101216D01*
X192285376Y-75265188D01*
X192320000Y-75439259D01*
X192320000Y-75616741D01*
X192285376Y-75790812D01*
X192217456Y-75954784D01*
X192118853Y-76102354D01*
X191993354Y-76227853D01*
X191845784Y-76326456D01*
X191681812Y-76394376D01*
X191532512Y-76424073D01*
X191507742Y-76429000D01*
X191330258Y-76429000D01*
X191305488Y-76424073D01*
X191156188Y-76394376D01*
X190992216Y-76326456D01*
X190844646Y-76227853D01*
X190719147Y-76102354D01*
X190620544Y-75954784D01*
X190552624Y-75790812D01*
X190518000Y-75616741D01*
X190518000Y-75439259D01*
X190552624Y-75265188D01*
X190620544Y-75101216D01*
X190719147Y-74953646D01*
X190844646Y-74828147D01*
X190992216Y-74729544D01*
X191156188Y-74661624D01*
X191305488Y-74631927D01*
X191330258Y-74627000D01*
X191507742Y-74627000D01*
X191532512Y-74631927D01*
G37*
G36*
X167597855Y-73743140D02*
G01*
X167661618Y-73749420D01*
X167752404Y-73776960D01*
X167784336Y-73786646D01*
X167897425Y-73847094D01*
X167996554Y-73928446D01*
X168077906Y-74027575D01*
X168138354Y-74140664D01*
X168138355Y-74140668D01*
X168175580Y-74263382D01*
X168188149Y-74391000D01*
X168175580Y-74518618D01*
X168148040Y-74609404D01*
X168138354Y-74641336D01*
X168077906Y-74754425D01*
X167996554Y-74853554D01*
X167897425Y-74934906D01*
X167784336Y-74995354D01*
X167752404Y-75005040D01*
X167661618Y-75032580D01*
X167597855Y-75038860D01*
X167565974Y-75042000D01*
X166952026Y-75042000D01*
X166920145Y-75038860D01*
X166856382Y-75032580D01*
X166765596Y-75005040D01*
X166733664Y-74995354D01*
X166620575Y-74934906D01*
X166521446Y-74853554D01*
X166440094Y-74754425D01*
X166379646Y-74641336D01*
X166369960Y-74609404D01*
X166342420Y-74518618D01*
X166329851Y-74391000D01*
X166342420Y-74263382D01*
X166379645Y-74140668D01*
X166379646Y-74140664D01*
X166440094Y-74027575D01*
X166521446Y-73928446D01*
X166620575Y-73847094D01*
X166733664Y-73786646D01*
X166765596Y-73776960D01*
X166856382Y-73749420D01*
X166920145Y-73743140D01*
X166952026Y-73740000D01*
X167565974Y-73740000D01*
X167597855Y-73743140D01*
G37*
M02*
