G04 #@! TF.GenerationSoftware,KiCad,Pcbnew,5.1.5+dfsg1-2build2*
G04 #@! TF.CreationDate,2021-08-29T19:27:31-07:00*
G04 #@! TF.ProjectId,Telemetry Board,54656c65-6d65-4747-9279-20426f617264,rev?*
G04 #@! TF.SameCoordinates,Original*
G04 #@! TF.FileFunction,Soldermask,Top*
G04 #@! TF.FilePolarity,Negative*
%FSLAX46Y46*%
G04 Gerber Fmt 4.6, Leading zero omitted, Abs format (unit mm)*
G04 Created by KiCad (PCBNEW 5.1.5+dfsg1-2build2) date 2021-08-29 19:27:31*
%MOMM*%
%LPD*%
G04 APERTURE LIST*
%ADD10C,0.100000*%
G04 APERTURE END LIST*
D10*
G36*
X175610618Y-129385420D02*
G01*
X175687553Y-129408758D01*
X175733336Y-129422646D01*
X175846425Y-129483094D01*
X175945554Y-129564446D01*
X176026906Y-129663575D01*
X176087354Y-129776664D01*
X176087355Y-129776668D01*
X176124580Y-129899382D01*
X176134000Y-129995027D01*
X176134000Y-130608973D01*
X176124580Y-130704618D01*
X176097040Y-130795404D01*
X176087354Y-130827336D01*
X176026906Y-130940425D01*
X175945554Y-131039553D01*
X175846424Y-131120906D01*
X175733335Y-131181354D01*
X175701403Y-131191040D01*
X175610617Y-131218580D01*
X175483000Y-131231149D01*
X175355382Y-131218580D01*
X175264596Y-131191040D01*
X175232664Y-131181354D01*
X175119575Y-131120906D01*
X175020447Y-131039554D01*
X174939094Y-130940424D01*
X174878646Y-130827335D01*
X174868960Y-130795403D01*
X174841420Y-130704617D01*
X174832000Y-130608972D01*
X174832000Y-129995027D01*
X174841420Y-129899382D01*
X174878645Y-129776668D01*
X174878645Y-129776667D01*
X174910957Y-129716217D01*
X174939095Y-129663574D01*
X174946389Y-129654686D01*
X175020447Y-129564446D01*
X175119576Y-129483094D01*
X175232665Y-129422646D01*
X175278448Y-129408758D01*
X175355383Y-129385420D01*
X175483000Y-129372851D01*
X175610618Y-129385420D01*
G37*
G36*
X139002618Y-129385420D02*
G01*
X139079553Y-129408758D01*
X139125336Y-129422646D01*
X139238425Y-129483094D01*
X139337554Y-129564446D01*
X139418906Y-129663575D01*
X139479354Y-129776664D01*
X139479355Y-129776668D01*
X139516580Y-129899382D01*
X139526000Y-129995027D01*
X139526000Y-130608973D01*
X139516580Y-130704618D01*
X139489040Y-130795404D01*
X139479354Y-130827336D01*
X139418906Y-130940425D01*
X139337554Y-131039553D01*
X139238424Y-131120906D01*
X139125335Y-131181354D01*
X139093403Y-131191040D01*
X139002617Y-131218580D01*
X138875000Y-131231149D01*
X138747382Y-131218580D01*
X138656596Y-131191040D01*
X138624664Y-131181354D01*
X138511575Y-131120906D01*
X138412447Y-131039554D01*
X138331094Y-130940424D01*
X138270646Y-130827335D01*
X138260960Y-130795403D01*
X138233420Y-130704617D01*
X138224000Y-130608972D01*
X138224000Y-129995027D01*
X138233420Y-129899382D01*
X138270645Y-129776668D01*
X138270645Y-129776667D01*
X138302957Y-129716217D01*
X138331095Y-129663574D01*
X138338389Y-129654686D01*
X138412447Y-129564446D01*
X138511576Y-129483094D01*
X138624665Y-129422646D01*
X138670448Y-129408758D01*
X138747383Y-129385420D01*
X138875000Y-129372851D01*
X139002618Y-129385420D01*
G37*
G36*
X201581618Y-129385420D02*
G01*
X201658553Y-129408758D01*
X201704336Y-129422646D01*
X201817425Y-129483094D01*
X201916554Y-129564446D01*
X201997906Y-129663575D01*
X202058354Y-129776664D01*
X202058355Y-129776668D01*
X202095580Y-129899382D01*
X202105000Y-129995027D01*
X202105000Y-130608973D01*
X202095580Y-130704618D01*
X202068040Y-130795404D01*
X202058354Y-130827336D01*
X201997906Y-130940425D01*
X201916554Y-131039553D01*
X201817424Y-131120906D01*
X201704335Y-131181354D01*
X201672403Y-131191040D01*
X201581617Y-131218580D01*
X201454000Y-131231149D01*
X201326382Y-131218580D01*
X201235596Y-131191040D01*
X201203664Y-131181354D01*
X201090575Y-131120906D01*
X200991447Y-131039554D01*
X200910094Y-130940424D01*
X200849646Y-130827335D01*
X200839960Y-130795403D01*
X200812420Y-130704617D01*
X200803000Y-130608972D01*
X200803000Y-129995027D01*
X200812420Y-129899382D01*
X200849645Y-129776668D01*
X200849645Y-129776667D01*
X200881957Y-129716217D01*
X200910095Y-129663574D01*
X200917389Y-129654686D01*
X200991447Y-129564446D01*
X201090576Y-129483094D01*
X201203665Y-129422646D01*
X201249448Y-129408758D01*
X201326383Y-129385420D01*
X201454000Y-129372851D01*
X201581618Y-129385420D01*
G37*
G36*
X199581618Y-129385420D02*
G01*
X199658553Y-129408758D01*
X199704336Y-129422646D01*
X199817425Y-129483094D01*
X199916554Y-129564446D01*
X199997906Y-129663575D01*
X200058354Y-129776664D01*
X200058355Y-129776668D01*
X200095580Y-129899382D01*
X200105000Y-129995027D01*
X200105000Y-130608973D01*
X200095580Y-130704618D01*
X200068040Y-130795404D01*
X200058354Y-130827336D01*
X199997906Y-130940425D01*
X199916554Y-131039553D01*
X199817424Y-131120906D01*
X199704335Y-131181354D01*
X199672403Y-131191040D01*
X199581617Y-131218580D01*
X199454000Y-131231149D01*
X199326382Y-131218580D01*
X199235596Y-131191040D01*
X199203664Y-131181354D01*
X199090575Y-131120906D01*
X198991447Y-131039554D01*
X198910094Y-130940424D01*
X198849646Y-130827335D01*
X198839960Y-130795403D01*
X198812420Y-130704617D01*
X198803000Y-130608972D01*
X198803000Y-129995027D01*
X198812420Y-129899382D01*
X198849645Y-129776668D01*
X198849645Y-129776667D01*
X198881957Y-129716217D01*
X198910095Y-129663574D01*
X198917389Y-129654686D01*
X198991447Y-129564446D01*
X199090576Y-129483094D01*
X199203665Y-129422646D01*
X199249448Y-129408758D01*
X199326383Y-129385420D01*
X199454000Y-129372851D01*
X199581618Y-129385420D01*
G37*
G36*
X197581618Y-129385420D02*
G01*
X197658553Y-129408758D01*
X197704336Y-129422646D01*
X197817425Y-129483094D01*
X197916554Y-129564446D01*
X197997906Y-129663575D01*
X198058354Y-129776664D01*
X198058355Y-129776668D01*
X198095580Y-129899382D01*
X198105000Y-129995027D01*
X198105000Y-130608973D01*
X198095580Y-130704618D01*
X198068040Y-130795404D01*
X198058354Y-130827336D01*
X197997906Y-130940425D01*
X197916554Y-131039553D01*
X197817424Y-131120906D01*
X197704335Y-131181354D01*
X197672403Y-131191040D01*
X197581617Y-131218580D01*
X197454000Y-131231149D01*
X197326382Y-131218580D01*
X197235596Y-131191040D01*
X197203664Y-131181354D01*
X197090575Y-131120906D01*
X196991447Y-131039554D01*
X196910094Y-130940424D01*
X196849646Y-130827335D01*
X196839960Y-130795403D01*
X196812420Y-130704617D01*
X196803000Y-130608972D01*
X196803000Y-129995027D01*
X196812420Y-129899382D01*
X196849645Y-129776668D01*
X196849645Y-129776667D01*
X196881957Y-129716217D01*
X196910095Y-129663574D01*
X196917389Y-129654686D01*
X196991447Y-129564446D01*
X197090576Y-129483094D01*
X197203665Y-129422646D01*
X197249448Y-129408758D01*
X197326383Y-129385420D01*
X197454000Y-129372851D01*
X197581618Y-129385420D01*
G37*
G36*
X137002618Y-129385420D02*
G01*
X137079553Y-129408758D01*
X137125336Y-129422646D01*
X137238425Y-129483094D01*
X137337554Y-129564446D01*
X137418906Y-129663575D01*
X137479354Y-129776664D01*
X137479355Y-129776668D01*
X137516580Y-129899382D01*
X137526000Y-129995027D01*
X137526000Y-130608973D01*
X137516580Y-130704618D01*
X137489040Y-130795404D01*
X137479354Y-130827336D01*
X137418906Y-130940425D01*
X137337554Y-131039553D01*
X137238424Y-131120906D01*
X137125335Y-131181354D01*
X137093403Y-131191040D01*
X137002617Y-131218580D01*
X136875000Y-131231149D01*
X136747382Y-131218580D01*
X136656596Y-131191040D01*
X136624664Y-131181354D01*
X136511575Y-131120906D01*
X136412447Y-131039554D01*
X136331094Y-130940424D01*
X136270646Y-130827335D01*
X136260960Y-130795403D01*
X136233420Y-130704617D01*
X136224000Y-130608972D01*
X136224000Y-129995027D01*
X136233420Y-129899382D01*
X136270645Y-129776668D01*
X136270645Y-129776667D01*
X136302957Y-129716217D01*
X136331095Y-129663574D01*
X136338389Y-129654686D01*
X136412447Y-129564446D01*
X136511576Y-129483094D01*
X136624665Y-129422646D01*
X136670448Y-129408758D01*
X136747383Y-129385420D01*
X136875000Y-129372851D01*
X137002618Y-129385420D01*
G37*
G36*
X141002618Y-129385420D02*
G01*
X141079553Y-129408758D01*
X141125336Y-129422646D01*
X141238425Y-129483094D01*
X141337554Y-129564446D01*
X141418906Y-129663575D01*
X141479354Y-129776664D01*
X141479355Y-129776668D01*
X141516580Y-129899382D01*
X141526000Y-129995027D01*
X141526000Y-130608973D01*
X141516580Y-130704618D01*
X141489040Y-130795404D01*
X141479354Y-130827336D01*
X141418906Y-130940425D01*
X141337554Y-131039553D01*
X141238424Y-131120906D01*
X141125335Y-131181354D01*
X141093403Y-131191040D01*
X141002617Y-131218580D01*
X140875000Y-131231149D01*
X140747382Y-131218580D01*
X140656596Y-131191040D01*
X140624664Y-131181354D01*
X140511575Y-131120906D01*
X140412447Y-131039554D01*
X140331094Y-130940424D01*
X140270646Y-130827335D01*
X140260960Y-130795403D01*
X140233420Y-130704617D01*
X140224000Y-130608972D01*
X140224000Y-129995027D01*
X140233420Y-129899382D01*
X140270645Y-129776668D01*
X140270645Y-129776667D01*
X140302957Y-129716217D01*
X140331095Y-129663574D01*
X140338389Y-129654686D01*
X140412447Y-129564446D01*
X140511576Y-129483094D01*
X140624665Y-129422646D01*
X140670448Y-129408758D01*
X140747383Y-129385420D01*
X140875000Y-129372851D01*
X141002618Y-129385420D01*
G37*
G36*
X177610618Y-129385420D02*
G01*
X177687553Y-129408758D01*
X177733336Y-129422646D01*
X177846425Y-129483094D01*
X177945554Y-129564446D01*
X178026906Y-129663575D01*
X178087354Y-129776664D01*
X178087355Y-129776668D01*
X178124580Y-129899382D01*
X178134000Y-129995027D01*
X178134000Y-130608973D01*
X178124580Y-130704618D01*
X178097040Y-130795404D01*
X178087354Y-130827336D01*
X178026906Y-130940425D01*
X177945554Y-131039553D01*
X177846424Y-131120906D01*
X177733335Y-131181354D01*
X177701403Y-131191040D01*
X177610617Y-131218580D01*
X177483000Y-131231149D01*
X177355382Y-131218580D01*
X177264596Y-131191040D01*
X177232664Y-131181354D01*
X177119575Y-131120906D01*
X177020447Y-131039554D01*
X176939094Y-130940424D01*
X176878646Y-130827335D01*
X176868960Y-130795403D01*
X176841420Y-130704617D01*
X176832000Y-130608972D01*
X176832000Y-129995027D01*
X176841420Y-129899382D01*
X176878645Y-129776668D01*
X176878645Y-129776667D01*
X176910957Y-129716217D01*
X176939095Y-129663574D01*
X176946389Y-129654686D01*
X177020447Y-129564446D01*
X177119576Y-129483094D01*
X177232665Y-129422646D01*
X177278448Y-129408758D01*
X177355383Y-129385420D01*
X177483000Y-129372851D01*
X177610618Y-129385420D01*
G37*
G36*
X179610618Y-129385420D02*
G01*
X179687553Y-129408758D01*
X179733336Y-129422646D01*
X179846425Y-129483094D01*
X179945554Y-129564446D01*
X180026906Y-129663575D01*
X180087354Y-129776664D01*
X180087355Y-129776668D01*
X180124580Y-129899382D01*
X180134000Y-129995027D01*
X180134000Y-130608973D01*
X180124580Y-130704618D01*
X180097040Y-130795404D01*
X180087354Y-130827336D01*
X180026906Y-130940425D01*
X179945554Y-131039553D01*
X179846424Y-131120906D01*
X179733335Y-131181354D01*
X179701403Y-131191040D01*
X179610617Y-131218580D01*
X179483000Y-131231149D01*
X179355382Y-131218580D01*
X179264596Y-131191040D01*
X179232664Y-131181354D01*
X179119575Y-131120906D01*
X179020447Y-131039554D01*
X178939094Y-130940424D01*
X178878646Y-130827335D01*
X178868960Y-130795403D01*
X178841420Y-130704617D01*
X178832000Y-130608972D01*
X178832000Y-129995027D01*
X178841420Y-129899382D01*
X178878645Y-129776668D01*
X178878645Y-129776667D01*
X178910957Y-129716217D01*
X178939095Y-129663574D01*
X178946389Y-129654686D01*
X179020447Y-129564446D01*
X179119576Y-129483094D01*
X179232665Y-129422646D01*
X179278448Y-129408758D01*
X179355383Y-129385420D01*
X179483000Y-129372851D01*
X179610618Y-129385420D01*
G37*
G36*
X143366242Y-129380404D02*
G01*
X143403337Y-129391657D01*
X143437515Y-129409925D01*
X143467481Y-129434519D01*
X143492075Y-129464485D01*
X143510343Y-129498663D01*
X143521596Y-129535758D01*
X143526000Y-129580474D01*
X143526000Y-131023526D01*
X143521596Y-131068242D01*
X143510343Y-131105337D01*
X143492075Y-131139515D01*
X143467481Y-131169481D01*
X143437515Y-131194075D01*
X143403337Y-131212343D01*
X143366242Y-131223596D01*
X143321526Y-131228000D01*
X142428474Y-131228000D01*
X142383758Y-131223596D01*
X142346663Y-131212343D01*
X142312485Y-131194075D01*
X142282519Y-131169481D01*
X142257925Y-131139515D01*
X142239657Y-131105337D01*
X142228404Y-131068242D01*
X142224000Y-131023526D01*
X142224000Y-129580474D01*
X142228404Y-129535758D01*
X142239657Y-129498663D01*
X142257925Y-129464485D01*
X142282519Y-129434519D01*
X142312485Y-129409925D01*
X142346663Y-129391657D01*
X142383758Y-129380404D01*
X142428474Y-129376000D01*
X143321526Y-129376000D01*
X143366242Y-129380404D01*
G37*
G36*
X181974242Y-129380404D02*
G01*
X182011337Y-129391657D01*
X182045515Y-129409925D01*
X182075481Y-129434519D01*
X182100075Y-129464485D01*
X182118343Y-129498663D01*
X182129596Y-129535758D01*
X182134000Y-129580474D01*
X182134000Y-131023526D01*
X182129596Y-131068242D01*
X182118343Y-131105337D01*
X182100075Y-131139515D01*
X182075481Y-131169481D01*
X182045515Y-131194075D01*
X182011337Y-131212343D01*
X181974242Y-131223596D01*
X181929526Y-131228000D01*
X181036474Y-131228000D01*
X180991758Y-131223596D01*
X180954663Y-131212343D01*
X180920485Y-131194075D01*
X180890519Y-131169481D01*
X180865925Y-131139515D01*
X180847657Y-131105337D01*
X180836404Y-131068242D01*
X180832000Y-131023526D01*
X180832000Y-129580474D01*
X180836404Y-129535758D01*
X180847657Y-129498663D01*
X180865925Y-129464485D01*
X180890519Y-129434519D01*
X180920485Y-129409925D01*
X180954663Y-129391657D01*
X180991758Y-129380404D01*
X181036474Y-129376000D01*
X181929526Y-129376000D01*
X181974242Y-129380404D01*
G37*
G36*
X203945242Y-129380404D02*
G01*
X203982337Y-129391657D01*
X204016515Y-129409925D01*
X204046481Y-129434519D01*
X204071075Y-129464485D01*
X204089343Y-129498663D01*
X204100596Y-129535758D01*
X204105000Y-129580474D01*
X204105000Y-131023526D01*
X204100596Y-131068242D01*
X204089343Y-131105337D01*
X204071075Y-131139515D01*
X204046481Y-131169481D01*
X204016515Y-131194075D01*
X203982337Y-131212343D01*
X203945242Y-131223596D01*
X203900526Y-131228000D01*
X203007474Y-131228000D01*
X202962758Y-131223596D01*
X202925663Y-131212343D01*
X202891485Y-131194075D01*
X202861519Y-131169481D01*
X202836925Y-131139515D01*
X202818657Y-131105337D01*
X202807404Y-131068242D01*
X202803000Y-131023526D01*
X202803000Y-129580474D01*
X202807404Y-129535758D01*
X202818657Y-129498663D01*
X202836925Y-129464485D01*
X202861519Y-129434519D01*
X202891485Y-129409925D01*
X202925663Y-129391657D01*
X202962758Y-129380404D01*
X203007474Y-129376000D01*
X203900526Y-129376000D01*
X203945242Y-129380404D01*
G37*
G36*
X157830618Y-129258420D02*
G01*
X157911400Y-129282925D01*
X157953336Y-129295646D01*
X158066425Y-129356094D01*
X158165554Y-129437446D01*
X158246906Y-129536575D01*
X158307354Y-129649664D01*
X158307355Y-129649668D01*
X158344580Y-129772382D01*
X158354000Y-129868027D01*
X158354000Y-130481973D01*
X158344580Y-130577618D01*
X158335068Y-130608974D01*
X158307354Y-130700336D01*
X158246906Y-130813425D01*
X158165554Y-130912553D01*
X158066424Y-130993906D01*
X157953335Y-131054354D01*
X157932899Y-131060553D01*
X157830617Y-131091580D01*
X157703000Y-131104149D01*
X157575382Y-131091580D01*
X157473100Y-131060553D01*
X157452664Y-131054354D01*
X157339575Y-130993906D01*
X157240447Y-130912554D01*
X157159094Y-130813424D01*
X157098646Y-130700335D01*
X157070932Y-130608973D01*
X157061420Y-130577617D01*
X157052000Y-130481972D01*
X157052000Y-129868027D01*
X157061420Y-129772382D01*
X157094426Y-129663575D01*
X157098645Y-129649667D01*
X157144197Y-129564446D01*
X157159095Y-129536574D01*
X157190208Y-129498663D01*
X157240447Y-129437446D01*
X157339576Y-129356094D01*
X157452665Y-129295646D01*
X157494601Y-129282925D01*
X157575383Y-129258420D01*
X157703000Y-129245851D01*
X157830618Y-129258420D01*
G37*
G36*
X161830618Y-129258420D02*
G01*
X161911400Y-129282925D01*
X161953336Y-129295646D01*
X162066425Y-129356094D01*
X162165554Y-129437446D01*
X162246906Y-129536575D01*
X162307354Y-129649664D01*
X162307355Y-129649668D01*
X162344580Y-129772382D01*
X162354000Y-129868027D01*
X162354000Y-130481973D01*
X162344580Y-130577618D01*
X162335068Y-130608974D01*
X162307354Y-130700336D01*
X162246906Y-130813425D01*
X162165554Y-130912553D01*
X162066424Y-130993906D01*
X161953335Y-131054354D01*
X161932899Y-131060553D01*
X161830617Y-131091580D01*
X161703000Y-131104149D01*
X161575382Y-131091580D01*
X161473100Y-131060553D01*
X161452664Y-131054354D01*
X161339575Y-130993906D01*
X161240447Y-130912554D01*
X161159094Y-130813424D01*
X161098646Y-130700335D01*
X161070932Y-130608973D01*
X161061420Y-130577617D01*
X161052000Y-130481972D01*
X161052000Y-129868027D01*
X161061420Y-129772382D01*
X161094426Y-129663575D01*
X161098645Y-129649667D01*
X161144197Y-129564446D01*
X161159095Y-129536574D01*
X161190208Y-129498663D01*
X161240447Y-129437446D01*
X161339576Y-129356094D01*
X161452665Y-129295646D01*
X161494601Y-129282925D01*
X161575383Y-129258420D01*
X161703000Y-129245851D01*
X161830618Y-129258420D01*
G37*
G36*
X159830618Y-129258420D02*
G01*
X159911400Y-129282925D01*
X159953336Y-129295646D01*
X160066425Y-129356094D01*
X160165554Y-129437446D01*
X160246906Y-129536575D01*
X160307354Y-129649664D01*
X160307355Y-129649668D01*
X160344580Y-129772382D01*
X160354000Y-129868027D01*
X160354000Y-130481973D01*
X160344580Y-130577618D01*
X160335068Y-130608974D01*
X160307354Y-130700336D01*
X160246906Y-130813425D01*
X160165554Y-130912553D01*
X160066424Y-130993906D01*
X159953335Y-131054354D01*
X159932899Y-131060553D01*
X159830617Y-131091580D01*
X159703000Y-131104149D01*
X159575382Y-131091580D01*
X159473100Y-131060553D01*
X159452664Y-131054354D01*
X159339575Y-130993906D01*
X159240447Y-130912554D01*
X159159094Y-130813424D01*
X159098646Y-130700335D01*
X159070932Y-130608973D01*
X159061420Y-130577617D01*
X159052000Y-130481972D01*
X159052000Y-129868027D01*
X159061420Y-129772382D01*
X159094426Y-129663575D01*
X159098645Y-129649667D01*
X159144197Y-129564446D01*
X159159095Y-129536574D01*
X159190208Y-129498663D01*
X159240447Y-129437446D01*
X159339576Y-129356094D01*
X159452665Y-129295646D01*
X159494601Y-129282925D01*
X159575383Y-129258420D01*
X159703000Y-129245851D01*
X159830618Y-129258420D01*
G37*
G36*
X164194242Y-129253404D02*
G01*
X164231337Y-129264657D01*
X164265515Y-129282925D01*
X164295481Y-129307519D01*
X164320075Y-129337485D01*
X164338343Y-129371663D01*
X164349596Y-129408758D01*
X164354000Y-129453474D01*
X164354000Y-130896526D01*
X164349596Y-130941242D01*
X164338343Y-130978337D01*
X164320075Y-131012515D01*
X164295481Y-131042481D01*
X164265515Y-131067075D01*
X164231337Y-131085343D01*
X164194242Y-131096596D01*
X164149526Y-131101000D01*
X163256474Y-131101000D01*
X163211758Y-131096596D01*
X163174663Y-131085343D01*
X163140485Y-131067075D01*
X163110519Y-131042481D01*
X163085925Y-131012515D01*
X163067657Y-130978337D01*
X163056404Y-130941242D01*
X163052000Y-130896526D01*
X163052000Y-129453474D01*
X163056404Y-129408758D01*
X163067657Y-129371663D01*
X163085925Y-129337485D01*
X163110519Y-129307519D01*
X163140485Y-129282925D01*
X163174663Y-129264657D01*
X163211758Y-129253404D01*
X163256474Y-129249000D01*
X164149526Y-129249000D01*
X164194242Y-129253404D01*
G37*
G36*
X185439499Y-125589445D02*
G01*
X185476995Y-125600820D01*
X185511554Y-125619292D01*
X185541847Y-125644153D01*
X185566708Y-125674446D01*
X185585180Y-125709005D01*
X185596555Y-125746501D01*
X185601000Y-125791638D01*
X185601000Y-126430362D01*
X185596555Y-126475499D01*
X185585180Y-126512995D01*
X185566708Y-126547554D01*
X185541847Y-126577847D01*
X185511554Y-126602708D01*
X185476995Y-126621180D01*
X185439499Y-126632555D01*
X185394362Y-126637000D01*
X184655638Y-126637000D01*
X184610501Y-126632555D01*
X184573005Y-126621180D01*
X184538446Y-126602708D01*
X184508153Y-126577847D01*
X184483292Y-126547554D01*
X184464820Y-126512995D01*
X184453445Y-126475499D01*
X184449000Y-126430362D01*
X184449000Y-125791638D01*
X184453445Y-125746501D01*
X184464820Y-125709005D01*
X184483292Y-125674446D01*
X184508153Y-125644153D01*
X184538446Y-125619292D01*
X184573005Y-125600820D01*
X184610501Y-125589445D01*
X184655638Y-125585000D01*
X185394362Y-125585000D01*
X185439499Y-125589445D01*
G37*
G36*
X143684499Y-125589445D02*
G01*
X143721995Y-125600820D01*
X143756554Y-125619292D01*
X143786847Y-125644153D01*
X143811708Y-125674446D01*
X143830180Y-125709005D01*
X143841555Y-125746501D01*
X143846000Y-125791638D01*
X143846000Y-126430362D01*
X143841555Y-126475499D01*
X143830180Y-126512995D01*
X143811708Y-126547554D01*
X143786847Y-126577847D01*
X143756554Y-126602708D01*
X143721995Y-126621180D01*
X143684499Y-126632555D01*
X143639362Y-126637000D01*
X142900638Y-126637000D01*
X142855501Y-126632555D01*
X142818005Y-126621180D01*
X142783446Y-126602708D01*
X142753153Y-126577847D01*
X142728292Y-126547554D01*
X142709820Y-126512995D01*
X142698445Y-126475499D01*
X142694000Y-126430362D01*
X142694000Y-125791638D01*
X142698445Y-125746501D01*
X142709820Y-125709005D01*
X142728292Y-125674446D01*
X142753153Y-125644153D01*
X142783446Y-125619292D01*
X142818005Y-125600820D01*
X142855501Y-125589445D01*
X142900638Y-125585000D01*
X143639362Y-125585000D01*
X143684499Y-125589445D01*
G37*
G36*
X183689499Y-125589445D02*
G01*
X183726995Y-125600820D01*
X183761554Y-125619292D01*
X183791847Y-125644153D01*
X183816708Y-125674446D01*
X183835180Y-125709005D01*
X183846555Y-125746501D01*
X183851000Y-125791638D01*
X183851000Y-126430362D01*
X183846555Y-126475499D01*
X183835180Y-126512995D01*
X183816708Y-126547554D01*
X183791847Y-126577847D01*
X183761554Y-126602708D01*
X183726995Y-126621180D01*
X183689499Y-126632555D01*
X183644362Y-126637000D01*
X182905638Y-126637000D01*
X182860501Y-126632555D01*
X182823005Y-126621180D01*
X182788446Y-126602708D01*
X182758153Y-126577847D01*
X182733292Y-126547554D01*
X182714820Y-126512995D01*
X182703445Y-126475499D01*
X182699000Y-126430362D01*
X182699000Y-125791638D01*
X182703445Y-125746501D01*
X182714820Y-125709005D01*
X182733292Y-125674446D01*
X182758153Y-125644153D01*
X182788446Y-125619292D01*
X182823005Y-125600820D01*
X182860501Y-125589445D01*
X182905638Y-125585000D01*
X183644362Y-125585000D01*
X183689499Y-125589445D01*
G37*
G36*
X145434499Y-125589445D02*
G01*
X145471995Y-125600820D01*
X145506554Y-125619292D01*
X145536847Y-125644153D01*
X145561708Y-125674446D01*
X145580180Y-125709005D01*
X145591555Y-125746501D01*
X145596000Y-125791638D01*
X145596000Y-126430362D01*
X145591555Y-126475499D01*
X145580180Y-126512995D01*
X145561708Y-126547554D01*
X145536847Y-126577847D01*
X145506554Y-126602708D01*
X145471995Y-126621180D01*
X145434499Y-126632555D01*
X145389362Y-126637000D01*
X144650638Y-126637000D01*
X144605501Y-126632555D01*
X144568005Y-126621180D01*
X144533446Y-126602708D01*
X144503153Y-126577847D01*
X144478292Y-126547554D01*
X144459820Y-126512995D01*
X144448445Y-126475499D01*
X144444000Y-126430362D01*
X144444000Y-125791638D01*
X144448445Y-125746501D01*
X144459820Y-125709005D01*
X144478292Y-125674446D01*
X144503153Y-125644153D01*
X144533446Y-125619292D01*
X144568005Y-125600820D01*
X144605501Y-125589445D01*
X144650638Y-125585000D01*
X145389362Y-125585000D01*
X145434499Y-125589445D01*
G37*
G36*
X207904499Y-125462445D02*
G01*
X207941995Y-125473820D01*
X207976554Y-125492292D01*
X208006847Y-125517153D01*
X208031708Y-125547446D01*
X208050180Y-125582005D01*
X208061555Y-125619501D01*
X208066000Y-125664638D01*
X208066000Y-126303362D01*
X208061555Y-126348499D01*
X208050180Y-126385995D01*
X208031708Y-126420554D01*
X208006847Y-126450847D01*
X207976554Y-126475708D01*
X207941995Y-126494180D01*
X207904499Y-126505555D01*
X207859362Y-126510000D01*
X207120638Y-126510000D01*
X207075501Y-126505555D01*
X207038005Y-126494180D01*
X207003446Y-126475708D01*
X206973153Y-126450847D01*
X206948292Y-126420554D01*
X206929820Y-126385995D01*
X206918445Y-126348499D01*
X206914000Y-126303362D01*
X206914000Y-125664638D01*
X206918445Y-125619501D01*
X206929820Y-125582005D01*
X206948292Y-125547446D01*
X206973153Y-125517153D01*
X207003446Y-125492292D01*
X207038005Y-125473820D01*
X207075501Y-125462445D01*
X207120638Y-125458000D01*
X207859362Y-125458000D01*
X207904499Y-125462445D01*
G37*
G36*
X206154499Y-125462445D02*
G01*
X206191995Y-125473820D01*
X206226554Y-125492292D01*
X206256847Y-125517153D01*
X206281708Y-125547446D01*
X206300180Y-125582005D01*
X206311555Y-125619501D01*
X206316000Y-125664638D01*
X206316000Y-126303362D01*
X206311555Y-126348499D01*
X206300180Y-126385995D01*
X206281708Y-126420554D01*
X206256847Y-126450847D01*
X206226554Y-126475708D01*
X206191995Y-126494180D01*
X206154499Y-126505555D01*
X206109362Y-126510000D01*
X205370638Y-126510000D01*
X205325501Y-126505555D01*
X205288005Y-126494180D01*
X205253446Y-126475708D01*
X205223153Y-126450847D01*
X205198292Y-126420554D01*
X205179820Y-126385995D01*
X205168445Y-126348499D01*
X205164000Y-126303362D01*
X205164000Y-125664638D01*
X205168445Y-125619501D01*
X205179820Y-125582005D01*
X205198292Y-125547446D01*
X205223153Y-125517153D01*
X205253446Y-125492292D01*
X205288005Y-125473820D01*
X205325501Y-125462445D01*
X205370638Y-125458000D01*
X206109362Y-125458000D01*
X206154499Y-125462445D01*
G37*
G36*
X199691499Y-125335445D02*
G01*
X199728995Y-125346820D01*
X199763554Y-125365292D01*
X199793847Y-125390153D01*
X199818708Y-125420446D01*
X199837180Y-125455005D01*
X199848555Y-125492501D01*
X199853000Y-125537638D01*
X199853000Y-126176362D01*
X199848555Y-126221499D01*
X199837180Y-126258995D01*
X199818708Y-126293554D01*
X199793847Y-126323847D01*
X199763554Y-126348708D01*
X199728995Y-126367180D01*
X199691499Y-126378555D01*
X199646362Y-126383000D01*
X198907638Y-126383000D01*
X198862501Y-126378555D01*
X198825005Y-126367180D01*
X198790446Y-126348708D01*
X198760153Y-126323847D01*
X198735292Y-126293554D01*
X198716820Y-126258995D01*
X198705445Y-126221499D01*
X198701000Y-126176362D01*
X198701000Y-125537638D01*
X198705445Y-125492501D01*
X198716820Y-125455005D01*
X198735292Y-125420446D01*
X198760153Y-125390153D01*
X198790446Y-125365292D01*
X198825005Y-125346820D01*
X198862501Y-125335445D01*
X198907638Y-125331000D01*
X199646362Y-125331000D01*
X199691499Y-125335445D01*
G37*
G36*
X179216499Y-125335445D02*
G01*
X179253995Y-125346820D01*
X179288554Y-125365292D01*
X179318847Y-125390153D01*
X179343708Y-125420446D01*
X179362180Y-125455005D01*
X179373555Y-125492501D01*
X179378000Y-125537638D01*
X179378000Y-126176362D01*
X179373555Y-126221499D01*
X179362180Y-126258995D01*
X179343708Y-126293554D01*
X179318847Y-126323847D01*
X179288554Y-126348708D01*
X179253995Y-126367180D01*
X179216499Y-126378555D01*
X179171362Y-126383000D01*
X178432638Y-126383000D01*
X178387501Y-126378555D01*
X178350005Y-126367180D01*
X178315446Y-126348708D01*
X178285153Y-126323847D01*
X178260292Y-126293554D01*
X178241820Y-126258995D01*
X178230445Y-126221499D01*
X178226000Y-126176362D01*
X178226000Y-125537638D01*
X178230445Y-125492501D01*
X178241820Y-125455005D01*
X178260292Y-125420446D01*
X178285153Y-125390153D01*
X178315446Y-125365292D01*
X178350005Y-125346820D01*
X178387501Y-125335445D01*
X178432638Y-125331000D01*
X179171362Y-125331000D01*
X179216499Y-125335445D01*
G37*
G36*
X138491499Y-125335445D02*
G01*
X138528995Y-125346820D01*
X138563554Y-125365292D01*
X138593847Y-125390153D01*
X138618708Y-125420446D01*
X138637180Y-125455005D01*
X138648555Y-125492501D01*
X138653000Y-125537638D01*
X138653000Y-126176362D01*
X138648555Y-126221499D01*
X138637180Y-126258995D01*
X138618708Y-126293554D01*
X138593847Y-126323847D01*
X138563554Y-126348708D01*
X138528995Y-126367180D01*
X138491499Y-126378555D01*
X138446362Y-126383000D01*
X137707638Y-126383000D01*
X137662501Y-126378555D01*
X137625005Y-126367180D01*
X137590446Y-126348708D01*
X137560153Y-126323847D01*
X137535292Y-126293554D01*
X137516820Y-126258995D01*
X137505445Y-126221499D01*
X137501000Y-126176362D01*
X137501000Y-125537638D01*
X137505445Y-125492501D01*
X137516820Y-125455005D01*
X137535292Y-125420446D01*
X137560153Y-125390153D01*
X137590446Y-125365292D01*
X137625005Y-125346820D01*
X137662501Y-125335445D01*
X137707638Y-125331000D01*
X138446362Y-125331000D01*
X138491499Y-125335445D01*
G37*
G36*
X140241499Y-125335445D02*
G01*
X140278995Y-125346820D01*
X140313554Y-125365292D01*
X140343847Y-125390153D01*
X140368708Y-125420446D01*
X140387180Y-125455005D01*
X140398555Y-125492501D01*
X140403000Y-125537638D01*
X140403000Y-126176362D01*
X140398555Y-126221499D01*
X140387180Y-126258995D01*
X140368708Y-126293554D01*
X140343847Y-126323847D01*
X140313554Y-126348708D01*
X140278995Y-126367180D01*
X140241499Y-126378555D01*
X140196362Y-126383000D01*
X139457638Y-126383000D01*
X139412501Y-126378555D01*
X139375005Y-126367180D01*
X139340446Y-126348708D01*
X139310153Y-126323847D01*
X139285292Y-126293554D01*
X139266820Y-126258995D01*
X139255445Y-126221499D01*
X139251000Y-126176362D01*
X139251000Y-125537638D01*
X139255445Y-125492501D01*
X139266820Y-125455005D01*
X139285292Y-125420446D01*
X139310153Y-125390153D01*
X139340446Y-125365292D01*
X139375005Y-125346820D01*
X139412501Y-125335445D01*
X139457638Y-125331000D01*
X140196362Y-125331000D01*
X140241499Y-125335445D01*
G37*
G36*
X158416499Y-125335445D02*
G01*
X158453995Y-125346820D01*
X158488554Y-125365292D01*
X158518847Y-125390153D01*
X158543708Y-125420446D01*
X158562180Y-125455005D01*
X158573555Y-125492501D01*
X158578000Y-125537638D01*
X158578000Y-126176362D01*
X158573555Y-126221499D01*
X158562180Y-126258995D01*
X158543708Y-126293554D01*
X158518847Y-126323847D01*
X158488554Y-126348708D01*
X158453995Y-126367180D01*
X158416499Y-126378555D01*
X158371362Y-126383000D01*
X157632638Y-126383000D01*
X157587501Y-126378555D01*
X157550005Y-126367180D01*
X157515446Y-126348708D01*
X157485153Y-126323847D01*
X157460292Y-126293554D01*
X157441820Y-126258995D01*
X157430445Y-126221499D01*
X157426000Y-126176362D01*
X157426000Y-125537638D01*
X157430445Y-125492501D01*
X157441820Y-125455005D01*
X157460292Y-125420446D01*
X157485153Y-125390153D01*
X157515446Y-125365292D01*
X157550005Y-125346820D01*
X157587501Y-125335445D01*
X157632638Y-125331000D01*
X158371362Y-125331000D01*
X158416499Y-125335445D01*
G37*
G36*
X165246499Y-125335445D02*
G01*
X165283995Y-125346820D01*
X165318554Y-125365292D01*
X165348847Y-125390153D01*
X165373708Y-125420446D01*
X165392180Y-125455005D01*
X165403555Y-125492501D01*
X165408000Y-125537638D01*
X165408000Y-126176362D01*
X165403555Y-126221499D01*
X165392180Y-126258995D01*
X165373708Y-126293554D01*
X165348847Y-126323847D01*
X165318554Y-126348708D01*
X165283995Y-126367180D01*
X165246499Y-126378555D01*
X165201362Y-126383000D01*
X164462638Y-126383000D01*
X164417501Y-126378555D01*
X164380005Y-126367180D01*
X164345446Y-126348708D01*
X164315153Y-126323847D01*
X164290292Y-126293554D01*
X164271820Y-126258995D01*
X164260445Y-126221499D01*
X164256000Y-126176362D01*
X164256000Y-125537638D01*
X164260445Y-125492501D01*
X164271820Y-125455005D01*
X164290292Y-125420446D01*
X164315153Y-125390153D01*
X164345446Y-125365292D01*
X164380005Y-125346820D01*
X164417501Y-125335445D01*
X164462638Y-125331000D01*
X165201362Y-125331000D01*
X165246499Y-125335445D01*
G37*
G36*
X163496499Y-125335445D02*
G01*
X163533995Y-125346820D01*
X163568554Y-125365292D01*
X163598847Y-125390153D01*
X163623708Y-125420446D01*
X163642180Y-125455005D01*
X163653555Y-125492501D01*
X163658000Y-125537638D01*
X163658000Y-126176362D01*
X163653555Y-126221499D01*
X163642180Y-126258995D01*
X163623708Y-126293554D01*
X163598847Y-126323847D01*
X163568554Y-126348708D01*
X163533995Y-126367180D01*
X163496499Y-126378555D01*
X163451362Y-126383000D01*
X162712638Y-126383000D01*
X162667501Y-126378555D01*
X162630005Y-126367180D01*
X162595446Y-126348708D01*
X162565153Y-126323847D01*
X162540292Y-126293554D01*
X162521820Y-126258995D01*
X162510445Y-126221499D01*
X162506000Y-126176362D01*
X162506000Y-125537638D01*
X162510445Y-125492501D01*
X162521820Y-125455005D01*
X162540292Y-125420446D01*
X162565153Y-125390153D01*
X162595446Y-125365292D01*
X162630005Y-125346820D01*
X162667501Y-125335445D01*
X162712638Y-125331000D01*
X163451362Y-125331000D01*
X163496499Y-125335445D01*
G37*
G36*
X201441499Y-125335445D02*
G01*
X201478995Y-125346820D01*
X201513554Y-125365292D01*
X201543847Y-125390153D01*
X201568708Y-125420446D01*
X201587180Y-125455005D01*
X201598555Y-125492501D01*
X201603000Y-125537638D01*
X201603000Y-126176362D01*
X201598555Y-126221499D01*
X201587180Y-126258995D01*
X201568708Y-126293554D01*
X201543847Y-126323847D01*
X201513554Y-126348708D01*
X201478995Y-126367180D01*
X201441499Y-126378555D01*
X201396362Y-126383000D01*
X200657638Y-126383000D01*
X200612501Y-126378555D01*
X200575005Y-126367180D01*
X200540446Y-126348708D01*
X200510153Y-126323847D01*
X200485292Y-126293554D01*
X200466820Y-126258995D01*
X200455445Y-126221499D01*
X200451000Y-126176362D01*
X200451000Y-125537638D01*
X200455445Y-125492501D01*
X200466820Y-125455005D01*
X200485292Y-125420446D01*
X200510153Y-125390153D01*
X200540446Y-125365292D01*
X200575005Y-125346820D01*
X200612501Y-125335445D01*
X200657638Y-125331000D01*
X201396362Y-125331000D01*
X201441499Y-125335445D01*
G37*
G36*
X177466499Y-125335445D02*
G01*
X177503995Y-125346820D01*
X177538554Y-125365292D01*
X177568847Y-125390153D01*
X177593708Y-125420446D01*
X177612180Y-125455005D01*
X177623555Y-125492501D01*
X177628000Y-125537638D01*
X177628000Y-126176362D01*
X177623555Y-126221499D01*
X177612180Y-126258995D01*
X177593708Y-126293554D01*
X177568847Y-126323847D01*
X177538554Y-126348708D01*
X177503995Y-126367180D01*
X177466499Y-126378555D01*
X177421362Y-126383000D01*
X176682638Y-126383000D01*
X176637501Y-126378555D01*
X176600005Y-126367180D01*
X176565446Y-126348708D01*
X176535153Y-126323847D01*
X176510292Y-126293554D01*
X176491820Y-126258995D01*
X176480445Y-126221499D01*
X176476000Y-126176362D01*
X176476000Y-125537638D01*
X176480445Y-125492501D01*
X176491820Y-125455005D01*
X176510292Y-125420446D01*
X176535153Y-125390153D01*
X176565446Y-125365292D01*
X176600005Y-125346820D01*
X176637501Y-125335445D01*
X176682638Y-125331000D01*
X177421362Y-125331000D01*
X177466499Y-125335445D01*
G37*
G36*
X160166499Y-125335445D02*
G01*
X160203995Y-125346820D01*
X160238554Y-125365292D01*
X160268847Y-125390153D01*
X160293708Y-125420446D01*
X160312180Y-125455005D01*
X160323555Y-125492501D01*
X160328000Y-125537638D01*
X160328000Y-126176362D01*
X160323555Y-126221499D01*
X160312180Y-126258995D01*
X160293708Y-126293554D01*
X160268847Y-126323847D01*
X160238554Y-126348708D01*
X160203995Y-126367180D01*
X160166499Y-126378555D01*
X160121362Y-126383000D01*
X159382638Y-126383000D01*
X159337501Y-126378555D01*
X159300005Y-126367180D01*
X159265446Y-126348708D01*
X159235153Y-126323847D01*
X159210292Y-126293554D01*
X159191820Y-126258995D01*
X159180445Y-126221499D01*
X159176000Y-126176362D01*
X159176000Y-125537638D01*
X159180445Y-125492501D01*
X159191820Y-125455005D01*
X159210292Y-125420446D01*
X159235153Y-125390153D01*
X159265446Y-125365292D01*
X159300005Y-125346820D01*
X159337501Y-125335445D01*
X159382638Y-125331000D01*
X160121362Y-125331000D01*
X160166499Y-125335445D01*
G37*
G36*
X188832499Y-124890445D02*
G01*
X188869995Y-124901820D01*
X188904554Y-124920292D01*
X188934847Y-124945153D01*
X188959708Y-124975446D01*
X188978180Y-125010005D01*
X188989555Y-125047501D01*
X188994000Y-125092638D01*
X188994000Y-125831362D01*
X188989555Y-125876499D01*
X188978180Y-125913995D01*
X188959708Y-125948554D01*
X188934847Y-125978847D01*
X188904554Y-126003708D01*
X188869995Y-126022180D01*
X188832499Y-126033555D01*
X188787362Y-126038000D01*
X188148638Y-126038000D01*
X188103501Y-126033555D01*
X188066005Y-126022180D01*
X188031446Y-126003708D01*
X188001153Y-125978847D01*
X187976292Y-125948554D01*
X187957820Y-125913995D01*
X187946445Y-125876499D01*
X187942000Y-125831362D01*
X187942000Y-125092638D01*
X187946445Y-125047501D01*
X187957820Y-125010005D01*
X187976292Y-124975446D01*
X188001153Y-124945153D01*
X188031446Y-124920292D01*
X188066005Y-124901820D01*
X188103501Y-124890445D01*
X188148638Y-124886000D01*
X188787362Y-124886000D01*
X188832499Y-124890445D01*
G37*
G36*
X211311499Y-124876445D02*
G01*
X211348995Y-124887820D01*
X211383554Y-124906292D01*
X211413847Y-124931153D01*
X211438708Y-124961446D01*
X211457180Y-124996005D01*
X211468555Y-125033501D01*
X211473000Y-125078638D01*
X211473000Y-125817362D01*
X211468555Y-125862499D01*
X211457180Y-125899995D01*
X211438708Y-125934554D01*
X211413847Y-125964847D01*
X211383554Y-125989708D01*
X211348995Y-126008180D01*
X211311499Y-126019555D01*
X211266362Y-126024000D01*
X210627638Y-126024000D01*
X210582501Y-126019555D01*
X210545005Y-126008180D01*
X210510446Y-125989708D01*
X210480153Y-125964847D01*
X210455292Y-125934554D01*
X210436820Y-125899995D01*
X210425445Y-125862499D01*
X210421000Y-125817362D01*
X210421000Y-125078638D01*
X210425445Y-125033501D01*
X210436820Y-124996005D01*
X210455292Y-124961446D01*
X210480153Y-124931153D01*
X210510446Y-124906292D01*
X210545005Y-124887820D01*
X210582501Y-124876445D01*
X210627638Y-124872000D01*
X211266362Y-124872000D01*
X211311499Y-124876445D01*
G37*
G36*
X148065499Y-124763445D02*
G01*
X148102995Y-124774820D01*
X148137554Y-124793292D01*
X148167847Y-124818153D01*
X148192708Y-124848446D01*
X148211180Y-124883005D01*
X148222555Y-124920501D01*
X148227000Y-124965638D01*
X148227000Y-125704362D01*
X148222555Y-125749499D01*
X148211180Y-125786995D01*
X148192708Y-125821554D01*
X148167847Y-125851847D01*
X148137554Y-125876708D01*
X148102995Y-125895180D01*
X148065499Y-125906555D01*
X148020362Y-125911000D01*
X147381638Y-125911000D01*
X147336501Y-125906555D01*
X147299005Y-125895180D01*
X147264446Y-125876708D01*
X147234153Y-125851847D01*
X147209292Y-125821554D01*
X147190820Y-125786995D01*
X147179445Y-125749499D01*
X147175000Y-125704362D01*
X147175000Y-124965638D01*
X147179445Y-124920501D01*
X147190820Y-124883005D01*
X147209292Y-124848446D01*
X147234153Y-124818153D01*
X147264446Y-124793292D01*
X147299005Y-124774820D01*
X147336501Y-124763445D01*
X147381638Y-124759000D01*
X148020362Y-124759000D01*
X148065499Y-124763445D01*
G37*
G36*
X168385499Y-124509445D02*
G01*
X168422995Y-124520820D01*
X168457554Y-124539292D01*
X168487847Y-124564153D01*
X168512708Y-124594446D01*
X168531180Y-124629005D01*
X168542555Y-124666501D01*
X168547000Y-124711638D01*
X168547000Y-125450362D01*
X168542555Y-125495499D01*
X168531180Y-125532995D01*
X168512708Y-125567554D01*
X168487847Y-125597847D01*
X168457554Y-125622708D01*
X168422995Y-125641180D01*
X168385499Y-125652555D01*
X168340362Y-125657000D01*
X167701638Y-125657000D01*
X167656501Y-125652555D01*
X167619005Y-125641180D01*
X167584446Y-125622708D01*
X167554153Y-125597847D01*
X167529292Y-125567554D01*
X167510820Y-125532995D01*
X167499445Y-125495499D01*
X167495000Y-125450362D01*
X167495000Y-124711638D01*
X167499445Y-124666501D01*
X167510820Y-124629005D01*
X167529292Y-124594446D01*
X167554153Y-124564153D01*
X167584446Y-124539292D01*
X167619005Y-124520820D01*
X167656501Y-124509445D01*
X167701638Y-124505000D01*
X168340362Y-124505000D01*
X168385499Y-124509445D01*
G37*
G36*
X199360000Y-124452000D02*
G01*
X198658000Y-124452000D01*
X198658000Y-122820000D01*
X199360000Y-122820000D01*
X199360000Y-124452000D01*
G37*
G36*
X183485000Y-124452000D02*
G01*
X182783000Y-124452000D01*
X182783000Y-122820000D01*
X183485000Y-122820000D01*
X183485000Y-124452000D01*
G37*
G36*
X184755000Y-124452000D02*
G01*
X184053000Y-124452000D01*
X184053000Y-122820000D01*
X184755000Y-122820000D01*
X184755000Y-124452000D01*
G37*
G36*
X186025000Y-124452000D02*
G01*
X185323000Y-124452000D01*
X185323000Y-122820000D01*
X186025000Y-122820000D01*
X186025000Y-124452000D01*
G37*
G36*
X196820000Y-124452000D02*
G01*
X196118000Y-124452000D01*
X196118000Y-122820000D01*
X196820000Y-122820000D01*
X196820000Y-124452000D01*
G37*
G36*
X207361000Y-124452000D02*
G01*
X206659000Y-124452000D01*
X206659000Y-122820000D01*
X207361000Y-122820000D01*
X207361000Y-124452000D01*
G37*
G36*
X208631000Y-124452000D02*
G01*
X207929000Y-124452000D01*
X207929000Y-122820000D01*
X208631000Y-122820000D01*
X208631000Y-124452000D01*
G37*
G36*
X206091000Y-124452000D02*
G01*
X205389000Y-124452000D01*
X205389000Y-122820000D01*
X206091000Y-122820000D01*
X206091000Y-124452000D01*
G37*
G36*
X174595000Y-124325000D02*
G01*
X173893000Y-124325000D01*
X173893000Y-122693000D01*
X174595000Y-122693000D01*
X174595000Y-124325000D01*
G37*
G36*
X157069000Y-124325000D02*
G01*
X156367000Y-124325000D01*
X156367000Y-122693000D01*
X157069000Y-122693000D01*
X157069000Y-124325000D01*
G37*
G36*
X177135000Y-124325000D02*
G01*
X176433000Y-124325000D01*
X176433000Y-122693000D01*
X177135000Y-122693000D01*
X177135000Y-124325000D01*
G37*
G36*
X154529000Y-124325000D02*
G01*
X153827000Y-124325000D01*
X153827000Y-122693000D01*
X154529000Y-122693000D01*
X154529000Y-124325000D01*
G37*
G36*
X188832499Y-123140445D02*
G01*
X188869995Y-123151820D01*
X188904554Y-123170292D01*
X188934847Y-123195153D01*
X188959708Y-123225446D01*
X188978180Y-123260005D01*
X188989555Y-123297501D01*
X188994000Y-123342638D01*
X188994000Y-124081362D01*
X188989555Y-124126499D01*
X188978180Y-124163995D01*
X188959708Y-124198554D01*
X188934847Y-124228847D01*
X188904554Y-124253708D01*
X188869995Y-124272180D01*
X188832499Y-124283555D01*
X188787362Y-124288000D01*
X188148638Y-124288000D01*
X188103501Y-124283555D01*
X188066005Y-124272180D01*
X188031446Y-124253708D01*
X188001153Y-124228847D01*
X187976292Y-124198554D01*
X187957820Y-124163995D01*
X187946445Y-124126499D01*
X187942000Y-124081362D01*
X187942000Y-123342638D01*
X187946445Y-123297501D01*
X187957820Y-123260005D01*
X187976292Y-123225446D01*
X188001153Y-123195153D01*
X188031446Y-123170292D01*
X188066005Y-123151820D01*
X188103501Y-123140445D01*
X188148638Y-123136000D01*
X188787362Y-123136000D01*
X188832499Y-123140445D01*
G37*
G36*
X211311499Y-123126445D02*
G01*
X211348995Y-123137820D01*
X211383554Y-123156292D01*
X211413847Y-123181153D01*
X211438708Y-123211446D01*
X211457180Y-123246005D01*
X211468555Y-123283501D01*
X211473000Y-123328638D01*
X211473000Y-124067362D01*
X211468555Y-124112499D01*
X211457180Y-124149995D01*
X211438708Y-124184554D01*
X211413847Y-124214847D01*
X211383554Y-124239708D01*
X211348995Y-124258180D01*
X211311499Y-124269555D01*
X211266362Y-124274000D01*
X210627638Y-124274000D01*
X210582501Y-124269555D01*
X210545005Y-124258180D01*
X210510446Y-124239708D01*
X210480153Y-124214847D01*
X210455292Y-124184554D01*
X210436820Y-124149995D01*
X210425445Y-124112499D01*
X210421000Y-124067362D01*
X210421000Y-123328638D01*
X210425445Y-123283501D01*
X210436820Y-123246005D01*
X210455292Y-123211446D01*
X210480153Y-123181153D01*
X210510446Y-123156292D01*
X210545005Y-123137820D01*
X210582501Y-123126445D01*
X210627638Y-123122000D01*
X211266362Y-123122000D01*
X211311499Y-123126445D01*
G37*
G36*
X144369000Y-124198000D02*
G01*
X143667000Y-124198000D01*
X143667000Y-122566000D01*
X144369000Y-122566000D01*
X144369000Y-124198000D01*
G37*
G36*
X143099000Y-124198000D02*
G01*
X142397000Y-124198000D01*
X142397000Y-122566000D01*
X143099000Y-122566000D01*
X143099000Y-124198000D01*
G37*
G36*
X145639000Y-124198000D02*
G01*
X144937000Y-124198000D01*
X144937000Y-122566000D01*
X145639000Y-122566000D01*
X145639000Y-124198000D01*
G37*
G36*
X165705000Y-124198000D02*
G01*
X165003000Y-124198000D01*
X165003000Y-122566000D01*
X165705000Y-122566000D01*
X165705000Y-124198000D01*
G37*
G36*
X163165000Y-124198000D02*
G01*
X162463000Y-124198000D01*
X162463000Y-122566000D01*
X163165000Y-122566000D01*
X163165000Y-124198000D01*
G37*
G36*
X137638000Y-124198000D02*
G01*
X136936000Y-124198000D01*
X136936000Y-122566000D01*
X137638000Y-122566000D01*
X137638000Y-124198000D01*
G37*
G36*
X135098000Y-124198000D02*
G01*
X134396000Y-124198000D01*
X134396000Y-122566000D01*
X135098000Y-122566000D01*
X135098000Y-124198000D01*
G37*
G36*
X164435000Y-124198000D02*
G01*
X163733000Y-124198000D01*
X163733000Y-122566000D01*
X164435000Y-122566000D01*
X164435000Y-124198000D01*
G37*
G36*
X148065499Y-123013445D02*
G01*
X148102995Y-123024820D01*
X148137554Y-123043292D01*
X148167847Y-123068153D01*
X148192708Y-123098446D01*
X148211180Y-123133005D01*
X148222555Y-123170501D01*
X148227000Y-123215638D01*
X148227000Y-123954362D01*
X148222555Y-123999499D01*
X148211180Y-124036995D01*
X148192708Y-124071554D01*
X148167847Y-124101847D01*
X148137554Y-124126708D01*
X148102995Y-124145180D01*
X148065499Y-124156555D01*
X148020362Y-124161000D01*
X147381638Y-124161000D01*
X147336501Y-124156555D01*
X147299005Y-124145180D01*
X147264446Y-124126708D01*
X147234153Y-124101847D01*
X147209292Y-124071554D01*
X147190820Y-124036995D01*
X147179445Y-123999499D01*
X147175000Y-123954362D01*
X147175000Y-123215638D01*
X147179445Y-123170501D01*
X147190820Y-123133005D01*
X147209292Y-123098446D01*
X147234153Y-123068153D01*
X147264446Y-123043292D01*
X147299005Y-123024820D01*
X147336501Y-123013445D01*
X147381638Y-123009000D01*
X148020362Y-123009000D01*
X148065499Y-123013445D01*
G37*
G36*
X168385499Y-122759445D02*
G01*
X168422995Y-122770820D01*
X168457554Y-122789292D01*
X168487847Y-122814153D01*
X168512708Y-122844446D01*
X168531180Y-122879005D01*
X168542555Y-122916501D01*
X168547000Y-122961638D01*
X168547000Y-123700362D01*
X168542555Y-123745499D01*
X168531180Y-123782995D01*
X168512708Y-123817554D01*
X168487847Y-123847847D01*
X168457554Y-123872708D01*
X168422995Y-123891180D01*
X168385499Y-123902555D01*
X168340362Y-123907000D01*
X167701638Y-123907000D01*
X167656501Y-123902555D01*
X167619005Y-123891180D01*
X167584446Y-123872708D01*
X167554153Y-123847847D01*
X167529292Y-123817554D01*
X167510820Y-123782995D01*
X167499445Y-123745499D01*
X167495000Y-123700362D01*
X167495000Y-122961638D01*
X167499445Y-122916501D01*
X167510820Y-122879005D01*
X167529292Y-122844446D01*
X167554153Y-122814153D01*
X167584446Y-122789292D01*
X167619005Y-122770820D01*
X167656501Y-122759445D01*
X167701638Y-122755000D01*
X168340362Y-122755000D01*
X168385499Y-122759445D01*
G37*
G36*
X202167499Y-119556445D02*
G01*
X202204995Y-119567820D01*
X202239554Y-119586292D01*
X202269847Y-119611153D01*
X202294708Y-119641446D01*
X202313180Y-119676005D01*
X202324555Y-119713501D01*
X202329000Y-119758638D01*
X202329000Y-120497362D01*
X202324555Y-120542499D01*
X202313180Y-120579995D01*
X202294708Y-120614554D01*
X202269847Y-120644847D01*
X202239554Y-120669708D01*
X202204995Y-120688180D01*
X202167499Y-120699555D01*
X202122362Y-120704000D01*
X201483638Y-120704000D01*
X201438501Y-120699555D01*
X201401005Y-120688180D01*
X201366446Y-120669708D01*
X201336153Y-120644847D01*
X201311292Y-120614554D01*
X201292820Y-120579995D01*
X201281445Y-120542499D01*
X201277000Y-120497362D01*
X201277000Y-119758638D01*
X201281445Y-119713501D01*
X201292820Y-119676005D01*
X201311292Y-119641446D01*
X201336153Y-119611153D01*
X201366446Y-119586292D01*
X201401005Y-119567820D01*
X201438501Y-119556445D01*
X201483638Y-119552000D01*
X202122362Y-119552000D01*
X202167499Y-119556445D01*
G37*
G36*
X179561499Y-119429445D02*
G01*
X179598995Y-119440820D01*
X179633554Y-119459292D01*
X179663847Y-119484153D01*
X179688708Y-119514446D01*
X179707180Y-119549005D01*
X179718555Y-119586501D01*
X179723000Y-119631638D01*
X179723000Y-120370362D01*
X179718555Y-120415499D01*
X179707180Y-120452995D01*
X179688708Y-120487554D01*
X179663847Y-120517847D01*
X179633554Y-120542708D01*
X179598995Y-120561180D01*
X179561499Y-120572555D01*
X179516362Y-120577000D01*
X178877638Y-120577000D01*
X178832501Y-120572555D01*
X178795005Y-120561180D01*
X178760446Y-120542708D01*
X178730153Y-120517847D01*
X178705292Y-120487554D01*
X178686820Y-120452995D01*
X178675445Y-120415499D01*
X178671000Y-120370362D01*
X178671000Y-119631638D01*
X178675445Y-119586501D01*
X178686820Y-119549005D01*
X178705292Y-119514446D01*
X178730153Y-119484153D01*
X178760446Y-119459292D01*
X178795005Y-119440820D01*
X178832501Y-119429445D01*
X178877638Y-119425000D01*
X179516362Y-119425000D01*
X179561499Y-119429445D01*
G37*
G36*
X159495499Y-119429445D02*
G01*
X159532995Y-119440820D01*
X159567554Y-119459292D01*
X159597847Y-119484153D01*
X159622708Y-119514446D01*
X159641180Y-119549005D01*
X159652555Y-119586501D01*
X159657000Y-119631638D01*
X159657000Y-120370362D01*
X159652555Y-120415499D01*
X159641180Y-120452995D01*
X159622708Y-120487554D01*
X159597847Y-120517847D01*
X159567554Y-120542708D01*
X159532995Y-120561180D01*
X159495499Y-120572555D01*
X159450362Y-120577000D01*
X158811638Y-120577000D01*
X158766501Y-120572555D01*
X158729005Y-120561180D01*
X158694446Y-120542708D01*
X158664153Y-120517847D01*
X158639292Y-120487554D01*
X158620820Y-120452995D01*
X158609445Y-120415499D01*
X158605000Y-120370362D01*
X158605000Y-119631638D01*
X158609445Y-119586501D01*
X158620820Y-119549005D01*
X158639292Y-119514446D01*
X158664153Y-119484153D01*
X158694446Y-119459292D01*
X158729005Y-119440820D01*
X158766501Y-119429445D01*
X158811638Y-119425000D01*
X159450362Y-119425000D01*
X159495499Y-119429445D01*
G37*
G36*
X140445499Y-119175445D02*
G01*
X140482995Y-119186820D01*
X140517554Y-119205292D01*
X140547847Y-119230153D01*
X140572708Y-119260446D01*
X140591180Y-119295005D01*
X140602555Y-119332501D01*
X140607000Y-119377638D01*
X140607000Y-120116362D01*
X140602555Y-120161499D01*
X140591180Y-120198995D01*
X140572708Y-120233554D01*
X140547847Y-120263847D01*
X140517554Y-120288708D01*
X140482995Y-120307180D01*
X140445499Y-120318555D01*
X140400362Y-120323000D01*
X139761638Y-120323000D01*
X139716501Y-120318555D01*
X139679005Y-120307180D01*
X139644446Y-120288708D01*
X139614153Y-120263847D01*
X139589292Y-120233554D01*
X139570820Y-120198995D01*
X139559445Y-120161499D01*
X139555000Y-120116362D01*
X139555000Y-119377638D01*
X139559445Y-119332501D01*
X139570820Y-119295005D01*
X139589292Y-119260446D01*
X139614153Y-119230153D01*
X139644446Y-119205292D01*
X139679005Y-119186820D01*
X139716501Y-119175445D01*
X139761638Y-119171000D01*
X140400362Y-119171000D01*
X140445499Y-119175445D01*
G37*
G36*
X202167499Y-117806445D02*
G01*
X202204995Y-117817820D01*
X202239554Y-117836292D01*
X202269847Y-117861153D01*
X202294708Y-117891446D01*
X202313180Y-117926005D01*
X202324555Y-117963501D01*
X202329000Y-118008638D01*
X202329000Y-118747362D01*
X202324555Y-118792499D01*
X202313180Y-118829995D01*
X202294708Y-118864554D01*
X202269847Y-118894847D01*
X202239554Y-118919708D01*
X202204995Y-118938180D01*
X202167499Y-118949555D01*
X202122362Y-118954000D01*
X201483638Y-118954000D01*
X201438501Y-118949555D01*
X201401005Y-118938180D01*
X201366446Y-118919708D01*
X201336153Y-118894847D01*
X201311292Y-118864554D01*
X201292820Y-118829995D01*
X201281445Y-118792499D01*
X201277000Y-118747362D01*
X201277000Y-118008638D01*
X201281445Y-117963501D01*
X201292820Y-117926005D01*
X201311292Y-117891446D01*
X201336153Y-117861153D01*
X201366446Y-117836292D01*
X201401005Y-117817820D01*
X201438501Y-117806445D01*
X201483638Y-117802000D01*
X202122362Y-117802000D01*
X202167499Y-117806445D01*
G37*
G36*
X179561499Y-117679445D02*
G01*
X179598995Y-117690820D01*
X179633554Y-117709292D01*
X179663847Y-117734153D01*
X179688708Y-117764446D01*
X179707180Y-117799005D01*
X179718555Y-117836501D01*
X179723000Y-117881638D01*
X179723000Y-118620362D01*
X179718555Y-118665499D01*
X179707180Y-118702995D01*
X179688708Y-118737554D01*
X179663847Y-118767847D01*
X179633554Y-118792708D01*
X179598995Y-118811180D01*
X179561499Y-118822555D01*
X179516362Y-118827000D01*
X178877638Y-118827000D01*
X178832501Y-118822555D01*
X178795005Y-118811180D01*
X178760446Y-118792708D01*
X178730153Y-118767847D01*
X178705292Y-118737554D01*
X178686820Y-118702995D01*
X178675445Y-118665499D01*
X178671000Y-118620362D01*
X178671000Y-117881638D01*
X178675445Y-117836501D01*
X178686820Y-117799005D01*
X178705292Y-117764446D01*
X178730153Y-117734153D01*
X178760446Y-117709292D01*
X178795005Y-117690820D01*
X178832501Y-117679445D01*
X178877638Y-117675000D01*
X179516362Y-117675000D01*
X179561499Y-117679445D01*
G37*
G36*
X159495499Y-117679445D02*
G01*
X159532995Y-117690820D01*
X159567554Y-117709292D01*
X159597847Y-117734153D01*
X159622708Y-117764446D01*
X159641180Y-117799005D01*
X159652555Y-117836501D01*
X159657000Y-117881638D01*
X159657000Y-118620362D01*
X159652555Y-118665499D01*
X159641180Y-118702995D01*
X159622708Y-118737554D01*
X159597847Y-118767847D01*
X159567554Y-118792708D01*
X159532995Y-118811180D01*
X159495499Y-118822555D01*
X159450362Y-118827000D01*
X158811638Y-118827000D01*
X158766501Y-118822555D01*
X158729005Y-118811180D01*
X158694446Y-118792708D01*
X158664153Y-118767847D01*
X158639292Y-118737554D01*
X158620820Y-118702995D01*
X158609445Y-118665499D01*
X158605000Y-118620362D01*
X158605000Y-117881638D01*
X158609445Y-117836501D01*
X158620820Y-117799005D01*
X158639292Y-117764446D01*
X158664153Y-117734153D01*
X158694446Y-117709292D01*
X158729005Y-117690820D01*
X158766501Y-117679445D01*
X158811638Y-117675000D01*
X159450362Y-117675000D01*
X159495499Y-117679445D01*
G37*
G36*
X140445499Y-117425445D02*
G01*
X140482995Y-117436820D01*
X140517554Y-117455292D01*
X140547847Y-117480153D01*
X140572708Y-117510446D01*
X140591180Y-117545005D01*
X140602555Y-117582501D01*
X140607000Y-117627638D01*
X140607000Y-118366362D01*
X140602555Y-118411499D01*
X140591180Y-118448995D01*
X140572708Y-118483554D01*
X140547847Y-118513847D01*
X140517554Y-118538708D01*
X140482995Y-118557180D01*
X140445499Y-118568555D01*
X140400362Y-118573000D01*
X139761638Y-118573000D01*
X139716501Y-118568555D01*
X139679005Y-118557180D01*
X139644446Y-118538708D01*
X139614153Y-118513847D01*
X139589292Y-118483554D01*
X139570820Y-118448995D01*
X139559445Y-118411499D01*
X139555000Y-118366362D01*
X139555000Y-117627638D01*
X139559445Y-117582501D01*
X139570820Y-117545005D01*
X139589292Y-117510446D01*
X139614153Y-117480153D01*
X139644446Y-117455292D01*
X139679005Y-117436820D01*
X139716501Y-117425445D01*
X139761638Y-117421000D01*
X140400362Y-117421000D01*
X140445499Y-117425445D01*
G37*
G36*
X186025000Y-117972000D02*
G01*
X185323000Y-117972000D01*
X185323000Y-116340000D01*
X186025000Y-116340000D01*
X186025000Y-117972000D01*
G37*
G36*
X183485000Y-117972000D02*
G01*
X182783000Y-117972000D01*
X182783000Y-116340000D01*
X183485000Y-116340000D01*
X183485000Y-117972000D01*
G37*
G36*
X208631000Y-117972000D02*
G01*
X207929000Y-117972000D01*
X207929000Y-116340000D01*
X208631000Y-116340000D01*
X208631000Y-117972000D01*
G37*
G36*
X206091000Y-117972000D02*
G01*
X205389000Y-117972000D01*
X205389000Y-116340000D01*
X206091000Y-116340000D01*
X206091000Y-117972000D01*
G37*
G36*
X196820000Y-117972000D02*
G01*
X196118000Y-117972000D01*
X196118000Y-116340000D01*
X196820000Y-116340000D01*
X196820000Y-117972000D01*
G37*
G36*
X199360000Y-117972000D02*
G01*
X198658000Y-117972000D01*
X198658000Y-116340000D01*
X199360000Y-116340000D01*
X199360000Y-117972000D01*
G37*
G36*
X198090000Y-117972000D02*
G01*
X197388000Y-117972000D01*
X197388000Y-116340000D01*
X198090000Y-116340000D01*
X198090000Y-117972000D01*
G37*
G36*
X177135000Y-117845000D02*
G01*
X176433000Y-117845000D01*
X176433000Y-116213000D01*
X177135000Y-116213000D01*
X177135000Y-117845000D01*
G37*
G36*
X175865000Y-117845000D02*
G01*
X175163000Y-117845000D01*
X175163000Y-116213000D01*
X175865000Y-116213000D01*
X175865000Y-117845000D01*
G37*
G36*
X174595000Y-117845000D02*
G01*
X173893000Y-117845000D01*
X173893000Y-116213000D01*
X174595000Y-116213000D01*
X174595000Y-117845000D01*
G37*
G36*
X154529000Y-117845000D02*
G01*
X153827000Y-117845000D01*
X153827000Y-116213000D01*
X154529000Y-116213000D01*
X154529000Y-117845000D01*
G37*
G36*
X155799000Y-117845000D02*
G01*
X155097000Y-117845000D01*
X155097000Y-116213000D01*
X155799000Y-116213000D01*
X155799000Y-117845000D01*
G37*
G36*
X157069000Y-117845000D02*
G01*
X156367000Y-117845000D01*
X156367000Y-116213000D01*
X157069000Y-116213000D01*
X157069000Y-117845000D01*
G37*
G36*
X135098000Y-117718000D02*
G01*
X134396000Y-117718000D01*
X134396000Y-116086000D01*
X135098000Y-116086000D01*
X135098000Y-117718000D01*
G37*
G36*
X136368000Y-117718000D02*
G01*
X135666000Y-117718000D01*
X135666000Y-116086000D01*
X136368000Y-116086000D01*
X136368000Y-117718000D01*
G37*
G36*
X137638000Y-117718000D02*
G01*
X136936000Y-117718000D01*
X136936000Y-116086000D01*
X137638000Y-116086000D01*
X137638000Y-117718000D01*
G37*
G36*
X143099000Y-117718000D02*
G01*
X142397000Y-117718000D01*
X142397000Y-116086000D01*
X143099000Y-116086000D01*
X143099000Y-117718000D01*
G37*
G36*
X145639000Y-117718000D02*
G01*
X144937000Y-117718000D01*
X144937000Y-116086000D01*
X145639000Y-116086000D01*
X145639000Y-117718000D01*
G37*
G36*
X163165000Y-117718000D02*
G01*
X162463000Y-117718000D01*
X162463000Y-116086000D01*
X163165000Y-116086000D01*
X163165000Y-117718000D01*
G37*
G36*
X165705000Y-117718000D02*
G01*
X165003000Y-117718000D01*
X165003000Y-116086000D01*
X165705000Y-116086000D01*
X165705000Y-117718000D01*
G37*
G36*
X170032642Y-114926781D02*
G01*
X170178414Y-114987162D01*
X170178416Y-114987163D01*
X170309608Y-115074822D01*
X170421178Y-115186392D01*
X170506429Y-115313980D01*
X170508838Y-115317586D01*
X170569219Y-115463358D01*
X170600000Y-115618107D01*
X170600000Y-115775893D01*
X170569219Y-115930642D01*
X170508838Y-116076414D01*
X170508837Y-116076416D01*
X170421178Y-116207608D01*
X170309608Y-116319178D01*
X170178416Y-116406837D01*
X170178415Y-116406838D01*
X170178414Y-116406838D01*
X170032642Y-116467219D01*
X169877893Y-116498000D01*
X169720107Y-116498000D01*
X169565358Y-116467219D01*
X169419586Y-116406838D01*
X169419585Y-116406838D01*
X169419584Y-116406837D01*
X169288392Y-116319178D01*
X169176822Y-116207608D01*
X169089163Y-116076416D01*
X169089162Y-116076414D01*
X169028781Y-115930642D01*
X168998000Y-115775893D01*
X168998000Y-115618107D01*
X169028781Y-115463358D01*
X169089162Y-115317586D01*
X169091571Y-115313980D01*
X169176822Y-115186392D01*
X169288392Y-115074822D01*
X169419584Y-114987163D01*
X169419586Y-114987162D01*
X169565358Y-114926781D01*
X169720107Y-114896000D01*
X169877893Y-114896000D01*
X170032642Y-114926781D01*
G37*
G36*
X154860499Y-114540445D02*
G01*
X154897995Y-114551820D01*
X154932554Y-114570292D01*
X154962847Y-114595153D01*
X154987708Y-114625446D01*
X155006180Y-114660005D01*
X155017555Y-114697501D01*
X155022000Y-114742638D01*
X155022000Y-115381362D01*
X155017555Y-115426499D01*
X155006180Y-115463995D01*
X154987708Y-115498554D01*
X154962847Y-115528847D01*
X154932554Y-115553708D01*
X154897995Y-115572180D01*
X154860499Y-115583555D01*
X154815362Y-115588000D01*
X154076638Y-115588000D01*
X154031501Y-115583555D01*
X153994005Y-115572180D01*
X153959446Y-115553708D01*
X153929153Y-115528847D01*
X153904292Y-115498554D01*
X153885820Y-115463995D01*
X153874445Y-115426499D01*
X153870000Y-115381362D01*
X153870000Y-114742638D01*
X153874445Y-114697501D01*
X153885820Y-114660005D01*
X153904292Y-114625446D01*
X153929153Y-114595153D01*
X153959446Y-114570292D01*
X153994005Y-114551820D01*
X154031501Y-114540445D01*
X154076638Y-114536000D01*
X154815362Y-114536000D01*
X154860499Y-114540445D01*
G37*
G36*
X137179499Y-114540445D02*
G01*
X137216995Y-114551820D01*
X137251554Y-114570292D01*
X137281847Y-114595153D01*
X137306708Y-114625446D01*
X137325180Y-114660005D01*
X137336555Y-114697501D01*
X137341000Y-114742638D01*
X137341000Y-115381362D01*
X137336555Y-115426499D01*
X137325180Y-115463995D01*
X137306708Y-115498554D01*
X137281847Y-115528847D01*
X137251554Y-115553708D01*
X137216995Y-115572180D01*
X137179499Y-115583555D01*
X137134362Y-115588000D01*
X136395638Y-115588000D01*
X136350501Y-115583555D01*
X136313005Y-115572180D01*
X136278446Y-115553708D01*
X136248153Y-115528847D01*
X136223292Y-115498554D01*
X136204820Y-115463995D01*
X136193445Y-115426499D01*
X136189000Y-115381362D01*
X136189000Y-114742638D01*
X136193445Y-114697501D01*
X136204820Y-114660005D01*
X136223292Y-114625446D01*
X136248153Y-114595153D01*
X136278446Y-114570292D01*
X136313005Y-114551820D01*
X136350501Y-114540445D01*
X136395638Y-114536000D01*
X137134362Y-114536000D01*
X137179499Y-114540445D01*
G37*
G36*
X135429499Y-114540445D02*
G01*
X135466995Y-114551820D01*
X135501554Y-114570292D01*
X135531847Y-114595153D01*
X135556708Y-114625446D01*
X135575180Y-114660005D01*
X135586555Y-114697501D01*
X135591000Y-114742638D01*
X135591000Y-115381362D01*
X135586555Y-115426499D01*
X135575180Y-115463995D01*
X135556708Y-115498554D01*
X135531847Y-115528847D01*
X135501554Y-115553708D01*
X135466995Y-115572180D01*
X135429499Y-115583555D01*
X135384362Y-115588000D01*
X134645638Y-115588000D01*
X134600501Y-115583555D01*
X134563005Y-115572180D01*
X134528446Y-115553708D01*
X134498153Y-115528847D01*
X134473292Y-115498554D01*
X134454820Y-115463995D01*
X134443445Y-115426499D01*
X134439000Y-115381362D01*
X134439000Y-114742638D01*
X134443445Y-114697501D01*
X134454820Y-114660005D01*
X134473292Y-114625446D01*
X134498153Y-114595153D01*
X134528446Y-114570292D01*
X134563005Y-114551820D01*
X134600501Y-114540445D01*
X134645638Y-114536000D01*
X135384362Y-114536000D01*
X135429499Y-114540445D01*
G37*
G36*
X156610499Y-114540445D02*
G01*
X156647995Y-114551820D01*
X156682554Y-114570292D01*
X156712847Y-114595153D01*
X156737708Y-114625446D01*
X156756180Y-114660005D01*
X156767555Y-114697501D01*
X156772000Y-114742638D01*
X156772000Y-115381362D01*
X156767555Y-115426499D01*
X156756180Y-115463995D01*
X156737708Y-115498554D01*
X156712847Y-115528847D01*
X156682554Y-115553708D01*
X156647995Y-115572180D01*
X156610499Y-115583555D01*
X156565362Y-115588000D01*
X155826638Y-115588000D01*
X155781501Y-115583555D01*
X155744005Y-115572180D01*
X155709446Y-115553708D01*
X155679153Y-115528847D01*
X155654292Y-115498554D01*
X155635820Y-115463995D01*
X155624445Y-115426499D01*
X155620000Y-115381362D01*
X155620000Y-114742638D01*
X155624445Y-114697501D01*
X155635820Y-114660005D01*
X155654292Y-114625446D01*
X155679153Y-114595153D01*
X155709446Y-114570292D01*
X155744005Y-114551820D01*
X155781501Y-114540445D01*
X155826638Y-114536000D01*
X156565362Y-114536000D01*
X156610499Y-114540445D01*
G37*
G36*
X185439499Y-114413445D02*
G01*
X185476995Y-114424820D01*
X185511554Y-114443292D01*
X185541847Y-114468153D01*
X185566708Y-114498446D01*
X185585180Y-114533005D01*
X185596555Y-114570501D01*
X185601000Y-114615638D01*
X185601000Y-115254362D01*
X185596555Y-115299499D01*
X185585180Y-115336995D01*
X185566708Y-115371554D01*
X185541847Y-115401847D01*
X185511554Y-115426708D01*
X185476995Y-115445180D01*
X185439499Y-115456555D01*
X185394362Y-115461000D01*
X184655638Y-115461000D01*
X184610501Y-115456555D01*
X184573005Y-115445180D01*
X184538446Y-115426708D01*
X184508153Y-115401847D01*
X184483292Y-115371554D01*
X184464820Y-115336995D01*
X184453445Y-115299499D01*
X184449000Y-115254362D01*
X184449000Y-114615638D01*
X184453445Y-114570501D01*
X184464820Y-114533005D01*
X184483292Y-114498446D01*
X184508153Y-114468153D01*
X184538446Y-114443292D01*
X184573005Y-114424820D01*
X184610501Y-114413445D01*
X184655638Y-114409000D01*
X185394362Y-114409000D01*
X185439499Y-114413445D01*
G37*
G36*
X183689499Y-114413445D02*
G01*
X183726995Y-114424820D01*
X183761554Y-114443292D01*
X183791847Y-114468153D01*
X183816708Y-114498446D01*
X183835180Y-114533005D01*
X183846555Y-114570501D01*
X183851000Y-114615638D01*
X183851000Y-115254362D01*
X183846555Y-115299499D01*
X183835180Y-115336995D01*
X183816708Y-115371554D01*
X183791847Y-115401847D01*
X183761554Y-115426708D01*
X183726995Y-115445180D01*
X183689499Y-115456555D01*
X183644362Y-115461000D01*
X182905638Y-115461000D01*
X182860501Y-115456555D01*
X182823005Y-115445180D01*
X182788446Y-115426708D01*
X182758153Y-115401847D01*
X182733292Y-115371554D01*
X182714820Y-115336995D01*
X182703445Y-115299499D01*
X182699000Y-115254362D01*
X182699000Y-114615638D01*
X182703445Y-114570501D01*
X182714820Y-114533005D01*
X182733292Y-114498446D01*
X182758153Y-114468153D01*
X182788446Y-114443292D01*
X182823005Y-114424820D01*
X182860501Y-114413445D01*
X182905638Y-114409000D01*
X183644362Y-114409000D01*
X183689499Y-114413445D01*
G37*
G36*
X145434499Y-114413445D02*
G01*
X145471995Y-114424820D01*
X145506554Y-114443292D01*
X145536847Y-114468153D01*
X145561708Y-114498446D01*
X145580180Y-114533005D01*
X145591555Y-114570501D01*
X145596000Y-114615638D01*
X145596000Y-115254362D01*
X145591555Y-115299499D01*
X145580180Y-115336995D01*
X145561708Y-115371554D01*
X145536847Y-115401847D01*
X145506554Y-115426708D01*
X145471995Y-115445180D01*
X145434499Y-115456555D01*
X145389362Y-115461000D01*
X144650638Y-115461000D01*
X144605501Y-115456555D01*
X144568005Y-115445180D01*
X144533446Y-115426708D01*
X144503153Y-115401847D01*
X144478292Y-115371554D01*
X144459820Y-115336995D01*
X144448445Y-115299499D01*
X144444000Y-115254362D01*
X144444000Y-114615638D01*
X144448445Y-114570501D01*
X144459820Y-114533005D01*
X144478292Y-114498446D01*
X144503153Y-114468153D01*
X144533446Y-114443292D01*
X144568005Y-114424820D01*
X144605501Y-114413445D01*
X144650638Y-114409000D01*
X145389362Y-114409000D01*
X145434499Y-114413445D01*
G37*
G36*
X143684499Y-114413445D02*
G01*
X143721995Y-114424820D01*
X143756554Y-114443292D01*
X143786847Y-114468153D01*
X143811708Y-114498446D01*
X143830180Y-114533005D01*
X143841555Y-114570501D01*
X143846000Y-114615638D01*
X143846000Y-115254362D01*
X143841555Y-115299499D01*
X143830180Y-115336995D01*
X143811708Y-115371554D01*
X143786847Y-115401847D01*
X143756554Y-115426708D01*
X143721995Y-115445180D01*
X143684499Y-115456555D01*
X143639362Y-115461000D01*
X142900638Y-115461000D01*
X142855501Y-115456555D01*
X142818005Y-115445180D01*
X142783446Y-115426708D01*
X142753153Y-115401847D01*
X142728292Y-115371554D01*
X142709820Y-115336995D01*
X142698445Y-115299499D01*
X142694000Y-115254362D01*
X142694000Y-114615638D01*
X142698445Y-114570501D01*
X142709820Y-114533005D01*
X142728292Y-114498446D01*
X142753153Y-114468153D01*
X142783446Y-114443292D01*
X142818005Y-114424820D01*
X142855501Y-114413445D01*
X142900638Y-114409000D01*
X143639362Y-114409000D01*
X143684499Y-114413445D01*
G37*
G36*
X176422499Y-114286445D02*
G01*
X176459995Y-114297820D01*
X176494554Y-114316292D01*
X176524847Y-114341153D01*
X176549708Y-114371446D01*
X176568180Y-114406005D01*
X176579555Y-114443501D01*
X176584000Y-114488638D01*
X176584000Y-115127362D01*
X176579555Y-115172499D01*
X176568180Y-115209995D01*
X176549708Y-115244554D01*
X176524847Y-115274847D01*
X176494554Y-115299708D01*
X176459995Y-115318180D01*
X176422499Y-115329555D01*
X176377362Y-115334000D01*
X175638638Y-115334000D01*
X175593501Y-115329555D01*
X175556005Y-115318180D01*
X175521446Y-115299708D01*
X175491153Y-115274847D01*
X175466292Y-115244554D01*
X175447820Y-115209995D01*
X175436445Y-115172499D01*
X175432000Y-115127362D01*
X175432000Y-114488638D01*
X175436445Y-114443501D01*
X175447820Y-114406005D01*
X175466292Y-114371446D01*
X175491153Y-114341153D01*
X175521446Y-114316292D01*
X175556005Y-114297820D01*
X175593501Y-114286445D01*
X175638638Y-114282000D01*
X176377362Y-114282000D01*
X176422499Y-114286445D01*
G37*
G36*
X174672499Y-114286445D02*
G01*
X174709995Y-114297820D01*
X174744554Y-114316292D01*
X174774847Y-114341153D01*
X174799708Y-114371446D01*
X174818180Y-114406005D01*
X174829555Y-114443501D01*
X174834000Y-114488638D01*
X174834000Y-115127362D01*
X174829555Y-115172499D01*
X174818180Y-115209995D01*
X174799708Y-115244554D01*
X174774847Y-115274847D01*
X174744554Y-115299708D01*
X174709995Y-115318180D01*
X174672499Y-115329555D01*
X174627362Y-115334000D01*
X173888638Y-115334000D01*
X173843501Y-115329555D01*
X173806005Y-115318180D01*
X173771446Y-115299708D01*
X173741153Y-115274847D01*
X173716292Y-115244554D01*
X173697820Y-115209995D01*
X173686445Y-115172499D01*
X173682000Y-115127362D01*
X173682000Y-114488638D01*
X173686445Y-114443501D01*
X173697820Y-114406005D01*
X173716292Y-114371446D01*
X173741153Y-114341153D01*
X173771446Y-114316292D01*
X173806005Y-114297820D01*
X173843501Y-114286445D01*
X173888638Y-114282000D01*
X174627362Y-114282000D01*
X174672499Y-114286445D01*
G37*
G36*
X165246499Y-114159445D02*
G01*
X165283995Y-114170820D01*
X165318554Y-114189292D01*
X165348847Y-114214153D01*
X165373708Y-114244446D01*
X165392180Y-114279005D01*
X165403555Y-114316501D01*
X165408000Y-114361638D01*
X165408000Y-115000362D01*
X165403555Y-115045499D01*
X165392180Y-115082995D01*
X165373708Y-115117554D01*
X165348847Y-115147847D01*
X165318554Y-115172708D01*
X165283995Y-115191180D01*
X165246499Y-115202555D01*
X165201362Y-115207000D01*
X164462638Y-115207000D01*
X164417501Y-115202555D01*
X164380005Y-115191180D01*
X164345446Y-115172708D01*
X164315153Y-115147847D01*
X164290292Y-115117554D01*
X164271820Y-115082995D01*
X164260445Y-115045499D01*
X164256000Y-115000362D01*
X164256000Y-114361638D01*
X164260445Y-114316501D01*
X164271820Y-114279005D01*
X164290292Y-114244446D01*
X164315153Y-114214153D01*
X164345446Y-114189292D01*
X164380005Y-114170820D01*
X164417501Y-114159445D01*
X164462638Y-114155000D01*
X165201362Y-114155000D01*
X165246499Y-114159445D01*
G37*
G36*
X163496499Y-114159445D02*
G01*
X163533995Y-114170820D01*
X163568554Y-114189292D01*
X163598847Y-114214153D01*
X163623708Y-114244446D01*
X163642180Y-114279005D01*
X163653555Y-114316501D01*
X163658000Y-114361638D01*
X163658000Y-115000362D01*
X163653555Y-115045499D01*
X163642180Y-115082995D01*
X163623708Y-115117554D01*
X163598847Y-115147847D01*
X163568554Y-115172708D01*
X163533995Y-115191180D01*
X163496499Y-115202555D01*
X163451362Y-115207000D01*
X162712638Y-115207000D01*
X162667501Y-115202555D01*
X162630005Y-115191180D01*
X162595446Y-115172708D01*
X162565153Y-115147847D01*
X162540292Y-115117554D01*
X162521820Y-115082995D01*
X162510445Y-115045499D01*
X162506000Y-115000362D01*
X162506000Y-114361638D01*
X162510445Y-114316501D01*
X162521820Y-114279005D01*
X162540292Y-114244446D01*
X162565153Y-114214153D01*
X162595446Y-114189292D01*
X162630005Y-114170820D01*
X162667501Y-114159445D01*
X162712638Y-114155000D01*
X163451362Y-114155000D01*
X163496499Y-114159445D01*
G37*
G36*
X206041499Y-114032445D02*
G01*
X206078995Y-114043820D01*
X206113554Y-114062292D01*
X206143847Y-114087153D01*
X206168708Y-114117446D01*
X206187180Y-114152005D01*
X206198555Y-114189501D01*
X206203000Y-114234638D01*
X206203000Y-114873362D01*
X206198555Y-114918499D01*
X206187180Y-114955995D01*
X206168708Y-114990554D01*
X206143847Y-115020847D01*
X206113554Y-115045708D01*
X206078995Y-115064180D01*
X206041499Y-115075555D01*
X205996362Y-115080000D01*
X205257638Y-115080000D01*
X205212501Y-115075555D01*
X205175005Y-115064180D01*
X205140446Y-115045708D01*
X205110153Y-115020847D01*
X205085292Y-114990554D01*
X205066820Y-114955995D01*
X205055445Y-114918499D01*
X205051000Y-114873362D01*
X205051000Y-114234638D01*
X205055445Y-114189501D01*
X205066820Y-114152005D01*
X205085292Y-114117446D01*
X205110153Y-114087153D01*
X205140446Y-114062292D01*
X205175005Y-114043820D01*
X205212501Y-114032445D01*
X205257638Y-114028000D01*
X205996362Y-114028000D01*
X206041499Y-114032445D01*
G37*
G36*
X207791499Y-114032445D02*
G01*
X207828995Y-114043820D01*
X207863554Y-114062292D01*
X207893847Y-114087153D01*
X207918708Y-114117446D01*
X207937180Y-114152005D01*
X207948555Y-114189501D01*
X207953000Y-114234638D01*
X207953000Y-114873362D01*
X207948555Y-114918499D01*
X207937180Y-114955995D01*
X207918708Y-114990554D01*
X207893847Y-115020847D01*
X207863554Y-115045708D01*
X207828995Y-115064180D01*
X207791499Y-115075555D01*
X207746362Y-115080000D01*
X207007638Y-115080000D01*
X206962501Y-115075555D01*
X206925005Y-115064180D01*
X206890446Y-115045708D01*
X206860153Y-115020847D01*
X206835292Y-114990554D01*
X206816820Y-114955995D01*
X206805445Y-114918499D01*
X206801000Y-114873362D01*
X206801000Y-114234638D01*
X206805445Y-114189501D01*
X206816820Y-114152005D01*
X206835292Y-114117446D01*
X206860153Y-114087153D01*
X206890446Y-114062292D01*
X206925005Y-114043820D01*
X206962501Y-114032445D01*
X207007638Y-114028000D01*
X207746362Y-114028000D01*
X207791499Y-114032445D01*
G37*
G36*
X199028499Y-114032445D02*
G01*
X199065995Y-114043820D01*
X199100554Y-114062292D01*
X199130847Y-114087153D01*
X199155708Y-114117446D01*
X199174180Y-114152005D01*
X199185555Y-114189501D01*
X199190000Y-114234638D01*
X199190000Y-114873362D01*
X199185555Y-114918499D01*
X199174180Y-114955995D01*
X199155708Y-114990554D01*
X199130847Y-115020847D01*
X199100554Y-115045708D01*
X199065995Y-115064180D01*
X199028499Y-115075555D01*
X198983362Y-115080000D01*
X198244638Y-115080000D01*
X198199501Y-115075555D01*
X198162005Y-115064180D01*
X198127446Y-115045708D01*
X198097153Y-115020847D01*
X198072292Y-114990554D01*
X198053820Y-114955995D01*
X198042445Y-114918499D01*
X198038000Y-114873362D01*
X198038000Y-114234638D01*
X198042445Y-114189501D01*
X198053820Y-114152005D01*
X198072292Y-114117446D01*
X198097153Y-114087153D01*
X198127446Y-114062292D01*
X198162005Y-114043820D01*
X198199501Y-114032445D01*
X198244638Y-114028000D01*
X198983362Y-114028000D01*
X199028499Y-114032445D01*
G37*
G36*
X197278499Y-114032445D02*
G01*
X197315995Y-114043820D01*
X197350554Y-114062292D01*
X197380847Y-114087153D01*
X197405708Y-114117446D01*
X197424180Y-114152005D01*
X197435555Y-114189501D01*
X197440000Y-114234638D01*
X197440000Y-114873362D01*
X197435555Y-114918499D01*
X197424180Y-114955995D01*
X197405708Y-114990554D01*
X197380847Y-115020847D01*
X197350554Y-115045708D01*
X197315995Y-115064180D01*
X197278499Y-115075555D01*
X197233362Y-115080000D01*
X196494638Y-115080000D01*
X196449501Y-115075555D01*
X196412005Y-115064180D01*
X196377446Y-115045708D01*
X196347153Y-115020847D01*
X196322292Y-114990554D01*
X196303820Y-114955995D01*
X196292445Y-114918499D01*
X196288000Y-114873362D01*
X196288000Y-114234638D01*
X196292445Y-114189501D01*
X196303820Y-114152005D01*
X196322292Y-114117446D01*
X196347153Y-114087153D01*
X196377446Y-114062292D01*
X196412005Y-114043820D01*
X196449501Y-114032445D01*
X196494638Y-114028000D01*
X197233362Y-114028000D01*
X197278499Y-114032445D01*
G37*
G36*
X180573642Y-113021781D02*
G01*
X180719414Y-113082162D01*
X180719416Y-113082163D01*
X180850608Y-113169822D01*
X180962178Y-113281392D01*
X181049837Y-113412584D01*
X181049838Y-113412586D01*
X181110219Y-113558358D01*
X181141000Y-113713107D01*
X181141000Y-113870893D01*
X181110219Y-114025642D01*
X181056637Y-114155000D01*
X181049837Y-114171416D01*
X180962178Y-114302608D01*
X180850608Y-114414178D01*
X180719416Y-114501837D01*
X180719415Y-114501838D01*
X180719414Y-114501838D01*
X180573642Y-114562219D01*
X180418893Y-114593000D01*
X180261107Y-114593000D01*
X180106358Y-114562219D01*
X179960586Y-114501838D01*
X179960585Y-114501838D01*
X179960584Y-114501837D01*
X179829392Y-114414178D01*
X179717822Y-114302608D01*
X179630163Y-114171416D01*
X179623363Y-114155000D01*
X179569781Y-114025642D01*
X179539000Y-113870893D01*
X179539000Y-113713107D01*
X179569781Y-113558358D01*
X179630162Y-113412586D01*
X179630163Y-113412584D01*
X179717822Y-113281392D01*
X179829392Y-113169822D01*
X179960584Y-113082163D01*
X179960586Y-113082162D01*
X180106358Y-113021781D01*
X180261107Y-112991000D01*
X180418893Y-112991000D01*
X180573642Y-113021781D01*
G37*
G36*
X167492642Y-111624781D02*
G01*
X167638414Y-111685162D01*
X167638416Y-111685163D01*
X167769608Y-111772822D01*
X167881178Y-111884392D01*
X167968837Y-112015584D01*
X167968838Y-112015586D01*
X168029219Y-112161358D01*
X168060000Y-112316107D01*
X168060000Y-112473893D01*
X168029219Y-112628642D01*
X167968838Y-112774414D01*
X167968837Y-112774416D01*
X167881178Y-112905608D01*
X167769608Y-113017178D01*
X167638416Y-113104837D01*
X167638415Y-113104838D01*
X167638414Y-113104838D01*
X167492642Y-113165219D01*
X167337893Y-113196000D01*
X167180107Y-113196000D01*
X167025358Y-113165219D01*
X166879586Y-113104838D01*
X166879585Y-113104838D01*
X166879584Y-113104837D01*
X166748392Y-113017178D01*
X166636822Y-112905608D01*
X166549163Y-112774416D01*
X166549162Y-112774414D01*
X166488781Y-112628642D01*
X166458000Y-112473893D01*
X166458000Y-112316107D01*
X166488781Y-112161358D01*
X166549162Y-112015586D01*
X166549163Y-112015584D01*
X166636822Y-111884392D01*
X166748392Y-111772822D01*
X166879584Y-111685163D01*
X166879586Y-111685162D01*
X167025358Y-111624781D01*
X167180107Y-111594000D01*
X167337893Y-111594000D01*
X167492642Y-111624781D01*
G37*
G36*
X192500617Y-110970420D02*
G01*
X192581399Y-110994925D01*
X192623335Y-111007646D01*
X192736424Y-111068094D01*
X192835554Y-111149447D01*
X192916906Y-111248575D01*
X192977354Y-111361664D01*
X192983404Y-111381608D01*
X193014580Y-111484382D01*
X193024000Y-111580027D01*
X193024000Y-112193973D01*
X193014580Y-112289618D01*
X193006544Y-112316108D01*
X192977354Y-112412336D01*
X192916906Y-112525425D01*
X192835554Y-112624554D01*
X192736425Y-112705906D01*
X192623336Y-112766354D01*
X192596765Y-112774414D01*
X192500618Y-112803580D01*
X192373000Y-112816149D01*
X192245383Y-112803580D01*
X192149236Y-112774414D01*
X192122665Y-112766354D01*
X192009576Y-112705906D01*
X191910447Y-112624554D01*
X191829096Y-112525427D01*
X191829095Y-112525425D01*
X191768647Y-112412336D01*
X191768645Y-112412333D01*
X191739456Y-112316108D01*
X191731420Y-112289618D01*
X191722000Y-112193973D01*
X191722000Y-111580028D01*
X191731420Y-111484383D01*
X191758960Y-111393597D01*
X191768646Y-111361665D01*
X191829094Y-111248576D01*
X191910447Y-111149446D01*
X192009575Y-111068094D01*
X192122664Y-111007646D01*
X192164600Y-110994925D01*
X192245382Y-110970420D01*
X192373000Y-110957851D01*
X192500617Y-110970420D01*
G37*
G36*
X190864242Y-110965404D02*
G01*
X190901337Y-110976657D01*
X190935515Y-110994925D01*
X190965481Y-111019519D01*
X190990075Y-111049485D01*
X191008343Y-111083663D01*
X191019596Y-111120758D01*
X191024000Y-111165474D01*
X191024000Y-112608526D01*
X191019596Y-112653242D01*
X191008343Y-112690337D01*
X190990075Y-112724515D01*
X190965481Y-112754481D01*
X190935515Y-112779075D01*
X190901337Y-112797343D01*
X190864242Y-112808596D01*
X190819526Y-112813000D01*
X189926474Y-112813000D01*
X189881758Y-112808596D01*
X189844663Y-112797343D01*
X189810485Y-112779075D01*
X189780519Y-112754481D01*
X189755925Y-112724515D01*
X189737657Y-112690337D01*
X189726404Y-112653242D01*
X189722000Y-112608526D01*
X189722000Y-111165474D01*
X189726404Y-111120758D01*
X189737657Y-111083663D01*
X189755925Y-111049485D01*
X189780519Y-111019519D01*
X189810485Y-110994925D01*
X189844663Y-110976657D01*
X189881758Y-110965404D01*
X189926474Y-110961000D01*
X190819526Y-110961000D01*
X190864242Y-110965404D01*
G37*
G36*
X158856642Y-111116781D02*
G01*
X159002414Y-111177162D01*
X159002416Y-111177163D01*
X159133608Y-111264822D01*
X159245178Y-111376392D01*
X159317335Y-111484384D01*
X159332838Y-111507586D01*
X159393219Y-111653358D01*
X159424000Y-111808107D01*
X159424000Y-111965893D01*
X159393219Y-112120642D01*
X159332838Y-112266414D01*
X159332837Y-112266416D01*
X159245178Y-112397608D01*
X159133608Y-112509178D01*
X159002416Y-112596837D01*
X159002415Y-112596838D01*
X159002414Y-112596838D01*
X158856642Y-112657219D01*
X158701893Y-112688000D01*
X158544107Y-112688000D01*
X158389358Y-112657219D01*
X158243586Y-112596838D01*
X158243585Y-112596838D01*
X158243584Y-112596837D01*
X158112392Y-112509178D01*
X158000822Y-112397608D01*
X157913163Y-112266416D01*
X157913162Y-112266414D01*
X157852781Y-112120642D01*
X157822000Y-111965893D01*
X157822000Y-111808107D01*
X157852781Y-111653358D01*
X157913162Y-111507586D01*
X157928665Y-111484384D01*
X158000822Y-111376392D01*
X158112392Y-111264822D01*
X158243584Y-111177163D01*
X158243586Y-111177162D01*
X158389358Y-111116781D01*
X158544107Y-111086000D01*
X158701893Y-111086000D01*
X158856642Y-111116781D01*
G37*
G36*
X204068642Y-111116781D02*
G01*
X204214414Y-111177162D01*
X204214416Y-111177163D01*
X204345608Y-111264822D01*
X204457178Y-111376392D01*
X204529335Y-111484384D01*
X204544838Y-111507586D01*
X204605219Y-111653358D01*
X204636000Y-111808107D01*
X204636000Y-111965893D01*
X204605219Y-112120642D01*
X204544838Y-112266414D01*
X204544837Y-112266416D01*
X204457178Y-112397608D01*
X204345608Y-112509178D01*
X204214416Y-112596837D01*
X204214415Y-112596838D01*
X204214414Y-112596838D01*
X204068642Y-112657219D01*
X203913893Y-112688000D01*
X203756107Y-112688000D01*
X203601358Y-112657219D01*
X203455586Y-112596838D01*
X203455585Y-112596838D01*
X203455584Y-112596837D01*
X203324392Y-112509178D01*
X203212822Y-112397608D01*
X203125163Y-112266416D01*
X203125162Y-112266414D01*
X203064781Y-112120642D01*
X203034000Y-111965893D01*
X203034000Y-111808107D01*
X203064781Y-111653358D01*
X203125162Y-111507586D01*
X203140665Y-111484384D01*
X203212822Y-111376392D01*
X203324392Y-111264822D01*
X203455584Y-111177163D01*
X203455586Y-111177162D01*
X203601358Y-111116781D01*
X203756107Y-111086000D01*
X203913893Y-111086000D01*
X204068642Y-111116781D01*
G37*
G36*
X148442642Y-110989781D02*
G01*
X148588414Y-111050162D01*
X148588416Y-111050163D01*
X148719608Y-111137822D01*
X148831178Y-111249392D01*
X148918837Y-111380584D01*
X148918838Y-111380586D01*
X148979219Y-111526358D01*
X149010000Y-111681107D01*
X149010000Y-111838893D01*
X148979219Y-111993642D01*
X148926613Y-112120643D01*
X148918837Y-112139416D01*
X148831178Y-112270608D01*
X148719608Y-112382178D01*
X148588416Y-112469837D01*
X148588415Y-112469838D01*
X148588414Y-112469838D01*
X148442642Y-112530219D01*
X148287893Y-112561000D01*
X148130107Y-112561000D01*
X147975358Y-112530219D01*
X147829586Y-112469838D01*
X147829585Y-112469838D01*
X147829584Y-112469837D01*
X147698392Y-112382178D01*
X147586822Y-112270608D01*
X147499163Y-112139416D01*
X147491387Y-112120643D01*
X147438781Y-111993642D01*
X147408000Y-111838893D01*
X147408000Y-111681107D01*
X147438781Y-111526358D01*
X147499162Y-111380586D01*
X147499163Y-111380584D01*
X147586822Y-111249392D01*
X147698392Y-111137822D01*
X147829584Y-111050163D01*
X147829586Y-111050162D01*
X147975358Y-110989781D01*
X148130107Y-110959000D01*
X148287893Y-110959000D01*
X148442642Y-110989781D01*
G37*
G36*
X144505642Y-110989781D02*
G01*
X144651414Y-111050162D01*
X144651416Y-111050163D01*
X144782608Y-111137822D01*
X144894178Y-111249392D01*
X144981837Y-111380584D01*
X144981838Y-111380586D01*
X145042219Y-111526358D01*
X145073000Y-111681107D01*
X145073000Y-111838893D01*
X145042219Y-111993642D01*
X144989613Y-112120643D01*
X144981837Y-112139416D01*
X144894178Y-112270608D01*
X144782608Y-112382178D01*
X144651416Y-112469837D01*
X144651415Y-112469838D01*
X144651414Y-112469838D01*
X144505642Y-112530219D01*
X144350893Y-112561000D01*
X144193107Y-112561000D01*
X144038358Y-112530219D01*
X143892586Y-112469838D01*
X143892585Y-112469838D01*
X143892584Y-112469837D01*
X143761392Y-112382178D01*
X143649822Y-112270608D01*
X143562163Y-112139416D01*
X143554387Y-112120643D01*
X143501781Y-111993642D01*
X143471000Y-111838893D01*
X143471000Y-111681107D01*
X143501781Y-111526358D01*
X143562162Y-111380586D01*
X143562163Y-111380584D01*
X143649822Y-111249392D01*
X143761392Y-111137822D01*
X143892584Y-111050163D01*
X143892586Y-111050162D01*
X144038358Y-110989781D01*
X144193107Y-110959000D01*
X144350893Y-110959000D01*
X144505642Y-110989781D01*
G37*
G36*
X208894642Y-110100781D02*
G01*
X209040414Y-110161162D01*
X209040416Y-110161163D01*
X209171608Y-110248822D01*
X209283178Y-110360392D01*
X209285980Y-110364586D01*
X209370838Y-110491586D01*
X209431219Y-110637358D01*
X209462000Y-110792107D01*
X209462000Y-110949893D01*
X209431219Y-111104642D01*
X209378362Y-111232249D01*
X209370837Y-111250416D01*
X209283178Y-111381608D01*
X209171608Y-111493178D01*
X209040416Y-111580837D01*
X209040415Y-111580838D01*
X209040414Y-111580838D01*
X208894642Y-111641219D01*
X208739893Y-111672000D01*
X208582107Y-111672000D01*
X208427358Y-111641219D01*
X208281586Y-111580838D01*
X208281585Y-111580838D01*
X208281584Y-111580837D01*
X208150392Y-111493178D01*
X208038822Y-111381608D01*
X207951163Y-111250416D01*
X207943638Y-111232249D01*
X207890781Y-111104642D01*
X207860000Y-110949893D01*
X207860000Y-110792107D01*
X207890781Y-110637358D01*
X207951162Y-110491586D01*
X208036020Y-110364586D01*
X208038822Y-110360392D01*
X208150392Y-110248822D01*
X208281584Y-110161163D01*
X208281586Y-110161162D01*
X208427358Y-110100781D01*
X208582107Y-110070000D01*
X208739893Y-110070000D01*
X208894642Y-110100781D01*
G37*
G36*
X186415642Y-109973781D02*
G01*
X186561414Y-110034162D01*
X186561416Y-110034163D01*
X186692608Y-110121822D01*
X186804178Y-110233392D01*
X186889719Y-110361414D01*
X186891838Y-110364586D01*
X186952219Y-110510358D01*
X186983000Y-110665107D01*
X186983000Y-110822893D01*
X186952219Y-110977642D01*
X186899613Y-111104643D01*
X186891837Y-111123416D01*
X186804178Y-111254608D01*
X186692608Y-111366178D01*
X186561416Y-111453837D01*
X186561415Y-111453838D01*
X186561414Y-111453838D01*
X186415642Y-111514219D01*
X186260893Y-111545000D01*
X186103107Y-111545000D01*
X185948358Y-111514219D01*
X185802586Y-111453838D01*
X185802585Y-111453838D01*
X185802584Y-111453837D01*
X185671392Y-111366178D01*
X185559822Y-111254608D01*
X185472163Y-111123416D01*
X185464387Y-111104643D01*
X185411781Y-110977642D01*
X185381000Y-110822893D01*
X185381000Y-110665107D01*
X185411781Y-110510358D01*
X185472162Y-110364586D01*
X185474281Y-110361414D01*
X185559822Y-110233392D01*
X185671392Y-110121822D01*
X185802584Y-110034163D01*
X185802586Y-110034162D01*
X185948358Y-109973781D01*
X186103107Y-109943000D01*
X186260893Y-109943000D01*
X186415642Y-109973781D01*
G37*
G36*
X139044642Y-109211781D02*
G01*
X139190414Y-109272162D01*
X139190416Y-109272163D01*
X139321608Y-109359822D01*
X139433178Y-109471392D01*
X139520837Y-109602584D01*
X139520838Y-109602586D01*
X139581219Y-109748358D01*
X139612000Y-109903107D01*
X139612000Y-110060893D01*
X139581219Y-110215642D01*
X139573866Y-110233393D01*
X139520837Y-110361416D01*
X139433178Y-110492608D01*
X139321608Y-110604178D01*
X139190416Y-110691837D01*
X139190415Y-110691838D01*
X139190414Y-110691838D01*
X139044642Y-110752219D01*
X138889893Y-110783000D01*
X138732107Y-110783000D01*
X138577358Y-110752219D01*
X138431586Y-110691838D01*
X138431585Y-110691838D01*
X138431584Y-110691837D01*
X138300392Y-110604178D01*
X138188822Y-110492608D01*
X138101163Y-110361416D01*
X138048134Y-110233393D01*
X138040781Y-110215642D01*
X138010000Y-110060893D01*
X138010000Y-109903107D01*
X138040781Y-109748358D01*
X138101162Y-109602586D01*
X138101163Y-109602584D01*
X138188822Y-109471392D01*
X138300392Y-109359822D01*
X138431584Y-109272163D01*
X138431586Y-109272162D01*
X138577358Y-109211781D01*
X138732107Y-109181000D01*
X138889893Y-109181000D01*
X139044642Y-109211781D01*
G37*
G36*
X202686228Y-107258703D02*
G01*
X202841100Y-107322853D01*
X202980481Y-107415985D01*
X203099015Y-107534519D01*
X203192147Y-107673900D01*
X203256297Y-107828772D01*
X203289000Y-107993184D01*
X203289000Y-108160816D01*
X203256297Y-108325228D01*
X203192147Y-108480100D01*
X203099015Y-108619481D01*
X202980481Y-108738015D01*
X202841100Y-108831147D01*
X202686228Y-108895297D01*
X202521816Y-108928000D01*
X202354184Y-108928000D01*
X202189772Y-108895297D01*
X202034900Y-108831147D01*
X201895519Y-108738015D01*
X201776985Y-108619481D01*
X201683853Y-108480100D01*
X201619703Y-108325228D01*
X201587000Y-108160816D01*
X201587000Y-107993184D01*
X201619703Y-107828772D01*
X201683853Y-107673900D01*
X201776985Y-107534519D01*
X201895519Y-107415985D01*
X202034900Y-107322853D01*
X202189772Y-107258703D01*
X202354184Y-107226000D01*
X202521816Y-107226000D01*
X202686228Y-107258703D01*
G37*
G36*
X164586228Y-107258703D02*
G01*
X164741100Y-107322853D01*
X164880481Y-107415985D01*
X164999015Y-107534519D01*
X165092147Y-107673900D01*
X165156297Y-107828772D01*
X165189000Y-107993184D01*
X165189000Y-108160816D01*
X165156297Y-108325228D01*
X165092147Y-108480100D01*
X164999015Y-108619481D01*
X164880481Y-108738015D01*
X164741100Y-108831147D01*
X164586228Y-108895297D01*
X164421816Y-108928000D01*
X164254184Y-108928000D01*
X164089772Y-108895297D01*
X163934900Y-108831147D01*
X163795519Y-108738015D01*
X163676985Y-108619481D01*
X163583853Y-108480100D01*
X163519703Y-108325228D01*
X163487000Y-108160816D01*
X163487000Y-107993184D01*
X163519703Y-107828772D01*
X163583853Y-107673900D01*
X163676985Y-107534519D01*
X163795519Y-107415985D01*
X163934900Y-107322853D01*
X164089772Y-107258703D01*
X164254184Y-107226000D01*
X164421816Y-107226000D01*
X164586228Y-107258703D01*
G37*
G36*
X167126228Y-107258703D02*
G01*
X167281100Y-107322853D01*
X167420481Y-107415985D01*
X167539015Y-107534519D01*
X167632147Y-107673900D01*
X167696297Y-107828772D01*
X167729000Y-107993184D01*
X167729000Y-108160816D01*
X167696297Y-108325228D01*
X167632147Y-108480100D01*
X167539015Y-108619481D01*
X167420481Y-108738015D01*
X167281100Y-108831147D01*
X167126228Y-108895297D01*
X166961816Y-108928000D01*
X166794184Y-108928000D01*
X166629772Y-108895297D01*
X166474900Y-108831147D01*
X166335519Y-108738015D01*
X166216985Y-108619481D01*
X166123853Y-108480100D01*
X166059703Y-108325228D01*
X166027000Y-108160816D01*
X166027000Y-107993184D01*
X166059703Y-107828772D01*
X166123853Y-107673900D01*
X166216985Y-107534519D01*
X166335519Y-107415985D01*
X166474900Y-107322853D01*
X166629772Y-107258703D01*
X166794184Y-107226000D01*
X166961816Y-107226000D01*
X167126228Y-107258703D01*
G37*
G36*
X169666228Y-107258703D02*
G01*
X169821100Y-107322853D01*
X169960481Y-107415985D01*
X170079015Y-107534519D01*
X170172147Y-107673900D01*
X170236297Y-107828772D01*
X170269000Y-107993184D01*
X170269000Y-108160816D01*
X170236297Y-108325228D01*
X170172147Y-108480100D01*
X170079015Y-108619481D01*
X169960481Y-108738015D01*
X169821100Y-108831147D01*
X169666228Y-108895297D01*
X169501816Y-108928000D01*
X169334184Y-108928000D01*
X169169772Y-108895297D01*
X169014900Y-108831147D01*
X168875519Y-108738015D01*
X168756985Y-108619481D01*
X168663853Y-108480100D01*
X168599703Y-108325228D01*
X168567000Y-108160816D01*
X168567000Y-107993184D01*
X168599703Y-107828772D01*
X168663853Y-107673900D01*
X168756985Y-107534519D01*
X168875519Y-107415985D01*
X169014900Y-107322853D01*
X169169772Y-107258703D01*
X169334184Y-107226000D01*
X169501816Y-107226000D01*
X169666228Y-107258703D01*
G37*
G36*
X172206228Y-107258703D02*
G01*
X172361100Y-107322853D01*
X172500481Y-107415985D01*
X172619015Y-107534519D01*
X172712147Y-107673900D01*
X172776297Y-107828772D01*
X172809000Y-107993184D01*
X172809000Y-108160816D01*
X172776297Y-108325228D01*
X172712147Y-108480100D01*
X172619015Y-108619481D01*
X172500481Y-108738015D01*
X172361100Y-108831147D01*
X172206228Y-108895297D01*
X172041816Y-108928000D01*
X171874184Y-108928000D01*
X171709772Y-108895297D01*
X171554900Y-108831147D01*
X171415519Y-108738015D01*
X171296985Y-108619481D01*
X171203853Y-108480100D01*
X171139703Y-108325228D01*
X171107000Y-108160816D01*
X171107000Y-107993184D01*
X171139703Y-107828772D01*
X171203853Y-107673900D01*
X171296985Y-107534519D01*
X171415519Y-107415985D01*
X171554900Y-107322853D01*
X171709772Y-107258703D01*
X171874184Y-107226000D01*
X172041816Y-107226000D01*
X172206228Y-107258703D01*
G37*
G36*
X174746228Y-107258703D02*
G01*
X174901100Y-107322853D01*
X175040481Y-107415985D01*
X175159015Y-107534519D01*
X175252147Y-107673900D01*
X175316297Y-107828772D01*
X175349000Y-107993184D01*
X175349000Y-108160816D01*
X175316297Y-108325228D01*
X175252147Y-108480100D01*
X175159015Y-108619481D01*
X175040481Y-108738015D01*
X174901100Y-108831147D01*
X174746228Y-108895297D01*
X174581816Y-108928000D01*
X174414184Y-108928000D01*
X174249772Y-108895297D01*
X174094900Y-108831147D01*
X173955519Y-108738015D01*
X173836985Y-108619481D01*
X173743853Y-108480100D01*
X173679703Y-108325228D01*
X173647000Y-108160816D01*
X173647000Y-107993184D01*
X173679703Y-107828772D01*
X173743853Y-107673900D01*
X173836985Y-107534519D01*
X173955519Y-107415985D01*
X174094900Y-107322853D01*
X174249772Y-107258703D01*
X174414184Y-107226000D01*
X174581816Y-107226000D01*
X174746228Y-107258703D01*
G37*
G36*
X177286228Y-107258703D02*
G01*
X177441100Y-107322853D01*
X177580481Y-107415985D01*
X177699015Y-107534519D01*
X177792147Y-107673900D01*
X177856297Y-107828772D01*
X177889000Y-107993184D01*
X177889000Y-108160816D01*
X177856297Y-108325228D01*
X177792147Y-108480100D01*
X177699015Y-108619481D01*
X177580481Y-108738015D01*
X177441100Y-108831147D01*
X177286228Y-108895297D01*
X177121816Y-108928000D01*
X176954184Y-108928000D01*
X176789772Y-108895297D01*
X176634900Y-108831147D01*
X176495519Y-108738015D01*
X176376985Y-108619481D01*
X176283853Y-108480100D01*
X176219703Y-108325228D01*
X176187000Y-108160816D01*
X176187000Y-107993184D01*
X176219703Y-107828772D01*
X176283853Y-107673900D01*
X176376985Y-107534519D01*
X176495519Y-107415985D01*
X176634900Y-107322853D01*
X176789772Y-107258703D01*
X176954184Y-107226000D01*
X177121816Y-107226000D01*
X177286228Y-107258703D01*
G37*
G36*
X179826228Y-107258703D02*
G01*
X179981100Y-107322853D01*
X180120481Y-107415985D01*
X180239015Y-107534519D01*
X180332147Y-107673900D01*
X180396297Y-107828772D01*
X180429000Y-107993184D01*
X180429000Y-108160816D01*
X180396297Y-108325228D01*
X180332147Y-108480100D01*
X180239015Y-108619481D01*
X180120481Y-108738015D01*
X179981100Y-108831147D01*
X179826228Y-108895297D01*
X179661816Y-108928000D01*
X179494184Y-108928000D01*
X179329772Y-108895297D01*
X179174900Y-108831147D01*
X179035519Y-108738015D01*
X178916985Y-108619481D01*
X178823853Y-108480100D01*
X178759703Y-108325228D01*
X178727000Y-108160816D01*
X178727000Y-107993184D01*
X178759703Y-107828772D01*
X178823853Y-107673900D01*
X178916985Y-107534519D01*
X179035519Y-107415985D01*
X179174900Y-107322853D01*
X179329772Y-107258703D01*
X179494184Y-107226000D01*
X179661816Y-107226000D01*
X179826228Y-107258703D01*
G37*
G36*
X182366228Y-107258703D02*
G01*
X182521100Y-107322853D01*
X182660481Y-107415985D01*
X182779015Y-107534519D01*
X182872147Y-107673900D01*
X182936297Y-107828772D01*
X182969000Y-107993184D01*
X182969000Y-108160816D01*
X182936297Y-108325228D01*
X182872147Y-108480100D01*
X182779015Y-108619481D01*
X182660481Y-108738015D01*
X182521100Y-108831147D01*
X182366228Y-108895297D01*
X182201816Y-108928000D01*
X182034184Y-108928000D01*
X181869772Y-108895297D01*
X181714900Y-108831147D01*
X181575519Y-108738015D01*
X181456985Y-108619481D01*
X181363853Y-108480100D01*
X181299703Y-108325228D01*
X181267000Y-108160816D01*
X181267000Y-107993184D01*
X181299703Y-107828772D01*
X181363853Y-107673900D01*
X181456985Y-107534519D01*
X181575519Y-107415985D01*
X181714900Y-107322853D01*
X181869772Y-107258703D01*
X182034184Y-107226000D01*
X182201816Y-107226000D01*
X182366228Y-107258703D01*
G37*
G36*
X162046228Y-107258703D02*
G01*
X162201100Y-107322853D01*
X162340481Y-107415985D01*
X162459015Y-107534519D01*
X162552147Y-107673900D01*
X162616297Y-107828772D01*
X162649000Y-107993184D01*
X162649000Y-108160816D01*
X162616297Y-108325228D01*
X162552147Y-108480100D01*
X162459015Y-108619481D01*
X162340481Y-108738015D01*
X162201100Y-108831147D01*
X162046228Y-108895297D01*
X161881816Y-108928000D01*
X161714184Y-108928000D01*
X161549772Y-108895297D01*
X161394900Y-108831147D01*
X161255519Y-108738015D01*
X161136985Y-108619481D01*
X161043853Y-108480100D01*
X160979703Y-108325228D01*
X160947000Y-108160816D01*
X160947000Y-107993184D01*
X160979703Y-107828772D01*
X161043853Y-107673900D01*
X161136985Y-107534519D01*
X161255519Y-107415985D01*
X161394900Y-107322853D01*
X161549772Y-107258703D01*
X161714184Y-107226000D01*
X161881816Y-107226000D01*
X162046228Y-107258703D01*
G37*
G36*
X197606228Y-107258703D02*
G01*
X197761100Y-107322853D01*
X197900481Y-107415985D01*
X198019015Y-107534519D01*
X198112147Y-107673900D01*
X198176297Y-107828772D01*
X198209000Y-107993184D01*
X198209000Y-108160816D01*
X198176297Y-108325228D01*
X198112147Y-108480100D01*
X198019015Y-108619481D01*
X197900481Y-108738015D01*
X197761100Y-108831147D01*
X197606228Y-108895297D01*
X197441816Y-108928000D01*
X197274184Y-108928000D01*
X197109772Y-108895297D01*
X196954900Y-108831147D01*
X196815519Y-108738015D01*
X196696985Y-108619481D01*
X196603853Y-108480100D01*
X196539703Y-108325228D01*
X196507000Y-108160816D01*
X196507000Y-107993184D01*
X196539703Y-107828772D01*
X196603853Y-107673900D01*
X196696985Y-107534519D01*
X196815519Y-107415985D01*
X196954900Y-107322853D01*
X197109772Y-107258703D01*
X197274184Y-107226000D01*
X197441816Y-107226000D01*
X197606228Y-107258703D01*
G37*
G36*
X200146228Y-107258703D02*
G01*
X200301100Y-107322853D01*
X200440481Y-107415985D01*
X200559015Y-107534519D01*
X200652147Y-107673900D01*
X200716297Y-107828772D01*
X200749000Y-107993184D01*
X200749000Y-108160816D01*
X200716297Y-108325228D01*
X200652147Y-108480100D01*
X200559015Y-108619481D01*
X200440481Y-108738015D01*
X200301100Y-108831147D01*
X200146228Y-108895297D01*
X199981816Y-108928000D01*
X199814184Y-108928000D01*
X199649772Y-108895297D01*
X199494900Y-108831147D01*
X199355519Y-108738015D01*
X199236985Y-108619481D01*
X199143853Y-108480100D01*
X199079703Y-108325228D01*
X199047000Y-108160816D01*
X199047000Y-107993184D01*
X199079703Y-107828772D01*
X199143853Y-107673900D01*
X199236985Y-107534519D01*
X199355519Y-107415985D01*
X199494900Y-107322853D01*
X199649772Y-107258703D01*
X199814184Y-107226000D01*
X199981816Y-107226000D01*
X200146228Y-107258703D01*
G37*
G36*
X205226228Y-107258703D02*
G01*
X205381100Y-107322853D01*
X205520481Y-107415985D01*
X205639015Y-107534519D01*
X205732147Y-107673900D01*
X205796297Y-107828772D01*
X205829000Y-107993184D01*
X205829000Y-108160816D01*
X205796297Y-108325228D01*
X205732147Y-108480100D01*
X205639015Y-108619481D01*
X205520481Y-108738015D01*
X205381100Y-108831147D01*
X205226228Y-108895297D01*
X205061816Y-108928000D01*
X204894184Y-108928000D01*
X204729772Y-108895297D01*
X204574900Y-108831147D01*
X204435519Y-108738015D01*
X204316985Y-108619481D01*
X204223853Y-108480100D01*
X204159703Y-108325228D01*
X204127000Y-108160816D01*
X204127000Y-107993184D01*
X204159703Y-107828772D01*
X204223853Y-107673900D01*
X204316985Y-107534519D01*
X204435519Y-107415985D01*
X204574900Y-107322853D01*
X204729772Y-107258703D01*
X204894184Y-107226000D01*
X205061816Y-107226000D01*
X205226228Y-107258703D01*
G37*
G36*
X195066228Y-107258703D02*
G01*
X195221100Y-107322853D01*
X195360481Y-107415985D01*
X195479015Y-107534519D01*
X195572147Y-107673900D01*
X195636297Y-107828772D01*
X195669000Y-107993184D01*
X195669000Y-108160816D01*
X195636297Y-108325228D01*
X195572147Y-108480100D01*
X195479015Y-108619481D01*
X195360481Y-108738015D01*
X195221100Y-108831147D01*
X195066228Y-108895297D01*
X194901816Y-108928000D01*
X194734184Y-108928000D01*
X194569772Y-108895297D01*
X194414900Y-108831147D01*
X194275519Y-108738015D01*
X194156985Y-108619481D01*
X194063853Y-108480100D01*
X193999703Y-108325228D01*
X193967000Y-108160816D01*
X193967000Y-107993184D01*
X193999703Y-107828772D01*
X194063853Y-107673900D01*
X194156985Y-107534519D01*
X194275519Y-107415985D01*
X194414900Y-107322853D01*
X194569772Y-107258703D01*
X194734184Y-107226000D01*
X194901816Y-107226000D01*
X195066228Y-107258703D01*
G37*
G36*
X192526228Y-107258703D02*
G01*
X192681100Y-107322853D01*
X192820481Y-107415985D01*
X192939015Y-107534519D01*
X193032147Y-107673900D01*
X193096297Y-107828772D01*
X193129000Y-107993184D01*
X193129000Y-108160816D01*
X193096297Y-108325228D01*
X193032147Y-108480100D01*
X192939015Y-108619481D01*
X192820481Y-108738015D01*
X192681100Y-108831147D01*
X192526228Y-108895297D01*
X192361816Y-108928000D01*
X192194184Y-108928000D01*
X192029772Y-108895297D01*
X191874900Y-108831147D01*
X191735519Y-108738015D01*
X191616985Y-108619481D01*
X191523853Y-108480100D01*
X191459703Y-108325228D01*
X191427000Y-108160816D01*
X191427000Y-107993184D01*
X191459703Y-107828772D01*
X191523853Y-107673900D01*
X191616985Y-107534519D01*
X191735519Y-107415985D01*
X191874900Y-107322853D01*
X192029772Y-107258703D01*
X192194184Y-107226000D01*
X192361816Y-107226000D01*
X192526228Y-107258703D01*
G37*
G36*
X189986228Y-107258703D02*
G01*
X190141100Y-107322853D01*
X190280481Y-107415985D01*
X190399015Y-107534519D01*
X190492147Y-107673900D01*
X190556297Y-107828772D01*
X190589000Y-107993184D01*
X190589000Y-108160816D01*
X190556297Y-108325228D01*
X190492147Y-108480100D01*
X190399015Y-108619481D01*
X190280481Y-108738015D01*
X190141100Y-108831147D01*
X189986228Y-108895297D01*
X189821816Y-108928000D01*
X189654184Y-108928000D01*
X189489772Y-108895297D01*
X189334900Y-108831147D01*
X189195519Y-108738015D01*
X189076985Y-108619481D01*
X188983853Y-108480100D01*
X188919703Y-108325228D01*
X188887000Y-108160816D01*
X188887000Y-107993184D01*
X188919703Y-107828772D01*
X188983853Y-107673900D01*
X189076985Y-107534519D01*
X189195519Y-107415985D01*
X189334900Y-107322853D01*
X189489772Y-107258703D01*
X189654184Y-107226000D01*
X189821816Y-107226000D01*
X189986228Y-107258703D01*
G37*
G36*
X187446228Y-107258703D02*
G01*
X187601100Y-107322853D01*
X187740481Y-107415985D01*
X187859015Y-107534519D01*
X187952147Y-107673900D01*
X188016297Y-107828772D01*
X188049000Y-107993184D01*
X188049000Y-108160816D01*
X188016297Y-108325228D01*
X187952147Y-108480100D01*
X187859015Y-108619481D01*
X187740481Y-108738015D01*
X187601100Y-108831147D01*
X187446228Y-108895297D01*
X187281816Y-108928000D01*
X187114184Y-108928000D01*
X186949772Y-108895297D01*
X186794900Y-108831147D01*
X186655519Y-108738015D01*
X186536985Y-108619481D01*
X186443853Y-108480100D01*
X186379703Y-108325228D01*
X186347000Y-108160816D01*
X186347000Y-107993184D01*
X186379703Y-107828772D01*
X186443853Y-107673900D01*
X186536985Y-107534519D01*
X186655519Y-107415985D01*
X186794900Y-107322853D01*
X186949772Y-107258703D01*
X187114184Y-107226000D01*
X187281816Y-107226000D01*
X187446228Y-107258703D01*
G37*
G36*
X147409000Y-108928000D02*
G01*
X145707000Y-108928000D01*
X145707000Y-107226000D01*
X147409000Y-107226000D01*
X147409000Y-108928000D01*
G37*
G36*
X159506228Y-107258703D02*
G01*
X159661100Y-107322853D01*
X159800481Y-107415985D01*
X159919015Y-107534519D01*
X160012147Y-107673900D01*
X160076297Y-107828772D01*
X160109000Y-107993184D01*
X160109000Y-108160816D01*
X160076297Y-108325228D01*
X160012147Y-108480100D01*
X159919015Y-108619481D01*
X159800481Y-108738015D01*
X159661100Y-108831147D01*
X159506228Y-108895297D01*
X159341816Y-108928000D01*
X159174184Y-108928000D01*
X159009772Y-108895297D01*
X158854900Y-108831147D01*
X158715519Y-108738015D01*
X158596985Y-108619481D01*
X158503853Y-108480100D01*
X158439703Y-108325228D01*
X158407000Y-108160816D01*
X158407000Y-107993184D01*
X158439703Y-107828772D01*
X158503853Y-107673900D01*
X158596985Y-107534519D01*
X158715519Y-107415985D01*
X158854900Y-107322853D01*
X159009772Y-107258703D01*
X159174184Y-107226000D01*
X159341816Y-107226000D01*
X159506228Y-107258703D01*
G37*
G36*
X149346228Y-107258703D02*
G01*
X149501100Y-107322853D01*
X149640481Y-107415985D01*
X149759015Y-107534519D01*
X149852147Y-107673900D01*
X149916297Y-107828772D01*
X149949000Y-107993184D01*
X149949000Y-108160816D01*
X149916297Y-108325228D01*
X149852147Y-108480100D01*
X149759015Y-108619481D01*
X149640481Y-108738015D01*
X149501100Y-108831147D01*
X149346228Y-108895297D01*
X149181816Y-108928000D01*
X149014184Y-108928000D01*
X148849772Y-108895297D01*
X148694900Y-108831147D01*
X148555519Y-108738015D01*
X148436985Y-108619481D01*
X148343853Y-108480100D01*
X148279703Y-108325228D01*
X148247000Y-108160816D01*
X148247000Y-107993184D01*
X148279703Y-107828772D01*
X148343853Y-107673900D01*
X148436985Y-107534519D01*
X148555519Y-107415985D01*
X148694900Y-107322853D01*
X148849772Y-107258703D01*
X149014184Y-107226000D01*
X149181816Y-107226000D01*
X149346228Y-107258703D01*
G37*
G36*
X151886228Y-107258703D02*
G01*
X152041100Y-107322853D01*
X152180481Y-107415985D01*
X152299015Y-107534519D01*
X152392147Y-107673900D01*
X152456297Y-107828772D01*
X152489000Y-107993184D01*
X152489000Y-108160816D01*
X152456297Y-108325228D01*
X152392147Y-108480100D01*
X152299015Y-108619481D01*
X152180481Y-108738015D01*
X152041100Y-108831147D01*
X151886228Y-108895297D01*
X151721816Y-108928000D01*
X151554184Y-108928000D01*
X151389772Y-108895297D01*
X151234900Y-108831147D01*
X151095519Y-108738015D01*
X150976985Y-108619481D01*
X150883853Y-108480100D01*
X150819703Y-108325228D01*
X150787000Y-108160816D01*
X150787000Y-107993184D01*
X150819703Y-107828772D01*
X150883853Y-107673900D01*
X150976985Y-107534519D01*
X151095519Y-107415985D01*
X151234900Y-107322853D01*
X151389772Y-107258703D01*
X151554184Y-107226000D01*
X151721816Y-107226000D01*
X151886228Y-107258703D01*
G37*
G36*
X154426228Y-107258703D02*
G01*
X154581100Y-107322853D01*
X154720481Y-107415985D01*
X154839015Y-107534519D01*
X154932147Y-107673900D01*
X154996297Y-107828772D01*
X155029000Y-107993184D01*
X155029000Y-108160816D01*
X154996297Y-108325228D01*
X154932147Y-108480100D01*
X154839015Y-108619481D01*
X154720481Y-108738015D01*
X154581100Y-108831147D01*
X154426228Y-108895297D01*
X154261816Y-108928000D01*
X154094184Y-108928000D01*
X153929772Y-108895297D01*
X153774900Y-108831147D01*
X153635519Y-108738015D01*
X153516985Y-108619481D01*
X153423853Y-108480100D01*
X153359703Y-108325228D01*
X153327000Y-108160816D01*
X153327000Y-107993184D01*
X153359703Y-107828772D01*
X153423853Y-107673900D01*
X153516985Y-107534519D01*
X153635519Y-107415985D01*
X153774900Y-107322853D01*
X153929772Y-107258703D01*
X154094184Y-107226000D01*
X154261816Y-107226000D01*
X154426228Y-107258703D01*
G37*
G36*
X156966228Y-107258703D02*
G01*
X157121100Y-107322853D01*
X157260481Y-107415985D01*
X157379015Y-107534519D01*
X157472147Y-107673900D01*
X157536297Y-107828772D01*
X157569000Y-107993184D01*
X157569000Y-108160816D01*
X157536297Y-108325228D01*
X157472147Y-108480100D01*
X157379015Y-108619481D01*
X157260481Y-108738015D01*
X157121100Y-108831147D01*
X156966228Y-108895297D01*
X156801816Y-108928000D01*
X156634184Y-108928000D01*
X156469772Y-108895297D01*
X156314900Y-108831147D01*
X156175519Y-108738015D01*
X156056985Y-108619481D01*
X155963853Y-108480100D01*
X155899703Y-108325228D01*
X155867000Y-108160816D01*
X155867000Y-107993184D01*
X155899703Y-107828772D01*
X155963853Y-107673900D01*
X156056985Y-107534519D01*
X156175519Y-107415985D01*
X156314900Y-107322853D01*
X156469772Y-107258703D01*
X156634184Y-107226000D01*
X156801816Y-107226000D01*
X156966228Y-107258703D01*
G37*
G36*
X184906228Y-107258703D02*
G01*
X185061100Y-107322853D01*
X185200481Y-107415985D01*
X185319015Y-107534519D01*
X185412147Y-107673900D01*
X185476297Y-107828772D01*
X185509000Y-107993184D01*
X185509000Y-108160816D01*
X185476297Y-108325228D01*
X185412147Y-108480100D01*
X185319015Y-108619481D01*
X185200481Y-108738015D01*
X185061100Y-108831147D01*
X184906228Y-108895297D01*
X184741816Y-108928000D01*
X184574184Y-108928000D01*
X184409772Y-108895297D01*
X184254900Y-108831147D01*
X184115519Y-108738015D01*
X183996985Y-108619481D01*
X183903853Y-108480100D01*
X183839703Y-108325228D01*
X183807000Y-108160816D01*
X183807000Y-107993184D01*
X183839703Y-107828772D01*
X183903853Y-107673900D01*
X183996985Y-107534519D01*
X184115519Y-107415985D01*
X184254900Y-107322853D01*
X184409772Y-107258703D01*
X184574184Y-107226000D01*
X184741816Y-107226000D01*
X184906228Y-107258703D01*
G37*
G36*
X209910642Y-104893781D02*
G01*
X210056414Y-104954162D01*
X210056416Y-104954163D01*
X210187608Y-105041822D01*
X210299178Y-105153392D01*
X210386837Y-105284584D01*
X210386838Y-105284586D01*
X210447219Y-105430358D01*
X210478000Y-105585107D01*
X210478000Y-105742893D01*
X210447219Y-105897642D01*
X210386838Y-106043414D01*
X210386837Y-106043416D01*
X210299178Y-106174608D01*
X210187608Y-106286178D01*
X210056416Y-106373837D01*
X210056415Y-106373838D01*
X210056414Y-106373838D01*
X209910642Y-106434219D01*
X209755893Y-106465000D01*
X209598107Y-106465000D01*
X209443358Y-106434219D01*
X209297586Y-106373838D01*
X209297585Y-106373838D01*
X209297584Y-106373837D01*
X209166392Y-106286178D01*
X209054822Y-106174608D01*
X208967163Y-106043416D01*
X208967162Y-106043414D01*
X208906781Y-105897642D01*
X208876000Y-105742893D01*
X208876000Y-105585107D01*
X208906781Y-105430358D01*
X208967162Y-105284586D01*
X208967163Y-105284584D01*
X209054822Y-105153392D01*
X209166392Y-105041822D01*
X209297584Y-104954163D01*
X209297586Y-104954162D01*
X209443358Y-104893781D01*
X209598107Y-104863000D01*
X209755893Y-104863000D01*
X209910642Y-104893781D01*
G37*
G36*
X192526228Y-92018703D02*
G01*
X192681100Y-92082853D01*
X192820481Y-92175985D01*
X192939015Y-92294519D01*
X193032147Y-92433900D01*
X193096297Y-92588772D01*
X193129000Y-92753184D01*
X193129000Y-92920816D01*
X193096297Y-93085228D01*
X193032147Y-93240100D01*
X192939015Y-93379481D01*
X192820481Y-93498015D01*
X192681100Y-93591147D01*
X192526228Y-93655297D01*
X192361816Y-93688000D01*
X192194184Y-93688000D01*
X192029772Y-93655297D01*
X191874900Y-93591147D01*
X191735519Y-93498015D01*
X191616985Y-93379481D01*
X191523853Y-93240100D01*
X191459703Y-93085228D01*
X191427000Y-92920816D01*
X191427000Y-92753184D01*
X191459703Y-92588772D01*
X191523853Y-92433900D01*
X191616985Y-92294519D01*
X191735519Y-92175985D01*
X191874900Y-92082853D01*
X192029772Y-92018703D01*
X192194184Y-91986000D01*
X192361816Y-91986000D01*
X192526228Y-92018703D01*
G37*
G36*
X195066228Y-92018703D02*
G01*
X195221100Y-92082853D01*
X195360481Y-92175985D01*
X195479015Y-92294519D01*
X195572147Y-92433900D01*
X195636297Y-92588772D01*
X195669000Y-92753184D01*
X195669000Y-92920816D01*
X195636297Y-93085228D01*
X195572147Y-93240100D01*
X195479015Y-93379481D01*
X195360481Y-93498015D01*
X195221100Y-93591147D01*
X195066228Y-93655297D01*
X194901816Y-93688000D01*
X194734184Y-93688000D01*
X194569772Y-93655297D01*
X194414900Y-93591147D01*
X194275519Y-93498015D01*
X194156985Y-93379481D01*
X194063853Y-93240100D01*
X193999703Y-93085228D01*
X193967000Y-92920816D01*
X193967000Y-92753184D01*
X193999703Y-92588772D01*
X194063853Y-92433900D01*
X194156985Y-92294519D01*
X194275519Y-92175985D01*
X194414900Y-92082853D01*
X194569772Y-92018703D01*
X194734184Y-91986000D01*
X194901816Y-91986000D01*
X195066228Y-92018703D01*
G37*
G36*
X197606228Y-92018703D02*
G01*
X197761100Y-92082853D01*
X197900481Y-92175985D01*
X198019015Y-92294519D01*
X198112147Y-92433900D01*
X198176297Y-92588772D01*
X198209000Y-92753184D01*
X198209000Y-92920816D01*
X198176297Y-93085228D01*
X198112147Y-93240100D01*
X198019015Y-93379481D01*
X197900481Y-93498015D01*
X197761100Y-93591147D01*
X197606228Y-93655297D01*
X197441816Y-93688000D01*
X197274184Y-93688000D01*
X197109772Y-93655297D01*
X196954900Y-93591147D01*
X196815519Y-93498015D01*
X196696985Y-93379481D01*
X196603853Y-93240100D01*
X196539703Y-93085228D01*
X196507000Y-92920816D01*
X196507000Y-92753184D01*
X196539703Y-92588772D01*
X196603853Y-92433900D01*
X196696985Y-92294519D01*
X196815519Y-92175985D01*
X196954900Y-92082853D01*
X197109772Y-92018703D01*
X197274184Y-91986000D01*
X197441816Y-91986000D01*
X197606228Y-92018703D01*
G37*
G36*
X200146228Y-92018703D02*
G01*
X200301100Y-92082853D01*
X200440481Y-92175985D01*
X200559015Y-92294519D01*
X200652147Y-92433900D01*
X200716297Y-92588772D01*
X200749000Y-92753184D01*
X200749000Y-92920816D01*
X200716297Y-93085228D01*
X200652147Y-93240100D01*
X200559015Y-93379481D01*
X200440481Y-93498015D01*
X200301100Y-93591147D01*
X200146228Y-93655297D01*
X199981816Y-93688000D01*
X199814184Y-93688000D01*
X199649772Y-93655297D01*
X199494900Y-93591147D01*
X199355519Y-93498015D01*
X199236985Y-93379481D01*
X199143853Y-93240100D01*
X199079703Y-93085228D01*
X199047000Y-92920816D01*
X199047000Y-92753184D01*
X199079703Y-92588772D01*
X199143853Y-92433900D01*
X199236985Y-92294519D01*
X199355519Y-92175985D01*
X199494900Y-92082853D01*
X199649772Y-92018703D01*
X199814184Y-91986000D01*
X199981816Y-91986000D01*
X200146228Y-92018703D01*
G37*
G36*
X202686228Y-92018703D02*
G01*
X202841100Y-92082853D01*
X202980481Y-92175985D01*
X203099015Y-92294519D01*
X203192147Y-92433900D01*
X203256297Y-92588772D01*
X203289000Y-92753184D01*
X203289000Y-92920816D01*
X203256297Y-93085228D01*
X203192147Y-93240100D01*
X203099015Y-93379481D01*
X202980481Y-93498015D01*
X202841100Y-93591147D01*
X202686228Y-93655297D01*
X202521816Y-93688000D01*
X202354184Y-93688000D01*
X202189772Y-93655297D01*
X202034900Y-93591147D01*
X201895519Y-93498015D01*
X201776985Y-93379481D01*
X201683853Y-93240100D01*
X201619703Y-93085228D01*
X201587000Y-92920816D01*
X201587000Y-92753184D01*
X201619703Y-92588772D01*
X201683853Y-92433900D01*
X201776985Y-92294519D01*
X201895519Y-92175985D01*
X202034900Y-92082853D01*
X202189772Y-92018703D01*
X202354184Y-91986000D01*
X202521816Y-91986000D01*
X202686228Y-92018703D01*
G37*
G36*
X205226228Y-92018703D02*
G01*
X205381100Y-92082853D01*
X205520481Y-92175985D01*
X205639015Y-92294519D01*
X205732147Y-92433900D01*
X205796297Y-92588772D01*
X205829000Y-92753184D01*
X205829000Y-92920816D01*
X205796297Y-93085228D01*
X205732147Y-93240100D01*
X205639015Y-93379481D01*
X205520481Y-93498015D01*
X205381100Y-93591147D01*
X205226228Y-93655297D01*
X205061816Y-93688000D01*
X204894184Y-93688000D01*
X204729772Y-93655297D01*
X204574900Y-93591147D01*
X204435519Y-93498015D01*
X204316985Y-93379481D01*
X204223853Y-93240100D01*
X204159703Y-93085228D01*
X204127000Y-92920816D01*
X204127000Y-92753184D01*
X204159703Y-92588772D01*
X204223853Y-92433900D01*
X204316985Y-92294519D01*
X204435519Y-92175985D01*
X204574900Y-92082853D01*
X204729772Y-92018703D01*
X204894184Y-91986000D01*
X205061816Y-91986000D01*
X205226228Y-92018703D01*
G37*
G36*
X156966228Y-92018703D02*
G01*
X157121100Y-92082853D01*
X157260481Y-92175985D01*
X157379015Y-92294519D01*
X157472147Y-92433900D01*
X157536297Y-92588772D01*
X157569000Y-92753184D01*
X157569000Y-92920816D01*
X157536297Y-93085228D01*
X157472147Y-93240100D01*
X157379015Y-93379481D01*
X157260481Y-93498015D01*
X157121100Y-93591147D01*
X156966228Y-93655297D01*
X156801816Y-93688000D01*
X156634184Y-93688000D01*
X156469772Y-93655297D01*
X156314900Y-93591147D01*
X156175519Y-93498015D01*
X156056985Y-93379481D01*
X155963853Y-93240100D01*
X155899703Y-93085228D01*
X155867000Y-92920816D01*
X155867000Y-92753184D01*
X155899703Y-92588772D01*
X155963853Y-92433900D01*
X156056985Y-92294519D01*
X156175519Y-92175985D01*
X156314900Y-92082853D01*
X156469772Y-92018703D01*
X156634184Y-91986000D01*
X156801816Y-91986000D01*
X156966228Y-92018703D01*
G37*
G36*
X151886228Y-92018703D02*
G01*
X152041100Y-92082853D01*
X152180481Y-92175985D01*
X152299015Y-92294519D01*
X152392147Y-92433900D01*
X152456297Y-92588772D01*
X152489000Y-92753184D01*
X152489000Y-92920816D01*
X152456297Y-93085228D01*
X152392147Y-93240100D01*
X152299015Y-93379481D01*
X152180481Y-93498015D01*
X152041100Y-93591147D01*
X151886228Y-93655297D01*
X151721816Y-93688000D01*
X151554184Y-93688000D01*
X151389772Y-93655297D01*
X151234900Y-93591147D01*
X151095519Y-93498015D01*
X150976985Y-93379481D01*
X150883853Y-93240100D01*
X150819703Y-93085228D01*
X150787000Y-92920816D01*
X150787000Y-92753184D01*
X150819703Y-92588772D01*
X150883853Y-92433900D01*
X150976985Y-92294519D01*
X151095519Y-92175985D01*
X151234900Y-92082853D01*
X151389772Y-92018703D01*
X151554184Y-91986000D01*
X151721816Y-91986000D01*
X151886228Y-92018703D01*
G37*
G36*
X149346228Y-92018703D02*
G01*
X149501100Y-92082853D01*
X149640481Y-92175985D01*
X149759015Y-92294519D01*
X149852147Y-92433900D01*
X149916297Y-92588772D01*
X149949000Y-92753184D01*
X149949000Y-92920816D01*
X149916297Y-93085228D01*
X149852147Y-93240100D01*
X149759015Y-93379481D01*
X149640481Y-93498015D01*
X149501100Y-93591147D01*
X149346228Y-93655297D01*
X149181816Y-93688000D01*
X149014184Y-93688000D01*
X148849772Y-93655297D01*
X148694900Y-93591147D01*
X148555519Y-93498015D01*
X148436985Y-93379481D01*
X148343853Y-93240100D01*
X148279703Y-93085228D01*
X148247000Y-92920816D01*
X148247000Y-92753184D01*
X148279703Y-92588772D01*
X148343853Y-92433900D01*
X148436985Y-92294519D01*
X148555519Y-92175985D01*
X148694900Y-92082853D01*
X148849772Y-92018703D01*
X149014184Y-91986000D01*
X149181816Y-91986000D01*
X149346228Y-92018703D01*
G37*
G36*
X159506228Y-92018703D02*
G01*
X159661100Y-92082853D01*
X159800481Y-92175985D01*
X159919015Y-92294519D01*
X160012147Y-92433900D01*
X160076297Y-92588772D01*
X160109000Y-92753184D01*
X160109000Y-92920816D01*
X160076297Y-93085228D01*
X160012147Y-93240100D01*
X159919015Y-93379481D01*
X159800481Y-93498015D01*
X159661100Y-93591147D01*
X159506228Y-93655297D01*
X159341816Y-93688000D01*
X159174184Y-93688000D01*
X159009772Y-93655297D01*
X158854900Y-93591147D01*
X158715519Y-93498015D01*
X158596985Y-93379481D01*
X158503853Y-93240100D01*
X158439703Y-93085228D01*
X158407000Y-92920816D01*
X158407000Y-92753184D01*
X158439703Y-92588772D01*
X158503853Y-92433900D01*
X158596985Y-92294519D01*
X158715519Y-92175985D01*
X158854900Y-92082853D01*
X159009772Y-92018703D01*
X159174184Y-91986000D01*
X159341816Y-91986000D01*
X159506228Y-92018703D01*
G37*
G36*
X162046228Y-92018703D02*
G01*
X162201100Y-92082853D01*
X162340481Y-92175985D01*
X162459015Y-92294519D01*
X162552147Y-92433900D01*
X162616297Y-92588772D01*
X162649000Y-92753184D01*
X162649000Y-92920816D01*
X162616297Y-93085228D01*
X162552147Y-93240100D01*
X162459015Y-93379481D01*
X162340481Y-93498015D01*
X162201100Y-93591147D01*
X162046228Y-93655297D01*
X161881816Y-93688000D01*
X161714184Y-93688000D01*
X161549772Y-93655297D01*
X161394900Y-93591147D01*
X161255519Y-93498015D01*
X161136985Y-93379481D01*
X161043853Y-93240100D01*
X160979703Y-93085228D01*
X160947000Y-92920816D01*
X160947000Y-92753184D01*
X160979703Y-92588772D01*
X161043853Y-92433900D01*
X161136985Y-92294519D01*
X161255519Y-92175985D01*
X161394900Y-92082853D01*
X161549772Y-92018703D01*
X161714184Y-91986000D01*
X161881816Y-91986000D01*
X162046228Y-92018703D01*
G37*
G36*
X154426228Y-92018703D02*
G01*
X154581100Y-92082853D01*
X154720481Y-92175985D01*
X154839015Y-92294519D01*
X154932147Y-92433900D01*
X154996297Y-92588772D01*
X155029000Y-92753184D01*
X155029000Y-92920816D01*
X154996297Y-93085228D01*
X154932147Y-93240100D01*
X154839015Y-93379481D01*
X154720481Y-93498015D01*
X154581100Y-93591147D01*
X154426228Y-93655297D01*
X154261816Y-93688000D01*
X154094184Y-93688000D01*
X153929772Y-93655297D01*
X153774900Y-93591147D01*
X153635519Y-93498015D01*
X153516985Y-93379481D01*
X153423853Y-93240100D01*
X153359703Y-93085228D01*
X153327000Y-92920816D01*
X153327000Y-92753184D01*
X153359703Y-92588772D01*
X153423853Y-92433900D01*
X153516985Y-92294519D01*
X153635519Y-92175985D01*
X153774900Y-92082853D01*
X153929772Y-92018703D01*
X154094184Y-91986000D01*
X154261816Y-91986000D01*
X154426228Y-92018703D01*
G37*
G36*
X169666228Y-92018703D02*
G01*
X169821100Y-92082853D01*
X169960481Y-92175985D01*
X170079015Y-92294519D01*
X170172147Y-92433900D01*
X170236297Y-92588772D01*
X170269000Y-92753184D01*
X170269000Y-92920816D01*
X170236297Y-93085228D01*
X170172147Y-93240100D01*
X170079015Y-93379481D01*
X169960481Y-93498015D01*
X169821100Y-93591147D01*
X169666228Y-93655297D01*
X169501816Y-93688000D01*
X169334184Y-93688000D01*
X169169772Y-93655297D01*
X169014900Y-93591147D01*
X168875519Y-93498015D01*
X168756985Y-93379481D01*
X168663853Y-93240100D01*
X168599703Y-93085228D01*
X168567000Y-92920816D01*
X168567000Y-92753184D01*
X168599703Y-92588772D01*
X168663853Y-92433900D01*
X168756985Y-92294519D01*
X168875519Y-92175985D01*
X169014900Y-92082853D01*
X169169772Y-92018703D01*
X169334184Y-91986000D01*
X169501816Y-91986000D01*
X169666228Y-92018703D01*
G37*
G36*
X167126228Y-92018703D02*
G01*
X167281100Y-92082853D01*
X167420481Y-92175985D01*
X167539015Y-92294519D01*
X167632147Y-92433900D01*
X167696297Y-92588772D01*
X167729000Y-92753184D01*
X167729000Y-92920816D01*
X167696297Y-93085228D01*
X167632147Y-93240100D01*
X167539015Y-93379481D01*
X167420481Y-93498015D01*
X167281100Y-93591147D01*
X167126228Y-93655297D01*
X166961816Y-93688000D01*
X166794184Y-93688000D01*
X166629772Y-93655297D01*
X166474900Y-93591147D01*
X166335519Y-93498015D01*
X166216985Y-93379481D01*
X166123853Y-93240100D01*
X166059703Y-93085228D01*
X166027000Y-92920816D01*
X166027000Y-92753184D01*
X166059703Y-92588772D01*
X166123853Y-92433900D01*
X166216985Y-92294519D01*
X166335519Y-92175985D01*
X166474900Y-92082853D01*
X166629772Y-92018703D01*
X166794184Y-91986000D01*
X166961816Y-91986000D01*
X167126228Y-92018703D01*
G37*
G36*
X164586228Y-92018703D02*
G01*
X164741100Y-92082853D01*
X164880481Y-92175985D01*
X164999015Y-92294519D01*
X165092147Y-92433900D01*
X165156297Y-92588772D01*
X165189000Y-92753184D01*
X165189000Y-92920816D01*
X165156297Y-93085228D01*
X165092147Y-93240100D01*
X164999015Y-93379481D01*
X164880481Y-93498015D01*
X164741100Y-93591147D01*
X164586228Y-93655297D01*
X164421816Y-93688000D01*
X164254184Y-93688000D01*
X164089772Y-93655297D01*
X163934900Y-93591147D01*
X163795519Y-93498015D01*
X163676985Y-93379481D01*
X163583853Y-93240100D01*
X163519703Y-93085228D01*
X163487000Y-92920816D01*
X163487000Y-92753184D01*
X163519703Y-92588772D01*
X163583853Y-92433900D01*
X163676985Y-92294519D01*
X163795519Y-92175985D01*
X163934900Y-92082853D01*
X164089772Y-92018703D01*
X164254184Y-91986000D01*
X164421816Y-91986000D01*
X164586228Y-92018703D01*
G37*
G36*
X189986228Y-92018703D02*
G01*
X190141100Y-92082853D01*
X190280481Y-92175985D01*
X190399015Y-92294519D01*
X190492147Y-92433900D01*
X190556297Y-92588772D01*
X190589000Y-92753184D01*
X190589000Y-92920816D01*
X190556297Y-93085228D01*
X190492147Y-93240100D01*
X190399015Y-93379481D01*
X190280481Y-93498015D01*
X190141100Y-93591147D01*
X189986228Y-93655297D01*
X189821816Y-93688000D01*
X189654184Y-93688000D01*
X189489772Y-93655297D01*
X189334900Y-93591147D01*
X189195519Y-93498015D01*
X189076985Y-93379481D01*
X188983853Y-93240100D01*
X188919703Y-93085228D01*
X188887000Y-92920816D01*
X188887000Y-92753184D01*
X188919703Y-92588772D01*
X188983853Y-92433900D01*
X189076985Y-92294519D01*
X189195519Y-92175985D01*
X189334900Y-92082853D01*
X189489772Y-92018703D01*
X189654184Y-91986000D01*
X189821816Y-91986000D01*
X189986228Y-92018703D01*
G37*
G36*
X187446228Y-92018703D02*
G01*
X187601100Y-92082853D01*
X187740481Y-92175985D01*
X187859015Y-92294519D01*
X187952147Y-92433900D01*
X188016297Y-92588772D01*
X188049000Y-92753184D01*
X188049000Y-92920816D01*
X188016297Y-93085228D01*
X187952147Y-93240100D01*
X187859015Y-93379481D01*
X187740481Y-93498015D01*
X187601100Y-93591147D01*
X187446228Y-93655297D01*
X187281816Y-93688000D01*
X187114184Y-93688000D01*
X186949772Y-93655297D01*
X186794900Y-93591147D01*
X186655519Y-93498015D01*
X186536985Y-93379481D01*
X186443853Y-93240100D01*
X186379703Y-93085228D01*
X186347000Y-92920816D01*
X186347000Y-92753184D01*
X186379703Y-92588772D01*
X186443853Y-92433900D01*
X186536985Y-92294519D01*
X186655519Y-92175985D01*
X186794900Y-92082853D01*
X186949772Y-92018703D01*
X187114184Y-91986000D01*
X187281816Y-91986000D01*
X187446228Y-92018703D01*
G37*
G36*
X184906228Y-92018703D02*
G01*
X185061100Y-92082853D01*
X185200481Y-92175985D01*
X185319015Y-92294519D01*
X185412147Y-92433900D01*
X185476297Y-92588772D01*
X185509000Y-92753184D01*
X185509000Y-92920816D01*
X185476297Y-93085228D01*
X185412147Y-93240100D01*
X185319015Y-93379481D01*
X185200481Y-93498015D01*
X185061100Y-93591147D01*
X184906228Y-93655297D01*
X184741816Y-93688000D01*
X184574184Y-93688000D01*
X184409772Y-93655297D01*
X184254900Y-93591147D01*
X184115519Y-93498015D01*
X183996985Y-93379481D01*
X183903853Y-93240100D01*
X183839703Y-93085228D01*
X183807000Y-92920816D01*
X183807000Y-92753184D01*
X183839703Y-92588772D01*
X183903853Y-92433900D01*
X183996985Y-92294519D01*
X184115519Y-92175985D01*
X184254900Y-92082853D01*
X184409772Y-92018703D01*
X184574184Y-91986000D01*
X184741816Y-91986000D01*
X184906228Y-92018703D01*
G37*
G36*
X182366228Y-92018703D02*
G01*
X182521100Y-92082853D01*
X182660481Y-92175985D01*
X182779015Y-92294519D01*
X182872147Y-92433900D01*
X182936297Y-92588772D01*
X182969000Y-92753184D01*
X182969000Y-92920816D01*
X182936297Y-93085228D01*
X182872147Y-93240100D01*
X182779015Y-93379481D01*
X182660481Y-93498015D01*
X182521100Y-93591147D01*
X182366228Y-93655297D01*
X182201816Y-93688000D01*
X182034184Y-93688000D01*
X181869772Y-93655297D01*
X181714900Y-93591147D01*
X181575519Y-93498015D01*
X181456985Y-93379481D01*
X181363853Y-93240100D01*
X181299703Y-93085228D01*
X181267000Y-92920816D01*
X181267000Y-92753184D01*
X181299703Y-92588772D01*
X181363853Y-92433900D01*
X181456985Y-92294519D01*
X181575519Y-92175985D01*
X181714900Y-92082853D01*
X181869772Y-92018703D01*
X182034184Y-91986000D01*
X182201816Y-91986000D01*
X182366228Y-92018703D01*
G37*
G36*
X146806228Y-92018703D02*
G01*
X146961100Y-92082853D01*
X147100481Y-92175985D01*
X147219015Y-92294519D01*
X147312147Y-92433900D01*
X147376297Y-92588772D01*
X147409000Y-92753184D01*
X147409000Y-92920816D01*
X147376297Y-93085228D01*
X147312147Y-93240100D01*
X147219015Y-93379481D01*
X147100481Y-93498015D01*
X146961100Y-93591147D01*
X146806228Y-93655297D01*
X146641816Y-93688000D01*
X146474184Y-93688000D01*
X146309772Y-93655297D01*
X146154900Y-93591147D01*
X146015519Y-93498015D01*
X145896985Y-93379481D01*
X145803853Y-93240100D01*
X145739703Y-93085228D01*
X145707000Y-92920816D01*
X145707000Y-92753184D01*
X145739703Y-92588772D01*
X145803853Y-92433900D01*
X145896985Y-92294519D01*
X146015519Y-92175985D01*
X146154900Y-92082853D01*
X146309772Y-92018703D01*
X146474184Y-91986000D01*
X146641816Y-91986000D01*
X146806228Y-92018703D01*
G37*
G36*
X177286228Y-92018703D02*
G01*
X177441100Y-92082853D01*
X177580481Y-92175985D01*
X177699015Y-92294519D01*
X177792147Y-92433900D01*
X177856297Y-92588772D01*
X177889000Y-92753184D01*
X177889000Y-92920816D01*
X177856297Y-93085228D01*
X177792147Y-93240100D01*
X177699015Y-93379481D01*
X177580481Y-93498015D01*
X177441100Y-93591147D01*
X177286228Y-93655297D01*
X177121816Y-93688000D01*
X176954184Y-93688000D01*
X176789772Y-93655297D01*
X176634900Y-93591147D01*
X176495519Y-93498015D01*
X176376985Y-93379481D01*
X176283853Y-93240100D01*
X176219703Y-93085228D01*
X176187000Y-92920816D01*
X176187000Y-92753184D01*
X176219703Y-92588772D01*
X176283853Y-92433900D01*
X176376985Y-92294519D01*
X176495519Y-92175985D01*
X176634900Y-92082853D01*
X176789772Y-92018703D01*
X176954184Y-91986000D01*
X177121816Y-91986000D01*
X177286228Y-92018703D01*
G37*
G36*
X174746228Y-92018703D02*
G01*
X174901100Y-92082853D01*
X175040481Y-92175985D01*
X175159015Y-92294519D01*
X175252147Y-92433900D01*
X175316297Y-92588772D01*
X175349000Y-92753184D01*
X175349000Y-92920816D01*
X175316297Y-93085228D01*
X175252147Y-93240100D01*
X175159015Y-93379481D01*
X175040481Y-93498015D01*
X174901100Y-93591147D01*
X174746228Y-93655297D01*
X174581816Y-93688000D01*
X174414184Y-93688000D01*
X174249772Y-93655297D01*
X174094900Y-93591147D01*
X173955519Y-93498015D01*
X173836985Y-93379481D01*
X173743853Y-93240100D01*
X173679703Y-93085228D01*
X173647000Y-92920816D01*
X173647000Y-92753184D01*
X173679703Y-92588772D01*
X173743853Y-92433900D01*
X173836985Y-92294519D01*
X173955519Y-92175985D01*
X174094900Y-92082853D01*
X174249772Y-92018703D01*
X174414184Y-91986000D01*
X174581816Y-91986000D01*
X174746228Y-92018703D01*
G37*
G36*
X172206228Y-92018703D02*
G01*
X172361100Y-92082853D01*
X172500481Y-92175985D01*
X172619015Y-92294519D01*
X172712147Y-92433900D01*
X172776297Y-92588772D01*
X172809000Y-92753184D01*
X172809000Y-92920816D01*
X172776297Y-93085228D01*
X172712147Y-93240100D01*
X172619015Y-93379481D01*
X172500481Y-93498015D01*
X172361100Y-93591147D01*
X172206228Y-93655297D01*
X172041816Y-93688000D01*
X171874184Y-93688000D01*
X171709772Y-93655297D01*
X171554900Y-93591147D01*
X171415519Y-93498015D01*
X171296985Y-93379481D01*
X171203853Y-93240100D01*
X171139703Y-93085228D01*
X171107000Y-92920816D01*
X171107000Y-92753184D01*
X171139703Y-92588772D01*
X171203853Y-92433900D01*
X171296985Y-92294519D01*
X171415519Y-92175985D01*
X171554900Y-92082853D01*
X171709772Y-92018703D01*
X171874184Y-91986000D01*
X172041816Y-91986000D01*
X172206228Y-92018703D01*
G37*
G36*
X179826228Y-92018703D02*
G01*
X179981100Y-92082853D01*
X180120481Y-92175985D01*
X180239015Y-92294519D01*
X180332147Y-92433900D01*
X180396297Y-92588772D01*
X180429000Y-92753184D01*
X180429000Y-92920816D01*
X180396297Y-93085228D01*
X180332147Y-93240100D01*
X180239015Y-93379481D01*
X180120481Y-93498015D01*
X179981100Y-93591147D01*
X179826228Y-93655297D01*
X179661816Y-93688000D01*
X179494184Y-93688000D01*
X179329772Y-93655297D01*
X179174900Y-93591147D01*
X179035519Y-93498015D01*
X178916985Y-93379481D01*
X178823853Y-93240100D01*
X178759703Y-93085228D01*
X178727000Y-92920816D01*
X178727000Y-92753184D01*
X178759703Y-92588772D01*
X178823853Y-92433900D01*
X178916985Y-92294519D01*
X179035519Y-92175985D01*
X179174900Y-92082853D01*
X179329772Y-92018703D01*
X179494184Y-91986000D01*
X179661816Y-91986000D01*
X179826228Y-92018703D01*
G37*
G36*
X150176000Y-89264000D02*
G01*
X148274000Y-89264000D01*
X148274000Y-85662000D01*
X150176000Y-85662000D01*
X150176000Y-89264000D01*
G37*
G36*
X146795499Y-87693445D02*
G01*
X146832995Y-87704820D01*
X146867554Y-87723292D01*
X146897847Y-87748153D01*
X146922708Y-87778446D01*
X146941180Y-87813005D01*
X146952555Y-87850501D01*
X146957000Y-87895638D01*
X146957000Y-88634362D01*
X146952555Y-88679499D01*
X146941180Y-88716995D01*
X146922708Y-88751554D01*
X146897847Y-88781847D01*
X146867554Y-88806708D01*
X146832995Y-88825180D01*
X146795499Y-88836555D01*
X146750362Y-88841000D01*
X146111638Y-88841000D01*
X146066501Y-88836555D01*
X146029005Y-88825180D01*
X145994446Y-88806708D01*
X145964153Y-88781847D01*
X145939292Y-88751554D01*
X145920820Y-88716995D01*
X145909445Y-88679499D01*
X145905000Y-88634362D01*
X145905000Y-87895638D01*
X145909445Y-87850501D01*
X145920820Y-87813005D01*
X145939292Y-87778446D01*
X145964153Y-87748153D01*
X145994446Y-87723292D01*
X146029005Y-87704820D01*
X146066501Y-87693445D01*
X146111638Y-87689000D01*
X146750362Y-87689000D01*
X146795499Y-87693445D01*
G37*
G36*
X146795499Y-85943445D02*
G01*
X146832995Y-85954820D01*
X146867554Y-85973292D01*
X146897847Y-85998153D01*
X146922708Y-86028446D01*
X146941180Y-86063005D01*
X146952555Y-86100501D01*
X146957000Y-86145638D01*
X146957000Y-86884362D01*
X146952555Y-86929499D01*
X146941180Y-86966995D01*
X146922708Y-87001554D01*
X146897847Y-87031847D01*
X146867554Y-87056708D01*
X146832995Y-87075180D01*
X146795499Y-87086555D01*
X146750362Y-87091000D01*
X146111638Y-87091000D01*
X146066501Y-87086555D01*
X146029005Y-87075180D01*
X145994446Y-87056708D01*
X145964153Y-87031847D01*
X145939292Y-87001554D01*
X145920820Y-86966995D01*
X145909445Y-86929499D01*
X145905000Y-86884362D01*
X145905000Y-86145638D01*
X145909445Y-86100501D01*
X145920820Y-86063005D01*
X145939292Y-86028446D01*
X145964153Y-85998153D01*
X145994446Y-85973292D01*
X146029005Y-85954820D01*
X146066501Y-85943445D01*
X146111638Y-85939000D01*
X146750362Y-85939000D01*
X146795499Y-85943445D01*
G37*
G36*
X204195642Y-85081781D02*
G01*
X204341414Y-85142162D01*
X204341416Y-85142163D01*
X204472608Y-85229822D01*
X204584178Y-85341392D01*
X204651845Y-85442664D01*
X204671838Y-85472586D01*
X204732219Y-85618358D01*
X204763000Y-85773107D01*
X204763000Y-85930893D01*
X204732219Y-86085642D01*
X204671838Y-86231414D01*
X204671837Y-86231416D01*
X204584178Y-86362608D01*
X204472608Y-86474178D01*
X204341416Y-86561837D01*
X204341415Y-86561838D01*
X204341414Y-86561838D01*
X204195642Y-86622219D01*
X204040893Y-86653000D01*
X203883107Y-86653000D01*
X203728358Y-86622219D01*
X203582586Y-86561838D01*
X203582585Y-86561838D01*
X203582584Y-86561837D01*
X203451392Y-86474178D01*
X203339822Y-86362608D01*
X203252163Y-86231416D01*
X203252162Y-86231414D01*
X203191781Y-86085642D01*
X203161000Y-85930893D01*
X203161000Y-85773107D01*
X203191781Y-85618358D01*
X203252162Y-85472586D01*
X203272155Y-85442664D01*
X203339822Y-85341392D01*
X203451392Y-85229822D01*
X203582584Y-85142163D01*
X203582586Y-85142162D01*
X203728358Y-85081781D01*
X203883107Y-85051000D01*
X204040893Y-85051000D01*
X204195642Y-85081781D01*
G37*
G36*
X184032512Y-84791927D02*
G01*
X184181812Y-84821624D01*
X184345784Y-84889544D01*
X184493354Y-84988147D01*
X184618853Y-85113646D01*
X184717456Y-85261216D01*
X184785376Y-85425188D01*
X184820000Y-85599259D01*
X184820000Y-85776741D01*
X184785376Y-85950812D01*
X184717456Y-86114784D01*
X184618853Y-86262354D01*
X184493354Y-86387853D01*
X184345784Y-86486456D01*
X184181812Y-86554376D01*
X184032512Y-86584073D01*
X184007742Y-86589000D01*
X183830258Y-86589000D01*
X183805488Y-86584073D01*
X183656188Y-86554376D01*
X183492216Y-86486456D01*
X183344646Y-86387853D01*
X183219147Y-86262354D01*
X183120544Y-86114784D01*
X183052624Y-85950812D01*
X183018000Y-85776741D01*
X183018000Y-85599259D01*
X183052624Y-85425188D01*
X183120544Y-85261216D01*
X183219147Y-85113646D01*
X183344646Y-84988147D01*
X183492216Y-84889544D01*
X183656188Y-84821624D01*
X183805488Y-84791927D01*
X183830258Y-84787000D01*
X184007742Y-84787000D01*
X184032512Y-84791927D01*
G37*
G36*
X191532512Y-84791927D02*
G01*
X191681812Y-84821624D01*
X191845784Y-84889544D01*
X191993354Y-84988147D01*
X192118853Y-85113646D01*
X192217456Y-85261216D01*
X192285376Y-85425188D01*
X192320000Y-85599259D01*
X192320000Y-85776741D01*
X192285376Y-85950812D01*
X192217456Y-86114784D01*
X192118853Y-86262354D01*
X191993354Y-86387853D01*
X191845784Y-86486456D01*
X191681812Y-86554376D01*
X191532512Y-86584073D01*
X191507742Y-86589000D01*
X191330258Y-86589000D01*
X191305488Y-86584073D01*
X191156188Y-86554376D01*
X190992216Y-86486456D01*
X190844646Y-86387853D01*
X190719147Y-86262354D01*
X190620544Y-86114784D01*
X190552624Y-85950812D01*
X190518000Y-85776741D01*
X190518000Y-85599259D01*
X190552624Y-85425188D01*
X190620544Y-85261216D01*
X190719147Y-85113646D01*
X190844646Y-84988147D01*
X190992216Y-84889544D01*
X191156188Y-84821624D01*
X191305488Y-84791927D01*
X191330258Y-84787000D01*
X191507742Y-84787000D01*
X191532512Y-84791927D01*
G37*
G36*
X201274642Y-84954781D02*
G01*
X201420414Y-85015162D01*
X201420416Y-85015163D01*
X201551608Y-85102822D01*
X201663178Y-85214392D01*
X201750837Y-85345584D01*
X201750838Y-85345586D01*
X201811219Y-85491358D01*
X201842000Y-85646107D01*
X201842000Y-85803893D01*
X201811219Y-85958642D01*
X201758613Y-86085643D01*
X201750837Y-86104416D01*
X201663178Y-86235608D01*
X201551608Y-86347178D01*
X201420416Y-86434837D01*
X201420415Y-86434838D01*
X201420414Y-86434838D01*
X201274642Y-86495219D01*
X201119893Y-86526000D01*
X200962107Y-86526000D01*
X200807358Y-86495219D01*
X200661586Y-86434838D01*
X200661585Y-86434838D01*
X200661584Y-86434837D01*
X200530392Y-86347178D01*
X200418822Y-86235608D01*
X200331163Y-86104416D01*
X200323387Y-86085643D01*
X200270781Y-85958642D01*
X200240000Y-85803893D01*
X200240000Y-85646107D01*
X200270781Y-85491358D01*
X200331162Y-85345586D01*
X200331163Y-85345584D01*
X200418822Y-85214392D01*
X200530392Y-85102822D01*
X200661584Y-85015163D01*
X200661586Y-85015162D01*
X200807358Y-84954781D01*
X200962107Y-84924000D01*
X201119893Y-84924000D01*
X201274642Y-84954781D01*
G37*
G36*
X155024855Y-85045140D02*
G01*
X155088618Y-85051420D01*
X155179404Y-85078960D01*
X155211336Y-85088646D01*
X155324425Y-85149094D01*
X155423554Y-85230446D01*
X155504906Y-85329575D01*
X155565354Y-85442664D01*
X155565355Y-85442668D01*
X155602580Y-85565382D01*
X155615149Y-85693000D01*
X155602580Y-85820618D01*
X155575040Y-85911404D01*
X155565354Y-85943336D01*
X155504906Y-86056425D01*
X155423554Y-86155554D01*
X155324425Y-86236906D01*
X155211336Y-86297354D01*
X155179404Y-86307040D01*
X155088618Y-86334580D01*
X155024855Y-86340860D01*
X154992974Y-86344000D01*
X154379026Y-86344000D01*
X154347145Y-86340860D01*
X154283382Y-86334580D01*
X154192596Y-86307040D01*
X154160664Y-86297354D01*
X154047575Y-86236906D01*
X153948446Y-86155554D01*
X153867094Y-86056425D01*
X153806646Y-85943336D01*
X153796960Y-85911404D01*
X153769420Y-85820618D01*
X153756851Y-85693000D01*
X153769420Y-85565382D01*
X153806645Y-85442668D01*
X153806646Y-85442664D01*
X153867094Y-85329575D01*
X153948446Y-85230446D01*
X154047575Y-85149094D01*
X154160664Y-85088646D01*
X154192596Y-85078960D01*
X154283382Y-85051420D01*
X154347145Y-85045140D01*
X154379026Y-85042000D01*
X154992974Y-85042000D01*
X155024855Y-85045140D01*
G37*
G36*
X146795499Y-83488445D02*
G01*
X146832995Y-83499820D01*
X146867554Y-83518292D01*
X146897847Y-83543153D01*
X146922708Y-83573446D01*
X146941180Y-83608005D01*
X146952555Y-83645501D01*
X146957000Y-83690638D01*
X146957000Y-84429362D01*
X146952555Y-84474499D01*
X146941180Y-84511995D01*
X146922708Y-84546554D01*
X146897847Y-84576847D01*
X146867554Y-84601708D01*
X146832995Y-84620180D01*
X146795499Y-84631555D01*
X146750362Y-84636000D01*
X146111638Y-84636000D01*
X146066501Y-84631555D01*
X146029005Y-84620180D01*
X145994446Y-84601708D01*
X145964153Y-84576847D01*
X145939292Y-84546554D01*
X145920820Y-84511995D01*
X145909445Y-84474499D01*
X145905000Y-84429362D01*
X145905000Y-83690638D01*
X145909445Y-83645501D01*
X145920820Y-83608005D01*
X145939292Y-83573446D01*
X145964153Y-83543153D01*
X145994446Y-83518292D01*
X146029005Y-83499820D01*
X146066501Y-83488445D01*
X146111638Y-83484000D01*
X146750362Y-83484000D01*
X146795499Y-83488445D01*
G37*
G36*
X155452242Y-83046404D02*
G01*
X155489337Y-83057657D01*
X155523515Y-83075925D01*
X155553481Y-83100519D01*
X155578075Y-83130485D01*
X155596343Y-83164663D01*
X155607596Y-83201758D01*
X155612000Y-83246474D01*
X155612000Y-84139526D01*
X155607596Y-84184242D01*
X155596343Y-84221337D01*
X155578075Y-84255515D01*
X155553481Y-84285481D01*
X155523515Y-84310075D01*
X155489337Y-84328343D01*
X155452242Y-84339596D01*
X155407526Y-84344000D01*
X153964474Y-84344000D01*
X153919758Y-84339596D01*
X153882663Y-84328343D01*
X153848485Y-84310075D01*
X153818519Y-84285481D01*
X153793925Y-84255515D01*
X153775657Y-84221337D01*
X153764404Y-84184242D01*
X153760000Y-84139526D01*
X153760000Y-83246474D01*
X153764404Y-83201758D01*
X153775657Y-83164663D01*
X153793925Y-83130485D01*
X153818519Y-83100519D01*
X153848485Y-83075925D01*
X153882663Y-83057657D01*
X153919758Y-83046404D01*
X153964474Y-83042000D01*
X155407526Y-83042000D01*
X155452242Y-83046404D01*
G37*
G36*
X150176000Y-84264000D02*
G01*
X148274000Y-84264000D01*
X148274000Y-80662000D01*
X150176000Y-80662000D01*
X150176000Y-84264000D01*
G37*
G36*
X204195642Y-82541781D02*
G01*
X204341414Y-82602162D01*
X204341416Y-82602163D01*
X204472608Y-82689822D01*
X204584178Y-82801392D01*
X204671837Y-82932584D01*
X204671838Y-82932586D01*
X204732219Y-83078358D01*
X204763000Y-83233107D01*
X204763000Y-83390893D01*
X204732219Y-83545642D01*
X204672159Y-83690638D01*
X204671837Y-83691416D01*
X204584178Y-83822608D01*
X204472608Y-83934178D01*
X204341416Y-84021837D01*
X204341415Y-84021838D01*
X204341414Y-84021838D01*
X204195642Y-84082219D01*
X204040893Y-84113000D01*
X203883107Y-84113000D01*
X203728358Y-84082219D01*
X203582586Y-84021838D01*
X203582585Y-84021838D01*
X203582584Y-84021837D01*
X203451392Y-83934178D01*
X203339822Y-83822608D01*
X203252163Y-83691416D01*
X203251841Y-83690638D01*
X203191781Y-83545642D01*
X203161000Y-83390893D01*
X203161000Y-83233107D01*
X203191781Y-83078358D01*
X203252162Y-82932586D01*
X203252163Y-82932584D01*
X203339822Y-82801392D01*
X203451392Y-82689822D01*
X203582584Y-82602163D01*
X203582586Y-82602162D01*
X203728358Y-82541781D01*
X203883107Y-82511000D01*
X204040893Y-82511000D01*
X204195642Y-82541781D01*
G37*
G36*
X191532512Y-82251927D02*
G01*
X191681812Y-82281624D01*
X191845784Y-82349544D01*
X191993354Y-82448147D01*
X192118853Y-82573646D01*
X192217456Y-82721216D01*
X192285376Y-82885188D01*
X192315073Y-83034488D01*
X192319682Y-83057657D01*
X192320000Y-83059259D01*
X192320000Y-83236741D01*
X192285376Y-83410812D01*
X192217456Y-83574784D01*
X192118853Y-83722354D01*
X191993354Y-83847853D01*
X191845784Y-83946456D01*
X191681812Y-84014376D01*
X191532512Y-84044073D01*
X191507742Y-84049000D01*
X191330258Y-84049000D01*
X191305488Y-84044073D01*
X191156188Y-84014376D01*
X190992216Y-83946456D01*
X190844646Y-83847853D01*
X190719147Y-83722354D01*
X190620544Y-83574784D01*
X190552624Y-83410812D01*
X190518000Y-83236741D01*
X190518000Y-83059259D01*
X190518319Y-83057657D01*
X190522927Y-83034488D01*
X190552624Y-82885188D01*
X190620544Y-82721216D01*
X190719147Y-82573646D01*
X190844646Y-82448147D01*
X190992216Y-82349544D01*
X191156188Y-82281624D01*
X191305488Y-82251927D01*
X191330258Y-82247000D01*
X191507742Y-82247000D01*
X191532512Y-82251927D01*
G37*
G36*
X184032512Y-82251927D02*
G01*
X184181812Y-82281624D01*
X184345784Y-82349544D01*
X184493354Y-82448147D01*
X184618853Y-82573646D01*
X184717456Y-82721216D01*
X184785376Y-82885188D01*
X184815073Y-83034488D01*
X184819682Y-83057657D01*
X184820000Y-83059259D01*
X184820000Y-83236741D01*
X184785376Y-83410812D01*
X184717456Y-83574784D01*
X184618853Y-83722354D01*
X184493354Y-83847853D01*
X184345784Y-83946456D01*
X184181812Y-84014376D01*
X184032512Y-84044073D01*
X184007742Y-84049000D01*
X183830258Y-84049000D01*
X183805488Y-84044073D01*
X183656188Y-84014376D01*
X183492216Y-83946456D01*
X183344646Y-83847853D01*
X183219147Y-83722354D01*
X183120544Y-83574784D01*
X183052624Y-83410812D01*
X183018000Y-83236741D01*
X183018000Y-83059259D01*
X183018319Y-83057657D01*
X183022927Y-83034488D01*
X183052624Y-82885188D01*
X183120544Y-82721216D01*
X183219147Y-82573646D01*
X183344646Y-82448147D01*
X183492216Y-82349544D01*
X183656188Y-82281624D01*
X183805488Y-82251927D01*
X183830258Y-82247000D01*
X184007742Y-82247000D01*
X184032512Y-82251927D01*
G37*
G36*
X201274642Y-82414781D02*
G01*
X201420414Y-82475162D01*
X201420416Y-82475163D01*
X201551608Y-82562822D01*
X201663178Y-82674392D01*
X201750837Y-82805584D01*
X201750838Y-82805586D01*
X201811219Y-82951358D01*
X201842000Y-83106107D01*
X201842000Y-83263893D01*
X201811219Y-83418642D01*
X201758613Y-83545643D01*
X201750837Y-83564416D01*
X201663178Y-83695608D01*
X201551608Y-83807178D01*
X201420416Y-83894837D01*
X201420415Y-83894838D01*
X201420414Y-83894838D01*
X201274642Y-83955219D01*
X201119893Y-83986000D01*
X200962107Y-83986000D01*
X200807358Y-83955219D01*
X200661586Y-83894838D01*
X200661585Y-83894838D01*
X200661584Y-83894837D01*
X200530392Y-83807178D01*
X200418822Y-83695608D01*
X200331163Y-83564416D01*
X200323387Y-83545643D01*
X200270781Y-83418642D01*
X200240000Y-83263893D01*
X200240000Y-83106107D01*
X200270781Y-82951358D01*
X200331162Y-82805586D01*
X200331163Y-82805584D01*
X200418822Y-82674392D01*
X200530392Y-82562822D01*
X200661584Y-82475163D01*
X200661586Y-82475162D01*
X200807358Y-82414781D01*
X200962107Y-82384000D01*
X201119893Y-82384000D01*
X201274642Y-82414781D01*
G37*
G36*
X146795499Y-81738445D02*
G01*
X146832995Y-81749820D01*
X146867554Y-81768292D01*
X146897847Y-81793153D01*
X146922708Y-81823446D01*
X146941180Y-81858005D01*
X146952555Y-81895501D01*
X146957000Y-81940638D01*
X146957000Y-82679362D01*
X146952555Y-82724499D01*
X146941180Y-82761995D01*
X146922708Y-82796554D01*
X146897847Y-82826847D01*
X146867554Y-82851708D01*
X146832995Y-82870180D01*
X146795499Y-82881555D01*
X146750362Y-82886000D01*
X146111638Y-82886000D01*
X146066501Y-82881555D01*
X146029005Y-82870180D01*
X145994446Y-82851708D01*
X145964153Y-82826847D01*
X145939292Y-82796554D01*
X145920820Y-82761995D01*
X145909445Y-82724499D01*
X145905000Y-82679362D01*
X145905000Y-81940638D01*
X145909445Y-81895501D01*
X145920820Y-81858005D01*
X145939292Y-81823446D01*
X145964153Y-81793153D01*
X145994446Y-81768292D01*
X146029005Y-81749820D01*
X146066501Y-81738445D01*
X146111638Y-81734000D01*
X146750362Y-81734000D01*
X146795499Y-81738445D01*
G37*
G36*
X204195642Y-80001781D02*
G01*
X204341414Y-80062162D01*
X204341416Y-80062163D01*
X204472608Y-80149822D01*
X204584178Y-80261392D01*
X204671837Y-80392584D01*
X204671838Y-80392586D01*
X204732219Y-80538358D01*
X204763000Y-80693107D01*
X204763000Y-80850893D01*
X204732219Y-81005642D01*
X204671838Y-81151414D01*
X204671837Y-81151416D01*
X204584178Y-81282608D01*
X204472608Y-81394178D01*
X204341416Y-81481837D01*
X204341415Y-81481838D01*
X204341414Y-81481838D01*
X204195642Y-81542219D01*
X204040893Y-81573000D01*
X203883107Y-81573000D01*
X203728358Y-81542219D01*
X203582586Y-81481838D01*
X203582585Y-81481838D01*
X203582584Y-81481837D01*
X203451392Y-81394178D01*
X203339822Y-81282608D01*
X203252163Y-81151416D01*
X203252162Y-81151414D01*
X203191781Y-81005642D01*
X203161000Y-80850893D01*
X203161000Y-80693107D01*
X203191781Y-80538358D01*
X203252162Y-80392586D01*
X203252163Y-80392584D01*
X203339822Y-80261392D01*
X203451392Y-80149822D01*
X203582584Y-80062163D01*
X203582586Y-80062162D01*
X203728358Y-80001781D01*
X203883107Y-79971000D01*
X204040893Y-79971000D01*
X204195642Y-80001781D01*
G37*
G36*
X184032512Y-79711927D02*
G01*
X184181812Y-79741624D01*
X184345784Y-79809544D01*
X184493354Y-79908147D01*
X184618853Y-80033646D01*
X184717456Y-80181216D01*
X184785376Y-80345188D01*
X184820000Y-80519259D01*
X184820000Y-80696741D01*
X184785376Y-80870812D01*
X184717456Y-81034784D01*
X184618853Y-81182354D01*
X184493354Y-81307853D01*
X184345784Y-81406456D01*
X184181812Y-81474376D01*
X184032512Y-81504073D01*
X184007742Y-81509000D01*
X183830258Y-81509000D01*
X183805488Y-81504073D01*
X183656188Y-81474376D01*
X183492216Y-81406456D01*
X183344646Y-81307853D01*
X183219147Y-81182354D01*
X183120544Y-81034784D01*
X183052624Y-80870812D01*
X183018000Y-80696741D01*
X183018000Y-80519259D01*
X183052624Y-80345188D01*
X183120544Y-80181216D01*
X183219147Y-80033646D01*
X183344646Y-79908147D01*
X183492216Y-79809544D01*
X183656188Y-79741624D01*
X183805488Y-79711927D01*
X183830258Y-79707000D01*
X184007742Y-79707000D01*
X184032512Y-79711927D01*
G37*
G36*
X191532512Y-79711927D02*
G01*
X191681812Y-79741624D01*
X191845784Y-79809544D01*
X191993354Y-79908147D01*
X192118853Y-80033646D01*
X192217456Y-80181216D01*
X192285376Y-80345188D01*
X192320000Y-80519259D01*
X192320000Y-80696741D01*
X192285376Y-80870812D01*
X192217456Y-81034784D01*
X192118853Y-81182354D01*
X191993354Y-81307853D01*
X191845784Y-81406456D01*
X191681812Y-81474376D01*
X191532512Y-81504073D01*
X191507742Y-81509000D01*
X191330258Y-81509000D01*
X191305488Y-81504073D01*
X191156188Y-81474376D01*
X190992216Y-81406456D01*
X190844646Y-81307853D01*
X190719147Y-81182354D01*
X190620544Y-81034784D01*
X190552624Y-80870812D01*
X190518000Y-80696741D01*
X190518000Y-80519259D01*
X190552624Y-80345188D01*
X190620544Y-80181216D01*
X190719147Y-80033646D01*
X190844646Y-79908147D01*
X190992216Y-79809544D01*
X191156188Y-79741624D01*
X191305488Y-79711927D01*
X191330258Y-79707000D01*
X191507742Y-79707000D01*
X191532512Y-79711927D01*
G37*
G36*
X201274642Y-79874781D02*
G01*
X201420414Y-79935162D01*
X201420416Y-79935163D01*
X201551608Y-80022822D01*
X201663178Y-80134392D01*
X201750837Y-80265584D01*
X201750838Y-80265586D01*
X201811219Y-80411358D01*
X201842000Y-80566107D01*
X201842000Y-80723893D01*
X201811219Y-80878642D01*
X201758613Y-81005643D01*
X201750837Y-81024416D01*
X201663178Y-81155608D01*
X201551608Y-81267178D01*
X201420416Y-81354837D01*
X201420415Y-81354838D01*
X201420414Y-81354838D01*
X201274642Y-81415219D01*
X201119893Y-81446000D01*
X200962107Y-81446000D01*
X200807358Y-81415219D01*
X200661586Y-81354838D01*
X200661585Y-81354838D01*
X200661584Y-81354837D01*
X200530392Y-81267178D01*
X200418822Y-81155608D01*
X200331163Y-81024416D01*
X200323387Y-81005643D01*
X200270781Y-80878642D01*
X200240000Y-80723893D01*
X200240000Y-80566107D01*
X200270781Y-80411358D01*
X200331162Y-80265586D01*
X200331163Y-80265584D01*
X200418822Y-80134392D01*
X200530392Y-80022822D01*
X200661584Y-79935163D01*
X200661586Y-79935162D01*
X200807358Y-79874781D01*
X200962107Y-79844000D01*
X201119893Y-79844000D01*
X201274642Y-79874781D01*
G37*
G36*
X168025242Y-79744404D02*
G01*
X168062337Y-79755657D01*
X168096515Y-79773925D01*
X168126481Y-79798519D01*
X168151075Y-79828485D01*
X168169343Y-79862663D01*
X168180596Y-79899758D01*
X168185000Y-79944474D01*
X168185000Y-80837526D01*
X168180596Y-80882242D01*
X168169343Y-80919337D01*
X168151075Y-80953515D01*
X168126481Y-80983481D01*
X168096515Y-81008075D01*
X168062337Y-81026343D01*
X168025242Y-81037596D01*
X167980526Y-81042000D01*
X166537474Y-81042000D01*
X166492758Y-81037596D01*
X166455663Y-81026343D01*
X166421485Y-81008075D01*
X166391519Y-80983481D01*
X166366925Y-80953515D01*
X166348657Y-80919337D01*
X166337404Y-80882242D01*
X166333000Y-80837526D01*
X166333000Y-79944474D01*
X166337404Y-79899758D01*
X166348657Y-79862663D01*
X166366925Y-79828485D01*
X166391519Y-79798519D01*
X166421485Y-79773925D01*
X166455663Y-79755657D01*
X166492758Y-79744404D01*
X166537474Y-79740000D01*
X167980526Y-79740000D01*
X168025242Y-79744404D01*
G37*
G36*
X163301642Y-77715781D02*
G01*
X163382853Y-77749420D01*
X163447416Y-77776163D01*
X163578608Y-77863822D01*
X163690178Y-77975392D01*
X163770765Y-78096000D01*
X163777838Y-78106586D01*
X163838219Y-78252358D01*
X163869000Y-78407107D01*
X163869000Y-78564893D01*
X163838219Y-78719642D01*
X163782492Y-78854178D01*
X163777837Y-78865416D01*
X163690178Y-78996608D01*
X163578608Y-79108178D01*
X163447416Y-79195837D01*
X163447415Y-79195838D01*
X163447414Y-79195838D01*
X163301642Y-79256219D01*
X163146893Y-79287000D01*
X162989107Y-79287000D01*
X162834358Y-79256219D01*
X162688586Y-79195838D01*
X162688585Y-79195838D01*
X162688584Y-79195837D01*
X162557392Y-79108178D01*
X162445822Y-78996608D01*
X162358163Y-78865416D01*
X162353508Y-78854178D01*
X162297781Y-78719642D01*
X162267000Y-78564893D01*
X162267000Y-78407107D01*
X162297781Y-78252358D01*
X162358162Y-78106586D01*
X162365235Y-78096000D01*
X162445822Y-77975392D01*
X162557392Y-77863822D01*
X162688584Y-77776163D01*
X162753147Y-77749420D01*
X162834358Y-77715781D01*
X162989107Y-77685000D01*
X163146893Y-77685000D01*
X163301642Y-77715781D01*
G37*
G36*
X167597855Y-77743140D02*
G01*
X167661618Y-77749420D01*
X167749774Y-77776162D01*
X167784336Y-77786646D01*
X167897425Y-77847094D01*
X167996554Y-77928446D01*
X168077906Y-78027575D01*
X168138354Y-78140664D01*
X168138355Y-78140668D01*
X168175580Y-78263382D01*
X168188149Y-78391000D01*
X168175580Y-78518618D01*
X168148040Y-78609404D01*
X168138354Y-78641336D01*
X168077906Y-78754425D01*
X167996554Y-78853554D01*
X167897425Y-78934906D01*
X167784336Y-78995354D01*
X167752404Y-79005040D01*
X167661618Y-79032580D01*
X167597855Y-79038860D01*
X167565974Y-79042000D01*
X166952026Y-79042000D01*
X166920145Y-79038860D01*
X166856382Y-79032580D01*
X166765596Y-79005040D01*
X166733664Y-78995354D01*
X166620575Y-78934906D01*
X166521446Y-78853554D01*
X166440094Y-78754425D01*
X166379646Y-78641336D01*
X166369960Y-78609404D01*
X166342420Y-78518618D01*
X166329851Y-78391000D01*
X166342420Y-78263382D01*
X166379645Y-78140668D01*
X166379646Y-78140664D01*
X166440094Y-78027575D01*
X166521446Y-77928446D01*
X166620575Y-77847094D01*
X166733664Y-77786646D01*
X166768226Y-77776162D01*
X166856382Y-77749420D01*
X166920145Y-77743140D01*
X166952026Y-77740000D01*
X167565974Y-77740000D01*
X167597855Y-77743140D01*
G37*
G36*
X204195642Y-77461781D02*
G01*
X204341414Y-77522162D01*
X204341416Y-77522163D01*
X204472608Y-77609822D01*
X204584178Y-77721392D01*
X204668169Y-77847095D01*
X204671838Y-77852586D01*
X204732219Y-77998358D01*
X204763000Y-78153107D01*
X204763000Y-78310893D01*
X204732219Y-78465642D01*
X204671838Y-78611414D01*
X204671837Y-78611416D01*
X204584178Y-78742608D01*
X204472608Y-78854178D01*
X204341416Y-78941837D01*
X204341415Y-78941838D01*
X204341414Y-78941838D01*
X204195642Y-79002219D01*
X204040893Y-79033000D01*
X203883107Y-79033000D01*
X203728358Y-79002219D01*
X203582586Y-78941838D01*
X203582585Y-78941838D01*
X203582584Y-78941837D01*
X203451392Y-78854178D01*
X203339822Y-78742608D01*
X203252163Y-78611416D01*
X203252162Y-78611414D01*
X203191781Y-78465642D01*
X203161000Y-78310893D01*
X203161000Y-78153107D01*
X203191781Y-77998358D01*
X203252162Y-77852586D01*
X203255831Y-77847095D01*
X203339822Y-77721392D01*
X203451392Y-77609822D01*
X203582584Y-77522163D01*
X203582586Y-77522162D01*
X203728358Y-77461781D01*
X203883107Y-77431000D01*
X204040893Y-77431000D01*
X204195642Y-77461781D01*
G37*
G36*
X184032512Y-77171927D02*
G01*
X184181812Y-77201624D01*
X184345784Y-77269544D01*
X184493354Y-77368147D01*
X184618853Y-77493646D01*
X184717456Y-77641216D01*
X184785376Y-77805188D01*
X184820000Y-77979259D01*
X184820000Y-78156741D01*
X184785376Y-78330812D01*
X184717456Y-78494784D01*
X184618853Y-78642354D01*
X184493354Y-78767853D01*
X184345784Y-78866456D01*
X184181812Y-78934376D01*
X184032512Y-78964073D01*
X184007742Y-78969000D01*
X183830258Y-78969000D01*
X183805488Y-78964073D01*
X183656188Y-78934376D01*
X183492216Y-78866456D01*
X183344646Y-78767853D01*
X183219147Y-78642354D01*
X183120544Y-78494784D01*
X183052624Y-78330812D01*
X183018000Y-78156741D01*
X183018000Y-77979259D01*
X183052624Y-77805188D01*
X183120544Y-77641216D01*
X183219147Y-77493646D01*
X183344646Y-77368147D01*
X183492216Y-77269544D01*
X183656188Y-77201624D01*
X183805488Y-77171927D01*
X183830258Y-77167000D01*
X184007742Y-77167000D01*
X184032512Y-77171927D01*
G37*
G36*
X191532512Y-77171927D02*
G01*
X191681812Y-77201624D01*
X191845784Y-77269544D01*
X191993354Y-77368147D01*
X192118853Y-77493646D01*
X192217456Y-77641216D01*
X192285376Y-77805188D01*
X192320000Y-77979259D01*
X192320000Y-78156741D01*
X192285376Y-78330812D01*
X192217456Y-78494784D01*
X192118853Y-78642354D01*
X191993354Y-78767853D01*
X191845784Y-78866456D01*
X191681812Y-78934376D01*
X191532512Y-78964073D01*
X191507742Y-78969000D01*
X191330258Y-78969000D01*
X191305488Y-78964073D01*
X191156188Y-78934376D01*
X190992216Y-78866456D01*
X190844646Y-78767853D01*
X190719147Y-78642354D01*
X190620544Y-78494784D01*
X190552624Y-78330812D01*
X190518000Y-78156741D01*
X190518000Y-77979259D01*
X190552624Y-77805188D01*
X190620544Y-77641216D01*
X190719147Y-77493646D01*
X190844646Y-77368147D01*
X190992216Y-77269544D01*
X191156188Y-77201624D01*
X191305488Y-77171927D01*
X191330258Y-77167000D01*
X191507742Y-77167000D01*
X191532512Y-77171927D01*
G37*
G36*
X201274642Y-77334781D02*
G01*
X201420414Y-77395162D01*
X201420416Y-77395163D01*
X201551608Y-77482822D01*
X201663178Y-77594392D01*
X201750837Y-77725584D01*
X201750838Y-77725586D01*
X201811219Y-77871358D01*
X201842000Y-78026107D01*
X201842000Y-78183893D01*
X201811219Y-78338642D01*
X201758613Y-78465643D01*
X201750837Y-78484416D01*
X201663178Y-78615608D01*
X201551608Y-78727178D01*
X201420416Y-78814837D01*
X201420415Y-78814838D01*
X201420414Y-78814838D01*
X201274642Y-78875219D01*
X201119893Y-78906000D01*
X200962107Y-78906000D01*
X200807358Y-78875219D01*
X200661586Y-78814838D01*
X200661585Y-78814838D01*
X200661584Y-78814837D01*
X200530392Y-78727178D01*
X200418822Y-78615608D01*
X200331163Y-78484416D01*
X200323387Y-78465643D01*
X200270781Y-78338642D01*
X200240000Y-78183893D01*
X200240000Y-78026107D01*
X200270781Y-77871358D01*
X200331162Y-77725586D01*
X200331163Y-77725584D01*
X200418822Y-77594392D01*
X200530392Y-77482822D01*
X200661584Y-77395163D01*
X200661586Y-77395162D01*
X200807358Y-77334781D01*
X200962107Y-77304000D01*
X201119893Y-77304000D01*
X201274642Y-77334781D01*
G37*
G36*
X145208499Y-77837445D02*
G01*
X145245995Y-77848820D01*
X145280554Y-77867292D01*
X145310847Y-77892153D01*
X145335708Y-77922446D01*
X145354180Y-77957005D01*
X145365555Y-77994501D01*
X145370000Y-78039638D01*
X145370000Y-78678362D01*
X145365555Y-78723499D01*
X145354180Y-78760995D01*
X145335708Y-78795554D01*
X145310847Y-78825847D01*
X145280554Y-78850708D01*
X145245995Y-78869180D01*
X145208499Y-78880555D01*
X145163362Y-78885000D01*
X144424638Y-78885000D01*
X144379501Y-78880555D01*
X144342005Y-78869180D01*
X144307446Y-78850708D01*
X144277153Y-78825847D01*
X144252292Y-78795554D01*
X144233820Y-78760995D01*
X144222445Y-78723499D01*
X144218000Y-78678362D01*
X144218000Y-78039638D01*
X144222445Y-77994501D01*
X144233820Y-77957005D01*
X144252292Y-77922446D01*
X144277153Y-77892153D01*
X144307446Y-77867292D01*
X144342005Y-77848820D01*
X144379501Y-77837445D01*
X144424638Y-77833000D01*
X145163362Y-77833000D01*
X145208499Y-77837445D01*
G37*
G36*
X151403499Y-77837445D02*
G01*
X151440995Y-77848820D01*
X151475554Y-77867292D01*
X151505847Y-77892153D01*
X151530708Y-77922446D01*
X151549180Y-77957005D01*
X151560555Y-77994501D01*
X151565000Y-78039638D01*
X151565000Y-78678362D01*
X151560555Y-78723499D01*
X151549180Y-78760995D01*
X151530708Y-78795554D01*
X151505847Y-78825847D01*
X151475554Y-78850708D01*
X151440995Y-78869180D01*
X151403499Y-78880555D01*
X151358362Y-78885000D01*
X150619638Y-78885000D01*
X150574501Y-78880555D01*
X150537005Y-78869180D01*
X150502446Y-78850708D01*
X150472153Y-78825847D01*
X150447292Y-78795554D01*
X150428820Y-78760995D01*
X150417445Y-78723499D01*
X150413000Y-78678362D01*
X150413000Y-78039638D01*
X150417445Y-77994501D01*
X150428820Y-77957005D01*
X150447292Y-77922446D01*
X150472153Y-77892153D01*
X150502446Y-77867292D01*
X150537005Y-77848820D01*
X150574501Y-77837445D01*
X150619638Y-77833000D01*
X151358362Y-77833000D01*
X151403499Y-77837445D01*
G37*
G36*
X149653499Y-77837445D02*
G01*
X149690995Y-77848820D01*
X149725554Y-77867292D01*
X149755847Y-77892153D01*
X149780708Y-77922446D01*
X149799180Y-77957005D01*
X149810555Y-77994501D01*
X149815000Y-78039638D01*
X149815000Y-78678362D01*
X149810555Y-78723499D01*
X149799180Y-78760995D01*
X149780708Y-78795554D01*
X149755847Y-78825847D01*
X149725554Y-78850708D01*
X149690995Y-78869180D01*
X149653499Y-78880555D01*
X149608362Y-78885000D01*
X148869638Y-78885000D01*
X148824501Y-78880555D01*
X148787005Y-78869180D01*
X148752446Y-78850708D01*
X148722153Y-78825847D01*
X148697292Y-78795554D01*
X148678820Y-78760995D01*
X148667445Y-78723499D01*
X148663000Y-78678362D01*
X148663000Y-78039638D01*
X148667445Y-77994501D01*
X148678820Y-77957005D01*
X148697292Y-77922446D01*
X148722153Y-77892153D01*
X148752446Y-77867292D01*
X148787005Y-77848820D01*
X148824501Y-77837445D01*
X148869638Y-77833000D01*
X149608362Y-77833000D01*
X149653499Y-77837445D01*
G37*
G36*
X146958499Y-77837445D02*
G01*
X146995995Y-77848820D01*
X147030554Y-77867292D01*
X147060847Y-77892153D01*
X147085708Y-77922446D01*
X147104180Y-77957005D01*
X147115555Y-77994501D01*
X147120000Y-78039638D01*
X147120000Y-78678362D01*
X147115555Y-78723499D01*
X147104180Y-78760995D01*
X147085708Y-78795554D01*
X147060847Y-78825847D01*
X147030554Y-78850708D01*
X146995995Y-78869180D01*
X146958499Y-78880555D01*
X146913362Y-78885000D01*
X146174638Y-78885000D01*
X146129501Y-78880555D01*
X146092005Y-78869180D01*
X146057446Y-78850708D01*
X146027153Y-78825847D01*
X146002292Y-78795554D01*
X145983820Y-78760995D01*
X145972445Y-78723499D01*
X145968000Y-78678362D01*
X145968000Y-78039638D01*
X145972445Y-77994501D01*
X145983820Y-77957005D01*
X146002292Y-77922446D01*
X146027153Y-77892153D01*
X146057446Y-77867292D01*
X146092005Y-77848820D01*
X146129501Y-77837445D01*
X146174638Y-77833000D01*
X146913362Y-77833000D01*
X146958499Y-77837445D01*
G37*
G36*
X167597855Y-75743140D02*
G01*
X167661618Y-75749420D01*
X167752404Y-75776960D01*
X167784336Y-75786646D01*
X167897425Y-75847094D01*
X167996554Y-75928446D01*
X168077906Y-76027575D01*
X168138354Y-76140664D01*
X168138355Y-76140668D01*
X168175580Y-76263382D01*
X168188149Y-76391000D01*
X168175580Y-76518618D01*
X168148040Y-76609404D01*
X168138354Y-76641336D01*
X168077906Y-76754425D01*
X167996554Y-76853554D01*
X167897425Y-76934906D01*
X167784336Y-76995354D01*
X167752404Y-77005040D01*
X167661618Y-77032580D01*
X167597855Y-77038860D01*
X167565974Y-77042000D01*
X166952026Y-77042000D01*
X166920145Y-77038860D01*
X166856382Y-77032580D01*
X166765596Y-77005040D01*
X166733664Y-76995354D01*
X166620575Y-76934906D01*
X166521446Y-76853554D01*
X166440094Y-76754425D01*
X166379646Y-76641336D01*
X166369960Y-76609404D01*
X166342420Y-76518618D01*
X166329851Y-76391000D01*
X166342420Y-76263382D01*
X166379645Y-76140668D01*
X166379646Y-76140664D01*
X166440094Y-76027575D01*
X166521446Y-75928446D01*
X166620575Y-75847094D01*
X166733664Y-75786646D01*
X166765596Y-75776960D01*
X166856382Y-75749420D01*
X166920145Y-75743140D01*
X166952026Y-75740000D01*
X167565974Y-75740000D01*
X167597855Y-75743140D01*
G37*
G36*
X204195642Y-74921781D02*
G01*
X204341414Y-74982162D01*
X204341416Y-74982163D01*
X204472608Y-75069822D01*
X204584178Y-75181392D01*
X204671837Y-75312584D01*
X204671838Y-75312586D01*
X204732219Y-75458358D01*
X204763000Y-75613107D01*
X204763000Y-75770893D01*
X204732219Y-75925642D01*
X204676492Y-76060178D01*
X204671837Y-76071416D01*
X204584178Y-76202608D01*
X204472608Y-76314178D01*
X204341416Y-76401837D01*
X204341415Y-76401838D01*
X204341414Y-76401838D01*
X204195642Y-76462219D01*
X204040893Y-76493000D01*
X203883107Y-76493000D01*
X203728358Y-76462219D01*
X203582586Y-76401838D01*
X203582585Y-76401838D01*
X203582584Y-76401837D01*
X203451392Y-76314178D01*
X203339822Y-76202608D01*
X203252163Y-76071416D01*
X203247508Y-76060178D01*
X203191781Y-75925642D01*
X203161000Y-75770893D01*
X203161000Y-75613107D01*
X203191781Y-75458358D01*
X203252162Y-75312586D01*
X203252163Y-75312584D01*
X203339822Y-75181392D01*
X203451392Y-75069822D01*
X203582584Y-74982163D01*
X203582586Y-74982162D01*
X203728358Y-74921781D01*
X203883107Y-74891000D01*
X204040893Y-74891000D01*
X204195642Y-74921781D01*
G37*
G36*
X191532512Y-74631927D02*
G01*
X191681812Y-74661624D01*
X191845784Y-74729544D01*
X191993354Y-74828147D01*
X192118853Y-74953646D01*
X192217456Y-75101216D01*
X192285376Y-75265188D01*
X192320000Y-75439259D01*
X192320000Y-75616741D01*
X192285376Y-75790812D01*
X192217456Y-75954784D01*
X192118853Y-76102354D01*
X191993354Y-76227853D01*
X191845784Y-76326456D01*
X191681812Y-76394376D01*
X191532512Y-76424073D01*
X191507742Y-76429000D01*
X191330258Y-76429000D01*
X191305488Y-76424073D01*
X191156188Y-76394376D01*
X190992216Y-76326456D01*
X190844646Y-76227853D01*
X190719147Y-76102354D01*
X190620544Y-75954784D01*
X190552624Y-75790812D01*
X190518000Y-75616741D01*
X190518000Y-75439259D01*
X190552624Y-75265188D01*
X190620544Y-75101216D01*
X190719147Y-74953646D01*
X190844646Y-74828147D01*
X190992216Y-74729544D01*
X191156188Y-74661624D01*
X191305488Y-74631927D01*
X191330258Y-74627000D01*
X191507742Y-74627000D01*
X191532512Y-74631927D01*
G37*
G36*
X184820000Y-76429000D02*
G01*
X183018000Y-76429000D01*
X183018000Y-74627000D01*
X184820000Y-74627000D01*
X184820000Y-76429000D01*
G37*
G36*
X201274642Y-74667781D02*
G01*
X201420414Y-74728162D01*
X201420416Y-74728163D01*
X201551608Y-74815822D01*
X201663178Y-74927392D01*
X201739756Y-75042000D01*
X201750838Y-75058586D01*
X201811219Y-75204358D01*
X201842000Y-75359107D01*
X201842000Y-75516893D01*
X201811219Y-75671642D01*
X201761857Y-75790811D01*
X201750837Y-75817416D01*
X201663178Y-75948608D01*
X201551608Y-76060178D01*
X201420416Y-76147837D01*
X201420415Y-76147838D01*
X201420414Y-76147838D01*
X201274642Y-76208219D01*
X201119893Y-76239000D01*
X200962107Y-76239000D01*
X200807358Y-76208219D01*
X200661586Y-76147838D01*
X200661585Y-76147838D01*
X200661584Y-76147837D01*
X200530392Y-76060178D01*
X200418822Y-75948608D01*
X200331163Y-75817416D01*
X200320143Y-75790811D01*
X200270781Y-75671642D01*
X200240000Y-75516893D01*
X200240000Y-75359107D01*
X200270781Y-75204358D01*
X200331162Y-75058586D01*
X200342244Y-75042000D01*
X200418822Y-74927392D01*
X200530392Y-74815822D01*
X200661584Y-74728163D01*
X200661586Y-74728162D01*
X200807358Y-74667781D01*
X200962107Y-74637000D01*
X201119893Y-74637000D01*
X201274642Y-74667781D01*
G37*
G36*
X163428642Y-74032781D02*
G01*
X163574414Y-74093162D01*
X163574416Y-74093163D01*
X163705608Y-74180822D01*
X163817178Y-74292392D01*
X163883065Y-74391000D01*
X163904838Y-74423586D01*
X163965219Y-74569358D01*
X163996000Y-74724107D01*
X163996000Y-74881893D01*
X163965219Y-75036642D01*
X163905261Y-75181392D01*
X163904837Y-75182416D01*
X163817178Y-75313608D01*
X163705608Y-75425178D01*
X163574416Y-75512837D01*
X163574415Y-75512838D01*
X163574414Y-75512838D01*
X163428642Y-75573219D01*
X163273893Y-75604000D01*
X163116107Y-75604000D01*
X162961358Y-75573219D01*
X162815586Y-75512838D01*
X162815585Y-75512838D01*
X162815584Y-75512837D01*
X162684392Y-75425178D01*
X162572822Y-75313608D01*
X162485163Y-75182416D01*
X162484739Y-75181392D01*
X162424781Y-75036642D01*
X162394000Y-74881893D01*
X162394000Y-74724107D01*
X162424781Y-74569358D01*
X162485162Y-74423586D01*
X162506935Y-74391000D01*
X162572822Y-74292392D01*
X162684392Y-74180822D01*
X162815584Y-74093163D01*
X162815586Y-74093162D01*
X162961358Y-74032781D01*
X163116107Y-74002000D01*
X163273893Y-74002000D01*
X163428642Y-74032781D01*
G37*
G36*
X167597855Y-73743140D02*
G01*
X167661618Y-73749420D01*
X167752404Y-73776960D01*
X167784336Y-73786646D01*
X167897425Y-73847094D01*
X167996554Y-73928446D01*
X168077906Y-74027575D01*
X168138354Y-74140664D01*
X168138355Y-74140668D01*
X168175580Y-74263382D01*
X168188149Y-74391000D01*
X168175580Y-74518618D01*
X168160188Y-74569357D01*
X168138354Y-74641336D01*
X168077906Y-74754425D01*
X167996554Y-74853554D01*
X167897425Y-74934906D01*
X167784336Y-74995354D01*
X167752404Y-75005040D01*
X167661618Y-75032580D01*
X167597855Y-75038860D01*
X167565974Y-75042000D01*
X166952026Y-75042000D01*
X166920145Y-75038860D01*
X166856382Y-75032580D01*
X166765596Y-75005040D01*
X166733664Y-74995354D01*
X166620575Y-74934906D01*
X166521446Y-74853554D01*
X166440094Y-74754425D01*
X166379646Y-74641336D01*
X166357812Y-74569357D01*
X166342420Y-74518618D01*
X166329851Y-74391000D01*
X166342420Y-74263382D01*
X166379645Y-74140668D01*
X166379646Y-74140664D01*
X166440094Y-74027575D01*
X166521446Y-73928446D01*
X166620575Y-73847094D01*
X166733664Y-73786646D01*
X166765596Y-73776960D01*
X166856382Y-73749420D01*
X166920145Y-73743140D01*
X166952026Y-73740000D01*
X167565974Y-73740000D01*
X167597855Y-73743140D01*
G37*
G36*
X145267642Y-71619781D02*
G01*
X145413414Y-71680162D01*
X145413416Y-71680163D01*
X145544608Y-71767822D01*
X145656178Y-71879392D01*
X145707925Y-71956838D01*
X145743838Y-72010586D01*
X145804219Y-72156358D01*
X145835000Y-72311107D01*
X145835000Y-72468893D01*
X145804219Y-72623642D01*
X145743838Y-72769414D01*
X145743837Y-72769416D01*
X145656178Y-72900608D01*
X145544608Y-73012178D01*
X145413416Y-73099837D01*
X145413415Y-73099838D01*
X145413414Y-73099838D01*
X145267642Y-73160219D01*
X145112893Y-73191000D01*
X144955107Y-73191000D01*
X144800358Y-73160219D01*
X144654586Y-73099838D01*
X144654585Y-73099838D01*
X144654584Y-73099837D01*
X144523392Y-73012178D01*
X144411822Y-72900608D01*
X144324163Y-72769416D01*
X144324162Y-72769414D01*
X144263781Y-72623642D01*
X144233000Y-72468893D01*
X144233000Y-72311107D01*
X144263781Y-72156358D01*
X144324162Y-72010586D01*
X144360075Y-71956838D01*
X144411822Y-71879392D01*
X144523392Y-71767822D01*
X144654584Y-71680163D01*
X144654586Y-71680162D01*
X144800358Y-71619781D01*
X144955107Y-71589000D01*
X145112893Y-71589000D01*
X145267642Y-71619781D01*
G37*
G36*
X148950642Y-71492781D02*
G01*
X149096414Y-71553162D01*
X149096416Y-71553163D01*
X149227608Y-71640822D01*
X149339178Y-71752392D01*
X149426837Y-71883584D01*
X149426838Y-71883586D01*
X149487219Y-72029358D01*
X149518000Y-72184107D01*
X149518000Y-72341893D01*
X149487219Y-72496642D01*
X149434613Y-72623643D01*
X149426837Y-72642416D01*
X149339178Y-72773608D01*
X149227608Y-72885178D01*
X149096416Y-72972837D01*
X149096415Y-72972838D01*
X149096414Y-72972838D01*
X148950642Y-73033219D01*
X148795893Y-73064000D01*
X148638107Y-73064000D01*
X148483358Y-73033219D01*
X148337586Y-72972838D01*
X148337585Y-72972838D01*
X148337584Y-72972837D01*
X148206392Y-72885178D01*
X148094822Y-72773608D01*
X148007163Y-72642416D01*
X147999387Y-72623643D01*
X147946781Y-72496642D01*
X147916000Y-72341893D01*
X147916000Y-72184107D01*
X147946781Y-72029358D01*
X148007162Y-71883586D01*
X148007163Y-71883584D01*
X148094822Y-71752392D01*
X148206392Y-71640822D01*
X148337584Y-71553163D01*
X148337586Y-71553162D01*
X148483358Y-71492781D01*
X148638107Y-71462000D01*
X148795893Y-71462000D01*
X148950642Y-71492781D01*
G37*
G36*
X163428642Y-70476781D02*
G01*
X163574414Y-70537162D01*
X163574416Y-70537163D01*
X163705608Y-70624822D01*
X163817178Y-70736392D01*
X163904837Y-70867584D01*
X163904838Y-70867586D01*
X163965219Y-71013358D01*
X163996000Y-71168107D01*
X163996000Y-71325893D01*
X163965219Y-71480642D01*
X163920335Y-71589000D01*
X163904837Y-71626416D01*
X163817178Y-71757608D01*
X163705608Y-71869178D01*
X163574416Y-71956837D01*
X163574415Y-71956838D01*
X163574414Y-71956838D01*
X163428642Y-72017219D01*
X163273893Y-72048000D01*
X163116107Y-72048000D01*
X162961358Y-72017219D01*
X162815586Y-71956838D01*
X162815585Y-71956838D01*
X162815584Y-71956837D01*
X162684392Y-71869178D01*
X162572822Y-71757608D01*
X162485163Y-71626416D01*
X162469665Y-71589000D01*
X162424781Y-71480642D01*
X162394000Y-71325893D01*
X162394000Y-71168107D01*
X162424781Y-71013358D01*
X162485162Y-70867586D01*
X162485163Y-70867584D01*
X162572822Y-70736392D01*
X162684392Y-70624822D01*
X162815584Y-70537163D01*
X162815586Y-70537162D01*
X162961358Y-70476781D01*
X163116107Y-70446000D01*
X163273893Y-70446000D01*
X163428642Y-70476781D01*
G37*
M02*
