G04 #@! TF.GenerationSoftware,KiCad,Pcbnew,5.1.5+dfsg1-2build2*
G04 #@! TF.CreationDate,2021-08-10T13:41:00-07:00*
G04 #@! TF.ProjectId,Telemetry Board Shrink,54656c65-6d65-4747-9279-20426f617264,rev?*
G04 #@! TF.SameCoordinates,Original*
G04 #@! TF.FileFunction,Legend,Top*
G04 #@! TF.FilePolarity,Positive*
%FSLAX46Y46*%
G04 Gerber Fmt 4.6, Leading zero omitted, Abs format (unit mm)*
G04 Created by KiCad (PCBNEW 5.1.5+dfsg1-2build2) date 2021-08-10 13:41:00*
%MOMM*%
%LPD*%
G04 APERTURE LIST*
%ADD10C,0.150000*%
%ADD11C,0.300000*%
%ADD12C,0.120000*%
%ADD13C,0.010000*%
%ADD14C,0.100000*%
%ADD15C,0.127000*%
G04 APERTURE END LIST*
D10*
X208915095Y-103640000D02*
X208819857Y-103592380D01*
X208677000Y-103592380D01*
X208534142Y-103640000D01*
X208438904Y-103735238D01*
X208391285Y-103830476D01*
X208343666Y-104020952D01*
X208343666Y-104163809D01*
X208391285Y-104354285D01*
X208438904Y-104449523D01*
X208534142Y-104544761D01*
X208677000Y-104592380D01*
X208772238Y-104592380D01*
X208915095Y-104544761D01*
X208962714Y-104497142D01*
X208962714Y-104163809D01*
X208772238Y-104163809D01*
X209391285Y-104592380D02*
X209391285Y-103592380D01*
X209962714Y-104592380D01*
X209962714Y-103592380D01*
X210438904Y-104592380D02*
X210438904Y-103592380D01*
X210677000Y-103592380D01*
X210819857Y-103640000D01*
X210915095Y-103735238D01*
X210962714Y-103830476D01*
X211010333Y-104020952D01*
X211010333Y-104163809D01*
X210962714Y-104354285D01*
X210915095Y-104449523D01*
X210819857Y-104544761D01*
X210677000Y-104592380D01*
X210438904Y-104592380D01*
X169037095Y-113673000D02*
X168941857Y-113625380D01*
X168799000Y-113625380D01*
X168656142Y-113673000D01*
X168560904Y-113768238D01*
X168513285Y-113863476D01*
X168465666Y-114053952D01*
X168465666Y-114196809D01*
X168513285Y-114387285D01*
X168560904Y-114482523D01*
X168656142Y-114577761D01*
X168799000Y-114625380D01*
X168894238Y-114625380D01*
X169037095Y-114577761D01*
X169084714Y-114530142D01*
X169084714Y-114196809D01*
X168894238Y-114196809D01*
X169513285Y-114625380D02*
X169513285Y-113625380D01*
X170084714Y-114625380D01*
X170084714Y-113625380D01*
X170560904Y-114625380D02*
X170560904Y-113625380D01*
X170799000Y-113625380D01*
X170941857Y-113673000D01*
X171037095Y-113768238D01*
X171084714Y-113863476D01*
X171132333Y-114053952D01*
X171132333Y-114196809D01*
X171084714Y-114387285D01*
X171037095Y-114482523D01*
X170941857Y-114577761D01*
X170799000Y-114625380D01*
X170560904Y-114625380D01*
X147447095Y-109736000D02*
X147351857Y-109688380D01*
X147209000Y-109688380D01*
X147066142Y-109736000D01*
X146970904Y-109831238D01*
X146923285Y-109926476D01*
X146875666Y-110116952D01*
X146875666Y-110259809D01*
X146923285Y-110450285D01*
X146970904Y-110545523D01*
X147066142Y-110640761D01*
X147209000Y-110688380D01*
X147304238Y-110688380D01*
X147447095Y-110640761D01*
X147494714Y-110593142D01*
X147494714Y-110259809D01*
X147304238Y-110259809D01*
X147923285Y-110688380D02*
X147923285Y-109688380D01*
X148494714Y-110688380D01*
X148494714Y-109688380D01*
X148970904Y-110688380D02*
X148970904Y-109688380D01*
X149209000Y-109688380D01*
X149351857Y-109736000D01*
X149447095Y-109831238D01*
X149494714Y-109926476D01*
X149542333Y-110116952D01*
X149542333Y-110259809D01*
X149494714Y-110450285D01*
X149447095Y-110545523D01*
X149351857Y-110640761D01*
X149209000Y-110688380D01*
X148970904Y-110688380D01*
X147955095Y-70239000D02*
X147859857Y-70191380D01*
X147717000Y-70191380D01*
X147574142Y-70239000D01*
X147478904Y-70334238D01*
X147431285Y-70429476D01*
X147383666Y-70619952D01*
X147383666Y-70762809D01*
X147431285Y-70953285D01*
X147478904Y-71048523D01*
X147574142Y-71143761D01*
X147717000Y-71191380D01*
X147812238Y-71191380D01*
X147955095Y-71143761D01*
X148002714Y-71096142D01*
X148002714Y-70762809D01*
X147812238Y-70762809D01*
X148431285Y-71191380D02*
X148431285Y-70191380D01*
X149002714Y-71191380D01*
X149002714Y-70191380D01*
X149478904Y-71191380D02*
X149478904Y-70191380D01*
X149717000Y-70191380D01*
X149859857Y-70239000D01*
X149955095Y-70334238D01*
X150002714Y-70429476D01*
X150050333Y-70619952D01*
X150050333Y-70762809D01*
X150002714Y-70953285D01*
X149955095Y-71048523D01*
X149859857Y-71143761D01*
X149717000Y-71191380D01*
X149478904Y-71191380D01*
D11*
X146089857Y-127067571D02*
X146447000Y-128567571D01*
X146732714Y-127496142D01*
X147018428Y-128567571D01*
X147375571Y-127067571D01*
X147804142Y-127067571D02*
X148732714Y-127067571D01*
X148232714Y-127639000D01*
X148447000Y-127639000D01*
X148589857Y-127710428D01*
X148661285Y-127781857D01*
X148732714Y-127924714D01*
X148732714Y-128281857D01*
X148661285Y-128424714D01*
X148589857Y-128496142D01*
X148447000Y-128567571D01*
X148018428Y-128567571D01*
X147875571Y-128496142D01*
X147804142Y-128424714D01*
D10*
X146701095Y-130627380D02*
X146367761Y-130151190D01*
X146129666Y-130627380D02*
X146129666Y-129627380D01*
X146510619Y-129627380D01*
X146605857Y-129675000D01*
X146653476Y-129722619D01*
X146701095Y-129817857D01*
X146701095Y-129960714D01*
X146653476Y-130055952D01*
X146605857Y-130103571D01*
X146510619Y-130151190D01*
X146129666Y-130151190D01*
X147129666Y-130532142D02*
X147177285Y-130579761D01*
X147129666Y-130627380D01*
X147082047Y-130579761D01*
X147129666Y-130532142D01*
X147129666Y-130627380D01*
X147129666Y-130008333D02*
X147177285Y-130055952D01*
X147129666Y-130103571D01*
X147082047Y-130055952D01*
X147129666Y-130008333D01*
X147129666Y-130103571D01*
X148129666Y-129675000D02*
X148034428Y-129627380D01*
X147891571Y-129627380D01*
X147748714Y-129675000D01*
X147653476Y-129770238D01*
X147605857Y-129865476D01*
X147558238Y-130055952D01*
X147558238Y-130198809D01*
X147605857Y-130389285D01*
X147653476Y-130484523D01*
X147748714Y-130579761D01*
X147891571Y-130627380D01*
X147986809Y-130627380D01*
X148129666Y-130579761D01*
X148177285Y-130532142D01*
X148177285Y-130198809D01*
X147986809Y-130198809D01*
X148605857Y-130532142D02*
X148653476Y-130579761D01*
X148605857Y-130627380D01*
X148558238Y-130579761D01*
X148605857Y-130532142D01*
X148605857Y-130627380D01*
X148605857Y-130008333D02*
X148653476Y-130055952D01*
X148605857Y-130103571D01*
X148558238Y-130055952D01*
X148605857Y-130008333D01*
X148605857Y-130103571D01*
X148939190Y-129627380D02*
X149510619Y-129627380D01*
X149224904Y-130627380D02*
X149224904Y-129627380D01*
X149843952Y-130532142D02*
X149891571Y-130579761D01*
X149843952Y-130627380D01*
X149796333Y-130579761D01*
X149843952Y-130532142D01*
X149843952Y-130627380D01*
X149843952Y-130008333D02*
X149891571Y-130055952D01*
X149843952Y-130103571D01*
X149796333Y-130055952D01*
X149843952Y-130008333D01*
X149843952Y-130103571D01*
X150796333Y-129627380D02*
X150320142Y-129627380D01*
X150272523Y-130103571D01*
X150320142Y-130055952D01*
X150415380Y-130008333D01*
X150653476Y-130008333D01*
X150748714Y-130055952D01*
X150796333Y-130103571D01*
X150843952Y-130198809D01*
X150843952Y-130436904D01*
X150796333Y-130532142D01*
X150748714Y-130579761D01*
X150653476Y-130627380D01*
X150415380Y-130627380D01*
X150320142Y-130579761D01*
X150272523Y-130532142D01*
X162433095Y-68588000D02*
X162337857Y-68540380D01*
X162195000Y-68540380D01*
X162052142Y-68588000D01*
X161956904Y-68683238D01*
X161909285Y-68778476D01*
X161861666Y-68968952D01*
X161861666Y-69111809D01*
X161909285Y-69302285D01*
X161956904Y-69397523D01*
X162052142Y-69492761D01*
X162195000Y-69540380D01*
X162290238Y-69540380D01*
X162433095Y-69492761D01*
X162480714Y-69445142D01*
X162480714Y-69111809D01*
X162290238Y-69111809D01*
X162909285Y-69540380D02*
X162909285Y-68540380D01*
X163480714Y-69540380D01*
X163480714Y-68540380D01*
X163956904Y-69540380D02*
X163956904Y-68540380D01*
X164195000Y-68540380D01*
X164337857Y-68588000D01*
X164433095Y-68683238D01*
X164480714Y-68778476D01*
X164528333Y-68968952D01*
X164528333Y-69111809D01*
X164480714Y-69302285D01*
X164433095Y-69397523D01*
X164337857Y-69492761D01*
X164195000Y-69540380D01*
X163956904Y-69540380D01*
X202184095Y-72398000D02*
X202088857Y-72350380D01*
X201946000Y-72350380D01*
X201803142Y-72398000D01*
X201707904Y-72493238D01*
X201660285Y-72588476D01*
X201612666Y-72778952D01*
X201612666Y-72921809D01*
X201660285Y-73112285D01*
X201707904Y-73207523D01*
X201803142Y-73302761D01*
X201946000Y-73350380D01*
X202041238Y-73350380D01*
X202184095Y-73302761D01*
X202231714Y-73255142D01*
X202231714Y-72921809D01*
X202041238Y-72921809D01*
X202660285Y-73350380D02*
X202660285Y-72350380D01*
X203231714Y-73350380D01*
X203231714Y-72350380D01*
X203707904Y-73350380D02*
X203707904Y-72350380D01*
X203946000Y-72350380D01*
X204088857Y-72398000D01*
X204184095Y-72493238D01*
X204231714Y-72588476D01*
X204279333Y-72778952D01*
X204279333Y-72921809D01*
X204231714Y-73112285D01*
X204184095Y-73207523D01*
X204088857Y-73302761D01*
X203946000Y-73350380D01*
X203707904Y-73350380D01*
X167402095Y-131389380D02*
X167068761Y-130913190D01*
X166830666Y-131389380D02*
X166830666Y-130389380D01*
X167211619Y-130389380D01*
X167306857Y-130437000D01*
X167354476Y-130484619D01*
X167402095Y-130579857D01*
X167402095Y-130722714D01*
X167354476Y-130817952D01*
X167306857Y-130865571D01*
X167211619Y-130913190D01*
X166830666Y-130913190D01*
X167830666Y-131294142D02*
X167878285Y-131341761D01*
X167830666Y-131389380D01*
X167783047Y-131341761D01*
X167830666Y-131294142D01*
X167830666Y-131389380D01*
X167830666Y-130770333D02*
X167878285Y-130817952D01*
X167830666Y-130865571D01*
X167783047Y-130817952D01*
X167830666Y-130770333D01*
X167830666Y-130865571D01*
X168830666Y-130437000D02*
X168735428Y-130389380D01*
X168592571Y-130389380D01*
X168449714Y-130437000D01*
X168354476Y-130532238D01*
X168306857Y-130627476D01*
X168259238Y-130817952D01*
X168259238Y-130960809D01*
X168306857Y-131151285D01*
X168354476Y-131246523D01*
X168449714Y-131341761D01*
X168592571Y-131389380D01*
X168687809Y-131389380D01*
X168830666Y-131341761D01*
X168878285Y-131294142D01*
X168878285Y-130960809D01*
X168687809Y-130960809D01*
X169306857Y-131294142D02*
X169354476Y-131341761D01*
X169306857Y-131389380D01*
X169259238Y-131341761D01*
X169306857Y-131294142D01*
X169306857Y-131389380D01*
X169306857Y-130770333D02*
X169354476Y-130817952D01*
X169306857Y-130865571D01*
X169259238Y-130817952D01*
X169306857Y-130770333D01*
X169306857Y-130865571D01*
X169640190Y-130389380D02*
X170211619Y-130389380D01*
X169925904Y-131389380D02*
X169925904Y-130389380D01*
X170544952Y-131294142D02*
X170592571Y-131341761D01*
X170544952Y-131389380D01*
X170497333Y-131341761D01*
X170544952Y-131294142D01*
X170544952Y-131389380D01*
X170544952Y-130770333D02*
X170592571Y-130817952D01*
X170544952Y-130865571D01*
X170497333Y-130817952D01*
X170544952Y-130770333D01*
X170544952Y-130865571D01*
X171497333Y-130389380D02*
X171021142Y-130389380D01*
X170973523Y-130865571D01*
X171021142Y-130817952D01*
X171116380Y-130770333D01*
X171354476Y-130770333D01*
X171449714Y-130817952D01*
X171497333Y-130865571D01*
X171544952Y-130960809D01*
X171544952Y-131198904D01*
X171497333Y-131294142D01*
X171449714Y-131341761D01*
X171354476Y-131389380D01*
X171116380Y-131389380D01*
X171021142Y-131341761D01*
X170973523Y-131294142D01*
X185309095Y-131262380D02*
X184975761Y-130786190D01*
X184737666Y-131262380D02*
X184737666Y-130262380D01*
X185118619Y-130262380D01*
X185213857Y-130310000D01*
X185261476Y-130357619D01*
X185309095Y-130452857D01*
X185309095Y-130595714D01*
X185261476Y-130690952D01*
X185213857Y-130738571D01*
X185118619Y-130786190D01*
X184737666Y-130786190D01*
X185737666Y-131167142D02*
X185785285Y-131214761D01*
X185737666Y-131262380D01*
X185690047Y-131214761D01*
X185737666Y-131167142D01*
X185737666Y-131262380D01*
X185737666Y-130643333D02*
X185785285Y-130690952D01*
X185737666Y-130738571D01*
X185690047Y-130690952D01*
X185737666Y-130643333D01*
X185737666Y-130738571D01*
X186737666Y-130310000D02*
X186642428Y-130262380D01*
X186499571Y-130262380D01*
X186356714Y-130310000D01*
X186261476Y-130405238D01*
X186213857Y-130500476D01*
X186166238Y-130690952D01*
X186166238Y-130833809D01*
X186213857Y-131024285D01*
X186261476Y-131119523D01*
X186356714Y-131214761D01*
X186499571Y-131262380D01*
X186594809Y-131262380D01*
X186737666Y-131214761D01*
X186785285Y-131167142D01*
X186785285Y-130833809D01*
X186594809Y-130833809D01*
X187213857Y-131167142D02*
X187261476Y-131214761D01*
X187213857Y-131262380D01*
X187166238Y-131214761D01*
X187213857Y-131167142D01*
X187213857Y-131262380D01*
X187213857Y-130643333D02*
X187261476Y-130690952D01*
X187213857Y-130738571D01*
X187166238Y-130690952D01*
X187213857Y-130643333D01*
X187213857Y-130738571D01*
X187547190Y-130262380D02*
X188118619Y-130262380D01*
X187832904Y-131262380D02*
X187832904Y-130262380D01*
X188451952Y-131167142D02*
X188499571Y-131214761D01*
X188451952Y-131262380D01*
X188404333Y-131214761D01*
X188451952Y-131167142D01*
X188451952Y-131262380D01*
X188451952Y-130643333D02*
X188499571Y-130690952D01*
X188451952Y-130738571D01*
X188404333Y-130690952D01*
X188451952Y-130643333D01*
X188451952Y-130738571D01*
X189404333Y-130262380D02*
X188928142Y-130262380D01*
X188880523Y-130738571D01*
X188928142Y-130690952D01*
X189023380Y-130643333D01*
X189261476Y-130643333D01*
X189356714Y-130690952D01*
X189404333Y-130738571D01*
X189451952Y-130833809D01*
X189451952Y-131071904D01*
X189404333Y-131167142D01*
X189356714Y-131214761D01*
X189261476Y-131262380D01*
X189023380Y-131262380D01*
X188928142Y-131214761D01*
X188880523Y-131167142D01*
X191770095Y-117356000D02*
X191674857Y-117308380D01*
X191532000Y-117308380D01*
X191389142Y-117356000D01*
X191293904Y-117451238D01*
X191246285Y-117546476D01*
X191198666Y-117736952D01*
X191198666Y-117879809D01*
X191246285Y-118070285D01*
X191293904Y-118165523D01*
X191389142Y-118260761D01*
X191532000Y-118308380D01*
X191627238Y-118308380D01*
X191770095Y-118260761D01*
X191817714Y-118213142D01*
X191817714Y-117879809D01*
X191627238Y-117879809D01*
X192246285Y-118308380D02*
X192246285Y-117308380D01*
X192817714Y-118308380D01*
X192817714Y-117308380D01*
X193293904Y-118308380D02*
X193293904Y-117308380D01*
X193532000Y-117308380D01*
X193674857Y-117356000D01*
X193770095Y-117451238D01*
X193817714Y-117546476D01*
X193865333Y-117736952D01*
X193865333Y-117879809D01*
X193817714Y-118070285D01*
X193770095Y-118165523D01*
X193674857Y-118260761D01*
X193532000Y-118308380D01*
X193293904Y-118308380D01*
X188126904Y-116609761D02*
X188269761Y-116657380D01*
X188507857Y-116657380D01*
X188603095Y-116609761D01*
X188650714Y-116562142D01*
X188698333Y-116466904D01*
X188698333Y-116371666D01*
X188650714Y-116276428D01*
X188603095Y-116228809D01*
X188507857Y-116181190D01*
X188317380Y-116133571D01*
X188222142Y-116085952D01*
X188174523Y-116038333D01*
X188126904Y-115943095D01*
X188126904Y-115847857D01*
X188174523Y-115752619D01*
X188222142Y-115705000D01*
X188317380Y-115657380D01*
X188555476Y-115657380D01*
X188698333Y-115705000D01*
X189317380Y-116181190D02*
X189317380Y-116657380D01*
X188984047Y-115657380D02*
X189317380Y-116181190D01*
X189650714Y-115657380D01*
X189984047Y-116657380D02*
X189984047Y-115657380D01*
X190555476Y-116657380D01*
X190555476Y-115657380D01*
X191603095Y-116562142D02*
X191555476Y-116609761D01*
X191412619Y-116657380D01*
X191317380Y-116657380D01*
X191174523Y-116609761D01*
X191079285Y-116514523D01*
X191031666Y-116419285D01*
X190984047Y-116228809D01*
X190984047Y-116085952D01*
X191031666Y-115895476D01*
X191079285Y-115800238D01*
X191174523Y-115705000D01*
X191317380Y-115657380D01*
X191412619Y-115657380D01*
X191555476Y-115705000D01*
X191603095Y-115752619D01*
X207153095Y-131008380D02*
X206819761Y-130532190D01*
X206581666Y-131008380D02*
X206581666Y-130008380D01*
X206962619Y-130008380D01*
X207057857Y-130056000D01*
X207105476Y-130103619D01*
X207153095Y-130198857D01*
X207153095Y-130341714D01*
X207105476Y-130436952D01*
X207057857Y-130484571D01*
X206962619Y-130532190D01*
X206581666Y-130532190D01*
X207581666Y-130913142D02*
X207629285Y-130960761D01*
X207581666Y-131008380D01*
X207534047Y-130960761D01*
X207581666Y-130913142D01*
X207581666Y-131008380D01*
X207581666Y-130389333D02*
X207629285Y-130436952D01*
X207581666Y-130484571D01*
X207534047Y-130436952D01*
X207581666Y-130389333D01*
X207581666Y-130484571D01*
X208581666Y-130056000D02*
X208486428Y-130008380D01*
X208343571Y-130008380D01*
X208200714Y-130056000D01*
X208105476Y-130151238D01*
X208057857Y-130246476D01*
X208010238Y-130436952D01*
X208010238Y-130579809D01*
X208057857Y-130770285D01*
X208105476Y-130865523D01*
X208200714Y-130960761D01*
X208343571Y-131008380D01*
X208438809Y-131008380D01*
X208581666Y-130960761D01*
X208629285Y-130913142D01*
X208629285Y-130579809D01*
X208438809Y-130579809D01*
X209057857Y-130913142D02*
X209105476Y-130960761D01*
X209057857Y-131008380D01*
X209010238Y-130960761D01*
X209057857Y-130913142D01*
X209057857Y-131008380D01*
X209057857Y-130389333D02*
X209105476Y-130436952D01*
X209057857Y-130484571D01*
X209010238Y-130436952D01*
X209057857Y-130389333D01*
X209057857Y-130484571D01*
X209391190Y-130008380D02*
X209962619Y-130008380D01*
X209676904Y-131008380D02*
X209676904Y-130008380D01*
X210295952Y-130913142D02*
X210343571Y-130960761D01*
X210295952Y-131008380D01*
X210248333Y-130960761D01*
X210295952Y-130913142D01*
X210295952Y-131008380D01*
X210295952Y-130389333D02*
X210343571Y-130436952D01*
X210295952Y-130484571D01*
X210248333Y-130436952D01*
X210295952Y-130389333D01*
X210295952Y-130484571D01*
X211248333Y-130008380D02*
X210772142Y-130008380D01*
X210724523Y-130484571D01*
X210772142Y-130436952D01*
X210867380Y-130389333D01*
X211105476Y-130389333D01*
X211200714Y-130436952D01*
X211248333Y-130484571D01*
X211295952Y-130579809D01*
X211295952Y-130817904D01*
X211248333Y-130913142D01*
X211200714Y-130960761D01*
X211105476Y-131008380D01*
X210867380Y-131008380D01*
X210772142Y-130960761D01*
X210724523Y-130913142D01*
D12*
X158623000Y-82677000D02*
X156591000Y-82677000D01*
X158623000Y-86741000D02*
X158623000Y-82677000D01*
X156464000Y-86741000D02*
X158623000Y-86741000D01*
X172720000Y-73279000D02*
X170180000Y-73279000D01*
X172720000Y-81280000D02*
X172720000Y-73279000D01*
X170180000Y-81280000D02*
X172720000Y-81280000D01*
D10*
X171711904Y-73922000D02*
X171616666Y-73874380D01*
X171473809Y-73874380D01*
X171330952Y-73922000D01*
X171235714Y-74017238D01*
X171188095Y-74112476D01*
X171140476Y-74302952D01*
X171140476Y-74445809D01*
X171188095Y-74636285D01*
X171235714Y-74731523D01*
X171330952Y-74826761D01*
X171473809Y-74874380D01*
X171569047Y-74874380D01*
X171711904Y-74826761D01*
X171759523Y-74779142D01*
X171759523Y-74445809D01*
X171569047Y-74445809D01*
X171283333Y-76906380D02*
X170950000Y-76430190D01*
X170711904Y-76906380D02*
X170711904Y-75906380D01*
X171092857Y-75906380D01*
X171188095Y-75954000D01*
X171235714Y-76001619D01*
X171283333Y-76096857D01*
X171283333Y-76239714D01*
X171235714Y-76334952D01*
X171188095Y-76382571D01*
X171092857Y-76430190D01*
X170711904Y-76430190D01*
X171616666Y-75906380D02*
X172283333Y-76906380D01*
X172283333Y-75906380D02*
X171616666Y-76906380D01*
X170688095Y-77938380D02*
X171259523Y-77938380D01*
X170973809Y-78938380D02*
X170973809Y-77938380D01*
X171497619Y-77938380D02*
X172164285Y-78938380D01*
X172164285Y-77938380D02*
X171497619Y-78938380D01*
X171259523Y-79843380D02*
X170783333Y-79843380D01*
X170735714Y-80319571D01*
X170783333Y-80271952D01*
X170878571Y-80224333D01*
X171116666Y-80224333D01*
X171211904Y-80271952D01*
X171259523Y-80319571D01*
X171307142Y-80414809D01*
X171307142Y-80652904D01*
X171259523Y-80748142D01*
X171211904Y-80795761D01*
X171116666Y-80843380D01*
X170878571Y-80843380D01*
X170783333Y-80795761D01*
X170735714Y-80748142D01*
X171592857Y-79843380D02*
X171926190Y-80843380D01*
X172259523Y-79843380D01*
D11*
X157753857Y-83121571D02*
X157753857Y-84264428D01*
X157182428Y-83693000D02*
X158325285Y-83693000D01*
X157753857Y-85153571D02*
X157753857Y-86296428D01*
D10*
X143406761Y-94049857D02*
X143454380Y-93954619D01*
X143454380Y-93764142D01*
X143406761Y-93668904D01*
X143311523Y-93621285D01*
X143263904Y-93621285D01*
X143168666Y-93668904D01*
X143121047Y-93764142D01*
X143121047Y-93907000D01*
X143073428Y-94002238D01*
X142978190Y-94049857D01*
X142930571Y-94049857D01*
X142835333Y-94002238D01*
X142787714Y-93907000D01*
X142787714Y-93764142D01*
X142835333Y-93668904D01*
X143406761Y-92764142D02*
X143454380Y-92859380D01*
X143454380Y-93049857D01*
X143406761Y-93145095D01*
X143359142Y-93192714D01*
X143263904Y-93240333D01*
X142978190Y-93240333D01*
X142882952Y-93192714D01*
X142835333Y-93145095D01*
X142787714Y-93049857D01*
X142787714Y-92859380D01*
X142835333Y-92764142D01*
X143454380Y-92335571D02*
X142454380Y-92335571D01*
X143454380Y-91907000D02*
X142930571Y-91907000D01*
X142835333Y-91954619D01*
X142787714Y-92049857D01*
X142787714Y-92192714D01*
X142835333Y-92287952D01*
X142882952Y-92335571D01*
X143454380Y-91287952D02*
X143406761Y-91383190D01*
X143359142Y-91430809D01*
X143263904Y-91478428D01*
X142978190Y-91478428D01*
X142882952Y-91430809D01*
X142835333Y-91383190D01*
X142787714Y-91287952D01*
X142787714Y-91145095D01*
X142835333Y-91049857D01*
X142882952Y-91002238D01*
X142978190Y-90954619D01*
X143263904Y-90954619D01*
X143359142Y-91002238D01*
X143406761Y-91049857D01*
X143454380Y-91145095D01*
X143454380Y-91287952D01*
X143454380Y-90383190D02*
X143406761Y-90478428D01*
X143359142Y-90526047D01*
X143263904Y-90573666D01*
X142978190Y-90573666D01*
X142882952Y-90526047D01*
X142835333Y-90478428D01*
X142787714Y-90383190D01*
X142787714Y-90240333D01*
X142835333Y-90145095D01*
X142882952Y-90097476D01*
X142978190Y-90049857D01*
X143263904Y-90049857D01*
X143359142Y-90097476D01*
X143406761Y-90145095D01*
X143454380Y-90240333D01*
X143454380Y-90383190D01*
X143454380Y-89478428D02*
X143406761Y-89573666D01*
X143311523Y-89621285D01*
X142454380Y-89621285D01*
X143454380Y-88192714D02*
X143406761Y-88287952D01*
X143359142Y-88335571D01*
X143263904Y-88383190D01*
X142978190Y-88383190D01*
X142882952Y-88335571D01*
X142835333Y-88287952D01*
X142787714Y-88192714D01*
X142787714Y-88049857D01*
X142835333Y-87954619D01*
X142882952Y-87907000D01*
X142978190Y-87859380D01*
X143263904Y-87859380D01*
X143359142Y-87907000D01*
X143406761Y-87954619D01*
X143454380Y-88049857D01*
X143454380Y-88192714D01*
X142787714Y-87573666D02*
X142787714Y-87192714D01*
X143454380Y-87430809D02*
X142597238Y-87430809D01*
X142502000Y-87383190D01*
X142454380Y-87287952D01*
X142454380Y-87192714D01*
X142787714Y-86192714D02*
X143454380Y-86002238D01*
X142978190Y-85811761D01*
X143454380Y-85621285D01*
X142787714Y-85430809D01*
X143454380Y-85049857D02*
X142787714Y-85049857D01*
X142454380Y-85049857D02*
X142502000Y-85097476D01*
X142549619Y-85049857D01*
X142502000Y-85002238D01*
X142454380Y-85049857D01*
X142549619Y-85049857D01*
X142787714Y-84716523D02*
X142787714Y-84335571D01*
X142454380Y-84573666D02*
X143311523Y-84573666D01*
X143406761Y-84526047D01*
X143454380Y-84430809D01*
X143454380Y-84335571D01*
X143406761Y-83573666D02*
X143454380Y-83668904D01*
X143454380Y-83859380D01*
X143406761Y-83954619D01*
X143359142Y-84002238D01*
X143263904Y-84049857D01*
X142978190Y-84049857D01*
X142882952Y-84002238D01*
X142835333Y-83954619D01*
X142787714Y-83859380D01*
X142787714Y-83668904D01*
X142835333Y-83573666D01*
X143454380Y-83145095D02*
X142454380Y-83145095D01*
X143454380Y-82716523D02*
X142930571Y-82716523D01*
X142835333Y-82764142D01*
X142787714Y-82859380D01*
X142787714Y-83002238D01*
X142835333Y-83097476D01*
X142882952Y-83145095D01*
X143406761Y-81811761D02*
X143454380Y-81907000D01*
X143454380Y-82097476D01*
X143406761Y-82192714D01*
X143359142Y-82240333D01*
X143263904Y-82287952D01*
X142978190Y-82287952D01*
X142882952Y-82240333D01*
X142835333Y-82192714D01*
X142787714Y-82097476D01*
X142787714Y-81907000D01*
X142835333Y-81811761D01*
X143454380Y-81383190D02*
X142787714Y-81383190D01*
X142978190Y-81383190D02*
X142882952Y-81335571D01*
X142835333Y-81287952D01*
X142787714Y-81192714D01*
X142787714Y-81097476D01*
X143454380Y-80335571D02*
X142930571Y-80335571D01*
X142835333Y-80383190D01*
X142787714Y-80478428D01*
X142787714Y-80668904D01*
X142835333Y-80764142D01*
X143406761Y-80335571D02*
X143454380Y-80430809D01*
X143454380Y-80668904D01*
X143406761Y-80764142D01*
X143311523Y-80811761D01*
X143216285Y-80811761D01*
X143121047Y-80764142D01*
X143073428Y-80668904D01*
X143073428Y-80430809D01*
X143025809Y-80335571D01*
X142787714Y-80002238D02*
X142787714Y-79621285D01*
X143454380Y-79859380D02*
X142597238Y-79859380D01*
X142502000Y-79811761D01*
X142454380Y-79716523D01*
X142454380Y-79621285D01*
X142787714Y-79430809D02*
X142787714Y-79049857D01*
X142454380Y-79287952D02*
X143311523Y-79287952D01*
X143406761Y-79240333D01*
X143454380Y-79145095D01*
X143454380Y-79049857D01*
X143454380Y-77526047D02*
X142930571Y-77526047D01*
X142835333Y-77573666D01*
X142787714Y-77668904D01*
X142787714Y-77859380D01*
X142835333Y-77954619D01*
X143406761Y-77526047D02*
X143454380Y-77621285D01*
X143454380Y-77859380D01*
X143406761Y-77954619D01*
X143311523Y-78002238D01*
X143216285Y-78002238D01*
X143121047Y-77954619D01*
X143073428Y-77859380D01*
X143073428Y-77621285D01*
X143025809Y-77526047D01*
X142787714Y-77049857D02*
X143454380Y-77049857D01*
X142882952Y-77049857D02*
X142835333Y-77002238D01*
X142787714Y-76907000D01*
X142787714Y-76764142D01*
X142835333Y-76668904D01*
X142930571Y-76621285D01*
X143454380Y-76621285D01*
X143454380Y-75716523D02*
X142454380Y-75716523D01*
X143406761Y-75716523D02*
X143454380Y-75811761D01*
X143454380Y-76002238D01*
X143406761Y-76097476D01*
X143359142Y-76145095D01*
X143263904Y-76192714D01*
X142978190Y-76192714D01*
X142882952Y-76145095D01*
X142835333Y-76097476D01*
X142787714Y-76002238D01*
X142787714Y-75811761D01*
X142835333Y-75716523D01*
X142787714Y-74573666D02*
X143454380Y-74383190D01*
X142978190Y-74192714D01*
X143454380Y-74002238D01*
X142787714Y-73811761D01*
X143454380Y-73430809D02*
X142787714Y-73430809D01*
X142454380Y-73430809D02*
X142502000Y-73478428D01*
X142549619Y-73430809D01*
X142502000Y-73383190D01*
X142454380Y-73430809D01*
X142549619Y-73430809D01*
X142787714Y-73049857D02*
X142787714Y-72526047D01*
X143454380Y-73049857D01*
X143454380Y-72526047D01*
X143454380Y-71716523D02*
X142930571Y-71716523D01*
X142835333Y-71764142D01*
X142787714Y-71859380D01*
X142787714Y-72049857D01*
X142835333Y-72145095D01*
X143406761Y-71716523D02*
X143454380Y-71811761D01*
X143454380Y-72049857D01*
X143406761Y-72145095D01*
X143311523Y-72192714D01*
X143216285Y-72192714D01*
X143121047Y-72145095D01*
X143073428Y-72049857D01*
X143073428Y-71811761D01*
X143025809Y-71716523D01*
X143454380Y-71240333D02*
X142787714Y-71240333D01*
X142978190Y-71240333D02*
X142882952Y-71192714D01*
X142835333Y-71145095D01*
X142787714Y-71049857D01*
X142787714Y-70954619D01*
X143454380Y-70192714D02*
X142454380Y-70192714D01*
X143406761Y-70192714D02*
X143454380Y-70287952D01*
X143454380Y-70478428D01*
X143406761Y-70573666D01*
X143359142Y-70621285D01*
X143263904Y-70668904D01*
X142978190Y-70668904D01*
X142882952Y-70621285D01*
X142835333Y-70573666D01*
X142787714Y-70478428D01*
X142787714Y-70287952D01*
X142835333Y-70192714D01*
X143454380Y-69716523D02*
X142787714Y-69716523D01*
X142978190Y-69716523D02*
X142882952Y-69668904D01*
X142835333Y-69621285D01*
X142787714Y-69526047D01*
X142787714Y-69430809D01*
X142787714Y-69192714D02*
X143454380Y-68954619D01*
X142787714Y-68716523D02*
X143454380Y-68954619D01*
X143692476Y-69049857D01*
X143740095Y-69097476D01*
X143787714Y-69192714D01*
X133167380Y-119926666D02*
X132167380Y-119926666D01*
X132548333Y-119926666D02*
X132500714Y-119831428D01*
X132500714Y-119640952D01*
X132548333Y-119545714D01*
X132595952Y-119498095D01*
X132691190Y-119450476D01*
X132976904Y-119450476D01*
X133072142Y-119498095D01*
X133119761Y-119545714D01*
X133167380Y-119640952D01*
X133167380Y-119831428D01*
X133119761Y-119926666D01*
X133167380Y-119021904D02*
X132500714Y-119021904D01*
X132691190Y-119021904D02*
X132595952Y-118974285D01*
X132548333Y-118926666D01*
X132500714Y-118831428D01*
X132500714Y-118736190D01*
X133167380Y-118260000D02*
X133119761Y-118355238D01*
X133072142Y-118402857D01*
X132976904Y-118450476D01*
X132691190Y-118450476D01*
X132595952Y-118402857D01*
X132548333Y-118355238D01*
X132500714Y-118260000D01*
X132500714Y-118117142D01*
X132548333Y-118021904D01*
X132595952Y-117974285D01*
X132691190Y-117926666D01*
X132976904Y-117926666D01*
X133072142Y-117974285D01*
X133119761Y-118021904D01*
X133167380Y-118117142D01*
X133167380Y-118260000D01*
X132500714Y-117069523D02*
X133167380Y-117069523D01*
X132500714Y-117498095D02*
X133024523Y-117498095D01*
X133119761Y-117450476D01*
X133167380Y-117355238D01*
X133167380Y-117212380D01*
X133119761Y-117117142D01*
X133072142Y-117069523D01*
X132500714Y-116164761D02*
X133310238Y-116164761D01*
X133405476Y-116212380D01*
X133453095Y-116260000D01*
X133500714Y-116355238D01*
X133500714Y-116498095D01*
X133453095Y-116593333D01*
X133119761Y-116164761D02*
X133167380Y-116260000D01*
X133167380Y-116450476D01*
X133119761Y-116545714D01*
X133072142Y-116593333D01*
X132976904Y-116640952D01*
X132691190Y-116640952D01*
X132595952Y-116593333D01*
X132548333Y-116545714D01*
X132500714Y-116450476D01*
X132500714Y-116260000D01*
X132548333Y-116164761D01*
X133167380Y-115688571D02*
X132167380Y-115688571D01*
X133167380Y-115260000D02*
X132643571Y-115260000D01*
X132548333Y-115307619D01*
X132500714Y-115402857D01*
X132500714Y-115545714D01*
X132548333Y-115640952D01*
X132595952Y-115688571D01*
X132500714Y-114926666D02*
X132500714Y-114545714D01*
X132167380Y-114783809D02*
X133024523Y-114783809D01*
X133119761Y-114736190D01*
X133167380Y-114640952D01*
X133167380Y-114545714D01*
X132500714Y-113593333D02*
X132500714Y-113212380D01*
X132167380Y-113450476D02*
X133024523Y-113450476D01*
X133119761Y-113402857D01*
X133167380Y-113307619D01*
X133167380Y-113212380D01*
X133167380Y-112736190D02*
X133119761Y-112831428D01*
X133072142Y-112879047D01*
X132976904Y-112926666D01*
X132691190Y-112926666D01*
X132595952Y-112879047D01*
X132548333Y-112831428D01*
X132500714Y-112736190D01*
X132500714Y-112593333D01*
X132548333Y-112498095D01*
X132595952Y-112450476D01*
X132691190Y-112402857D01*
X132976904Y-112402857D01*
X133072142Y-112450476D01*
X133119761Y-112498095D01*
X133167380Y-112593333D01*
X133167380Y-112736190D01*
X132500714Y-111307619D02*
X133167380Y-111069523D01*
X132500714Y-110831428D02*
X133167380Y-111069523D01*
X133405476Y-111164761D01*
X133453095Y-111212380D01*
X133500714Y-111307619D01*
X133167380Y-110307619D02*
X133119761Y-110402857D01*
X133072142Y-110450476D01*
X132976904Y-110498095D01*
X132691190Y-110498095D01*
X132595952Y-110450476D01*
X132548333Y-110402857D01*
X132500714Y-110307619D01*
X132500714Y-110164761D01*
X132548333Y-110069523D01*
X132595952Y-110021904D01*
X132691190Y-109974285D01*
X132976904Y-109974285D01*
X133072142Y-110021904D01*
X133119761Y-110069523D01*
X133167380Y-110164761D01*
X133167380Y-110307619D01*
X132500714Y-109117142D02*
X133167380Y-109117142D01*
X132500714Y-109545714D02*
X133024523Y-109545714D01*
X133119761Y-109498095D01*
X133167380Y-109402857D01*
X133167380Y-109260000D01*
X133119761Y-109164761D01*
X133072142Y-109117142D01*
X133167380Y-107879047D02*
X132167380Y-107879047D01*
X132548333Y-107879047D02*
X132500714Y-107783809D01*
X132500714Y-107593333D01*
X132548333Y-107498095D01*
X132595952Y-107450476D01*
X132691190Y-107402857D01*
X132976904Y-107402857D01*
X133072142Y-107450476D01*
X133119761Y-107498095D01*
X133167380Y-107593333D01*
X133167380Y-107783809D01*
X133119761Y-107879047D01*
X132500714Y-107069523D02*
X133167380Y-106831428D01*
X132500714Y-106593333D02*
X133167380Y-106831428D01*
X133405476Y-106926666D01*
X133453095Y-106974285D01*
X133500714Y-107069523D01*
X132500714Y-105593333D02*
X132500714Y-105212380D01*
X132167380Y-105450476D02*
X133024523Y-105450476D01*
X133119761Y-105402857D01*
X133167380Y-105307619D01*
X133167380Y-105212380D01*
X133167380Y-104879047D02*
X132167380Y-104879047D01*
X133167380Y-104450476D02*
X132643571Y-104450476D01*
X132548333Y-104498095D01*
X132500714Y-104593333D01*
X132500714Y-104736190D01*
X132548333Y-104831428D01*
X132595952Y-104879047D01*
X133119761Y-103593333D02*
X133167380Y-103688571D01*
X133167380Y-103879047D01*
X133119761Y-103974285D01*
X133024523Y-104021904D01*
X132643571Y-104021904D01*
X132548333Y-103974285D01*
X132500714Y-103879047D01*
X132500714Y-103688571D01*
X132548333Y-103593333D01*
X132643571Y-103545714D01*
X132738809Y-103545714D01*
X132834047Y-104021904D01*
D12*
X201295000Y-86614000D02*
X204470000Y-86614000D01*
X201295000Y-71882000D02*
X201295000Y-86614000D01*
X204470000Y-71882000D02*
X201295000Y-71882000D01*
X204470000Y-86614000D02*
X204470000Y-71882000D01*
D11*
X166790857Y-127829571D02*
X167148000Y-129329571D01*
X167433714Y-128258142D01*
X167719428Y-129329571D01*
X168076571Y-127829571D01*
X168576571Y-127972428D02*
X168648000Y-127901000D01*
X168790857Y-127829571D01*
X169148000Y-127829571D01*
X169290857Y-127901000D01*
X169362285Y-127972428D01*
X169433714Y-128115285D01*
X169433714Y-128258142D01*
X169362285Y-128472428D01*
X168505142Y-129329571D01*
X169433714Y-129329571D01*
X184693857Y-129456571D02*
X184693857Y-127956571D01*
X185051000Y-127956571D01*
X185265285Y-128028000D01*
X185408142Y-128170857D01*
X185479571Y-128313714D01*
X185551000Y-128599428D01*
X185551000Y-128813714D01*
X185479571Y-129099428D01*
X185408142Y-129242285D01*
X185265285Y-129385142D01*
X185051000Y-129456571D01*
X184693857Y-129456571D01*
X186908142Y-127956571D02*
X186193857Y-127956571D01*
X186122428Y-128670857D01*
X186193857Y-128599428D01*
X186336714Y-128528000D01*
X186693857Y-128528000D01*
X186836714Y-128599428D01*
X186908142Y-128670857D01*
X186979571Y-128813714D01*
X186979571Y-129170857D01*
X186908142Y-129313714D01*
X186836714Y-129385142D01*
X186693857Y-129456571D01*
X186336714Y-129456571D01*
X186193857Y-129385142D01*
X186122428Y-129313714D01*
X206791857Y-128694571D02*
X206791857Y-127194571D01*
X207149000Y-127194571D01*
X207363285Y-127266000D01*
X207506142Y-127408857D01*
X207577571Y-127551714D01*
X207649000Y-127837428D01*
X207649000Y-128051714D01*
X207577571Y-128337428D01*
X207506142Y-128480285D01*
X207363285Y-128623142D01*
X207149000Y-128694571D01*
X206791857Y-128694571D01*
X208149000Y-127194571D02*
X209149000Y-127194571D01*
X208506142Y-128694571D01*
D12*
X204150000Y-85090000D02*
G75*
G03X204150000Y-85090000I-950000J0D01*
G01*
X210627000Y-105664000D02*
G75*
G03X210627000Y-105664000I-950000J0D01*
G01*
X170749000Y-115697000D02*
G75*
G03X170749000Y-115697000I-950000J0D01*
G01*
D13*
G36*
X132131678Y-91584071D02*
G01*
X132264224Y-91390278D01*
X132376333Y-91251281D01*
X132541798Y-91047490D01*
X132649360Y-90894899D01*
X132672666Y-90843986D01*
X132626800Y-90747883D01*
X132507612Y-90559840D01*
X132370515Y-90362318D01*
X132219087Y-90134983D01*
X132127708Y-89964701D01*
X132114718Y-89895392D01*
X132212688Y-89895852D01*
X132424022Y-89942089D01*
X132692036Y-90020703D01*
X133223000Y-90192368D01*
X133392333Y-89969642D01*
X133567613Y-89752008D01*
X133770533Y-89516638D01*
X133792018Y-89492791D01*
X134022369Y-89238666D01*
X134024851Y-89845161D01*
X134027333Y-90451655D01*
X134551964Y-90614722D01*
X134895580Y-90738425D01*
X135071189Y-90843906D01*
X135079091Y-90931560D01*
X134919586Y-91001781D01*
X134857318Y-91015903D01*
X134564418Y-91087984D01*
X134302500Y-91167624D01*
X134152775Y-91226910D01*
X134070472Y-91304533D01*
X134035422Y-91446525D01*
X134027456Y-91698920D01*
X134027333Y-91795675D01*
X134017538Y-92102695D01*
X133983733Y-92270434D01*
X133919286Y-92328051D01*
X133906038Y-92329000D01*
X133779790Y-92259369D01*
X133734696Y-92180833D01*
X133648288Y-92028141D01*
X133492127Y-91824074D01*
X133429858Y-91753032D01*
X133258703Y-91581916D01*
X133126299Y-91519113D01*
X132966234Y-91540221D01*
X132902701Y-91559327D01*
X132532035Y-91675096D01*
X132293523Y-91744142D01*
X132158118Y-91771600D01*
X132096778Y-91762609D01*
X132080458Y-91722305D01*
X132080000Y-91704835D01*
X132131678Y-91584071D01*
G37*
X132131678Y-91584071D02*
X132264224Y-91390278D01*
X132376333Y-91251281D01*
X132541798Y-91047490D01*
X132649360Y-90894899D01*
X132672666Y-90843986D01*
X132626800Y-90747883D01*
X132507612Y-90559840D01*
X132370515Y-90362318D01*
X132219087Y-90134983D01*
X132127708Y-89964701D01*
X132114718Y-89895392D01*
X132212688Y-89895852D01*
X132424022Y-89942089D01*
X132692036Y-90020703D01*
X133223000Y-90192368D01*
X133392333Y-89969642D01*
X133567613Y-89752008D01*
X133770533Y-89516638D01*
X133792018Y-89492791D01*
X134022369Y-89238666D01*
X134024851Y-89845161D01*
X134027333Y-90451655D01*
X134551964Y-90614722D01*
X134895580Y-90738425D01*
X135071189Y-90843906D01*
X135079091Y-90931560D01*
X134919586Y-91001781D01*
X134857318Y-91015903D01*
X134564418Y-91087984D01*
X134302500Y-91167624D01*
X134152775Y-91226910D01*
X134070472Y-91304533D01*
X134035422Y-91446525D01*
X134027456Y-91698920D01*
X134027333Y-91795675D01*
X134017538Y-92102695D01*
X133983733Y-92270434D01*
X133919286Y-92328051D01*
X133906038Y-92329000D01*
X133779790Y-92259369D01*
X133734696Y-92180833D01*
X133648288Y-92028141D01*
X133492127Y-91824074D01*
X133429858Y-91753032D01*
X133258703Y-91581916D01*
X133126299Y-91519113D01*
X132966234Y-91540221D01*
X132902701Y-91559327D01*
X132532035Y-91675096D01*
X132293523Y-91744142D01*
X132158118Y-91771600D01*
X132096778Y-91762609D01*
X132080458Y-91722305D01*
X132080000Y-91704835D01*
X132131678Y-91584071D01*
G36*
X132123504Y-101183717D02*
G01*
X132226343Y-101015043D01*
X132301026Y-100915364D01*
X132464954Y-100707144D01*
X132590566Y-100544664D01*
X132620141Y-100505198D01*
X132616070Y-100370402D01*
X132491070Y-100129305D01*
X132376786Y-99960882D01*
X132220954Y-99727016D01*
X132124850Y-99548928D01*
X132108771Y-99468673D01*
X132213142Y-99459430D01*
X132418133Y-99494323D01*
X132521459Y-99520803D01*
X132881231Y-99618784D01*
X133111898Y-99671021D01*
X133246143Y-99681765D01*
X133316646Y-99655265D01*
X133339580Y-99627191D01*
X133474769Y-99434485D01*
X133643564Y-99226816D01*
X133806798Y-99048578D01*
X133925306Y-98944164D01*
X133952039Y-98933000D01*
X133990558Y-99010183D01*
X134017704Y-99211959D01*
X134027333Y-99477628D01*
X134033153Y-99776265D01*
X134059571Y-99948014D01*
X134120027Y-100035169D01*
X134217833Y-100077161D01*
X134533192Y-100177556D01*
X134817232Y-100284403D01*
X135028563Y-100380475D01*
X135125794Y-100448549D01*
X135128000Y-100455936D01*
X135052878Y-100506739D01*
X134855875Y-100581825D01*
X134579530Y-100664997D01*
X134577666Y-100665502D01*
X134027333Y-100814471D01*
X134027333Y-101397735D01*
X134018561Y-101687259D01*
X133995507Y-101895999D01*
X133963058Y-101980788D01*
X133961273Y-101981000D01*
X133882311Y-101917205D01*
X133738516Y-101749874D01*
X133560869Y-101515091D01*
X133559106Y-101512636D01*
X133361675Y-101255492D01*
X133218903Y-101121495D01*
X133101684Y-101086630D01*
X133053666Y-101095590D01*
X132722857Y-101186212D01*
X132425204Y-101250933D01*
X132204198Y-101281679D01*
X132104547Y-101271770D01*
X132123504Y-101183717D01*
G37*
X132123504Y-101183717D02*
X132226343Y-101015043D01*
X132301026Y-100915364D01*
X132464954Y-100707144D01*
X132590566Y-100544664D01*
X132620141Y-100505198D01*
X132616070Y-100370402D01*
X132491070Y-100129305D01*
X132376786Y-99960882D01*
X132220954Y-99727016D01*
X132124850Y-99548928D01*
X132108771Y-99468673D01*
X132213142Y-99459430D01*
X132418133Y-99494323D01*
X132521459Y-99520803D01*
X132881231Y-99618784D01*
X133111898Y-99671021D01*
X133246143Y-99681765D01*
X133316646Y-99655265D01*
X133339580Y-99627191D01*
X133474769Y-99434485D01*
X133643564Y-99226816D01*
X133806798Y-99048578D01*
X133925306Y-98944164D01*
X133952039Y-98933000D01*
X133990558Y-99010183D01*
X134017704Y-99211959D01*
X134027333Y-99477628D01*
X134033153Y-99776265D01*
X134059571Y-99948014D01*
X134120027Y-100035169D01*
X134217833Y-100077161D01*
X134533192Y-100177556D01*
X134817232Y-100284403D01*
X135028563Y-100380475D01*
X135125794Y-100448549D01*
X135128000Y-100455936D01*
X135052878Y-100506739D01*
X134855875Y-100581825D01*
X134579530Y-100664997D01*
X134577666Y-100665502D01*
X134027333Y-100814471D01*
X134027333Y-101397735D01*
X134018561Y-101687259D01*
X133995507Y-101895999D01*
X133963058Y-101980788D01*
X133961273Y-101981000D01*
X133882311Y-101917205D01*
X133738516Y-101749874D01*
X133560869Y-101515091D01*
X133559106Y-101512636D01*
X133361675Y-101255492D01*
X133218903Y-101121495D01*
X133101684Y-101086630D01*
X133053666Y-101095590D01*
X132722857Y-101186212D01*
X132425204Y-101250933D01*
X132204198Y-101281679D01*
X132104547Y-101271770D01*
X132123504Y-101183717D01*
G36*
X134689991Y-89301588D02*
G01*
X134852833Y-89321375D01*
X135075172Y-89369242D01*
X135449209Y-89439703D01*
X135959226Y-89529941D01*
X136589506Y-89637142D01*
X136948333Y-89696802D01*
X137251923Y-89751138D01*
X137636199Y-89825602D01*
X138006666Y-89901707D01*
X138364339Y-89974281D01*
X138820604Y-90061937D01*
X139307057Y-90151713D01*
X139615333Y-90206513D01*
X140097246Y-90290944D01*
X140607938Y-90381046D01*
X141072994Y-90463663D01*
X141308666Y-90505877D01*
X141634786Y-90564189D01*
X141889117Y-90608913D01*
X142032208Y-90633143D01*
X142049500Y-90635551D01*
X142057823Y-90714701D01*
X142064607Y-90929797D01*
X142069127Y-91247455D01*
X142070666Y-91611990D01*
X142066397Y-92051013D01*
X142051468Y-92347223D01*
X142022700Y-92526976D01*
X141976914Y-92616629D01*
X141947158Y-92635709D01*
X141785518Y-92644734D01*
X141560814Y-92602296D01*
X141544991Y-92597573D01*
X141287306Y-92534082D01*
X140966902Y-92475010D01*
X140843000Y-92457115D01*
X140522005Y-92408220D01*
X140215848Y-92350274D01*
X140123333Y-92329224D01*
X139863947Y-92270654D01*
X139534956Y-92203137D01*
X139361333Y-92169882D01*
X139040403Y-92110141D01*
X138637550Y-92034860D01*
X138237260Y-91959827D01*
X138218333Y-91956271D01*
X137784251Y-91875899D01*
X137309034Y-91789687D01*
X136914202Y-91719581D01*
X136576697Y-91652643D01*
X136356911Y-91580444D01*
X136204224Y-91479411D01*
X136068015Y-91325976D01*
X136067536Y-91325355D01*
X135898277Y-91109724D01*
X135672937Y-90827238D01*
X135459661Y-90562959D01*
X135175101Y-90200901D01*
X134930556Y-89867498D01*
X134745255Y-89590831D01*
X134638430Y-89398983D01*
X134620000Y-89336834D01*
X134689991Y-89301588D01*
G37*
X134689991Y-89301588D02*
X134852833Y-89321375D01*
X135075172Y-89369242D01*
X135449209Y-89439703D01*
X135959226Y-89529941D01*
X136589506Y-89637142D01*
X136948333Y-89696802D01*
X137251923Y-89751138D01*
X137636199Y-89825602D01*
X138006666Y-89901707D01*
X138364339Y-89974281D01*
X138820604Y-90061937D01*
X139307057Y-90151713D01*
X139615333Y-90206513D01*
X140097246Y-90290944D01*
X140607938Y-90381046D01*
X141072994Y-90463663D01*
X141308666Y-90505877D01*
X141634786Y-90564189D01*
X141889117Y-90608913D01*
X142032208Y-90633143D01*
X142049500Y-90635551D01*
X142057823Y-90714701D01*
X142064607Y-90929797D01*
X142069127Y-91247455D01*
X142070666Y-91611990D01*
X142066397Y-92051013D01*
X142051468Y-92347223D01*
X142022700Y-92526976D01*
X141976914Y-92616629D01*
X141947158Y-92635709D01*
X141785518Y-92644734D01*
X141560814Y-92602296D01*
X141544991Y-92597573D01*
X141287306Y-92534082D01*
X140966902Y-92475010D01*
X140843000Y-92457115D01*
X140522005Y-92408220D01*
X140215848Y-92350274D01*
X140123333Y-92329224D01*
X139863947Y-92270654D01*
X139534956Y-92203137D01*
X139361333Y-92169882D01*
X139040403Y-92110141D01*
X138637550Y-92034860D01*
X138237260Y-91959827D01*
X138218333Y-91956271D01*
X137784251Y-91875899D01*
X137309034Y-91789687D01*
X136914202Y-91719581D01*
X136576697Y-91652643D01*
X136356911Y-91580444D01*
X136204224Y-91479411D01*
X136068015Y-91325976D01*
X136067536Y-91325355D01*
X135898277Y-91109724D01*
X135672937Y-90827238D01*
X135459661Y-90562959D01*
X135175101Y-90200901D01*
X134930556Y-89867498D01*
X134745255Y-89590831D01*
X134638430Y-89398983D01*
X134620000Y-89336834D01*
X134689991Y-89301588D01*
G36*
X134656216Y-98878048D02*
G01*
X134884523Y-98905651D01*
X135210194Y-98957824D01*
X135599196Y-99028773D01*
X136017495Y-99112708D01*
X136355666Y-99186519D01*
X136580492Y-99233792D01*
X136920372Y-99300683D01*
X137323644Y-99377172D01*
X137625666Y-99432820D01*
X138187251Y-99535165D01*
X138807745Y-99648684D01*
X139450090Y-99766558D01*
X140077227Y-99881965D01*
X140652097Y-99988086D01*
X141137642Y-100078100D01*
X141496803Y-100145187D01*
X141520333Y-100149616D01*
X142028333Y-100245333D01*
X142052269Y-101249753D01*
X142076206Y-102254173D01*
X141798269Y-102210503D01*
X141423361Y-102148768D01*
X140928551Y-102063194D01*
X140360197Y-101962054D01*
X139764658Y-101853621D01*
X139188294Y-101746166D01*
X139065000Y-101722780D01*
X138672015Y-101648124D01*
X138327865Y-101583031D01*
X138074382Y-101535396D01*
X137964333Y-101515046D01*
X137402469Y-101415663D01*
X136979624Y-101339545D01*
X136669235Y-101274497D01*
X136444743Y-101208322D01*
X136279586Y-101128824D01*
X136147205Y-101023806D01*
X136021039Y-100881072D01*
X135874526Y-100688426D01*
X135720666Y-100484778D01*
X135573178Y-100293154D01*
X135359385Y-100015425D01*
X135116286Y-99699657D01*
X135013396Y-99566018D01*
X134805220Y-99286388D01*
X134649229Y-99058918D01*
X134565937Y-98914563D01*
X134559305Y-98880805D01*
X134656216Y-98878048D01*
G37*
X134656216Y-98878048D02*
X134884523Y-98905651D01*
X135210194Y-98957824D01*
X135599196Y-99028773D01*
X136017495Y-99112708D01*
X136355666Y-99186519D01*
X136580492Y-99233792D01*
X136920372Y-99300683D01*
X137323644Y-99377172D01*
X137625666Y-99432820D01*
X138187251Y-99535165D01*
X138807745Y-99648684D01*
X139450090Y-99766558D01*
X140077227Y-99881965D01*
X140652097Y-99988086D01*
X141137642Y-100078100D01*
X141496803Y-100145187D01*
X141520333Y-100149616D01*
X142028333Y-100245333D01*
X142052269Y-101249753D01*
X142076206Y-102254173D01*
X141798269Y-102210503D01*
X141423361Y-102148768D01*
X140928551Y-102063194D01*
X140360197Y-101962054D01*
X139764658Y-101853621D01*
X139188294Y-101746166D01*
X139065000Y-101722780D01*
X138672015Y-101648124D01*
X138327865Y-101583031D01*
X138074382Y-101535396D01*
X137964333Y-101515046D01*
X137402469Y-101415663D01*
X136979624Y-101339545D01*
X136669235Y-101274497D01*
X136444743Y-101208322D01*
X136279586Y-101128824D01*
X136147205Y-101023806D01*
X136021039Y-100881072D01*
X135874526Y-100688426D01*
X135720666Y-100484778D01*
X135573178Y-100293154D01*
X135359385Y-100015425D01*
X135116286Y-99699657D01*
X135013396Y-99566018D01*
X134805220Y-99286388D01*
X134649229Y-99058918D01*
X134565937Y-98914563D01*
X134559305Y-98880805D01*
X134656216Y-98878048D01*
G36*
X134547958Y-107956346D02*
G01*
X134647316Y-107953666D01*
X134880657Y-107978342D01*
X135215793Y-108025155D01*
X135620537Y-108088887D01*
X136062699Y-108164320D01*
X136510094Y-108246234D01*
X136930533Y-108329412D01*
X137181166Y-108383260D01*
X137414000Y-108435407D01*
X137414000Y-106079929D01*
X136927166Y-105981605D01*
X136573679Y-105913298D01*
X136156588Y-105837056D01*
X135847666Y-105783295D01*
X135507974Y-105723944D01*
X135199901Y-105666631D01*
X135001000Y-105626081D01*
X134747000Y-105568851D01*
X134723059Y-104569230D01*
X134699119Y-103569608D01*
X135104059Y-103625567D01*
X135445446Y-103678030D01*
X135905762Y-103756265D01*
X136438076Y-103851932D01*
X136995455Y-103956692D01*
X137287000Y-104013449D01*
X137613814Y-104076634D01*
X138066396Y-104162347D01*
X138603882Y-104262996D01*
X139185406Y-104370987D01*
X139770103Y-104478726D01*
X140317110Y-104578620D01*
X140716000Y-104650631D01*
X141097021Y-104720288D01*
X141442067Y-104785807D01*
X141698378Y-104837070D01*
X141774333Y-104853626D01*
X142028333Y-104912482D01*
X142076239Y-106914710D01*
X141755953Y-106865999D01*
X141524811Y-106828595D01*
X141187732Y-106771334D01*
X140805395Y-106704579D01*
X140673666Y-106681166D01*
X140290266Y-106613478D01*
X139931607Y-106551544D01*
X139658137Y-106505759D01*
X139594166Y-106495540D01*
X139276666Y-106446037D01*
X139276666Y-108751107D01*
X139509500Y-108797024D01*
X139740787Y-108843962D01*
X140034036Y-108905101D01*
X140123333Y-108924014D01*
X140383005Y-108976264D01*
X140745189Y-109045321D01*
X141145560Y-109119004D01*
X141287500Y-109144467D01*
X142070666Y-109283848D01*
X142070666Y-111209666D01*
X141738223Y-111209666D01*
X141512822Y-111192523D01*
X141175763Y-111146389D01*
X140780646Y-111079209D01*
X140531723Y-111030821D01*
X139931965Y-110909277D01*
X139433836Y-110811584D01*
X138973473Y-110725740D01*
X138487010Y-110639740D01*
X138091333Y-110572099D01*
X137531277Y-110473769D01*
X137043795Y-110381372D01*
X136659120Y-110300941D01*
X136407485Y-110238508D01*
X136384639Y-110231561D01*
X136265845Y-110145027D01*
X136086870Y-109959730D01*
X135885538Y-109714998D01*
X135876853Y-109703605D01*
X135690066Y-109459898D01*
X135543532Y-109272668D01*
X135466949Y-109179819D01*
X135464800Y-109177666D01*
X135394271Y-109093611D01*
X135251741Y-108913386D01*
X135067728Y-108675596D01*
X135063182Y-108669666D01*
X134868838Y-108417717D01*
X134706053Y-108209456D01*
X134612221Y-108092597D01*
X134546271Y-107985504D01*
X134547958Y-107956346D01*
G37*
X134547958Y-107956346D02*
X134647316Y-107953666D01*
X134880657Y-107978342D01*
X135215793Y-108025155D01*
X135620537Y-108088887D01*
X136062699Y-108164320D01*
X136510094Y-108246234D01*
X136930533Y-108329412D01*
X137181166Y-108383260D01*
X137414000Y-108435407D01*
X137414000Y-106079929D01*
X136927166Y-105981605D01*
X136573679Y-105913298D01*
X136156588Y-105837056D01*
X135847666Y-105783295D01*
X135507974Y-105723944D01*
X135199901Y-105666631D01*
X135001000Y-105626081D01*
X134747000Y-105568851D01*
X134723059Y-104569230D01*
X134699119Y-103569608D01*
X135104059Y-103625567D01*
X135445446Y-103678030D01*
X135905762Y-103756265D01*
X136438076Y-103851932D01*
X136995455Y-103956692D01*
X137287000Y-104013449D01*
X137613814Y-104076634D01*
X138066396Y-104162347D01*
X138603882Y-104262996D01*
X139185406Y-104370987D01*
X139770103Y-104478726D01*
X140317110Y-104578620D01*
X140716000Y-104650631D01*
X141097021Y-104720288D01*
X141442067Y-104785807D01*
X141698378Y-104837070D01*
X141774333Y-104853626D01*
X142028333Y-104912482D01*
X142076239Y-106914710D01*
X141755953Y-106865999D01*
X141524811Y-106828595D01*
X141187732Y-106771334D01*
X140805395Y-106704579D01*
X140673666Y-106681166D01*
X140290266Y-106613478D01*
X139931607Y-106551544D01*
X139658137Y-106505759D01*
X139594166Y-106495540D01*
X139276666Y-106446037D01*
X139276666Y-108751107D01*
X139509500Y-108797024D01*
X139740787Y-108843962D01*
X140034036Y-108905101D01*
X140123333Y-108924014D01*
X140383005Y-108976264D01*
X140745189Y-109045321D01*
X141145560Y-109119004D01*
X141287500Y-109144467D01*
X142070666Y-109283848D01*
X142070666Y-111209666D01*
X141738223Y-111209666D01*
X141512822Y-111192523D01*
X141175763Y-111146389D01*
X140780646Y-111079209D01*
X140531723Y-111030821D01*
X139931965Y-110909277D01*
X139433836Y-110811584D01*
X138973473Y-110725740D01*
X138487010Y-110639740D01*
X138091333Y-110572099D01*
X137531277Y-110473769D01*
X137043795Y-110381372D01*
X136659120Y-110300941D01*
X136407485Y-110238508D01*
X136384639Y-110231561D01*
X136265845Y-110145027D01*
X136086870Y-109959730D01*
X135885538Y-109714998D01*
X135876853Y-109703605D01*
X135690066Y-109459898D01*
X135543532Y-109272668D01*
X135466949Y-109179819D01*
X135464800Y-109177666D01*
X135394271Y-109093611D01*
X135251741Y-108913386D01*
X135067728Y-108675596D01*
X135063182Y-108669666D01*
X134868838Y-108417717D01*
X134706053Y-108209456D01*
X134612221Y-108092597D01*
X134546271Y-107985504D01*
X134547958Y-107956346D01*
G36*
X134937500Y-79658010D02*
G01*
X135128106Y-79693072D01*
X135429084Y-79748760D01*
X135784335Y-79814689D01*
X135890000Y-79834334D01*
X136254895Y-79901571D01*
X136727394Y-79987726D01*
X137248380Y-80082061D01*
X137758740Y-80173840D01*
X137795000Y-80180332D01*
X138338393Y-80278004D01*
X138777300Y-80358275D01*
X139167507Y-80431814D01*
X139564800Y-80509293D01*
X140024966Y-80601381D01*
X140504333Y-80698526D01*
X141089111Y-80815028D01*
X141552518Y-80902387D01*
X141879637Y-80957897D01*
X142049500Y-80978619D01*
X142148091Y-81029080D01*
X142155333Y-81055459D01*
X142095659Y-81131039D01*
X141928393Y-81303462D01*
X141671168Y-81555582D01*
X141341616Y-81870258D01*
X140957368Y-82230346D01*
X140740230Y-82431292D01*
X140272876Y-82863059D01*
X139792739Y-83308562D01*
X139332661Y-83737192D01*
X138925485Y-84118338D01*
X138604052Y-84421391D01*
X138555739Y-84467278D01*
X137786352Y-85199222D01*
X138087009Y-85246517D01*
X139658074Y-85513550D01*
X140927666Y-85763455D01*
X141323324Y-85845737D01*
X141657818Y-85913485D01*
X141896806Y-85959870D01*
X142005947Y-85978065D01*
X142007166Y-85978110D01*
X142031619Y-86057689D01*
X142051704Y-86273920D01*
X142065394Y-86594142D01*
X142070659Y-86985689D01*
X142070666Y-87000705D01*
X142068734Y-87430909D01*
X142060277Y-87718092D01*
X142041304Y-87888548D01*
X142007824Y-87968571D01*
X141955845Y-87984455D01*
X141922500Y-87976817D01*
X141775448Y-87943382D01*
X141508432Y-87892795D01*
X141168824Y-87833840D01*
X141012333Y-87808112D01*
X140609158Y-87739633D01*
X140212724Y-87666709D01*
X139893436Y-87602433D01*
X139827000Y-87587665D01*
X139535756Y-87527050D01*
X139151961Y-87455597D01*
X138750585Y-87387154D01*
X138684000Y-87376499D01*
X138261436Y-87304715D01*
X137761132Y-87212402D01*
X137270620Y-87115895D01*
X137117666Y-87084194D01*
X136691805Y-86986229D01*
X136381608Y-86882427D01*
X136139694Y-86742054D01*
X135918682Y-86534376D01*
X135671189Y-86228659D01*
X135551333Y-86068209D01*
X135372887Y-85834578D01*
X135149561Y-85552249D01*
X135022166Y-85395184D01*
X134852368Y-85180957D01*
X134737158Y-85021447D01*
X134704666Y-84961047D01*
X134733409Y-84921534D01*
X134825410Y-84826928D01*
X134989325Y-84669202D01*
X135233812Y-84440331D01*
X135567525Y-84132290D01*
X135999123Y-83737052D01*
X136537262Y-83246592D01*
X137190599Y-82652885D01*
X137365638Y-82494017D01*
X137707242Y-82184035D01*
X137370121Y-82126615D01*
X136883106Y-82041646D01*
X136345072Y-81944532D01*
X135818550Y-81846797D01*
X135366076Y-81759965D01*
X135191500Y-81725125D01*
X134704666Y-81626070D01*
X134704666Y-79615545D01*
X134937500Y-79658010D01*
G37*
X134937500Y-79658010D02*
X135128106Y-79693072D01*
X135429084Y-79748760D01*
X135784335Y-79814689D01*
X135890000Y-79834334D01*
X136254895Y-79901571D01*
X136727394Y-79987726D01*
X137248380Y-80082061D01*
X137758740Y-80173840D01*
X137795000Y-80180332D01*
X138338393Y-80278004D01*
X138777300Y-80358275D01*
X139167507Y-80431814D01*
X139564800Y-80509293D01*
X140024966Y-80601381D01*
X140504333Y-80698526D01*
X141089111Y-80815028D01*
X141552518Y-80902387D01*
X141879637Y-80957897D01*
X142049500Y-80978619D01*
X142148091Y-81029080D01*
X142155333Y-81055459D01*
X142095659Y-81131039D01*
X141928393Y-81303462D01*
X141671168Y-81555582D01*
X141341616Y-81870258D01*
X140957368Y-82230346D01*
X140740230Y-82431292D01*
X140272876Y-82863059D01*
X139792739Y-83308562D01*
X139332661Y-83737192D01*
X138925485Y-84118338D01*
X138604052Y-84421391D01*
X138555739Y-84467278D01*
X137786352Y-85199222D01*
X138087009Y-85246517D01*
X139658074Y-85513550D01*
X140927666Y-85763455D01*
X141323324Y-85845737D01*
X141657818Y-85913485D01*
X141896806Y-85959870D01*
X142005947Y-85978065D01*
X142007166Y-85978110D01*
X142031619Y-86057689D01*
X142051704Y-86273920D01*
X142065394Y-86594142D01*
X142070659Y-86985689D01*
X142070666Y-87000705D01*
X142068734Y-87430909D01*
X142060277Y-87718092D01*
X142041304Y-87888548D01*
X142007824Y-87968571D01*
X141955845Y-87984455D01*
X141922500Y-87976817D01*
X141775448Y-87943382D01*
X141508432Y-87892795D01*
X141168824Y-87833840D01*
X141012333Y-87808112D01*
X140609158Y-87739633D01*
X140212724Y-87666709D01*
X139893436Y-87602433D01*
X139827000Y-87587665D01*
X139535756Y-87527050D01*
X139151961Y-87455597D01*
X138750585Y-87387154D01*
X138684000Y-87376499D01*
X138261436Y-87304715D01*
X137761132Y-87212402D01*
X137270620Y-87115895D01*
X137117666Y-87084194D01*
X136691805Y-86986229D01*
X136381608Y-86882427D01*
X136139694Y-86742054D01*
X135918682Y-86534376D01*
X135671189Y-86228659D01*
X135551333Y-86068209D01*
X135372887Y-85834578D01*
X135149561Y-85552249D01*
X135022166Y-85395184D01*
X134852368Y-85180957D01*
X134737158Y-85021447D01*
X134704666Y-84961047D01*
X134733409Y-84921534D01*
X134825410Y-84826928D01*
X134989325Y-84669202D01*
X135233812Y-84440331D01*
X135567525Y-84132290D01*
X135999123Y-83737052D01*
X136537262Y-83246592D01*
X137190599Y-82652885D01*
X137365638Y-82494017D01*
X137707242Y-82184035D01*
X137370121Y-82126615D01*
X136883106Y-82041646D01*
X136345072Y-81944532D01*
X135818550Y-81846797D01*
X135366076Y-81759965D01*
X135191500Y-81725125D01*
X134704666Y-81626070D01*
X134704666Y-79615545D01*
X134937500Y-79658010D01*
G36*
X134598571Y-75544556D02*
G01*
X134652939Y-75505707D01*
X134767981Y-75418340D01*
X134967260Y-75247584D01*
X135212255Y-75026683D01*
X135270961Y-74972333D01*
X135559838Y-74706037D01*
X135848418Y-74444131D01*
X136077179Y-74240605D01*
X136088963Y-74230333D01*
X136284638Y-74028945D01*
X136352051Y-73882819D01*
X136343151Y-73849333D01*
X136267494Y-73743718D01*
X136110406Y-73536716D01*
X135895799Y-73259513D01*
X135678665Y-72982666D01*
X135344144Y-72561160D01*
X135095989Y-72241434D01*
X134921407Y-71988005D01*
X134807603Y-71765392D01*
X134741783Y-71538111D01*
X134711153Y-71270681D01*
X134702919Y-70927619D01*
X134704287Y-70473442D01*
X134704666Y-70281430D01*
X134709145Y-69793176D01*
X134721671Y-69385189D01*
X134740877Y-69082038D01*
X134765399Y-68908293D01*
X134782786Y-68876333D01*
X134885700Y-68945300D01*
X135080187Y-69148836D01*
X135362000Y-69481897D01*
X135726893Y-69939438D01*
X136170617Y-70516415D01*
X136233213Y-70599063D01*
X136537352Y-71000361D01*
X136861859Y-71427057D01*
X137161908Y-71820279D01*
X137339386Y-72051899D01*
X137815106Y-72671005D01*
X138730228Y-71824421D01*
X139089749Y-71494659D01*
X139350937Y-71265592D01*
X139537931Y-71120974D01*
X139674870Y-71044563D01*
X139785892Y-71020116D01*
X139895138Y-71031388D01*
X139905508Y-71033557D01*
X140106975Y-71072912D01*
X140419602Y-71129748D01*
X140787474Y-71193986D01*
X140927666Y-71217827D01*
X141403484Y-71298778D01*
X141737295Y-71358594D01*
X141954169Y-71403690D01*
X142079174Y-71440481D01*
X142137381Y-71475384D01*
X142153860Y-71514815D01*
X142154401Y-71531776D01*
X142095113Y-71620196D01*
X141932259Y-71800518D01*
X141687338Y-72050484D01*
X141381851Y-72347836D01*
X141202774Y-72517000D01*
X140815721Y-72879573D01*
X140419572Y-73251765D01*
X140055196Y-73595108D01*
X139763465Y-73871134D01*
X139706153Y-73925609D01*
X139160227Y-74445218D01*
X139499855Y-74856942D01*
X139682320Y-75083612D01*
X139934646Y-75404437D01*
X140224780Y-75778341D01*
X140520670Y-76164248D01*
X140547883Y-76200000D01*
X140808729Y-76541534D01*
X141033445Y-76833128D01*
X141201974Y-77048951D01*
X141294256Y-77163173D01*
X141303961Y-77173666D01*
X141397012Y-77278596D01*
X141550220Y-77472742D01*
X141735593Y-77718033D01*
X141925142Y-77976392D01*
X142090875Y-78209745D01*
X142204801Y-78380019D01*
X142240000Y-78446903D01*
X142172552Y-78487191D01*
X142091833Y-78480338D01*
X141953343Y-78454592D01*
X141686334Y-78408364D01*
X141329441Y-78348242D01*
X140927666Y-78281854D01*
X140515781Y-78211278D01*
X140151874Y-78143152D01*
X139876161Y-78085378D01*
X139731167Y-78046757D01*
X139618658Y-77958429D01*
X139426487Y-77759770D01*
X139176897Y-77475688D01*
X138892134Y-77131089D01*
X138724580Y-76919666D01*
X138438843Y-76554168D01*
X138188114Y-76234522D01*
X137991617Y-75985155D01*
X137868577Y-75830490D01*
X137838180Y-75793500D01*
X137755367Y-75820214D01*
X137568884Y-75939828D01*
X137303403Y-76134778D01*
X136983596Y-76387505D01*
X136855100Y-76493254D01*
X136515157Y-76767843D01*
X136214187Y-76995718D01*
X135978893Y-77157785D01*
X135835979Y-77234948D01*
X135813011Y-77238420D01*
X135722579Y-77167084D01*
X135559084Y-76992220D01*
X135349167Y-76747166D01*
X135119473Y-76465261D01*
X134896643Y-76179844D01*
X134707321Y-75924252D01*
X134578148Y-75731826D01*
X134535333Y-75639627D01*
X134598571Y-75544556D01*
G37*
X134598571Y-75544556D02*
X134652939Y-75505707D01*
X134767981Y-75418340D01*
X134967260Y-75247584D01*
X135212255Y-75026683D01*
X135270961Y-74972333D01*
X135559838Y-74706037D01*
X135848418Y-74444131D01*
X136077179Y-74240605D01*
X136088963Y-74230333D01*
X136284638Y-74028945D01*
X136352051Y-73882819D01*
X136343151Y-73849333D01*
X136267494Y-73743718D01*
X136110406Y-73536716D01*
X135895799Y-73259513D01*
X135678665Y-72982666D01*
X135344144Y-72561160D01*
X135095989Y-72241434D01*
X134921407Y-71988005D01*
X134807603Y-71765392D01*
X134741783Y-71538111D01*
X134711153Y-71270681D01*
X134702919Y-70927619D01*
X134704287Y-70473442D01*
X134704666Y-70281430D01*
X134709145Y-69793176D01*
X134721671Y-69385189D01*
X134740877Y-69082038D01*
X134765399Y-68908293D01*
X134782786Y-68876333D01*
X134885700Y-68945300D01*
X135080187Y-69148836D01*
X135362000Y-69481897D01*
X135726893Y-69939438D01*
X136170617Y-70516415D01*
X136233213Y-70599063D01*
X136537352Y-71000361D01*
X136861859Y-71427057D01*
X137161908Y-71820279D01*
X137339386Y-72051899D01*
X137815106Y-72671005D01*
X138730228Y-71824421D01*
X139089749Y-71494659D01*
X139350937Y-71265592D01*
X139537931Y-71120974D01*
X139674870Y-71044563D01*
X139785892Y-71020116D01*
X139895138Y-71031388D01*
X139905508Y-71033557D01*
X140106975Y-71072912D01*
X140419602Y-71129748D01*
X140787474Y-71193986D01*
X140927666Y-71217827D01*
X141403484Y-71298778D01*
X141737295Y-71358594D01*
X141954169Y-71403690D01*
X142079174Y-71440481D01*
X142137381Y-71475384D01*
X142153860Y-71514815D01*
X142154401Y-71531776D01*
X142095113Y-71620196D01*
X141932259Y-71800518D01*
X141687338Y-72050484D01*
X141381851Y-72347836D01*
X141202774Y-72517000D01*
X140815721Y-72879573D01*
X140419572Y-73251765D01*
X140055196Y-73595108D01*
X139763465Y-73871134D01*
X139706153Y-73925609D01*
X139160227Y-74445218D01*
X139499855Y-74856942D01*
X139682320Y-75083612D01*
X139934646Y-75404437D01*
X140224780Y-75778341D01*
X140520670Y-76164248D01*
X140547883Y-76200000D01*
X140808729Y-76541534D01*
X141033445Y-76833128D01*
X141201974Y-77048951D01*
X141294256Y-77163173D01*
X141303961Y-77173666D01*
X141397012Y-77278596D01*
X141550220Y-77472742D01*
X141735593Y-77718033D01*
X141925142Y-77976392D01*
X142090875Y-78209745D01*
X142204801Y-78380019D01*
X142240000Y-78446903D01*
X142172552Y-78487191D01*
X142091833Y-78480338D01*
X141953343Y-78454592D01*
X141686334Y-78408364D01*
X141329441Y-78348242D01*
X140927666Y-78281854D01*
X140515781Y-78211278D01*
X140151874Y-78143152D01*
X139876161Y-78085378D01*
X139731167Y-78046757D01*
X139618658Y-77958429D01*
X139426487Y-77759770D01*
X139176897Y-77475688D01*
X138892134Y-77131089D01*
X138724580Y-76919666D01*
X138438843Y-76554168D01*
X138188114Y-76234522D01*
X137991617Y-75985155D01*
X137868577Y-75830490D01*
X137838180Y-75793500D01*
X137755367Y-75820214D01*
X137568884Y-75939828D01*
X137303403Y-76134778D01*
X136983596Y-76387505D01*
X136855100Y-76493254D01*
X136515157Y-76767843D01*
X136214187Y-76995718D01*
X135978893Y-77157785D01*
X135835979Y-77234948D01*
X135813011Y-77238420D01*
X135722579Y-77167084D01*
X135559084Y-76992220D01*
X135349167Y-76747166D01*
X135119473Y-76465261D01*
X134896643Y-76179844D01*
X134707321Y-75924252D01*
X134578148Y-75731826D01*
X134535333Y-75639627D01*
X134598571Y-75544556D01*
G36*
X134642528Y-94145774D02*
G01*
X134723131Y-94120955D01*
X134881330Y-94124303D01*
X135136651Y-94158006D01*
X135508617Y-94224254D01*
X136016752Y-94325235D01*
X136313333Y-94386390D01*
X136685806Y-94460346D01*
X137051123Y-94527273D01*
X137329333Y-94572549D01*
X137551155Y-94608610D01*
X137896867Y-94670120D01*
X138324303Y-94749354D01*
X138791301Y-94838592D01*
X138938000Y-94867175D01*
X139475561Y-94971726D01*
X140111531Y-95094316D01*
X140777864Y-95221890D01*
X141406513Y-95341392D01*
X141605000Y-95378886D01*
X142272151Y-95512487D01*
X142798084Y-95638846D01*
X143209958Y-95768658D01*
X143534934Y-95912614D01*
X143800175Y-96081407D01*
X144032842Y-96285728D01*
X144108728Y-96364518D01*
X144374092Y-96663576D01*
X144552769Y-96916899D01*
X144663693Y-97173836D01*
X144725798Y-97483736D01*
X144758018Y-97895949D01*
X144765886Y-98077311D01*
X144800104Y-98957288D01*
X144430219Y-98904621D01*
X143993909Y-98837252D01*
X143605066Y-98767532D01*
X143299967Y-98702693D01*
X143114892Y-98649969D01*
X143086895Y-98636808D01*
X143031589Y-98525177D01*
X143003056Y-98316251D01*
X143002000Y-98265428D01*
X142935589Y-97939672D01*
X142732481Y-97702838D01*
X142386862Y-97549747D01*
X142143442Y-97500723D01*
X141906246Y-97462674D01*
X141542011Y-97399577D01*
X141089970Y-97318440D01*
X140589357Y-97226269D01*
X140250333Y-97162593D01*
X139737813Y-97065703D01*
X139246762Y-96973198D01*
X138816809Y-96892520D01*
X138487581Y-96831111D01*
X138345333Y-96804863D01*
X138019162Y-96741220D01*
X137709773Y-96674430D01*
X137583333Y-96644128D01*
X137326838Y-96590774D01*
X136995221Y-96537091D01*
X136797904Y-96511167D01*
X136308809Y-96453821D01*
X135464404Y-95369983D01*
X135179650Y-94999214D01*
X134935883Y-94671753D01*
X134750695Y-94412047D01*
X134641679Y-94244545D01*
X134620000Y-94196572D01*
X134642528Y-94145774D01*
G37*
X134642528Y-94145774D02*
X134723131Y-94120955D01*
X134881330Y-94124303D01*
X135136651Y-94158006D01*
X135508617Y-94224254D01*
X136016752Y-94325235D01*
X136313333Y-94386390D01*
X136685806Y-94460346D01*
X137051123Y-94527273D01*
X137329333Y-94572549D01*
X137551155Y-94608610D01*
X137896867Y-94670120D01*
X138324303Y-94749354D01*
X138791301Y-94838592D01*
X138938000Y-94867175D01*
X139475561Y-94971726D01*
X140111531Y-95094316D01*
X140777864Y-95221890D01*
X141406513Y-95341392D01*
X141605000Y-95378886D01*
X142272151Y-95512487D01*
X142798084Y-95638846D01*
X143209958Y-95768658D01*
X143534934Y-95912614D01*
X143800175Y-96081407D01*
X144032842Y-96285728D01*
X144108728Y-96364518D01*
X144374092Y-96663576D01*
X144552769Y-96916899D01*
X144663693Y-97173836D01*
X144725798Y-97483736D01*
X144758018Y-97895949D01*
X144765886Y-98077311D01*
X144800104Y-98957288D01*
X144430219Y-98904621D01*
X143993909Y-98837252D01*
X143605066Y-98767532D01*
X143299967Y-98702693D01*
X143114892Y-98649969D01*
X143086895Y-98636808D01*
X143031589Y-98525177D01*
X143003056Y-98316251D01*
X143002000Y-98265428D01*
X142935589Y-97939672D01*
X142732481Y-97702838D01*
X142386862Y-97549747D01*
X142143442Y-97500723D01*
X141906246Y-97462674D01*
X141542011Y-97399577D01*
X141089970Y-97318440D01*
X140589357Y-97226269D01*
X140250333Y-97162593D01*
X139737813Y-97065703D01*
X139246762Y-96973198D01*
X138816809Y-96892520D01*
X138487581Y-96831111D01*
X138345333Y-96804863D01*
X138019162Y-96741220D01*
X137709773Y-96674430D01*
X137583333Y-96644128D01*
X137326838Y-96590774D01*
X136995221Y-96537091D01*
X136797904Y-96511167D01*
X136308809Y-96453821D01*
X135464404Y-95369983D01*
X135179650Y-94999214D01*
X134935883Y-94671753D01*
X134750695Y-94412047D01*
X134641679Y-94244545D01*
X134620000Y-94196572D01*
X134642528Y-94145774D01*
D14*
G36*
X178965000Y-100150000D02*
G01*
X178711000Y-100404000D01*
X178457000Y-100023000D01*
X178711000Y-99769000D01*
X178965000Y-100150000D01*
G37*
X178965000Y-100150000D02*
X178711000Y-100404000D01*
X178457000Y-100023000D01*
X178711000Y-99769000D01*
X178965000Y-100150000D01*
G36*
X178584000Y-100531000D02*
G01*
X178330000Y-100785000D01*
X178076000Y-100404000D01*
X178330000Y-100150000D01*
X178584000Y-100531000D01*
G37*
X178584000Y-100531000D02*
X178330000Y-100785000D01*
X178076000Y-100404000D01*
X178330000Y-100150000D01*
X178584000Y-100531000D01*
G36*
X176679000Y-99769000D02*
G01*
X176425000Y-100023000D01*
X176171000Y-99642000D01*
X176425000Y-99388000D01*
X176679000Y-99769000D01*
G37*
X176679000Y-99769000D02*
X176425000Y-100023000D01*
X176171000Y-99642000D01*
X176425000Y-99388000D01*
X176679000Y-99769000D01*
G36*
X177060000Y-100277000D02*
G01*
X176806000Y-100531000D01*
X176552000Y-100150000D01*
X176806000Y-99896000D01*
X177060000Y-100277000D01*
G37*
X177060000Y-100277000D02*
X176806000Y-100531000D01*
X176552000Y-100150000D01*
X176806000Y-99896000D01*
X177060000Y-100277000D01*
G36*
X177441000Y-100785000D02*
G01*
X177187000Y-101039000D01*
X176933000Y-100658000D01*
X177187000Y-100404000D01*
X177441000Y-100785000D01*
G37*
X177441000Y-100785000D02*
X177187000Y-101039000D01*
X176933000Y-100658000D01*
X177187000Y-100404000D01*
X177441000Y-100785000D01*
G36*
X177441000Y-99896000D02*
G01*
X177187000Y-100150000D01*
X176933000Y-99769000D01*
X177187000Y-99515000D01*
X177441000Y-99896000D01*
G37*
X177441000Y-99896000D02*
X177187000Y-100150000D01*
X176933000Y-99769000D01*
X177187000Y-99515000D01*
X177441000Y-99896000D01*
G36*
X177822000Y-100404000D02*
G01*
X177568000Y-100658000D01*
X177314000Y-100277000D01*
X177568000Y-100023000D01*
X177822000Y-100404000D01*
G37*
X177822000Y-100404000D02*
X177568000Y-100658000D01*
X177314000Y-100277000D01*
X177568000Y-100023000D01*
X177822000Y-100404000D01*
G36*
X178203000Y-100912000D02*
G01*
X177949000Y-101166000D01*
X177695000Y-100785000D01*
X177949000Y-100531000D01*
X178203000Y-100912000D01*
G37*
X178203000Y-100912000D02*
X177949000Y-101166000D01*
X177695000Y-100785000D01*
X177949000Y-100531000D01*
X178203000Y-100912000D01*
D10*
X145288000Y-109347000D02*
X145288000Y-91567000D01*
X206248000Y-109347000D02*
X145288000Y-109347000D01*
X206248000Y-91567000D02*
X206248000Y-109347000D01*
X145288000Y-91567000D02*
X206248000Y-91567000D01*
X150368000Y-104267000D02*
X145288000Y-104267000D01*
X150368000Y-96647000D02*
X145288000Y-96647000D01*
X150368000Y-104267000D02*
X150368000Y-96647000D01*
X144018000Y-96647000D02*
X145288000Y-96647000D01*
X144018000Y-104267000D02*
X144018000Y-96647000D01*
X145288000Y-104267000D02*
X144018000Y-104267000D01*
X206248000Y-94107000D02*
X193548000Y-94107000D01*
X193548000Y-94107000D02*
X193548000Y-106807000D01*
X193548000Y-106807000D02*
X206248000Y-106807000D01*
X206248000Y-95377000D02*
X204978000Y-95377000D01*
X204978000Y-95377000D02*
X204978000Y-105537000D01*
X204978000Y-105537000D02*
X206248000Y-105537000D01*
X189738000Y-99187000D02*
X189738000Y-101727000D01*
X189738000Y-101727000D02*
X185928000Y-101727000D01*
X185928000Y-101727000D02*
X185928000Y-99187000D01*
X185928000Y-99187000D02*
X189738000Y-99187000D01*
X151587200Y-103756200D02*
X164287200Y-103756200D01*
X164287200Y-103756200D02*
X164287200Y-106296200D01*
X164287200Y-106296200D02*
X151587200Y-106296200D01*
X151587200Y-106296200D02*
X151587200Y-103756200D01*
X151587200Y-103756200D02*
X154127200Y-103756200D01*
X154127200Y-103756200D02*
X154127200Y-106296200D01*
X158518000Y-94355400D02*
X158518000Y-100355400D01*
X158518000Y-100355400D02*
X162518000Y-100355400D01*
X162518000Y-100355400D02*
X162518000Y-94105400D01*
X162518000Y-94105400D02*
X158518000Y-94105400D01*
X158518000Y-94105400D02*
X158518000Y-94355400D01*
X168148000Y-106807000D02*
X180848000Y-106807000D01*
X180848000Y-106807000D02*
X180848000Y-94107000D01*
X180848000Y-94107000D02*
X168148000Y-94107000D01*
X168148000Y-94107000D02*
X168148000Y-106807000D01*
X188731026Y-100457000D02*
G75*
G03X188731026Y-100457000I-898026J0D01*
G01*
D12*
X155149733Y-115572000D02*
X155492267Y-115572000D01*
X155149733Y-114552000D02*
X155492267Y-114552000D01*
X149159000Y-111760000D02*
G75*
G03X149159000Y-111760000I-950000J0D01*
G01*
X164145000Y-71247000D02*
G75*
G03X164145000Y-71247000I-950000J0D01*
G01*
D15*
X186801000Y-116470000D02*
G75*
G03X186801000Y-116470000I-127000J0D01*
G01*
X186854000Y-118096000D02*
X181954000Y-118096000D01*
X186854000Y-122696000D02*
X186854000Y-118096000D01*
X181954000Y-122696000D02*
X186854000Y-122696000D01*
X181954000Y-118096000D02*
X181954000Y-122696000D01*
X146415000Y-116216000D02*
G75*
G03X146415000Y-116216000I-127000J0D01*
G01*
X146468000Y-117842000D02*
X141568000Y-117842000D01*
X146468000Y-122442000D02*
X146468000Y-117842000D01*
X141568000Y-122442000D02*
X146468000Y-122442000D01*
X141568000Y-117842000D02*
X141568000Y-122442000D01*
X209407000Y-116470000D02*
G75*
G03X209407000Y-116470000I-127000J0D01*
G01*
X209460000Y-118096000D02*
X204560000Y-118096000D01*
X209460000Y-122696000D02*
X209460000Y-118096000D01*
X204560000Y-122696000D02*
X209460000Y-122696000D01*
X204560000Y-118096000D02*
X204560000Y-122696000D01*
D12*
X187958000Y-124415733D02*
X187958000Y-124758267D01*
X188978000Y-124415733D02*
X188978000Y-124758267D01*
X147191000Y-124288733D02*
X147191000Y-124631267D01*
X148211000Y-124288733D02*
X148211000Y-124631267D01*
X184321267Y-114425000D02*
X183978733Y-114425000D01*
X184321267Y-115445000D02*
X183978733Y-115445000D01*
X144316267Y-114425000D02*
X143973733Y-114425000D01*
X144316267Y-115445000D02*
X143973733Y-115445000D01*
X210437000Y-124401733D02*
X210437000Y-124744267D01*
X211457000Y-124401733D02*
X211457000Y-124744267D01*
X206673267Y-114044000D02*
X206330733Y-114044000D01*
X206673267Y-115064000D02*
X206330733Y-115064000D01*
X184321267Y-125601000D02*
X183978733Y-125601000D01*
X184321267Y-126621000D02*
X183978733Y-126621000D01*
X144316267Y-125601000D02*
X143973733Y-125601000D01*
X144316267Y-126621000D02*
X143973733Y-126621000D01*
X206786267Y-125474000D02*
X206443733Y-125474000D01*
X206786267Y-126494000D02*
X206443733Y-126494000D01*
X177419000Y-75438000D02*
X182499000Y-70358000D01*
X197919000Y-90858000D02*
X177419000Y-90858000D01*
X197919000Y-70358000D02*
X197919000Y-90858000D01*
X177419000Y-70358000D02*
X197919000Y-70358000D01*
X177419000Y-70358000D02*
X177419000Y-90858000D01*
X145921000Y-87218733D02*
X145921000Y-87561267D01*
X146941000Y-87218733D02*
X146941000Y-87561267D01*
X183843000Y-132412000D02*
X183843000Y-131162000D01*
X182593000Y-132412000D02*
X183843000Y-132412000D01*
X176483000Y-128002000D02*
X176483000Y-128502000D01*
X176383000Y-128502000D02*
X176383000Y-128002000D01*
X176583000Y-128502000D02*
X176383000Y-128502000D01*
X176583000Y-128002000D02*
X176583000Y-128502000D01*
X178483000Y-128002000D02*
X178483000Y-128502000D01*
X178383000Y-128502000D02*
X178383000Y-128002000D01*
X178583000Y-128502000D02*
X178383000Y-128502000D01*
X178583000Y-128002000D02*
X178583000Y-128502000D01*
X180483000Y-128002000D02*
X180483000Y-128502000D01*
X180383000Y-128502000D02*
X180383000Y-128002000D01*
X180583000Y-128502000D02*
X180383000Y-128502000D01*
X180583000Y-128002000D02*
X180583000Y-128502000D01*
X173423000Y-129502000D02*
X174033000Y-129502000D01*
X173423000Y-130802000D02*
X174033000Y-130802000D01*
X183543000Y-129502000D02*
X182933000Y-129502000D01*
X183543000Y-130802000D02*
X182933000Y-130802000D01*
X175983000Y-131502000D02*
X175983000Y-132112000D01*
X174033000Y-131502000D02*
X175983000Y-131502000D01*
X174033000Y-128002000D02*
X174033000Y-131502000D01*
X182933000Y-128002000D02*
X174033000Y-128002000D01*
X182933000Y-131502000D02*
X182933000Y-128002000D01*
X180983000Y-131502000D02*
X182933000Y-131502000D01*
X180983000Y-132112000D02*
X180983000Y-131502000D01*
X181783000Y-132212000D02*
X182083000Y-132212000D01*
X182083000Y-132312000D02*
X182083000Y-132112000D01*
X181783000Y-132312000D02*
X182083000Y-132312000D01*
X181783000Y-132112000D02*
X181783000Y-132312000D01*
X173423000Y-132112000D02*
X183543000Y-132112000D01*
X173423000Y-127392000D02*
X173423000Y-132112000D01*
X183543000Y-127392000D02*
X173423000Y-127392000D01*
X183543000Y-132112000D02*
X183543000Y-127392000D01*
X145235000Y-132412000D02*
X145235000Y-131162000D01*
X143985000Y-132412000D02*
X145235000Y-132412000D01*
X137875000Y-128002000D02*
X137875000Y-128502000D01*
X137775000Y-128502000D02*
X137775000Y-128002000D01*
X137975000Y-128502000D02*
X137775000Y-128502000D01*
X137975000Y-128002000D02*
X137975000Y-128502000D01*
X139875000Y-128002000D02*
X139875000Y-128502000D01*
X139775000Y-128502000D02*
X139775000Y-128002000D01*
X139975000Y-128502000D02*
X139775000Y-128502000D01*
X139975000Y-128002000D02*
X139975000Y-128502000D01*
X141875000Y-128002000D02*
X141875000Y-128502000D01*
X141775000Y-128502000D02*
X141775000Y-128002000D01*
X141975000Y-128502000D02*
X141775000Y-128502000D01*
X141975000Y-128002000D02*
X141975000Y-128502000D01*
X134815000Y-129502000D02*
X135425000Y-129502000D01*
X134815000Y-130802000D02*
X135425000Y-130802000D01*
X144935000Y-129502000D02*
X144325000Y-129502000D01*
X144935000Y-130802000D02*
X144325000Y-130802000D01*
X137375000Y-131502000D02*
X137375000Y-132112000D01*
X135425000Y-131502000D02*
X137375000Y-131502000D01*
X135425000Y-128002000D02*
X135425000Y-131502000D01*
X144325000Y-128002000D02*
X135425000Y-128002000D01*
X144325000Y-131502000D02*
X144325000Y-128002000D01*
X142375000Y-131502000D02*
X144325000Y-131502000D01*
X142375000Y-132112000D02*
X142375000Y-131502000D01*
X143175000Y-132212000D02*
X143475000Y-132212000D01*
X143475000Y-132312000D02*
X143475000Y-132112000D01*
X143175000Y-132312000D02*
X143475000Y-132312000D01*
X143175000Y-132112000D02*
X143175000Y-132312000D01*
X134815000Y-132112000D02*
X144935000Y-132112000D01*
X134815000Y-127392000D02*
X134815000Y-132112000D01*
X144935000Y-127392000D02*
X134815000Y-127392000D01*
X144935000Y-132112000D02*
X144935000Y-127392000D01*
X205814000Y-132412000D02*
X205814000Y-131162000D01*
X204564000Y-132412000D02*
X205814000Y-132412000D01*
X198454000Y-128002000D02*
X198454000Y-128502000D01*
X198354000Y-128502000D02*
X198354000Y-128002000D01*
X198554000Y-128502000D02*
X198354000Y-128502000D01*
X198554000Y-128002000D02*
X198554000Y-128502000D01*
X200454000Y-128002000D02*
X200454000Y-128502000D01*
X200354000Y-128502000D02*
X200354000Y-128002000D01*
X200554000Y-128502000D02*
X200354000Y-128502000D01*
X200554000Y-128002000D02*
X200554000Y-128502000D01*
X202454000Y-128002000D02*
X202454000Y-128502000D01*
X202354000Y-128502000D02*
X202354000Y-128002000D01*
X202554000Y-128502000D02*
X202354000Y-128502000D01*
X202554000Y-128002000D02*
X202554000Y-128502000D01*
X195394000Y-129502000D02*
X196004000Y-129502000D01*
X195394000Y-130802000D02*
X196004000Y-130802000D01*
X205514000Y-129502000D02*
X204904000Y-129502000D01*
X205514000Y-130802000D02*
X204904000Y-130802000D01*
X197954000Y-131502000D02*
X197954000Y-132112000D01*
X196004000Y-131502000D02*
X197954000Y-131502000D01*
X196004000Y-128002000D02*
X196004000Y-131502000D01*
X204904000Y-128002000D02*
X196004000Y-128002000D01*
X204904000Y-131502000D02*
X204904000Y-128002000D01*
X202954000Y-131502000D02*
X204904000Y-131502000D01*
X202954000Y-132112000D02*
X202954000Y-131502000D01*
X203754000Y-132212000D02*
X204054000Y-132212000D01*
X204054000Y-132312000D02*
X204054000Y-132112000D01*
X203754000Y-132312000D02*
X204054000Y-132312000D01*
X203754000Y-132112000D02*
X203754000Y-132312000D01*
X195394000Y-132112000D02*
X205514000Y-132112000D01*
X195394000Y-127392000D02*
X195394000Y-132112000D01*
X205514000Y-127392000D02*
X195394000Y-127392000D01*
X205514000Y-132112000D02*
X205514000Y-127392000D01*
X166063000Y-132285000D02*
X166063000Y-131035000D01*
X164813000Y-132285000D02*
X166063000Y-132285000D01*
X158703000Y-127875000D02*
X158703000Y-128375000D01*
X158603000Y-128375000D02*
X158603000Y-127875000D01*
X158803000Y-128375000D02*
X158603000Y-128375000D01*
X158803000Y-127875000D02*
X158803000Y-128375000D01*
X160703000Y-127875000D02*
X160703000Y-128375000D01*
X160603000Y-128375000D02*
X160603000Y-127875000D01*
X160803000Y-128375000D02*
X160603000Y-128375000D01*
X160803000Y-127875000D02*
X160803000Y-128375000D01*
X162703000Y-127875000D02*
X162703000Y-128375000D01*
X162603000Y-128375000D02*
X162603000Y-127875000D01*
X162803000Y-128375000D02*
X162603000Y-128375000D01*
X162803000Y-127875000D02*
X162803000Y-128375000D01*
X155643000Y-129375000D02*
X156253000Y-129375000D01*
X155643000Y-130675000D02*
X156253000Y-130675000D01*
X165763000Y-129375000D02*
X165153000Y-129375000D01*
X165763000Y-130675000D02*
X165153000Y-130675000D01*
X158203000Y-131375000D02*
X158203000Y-131985000D01*
X156253000Y-131375000D02*
X158203000Y-131375000D01*
X156253000Y-127875000D02*
X156253000Y-131375000D01*
X165153000Y-127875000D02*
X156253000Y-127875000D01*
X165153000Y-131375000D02*
X165153000Y-127875000D01*
X163203000Y-131375000D02*
X165153000Y-131375000D01*
X163203000Y-131985000D02*
X163203000Y-131375000D01*
X164003000Y-132085000D02*
X164303000Y-132085000D01*
X164303000Y-132185000D02*
X164303000Y-131985000D01*
X164003000Y-132185000D02*
X164303000Y-132185000D01*
X164003000Y-131985000D02*
X164003000Y-132185000D01*
X155643000Y-131985000D02*
X165763000Y-131985000D01*
X155643000Y-127265000D02*
X155643000Y-131985000D01*
X165763000Y-127265000D02*
X155643000Y-127265000D01*
X165763000Y-131985000D02*
X165763000Y-127265000D01*
X150875000Y-80563000D02*
X150875000Y-87463000D01*
X147575000Y-80563000D02*
X147575000Y-87463000D01*
X150875000Y-80563000D02*
X147575000Y-80563000D01*
X147166000Y-84845000D02*
X147166000Y-82385000D01*
X145696000Y-84845000D02*
X147166000Y-84845000D01*
X145696000Y-82385000D02*
X145696000Y-84845000D01*
X149667000Y-72263000D02*
G75*
G03X149667000Y-72263000I-950000J0D01*
G01*
X204023000Y-74803000D02*
G75*
G03X204023000Y-74803000I-950000J0D01*
G01*
X204023000Y-77470000D02*
G75*
G03X204023000Y-77470000I-950000J0D01*
G01*
X204023000Y-80010000D02*
G75*
G03X204023000Y-80010000I-950000J0D01*
G01*
X204023000Y-82550000D02*
G75*
G03X204023000Y-82550000I-950000J0D01*
G01*
X145984000Y-72390000D02*
G75*
G03X145984000Y-72390000I-950000J0D01*
G01*
X200848000Y-77343000D02*
G75*
G03X200848000Y-77343000I-950000J0D01*
G01*
X200848000Y-74803000D02*
G75*
G03X200848000Y-74803000I-950000J0D01*
G01*
X164145000Y-74803000D02*
G75*
G03X164145000Y-74803000I-950000J0D01*
G01*
X164018000Y-78486000D02*
G75*
G03X164018000Y-78486000I-950000J0D01*
G01*
X200848000Y-82423000D02*
G75*
G03X200848000Y-82423000I-950000J0D01*
G01*
X200848000Y-79883000D02*
G75*
G03X200848000Y-79883000I-950000J0D01*
G01*
X200848000Y-84963000D02*
G75*
G03X200848000Y-84963000I-950000J0D01*
G01*
X149942733Y-78869000D02*
X150285267Y-78869000D01*
X149942733Y-77849000D02*
X150285267Y-77849000D01*
X147329000Y-77624000D02*
X144869000Y-77624000D01*
X147329000Y-79094000D02*
X147329000Y-77624000D01*
X144869000Y-79094000D02*
X147329000Y-79094000D01*
X187132000Y-110744000D02*
G75*
G03X187132000Y-110744000I-950000J0D01*
G01*
X181290000Y-113792000D02*
G75*
G03X181290000Y-113792000I-950000J0D01*
G01*
X145222000Y-111760000D02*
G75*
G03X145222000Y-111760000I-950000J0D01*
G01*
X140904000Y-114808000D02*
G75*
G03X140904000Y-114808000I-950000J0D01*
G01*
X209611000Y-110871000D02*
G75*
G03X209611000Y-110871000I-950000J0D01*
G01*
X168209000Y-112395000D02*
G75*
G03X168209000Y-112395000I-950000J0D01*
G01*
X204785000Y-111887000D02*
G75*
G03X204785000Y-111887000I-950000J0D01*
G01*
X159573000Y-111887000D02*
G75*
G03X159573000Y-111887000I-950000J0D01*
G01*
X178098267Y-125347000D02*
X177755733Y-125347000D01*
X178098267Y-126367000D02*
X177755733Y-126367000D01*
X165149000Y-82751000D02*
X166399000Y-82751000D01*
X165149000Y-81501000D02*
X165149000Y-82751000D01*
X169559000Y-75391000D02*
X169059000Y-75391000D01*
X169059000Y-75291000D02*
X169559000Y-75291000D01*
X169059000Y-75491000D02*
X169059000Y-75291000D01*
X169559000Y-75491000D02*
X169059000Y-75491000D01*
X169559000Y-77391000D02*
X169059000Y-77391000D01*
X169059000Y-77291000D02*
X169559000Y-77291000D01*
X169059000Y-77491000D02*
X169059000Y-77291000D01*
X169559000Y-77491000D02*
X169059000Y-77491000D01*
X169559000Y-79391000D02*
X169059000Y-79391000D01*
X169059000Y-79291000D02*
X169559000Y-79291000D01*
X169059000Y-79491000D02*
X169059000Y-79291000D01*
X169559000Y-79491000D02*
X169059000Y-79491000D01*
X168059000Y-72331000D02*
X168059000Y-72941000D01*
X166759000Y-72331000D02*
X166759000Y-72941000D01*
X168059000Y-82451000D02*
X168059000Y-81841000D01*
X166759000Y-82451000D02*
X166759000Y-81841000D01*
X166059000Y-74891000D02*
X165449000Y-74891000D01*
X166059000Y-72941000D02*
X166059000Y-74891000D01*
X169559000Y-72941000D02*
X166059000Y-72941000D01*
X169559000Y-81841000D02*
X169559000Y-72941000D01*
X166059000Y-81841000D02*
X169559000Y-81841000D01*
X166059000Y-79891000D02*
X166059000Y-81841000D01*
X165449000Y-79891000D02*
X166059000Y-79891000D01*
X165349000Y-80691000D02*
X165349000Y-80991000D01*
X165249000Y-80991000D02*
X165449000Y-80991000D01*
X165249000Y-80691000D02*
X165249000Y-80991000D01*
X165449000Y-80691000D02*
X165249000Y-80691000D01*
X165449000Y-72331000D02*
X165449000Y-82451000D01*
X170169000Y-72331000D02*
X165449000Y-72331000D01*
X170169000Y-82451000D02*
X170169000Y-72331000D01*
X165449000Y-82451000D02*
X170169000Y-82451000D01*
D15*
X133874000Y-124068000D02*
G75*
G03X133874000Y-124068000I-127000J0D01*
G01*
X133567000Y-122442000D02*
X138467000Y-122442000D01*
X133567000Y-117842000D02*
X133567000Y-122442000D01*
X138467000Y-117842000D02*
X133567000Y-117842000D01*
X138467000Y-122442000D02*
X138467000Y-117842000D01*
D12*
X135718733Y-115572000D02*
X136061267Y-115572000D01*
X135718733Y-114552000D02*
X136061267Y-114552000D01*
X140591000Y-119043267D02*
X140591000Y-118700733D01*
X139571000Y-119043267D02*
X139571000Y-118700733D01*
X139123267Y-125347000D02*
X138780733Y-125347000D01*
X139123267Y-126367000D02*
X138780733Y-126367000D01*
X159048267Y-125347000D02*
X158705733Y-125347000D01*
X159048267Y-126367000D02*
X158705733Y-126367000D01*
D15*
X166481000Y-116216000D02*
G75*
G03X166481000Y-116216000I-127000J0D01*
G01*
X166534000Y-117842000D02*
X161634000Y-117842000D01*
X166534000Y-122442000D02*
X166534000Y-117842000D01*
X161634000Y-122442000D02*
X166534000Y-122442000D01*
X161634000Y-117842000D02*
X161634000Y-122442000D01*
X153305000Y-124195000D02*
G75*
G03X153305000Y-124195000I-127000J0D01*
G01*
X152998000Y-122569000D02*
X157898000Y-122569000D01*
X152998000Y-117969000D02*
X152998000Y-122569000D01*
X157898000Y-117969000D02*
X152998000Y-117969000D01*
X157898000Y-122569000D02*
X157898000Y-117969000D01*
D12*
X164128267Y-125347000D02*
X163785733Y-125347000D01*
X164128267Y-126367000D02*
X163785733Y-126367000D01*
X164128267Y-114171000D02*
X163785733Y-114171000D01*
X164128267Y-115191000D02*
X163785733Y-115191000D01*
X167511000Y-124034733D02*
X167511000Y-124377267D01*
X168531000Y-124034733D02*
X168531000Y-124377267D01*
X158621000Y-119297267D02*
X158621000Y-118954733D01*
X159641000Y-119297267D02*
X159641000Y-118954733D01*
X179707000Y-119297267D02*
X179707000Y-118954733D01*
X178687000Y-119297267D02*
X178687000Y-118954733D01*
D15*
X173371000Y-124195000D02*
G75*
G03X173371000Y-124195000I-127000J0D01*
G01*
X173064000Y-122569000D02*
X177964000Y-122569000D01*
X173064000Y-117969000D02*
X173064000Y-122569000D01*
X177964000Y-117969000D02*
X173064000Y-117969000D01*
X177964000Y-122569000D02*
X177964000Y-117969000D01*
D12*
X174961733Y-115318000D02*
X175304267Y-115318000D01*
X174961733Y-114298000D02*
X175304267Y-114298000D01*
X156796000Y-81333000D02*
X155546000Y-81333000D01*
X156796000Y-82583000D02*
X156796000Y-81333000D01*
X152386000Y-84693000D02*
X152886000Y-84693000D01*
X152886000Y-84793000D02*
X152386000Y-84793000D01*
X152886000Y-84593000D02*
X152886000Y-84793000D01*
X152386000Y-84593000D02*
X152886000Y-84593000D01*
X153886000Y-87753000D02*
X153886000Y-87143000D01*
X155186000Y-87753000D02*
X155186000Y-87143000D01*
X153886000Y-81633000D02*
X153886000Y-82243000D01*
X155186000Y-81633000D02*
X155186000Y-82243000D01*
X155886000Y-85193000D02*
X156496000Y-85193000D01*
X155886000Y-87143000D02*
X155886000Y-85193000D01*
X152386000Y-87143000D02*
X155886000Y-87143000D01*
X152386000Y-82243000D02*
X152386000Y-87143000D01*
X155886000Y-82243000D02*
X152386000Y-82243000D01*
X155886000Y-84193000D02*
X155886000Y-82243000D01*
X156496000Y-84193000D02*
X155886000Y-84193000D01*
X156596000Y-83393000D02*
X156596000Y-83093000D01*
X156696000Y-83093000D02*
X156496000Y-83093000D01*
X156696000Y-83393000D02*
X156696000Y-83093000D01*
X156496000Y-83393000D02*
X156696000Y-83393000D01*
X156496000Y-87753000D02*
X156496000Y-81633000D01*
X151776000Y-87753000D02*
X156496000Y-87753000D01*
X151776000Y-81633000D02*
X151776000Y-87753000D01*
X156496000Y-81633000D02*
X151776000Y-81633000D01*
X197567733Y-115064000D02*
X197910267Y-115064000D01*
X197567733Y-114044000D02*
X197910267Y-114044000D01*
X200323267Y-125347000D02*
X199980733Y-125347000D01*
X200323267Y-126367000D02*
X199980733Y-126367000D01*
D15*
X195596000Y-124322000D02*
G75*
G03X195596000Y-124322000I-127000J0D01*
G01*
X195289000Y-122696000D02*
X200189000Y-122696000D01*
X195289000Y-118096000D02*
X195289000Y-122696000D01*
X200189000Y-118096000D02*
X195289000Y-118096000D01*
X200189000Y-122696000D02*
X200189000Y-118096000D01*
D12*
X202313000Y-119424267D02*
X202313000Y-119081733D01*
X201293000Y-119424267D02*
X201293000Y-119081733D01*
X188013000Y-109777000D02*
X188013000Y-111027000D01*
X189263000Y-109777000D02*
X188013000Y-109777000D01*
X191373000Y-114187000D02*
X191373000Y-113687000D01*
X191473000Y-113687000D02*
X191473000Y-114187000D01*
X191273000Y-113687000D02*
X191473000Y-113687000D01*
X191273000Y-114187000D02*
X191273000Y-113687000D01*
X194433000Y-112687000D02*
X193823000Y-112687000D01*
X194433000Y-111387000D02*
X193823000Y-111387000D01*
X188313000Y-112687000D02*
X188923000Y-112687000D01*
X188313000Y-111387000D02*
X188923000Y-111387000D01*
X191873000Y-110687000D02*
X191873000Y-110077000D01*
X193823000Y-110687000D02*
X191873000Y-110687000D01*
X193823000Y-114187000D02*
X193823000Y-110687000D01*
X188923000Y-114187000D02*
X193823000Y-114187000D01*
X188923000Y-110687000D02*
X188923000Y-114187000D01*
X190873000Y-110687000D02*
X188923000Y-110687000D01*
X190873000Y-110077000D02*
X190873000Y-110687000D01*
X190073000Y-109977000D02*
X189773000Y-109977000D01*
X189773000Y-109877000D02*
X189773000Y-110077000D01*
X190073000Y-109877000D02*
X189773000Y-109877000D01*
X190073000Y-110077000D02*
X190073000Y-109877000D01*
X194433000Y-110077000D02*
X188313000Y-110077000D01*
X194433000Y-114797000D02*
X194433000Y-110077000D01*
X188313000Y-114797000D02*
X194433000Y-114797000D01*
X188313000Y-110077000D02*
X188313000Y-114797000D01*
D10*
X175006095Y-89749380D02*
X175006095Y-90558904D01*
X175053714Y-90654142D01*
X175101333Y-90701761D01*
X175196571Y-90749380D01*
X175387047Y-90749380D01*
X175482285Y-90701761D01*
X175529904Y-90654142D01*
X175577523Y-90558904D01*
X175577523Y-89749380D01*
X176577523Y-90749380D02*
X176006095Y-90749380D01*
X176291809Y-90749380D02*
X176291809Y-89749380D01*
X176196571Y-89892238D01*
X176101333Y-89987476D01*
X176006095Y-90035095D01*
X153992676Y-102398580D02*
X153992676Y-103208104D01*
X154040295Y-103303342D01*
X154087914Y-103350961D01*
X154183152Y-103398580D01*
X154373628Y-103398580D01*
X154468866Y-103350961D01*
X154516485Y-103303342D01*
X154564104Y-103208104D01*
X154564104Y-102398580D01*
X154992676Y-103350961D02*
X155135533Y-103398580D01*
X155373628Y-103398580D01*
X155468866Y-103350961D01*
X155516485Y-103303342D01*
X155564104Y-103208104D01*
X155564104Y-103112866D01*
X155516485Y-103017628D01*
X155468866Y-102970009D01*
X155373628Y-102922390D01*
X155183152Y-102874771D01*
X155087914Y-102827152D01*
X155040295Y-102779533D01*
X154992676Y-102684295D01*
X154992676Y-102589057D01*
X155040295Y-102493819D01*
X155087914Y-102446200D01*
X155183152Y-102398580D01*
X155421247Y-102398580D01*
X155564104Y-102446200D01*
X156326009Y-102874771D02*
X156468866Y-102922390D01*
X156516485Y-102970009D01*
X156564104Y-103065247D01*
X156564104Y-103208104D01*
X156516485Y-103303342D01*
X156468866Y-103350961D01*
X156373628Y-103398580D01*
X155992676Y-103398580D01*
X155992676Y-102398580D01*
X156326009Y-102398580D01*
X156421247Y-102446200D01*
X156468866Y-102493819D01*
X156516485Y-102589057D01*
X156516485Y-102684295D01*
X156468866Y-102779533D01*
X156421247Y-102827152D01*
X156326009Y-102874771D01*
X155992676Y-102874771D01*
X157754580Y-103398580D02*
X157754580Y-102398580D01*
X157754580Y-102874771D02*
X158326009Y-102874771D01*
X158326009Y-103398580D02*
X158326009Y-102398580D01*
X158945057Y-103398580D02*
X158849819Y-103350961D01*
X158802200Y-103303342D01*
X158754580Y-103208104D01*
X158754580Y-102922390D01*
X158802200Y-102827152D01*
X158849819Y-102779533D01*
X158945057Y-102731914D01*
X159087914Y-102731914D01*
X159183152Y-102779533D01*
X159230771Y-102827152D01*
X159278390Y-102922390D01*
X159278390Y-103208104D01*
X159230771Y-103303342D01*
X159183152Y-103350961D01*
X159087914Y-103398580D01*
X158945057Y-103398580D01*
X159659342Y-103350961D02*
X159754580Y-103398580D01*
X159945057Y-103398580D01*
X160040295Y-103350961D01*
X160087914Y-103255723D01*
X160087914Y-103208104D01*
X160040295Y-103112866D01*
X159945057Y-103065247D01*
X159802200Y-103065247D01*
X159706961Y-103017628D01*
X159659342Y-102922390D01*
X159659342Y-102874771D01*
X159706961Y-102779533D01*
X159802200Y-102731914D01*
X159945057Y-102731914D01*
X160040295Y-102779533D01*
X160373628Y-102731914D02*
X160754580Y-102731914D01*
X160516485Y-102398580D02*
X160516485Y-103255723D01*
X160564104Y-103350961D01*
X160659342Y-103398580D01*
X160754580Y-103398580D01*
X163631571Y-100037542D02*
X163631571Y-99704209D01*
X164155380Y-99561352D02*
X164155380Y-100037542D01*
X163155380Y-100037542D01*
X163155380Y-99561352D01*
X163488714Y-99275638D02*
X163488714Y-98894685D01*
X163155380Y-99132780D02*
X164012523Y-99132780D01*
X164107761Y-99085161D01*
X164155380Y-98989923D01*
X164155380Y-98894685D01*
X164155380Y-98561352D02*
X163155380Y-98561352D01*
X164155380Y-98132780D02*
X163631571Y-98132780D01*
X163536333Y-98180400D01*
X163488714Y-98275638D01*
X163488714Y-98418495D01*
X163536333Y-98513733D01*
X163583952Y-98561352D01*
X164107761Y-97275638D02*
X164155380Y-97370876D01*
X164155380Y-97561352D01*
X164107761Y-97656590D01*
X164012523Y-97704209D01*
X163631571Y-97704209D01*
X163536333Y-97656590D01*
X163488714Y-97561352D01*
X163488714Y-97370876D01*
X163536333Y-97275638D01*
X163631571Y-97228019D01*
X163726809Y-97228019D01*
X163822047Y-97704209D01*
X164155380Y-96799447D02*
X163488714Y-96799447D01*
X163679190Y-96799447D02*
X163583952Y-96751828D01*
X163536333Y-96704209D01*
X163488714Y-96608971D01*
X163488714Y-96513733D01*
X163488714Y-96180400D02*
X164155380Y-96180400D01*
X163583952Y-96180400D02*
X163536333Y-96132780D01*
X163488714Y-96037542D01*
X163488714Y-95894685D01*
X163536333Y-95799447D01*
X163631571Y-95751828D01*
X164155380Y-95751828D01*
X164107761Y-94894685D02*
X164155380Y-94989923D01*
X164155380Y-95180400D01*
X164107761Y-95275638D01*
X164012523Y-95323257D01*
X163631571Y-95323257D01*
X163536333Y-95275638D01*
X163488714Y-95180400D01*
X163488714Y-94989923D01*
X163536333Y-94894685D01*
X163631571Y-94847066D01*
X163726809Y-94847066D01*
X163822047Y-95323257D01*
X163488714Y-94561352D02*
X163488714Y-94180400D01*
X163155380Y-94418495D02*
X164012523Y-94418495D01*
X164107761Y-94370876D01*
X164155380Y-94275638D01*
X164155380Y-94180400D01*
X148550380Y-101718904D02*
X149359904Y-101718904D01*
X149455142Y-101671285D01*
X149502761Y-101623666D01*
X149550380Y-101528428D01*
X149550380Y-101337952D01*
X149502761Y-101242714D01*
X149455142Y-101195095D01*
X149359904Y-101147476D01*
X148550380Y-101147476D01*
X149502761Y-100718904D02*
X149550380Y-100576047D01*
X149550380Y-100337952D01*
X149502761Y-100242714D01*
X149455142Y-100195095D01*
X149359904Y-100147476D01*
X149264666Y-100147476D01*
X149169428Y-100195095D01*
X149121809Y-100242714D01*
X149074190Y-100337952D01*
X149026571Y-100528428D01*
X148978952Y-100623666D01*
X148931333Y-100671285D01*
X148836095Y-100718904D01*
X148740857Y-100718904D01*
X148645619Y-100671285D01*
X148598000Y-100623666D01*
X148550380Y-100528428D01*
X148550380Y-100290333D01*
X148598000Y-100147476D01*
X149026571Y-99385571D02*
X149074190Y-99242714D01*
X149121809Y-99195095D01*
X149217047Y-99147476D01*
X149359904Y-99147476D01*
X149455142Y-99195095D01*
X149502761Y-99242714D01*
X149550380Y-99337952D01*
X149550380Y-99718904D01*
X148550380Y-99718904D01*
X148550380Y-99385571D01*
X148598000Y-99290333D01*
X148645619Y-99242714D01*
X148740857Y-99195095D01*
X148836095Y-99195095D01*
X148931333Y-99242714D01*
X148978952Y-99290333D01*
X149026571Y-99385571D01*
X149026571Y-99718904D01*
X196778952Y-100909380D02*
X196778952Y-99909380D01*
X197112285Y-100623666D01*
X197445619Y-99909380D01*
X197445619Y-100909380D01*
X197921809Y-100909380D02*
X197921809Y-100242714D01*
X197921809Y-99909380D02*
X197874190Y-99957000D01*
X197921809Y-100004619D01*
X197969428Y-99957000D01*
X197921809Y-99909380D01*
X197921809Y-100004619D01*
X198826571Y-100861761D02*
X198731333Y-100909380D01*
X198540857Y-100909380D01*
X198445619Y-100861761D01*
X198398000Y-100814142D01*
X198350380Y-100718904D01*
X198350380Y-100433190D01*
X198398000Y-100337952D01*
X198445619Y-100290333D01*
X198540857Y-100242714D01*
X198731333Y-100242714D01*
X198826571Y-100290333D01*
X199255142Y-100909380D02*
X199255142Y-100242714D01*
X199255142Y-100433190D02*
X199302761Y-100337952D01*
X199350380Y-100290333D01*
X199445619Y-100242714D01*
X199540857Y-100242714D01*
X200017047Y-100909380D02*
X199921809Y-100861761D01*
X199874190Y-100814142D01*
X199826571Y-100718904D01*
X199826571Y-100433190D01*
X199874190Y-100337952D01*
X199921809Y-100290333D01*
X200017047Y-100242714D01*
X200159904Y-100242714D01*
X200255142Y-100290333D01*
X200302761Y-100337952D01*
X200350380Y-100433190D01*
X200350380Y-100718904D01*
X200302761Y-100814142D01*
X200255142Y-100861761D01*
X200159904Y-100909380D01*
X200017047Y-100909380D01*
X201493238Y-100861761D02*
X201636095Y-100909380D01*
X201874190Y-100909380D01*
X201969428Y-100861761D01*
X202017047Y-100814142D01*
X202064666Y-100718904D01*
X202064666Y-100623666D01*
X202017047Y-100528428D01*
X201969428Y-100480809D01*
X201874190Y-100433190D01*
X201683714Y-100385571D01*
X201588476Y-100337952D01*
X201540857Y-100290333D01*
X201493238Y-100195095D01*
X201493238Y-100099857D01*
X201540857Y-100004619D01*
X201588476Y-99957000D01*
X201683714Y-99909380D01*
X201921809Y-99909380D01*
X202064666Y-99957000D01*
X202493238Y-100909380D02*
X202493238Y-99909380D01*
X202731333Y-99909380D01*
X202874190Y-99957000D01*
X202969428Y-100052238D01*
X203017047Y-100147476D01*
X203064666Y-100337952D01*
X203064666Y-100480809D01*
X203017047Y-100671285D01*
X202969428Y-100766523D01*
X202874190Y-100861761D01*
X202731333Y-100909380D01*
X202493238Y-100909380D01*
X174814666Y-103540333D02*
X174114666Y-103540333D01*
X174614666Y-103307000D01*
X174114666Y-103073666D01*
X174814666Y-103073666D01*
X174814666Y-102740333D02*
X174114666Y-102740333D01*
X174814666Y-102407000D02*
X174114666Y-102407000D01*
X174614666Y-102173666D01*
X174114666Y-101940333D01*
X174814666Y-101940333D01*
X174114666Y-101673666D02*
X174814666Y-101207000D01*
X174114666Y-101207000D02*
X174814666Y-101673666D01*
X174814666Y-100540333D02*
X174481333Y-100773666D01*
X174814666Y-100940333D02*
X174114666Y-100940333D01*
X174114666Y-100673666D01*
X174148000Y-100607000D01*
X174181333Y-100573666D01*
X174248000Y-100540333D01*
X174348000Y-100540333D01*
X174414666Y-100573666D01*
X174448000Y-100607000D01*
X174481333Y-100673666D01*
X174481333Y-100940333D01*
X174114666Y-100340333D02*
X174114666Y-99940333D01*
X174814666Y-100140333D02*
X174114666Y-100140333D01*
X174814666Y-99340333D02*
X174814666Y-99740333D01*
X174814666Y-99540333D02*
X174114666Y-99540333D01*
X174214666Y-99607000D01*
X174281333Y-99673666D01*
X174314666Y-99740333D01*
X174114666Y-98907000D02*
X174114666Y-98840333D01*
X174148000Y-98773666D01*
X174181333Y-98740333D01*
X174248000Y-98707000D01*
X174381333Y-98673666D01*
X174548000Y-98673666D01*
X174681333Y-98707000D01*
X174748000Y-98740333D01*
X174781333Y-98773666D01*
X174814666Y-98840333D01*
X174814666Y-98907000D01*
X174781333Y-98973666D01*
X174748000Y-99007000D01*
X174681333Y-99040333D01*
X174548000Y-99073666D01*
X174381333Y-99073666D01*
X174248000Y-99040333D01*
X174181333Y-99007000D01*
X174148000Y-98973666D01*
X174114666Y-98907000D01*
X174114666Y-98073666D02*
X174114666Y-98207000D01*
X174148000Y-98273666D01*
X174181333Y-98307000D01*
X174281333Y-98373666D01*
X174414666Y-98407000D01*
X174681333Y-98407000D01*
X174748000Y-98373666D01*
X174781333Y-98340333D01*
X174814666Y-98273666D01*
X174814666Y-98140333D01*
X174781333Y-98073666D01*
X174748000Y-98040333D01*
X174681333Y-98007000D01*
X174514666Y-98007000D01*
X174448000Y-98040333D01*
X174414666Y-98073666D01*
X174381333Y-98140333D01*
X174381333Y-98273666D01*
X174414666Y-98340333D01*
X174448000Y-98373666D01*
X174514666Y-98407000D01*
X174181333Y-97740333D02*
X174148000Y-97707000D01*
X174114666Y-97640333D01*
X174114666Y-97473666D01*
X174148000Y-97407000D01*
X174181333Y-97373666D01*
X174248000Y-97340333D01*
X174314666Y-97340333D01*
X174414666Y-97373666D01*
X174814666Y-97773666D01*
X174814666Y-97340333D01*
X173544666Y-101660333D02*
X172844666Y-101660333D01*
X172844666Y-101493666D01*
X172878000Y-101393666D01*
X172944666Y-101327000D01*
X173011333Y-101293666D01*
X173144666Y-101260333D01*
X173244666Y-101260333D01*
X173378000Y-101293666D01*
X173444666Y-101327000D01*
X173511333Y-101393666D01*
X173544666Y-101493666D01*
X173544666Y-101660333D01*
X172844666Y-101060333D02*
X173544666Y-100827000D01*
X172844666Y-100593666D01*
X172844666Y-100160333D02*
X173344666Y-100160333D01*
X173444666Y-100193666D01*
X173511333Y-100260333D01*
X173544666Y-100360333D01*
X173544666Y-100427000D01*
X172844666Y-99527000D02*
X172844666Y-99660333D01*
X172878000Y-99727000D01*
X172911333Y-99760333D01*
X173011333Y-99827000D01*
X173144666Y-99860333D01*
X173411333Y-99860333D01*
X173478000Y-99827000D01*
X173511333Y-99793666D01*
X173544666Y-99727000D01*
X173544666Y-99593666D01*
X173511333Y-99527000D01*
X173478000Y-99493666D01*
X173411333Y-99460333D01*
X173244666Y-99460333D01*
X173178000Y-99493666D01*
X173144666Y-99527000D01*
X173111333Y-99593666D01*
X173111333Y-99727000D01*
X173144666Y-99793666D01*
X173178000Y-99827000D01*
X173244666Y-99860333D01*
X173344666Y-99193666D02*
X173344666Y-98860333D01*
X173544666Y-99260333D02*
X172844666Y-99027000D01*
X173544666Y-98793666D01*
X155154333Y-113989142D02*
X155106714Y-114036761D01*
X154963857Y-114084380D01*
X154868619Y-114084380D01*
X154725761Y-114036761D01*
X154630523Y-113941523D01*
X154582904Y-113846285D01*
X154535285Y-113655809D01*
X154535285Y-113512952D01*
X154582904Y-113322476D01*
X154630523Y-113227238D01*
X154725761Y-113132000D01*
X154868619Y-113084380D01*
X154963857Y-113084380D01*
X155106714Y-113132000D01*
X155154333Y-113179619D01*
X156106714Y-114084380D02*
X155535285Y-114084380D01*
X155821000Y-114084380D02*
X155821000Y-113084380D01*
X155725761Y-113227238D01*
X155630523Y-113322476D01*
X155535285Y-113370095D01*
X179450921Y-115657256D02*
X179450921Y-116466964D01*
X179498551Y-116562224D01*
X179546181Y-116609854D01*
X179641441Y-116657484D01*
X179831960Y-116657484D01*
X179927220Y-116609854D01*
X179974850Y-116562224D01*
X180022480Y-116466964D01*
X180022480Y-115657256D01*
X180546409Y-116657484D02*
X180736928Y-116657484D01*
X180832188Y-116609854D01*
X180879818Y-116562224D01*
X180975078Y-116419334D01*
X181022708Y-116228814D01*
X181022708Y-115847775D01*
X180975078Y-115752515D01*
X180927448Y-115704886D01*
X180832188Y-115657256D01*
X180641669Y-115657256D01*
X180546409Y-115704886D01*
X180498779Y-115752515D01*
X180451149Y-115847775D01*
X180451149Y-116085925D01*
X180498779Y-116181185D01*
X180546409Y-116228814D01*
X180641669Y-116276444D01*
X180832188Y-116276444D01*
X180927448Y-116228814D01*
X180975078Y-116181185D01*
X181022708Y-116085925D01*
X147027061Y-119760823D02*
X147836769Y-119760823D01*
X147932029Y-119713193D01*
X147979659Y-119665563D01*
X148027289Y-119570303D01*
X148027289Y-119379784D01*
X147979659Y-119284524D01*
X147932029Y-119236894D01*
X147836769Y-119189264D01*
X147027061Y-119189264D01*
X147027061Y-118808225D02*
X147027061Y-118141406D01*
X148027289Y-118570075D01*
X210057921Y-115784256D02*
X210057921Y-116593964D01*
X210105551Y-116689224D01*
X210153181Y-116736854D01*
X210248441Y-116784484D01*
X210438960Y-116784484D01*
X210534220Y-116736854D01*
X210581850Y-116689224D01*
X210629480Y-116593964D01*
X210629480Y-115784256D01*
X211582078Y-115784256D02*
X211105779Y-115784256D01*
X211058149Y-116260555D01*
X211105779Y-116212925D01*
X211201039Y-116165295D01*
X211439188Y-116165295D01*
X211534448Y-116212925D01*
X211582078Y-116260555D01*
X211629708Y-116355814D01*
X211629708Y-116593964D01*
X211582078Y-116689224D01*
X211534448Y-116736854D01*
X211439188Y-116784484D01*
X211201039Y-116784484D01*
X211105779Y-116736854D01*
X211058149Y-116689224D01*
X187523380Y-125229857D02*
X187047190Y-125563190D01*
X187523380Y-125801285D02*
X186523380Y-125801285D01*
X186523380Y-125420333D01*
X186571000Y-125325095D01*
X186618619Y-125277476D01*
X186713857Y-125229857D01*
X186856714Y-125229857D01*
X186951952Y-125277476D01*
X186999571Y-125325095D01*
X187047190Y-125420333D01*
X187047190Y-125801285D01*
X187523380Y-124277476D02*
X187523380Y-124848904D01*
X187523380Y-124563190D02*
X186523380Y-124563190D01*
X186666238Y-124658428D01*
X186761476Y-124753666D01*
X186809095Y-124848904D01*
X186523380Y-123420333D02*
X186523380Y-123610809D01*
X186571000Y-123706047D01*
X186618619Y-123753666D01*
X186761476Y-123848904D01*
X186951952Y-123896523D01*
X187332904Y-123896523D01*
X187428142Y-123848904D01*
X187475761Y-123801285D01*
X187523380Y-123706047D01*
X187523380Y-123515571D01*
X187475761Y-123420333D01*
X187428142Y-123372714D01*
X187332904Y-123325095D01*
X187094809Y-123325095D01*
X186999571Y-123372714D01*
X186951952Y-123420333D01*
X186904333Y-123515571D01*
X186904333Y-123706047D01*
X186951952Y-123801285D01*
X186999571Y-123848904D01*
X187094809Y-123896523D01*
X149550380Y-125102857D02*
X149074190Y-125436190D01*
X149550380Y-125674285D02*
X148550380Y-125674285D01*
X148550380Y-125293333D01*
X148598000Y-125198095D01*
X148645619Y-125150476D01*
X148740857Y-125102857D01*
X148883714Y-125102857D01*
X148978952Y-125150476D01*
X149026571Y-125198095D01*
X149074190Y-125293333D01*
X149074190Y-125674285D01*
X149550380Y-124150476D02*
X149550380Y-124721904D01*
X149550380Y-124436190D02*
X148550380Y-124436190D01*
X148693238Y-124531428D01*
X148788476Y-124626666D01*
X148836095Y-124721904D01*
X148883714Y-123293333D02*
X149550380Y-123293333D01*
X148502761Y-123531428D02*
X149217047Y-123769523D01*
X149217047Y-123150476D01*
X182618142Y-113863380D02*
X182284809Y-113387190D01*
X182046714Y-113863380D02*
X182046714Y-112863380D01*
X182427666Y-112863380D01*
X182522904Y-112911000D01*
X182570523Y-112958619D01*
X182618142Y-113053857D01*
X182618142Y-113196714D01*
X182570523Y-113291952D01*
X182522904Y-113339571D01*
X182427666Y-113387190D01*
X182046714Y-113387190D01*
X183570523Y-113863380D02*
X182999095Y-113863380D01*
X183284809Y-113863380D02*
X183284809Y-112863380D01*
X183189571Y-113006238D01*
X183094333Y-113101476D01*
X182999095Y-113149095D01*
X183951476Y-112958619D02*
X183999095Y-112911000D01*
X184094333Y-112863380D01*
X184332428Y-112863380D01*
X184427666Y-112911000D01*
X184475285Y-112958619D01*
X184522904Y-113053857D01*
X184522904Y-113149095D01*
X184475285Y-113291952D01*
X183903857Y-113863380D01*
X184522904Y-113863380D01*
X146931142Y-115768380D02*
X146597809Y-115292190D01*
X146359714Y-115768380D02*
X146359714Y-114768380D01*
X146740666Y-114768380D01*
X146835904Y-114816000D01*
X146883523Y-114863619D01*
X146931142Y-114958857D01*
X146931142Y-115101714D01*
X146883523Y-115196952D01*
X146835904Y-115244571D01*
X146740666Y-115292190D01*
X146359714Y-115292190D01*
X147883523Y-115768380D02*
X147312095Y-115768380D01*
X147597809Y-115768380D02*
X147597809Y-114768380D01*
X147502571Y-114911238D01*
X147407333Y-115006476D01*
X147312095Y-115054095D01*
X148502571Y-114768380D02*
X148597809Y-114768380D01*
X148693047Y-114816000D01*
X148740666Y-114863619D01*
X148788285Y-114958857D01*
X148835904Y-115149333D01*
X148835904Y-115387428D01*
X148788285Y-115577904D01*
X148740666Y-115673142D01*
X148693047Y-115720761D01*
X148597809Y-115768380D01*
X148502571Y-115768380D01*
X148407333Y-115720761D01*
X148359714Y-115673142D01*
X148312095Y-115577904D01*
X148264476Y-115387428D01*
X148264476Y-115149333D01*
X148312095Y-114958857D01*
X148359714Y-114863619D01*
X148407333Y-114816000D01*
X148502571Y-114768380D01*
X210002380Y-124993666D02*
X209526190Y-125327000D01*
X210002380Y-125565095D02*
X209002380Y-125565095D01*
X209002380Y-125184142D01*
X209050000Y-125088904D01*
X209097619Y-125041285D01*
X209192857Y-124993666D01*
X209335714Y-124993666D01*
X209430952Y-125041285D01*
X209478571Y-125088904D01*
X209526190Y-125184142D01*
X209526190Y-125565095D01*
X209430952Y-124422238D02*
X209383333Y-124517476D01*
X209335714Y-124565095D01*
X209240476Y-124612714D01*
X209192857Y-124612714D01*
X209097619Y-124565095D01*
X209050000Y-124517476D01*
X209002380Y-124422238D01*
X209002380Y-124231761D01*
X209050000Y-124136523D01*
X209097619Y-124088904D01*
X209192857Y-124041285D01*
X209240476Y-124041285D01*
X209335714Y-124088904D01*
X209383333Y-124136523D01*
X209430952Y-124231761D01*
X209430952Y-124422238D01*
X209478571Y-124517476D01*
X209526190Y-124565095D01*
X209621428Y-124612714D01*
X209811904Y-124612714D01*
X209907142Y-124565095D01*
X209954761Y-124517476D01*
X210002380Y-124422238D01*
X210002380Y-124231761D01*
X209954761Y-124136523D01*
X209907142Y-124088904D01*
X209811904Y-124041285D01*
X209621428Y-124041285D01*
X209526190Y-124088904D01*
X209478571Y-124136523D01*
X209430952Y-124231761D01*
X203668333Y-115006380D02*
X203335000Y-114530190D01*
X203096904Y-115006380D02*
X203096904Y-114006380D01*
X203477857Y-114006380D01*
X203573095Y-114054000D01*
X203620714Y-114101619D01*
X203668333Y-114196857D01*
X203668333Y-114339714D01*
X203620714Y-114434952D01*
X203573095Y-114482571D01*
X203477857Y-114530190D01*
X203096904Y-114530190D01*
X204525476Y-114339714D02*
X204525476Y-115006380D01*
X204287380Y-113958761D02*
X204049285Y-114673047D01*
X204668333Y-114673047D01*
X181316333Y-126468142D02*
X181268714Y-126515761D01*
X181125857Y-126563380D01*
X181030619Y-126563380D01*
X180887761Y-126515761D01*
X180792523Y-126420523D01*
X180744904Y-126325285D01*
X180697285Y-126134809D01*
X180697285Y-125991952D01*
X180744904Y-125801476D01*
X180792523Y-125706238D01*
X180887761Y-125611000D01*
X181030619Y-125563380D01*
X181125857Y-125563380D01*
X181268714Y-125611000D01*
X181316333Y-125658619D01*
X181887761Y-125991952D02*
X181792523Y-125944333D01*
X181744904Y-125896714D01*
X181697285Y-125801476D01*
X181697285Y-125753857D01*
X181744904Y-125658619D01*
X181792523Y-125611000D01*
X181887761Y-125563380D01*
X182078238Y-125563380D01*
X182173476Y-125611000D01*
X182221095Y-125658619D01*
X182268714Y-125753857D01*
X182268714Y-125801476D01*
X182221095Y-125896714D01*
X182173476Y-125944333D01*
X182078238Y-125991952D01*
X181887761Y-125991952D01*
X181792523Y-126039571D01*
X181744904Y-126087190D01*
X181697285Y-126182428D01*
X181697285Y-126372904D01*
X181744904Y-126468142D01*
X181792523Y-126515761D01*
X181887761Y-126563380D01*
X182078238Y-126563380D01*
X182173476Y-126515761D01*
X182221095Y-126468142D01*
X182268714Y-126372904D01*
X182268714Y-126182428D01*
X182221095Y-126087190D01*
X182173476Y-126039571D01*
X182078238Y-125991952D01*
X141311333Y-126214142D02*
X141263714Y-126261761D01*
X141120857Y-126309380D01*
X141025619Y-126309380D01*
X140882761Y-126261761D01*
X140787523Y-126166523D01*
X140739904Y-126071285D01*
X140692285Y-125880809D01*
X140692285Y-125737952D01*
X140739904Y-125547476D01*
X140787523Y-125452238D01*
X140882761Y-125357000D01*
X141025619Y-125309380D01*
X141120857Y-125309380D01*
X141263714Y-125357000D01*
X141311333Y-125404619D01*
X142168476Y-125309380D02*
X141978000Y-125309380D01*
X141882761Y-125357000D01*
X141835142Y-125404619D01*
X141739904Y-125547476D01*
X141692285Y-125737952D01*
X141692285Y-126118904D01*
X141739904Y-126214142D01*
X141787523Y-126261761D01*
X141882761Y-126309380D01*
X142073238Y-126309380D01*
X142168476Y-126261761D01*
X142216095Y-126214142D01*
X142263714Y-126118904D01*
X142263714Y-125880809D01*
X142216095Y-125785571D01*
X142168476Y-125737952D01*
X142073238Y-125690333D01*
X141882761Y-125690333D01*
X141787523Y-125737952D01*
X141739904Y-125785571D01*
X141692285Y-125880809D01*
X203146333Y-126341142D02*
X203098714Y-126388761D01*
X202955857Y-126436380D01*
X202860619Y-126436380D01*
X202717761Y-126388761D01*
X202622523Y-126293523D01*
X202574904Y-126198285D01*
X202527285Y-126007809D01*
X202527285Y-125864952D01*
X202574904Y-125674476D01*
X202622523Y-125579238D01*
X202717761Y-125484000D01*
X202860619Y-125436380D01*
X202955857Y-125436380D01*
X203098714Y-125484000D01*
X203146333Y-125531619D01*
X204003476Y-125769714D02*
X204003476Y-126436380D01*
X203765380Y-125388761D02*
X203527285Y-126103047D01*
X204146333Y-126103047D01*
X198405904Y-88860380D02*
X198405904Y-89669904D01*
X198453523Y-89765142D01*
X198501142Y-89812761D01*
X198596380Y-89860380D01*
X198786857Y-89860380D01*
X198882095Y-89812761D01*
X198929714Y-89765142D01*
X198977333Y-89669904D01*
X198977333Y-88860380D01*
X199977333Y-89860380D02*
X199405904Y-89860380D01*
X199691619Y-89860380D02*
X199691619Y-88860380D01*
X199596380Y-89003238D01*
X199501142Y-89098476D01*
X199405904Y-89146095D01*
X200596380Y-88860380D02*
X200691619Y-88860380D01*
X200786857Y-88908000D01*
X200834476Y-88955619D01*
X200882095Y-89050857D01*
X200929714Y-89241333D01*
X200929714Y-89479428D01*
X200882095Y-89669904D01*
X200834476Y-89765142D01*
X200786857Y-89812761D01*
X200691619Y-89860380D01*
X200596380Y-89860380D01*
X200501142Y-89812761D01*
X200453523Y-89765142D01*
X200405904Y-89669904D01*
X200358285Y-89479428D01*
X200358285Y-89241333D01*
X200405904Y-89050857D01*
X200453523Y-88955619D01*
X200501142Y-88908000D01*
X200596380Y-88860380D01*
X144454571Y-87723333D02*
X144454571Y-88056666D01*
X144978380Y-88056666D02*
X143978380Y-88056666D01*
X143978380Y-87580476D01*
X144978380Y-86675714D02*
X144978380Y-87247142D01*
X144978380Y-86961428D02*
X143978380Y-86961428D01*
X144121238Y-87056666D01*
X144216476Y-87151904D01*
X144264095Y-87247142D01*
X170767476Y-127214380D02*
X170767476Y-127928666D01*
X170719857Y-128071523D01*
X170624619Y-128166761D01*
X170481761Y-128214380D01*
X170386523Y-128214380D01*
X171767476Y-128214380D02*
X171196047Y-128214380D01*
X171481761Y-128214380D02*
X171481761Y-127214380D01*
X171386523Y-127357238D01*
X171291285Y-127452476D01*
X171196047Y-127500095D01*
X172386523Y-127214380D02*
X172481761Y-127214380D01*
X172577000Y-127262000D01*
X172624619Y-127309619D01*
X172672238Y-127404857D01*
X172719857Y-127595333D01*
X172719857Y-127833428D01*
X172672238Y-128023904D01*
X172624619Y-128119142D01*
X172577000Y-128166761D01*
X172481761Y-128214380D01*
X172386523Y-128214380D01*
X172291285Y-128166761D01*
X172243666Y-128119142D01*
X172196047Y-128023904D01*
X172148428Y-127833428D01*
X172148428Y-127595333D01*
X172196047Y-127404857D01*
X172243666Y-127309619D01*
X172291285Y-127262000D01*
X172386523Y-127214380D01*
X133397666Y-125817380D02*
X133397666Y-126531666D01*
X133350047Y-126674523D01*
X133254809Y-126769761D01*
X133111952Y-126817380D01*
X133016714Y-126817380D01*
X134350047Y-125817380D02*
X133873857Y-125817380D01*
X133826238Y-126293571D01*
X133873857Y-126245952D01*
X133969095Y-126198333D01*
X134207190Y-126198333D01*
X134302428Y-126245952D01*
X134350047Y-126293571D01*
X134397666Y-126388809D01*
X134397666Y-126626904D01*
X134350047Y-126722142D01*
X134302428Y-126769761D01*
X134207190Y-126817380D01*
X133969095Y-126817380D01*
X133873857Y-126769761D01*
X133826238Y-126722142D01*
X193595666Y-127214380D02*
X193595666Y-127928666D01*
X193548047Y-128071523D01*
X193452809Y-128166761D01*
X193309952Y-128214380D01*
X193214714Y-128214380D01*
X193976619Y-127214380D02*
X194595666Y-127214380D01*
X194262333Y-127595333D01*
X194405190Y-127595333D01*
X194500428Y-127642952D01*
X194548047Y-127690571D01*
X194595666Y-127785809D01*
X194595666Y-128023904D01*
X194548047Y-128119142D01*
X194500428Y-128166761D01*
X194405190Y-128214380D01*
X194119476Y-128214380D01*
X194024238Y-128166761D01*
X193976619Y-128119142D01*
X153971666Y-126325380D02*
X153971666Y-127039666D01*
X153924047Y-127182523D01*
X153828809Y-127277761D01*
X153685952Y-127325380D01*
X153590714Y-127325380D01*
X154971666Y-127325380D02*
X154400238Y-127325380D01*
X154685952Y-127325380D02*
X154685952Y-126325380D01*
X154590714Y-126468238D01*
X154495476Y-126563476D01*
X154400238Y-126611095D01*
X147089904Y-90622380D02*
X147089904Y-89622380D01*
X147328000Y-89622380D01*
X147470857Y-89670000D01*
X147566095Y-89765238D01*
X147613714Y-89860476D01*
X147661333Y-90050952D01*
X147661333Y-90193809D01*
X147613714Y-90384285D01*
X147566095Y-90479523D01*
X147470857Y-90574761D01*
X147328000Y-90622380D01*
X147089904Y-90622380D01*
X147994666Y-89622380D02*
X148613714Y-89622380D01*
X148280380Y-90003333D01*
X148423238Y-90003333D01*
X148518476Y-90050952D01*
X148566095Y-90098571D01*
X148613714Y-90193809D01*
X148613714Y-90431904D01*
X148566095Y-90527142D01*
X148518476Y-90574761D01*
X148423238Y-90622380D01*
X148137523Y-90622380D01*
X148042285Y-90574761D01*
X147994666Y-90527142D01*
X144978380Y-83923095D02*
X143978380Y-83923095D01*
X143978380Y-83685000D01*
X144026000Y-83542142D01*
X144121238Y-83446904D01*
X144216476Y-83399285D01*
X144406952Y-83351666D01*
X144549809Y-83351666D01*
X144740285Y-83399285D01*
X144835523Y-83446904D01*
X144930761Y-83542142D01*
X144978380Y-83685000D01*
X144978380Y-83923095D01*
X144073619Y-82970714D02*
X144026000Y-82923095D01*
X143978380Y-82827857D01*
X143978380Y-82589761D01*
X144026000Y-82494523D01*
X144073619Y-82446904D01*
X144168857Y-82399285D01*
X144264095Y-82399285D01*
X144406952Y-82446904D01*
X144978380Y-83018333D01*
X144978380Y-82399285D01*
X144367333Y-70194380D02*
X143891142Y-70194380D01*
X143843523Y-70670571D01*
X143891142Y-70622952D01*
X143986380Y-70575333D01*
X144224476Y-70575333D01*
X144319714Y-70622952D01*
X144367333Y-70670571D01*
X144414952Y-70765809D01*
X144414952Y-71003904D01*
X144367333Y-71099142D01*
X144319714Y-71146761D01*
X144224476Y-71194380D01*
X143986380Y-71194380D01*
X143891142Y-71146761D01*
X143843523Y-71099142D01*
X144700666Y-70194380D02*
X145034000Y-71194380D01*
X145367333Y-70194380D01*
X146224476Y-71194380D02*
X145653047Y-71194380D01*
X145938761Y-71194380D02*
X145938761Y-70194380D01*
X145843523Y-70337238D01*
X145748285Y-70432476D01*
X145653047Y-70480095D01*
X204740095Y-78001761D02*
X204882952Y-78049380D01*
X205121047Y-78049380D01*
X205216285Y-78001761D01*
X205263904Y-77954142D01*
X205311523Y-77858904D01*
X205311523Y-77763666D01*
X205263904Y-77668428D01*
X205216285Y-77620809D01*
X205121047Y-77573190D01*
X204930571Y-77525571D01*
X204835333Y-77477952D01*
X204787714Y-77430333D01*
X204740095Y-77335095D01*
X204740095Y-77239857D01*
X204787714Y-77144619D01*
X204835333Y-77097000D01*
X204930571Y-77049380D01*
X205168666Y-77049380D01*
X205311523Y-77097000D01*
X206311523Y-77954142D02*
X206263904Y-78001761D01*
X206121047Y-78049380D01*
X206025809Y-78049380D01*
X205882952Y-78001761D01*
X205787714Y-77906523D01*
X205740095Y-77811285D01*
X205692476Y-77620809D01*
X205692476Y-77477952D01*
X205740095Y-77287476D01*
X205787714Y-77192238D01*
X205882952Y-77097000D01*
X206025809Y-77049380D01*
X206121047Y-77049380D01*
X206263904Y-77097000D01*
X206311523Y-77144619D01*
X206740095Y-78049380D02*
X206740095Y-77049380D01*
X207311523Y-78049380D02*
X206882952Y-77477952D01*
X207311523Y-77049380D02*
X206740095Y-77620809D01*
X208263904Y-78049380D02*
X207692476Y-78049380D01*
X207978190Y-78049380D02*
X207978190Y-77049380D01*
X207882952Y-77192238D01*
X207787714Y-77287476D01*
X207692476Y-77335095D01*
X204755904Y-74382380D02*
X205374952Y-74382380D01*
X205041619Y-74763333D01*
X205184476Y-74763333D01*
X205279714Y-74810952D01*
X205327333Y-74858571D01*
X205374952Y-74953809D01*
X205374952Y-75191904D01*
X205327333Y-75287142D01*
X205279714Y-75334761D01*
X205184476Y-75382380D01*
X204898761Y-75382380D01*
X204803523Y-75334761D01*
X204755904Y-75287142D01*
X205660666Y-74382380D02*
X205994000Y-75382380D01*
X206327333Y-74382380D01*
X206565428Y-74382380D02*
X207184476Y-74382380D01*
X206851142Y-74763333D01*
X206994000Y-74763333D01*
X207089238Y-74810952D01*
X207136857Y-74858571D01*
X207184476Y-74953809D01*
X207184476Y-75191904D01*
X207136857Y-75287142D01*
X207089238Y-75334761D01*
X206994000Y-75382380D01*
X206708285Y-75382380D01*
X206613047Y-75334761D01*
X206565428Y-75287142D01*
X162552142Y-73607380D02*
X162218809Y-73131190D01*
X161980714Y-73607380D02*
X161980714Y-72607380D01*
X162361666Y-72607380D01*
X162456904Y-72655000D01*
X162504523Y-72702619D01*
X162552142Y-72797857D01*
X162552142Y-72940714D01*
X162504523Y-73035952D01*
X162456904Y-73083571D01*
X162361666Y-73131190D01*
X161980714Y-73131190D01*
X162885476Y-72607380D02*
X163552142Y-73607380D01*
X163552142Y-72607380D02*
X162885476Y-73607380D01*
X164075952Y-73035952D02*
X163980714Y-72988333D01*
X163933095Y-72940714D01*
X163885476Y-72845476D01*
X163885476Y-72797857D01*
X163933095Y-72702619D01*
X163980714Y-72655000D01*
X164075952Y-72607380D01*
X164266428Y-72607380D01*
X164361666Y-72655000D01*
X164409285Y-72702619D01*
X164456904Y-72797857D01*
X164456904Y-72845476D01*
X164409285Y-72940714D01*
X164361666Y-72988333D01*
X164266428Y-73035952D01*
X164075952Y-73035952D01*
X163980714Y-73083571D01*
X163933095Y-73131190D01*
X163885476Y-73226428D01*
X163885476Y-73416904D01*
X163933095Y-73512142D01*
X163980714Y-73559761D01*
X164075952Y-73607380D01*
X164266428Y-73607380D01*
X164361666Y-73559761D01*
X164409285Y-73512142D01*
X164456904Y-73416904D01*
X164456904Y-73226428D01*
X164409285Y-73131190D01*
X164361666Y-73083571D01*
X164266428Y-73035952D01*
X161829904Y-76290380D02*
X162401333Y-76290380D01*
X162115619Y-77290380D02*
X162115619Y-76290380D01*
X162639428Y-76290380D02*
X163306095Y-77290380D01*
X163306095Y-76290380D02*
X162639428Y-77290380D01*
X163829904Y-76718952D02*
X163734666Y-76671333D01*
X163687047Y-76623714D01*
X163639428Y-76528476D01*
X163639428Y-76480857D01*
X163687047Y-76385619D01*
X163734666Y-76338000D01*
X163829904Y-76290380D01*
X164020380Y-76290380D01*
X164115619Y-76338000D01*
X164163238Y-76385619D01*
X164210857Y-76480857D01*
X164210857Y-76528476D01*
X164163238Y-76623714D01*
X164115619Y-76671333D01*
X164020380Y-76718952D01*
X163829904Y-76718952D01*
X163734666Y-76766571D01*
X163687047Y-76814190D01*
X163639428Y-76909428D01*
X163639428Y-77099904D01*
X163687047Y-77195142D01*
X163734666Y-77242761D01*
X163829904Y-77290380D01*
X164020380Y-77290380D01*
X164115619Y-77242761D01*
X164163238Y-77195142D01*
X164210857Y-77099904D01*
X164210857Y-76909428D01*
X164163238Y-76814190D01*
X164115619Y-76766571D01*
X164020380Y-76718952D01*
X204835380Y-82875380D02*
X204835380Y-81875380D01*
X205168714Y-82589666D01*
X205502047Y-81875380D01*
X205502047Y-82875380D01*
X205978238Y-82875380D02*
X205978238Y-81875380D01*
X206406809Y-82827761D02*
X206549666Y-82875380D01*
X206787761Y-82875380D01*
X206883000Y-82827761D01*
X206930619Y-82780142D01*
X206978238Y-82684904D01*
X206978238Y-82589666D01*
X206930619Y-82494428D01*
X206883000Y-82446809D01*
X206787761Y-82399190D01*
X206597285Y-82351571D01*
X206502047Y-82303952D01*
X206454428Y-82256333D01*
X206406809Y-82161095D01*
X206406809Y-82065857D01*
X206454428Y-81970619D01*
X206502047Y-81923000D01*
X206597285Y-81875380D01*
X206835380Y-81875380D01*
X206978238Y-81923000D01*
X207597285Y-81875380D02*
X207787761Y-81875380D01*
X207883000Y-81923000D01*
X207978238Y-82018238D01*
X208025857Y-82208714D01*
X208025857Y-82542047D01*
X207978238Y-82732523D01*
X207883000Y-82827761D01*
X207787761Y-82875380D01*
X207597285Y-82875380D01*
X207502047Y-82827761D01*
X207406809Y-82732523D01*
X207359190Y-82542047D01*
X207359190Y-82208714D01*
X207406809Y-82018238D01*
X207502047Y-81923000D01*
X207597285Y-81875380D01*
X208978238Y-82875380D02*
X208406809Y-82875380D01*
X208692523Y-82875380D02*
X208692523Y-81875380D01*
X208597285Y-82018238D01*
X208502047Y-82113476D01*
X208406809Y-82161095D01*
X204835380Y-80462380D02*
X204835380Y-79462380D01*
X205168714Y-80176666D01*
X205502047Y-79462380D01*
X205502047Y-80462380D01*
X206168714Y-79462380D02*
X206359190Y-79462380D01*
X206454428Y-79510000D01*
X206549666Y-79605238D01*
X206597285Y-79795714D01*
X206597285Y-80129047D01*
X206549666Y-80319523D01*
X206454428Y-80414761D01*
X206359190Y-80462380D01*
X206168714Y-80462380D01*
X206073476Y-80414761D01*
X205978238Y-80319523D01*
X205930619Y-80129047D01*
X205930619Y-79795714D01*
X205978238Y-79605238D01*
X206073476Y-79510000D01*
X206168714Y-79462380D01*
X206978238Y-80414761D02*
X207121095Y-80462380D01*
X207359190Y-80462380D01*
X207454428Y-80414761D01*
X207502047Y-80367142D01*
X207549666Y-80271904D01*
X207549666Y-80176666D01*
X207502047Y-80081428D01*
X207454428Y-80033809D01*
X207359190Y-79986190D01*
X207168714Y-79938571D01*
X207073476Y-79890952D01*
X207025857Y-79843333D01*
X206978238Y-79748095D01*
X206978238Y-79652857D01*
X207025857Y-79557619D01*
X207073476Y-79510000D01*
X207168714Y-79462380D01*
X207406809Y-79462380D01*
X207549666Y-79510000D01*
X207978238Y-80462380D02*
X207978238Y-79462380D01*
X208978238Y-80462380D02*
X208406809Y-80462380D01*
X208692523Y-80462380D02*
X208692523Y-79462380D01*
X208597285Y-79605238D01*
X208502047Y-79700476D01*
X208406809Y-79748095D01*
X205478142Y-85320142D02*
X205430523Y-85367761D01*
X205287666Y-85415380D01*
X205192428Y-85415380D01*
X205049571Y-85367761D01*
X204954333Y-85272523D01*
X204906714Y-85177285D01*
X204859095Y-84986809D01*
X204859095Y-84843952D01*
X204906714Y-84653476D01*
X204954333Y-84558238D01*
X205049571Y-84463000D01*
X205192428Y-84415380D01*
X205287666Y-84415380D01*
X205430523Y-84463000D01*
X205478142Y-84510619D01*
X205859095Y-85367761D02*
X206001952Y-85415380D01*
X206240047Y-85415380D01*
X206335285Y-85367761D01*
X206382904Y-85320142D01*
X206430523Y-85224904D01*
X206430523Y-85129666D01*
X206382904Y-85034428D01*
X206335285Y-84986809D01*
X206240047Y-84939190D01*
X206049571Y-84891571D01*
X205954333Y-84843952D01*
X205906714Y-84796333D01*
X205859095Y-84701095D01*
X205859095Y-84605857D01*
X205906714Y-84510619D01*
X205954333Y-84463000D01*
X206049571Y-84415380D01*
X206287666Y-84415380D01*
X206430523Y-84463000D01*
X207382904Y-85415380D02*
X206811476Y-85415380D01*
X207097190Y-85415380D02*
X207097190Y-84415380D01*
X207001952Y-84558238D01*
X206906714Y-84653476D01*
X206811476Y-84701095D01*
X149598142Y-77414380D02*
X149264809Y-76938190D01*
X149026714Y-77414380D02*
X149026714Y-76414380D01*
X149407666Y-76414380D01*
X149502904Y-76462000D01*
X149550523Y-76509619D01*
X149598142Y-76604857D01*
X149598142Y-76747714D01*
X149550523Y-76842952D01*
X149502904Y-76890571D01*
X149407666Y-76938190D01*
X149026714Y-76938190D01*
X150550523Y-77414380D02*
X149979095Y-77414380D01*
X150264809Y-77414380D02*
X150264809Y-76414380D01*
X150169571Y-76557238D01*
X150074333Y-76652476D01*
X149979095Y-76700095D01*
X150883857Y-76414380D02*
X151550523Y-76414380D01*
X151121952Y-77414380D01*
X145057904Y-77160380D02*
X145057904Y-76160380D01*
X145296000Y-76160380D01*
X145438857Y-76208000D01*
X145534095Y-76303238D01*
X145581714Y-76398476D01*
X145629333Y-76588952D01*
X145629333Y-76731809D01*
X145581714Y-76922285D01*
X145534095Y-77017523D01*
X145438857Y-77112761D01*
X145296000Y-77160380D01*
X145057904Y-77160380D01*
X146581714Y-77160380D02*
X146010285Y-77160380D01*
X146296000Y-77160380D02*
X146296000Y-76160380D01*
X146200761Y-76303238D01*
X146105523Y-76398476D01*
X146010285Y-76446095D01*
X184943904Y-112101380D02*
X185515333Y-112101380D01*
X185229619Y-113101380D02*
X185229619Y-112101380D01*
X185753428Y-112101380D02*
X186420095Y-113101380D01*
X186420095Y-112101380D02*
X185753428Y-113101380D01*
X187277238Y-112101380D02*
X186801047Y-112101380D01*
X186753428Y-112577571D01*
X186801047Y-112529952D01*
X186896285Y-112482333D01*
X187134380Y-112482333D01*
X187229619Y-112529952D01*
X187277238Y-112577571D01*
X187324857Y-112672809D01*
X187324857Y-112910904D01*
X187277238Y-113006142D01*
X187229619Y-113053761D01*
X187134380Y-113101380D01*
X186896285Y-113101380D01*
X186801047Y-113053761D01*
X186753428Y-113006142D01*
X176776142Y-113482380D02*
X176442809Y-113006190D01*
X176204714Y-113482380D02*
X176204714Y-112482380D01*
X176585666Y-112482380D01*
X176680904Y-112530000D01*
X176728523Y-112577619D01*
X176776142Y-112672857D01*
X176776142Y-112815714D01*
X176728523Y-112910952D01*
X176680904Y-112958571D01*
X176585666Y-113006190D01*
X176204714Y-113006190D01*
X177109476Y-112482380D02*
X177776142Y-113482380D01*
X177776142Y-112482380D02*
X177109476Y-113482380D01*
X178633285Y-112482380D02*
X178157095Y-112482380D01*
X178109476Y-112958571D01*
X178157095Y-112910952D01*
X178252333Y-112863333D01*
X178490428Y-112863333D01*
X178585666Y-112910952D01*
X178633285Y-112958571D01*
X178680904Y-113053809D01*
X178680904Y-113291904D01*
X178633285Y-113387142D01*
X178585666Y-113434761D01*
X178490428Y-113482380D01*
X178252333Y-113482380D01*
X178157095Y-113434761D01*
X178109476Y-113387142D01*
X142271904Y-109307380D02*
X142843333Y-109307380D01*
X142557619Y-110307380D02*
X142557619Y-109307380D01*
X143081428Y-109307380D02*
X143748095Y-110307380D01*
X143748095Y-109307380D02*
X143081428Y-110307380D01*
X144033809Y-109307380D02*
X144652857Y-109307380D01*
X144319523Y-109688333D01*
X144462380Y-109688333D01*
X144557619Y-109735952D01*
X144605238Y-109783571D01*
X144652857Y-109878809D01*
X144652857Y-110116904D01*
X144605238Y-110212142D01*
X144557619Y-110259761D01*
X144462380Y-110307380D01*
X144176666Y-110307380D01*
X144081428Y-110259761D01*
X144033809Y-110212142D01*
X140581142Y-113482380D02*
X140247809Y-113006190D01*
X140009714Y-113482380D02*
X140009714Y-112482380D01*
X140390666Y-112482380D01*
X140485904Y-112530000D01*
X140533523Y-112577619D01*
X140581142Y-112672857D01*
X140581142Y-112815714D01*
X140533523Y-112910952D01*
X140485904Y-112958571D01*
X140390666Y-113006190D01*
X140009714Y-113006190D01*
X140914476Y-112482380D02*
X141581142Y-113482380D01*
X141581142Y-112482380D02*
X140914476Y-113482380D01*
X141866857Y-112482380D02*
X142485904Y-112482380D01*
X142152571Y-112863333D01*
X142295428Y-112863333D01*
X142390666Y-112910952D01*
X142438285Y-112958571D01*
X142485904Y-113053809D01*
X142485904Y-113291904D01*
X142438285Y-113387142D01*
X142390666Y-113434761D01*
X142295428Y-113482380D01*
X142009714Y-113482380D01*
X141914476Y-113434761D01*
X141866857Y-113387142D01*
X209073904Y-108926380D02*
X209645333Y-108926380D01*
X209359619Y-109926380D02*
X209359619Y-108926380D01*
X209883428Y-108926380D02*
X210550095Y-109926380D01*
X210550095Y-108926380D02*
X209883428Y-109926380D01*
X210835809Y-108926380D02*
X211502476Y-108926380D01*
X211073904Y-109926380D01*
X163480904Y-110831380D02*
X164052333Y-110831380D01*
X163766619Y-111831380D02*
X163766619Y-110831380D01*
X164290428Y-110831380D02*
X164957095Y-111831380D01*
X164957095Y-110831380D02*
X164290428Y-111831380D01*
X165290428Y-110926619D02*
X165338047Y-110879000D01*
X165433285Y-110831380D01*
X165671380Y-110831380D01*
X165766619Y-110879000D01*
X165814238Y-110926619D01*
X165861857Y-111021857D01*
X165861857Y-111117095D01*
X165814238Y-111259952D01*
X165242809Y-111831380D01*
X165861857Y-111831380D01*
X201160142Y-111069380D02*
X200826809Y-110593190D01*
X200588714Y-111069380D02*
X200588714Y-110069380D01*
X200969666Y-110069380D01*
X201064904Y-110117000D01*
X201112523Y-110164619D01*
X201160142Y-110259857D01*
X201160142Y-110402714D01*
X201112523Y-110497952D01*
X201064904Y-110545571D01*
X200969666Y-110593190D01*
X200588714Y-110593190D01*
X201493476Y-110069380D02*
X202160142Y-111069380D01*
X202160142Y-110069380D02*
X201493476Y-111069380D01*
X202445857Y-110069380D02*
X203112523Y-110069380D01*
X202683952Y-111069380D01*
X154678142Y-112466380D02*
X154344809Y-111990190D01*
X154106714Y-112466380D02*
X154106714Y-111466380D01*
X154487666Y-111466380D01*
X154582904Y-111514000D01*
X154630523Y-111561619D01*
X154678142Y-111656857D01*
X154678142Y-111799714D01*
X154630523Y-111894952D01*
X154582904Y-111942571D01*
X154487666Y-111990190D01*
X154106714Y-111990190D01*
X155011476Y-111466380D02*
X155678142Y-112466380D01*
X155678142Y-111466380D02*
X155011476Y-112466380D01*
X156011476Y-111561619D02*
X156059095Y-111514000D01*
X156154333Y-111466380D01*
X156392428Y-111466380D01*
X156487666Y-111514000D01*
X156535285Y-111561619D01*
X156582904Y-111656857D01*
X156582904Y-111752095D01*
X156535285Y-111894952D01*
X155963857Y-112466380D01*
X156582904Y-112466380D01*
X174250142Y-126309380D02*
X173916809Y-125833190D01*
X173678714Y-126309380D02*
X173678714Y-125309380D01*
X174059666Y-125309380D01*
X174154904Y-125357000D01*
X174202523Y-125404619D01*
X174250142Y-125499857D01*
X174250142Y-125642714D01*
X174202523Y-125737952D01*
X174154904Y-125785571D01*
X174059666Y-125833190D01*
X173678714Y-125833190D01*
X175202523Y-126309380D02*
X174631095Y-126309380D01*
X174916809Y-126309380D02*
X174916809Y-125309380D01*
X174821571Y-125452238D01*
X174726333Y-125547476D01*
X174631095Y-125595095D01*
X176154904Y-126309380D02*
X175583476Y-126309380D01*
X175869190Y-126309380D02*
X175869190Y-125309380D01*
X175773952Y-125452238D01*
X175678714Y-125547476D01*
X175583476Y-125595095D01*
X163409380Y-81359333D02*
X164123666Y-81359333D01*
X164266523Y-81406952D01*
X164361761Y-81502190D01*
X164409380Y-81645047D01*
X164409380Y-81740285D01*
X163409380Y-80454571D02*
X163409380Y-80645047D01*
X163457000Y-80740285D01*
X163504619Y-80787904D01*
X163647476Y-80883142D01*
X163837952Y-80930761D01*
X164218904Y-80930761D01*
X164314142Y-80883142D01*
X164361761Y-80835523D01*
X164409380Y-80740285D01*
X164409380Y-80549809D01*
X164361761Y-80454571D01*
X164314142Y-80406952D01*
X164218904Y-80359333D01*
X163980809Y-80359333D01*
X163885571Y-80406952D01*
X163837952Y-80454571D01*
X163790333Y-80549809D01*
X163790333Y-80740285D01*
X163837952Y-80835523D01*
X163885571Y-80883142D01*
X163980809Y-80930761D01*
X132040256Y-123063078D02*
X132849964Y-123063078D01*
X132945224Y-123015448D01*
X132992854Y-122967818D01*
X133040484Y-122872558D01*
X133040484Y-122682039D01*
X132992854Y-122586779D01*
X132945224Y-122539149D01*
X132849964Y-122491519D01*
X132040256Y-122491519D01*
X132040256Y-121586551D02*
X132040256Y-121777071D01*
X132087886Y-121872330D01*
X132135515Y-121919960D01*
X132278405Y-122015220D01*
X132468925Y-122062850D01*
X132849964Y-122062850D01*
X132945224Y-122015220D01*
X132992854Y-121967590D01*
X133040484Y-121872330D01*
X133040484Y-121681811D01*
X132992854Y-121586551D01*
X132945224Y-121538921D01*
X132849964Y-121491291D01*
X132611814Y-121491291D01*
X132516555Y-121538921D01*
X132468925Y-121586551D01*
X132421295Y-121681811D01*
X132421295Y-121872330D01*
X132468925Y-121967590D01*
X132516555Y-122015220D01*
X132611814Y-122062850D01*
X135850333Y-114022142D02*
X135802714Y-114069761D01*
X135659857Y-114117380D01*
X135564619Y-114117380D01*
X135421761Y-114069761D01*
X135326523Y-113974523D01*
X135278904Y-113879285D01*
X135231285Y-113688809D01*
X135231285Y-113545952D01*
X135278904Y-113355476D01*
X135326523Y-113260238D01*
X135421761Y-113165000D01*
X135564619Y-113117380D01*
X135659857Y-113117380D01*
X135802714Y-113165000D01*
X135850333Y-113212619D01*
X136755095Y-113117380D02*
X136278904Y-113117380D01*
X136231285Y-113593571D01*
X136278904Y-113545952D01*
X136374142Y-113498333D01*
X136612238Y-113498333D01*
X136707476Y-113545952D01*
X136755095Y-113593571D01*
X136802714Y-113688809D01*
X136802714Y-113926904D01*
X136755095Y-114022142D01*
X136707476Y-114069761D01*
X136612238Y-114117380D01*
X136374142Y-114117380D01*
X136278904Y-114069761D01*
X136231285Y-114022142D01*
X140533380Y-122689857D02*
X140057190Y-123023190D01*
X140533380Y-123261285D02*
X139533380Y-123261285D01*
X139533380Y-122880333D01*
X139581000Y-122785095D01*
X139628619Y-122737476D01*
X139723857Y-122689857D01*
X139866714Y-122689857D01*
X139961952Y-122737476D01*
X140009571Y-122785095D01*
X140057190Y-122880333D01*
X140057190Y-123261285D01*
X140533380Y-121737476D02*
X140533380Y-122308904D01*
X140533380Y-122023190D02*
X139533380Y-122023190D01*
X139676238Y-122118428D01*
X139771476Y-122213666D01*
X139819095Y-122308904D01*
X139533380Y-121404142D02*
X139533380Y-120785095D01*
X139914333Y-121118428D01*
X139914333Y-120975571D01*
X139961952Y-120880333D01*
X140009571Y-120832714D01*
X140104809Y-120785095D01*
X140342904Y-120785095D01*
X140438142Y-120832714D01*
X140485761Y-120880333D01*
X140533380Y-120975571D01*
X140533380Y-121261285D01*
X140485761Y-121356523D01*
X140438142Y-121404142D01*
X135751333Y-126309380D02*
X135418000Y-125833190D01*
X135179904Y-126309380D02*
X135179904Y-125309380D01*
X135560857Y-125309380D01*
X135656095Y-125357000D01*
X135703714Y-125404619D01*
X135751333Y-125499857D01*
X135751333Y-125642714D01*
X135703714Y-125737952D01*
X135656095Y-125785571D01*
X135560857Y-125833190D01*
X135179904Y-125833190D01*
X136227523Y-126309380D02*
X136418000Y-126309380D01*
X136513238Y-126261761D01*
X136560857Y-126214142D01*
X136656095Y-126071285D01*
X136703714Y-125880809D01*
X136703714Y-125499857D01*
X136656095Y-125404619D01*
X136608476Y-125357000D01*
X136513238Y-125309380D01*
X136322761Y-125309380D01*
X136227523Y-125357000D01*
X136179904Y-125404619D01*
X136132285Y-125499857D01*
X136132285Y-125737952D01*
X136179904Y-125833190D01*
X136227523Y-125880809D01*
X136322761Y-125928428D01*
X136513238Y-125928428D01*
X136608476Y-125880809D01*
X136656095Y-125833190D01*
X136703714Y-125737952D01*
X161504333Y-126309380D02*
X161171000Y-125833190D01*
X160932904Y-126309380D02*
X160932904Y-125309380D01*
X161313857Y-125309380D01*
X161409095Y-125357000D01*
X161456714Y-125404619D01*
X161504333Y-125499857D01*
X161504333Y-125642714D01*
X161456714Y-125737952D01*
X161409095Y-125785571D01*
X161313857Y-125833190D01*
X160932904Y-125833190D01*
X162456714Y-126309380D02*
X161885285Y-126309380D01*
X162171000Y-126309380D02*
X162171000Y-125309380D01*
X162075761Y-125452238D01*
X161980523Y-125547476D01*
X161885285Y-125595095D01*
X167093061Y-119760823D02*
X167902769Y-119760823D01*
X167998029Y-119713193D01*
X168045659Y-119665563D01*
X168093289Y-119570303D01*
X168093289Y-119379784D01*
X168045659Y-119284524D01*
X167998029Y-119236894D01*
X167902769Y-119189264D01*
X167093061Y-119189264D01*
X167426470Y-118284296D02*
X168093289Y-118284296D01*
X167045431Y-118522445D02*
X167759879Y-118760595D01*
X167759879Y-118141406D01*
X150709256Y-118237078D02*
X151518964Y-118237078D01*
X151614224Y-118189448D01*
X151661854Y-118141818D01*
X151709484Y-118046558D01*
X151709484Y-117856039D01*
X151661854Y-117760779D01*
X151614224Y-117713149D01*
X151518964Y-117665519D01*
X150709256Y-117665519D01*
X150804515Y-117236850D02*
X150756886Y-117189220D01*
X150709256Y-117093960D01*
X150709256Y-116855811D01*
X150756886Y-116760551D01*
X150804515Y-116712921D01*
X150899775Y-116665291D01*
X150995035Y-116665291D01*
X151137925Y-116712921D01*
X151709484Y-117284480D01*
X151709484Y-116665291D01*
X166838333Y-126214142D02*
X166790714Y-126261761D01*
X166647857Y-126309380D01*
X166552619Y-126309380D01*
X166409761Y-126261761D01*
X166314523Y-126166523D01*
X166266904Y-126071285D01*
X166219285Y-125880809D01*
X166219285Y-125737952D01*
X166266904Y-125547476D01*
X166314523Y-125452238D01*
X166409761Y-125357000D01*
X166552619Y-125309380D01*
X166647857Y-125309380D01*
X166790714Y-125357000D01*
X166838333Y-125404619D01*
X167171666Y-125309380D02*
X167790714Y-125309380D01*
X167457380Y-125690333D01*
X167600238Y-125690333D01*
X167695476Y-125737952D01*
X167743095Y-125785571D01*
X167790714Y-125880809D01*
X167790714Y-126118904D01*
X167743095Y-126214142D01*
X167695476Y-126261761D01*
X167600238Y-126309380D01*
X167314523Y-126309380D01*
X167219285Y-126261761D01*
X167171666Y-126214142D01*
X160756333Y-115133380D02*
X160423000Y-114657190D01*
X160184904Y-115133380D02*
X160184904Y-114133380D01*
X160565857Y-114133380D01*
X160661095Y-114181000D01*
X160708714Y-114228619D01*
X160756333Y-114323857D01*
X160756333Y-114466714D01*
X160708714Y-114561952D01*
X160661095Y-114609571D01*
X160565857Y-114657190D01*
X160184904Y-114657190D01*
X161089666Y-114133380D02*
X161708714Y-114133380D01*
X161375380Y-114514333D01*
X161518238Y-114514333D01*
X161613476Y-114561952D01*
X161661095Y-114609571D01*
X161708714Y-114704809D01*
X161708714Y-114942904D01*
X161661095Y-115038142D01*
X161613476Y-115085761D01*
X161518238Y-115133380D01*
X161232523Y-115133380D01*
X161137285Y-115085761D01*
X161089666Y-115038142D01*
X166822380Y-124626666D02*
X166346190Y-124960000D01*
X166822380Y-125198095D02*
X165822380Y-125198095D01*
X165822380Y-124817142D01*
X165870000Y-124721904D01*
X165917619Y-124674285D01*
X166012857Y-124626666D01*
X166155714Y-124626666D01*
X166250952Y-124674285D01*
X166298571Y-124721904D01*
X166346190Y-124817142D01*
X166346190Y-125198095D01*
X165822380Y-124293333D02*
X165822380Y-123626666D01*
X166822380Y-124055238D01*
X159583380Y-116371666D02*
X159107190Y-116705000D01*
X159583380Y-116943095D02*
X158583380Y-116943095D01*
X158583380Y-116562142D01*
X158631000Y-116466904D01*
X158678619Y-116419285D01*
X158773857Y-116371666D01*
X158916714Y-116371666D01*
X159011952Y-116419285D01*
X159059571Y-116466904D01*
X159107190Y-116562142D01*
X159107190Y-116943095D01*
X158583380Y-115466904D02*
X158583380Y-115943095D01*
X159059571Y-115990714D01*
X159011952Y-115943095D01*
X158964333Y-115847857D01*
X158964333Y-115609761D01*
X159011952Y-115514523D01*
X159059571Y-115466904D01*
X159154809Y-115419285D01*
X159392904Y-115419285D01*
X159488142Y-115466904D01*
X159535761Y-115514523D01*
X159583380Y-115609761D01*
X159583380Y-115847857D01*
X159535761Y-115943095D01*
X159488142Y-115990714D01*
X181300380Y-119895857D02*
X180824190Y-120229190D01*
X181300380Y-120467285D02*
X180300380Y-120467285D01*
X180300380Y-120086333D01*
X180348000Y-119991095D01*
X180395619Y-119943476D01*
X180490857Y-119895857D01*
X180633714Y-119895857D01*
X180728952Y-119943476D01*
X180776571Y-119991095D01*
X180824190Y-120086333D01*
X180824190Y-120467285D01*
X181300380Y-118943476D02*
X181300380Y-119514904D01*
X181300380Y-119229190D02*
X180300380Y-119229190D01*
X180443238Y-119324428D01*
X180538476Y-119419666D01*
X180586095Y-119514904D01*
X180300380Y-118038714D02*
X180300380Y-118514904D01*
X180776571Y-118562523D01*
X180728952Y-118514904D01*
X180681333Y-118419666D01*
X180681333Y-118181571D01*
X180728952Y-118086333D01*
X180776571Y-118038714D01*
X180871809Y-117991095D01*
X181109904Y-117991095D01*
X181205142Y-118038714D01*
X181252761Y-118086333D01*
X181300380Y-118181571D01*
X181300380Y-118419666D01*
X181252761Y-118514904D01*
X181205142Y-118562523D01*
X171409451Y-122174333D02*
X172219159Y-122174333D01*
X172314419Y-122126703D01*
X172362049Y-122079073D01*
X172409679Y-121983813D01*
X172409679Y-121793294D01*
X172362049Y-121698034D01*
X172314419Y-121650404D01*
X172219159Y-121602774D01*
X171409451Y-121602774D01*
X171838120Y-120983585D02*
X171790490Y-121078845D01*
X171742860Y-121126475D01*
X171647600Y-121174105D01*
X171599970Y-121174105D01*
X171504710Y-121126475D01*
X171457081Y-121078845D01*
X171409451Y-120983585D01*
X171409451Y-120793066D01*
X171457081Y-120697806D01*
X171504710Y-120650176D01*
X171599970Y-120602546D01*
X171647600Y-120602546D01*
X171742860Y-120650176D01*
X171790490Y-120697806D01*
X171838120Y-120793066D01*
X171838120Y-120983585D01*
X171885750Y-121078845D01*
X171933380Y-121126475D01*
X172028639Y-121174105D01*
X172219159Y-121174105D01*
X172314419Y-121126475D01*
X172362049Y-121078845D01*
X172409679Y-120983585D01*
X172409679Y-120793066D01*
X172362049Y-120697806D01*
X172314419Y-120650176D01*
X172219159Y-120602546D01*
X172028639Y-120602546D01*
X171933380Y-120650176D01*
X171885750Y-120697806D01*
X171838120Y-120793066D01*
X172440333Y-115292142D02*
X172392714Y-115339761D01*
X172249857Y-115387380D01*
X172154619Y-115387380D01*
X172011761Y-115339761D01*
X171916523Y-115244523D01*
X171868904Y-115149285D01*
X171821285Y-114958809D01*
X171821285Y-114815952D01*
X171868904Y-114625476D01*
X171916523Y-114530238D01*
X172011761Y-114435000D01*
X172154619Y-114387380D01*
X172249857Y-114387380D01*
X172392714Y-114435000D01*
X172440333Y-114482619D01*
X172773666Y-114387380D02*
X173440333Y-114387380D01*
X173011761Y-115387380D01*
X159964380Y-87748714D02*
X158964380Y-87748714D01*
X158964380Y-87367761D01*
X159012000Y-87272523D01*
X159059619Y-87224904D01*
X159154857Y-87177285D01*
X159297714Y-87177285D01*
X159392952Y-87224904D01*
X159440571Y-87272523D01*
X159488190Y-87367761D01*
X159488190Y-87748714D01*
X158964380Y-86558238D02*
X158964380Y-86367761D01*
X159012000Y-86272523D01*
X159107238Y-86177285D01*
X159297714Y-86129666D01*
X159631047Y-86129666D01*
X159821523Y-86177285D01*
X159916761Y-86272523D01*
X159964380Y-86367761D01*
X159964380Y-86558238D01*
X159916761Y-86653476D01*
X159821523Y-86748714D01*
X159631047Y-86796333D01*
X159297714Y-86796333D01*
X159107238Y-86748714D01*
X159012000Y-86653476D01*
X158964380Y-86558238D01*
X158964380Y-85796333D02*
X159964380Y-85558238D01*
X159250095Y-85367761D01*
X159964380Y-85177285D01*
X158964380Y-84939190D01*
X159440571Y-84558238D02*
X159440571Y-84224904D01*
X159964380Y-84082047D02*
X159964380Y-84558238D01*
X158964380Y-84558238D01*
X158964380Y-84082047D01*
X159964380Y-83082047D02*
X159488190Y-83415380D01*
X159964380Y-83653476D02*
X158964380Y-83653476D01*
X158964380Y-83272523D01*
X159012000Y-83177285D01*
X159059619Y-83129666D01*
X159154857Y-83082047D01*
X159297714Y-83082047D01*
X159392952Y-83129666D01*
X159440571Y-83177285D01*
X159488190Y-83272523D01*
X159488190Y-83653476D01*
X159964380Y-82129666D02*
X159964380Y-82701095D01*
X159964380Y-82415380D02*
X158964380Y-82415380D01*
X159107238Y-82510619D01*
X159202476Y-82605857D01*
X159250095Y-82701095D01*
X197572333Y-113260142D02*
X197524714Y-113307761D01*
X197381857Y-113355380D01*
X197286619Y-113355380D01*
X197143761Y-113307761D01*
X197048523Y-113212523D01*
X197000904Y-113117285D01*
X196953285Y-112926809D01*
X196953285Y-112783952D01*
X197000904Y-112593476D01*
X197048523Y-112498238D01*
X197143761Y-112403000D01*
X197286619Y-112355380D01*
X197381857Y-112355380D01*
X197524714Y-112403000D01*
X197572333Y-112450619D01*
X197953285Y-112450619D02*
X198000904Y-112403000D01*
X198096142Y-112355380D01*
X198334238Y-112355380D01*
X198429476Y-112403000D01*
X198477095Y-112450619D01*
X198524714Y-112545857D01*
X198524714Y-112641095D01*
X198477095Y-112783952D01*
X197905666Y-113355380D01*
X198524714Y-113355380D01*
X196951333Y-126309380D02*
X196618000Y-125833190D01*
X196379904Y-126309380D02*
X196379904Y-125309380D01*
X196760857Y-125309380D01*
X196856095Y-125357000D01*
X196903714Y-125404619D01*
X196951333Y-125499857D01*
X196951333Y-125642714D01*
X196903714Y-125737952D01*
X196856095Y-125785571D01*
X196760857Y-125833190D01*
X196379904Y-125833190D01*
X197332285Y-125404619D02*
X197379904Y-125357000D01*
X197475142Y-125309380D01*
X197713238Y-125309380D01*
X197808476Y-125357000D01*
X197856095Y-125404619D01*
X197903714Y-125499857D01*
X197903714Y-125595095D01*
X197856095Y-125737952D01*
X197284666Y-126309380D01*
X197903714Y-126309380D01*
X193634451Y-122301333D02*
X194444159Y-122301333D01*
X194539419Y-122253703D01*
X194587049Y-122206073D01*
X194634679Y-122110813D01*
X194634679Y-121920294D01*
X194587049Y-121825034D01*
X194539419Y-121777404D01*
X194444159Y-121729774D01*
X193634451Y-121729774D01*
X193634451Y-121348735D02*
X193634451Y-120729546D01*
X194015490Y-121062955D01*
X194015490Y-120920066D01*
X194063120Y-120824806D01*
X194110750Y-120777176D01*
X194206009Y-120729546D01*
X194444159Y-120729546D01*
X194539419Y-120777176D01*
X194587049Y-120824806D01*
X194634679Y-120920066D01*
X194634679Y-121205845D01*
X194587049Y-121301105D01*
X194539419Y-121348735D01*
X203906380Y-119546666D02*
X203430190Y-119880000D01*
X203906380Y-120118095D02*
X202906380Y-120118095D01*
X202906380Y-119737142D01*
X202954000Y-119641904D01*
X203001619Y-119594285D01*
X203096857Y-119546666D01*
X203239714Y-119546666D01*
X203334952Y-119594285D01*
X203382571Y-119641904D01*
X203430190Y-119737142D01*
X203430190Y-120118095D01*
X202906380Y-118689523D02*
X202906380Y-118880000D01*
X202954000Y-118975238D01*
X203001619Y-119022857D01*
X203144476Y-119118095D01*
X203334952Y-119165714D01*
X203715904Y-119165714D01*
X203811142Y-119118095D01*
X203858761Y-119070476D01*
X203906380Y-118975238D01*
X203906380Y-118784761D01*
X203858761Y-118689523D01*
X203811142Y-118641904D01*
X203715904Y-118594285D01*
X203477809Y-118594285D01*
X203382571Y-118641904D01*
X203334952Y-118689523D01*
X203287333Y-118784761D01*
X203287333Y-118975238D01*
X203334952Y-119070476D01*
X203382571Y-119118095D01*
X203477809Y-119165714D01*
X195754666Y-110450380D02*
X195754666Y-111164666D01*
X195707047Y-111307523D01*
X195611809Y-111402761D01*
X195468952Y-111450380D01*
X195373714Y-111450380D01*
X196183238Y-110545619D02*
X196230857Y-110498000D01*
X196326095Y-110450380D01*
X196564190Y-110450380D01*
X196659428Y-110498000D01*
X196707047Y-110545619D01*
X196754666Y-110640857D01*
X196754666Y-110736095D01*
X196707047Y-110878952D01*
X196135619Y-111450380D01*
X196754666Y-111450380D01*
M02*
