G04 #@! TF.GenerationSoftware,KiCad,Pcbnew,5.1.5+dfsg1-2build2*
G04 #@! TF.CreationDate,2021-08-29T19:27:31-07:00*
G04 #@! TF.ProjectId,Telemetry Board,54656c65-6d65-4747-9279-20426f617264,rev?*
G04 #@! TF.SameCoordinates,Original*
G04 #@! TF.FileFunction,Legend,Top*
G04 #@! TF.FilePolarity,Positive*
%FSLAX46Y46*%
G04 Gerber Fmt 4.6, Leading zero omitted, Abs format (unit mm)*
G04 Created by KiCad (PCBNEW 5.1.5+dfsg1-2build2) date 2021-08-29 19:27:31*
%MOMM*%
%LPD*%
G04 APERTURE LIST*
%ADD10C,0.150000*%
%ADD11C,0.300000*%
%ADD12C,0.120000*%
%ADD13C,0.010000*%
%ADD14C,0.100000*%
%ADD15C,0.127000*%
G04 APERTURE END LIST*
D10*
X208915095Y-103640000D02*
X208819857Y-103592380D01*
X208677000Y-103592380D01*
X208534142Y-103640000D01*
X208438904Y-103735238D01*
X208391285Y-103830476D01*
X208343666Y-104020952D01*
X208343666Y-104163809D01*
X208391285Y-104354285D01*
X208438904Y-104449523D01*
X208534142Y-104544761D01*
X208677000Y-104592380D01*
X208772238Y-104592380D01*
X208915095Y-104544761D01*
X208962714Y-104497142D01*
X208962714Y-104163809D01*
X208772238Y-104163809D01*
X209391285Y-104592380D02*
X209391285Y-103592380D01*
X209962714Y-104592380D01*
X209962714Y-103592380D01*
X210438904Y-104592380D02*
X210438904Y-103592380D01*
X210677000Y-103592380D01*
X210819857Y-103640000D01*
X210915095Y-103735238D01*
X210962714Y-103830476D01*
X211010333Y-104020952D01*
X211010333Y-104163809D01*
X210962714Y-104354285D01*
X210915095Y-104449523D01*
X210819857Y-104544761D01*
X210677000Y-104592380D01*
X210438904Y-104592380D01*
X169037095Y-113673000D02*
X168941857Y-113625380D01*
X168799000Y-113625380D01*
X168656142Y-113673000D01*
X168560904Y-113768238D01*
X168513285Y-113863476D01*
X168465666Y-114053952D01*
X168465666Y-114196809D01*
X168513285Y-114387285D01*
X168560904Y-114482523D01*
X168656142Y-114577761D01*
X168799000Y-114625380D01*
X168894238Y-114625380D01*
X169037095Y-114577761D01*
X169084714Y-114530142D01*
X169084714Y-114196809D01*
X168894238Y-114196809D01*
X169513285Y-114625380D02*
X169513285Y-113625380D01*
X170084714Y-114625380D01*
X170084714Y-113625380D01*
X170560904Y-114625380D02*
X170560904Y-113625380D01*
X170799000Y-113625380D01*
X170941857Y-113673000D01*
X171037095Y-113768238D01*
X171084714Y-113863476D01*
X171132333Y-114053952D01*
X171132333Y-114196809D01*
X171084714Y-114387285D01*
X171037095Y-114482523D01*
X170941857Y-114577761D01*
X170799000Y-114625380D01*
X170560904Y-114625380D01*
X147447095Y-109736000D02*
X147351857Y-109688380D01*
X147209000Y-109688380D01*
X147066142Y-109736000D01*
X146970904Y-109831238D01*
X146923285Y-109926476D01*
X146875666Y-110116952D01*
X146875666Y-110259809D01*
X146923285Y-110450285D01*
X146970904Y-110545523D01*
X147066142Y-110640761D01*
X147209000Y-110688380D01*
X147304238Y-110688380D01*
X147447095Y-110640761D01*
X147494714Y-110593142D01*
X147494714Y-110259809D01*
X147304238Y-110259809D01*
X147923285Y-110688380D02*
X147923285Y-109688380D01*
X148494714Y-110688380D01*
X148494714Y-109688380D01*
X148970904Y-110688380D02*
X148970904Y-109688380D01*
X149209000Y-109688380D01*
X149351857Y-109736000D01*
X149447095Y-109831238D01*
X149494714Y-109926476D01*
X149542333Y-110116952D01*
X149542333Y-110259809D01*
X149494714Y-110450285D01*
X149447095Y-110545523D01*
X149351857Y-110640761D01*
X149209000Y-110688380D01*
X148970904Y-110688380D01*
X147955095Y-70239000D02*
X147859857Y-70191380D01*
X147717000Y-70191380D01*
X147574142Y-70239000D01*
X147478904Y-70334238D01*
X147431285Y-70429476D01*
X147383666Y-70619952D01*
X147383666Y-70762809D01*
X147431285Y-70953285D01*
X147478904Y-71048523D01*
X147574142Y-71143761D01*
X147717000Y-71191380D01*
X147812238Y-71191380D01*
X147955095Y-71143761D01*
X148002714Y-71096142D01*
X148002714Y-70762809D01*
X147812238Y-70762809D01*
X148431285Y-71191380D02*
X148431285Y-70191380D01*
X149002714Y-71191380D01*
X149002714Y-70191380D01*
X149478904Y-71191380D02*
X149478904Y-70191380D01*
X149717000Y-70191380D01*
X149859857Y-70239000D01*
X149955095Y-70334238D01*
X150002714Y-70429476D01*
X150050333Y-70619952D01*
X150050333Y-70762809D01*
X150002714Y-70953285D01*
X149955095Y-71048523D01*
X149859857Y-71143761D01*
X149717000Y-71191380D01*
X149478904Y-71191380D01*
D11*
X146089857Y-127067571D02*
X146447000Y-128567571D01*
X146732714Y-127496142D01*
X147018428Y-128567571D01*
X147375571Y-127067571D01*
X147804142Y-127067571D02*
X148732714Y-127067571D01*
X148232714Y-127639000D01*
X148447000Y-127639000D01*
X148589857Y-127710428D01*
X148661285Y-127781857D01*
X148732714Y-127924714D01*
X148732714Y-128281857D01*
X148661285Y-128424714D01*
X148589857Y-128496142D01*
X148447000Y-128567571D01*
X148018428Y-128567571D01*
X147875571Y-128496142D01*
X147804142Y-128424714D01*
D10*
X146701095Y-130627380D02*
X146367761Y-130151190D01*
X146129666Y-130627380D02*
X146129666Y-129627380D01*
X146510619Y-129627380D01*
X146605857Y-129675000D01*
X146653476Y-129722619D01*
X146701095Y-129817857D01*
X146701095Y-129960714D01*
X146653476Y-130055952D01*
X146605857Y-130103571D01*
X146510619Y-130151190D01*
X146129666Y-130151190D01*
X147129666Y-130532142D02*
X147177285Y-130579761D01*
X147129666Y-130627380D01*
X147082047Y-130579761D01*
X147129666Y-130532142D01*
X147129666Y-130627380D01*
X147129666Y-130008333D02*
X147177285Y-130055952D01*
X147129666Y-130103571D01*
X147082047Y-130055952D01*
X147129666Y-130008333D01*
X147129666Y-130103571D01*
X148129666Y-129675000D02*
X148034428Y-129627380D01*
X147891571Y-129627380D01*
X147748714Y-129675000D01*
X147653476Y-129770238D01*
X147605857Y-129865476D01*
X147558238Y-130055952D01*
X147558238Y-130198809D01*
X147605857Y-130389285D01*
X147653476Y-130484523D01*
X147748714Y-130579761D01*
X147891571Y-130627380D01*
X147986809Y-130627380D01*
X148129666Y-130579761D01*
X148177285Y-130532142D01*
X148177285Y-130198809D01*
X147986809Y-130198809D01*
X148605857Y-130532142D02*
X148653476Y-130579761D01*
X148605857Y-130627380D01*
X148558238Y-130579761D01*
X148605857Y-130532142D01*
X148605857Y-130627380D01*
X148605857Y-130008333D02*
X148653476Y-130055952D01*
X148605857Y-130103571D01*
X148558238Y-130055952D01*
X148605857Y-130008333D01*
X148605857Y-130103571D01*
X148939190Y-129627380D02*
X149510619Y-129627380D01*
X149224904Y-130627380D02*
X149224904Y-129627380D01*
X149843952Y-130532142D02*
X149891571Y-130579761D01*
X149843952Y-130627380D01*
X149796333Y-130579761D01*
X149843952Y-130532142D01*
X149843952Y-130627380D01*
X149843952Y-130008333D02*
X149891571Y-130055952D01*
X149843952Y-130103571D01*
X149796333Y-130055952D01*
X149843952Y-130008333D01*
X149843952Y-130103571D01*
X150796333Y-129627380D02*
X150320142Y-129627380D01*
X150272523Y-130103571D01*
X150320142Y-130055952D01*
X150415380Y-130008333D01*
X150653476Y-130008333D01*
X150748714Y-130055952D01*
X150796333Y-130103571D01*
X150843952Y-130198809D01*
X150843952Y-130436904D01*
X150796333Y-130532142D01*
X150748714Y-130579761D01*
X150653476Y-130627380D01*
X150415380Y-130627380D01*
X150320142Y-130579761D01*
X150272523Y-130532142D01*
X162433095Y-68588000D02*
X162337857Y-68540380D01*
X162195000Y-68540380D01*
X162052142Y-68588000D01*
X161956904Y-68683238D01*
X161909285Y-68778476D01*
X161861666Y-68968952D01*
X161861666Y-69111809D01*
X161909285Y-69302285D01*
X161956904Y-69397523D01*
X162052142Y-69492761D01*
X162195000Y-69540380D01*
X162290238Y-69540380D01*
X162433095Y-69492761D01*
X162480714Y-69445142D01*
X162480714Y-69111809D01*
X162290238Y-69111809D01*
X162909285Y-69540380D02*
X162909285Y-68540380D01*
X163480714Y-69540380D01*
X163480714Y-68540380D01*
X163956904Y-69540380D02*
X163956904Y-68540380D01*
X164195000Y-68540380D01*
X164337857Y-68588000D01*
X164433095Y-68683238D01*
X164480714Y-68778476D01*
X164528333Y-68968952D01*
X164528333Y-69111809D01*
X164480714Y-69302285D01*
X164433095Y-69397523D01*
X164337857Y-69492761D01*
X164195000Y-69540380D01*
X163956904Y-69540380D01*
X200152095Y-73033000D02*
X200056857Y-72985380D01*
X199914000Y-72985380D01*
X199771142Y-73033000D01*
X199675904Y-73128238D01*
X199628285Y-73223476D01*
X199580666Y-73413952D01*
X199580666Y-73556809D01*
X199628285Y-73747285D01*
X199675904Y-73842523D01*
X199771142Y-73937761D01*
X199914000Y-73985380D01*
X200009238Y-73985380D01*
X200152095Y-73937761D01*
X200199714Y-73890142D01*
X200199714Y-73556809D01*
X200009238Y-73556809D01*
X200628285Y-73985380D02*
X200628285Y-72985380D01*
X201199714Y-73985380D01*
X201199714Y-72985380D01*
X201675904Y-73985380D02*
X201675904Y-72985380D01*
X201914000Y-72985380D01*
X202056857Y-73033000D01*
X202152095Y-73128238D01*
X202199714Y-73223476D01*
X202247333Y-73413952D01*
X202247333Y-73556809D01*
X202199714Y-73747285D01*
X202152095Y-73842523D01*
X202056857Y-73937761D01*
X201914000Y-73985380D01*
X201675904Y-73985380D01*
X167402095Y-131389380D02*
X167068761Y-130913190D01*
X166830666Y-131389380D02*
X166830666Y-130389380D01*
X167211619Y-130389380D01*
X167306857Y-130437000D01*
X167354476Y-130484619D01*
X167402095Y-130579857D01*
X167402095Y-130722714D01*
X167354476Y-130817952D01*
X167306857Y-130865571D01*
X167211619Y-130913190D01*
X166830666Y-130913190D01*
X167830666Y-131294142D02*
X167878285Y-131341761D01*
X167830666Y-131389380D01*
X167783047Y-131341761D01*
X167830666Y-131294142D01*
X167830666Y-131389380D01*
X167830666Y-130770333D02*
X167878285Y-130817952D01*
X167830666Y-130865571D01*
X167783047Y-130817952D01*
X167830666Y-130770333D01*
X167830666Y-130865571D01*
X168830666Y-130437000D02*
X168735428Y-130389380D01*
X168592571Y-130389380D01*
X168449714Y-130437000D01*
X168354476Y-130532238D01*
X168306857Y-130627476D01*
X168259238Y-130817952D01*
X168259238Y-130960809D01*
X168306857Y-131151285D01*
X168354476Y-131246523D01*
X168449714Y-131341761D01*
X168592571Y-131389380D01*
X168687809Y-131389380D01*
X168830666Y-131341761D01*
X168878285Y-131294142D01*
X168878285Y-130960809D01*
X168687809Y-130960809D01*
X169306857Y-131294142D02*
X169354476Y-131341761D01*
X169306857Y-131389380D01*
X169259238Y-131341761D01*
X169306857Y-131294142D01*
X169306857Y-131389380D01*
X169306857Y-130770333D02*
X169354476Y-130817952D01*
X169306857Y-130865571D01*
X169259238Y-130817952D01*
X169306857Y-130770333D01*
X169306857Y-130865571D01*
X169640190Y-130389380D02*
X170211619Y-130389380D01*
X169925904Y-131389380D02*
X169925904Y-130389380D01*
X170544952Y-131294142D02*
X170592571Y-131341761D01*
X170544952Y-131389380D01*
X170497333Y-131341761D01*
X170544952Y-131294142D01*
X170544952Y-131389380D01*
X170544952Y-130770333D02*
X170592571Y-130817952D01*
X170544952Y-130865571D01*
X170497333Y-130817952D01*
X170544952Y-130770333D01*
X170544952Y-130865571D01*
X171497333Y-130389380D02*
X171021142Y-130389380D01*
X170973523Y-130865571D01*
X171021142Y-130817952D01*
X171116380Y-130770333D01*
X171354476Y-130770333D01*
X171449714Y-130817952D01*
X171497333Y-130865571D01*
X171544952Y-130960809D01*
X171544952Y-131198904D01*
X171497333Y-131294142D01*
X171449714Y-131341761D01*
X171354476Y-131389380D01*
X171116380Y-131389380D01*
X171021142Y-131341761D01*
X170973523Y-131294142D01*
X185309095Y-131262380D02*
X184975761Y-130786190D01*
X184737666Y-131262380D02*
X184737666Y-130262380D01*
X185118619Y-130262380D01*
X185213857Y-130310000D01*
X185261476Y-130357619D01*
X185309095Y-130452857D01*
X185309095Y-130595714D01*
X185261476Y-130690952D01*
X185213857Y-130738571D01*
X185118619Y-130786190D01*
X184737666Y-130786190D01*
X185737666Y-131167142D02*
X185785285Y-131214761D01*
X185737666Y-131262380D01*
X185690047Y-131214761D01*
X185737666Y-131167142D01*
X185737666Y-131262380D01*
X185737666Y-130643333D02*
X185785285Y-130690952D01*
X185737666Y-130738571D01*
X185690047Y-130690952D01*
X185737666Y-130643333D01*
X185737666Y-130738571D01*
X186737666Y-130310000D02*
X186642428Y-130262380D01*
X186499571Y-130262380D01*
X186356714Y-130310000D01*
X186261476Y-130405238D01*
X186213857Y-130500476D01*
X186166238Y-130690952D01*
X186166238Y-130833809D01*
X186213857Y-131024285D01*
X186261476Y-131119523D01*
X186356714Y-131214761D01*
X186499571Y-131262380D01*
X186594809Y-131262380D01*
X186737666Y-131214761D01*
X186785285Y-131167142D01*
X186785285Y-130833809D01*
X186594809Y-130833809D01*
X187213857Y-131167142D02*
X187261476Y-131214761D01*
X187213857Y-131262380D01*
X187166238Y-131214761D01*
X187213857Y-131167142D01*
X187213857Y-131262380D01*
X187213857Y-130643333D02*
X187261476Y-130690952D01*
X187213857Y-130738571D01*
X187166238Y-130690952D01*
X187213857Y-130643333D01*
X187213857Y-130738571D01*
X187547190Y-130262380D02*
X188118619Y-130262380D01*
X187832904Y-131262380D02*
X187832904Y-130262380D01*
X188451952Y-131167142D02*
X188499571Y-131214761D01*
X188451952Y-131262380D01*
X188404333Y-131214761D01*
X188451952Y-131167142D01*
X188451952Y-131262380D01*
X188451952Y-130643333D02*
X188499571Y-130690952D01*
X188451952Y-130738571D01*
X188404333Y-130690952D01*
X188451952Y-130643333D01*
X188451952Y-130738571D01*
X189404333Y-130262380D02*
X188928142Y-130262380D01*
X188880523Y-130738571D01*
X188928142Y-130690952D01*
X189023380Y-130643333D01*
X189261476Y-130643333D01*
X189356714Y-130690952D01*
X189404333Y-130738571D01*
X189451952Y-130833809D01*
X189451952Y-131071904D01*
X189404333Y-131167142D01*
X189356714Y-131214761D01*
X189261476Y-131262380D01*
X189023380Y-131262380D01*
X188928142Y-131214761D01*
X188880523Y-131167142D01*
X191770095Y-117356000D02*
X191674857Y-117308380D01*
X191532000Y-117308380D01*
X191389142Y-117356000D01*
X191293904Y-117451238D01*
X191246285Y-117546476D01*
X191198666Y-117736952D01*
X191198666Y-117879809D01*
X191246285Y-118070285D01*
X191293904Y-118165523D01*
X191389142Y-118260761D01*
X191532000Y-118308380D01*
X191627238Y-118308380D01*
X191770095Y-118260761D01*
X191817714Y-118213142D01*
X191817714Y-117879809D01*
X191627238Y-117879809D01*
X192246285Y-118308380D02*
X192246285Y-117308380D01*
X192817714Y-118308380D01*
X192817714Y-117308380D01*
X193293904Y-118308380D02*
X193293904Y-117308380D01*
X193532000Y-117308380D01*
X193674857Y-117356000D01*
X193770095Y-117451238D01*
X193817714Y-117546476D01*
X193865333Y-117736952D01*
X193865333Y-117879809D01*
X193817714Y-118070285D01*
X193770095Y-118165523D01*
X193674857Y-118260761D01*
X193532000Y-118308380D01*
X193293904Y-118308380D01*
X188126904Y-116609761D02*
X188269761Y-116657380D01*
X188507857Y-116657380D01*
X188603095Y-116609761D01*
X188650714Y-116562142D01*
X188698333Y-116466904D01*
X188698333Y-116371666D01*
X188650714Y-116276428D01*
X188603095Y-116228809D01*
X188507857Y-116181190D01*
X188317380Y-116133571D01*
X188222142Y-116085952D01*
X188174523Y-116038333D01*
X188126904Y-115943095D01*
X188126904Y-115847857D01*
X188174523Y-115752619D01*
X188222142Y-115705000D01*
X188317380Y-115657380D01*
X188555476Y-115657380D01*
X188698333Y-115705000D01*
X189317380Y-116181190D02*
X189317380Y-116657380D01*
X188984047Y-115657380D02*
X189317380Y-116181190D01*
X189650714Y-115657380D01*
X189984047Y-116657380D02*
X189984047Y-115657380D01*
X190555476Y-116657380D01*
X190555476Y-115657380D01*
X191603095Y-116562142D02*
X191555476Y-116609761D01*
X191412619Y-116657380D01*
X191317380Y-116657380D01*
X191174523Y-116609761D01*
X191079285Y-116514523D01*
X191031666Y-116419285D01*
X190984047Y-116228809D01*
X190984047Y-116085952D01*
X191031666Y-115895476D01*
X191079285Y-115800238D01*
X191174523Y-115705000D01*
X191317380Y-115657380D01*
X191412619Y-115657380D01*
X191555476Y-115705000D01*
X191603095Y-115752619D01*
X207153095Y-131008380D02*
X206819761Y-130532190D01*
X206581666Y-131008380D02*
X206581666Y-130008380D01*
X206962619Y-130008380D01*
X207057857Y-130056000D01*
X207105476Y-130103619D01*
X207153095Y-130198857D01*
X207153095Y-130341714D01*
X207105476Y-130436952D01*
X207057857Y-130484571D01*
X206962619Y-130532190D01*
X206581666Y-130532190D01*
X207581666Y-130913142D02*
X207629285Y-130960761D01*
X207581666Y-131008380D01*
X207534047Y-130960761D01*
X207581666Y-130913142D01*
X207581666Y-131008380D01*
X207581666Y-130389333D02*
X207629285Y-130436952D01*
X207581666Y-130484571D01*
X207534047Y-130436952D01*
X207581666Y-130389333D01*
X207581666Y-130484571D01*
X208581666Y-130056000D02*
X208486428Y-130008380D01*
X208343571Y-130008380D01*
X208200714Y-130056000D01*
X208105476Y-130151238D01*
X208057857Y-130246476D01*
X208010238Y-130436952D01*
X208010238Y-130579809D01*
X208057857Y-130770285D01*
X208105476Y-130865523D01*
X208200714Y-130960761D01*
X208343571Y-131008380D01*
X208438809Y-131008380D01*
X208581666Y-130960761D01*
X208629285Y-130913142D01*
X208629285Y-130579809D01*
X208438809Y-130579809D01*
X209057857Y-130913142D02*
X209105476Y-130960761D01*
X209057857Y-131008380D01*
X209010238Y-130960761D01*
X209057857Y-130913142D01*
X209057857Y-131008380D01*
X209057857Y-130389333D02*
X209105476Y-130436952D01*
X209057857Y-130484571D01*
X209010238Y-130436952D01*
X209057857Y-130389333D01*
X209057857Y-130484571D01*
X209391190Y-130008380D02*
X209962619Y-130008380D01*
X209676904Y-131008380D02*
X209676904Y-130008380D01*
X210295952Y-130913142D02*
X210343571Y-130960761D01*
X210295952Y-131008380D01*
X210248333Y-130960761D01*
X210295952Y-130913142D01*
X210295952Y-131008380D01*
X210295952Y-130389333D02*
X210343571Y-130436952D01*
X210295952Y-130484571D01*
X210248333Y-130436952D01*
X210295952Y-130389333D01*
X210295952Y-130484571D01*
X211248333Y-130008380D02*
X210772142Y-130008380D01*
X210724523Y-130484571D01*
X210772142Y-130436952D01*
X210867380Y-130389333D01*
X211105476Y-130389333D01*
X211200714Y-130436952D01*
X211248333Y-130484571D01*
X211295952Y-130579809D01*
X211295952Y-130817904D01*
X211248333Y-130913142D01*
X211200714Y-130960761D01*
X211105476Y-131008380D01*
X210867380Y-131008380D01*
X210772142Y-130960761D01*
X210724523Y-130913142D01*
D12*
X158623000Y-82677000D02*
X156591000Y-82677000D01*
X158623000Y-86741000D02*
X158623000Y-82677000D01*
X156464000Y-86741000D02*
X158623000Y-86741000D01*
X172720000Y-73279000D02*
X170180000Y-73279000D01*
X172720000Y-81280000D02*
X172720000Y-73279000D01*
X170180000Y-81280000D02*
X172720000Y-81280000D01*
D10*
X171711904Y-73922000D02*
X171616666Y-73874380D01*
X171473809Y-73874380D01*
X171330952Y-73922000D01*
X171235714Y-74017238D01*
X171188095Y-74112476D01*
X171140476Y-74302952D01*
X171140476Y-74445809D01*
X171188095Y-74636285D01*
X171235714Y-74731523D01*
X171330952Y-74826761D01*
X171473809Y-74874380D01*
X171569047Y-74874380D01*
X171711904Y-74826761D01*
X171759523Y-74779142D01*
X171759523Y-74445809D01*
X171569047Y-74445809D01*
X171283333Y-76906380D02*
X170950000Y-76430190D01*
X170711904Y-76906380D02*
X170711904Y-75906380D01*
X171092857Y-75906380D01*
X171188095Y-75954000D01*
X171235714Y-76001619D01*
X171283333Y-76096857D01*
X171283333Y-76239714D01*
X171235714Y-76334952D01*
X171188095Y-76382571D01*
X171092857Y-76430190D01*
X170711904Y-76430190D01*
X171616666Y-75906380D02*
X172283333Y-76906380D01*
X172283333Y-75906380D02*
X171616666Y-76906380D01*
X170688095Y-77938380D02*
X171259523Y-77938380D01*
X170973809Y-78938380D02*
X170973809Y-77938380D01*
X171497619Y-77938380D02*
X172164285Y-78938380D01*
X172164285Y-77938380D02*
X171497619Y-78938380D01*
X171259523Y-79843380D02*
X170783333Y-79843380D01*
X170735714Y-80319571D01*
X170783333Y-80271952D01*
X170878571Y-80224333D01*
X171116666Y-80224333D01*
X171211904Y-80271952D01*
X171259523Y-80319571D01*
X171307142Y-80414809D01*
X171307142Y-80652904D01*
X171259523Y-80748142D01*
X171211904Y-80795761D01*
X171116666Y-80843380D01*
X170878571Y-80843380D01*
X170783333Y-80795761D01*
X170735714Y-80748142D01*
X171592857Y-79843380D02*
X171926190Y-80843380D01*
X172259523Y-79843380D01*
D11*
X157753857Y-83121571D02*
X157753857Y-84264428D01*
X157182428Y-83693000D02*
X158325285Y-83693000D01*
X157753857Y-85153571D02*
X157753857Y-86296428D01*
D10*
X138882380Y-94629428D02*
X137882380Y-94629428D01*
X138834761Y-94629428D02*
X138882380Y-94724666D01*
X138882380Y-94915142D01*
X138834761Y-95010380D01*
X138787142Y-95058000D01*
X138691904Y-95105619D01*
X138406190Y-95105619D01*
X138310952Y-95058000D01*
X138263333Y-95010380D01*
X138215714Y-94915142D01*
X138215714Y-94724666D01*
X138263333Y-94629428D01*
X138834761Y-93772285D02*
X138882380Y-93867523D01*
X138882380Y-94058000D01*
X138834761Y-94153238D01*
X138739523Y-94200857D01*
X138358571Y-94200857D01*
X138263333Y-94153238D01*
X138215714Y-94058000D01*
X138215714Y-93867523D01*
X138263333Y-93772285D01*
X138358571Y-93724666D01*
X138453809Y-93724666D01*
X138549047Y-94200857D01*
X138215714Y-93296095D02*
X139215714Y-93296095D01*
X138263333Y-93296095D02*
X138215714Y-93200857D01*
X138215714Y-93010380D01*
X138263333Y-92915142D01*
X138310952Y-92867523D01*
X138406190Y-92819904D01*
X138691904Y-92819904D01*
X138787142Y-92867523D01*
X138834761Y-92915142D01*
X138882380Y-93010380D01*
X138882380Y-93200857D01*
X138834761Y-93296095D01*
X138215714Y-92534190D02*
X138215714Y-92153238D01*
X137882380Y-92391333D02*
X138739523Y-92391333D01*
X138834761Y-92343714D01*
X138882380Y-92248476D01*
X138882380Y-92153238D01*
X138787142Y-91819904D02*
X138834761Y-91772285D01*
X138882380Y-91819904D01*
X138834761Y-91867523D01*
X138787142Y-91819904D01*
X138882380Y-91819904D01*
X138882380Y-90438952D02*
X138834761Y-90534190D01*
X138787142Y-90581809D01*
X138691904Y-90629428D01*
X138406190Y-90629428D01*
X138310952Y-90581809D01*
X138263333Y-90534190D01*
X138215714Y-90438952D01*
X138215714Y-90296095D01*
X138263333Y-90200857D01*
X138310952Y-90153238D01*
X138406190Y-90105619D01*
X138691904Y-90105619D01*
X138787142Y-90153238D01*
X138834761Y-90200857D01*
X138882380Y-90296095D01*
X138882380Y-90438952D01*
X138215714Y-89819904D02*
X138215714Y-89438952D01*
X138882380Y-89677047D02*
X138025238Y-89677047D01*
X137930000Y-89629428D01*
X137882380Y-89534190D01*
X137882380Y-89438952D01*
X138215714Y-88438952D02*
X138882380Y-88248476D01*
X138406190Y-88058000D01*
X138882380Y-87867523D01*
X138215714Y-87677047D01*
X138882380Y-87296095D02*
X138215714Y-87296095D01*
X137882380Y-87296095D02*
X137930000Y-87343714D01*
X137977619Y-87296095D01*
X137930000Y-87248476D01*
X137882380Y-87296095D01*
X137977619Y-87296095D01*
X138215714Y-86962761D02*
X138215714Y-86581809D01*
X137882380Y-86819904D02*
X138739523Y-86819904D01*
X138834761Y-86772285D01*
X138882380Y-86677047D01*
X138882380Y-86581809D01*
X138834761Y-85819904D02*
X138882380Y-85915142D01*
X138882380Y-86105619D01*
X138834761Y-86200857D01*
X138787142Y-86248476D01*
X138691904Y-86296095D01*
X138406190Y-86296095D01*
X138310952Y-86248476D01*
X138263333Y-86200857D01*
X138215714Y-86105619D01*
X138215714Y-85915142D01*
X138263333Y-85819904D01*
X138882380Y-85391333D02*
X137882380Y-85391333D01*
X138882380Y-84962761D02*
X138358571Y-84962761D01*
X138263333Y-85010380D01*
X138215714Y-85105619D01*
X138215714Y-85248476D01*
X138263333Y-85343714D01*
X138310952Y-85391333D01*
X138834761Y-84058000D02*
X138882380Y-84153238D01*
X138882380Y-84343714D01*
X138834761Y-84438952D01*
X138787142Y-84486571D01*
X138691904Y-84534190D01*
X138406190Y-84534190D01*
X138310952Y-84486571D01*
X138263333Y-84438952D01*
X138215714Y-84343714D01*
X138215714Y-84153238D01*
X138263333Y-84058000D01*
X138882380Y-83629428D02*
X138215714Y-83629428D01*
X138406190Y-83629428D02*
X138310952Y-83581809D01*
X138263333Y-83534190D01*
X138215714Y-83438952D01*
X138215714Y-83343714D01*
X138882380Y-82581809D02*
X138358571Y-82581809D01*
X138263333Y-82629428D01*
X138215714Y-82724666D01*
X138215714Y-82915142D01*
X138263333Y-83010380D01*
X138834761Y-82581809D02*
X138882380Y-82677047D01*
X138882380Y-82915142D01*
X138834761Y-83010380D01*
X138739523Y-83058000D01*
X138644285Y-83058000D01*
X138549047Y-83010380D01*
X138501428Y-82915142D01*
X138501428Y-82677047D01*
X138453809Y-82581809D01*
X138215714Y-82248476D02*
X138215714Y-81867523D01*
X138882380Y-82105619D02*
X138025238Y-82105619D01*
X137930000Y-82058000D01*
X137882380Y-81962761D01*
X137882380Y-81867523D01*
X138215714Y-81677047D02*
X138215714Y-81296095D01*
X137882380Y-81534190D02*
X138739523Y-81534190D01*
X138834761Y-81486571D01*
X138882380Y-81391333D01*
X138882380Y-81296095D01*
X138882380Y-79772285D02*
X138358571Y-79772285D01*
X138263333Y-79819904D01*
X138215714Y-79915142D01*
X138215714Y-80105619D01*
X138263333Y-80200857D01*
X138834761Y-79772285D02*
X138882380Y-79867523D01*
X138882380Y-80105619D01*
X138834761Y-80200857D01*
X138739523Y-80248476D01*
X138644285Y-80248476D01*
X138549047Y-80200857D01*
X138501428Y-80105619D01*
X138501428Y-79867523D01*
X138453809Y-79772285D01*
X138215714Y-79296095D02*
X138882380Y-79296095D01*
X138310952Y-79296095D02*
X138263333Y-79248476D01*
X138215714Y-79153238D01*
X138215714Y-79010380D01*
X138263333Y-78915142D01*
X138358571Y-78867523D01*
X138882380Y-78867523D01*
X138882380Y-77962761D02*
X137882380Y-77962761D01*
X138834761Y-77962761D02*
X138882380Y-78058000D01*
X138882380Y-78248476D01*
X138834761Y-78343714D01*
X138787142Y-78391333D01*
X138691904Y-78438952D01*
X138406190Y-78438952D01*
X138310952Y-78391333D01*
X138263333Y-78343714D01*
X138215714Y-78248476D01*
X138215714Y-78058000D01*
X138263333Y-77962761D01*
X138215714Y-76819904D02*
X138882380Y-76629428D01*
X138406190Y-76438952D01*
X138882380Y-76248476D01*
X138215714Y-76058000D01*
X138882380Y-75677047D02*
X138215714Y-75677047D01*
X137882380Y-75677047D02*
X137930000Y-75724666D01*
X137977619Y-75677047D01*
X137930000Y-75629428D01*
X137882380Y-75677047D01*
X137977619Y-75677047D01*
X138215714Y-75296095D02*
X138215714Y-74772285D01*
X138882380Y-75296095D01*
X138882380Y-74772285D01*
X138882380Y-73962761D02*
X138358571Y-73962761D01*
X138263333Y-74010380D01*
X138215714Y-74105619D01*
X138215714Y-74296095D01*
X138263333Y-74391333D01*
X138834761Y-73962761D02*
X138882380Y-74058000D01*
X138882380Y-74296095D01*
X138834761Y-74391333D01*
X138739523Y-74438952D01*
X138644285Y-74438952D01*
X138549047Y-74391333D01*
X138501428Y-74296095D01*
X138501428Y-74058000D01*
X138453809Y-73962761D01*
X138882380Y-73486571D02*
X138215714Y-73486571D01*
X138406190Y-73486571D02*
X138310952Y-73438952D01*
X138263333Y-73391333D01*
X138215714Y-73296095D01*
X138215714Y-73200857D01*
X138882380Y-72438952D02*
X137882380Y-72438952D01*
X138834761Y-72438952D02*
X138882380Y-72534190D01*
X138882380Y-72724666D01*
X138834761Y-72819904D01*
X138787142Y-72867523D01*
X138691904Y-72915142D01*
X138406190Y-72915142D01*
X138310952Y-72867523D01*
X138263333Y-72819904D01*
X138215714Y-72724666D01*
X138215714Y-72534190D01*
X138263333Y-72438952D01*
X138882380Y-71962761D02*
X138215714Y-71962761D01*
X138406190Y-71962761D02*
X138310952Y-71915142D01*
X138263333Y-71867523D01*
X138215714Y-71772285D01*
X138215714Y-71677047D01*
X138215714Y-71438952D02*
X138882380Y-71200857D01*
X138215714Y-70962761D02*
X138882380Y-71200857D01*
X139120476Y-71296095D01*
X139168095Y-71343714D01*
X139215714Y-71438952D01*
X127706380Y-122593666D02*
X126706380Y-122593666D01*
X127087333Y-122593666D02*
X127039714Y-122498428D01*
X127039714Y-122307952D01*
X127087333Y-122212714D01*
X127134952Y-122165095D01*
X127230190Y-122117476D01*
X127515904Y-122117476D01*
X127611142Y-122165095D01*
X127658761Y-122212714D01*
X127706380Y-122307952D01*
X127706380Y-122498428D01*
X127658761Y-122593666D01*
X127706380Y-121688904D02*
X127039714Y-121688904D01*
X127230190Y-121688904D02*
X127134952Y-121641285D01*
X127087333Y-121593666D01*
X127039714Y-121498428D01*
X127039714Y-121403190D01*
X127706380Y-120927000D02*
X127658761Y-121022238D01*
X127611142Y-121069857D01*
X127515904Y-121117476D01*
X127230190Y-121117476D01*
X127134952Y-121069857D01*
X127087333Y-121022238D01*
X127039714Y-120927000D01*
X127039714Y-120784142D01*
X127087333Y-120688904D01*
X127134952Y-120641285D01*
X127230190Y-120593666D01*
X127515904Y-120593666D01*
X127611142Y-120641285D01*
X127658761Y-120688904D01*
X127706380Y-120784142D01*
X127706380Y-120927000D01*
X127039714Y-119736523D02*
X127706380Y-119736523D01*
X127039714Y-120165095D02*
X127563523Y-120165095D01*
X127658761Y-120117476D01*
X127706380Y-120022238D01*
X127706380Y-119879380D01*
X127658761Y-119784142D01*
X127611142Y-119736523D01*
X127039714Y-118831761D02*
X127849238Y-118831761D01*
X127944476Y-118879380D01*
X127992095Y-118927000D01*
X128039714Y-119022238D01*
X128039714Y-119165095D01*
X127992095Y-119260333D01*
X127658761Y-118831761D02*
X127706380Y-118927000D01*
X127706380Y-119117476D01*
X127658761Y-119212714D01*
X127611142Y-119260333D01*
X127515904Y-119307952D01*
X127230190Y-119307952D01*
X127134952Y-119260333D01*
X127087333Y-119212714D01*
X127039714Y-119117476D01*
X127039714Y-118927000D01*
X127087333Y-118831761D01*
X127706380Y-118355571D02*
X126706380Y-118355571D01*
X127706380Y-117927000D02*
X127182571Y-117927000D01*
X127087333Y-117974619D01*
X127039714Y-118069857D01*
X127039714Y-118212714D01*
X127087333Y-118307952D01*
X127134952Y-118355571D01*
X127039714Y-117593666D02*
X127039714Y-117212714D01*
X126706380Y-117450809D02*
X127563523Y-117450809D01*
X127658761Y-117403190D01*
X127706380Y-117307952D01*
X127706380Y-117212714D01*
X127039714Y-116260333D02*
X127039714Y-115879380D01*
X126706380Y-116117476D02*
X127563523Y-116117476D01*
X127658761Y-116069857D01*
X127706380Y-115974619D01*
X127706380Y-115879380D01*
X127706380Y-115403190D02*
X127658761Y-115498428D01*
X127611142Y-115546047D01*
X127515904Y-115593666D01*
X127230190Y-115593666D01*
X127134952Y-115546047D01*
X127087333Y-115498428D01*
X127039714Y-115403190D01*
X127039714Y-115260333D01*
X127087333Y-115165095D01*
X127134952Y-115117476D01*
X127230190Y-115069857D01*
X127515904Y-115069857D01*
X127611142Y-115117476D01*
X127658761Y-115165095D01*
X127706380Y-115260333D01*
X127706380Y-115403190D01*
X127039714Y-113974619D02*
X127706380Y-113736523D01*
X127039714Y-113498428D02*
X127706380Y-113736523D01*
X127944476Y-113831761D01*
X127992095Y-113879380D01*
X128039714Y-113974619D01*
X127706380Y-112974619D02*
X127658761Y-113069857D01*
X127611142Y-113117476D01*
X127515904Y-113165095D01*
X127230190Y-113165095D01*
X127134952Y-113117476D01*
X127087333Y-113069857D01*
X127039714Y-112974619D01*
X127039714Y-112831761D01*
X127087333Y-112736523D01*
X127134952Y-112688904D01*
X127230190Y-112641285D01*
X127515904Y-112641285D01*
X127611142Y-112688904D01*
X127658761Y-112736523D01*
X127706380Y-112831761D01*
X127706380Y-112974619D01*
X127039714Y-111784142D02*
X127706380Y-111784142D01*
X127039714Y-112212714D02*
X127563523Y-112212714D01*
X127658761Y-112165095D01*
X127706380Y-112069857D01*
X127706380Y-111927000D01*
X127658761Y-111831761D01*
X127611142Y-111784142D01*
X127706380Y-110546047D02*
X126706380Y-110546047D01*
X127087333Y-110546047D02*
X127039714Y-110450809D01*
X127039714Y-110260333D01*
X127087333Y-110165095D01*
X127134952Y-110117476D01*
X127230190Y-110069857D01*
X127515904Y-110069857D01*
X127611142Y-110117476D01*
X127658761Y-110165095D01*
X127706380Y-110260333D01*
X127706380Y-110450809D01*
X127658761Y-110546047D01*
X127039714Y-109736523D02*
X127706380Y-109498428D01*
X127039714Y-109260333D02*
X127706380Y-109498428D01*
X127944476Y-109593666D01*
X127992095Y-109641285D01*
X128039714Y-109736523D01*
X127039714Y-108260333D02*
X127039714Y-107879380D01*
X126706380Y-108117476D02*
X127563523Y-108117476D01*
X127658761Y-108069857D01*
X127706380Y-107974619D01*
X127706380Y-107879380D01*
X127706380Y-107546047D02*
X126706380Y-107546047D01*
X127706380Y-107117476D02*
X127182571Y-107117476D01*
X127087333Y-107165095D01*
X127039714Y-107260333D01*
X127039714Y-107403190D01*
X127087333Y-107498428D01*
X127134952Y-107546047D01*
X127658761Y-106260333D02*
X127706380Y-106355571D01*
X127706380Y-106546047D01*
X127658761Y-106641285D01*
X127563523Y-106688904D01*
X127182571Y-106688904D01*
X127087333Y-106641285D01*
X127039714Y-106546047D01*
X127039714Y-106355571D01*
X127087333Y-106260333D01*
X127182571Y-106212714D01*
X127277809Y-106212714D01*
X127373047Y-106688904D01*
D12*
X199263000Y-87249000D02*
X202438000Y-87249000D01*
X199263000Y-72517000D02*
X199263000Y-87249000D01*
X202438000Y-72517000D02*
X199263000Y-72517000D01*
X202438000Y-87249000D02*
X202438000Y-72517000D01*
D11*
X166790857Y-127829571D02*
X167148000Y-129329571D01*
X167433714Y-128258142D01*
X167719428Y-129329571D01*
X168076571Y-127829571D01*
X168576571Y-127972428D02*
X168648000Y-127901000D01*
X168790857Y-127829571D01*
X169148000Y-127829571D01*
X169290857Y-127901000D01*
X169362285Y-127972428D01*
X169433714Y-128115285D01*
X169433714Y-128258142D01*
X169362285Y-128472428D01*
X168505142Y-129329571D01*
X169433714Y-129329571D01*
X184693857Y-129456571D02*
X184693857Y-127956571D01*
X185051000Y-127956571D01*
X185265285Y-128028000D01*
X185408142Y-128170857D01*
X185479571Y-128313714D01*
X185551000Y-128599428D01*
X185551000Y-128813714D01*
X185479571Y-129099428D01*
X185408142Y-129242285D01*
X185265285Y-129385142D01*
X185051000Y-129456571D01*
X184693857Y-129456571D01*
X186908142Y-127956571D02*
X186193857Y-127956571D01*
X186122428Y-128670857D01*
X186193857Y-128599428D01*
X186336714Y-128528000D01*
X186693857Y-128528000D01*
X186836714Y-128599428D01*
X186908142Y-128670857D01*
X186979571Y-128813714D01*
X186979571Y-129170857D01*
X186908142Y-129313714D01*
X186836714Y-129385142D01*
X186693857Y-129456571D01*
X186336714Y-129456571D01*
X186193857Y-129385142D01*
X186122428Y-129313714D01*
X206791857Y-128694571D02*
X206791857Y-127194571D01*
X207149000Y-127194571D01*
X207363285Y-127266000D01*
X207506142Y-127408857D01*
X207577571Y-127551714D01*
X207649000Y-127837428D01*
X207649000Y-128051714D01*
X207577571Y-128337428D01*
X207506142Y-128480285D01*
X207363285Y-128623142D01*
X207149000Y-128694571D01*
X206791857Y-128694571D01*
X208149000Y-127194571D02*
X209149000Y-127194571D01*
X208506142Y-128694571D01*
D12*
X210627000Y-105664000D02*
G75*
G03X210627000Y-105664000I-950000J0D01*
G01*
X170749000Y-115697000D02*
G75*
G03X170749000Y-115697000I-950000J0D01*
G01*
D13*
G36*
X126416678Y-93616071D02*
G01*
X126549224Y-93422278D01*
X126661333Y-93283281D01*
X126826798Y-93079490D01*
X126934360Y-92926899D01*
X126957666Y-92875986D01*
X126911800Y-92779883D01*
X126792612Y-92591840D01*
X126655515Y-92394318D01*
X126504087Y-92166983D01*
X126412708Y-91996701D01*
X126399718Y-91927392D01*
X126497688Y-91927852D01*
X126709022Y-91974089D01*
X126977036Y-92052703D01*
X127508000Y-92224368D01*
X127677333Y-92001642D01*
X127852613Y-91784008D01*
X128055533Y-91548638D01*
X128077018Y-91524791D01*
X128307369Y-91270666D01*
X128309851Y-91877161D01*
X128312333Y-92483655D01*
X128836964Y-92646722D01*
X129180580Y-92770425D01*
X129356189Y-92875906D01*
X129364091Y-92963560D01*
X129204586Y-93033781D01*
X129142318Y-93047903D01*
X128849418Y-93119984D01*
X128587500Y-93199624D01*
X128437775Y-93258910D01*
X128355472Y-93336533D01*
X128320422Y-93478525D01*
X128312456Y-93730920D01*
X128312333Y-93827675D01*
X128302538Y-94134695D01*
X128268733Y-94302434D01*
X128204286Y-94360051D01*
X128191038Y-94361000D01*
X128064790Y-94291369D01*
X128019696Y-94212833D01*
X127933288Y-94060141D01*
X127777127Y-93856074D01*
X127714858Y-93785032D01*
X127543703Y-93613916D01*
X127411299Y-93551113D01*
X127251234Y-93572221D01*
X127187701Y-93591327D01*
X126817035Y-93707096D01*
X126578523Y-93776142D01*
X126443118Y-93803600D01*
X126381778Y-93794609D01*
X126365458Y-93754305D01*
X126365000Y-93736835D01*
X126416678Y-93616071D01*
G37*
X126416678Y-93616071D02*
X126549224Y-93422278D01*
X126661333Y-93283281D01*
X126826798Y-93079490D01*
X126934360Y-92926899D01*
X126957666Y-92875986D01*
X126911800Y-92779883D01*
X126792612Y-92591840D01*
X126655515Y-92394318D01*
X126504087Y-92166983D01*
X126412708Y-91996701D01*
X126399718Y-91927392D01*
X126497688Y-91927852D01*
X126709022Y-91974089D01*
X126977036Y-92052703D01*
X127508000Y-92224368D01*
X127677333Y-92001642D01*
X127852613Y-91784008D01*
X128055533Y-91548638D01*
X128077018Y-91524791D01*
X128307369Y-91270666D01*
X128309851Y-91877161D01*
X128312333Y-92483655D01*
X128836964Y-92646722D01*
X129180580Y-92770425D01*
X129356189Y-92875906D01*
X129364091Y-92963560D01*
X129204586Y-93033781D01*
X129142318Y-93047903D01*
X128849418Y-93119984D01*
X128587500Y-93199624D01*
X128437775Y-93258910D01*
X128355472Y-93336533D01*
X128320422Y-93478525D01*
X128312456Y-93730920D01*
X128312333Y-93827675D01*
X128302538Y-94134695D01*
X128268733Y-94302434D01*
X128204286Y-94360051D01*
X128191038Y-94361000D01*
X128064790Y-94291369D01*
X128019696Y-94212833D01*
X127933288Y-94060141D01*
X127777127Y-93856074D01*
X127714858Y-93785032D01*
X127543703Y-93613916D01*
X127411299Y-93551113D01*
X127251234Y-93572221D01*
X127187701Y-93591327D01*
X126817035Y-93707096D01*
X126578523Y-93776142D01*
X126443118Y-93803600D01*
X126381778Y-93794609D01*
X126365458Y-93754305D01*
X126365000Y-93736835D01*
X126416678Y-93616071D01*
G36*
X126408504Y-103215717D02*
G01*
X126511343Y-103047043D01*
X126586026Y-102947364D01*
X126749954Y-102739144D01*
X126875566Y-102576664D01*
X126905141Y-102537198D01*
X126901070Y-102402402D01*
X126776070Y-102161305D01*
X126661786Y-101992882D01*
X126505954Y-101759016D01*
X126409850Y-101580928D01*
X126393771Y-101500673D01*
X126498142Y-101491430D01*
X126703133Y-101526323D01*
X126806459Y-101552803D01*
X127166231Y-101650784D01*
X127396898Y-101703021D01*
X127531143Y-101713765D01*
X127601646Y-101687265D01*
X127624580Y-101659191D01*
X127759769Y-101466485D01*
X127928564Y-101258816D01*
X128091798Y-101080578D01*
X128210306Y-100976164D01*
X128237039Y-100965000D01*
X128275558Y-101042183D01*
X128302704Y-101243959D01*
X128312333Y-101509628D01*
X128318153Y-101808265D01*
X128344571Y-101980014D01*
X128405027Y-102067169D01*
X128502833Y-102109161D01*
X128818192Y-102209556D01*
X129102232Y-102316403D01*
X129313563Y-102412475D01*
X129410794Y-102480549D01*
X129413000Y-102487936D01*
X129337878Y-102538739D01*
X129140875Y-102613825D01*
X128864530Y-102696997D01*
X128862666Y-102697502D01*
X128312333Y-102846471D01*
X128312333Y-103429735D01*
X128303561Y-103719259D01*
X128280507Y-103927999D01*
X128248058Y-104012788D01*
X128246273Y-104013000D01*
X128167311Y-103949205D01*
X128023516Y-103781874D01*
X127845869Y-103547091D01*
X127844106Y-103544636D01*
X127646675Y-103287492D01*
X127503903Y-103153495D01*
X127386684Y-103118630D01*
X127338666Y-103127590D01*
X127007857Y-103218212D01*
X126710204Y-103282933D01*
X126489198Y-103313679D01*
X126389547Y-103303770D01*
X126408504Y-103215717D01*
G37*
X126408504Y-103215717D02*
X126511343Y-103047043D01*
X126586026Y-102947364D01*
X126749954Y-102739144D01*
X126875566Y-102576664D01*
X126905141Y-102537198D01*
X126901070Y-102402402D01*
X126776070Y-102161305D01*
X126661786Y-101992882D01*
X126505954Y-101759016D01*
X126409850Y-101580928D01*
X126393771Y-101500673D01*
X126498142Y-101491430D01*
X126703133Y-101526323D01*
X126806459Y-101552803D01*
X127166231Y-101650784D01*
X127396898Y-101703021D01*
X127531143Y-101713765D01*
X127601646Y-101687265D01*
X127624580Y-101659191D01*
X127759769Y-101466485D01*
X127928564Y-101258816D01*
X128091798Y-101080578D01*
X128210306Y-100976164D01*
X128237039Y-100965000D01*
X128275558Y-101042183D01*
X128302704Y-101243959D01*
X128312333Y-101509628D01*
X128318153Y-101808265D01*
X128344571Y-101980014D01*
X128405027Y-102067169D01*
X128502833Y-102109161D01*
X128818192Y-102209556D01*
X129102232Y-102316403D01*
X129313563Y-102412475D01*
X129410794Y-102480549D01*
X129413000Y-102487936D01*
X129337878Y-102538739D01*
X129140875Y-102613825D01*
X128864530Y-102696997D01*
X128862666Y-102697502D01*
X128312333Y-102846471D01*
X128312333Y-103429735D01*
X128303561Y-103719259D01*
X128280507Y-103927999D01*
X128248058Y-104012788D01*
X128246273Y-104013000D01*
X128167311Y-103949205D01*
X128023516Y-103781874D01*
X127845869Y-103547091D01*
X127844106Y-103544636D01*
X127646675Y-103287492D01*
X127503903Y-103153495D01*
X127386684Y-103118630D01*
X127338666Y-103127590D01*
X127007857Y-103218212D01*
X126710204Y-103282933D01*
X126489198Y-103313679D01*
X126389547Y-103303770D01*
X126408504Y-103215717D01*
G36*
X128974991Y-91333588D02*
G01*
X129137833Y-91353375D01*
X129360172Y-91401242D01*
X129734209Y-91471703D01*
X130244226Y-91561941D01*
X130874506Y-91669142D01*
X131233333Y-91728802D01*
X131536923Y-91783138D01*
X131921199Y-91857602D01*
X132291666Y-91933707D01*
X132649339Y-92006281D01*
X133105604Y-92093937D01*
X133592057Y-92183713D01*
X133900333Y-92238513D01*
X134382246Y-92322944D01*
X134892938Y-92413046D01*
X135357994Y-92495663D01*
X135593666Y-92537877D01*
X135919786Y-92596189D01*
X136174117Y-92640913D01*
X136317208Y-92665143D01*
X136334500Y-92667551D01*
X136342823Y-92746701D01*
X136349607Y-92961797D01*
X136354127Y-93279455D01*
X136355666Y-93643990D01*
X136351397Y-94083013D01*
X136336468Y-94379223D01*
X136307700Y-94558976D01*
X136261914Y-94648629D01*
X136232158Y-94667709D01*
X136070518Y-94676734D01*
X135845814Y-94634296D01*
X135829991Y-94629573D01*
X135572306Y-94566082D01*
X135251902Y-94507010D01*
X135128000Y-94489115D01*
X134807005Y-94440220D01*
X134500848Y-94382274D01*
X134408333Y-94361224D01*
X134148947Y-94302654D01*
X133819956Y-94235137D01*
X133646333Y-94201882D01*
X133325403Y-94142141D01*
X132922550Y-94066860D01*
X132522260Y-93991827D01*
X132503333Y-93988271D01*
X132069251Y-93907899D01*
X131594034Y-93821687D01*
X131199202Y-93751581D01*
X130861697Y-93684643D01*
X130641911Y-93612444D01*
X130489224Y-93511411D01*
X130353015Y-93357976D01*
X130352536Y-93357355D01*
X130183277Y-93141724D01*
X129957937Y-92859238D01*
X129744661Y-92594959D01*
X129460101Y-92232901D01*
X129215556Y-91899498D01*
X129030255Y-91622831D01*
X128923430Y-91430983D01*
X128905000Y-91368834D01*
X128974991Y-91333588D01*
G37*
X128974991Y-91333588D02*
X129137833Y-91353375D01*
X129360172Y-91401242D01*
X129734209Y-91471703D01*
X130244226Y-91561941D01*
X130874506Y-91669142D01*
X131233333Y-91728802D01*
X131536923Y-91783138D01*
X131921199Y-91857602D01*
X132291666Y-91933707D01*
X132649339Y-92006281D01*
X133105604Y-92093937D01*
X133592057Y-92183713D01*
X133900333Y-92238513D01*
X134382246Y-92322944D01*
X134892938Y-92413046D01*
X135357994Y-92495663D01*
X135593666Y-92537877D01*
X135919786Y-92596189D01*
X136174117Y-92640913D01*
X136317208Y-92665143D01*
X136334500Y-92667551D01*
X136342823Y-92746701D01*
X136349607Y-92961797D01*
X136354127Y-93279455D01*
X136355666Y-93643990D01*
X136351397Y-94083013D01*
X136336468Y-94379223D01*
X136307700Y-94558976D01*
X136261914Y-94648629D01*
X136232158Y-94667709D01*
X136070518Y-94676734D01*
X135845814Y-94634296D01*
X135829991Y-94629573D01*
X135572306Y-94566082D01*
X135251902Y-94507010D01*
X135128000Y-94489115D01*
X134807005Y-94440220D01*
X134500848Y-94382274D01*
X134408333Y-94361224D01*
X134148947Y-94302654D01*
X133819956Y-94235137D01*
X133646333Y-94201882D01*
X133325403Y-94142141D01*
X132922550Y-94066860D01*
X132522260Y-93991827D01*
X132503333Y-93988271D01*
X132069251Y-93907899D01*
X131594034Y-93821687D01*
X131199202Y-93751581D01*
X130861697Y-93684643D01*
X130641911Y-93612444D01*
X130489224Y-93511411D01*
X130353015Y-93357976D01*
X130352536Y-93357355D01*
X130183277Y-93141724D01*
X129957937Y-92859238D01*
X129744661Y-92594959D01*
X129460101Y-92232901D01*
X129215556Y-91899498D01*
X129030255Y-91622831D01*
X128923430Y-91430983D01*
X128905000Y-91368834D01*
X128974991Y-91333588D01*
G36*
X128941216Y-100910048D02*
G01*
X129169523Y-100937651D01*
X129495194Y-100989824D01*
X129884196Y-101060773D01*
X130302495Y-101144708D01*
X130640666Y-101218519D01*
X130865492Y-101265792D01*
X131205372Y-101332683D01*
X131608644Y-101409172D01*
X131910666Y-101464820D01*
X132472251Y-101567165D01*
X133092745Y-101680684D01*
X133735090Y-101798558D01*
X134362227Y-101913965D01*
X134937097Y-102020086D01*
X135422642Y-102110100D01*
X135781803Y-102177187D01*
X135805333Y-102181616D01*
X136313333Y-102277333D01*
X136337269Y-103281753D01*
X136361206Y-104286173D01*
X136083269Y-104242503D01*
X135708361Y-104180768D01*
X135213551Y-104095194D01*
X134645197Y-103994054D01*
X134049658Y-103885621D01*
X133473294Y-103778166D01*
X133350000Y-103754780D01*
X132957015Y-103680124D01*
X132612865Y-103615031D01*
X132359382Y-103567396D01*
X132249333Y-103547046D01*
X131687469Y-103447663D01*
X131264624Y-103371545D01*
X130954235Y-103306497D01*
X130729743Y-103240322D01*
X130564586Y-103160824D01*
X130432205Y-103055806D01*
X130306039Y-102913072D01*
X130159526Y-102720426D01*
X130005666Y-102516778D01*
X129858178Y-102325154D01*
X129644385Y-102047425D01*
X129401286Y-101731657D01*
X129298396Y-101598018D01*
X129090220Y-101318388D01*
X128934229Y-101090918D01*
X128850937Y-100946563D01*
X128844305Y-100912805D01*
X128941216Y-100910048D01*
G37*
X128941216Y-100910048D02*
X129169523Y-100937651D01*
X129495194Y-100989824D01*
X129884196Y-101060773D01*
X130302495Y-101144708D01*
X130640666Y-101218519D01*
X130865492Y-101265792D01*
X131205372Y-101332683D01*
X131608644Y-101409172D01*
X131910666Y-101464820D01*
X132472251Y-101567165D01*
X133092745Y-101680684D01*
X133735090Y-101798558D01*
X134362227Y-101913965D01*
X134937097Y-102020086D01*
X135422642Y-102110100D01*
X135781803Y-102177187D01*
X135805333Y-102181616D01*
X136313333Y-102277333D01*
X136337269Y-103281753D01*
X136361206Y-104286173D01*
X136083269Y-104242503D01*
X135708361Y-104180768D01*
X135213551Y-104095194D01*
X134645197Y-103994054D01*
X134049658Y-103885621D01*
X133473294Y-103778166D01*
X133350000Y-103754780D01*
X132957015Y-103680124D01*
X132612865Y-103615031D01*
X132359382Y-103567396D01*
X132249333Y-103547046D01*
X131687469Y-103447663D01*
X131264624Y-103371545D01*
X130954235Y-103306497D01*
X130729743Y-103240322D01*
X130564586Y-103160824D01*
X130432205Y-103055806D01*
X130306039Y-102913072D01*
X130159526Y-102720426D01*
X130005666Y-102516778D01*
X129858178Y-102325154D01*
X129644385Y-102047425D01*
X129401286Y-101731657D01*
X129298396Y-101598018D01*
X129090220Y-101318388D01*
X128934229Y-101090918D01*
X128850937Y-100946563D01*
X128844305Y-100912805D01*
X128941216Y-100910048D01*
G36*
X128832958Y-109988346D02*
G01*
X128932316Y-109985666D01*
X129165657Y-110010342D01*
X129500793Y-110057155D01*
X129905537Y-110120887D01*
X130347699Y-110196320D01*
X130795094Y-110278234D01*
X131215533Y-110361412D01*
X131466166Y-110415260D01*
X131699000Y-110467407D01*
X131699000Y-108111929D01*
X131212166Y-108013605D01*
X130858679Y-107945298D01*
X130441588Y-107869056D01*
X130132666Y-107815295D01*
X129792974Y-107755944D01*
X129484901Y-107698631D01*
X129286000Y-107658081D01*
X129032000Y-107600851D01*
X129008059Y-106601230D01*
X128984119Y-105601608D01*
X129389059Y-105657567D01*
X129730446Y-105710030D01*
X130190762Y-105788265D01*
X130723076Y-105883932D01*
X131280455Y-105988692D01*
X131572000Y-106045449D01*
X131898814Y-106108634D01*
X132351396Y-106194347D01*
X132888882Y-106294996D01*
X133470406Y-106402987D01*
X134055103Y-106510726D01*
X134602110Y-106610620D01*
X135001000Y-106682631D01*
X135382021Y-106752288D01*
X135727067Y-106817807D01*
X135983378Y-106869070D01*
X136059333Y-106885626D01*
X136313333Y-106944482D01*
X136361239Y-108946710D01*
X136040953Y-108897999D01*
X135809811Y-108860595D01*
X135472732Y-108803334D01*
X135090395Y-108736579D01*
X134958666Y-108713166D01*
X134575266Y-108645478D01*
X134216607Y-108583544D01*
X133943137Y-108537759D01*
X133879166Y-108527540D01*
X133561666Y-108478037D01*
X133561666Y-110783107D01*
X133794500Y-110829024D01*
X134025787Y-110875962D01*
X134319036Y-110937101D01*
X134408333Y-110956014D01*
X134668005Y-111008264D01*
X135030189Y-111077321D01*
X135430560Y-111151004D01*
X135572500Y-111176467D01*
X136355666Y-111315848D01*
X136355666Y-113241666D01*
X136023223Y-113241666D01*
X135797822Y-113224523D01*
X135460763Y-113178389D01*
X135065646Y-113111209D01*
X134816723Y-113062821D01*
X134216965Y-112941277D01*
X133718836Y-112843584D01*
X133258473Y-112757740D01*
X132772010Y-112671740D01*
X132376333Y-112604099D01*
X131816277Y-112505769D01*
X131328795Y-112413372D01*
X130944120Y-112332941D01*
X130692485Y-112270508D01*
X130669639Y-112263561D01*
X130550845Y-112177027D01*
X130371870Y-111991730D01*
X130170538Y-111746998D01*
X130161853Y-111735605D01*
X129975066Y-111491898D01*
X129828532Y-111304668D01*
X129751949Y-111211819D01*
X129749800Y-111209666D01*
X129679271Y-111125611D01*
X129536741Y-110945386D01*
X129352728Y-110707596D01*
X129348182Y-110701666D01*
X129153838Y-110449717D01*
X128991053Y-110241456D01*
X128897221Y-110124597D01*
X128831271Y-110017504D01*
X128832958Y-109988346D01*
G37*
X128832958Y-109988346D02*
X128932316Y-109985666D01*
X129165657Y-110010342D01*
X129500793Y-110057155D01*
X129905537Y-110120887D01*
X130347699Y-110196320D01*
X130795094Y-110278234D01*
X131215533Y-110361412D01*
X131466166Y-110415260D01*
X131699000Y-110467407D01*
X131699000Y-108111929D01*
X131212166Y-108013605D01*
X130858679Y-107945298D01*
X130441588Y-107869056D01*
X130132666Y-107815295D01*
X129792974Y-107755944D01*
X129484901Y-107698631D01*
X129286000Y-107658081D01*
X129032000Y-107600851D01*
X129008059Y-106601230D01*
X128984119Y-105601608D01*
X129389059Y-105657567D01*
X129730446Y-105710030D01*
X130190762Y-105788265D01*
X130723076Y-105883932D01*
X131280455Y-105988692D01*
X131572000Y-106045449D01*
X131898814Y-106108634D01*
X132351396Y-106194347D01*
X132888882Y-106294996D01*
X133470406Y-106402987D01*
X134055103Y-106510726D01*
X134602110Y-106610620D01*
X135001000Y-106682631D01*
X135382021Y-106752288D01*
X135727067Y-106817807D01*
X135983378Y-106869070D01*
X136059333Y-106885626D01*
X136313333Y-106944482D01*
X136361239Y-108946710D01*
X136040953Y-108897999D01*
X135809811Y-108860595D01*
X135472732Y-108803334D01*
X135090395Y-108736579D01*
X134958666Y-108713166D01*
X134575266Y-108645478D01*
X134216607Y-108583544D01*
X133943137Y-108537759D01*
X133879166Y-108527540D01*
X133561666Y-108478037D01*
X133561666Y-110783107D01*
X133794500Y-110829024D01*
X134025787Y-110875962D01*
X134319036Y-110937101D01*
X134408333Y-110956014D01*
X134668005Y-111008264D01*
X135030189Y-111077321D01*
X135430560Y-111151004D01*
X135572500Y-111176467D01*
X136355666Y-111315848D01*
X136355666Y-113241666D01*
X136023223Y-113241666D01*
X135797822Y-113224523D01*
X135460763Y-113178389D01*
X135065646Y-113111209D01*
X134816723Y-113062821D01*
X134216965Y-112941277D01*
X133718836Y-112843584D01*
X133258473Y-112757740D01*
X132772010Y-112671740D01*
X132376333Y-112604099D01*
X131816277Y-112505769D01*
X131328795Y-112413372D01*
X130944120Y-112332941D01*
X130692485Y-112270508D01*
X130669639Y-112263561D01*
X130550845Y-112177027D01*
X130371870Y-111991730D01*
X130170538Y-111746998D01*
X130161853Y-111735605D01*
X129975066Y-111491898D01*
X129828532Y-111304668D01*
X129751949Y-111211819D01*
X129749800Y-111209666D01*
X129679271Y-111125611D01*
X129536741Y-110945386D01*
X129352728Y-110707596D01*
X129348182Y-110701666D01*
X129153838Y-110449717D01*
X128991053Y-110241456D01*
X128897221Y-110124597D01*
X128831271Y-110017504D01*
X128832958Y-109988346D01*
G36*
X129222500Y-81690010D02*
G01*
X129413106Y-81725072D01*
X129714084Y-81780760D01*
X130069335Y-81846689D01*
X130175000Y-81866334D01*
X130539895Y-81933571D01*
X131012394Y-82019726D01*
X131533380Y-82114061D01*
X132043740Y-82205840D01*
X132080000Y-82212332D01*
X132623393Y-82310004D01*
X133062300Y-82390275D01*
X133452507Y-82463814D01*
X133849800Y-82541293D01*
X134309966Y-82633381D01*
X134789333Y-82730526D01*
X135374111Y-82847028D01*
X135837518Y-82934387D01*
X136164637Y-82989897D01*
X136334500Y-83010619D01*
X136433091Y-83061080D01*
X136440333Y-83087459D01*
X136380659Y-83163039D01*
X136213393Y-83335462D01*
X135956168Y-83587582D01*
X135626616Y-83902258D01*
X135242368Y-84262346D01*
X135025230Y-84463292D01*
X134557876Y-84895059D01*
X134077739Y-85340562D01*
X133617661Y-85769192D01*
X133210485Y-86150338D01*
X132889052Y-86453391D01*
X132840739Y-86499278D01*
X132071352Y-87231222D01*
X132372009Y-87278517D01*
X133943074Y-87545550D01*
X135212666Y-87795455D01*
X135608324Y-87877737D01*
X135942818Y-87945485D01*
X136181806Y-87991870D01*
X136290947Y-88010065D01*
X136292166Y-88010110D01*
X136316619Y-88089689D01*
X136336704Y-88305920D01*
X136350394Y-88626142D01*
X136355659Y-89017689D01*
X136355666Y-89032705D01*
X136353734Y-89462909D01*
X136345277Y-89750092D01*
X136326304Y-89920548D01*
X136292824Y-90000571D01*
X136240845Y-90016455D01*
X136207500Y-90008817D01*
X136060448Y-89975382D01*
X135793432Y-89924795D01*
X135453824Y-89865840D01*
X135297333Y-89840112D01*
X134894158Y-89771633D01*
X134497724Y-89698709D01*
X134178436Y-89634433D01*
X134112000Y-89619665D01*
X133820756Y-89559050D01*
X133436961Y-89487597D01*
X133035585Y-89419154D01*
X132969000Y-89408499D01*
X132546436Y-89336715D01*
X132046132Y-89244402D01*
X131555620Y-89147895D01*
X131402666Y-89116194D01*
X130976805Y-89018229D01*
X130666608Y-88914427D01*
X130424694Y-88774054D01*
X130203682Y-88566376D01*
X129956189Y-88260659D01*
X129836333Y-88100209D01*
X129657887Y-87866578D01*
X129434561Y-87584249D01*
X129307166Y-87427184D01*
X129137368Y-87212957D01*
X129022158Y-87053447D01*
X128989666Y-86993047D01*
X129018409Y-86953534D01*
X129110410Y-86858928D01*
X129274325Y-86701202D01*
X129518812Y-86472331D01*
X129852525Y-86164290D01*
X130284123Y-85769052D01*
X130822262Y-85278592D01*
X131475599Y-84684885D01*
X131650638Y-84526017D01*
X131992242Y-84216035D01*
X131655121Y-84158615D01*
X131168106Y-84073646D01*
X130630072Y-83976532D01*
X130103550Y-83878797D01*
X129651076Y-83791965D01*
X129476500Y-83757125D01*
X128989666Y-83658070D01*
X128989666Y-81647545D01*
X129222500Y-81690010D01*
G37*
X129222500Y-81690010D02*
X129413106Y-81725072D01*
X129714084Y-81780760D01*
X130069335Y-81846689D01*
X130175000Y-81866334D01*
X130539895Y-81933571D01*
X131012394Y-82019726D01*
X131533380Y-82114061D01*
X132043740Y-82205840D01*
X132080000Y-82212332D01*
X132623393Y-82310004D01*
X133062300Y-82390275D01*
X133452507Y-82463814D01*
X133849800Y-82541293D01*
X134309966Y-82633381D01*
X134789333Y-82730526D01*
X135374111Y-82847028D01*
X135837518Y-82934387D01*
X136164637Y-82989897D01*
X136334500Y-83010619D01*
X136433091Y-83061080D01*
X136440333Y-83087459D01*
X136380659Y-83163039D01*
X136213393Y-83335462D01*
X135956168Y-83587582D01*
X135626616Y-83902258D01*
X135242368Y-84262346D01*
X135025230Y-84463292D01*
X134557876Y-84895059D01*
X134077739Y-85340562D01*
X133617661Y-85769192D01*
X133210485Y-86150338D01*
X132889052Y-86453391D01*
X132840739Y-86499278D01*
X132071352Y-87231222D01*
X132372009Y-87278517D01*
X133943074Y-87545550D01*
X135212666Y-87795455D01*
X135608324Y-87877737D01*
X135942818Y-87945485D01*
X136181806Y-87991870D01*
X136290947Y-88010065D01*
X136292166Y-88010110D01*
X136316619Y-88089689D01*
X136336704Y-88305920D01*
X136350394Y-88626142D01*
X136355659Y-89017689D01*
X136355666Y-89032705D01*
X136353734Y-89462909D01*
X136345277Y-89750092D01*
X136326304Y-89920548D01*
X136292824Y-90000571D01*
X136240845Y-90016455D01*
X136207500Y-90008817D01*
X136060448Y-89975382D01*
X135793432Y-89924795D01*
X135453824Y-89865840D01*
X135297333Y-89840112D01*
X134894158Y-89771633D01*
X134497724Y-89698709D01*
X134178436Y-89634433D01*
X134112000Y-89619665D01*
X133820756Y-89559050D01*
X133436961Y-89487597D01*
X133035585Y-89419154D01*
X132969000Y-89408499D01*
X132546436Y-89336715D01*
X132046132Y-89244402D01*
X131555620Y-89147895D01*
X131402666Y-89116194D01*
X130976805Y-89018229D01*
X130666608Y-88914427D01*
X130424694Y-88774054D01*
X130203682Y-88566376D01*
X129956189Y-88260659D01*
X129836333Y-88100209D01*
X129657887Y-87866578D01*
X129434561Y-87584249D01*
X129307166Y-87427184D01*
X129137368Y-87212957D01*
X129022158Y-87053447D01*
X128989666Y-86993047D01*
X129018409Y-86953534D01*
X129110410Y-86858928D01*
X129274325Y-86701202D01*
X129518812Y-86472331D01*
X129852525Y-86164290D01*
X130284123Y-85769052D01*
X130822262Y-85278592D01*
X131475599Y-84684885D01*
X131650638Y-84526017D01*
X131992242Y-84216035D01*
X131655121Y-84158615D01*
X131168106Y-84073646D01*
X130630072Y-83976532D01*
X130103550Y-83878797D01*
X129651076Y-83791965D01*
X129476500Y-83757125D01*
X128989666Y-83658070D01*
X128989666Y-81647545D01*
X129222500Y-81690010D01*
G36*
X128883571Y-77576556D02*
G01*
X128937939Y-77537707D01*
X129052981Y-77450340D01*
X129252260Y-77279584D01*
X129497255Y-77058683D01*
X129555961Y-77004333D01*
X129844838Y-76738037D01*
X130133418Y-76476131D01*
X130362179Y-76272605D01*
X130373963Y-76262333D01*
X130569638Y-76060945D01*
X130637051Y-75914819D01*
X130628151Y-75881333D01*
X130552494Y-75775718D01*
X130395406Y-75568716D01*
X130180799Y-75291513D01*
X129963665Y-75014666D01*
X129629144Y-74593160D01*
X129380989Y-74273434D01*
X129206407Y-74020005D01*
X129092603Y-73797392D01*
X129026783Y-73570111D01*
X128996153Y-73302681D01*
X128987919Y-72959619D01*
X128989287Y-72505442D01*
X128989666Y-72313430D01*
X128994145Y-71825176D01*
X129006671Y-71417189D01*
X129025877Y-71114038D01*
X129050399Y-70940293D01*
X129067786Y-70908333D01*
X129170700Y-70977300D01*
X129365187Y-71180836D01*
X129647000Y-71513897D01*
X130011893Y-71971438D01*
X130455617Y-72548415D01*
X130518213Y-72631063D01*
X130822352Y-73032361D01*
X131146859Y-73459057D01*
X131446908Y-73852279D01*
X131624386Y-74083899D01*
X132100106Y-74703005D01*
X133015228Y-73856421D01*
X133374749Y-73526659D01*
X133635937Y-73297592D01*
X133822931Y-73152974D01*
X133959870Y-73076563D01*
X134070892Y-73052116D01*
X134180138Y-73063388D01*
X134190508Y-73065557D01*
X134391975Y-73104912D01*
X134704602Y-73161748D01*
X135072474Y-73225986D01*
X135212666Y-73249827D01*
X135688484Y-73330778D01*
X136022295Y-73390594D01*
X136239169Y-73435690D01*
X136364174Y-73472481D01*
X136422381Y-73507384D01*
X136438860Y-73546815D01*
X136439401Y-73563776D01*
X136380113Y-73652196D01*
X136217259Y-73832518D01*
X135972338Y-74082484D01*
X135666851Y-74379836D01*
X135487774Y-74549000D01*
X135100721Y-74911573D01*
X134704572Y-75283765D01*
X134340196Y-75627108D01*
X134048465Y-75903134D01*
X133991153Y-75957609D01*
X133445227Y-76477218D01*
X133784855Y-76888942D01*
X133967320Y-77115612D01*
X134219646Y-77436437D01*
X134509780Y-77810341D01*
X134805670Y-78196248D01*
X134832883Y-78232000D01*
X135093729Y-78573534D01*
X135318445Y-78865128D01*
X135486974Y-79080951D01*
X135579256Y-79195173D01*
X135588961Y-79205666D01*
X135682012Y-79310596D01*
X135835220Y-79504742D01*
X136020593Y-79750033D01*
X136210142Y-80008392D01*
X136375875Y-80241745D01*
X136489801Y-80412019D01*
X136525000Y-80478903D01*
X136457552Y-80519191D01*
X136376833Y-80512338D01*
X136238343Y-80486592D01*
X135971334Y-80440364D01*
X135614441Y-80380242D01*
X135212666Y-80313854D01*
X134800781Y-80243278D01*
X134436874Y-80175152D01*
X134161161Y-80117378D01*
X134016167Y-80078757D01*
X133903658Y-79990429D01*
X133711487Y-79791770D01*
X133461897Y-79507688D01*
X133177134Y-79163089D01*
X133009580Y-78951666D01*
X132723843Y-78586168D01*
X132473114Y-78266522D01*
X132276617Y-78017155D01*
X132153577Y-77862490D01*
X132123180Y-77825500D01*
X132040367Y-77852214D01*
X131853884Y-77971828D01*
X131588403Y-78166778D01*
X131268596Y-78419505D01*
X131140100Y-78525254D01*
X130800157Y-78799843D01*
X130499187Y-79027718D01*
X130263893Y-79189785D01*
X130120979Y-79266948D01*
X130098011Y-79270420D01*
X130007579Y-79199084D01*
X129844084Y-79024220D01*
X129634167Y-78779166D01*
X129404473Y-78497261D01*
X129181643Y-78211844D01*
X128992321Y-77956252D01*
X128863148Y-77763826D01*
X128820333Y-77671627D01*
X128883571Y-77576556D01*
G37*
X128883571Y-77576556D02*
X128937939Y-77537707D01*
X129052981Y-77450340D01*
X129252260Y-77279584D01*
X129497255Y-77058683D01*
X129555961Y-77004333D01*
X129844838Y-76738037D01*
X130133418Y-76476131D01*
X130362179Y-76272605D01*
X130373963Y-76262333D01*
X130569638Y-76060945D01*
X130637051Y-75914819D01*
X130628151Y-75881333D01*
X130552494Y-75775718D01*
X130395406Y-75568716D01*
X130180799Y-75291513D01*
X129963665Y-75014666D01*
X129629144Y-74593160D01*
X129380989Y-74273434D01*
X129206407Y-74020005D01*
X129092603Y-73797392D01*
X129026783Y-73570111D01*
X128996153Y-73302681D01*
X128987919Y-72959619D01*
X128989287Y-72505442D01*
X128989666Y-72313430D01*
X128994145Y-71825176D01*
X129006671Y-71417189D01*
X129025877Y-71114038D01*
X129050399Y-70940293D01*
X129067786Y-70908333D01*
X129170700Y-70977300D01*
X129365187Y-71180836D01*
X129647000Y-71513897D01*
X130011893Y-71971438D01*
X130455617Y-72548415D01*
X130518213Y-72631063D01*
X130822352Y-73032361D01*
X131146859Y-73459057D01*
X131446908Y-73852279D01*
X131624386Y-74083899D01*
X132100106Y-74703005D01*
X133015228Y-73856421D01*
X133374749Y-73526659D01*
X133635937Y-73297592D01*
X133822931Y-73152974D01*
X133959870Y-73076563D01*
X134070892Y-73052116D01*
X134180138Y-73063388D01*
X134190508Y-73065557D01*
X134391975Y-73104912D01*
X134704602Y-73161748D01*
X135072474Y-73225986D01*
X135212666Y-73249827D01*
X135688484Y-73330778D01*
X136022295Y-73390594D01*
X136239169Y-73435690D01*
X136364174Y-73472481D01*
X136422381Y-73507384D01*
X136438860Y-73546815D01*
X136439401Y-73563776D01*
X136380113Y-73652196D01*
X136217259Y-73832518D01*
X135972338Y-74082484D01*
X135666851Y-74379836D01*
X135487774Y-74549000D01*
X135100721Y-74911573D01*
X134704572Y-75283765D01*
X134340196Y-75627108D01*
X134048465Y-75903134D01*
X133991153Y-75957609D01*
X133445227Y-76477218D01*
X133784855Y-76888942D01*
X133967320Y-77115612D01*
X134219646Y-77436437D01*
X134509780Y-77810341D01*
X134805670Y-78196248D01*
X134832883Y-78232000D01*
X135093729Y-78573534D01*
X135318445Y-78865128D01*
X135486974Y-79080951D01*
X135579256Y-79195173D01*
X135588961Y-79205666D01*
X135682012Y-79310596D01*
X135835220Y-79504742D01*
X136020593Y-79750033D01*
X136210142Y-80008392D01*
X136375875Y-80241745D01*
X136489801Y-80412019D01*
X136525000Y-80478903D01*
X136457552Y-80519191D01*
X136376833Y-80512338D01*
X136238343Y-80486592D01*
X135971334Y-80440364D01*
X135614441Y-80380242D01*
X135212666Y-80313854D01*
X134800781Y-80243278D01*
X134436874Y-80175152D01*
X134161161Y-80117378D01*
X134016167Y-80078757D01*
X133903658Y-79990429D01*
X133711487Y-79791770D01*
X133461897Y-79507688D01*
X133177134Y-79163089D01*
X133009580Y-78951666D01*
X132723843Y-78586168D01*
X132473114Y-78266522D01*
X132276617Y-78017155D01*
X132153577Y-77862490D01*
X132123180Y-77825500D01*
X132040367Y-77852214D01*
X131853884Y-77971828D01*
X131588403Y-78166778D01*
X131268596Y-78419505D01*
X131140100Y-78525254D01*
X130800157Y-78799843D01*
X130499187Y-79027718D01*
X130263893Y-79189785D01*
X130120979Y-79266948D01*
X130098011Y-79270420D01*
X130007579Y-79199084D01*
X129844084Y-79024220D01*
X129634167Y-78779166D01*
X129404473Y-78497261D01*
X129181643Y-78211844D01*
X128992321Y-77956252D01*
X128863148Y-77763826D01*
X128820333Y-77671627D01*
X128883571Y-77576556D01*
G36*
X128927528Y-96177774D02*
G01*
X129008131Y-96152955D01*
X129166330Y-96156303D01*
X129421651Y-96190006D01*
X129793617Y-96256254D01*
X130301752Y-96357235D01*
X130598333Y-96418390D01*
X130970806Y-96492346D01*
X131336123Y-96559273D01*
X131614333Y-96604549D01*
X131836155Y-96640610D01*
X132181867Y-96702120D01*
X132609303Y-96781354D01*
X133076301Y-96870592D01*
X133223000Y-96899175D01*
X133760561Y-97003726D01*
X134396531Y-97126316D01*
X135062864Y-97253890D01*
X135691513Y-97373392D01*
X135890000Y-97410886D01*
X136557151Y-97544487D01*
X137083084Y-97670846D01*
X137494958Y-97800658D01*
X137819934Y-97944614D01*
X138085175Y-98113407D01*
X138317842Y-98317728D01*
X138393728Y-98396518D01*
X138659092Y-98695576D01*
X138837769Y-98948899D01*
X138948693Y-99205836D01*
X139010798Y-99515736D01*
X139043018Y-99927949D01*
X139050886Y-100109311D01*
X139085104Y-100989288D01*
X138715219Y-100936621D01*
X138278909Y-100869252D01*
X137890066Y-100799532D01*
X137584967Y-100734693D01*
X137399892Y-100681969D01*
X137371895Y-100668808D01*
X137316589Y-100557177D01*
X137288056Y-100348251D01*
X137287000Y-100297428D01*
X137220589Y-99971672D01*
X137017481Y-99734838D01*
X136671862Y-99581747D01*
X136428442Y-99532723D01*
X136191246Y-99494674D01*
X135827011Y-99431577D01*
X135374970Y-99350440D01*
X134874357Y-99258269D01*
X134535333Y-99194593D01*
X134022813Y-99097703D01*
X133531762Y-99005198D01*
X133101809Y-98924520D01*
X132772581Y-98863111D01*
X132630333Y-98836863D01*
X132304162Y-98773220D01*
X131994773Y-98706430D01*
X131868333Y-98676128D01*
X131611838Y-98622774D01*
X131280221Y-98569091D01*
X131082904Y-98543167D01*
X130593809Y-98485821D01*
X129749404Y-97401983D01*
X129464650Y-97031214D01*
X129220883Y-96703753D01*
X129035695Y-96444047D01*
X128926679Y-96276545D01*
X128905000Y-96228572D01*
X128927528Y-96177774D01*
G37*
X128927528Y-96177774D02*
X129008131Y-96152955D01*
X129166330Y-96156303D01*
X129421651Y-96190006D01*
X129793617Y-96256254D01*
X130301752Y-96357235D01*
X130598333Y-96418390D01*
X130970806Y-96492346D01*
X131336123Y-96559273D01*
X131614333Y-96604549D01*
X131836155Y-96640610D01*
X132181867Y-96702120D01*
X132609303Y-96781354D01*
X133076301Y-96870592D01*
X133223000Y-96899175D01*
X133760561Y-97003726D01*
X134396531Y-97126316D01*
X135062864Y-97253890D01*
X135691513Y-97373392D01*
X135890000Y-97410886D01*
X136557151Y-97544487D01*
X137083084Y-97670846D01*
X137494958Y-97800658D01*
X137819934Y-97944614D01*
X138085175Y-98113407D01*
X138317842Y-98317728D01*
X138393728Y-98396518D01*
X138659092Y-98695576D01*
X138837769Y-98948899D01*
X138948693Y-99205836D01*
X139010798Y-99515736D01*
X139043018Y-99927949D01*
X139050886Y-100109311D01*
X139085104Y-100989288D01*
X138715219Y-100936621D01*
X138278909Y-100869252D01*
X137890066Y-100799532D01*
X137584967Y-100734693D01*
X137399892Y-100681969D01*
X137371895Y-100668808D01*
X137316589Y-100557177D01*
X137288056Y-100348251D01*
X137287000Y-100297428D01*
X137220589Y-99971672D01*
X137017481Y-99734838D01*
X136671862Y-99581747D01*
X136428442Y-99532723D01*
X136191246Y-99494674D01*
X135827011Y-99431577D01*
X135374970Y-99350440D01*
X134874357Y-99258269D01*
X134535333Y-99194593D01*
X134022813Y-99097703D01*
X133531762Y-99005198D01*
X133101809Y-98924520D01*
X132772581Y-98863111D01*
X132630333Y-98836863D01*
X132304162Y-98773220D01*
X131994773Y-98706430D01*
X131868333Y-98676128D01*
X131611838Y-98622774D01*
X131280221Y-98569091D01*
X131082904Y-98543167D01*
X130593809Y-98485821D01*
X129749404Y-97401983D01*
X129464650Y-97031214D01*
X129220883Y-96703753D01*
X129035695Y-96444047D01*
X128926679Y-96276545D01*
X128905000Y-96228572D01*
X128927528Y-96177774D01*
D14*
G36*
X178965000Y-100150000D02*
G01*
X178711000Y-100404000D01*
X178457000Y-100023000D01*
X178711000Y-99769000D01*
X178965000Y-100150000D01*
G37*
X178965000Y-100150000D02*
X178711000Y-100404000D01*
X178457000Y-100023000D01*
X178711000Y-99769000D01*
X178965000Y-100150000D01*
G36*
X178584000Y-100531000D02*
G01*
X178330000Y-100785000D01*
X178076000Y-100404000D01*
X178330000Y-100150000D01*
X178584000Y-100531000D01*
G37*
X178584000Y-100531000D02*
X178330000Y-100785000D01*
X178076000Y-100404000D01*
X178330000Y-100150000D01*
X178584000Y-100531000D01*
G36*
X176679000Y-99769000D02*
G01*
X176425000Y-100023000D01*
X176171000Y-99642000D01*
X176425000Y-99388000D01*
X176679000Y-99769000D01*
G37*
X176679000Y-99769000D02*
X176425000Y-100023000D01*
X176171000Y-99642000D01*
X176425000Y-99388000D01*
X176679000Y-99769000D01*
G36*
X177060000Y-100277000D02*
G01*
X176806000Y-100531000D01*
X176552000Y-100150000D01*
X176806000Y-99896000D01*
X177060000Y-100277000D01*
G37*
X177060000Y-100277000D02*
X176806000Y-100531000D01*
X176552000Y-100150000D01*
X176806000Y-99896000D01*
X177060000Y-100277000D01*
G36*
X177441000Y-100785000D02*
G01*
X177187000Y-101039000D01*
X176933000Y-100658000D01*
X177187000Y-100404000D01*
X177441000Y-100785000D01*
G37*
X177441000Y-100785000D02*
X177187000Y-101039000D01*
X176933000Y-100658000D01*
X177187000Y-100404000D01*
X177441000Y-100785000D01*
G36*
X177441000Y-99896000D02*
G01*
X177187000Y-100150000D01*
X176933000Y-99769000D01*
X177187000Y-99515000D01*
X177441000Y-99896000D01*
G37*
X177441000Y-99896000D02*
X177187000Y-100150000D01*
X176933000Y-99769000D01*
X177187000Y-99515000D01*
X177441000Y-99896000D01*
G36*
X177822000Y-100404000D02*
G01*
X177568000Y-100658000D01*
X177314000Y-100277000D01*
X177568000Y-100023000D01*
X177822000Y-100404000D01*
G37*
X177822000Y-100404000D02*
X177568000Y-100658000D01*
X177314000Y-100277000D01*
X177568000Y-100023000D01*
X177822000Y-100404000D01*
G36*
X178203000Y-100912000D02*
G01*
X177949000Y-101166000D01*
X177695000Y-100785000D01*
X177949000Y-100531000D01*
X178203000Y-100912000D01*
G37*
X178203000Y-100912000D02*
X177949000Y-101166000D01*
X177695000Y-100785000D01*
X177949000Y-100531000D01*
X178203000Y-100912000D01*
D10*
X145288000Y-109347000D02*
X145288000Y-91567000D01*
X206248000Y-109347000D02*
X145288000Y-109347000D01*
X206248000Y-91567000D02*
X206248000Y-109347000D01*
X145288000Y-91567000D02*
X206248000Y-91567000D01*
X150368000Y-104267000D02*
X145288000Y-104267000D01*
X150368000Y-96647000D02*
X145288000Y-96647000D01*
X150368000Y-104267000D02*
X150368000Y-96647000D01*
X144018000Y-96647000D02*
X145288000Y-96647000D01*
X144018000Y-104267000D02*
X144018000Y-96647000D01*
X145288000Y-104267000D02*
X144018000Y-104267000D01*
X206248000Y-94107000D02*
X193548000Y-94107000D01*
X193548000Y-94107000D02*
X193548000Y-106807000D01*
X193548000Y-106807000D02*
X206248000Y-106807000D01*
X206248000Y-95377000D02*
X204978000Y-95377000D01*
X204978000Y-95377000D02*
X204978000Y-105537000D01*
X204978000Y-105537000D02*
X206248000Y-105537000D01*
X189738000Y-99187000D02*
X189738000Y-101727000D01*
X189738000Y-101727000D02*
X185928000Y-101727000D01*
X185928000Y-101727000D02*
X185928000Y-99187000D01*
X185928000Y-99187000D02*
X189738000Y-99187000D01*
X151587200Y-103756200D02*
X164287200Y-103756200D01*
X164287200Y-103756200D02*
X164287200Y-106296200D01*
X164287200Y-106296200D02*
X151587200Y-106296200D01*
X151587200Y-106296200D02*
X151587200Y-103756200D01*
X151587200Y-103756200D02*
X154127200Y-103756200D01*
X154127200Y-103756200D02*
X154127200Y-106296200D01*
X158518000Y-94355400D02*
X158518000Y-100355400D01*
X158518000Y-100355400D02*
X162518000Y-100355400D01*
X162518000Y-100355400D02*
X162518000Y-94105400D01*
X162518000Y-94105400D02*
X158518000Y-94105400D01*
X158518000Y-94105400D02*
X158518000Y-94355400D01*
X168148000Y-106807000D02*
X180848000Y-106807000D01*
X180848000Y-106807000D02*
X180848000Y-94107000D01*
X180848000Y-94107000D02*
X168148000Y-94107000D01*
X168148000Y-94107000D02*
X168148000Y-106807000D01*
X188731026Y-100457000D02*
G75*
G03X188731026Y-100457000I-898026J0D01*
G01*
D12*
X155149733Y-115572000D02*
X155492267Y-115572000D01*
X155149733Y-114552000D02*
X155492267Y-114552000D01*
X149159000Y-111760000D02*
G75*
G03X149159000Y-111760000I-950000J0D01*
G01*
X164145000Y-71247000D02*
G75*
G03X164145000Y-71247000I-950000J0D01*
G01*
D15*
X186801000Y-116470000D02*
G75*
G03X186801000Y-116470000I-127000J0D01*
G01*
X186854000Y-118096000D02*
X181954000Y-118096000D01*
X186854000Y-122696000D02*
X186854000Y-118096000D01*
X181954000Y-122696000D02*
X186854000Y-122696000D01*
X181954000Y-118096000D02*
X181954000Y-122696000D01*
X146415000Y-116216000D02*
G75*
G03X146415000Y-116216000I-127000J0D01*
G01*
X146468000Y-117842000D02*
X141568000Y-117842000D01*
X146468000Y-122442000D02*
X146468000Y-117842000D01*
X141568000Y-122442000D02*
X146468000Y-122442000D01*
X141568000Y-117842000D02*
X141568000Y-122442000D01*
X209407000Y-116470000D02*
G75*
G03X209407000Y-116470000I-127000J0D01*
G01*
X209460000Y-118096000D02*
X204560000Y-118096000D01*
X209460000Y-122696000D02*
X209460000Y-118096000D01*
X204560000Y-122696000D02*
X209460000Y-122696000D01*
X204560000Y-118096000D02*
X204560000Y-122696000D01*
D12*
X187958000Y-124415733D02*
X187958000Y-124758267D01*
X188978000Y-124415733D02*
X188978000Y-124758267D01*
X147191000Y-124288733D02*
X147191000Y-124631267D01*
X148211000Y-124288733D02*
X148211000Y-124631267D01*
X184321267Y-114425000D02*
X183978733Y-114425000D01*
X184321267Y-115445000D02*
X183978733Y-115445000D01*
X144316267Y-114425000D02*
X143973733Y-114425000D01*
X144316267Y-115445000D02*
X143973733Y-115445000D01*
X210437000Y-124401733D02*
X210437000Y-124744267D01*
X211457000Y-124401733D02*
X211457000Y-124744267D01*
X206673267Y-114044000D02*
X206330733Y-114044000D01*
X206673267Y-115064000D02*
X206330733Y-115064000D01*
X184321267Y-125601000D02*
X183978733Y-125601000D01*
X184321267Y-126621000D02*
X183978733Y-126621000D01*
X144316267Y-125601000D02*
X143973733Y-125601000D01*
X144316267Y-126621000D02*
X143973733Y-126621000D01*
X206786267Y-125474000D02*
X206443733Y-125474000D01*
X206786267Y-126494000D02*
X206443733Y-126494000D01*
X177419000Y-75438000D02*
X182499000Y-70358000D01*
X197919000Y-90858000D02*
X177419000Y-90858000D01*
X197919000Y-70358000D02*
X197919000Y-90858000D01*
X177419000Y-70358000D02*
X197919000Y-70358000D01*
X177419000Y-70358000D02*
X177419000Y-90858000D01*
X145921000Y-87218733D02*
X145921000Y-87561267D01*
X146941000Y-87218733D02*
X146941000Y-87561267D01*
X183843000Y-132412000D02*
X183843000Y-131162000D01*
X182593000Y-132412000D02*
X183843000Y-132412000D01*
X176483000Y-128002000D02*
X176483000Y-128502000D01*
X176383000Y-128502000D02*
X176383000Y-128002000D01*
X176583000Y-128502000D02*
X176383000Y-128502000D01*
X176583000Y-128002000D02*
X176583000Y-128502000D01*
X178483000Y-128002000D02*
X178483000Y-128502000D01*
X178383000Y-128502000D02*
X178383000Y-128002000D01*
X178583000Y-128502000D02*
X178383000Y-128502000D01*
X178583000Y-128002000D02*
X178583000Y-128502000D01*
X180483000Y-128002000D02*
X180483000Y-128502000D01*
X180383000Y-128502000D02*
X180383000Y-128002000D01*
X180583000Y-128502000D02*
X180383000Y-128502000D01*
X180583000Y-128002000D02*
X180583000Y-128502000D01*
X173423000Y-129502000D02*
X174033000Y-129502000D01*
X173423000Y-130802000D02*
X174033000Y-130802000D01*
X183543000Y-129502000D02*
X182933000Y-129502000D01*
X183543000Y-130802000D02*
X182933000Y-130802000D01*
X175983000Y-131502000D02*
X175983000Y-132112000D01*
X174033000Y-131502000D02*
X175983000Y-131502000D01*
X174033000Y-128002000D02*
X174033000Y-131502000D01*
X182933000Y-128002000D02*
X174033000Y-128002000D01*
X182933000Y-131502000D02*
X182933000Y-128002000D01*
X180983000Y-131502000D02*
X182933000Y-131502000D01*
X180983000Y-132112000D02*
X180983000Y-131502000D01*
X181783000Y-132212000D02*
X182083000Y-132212000D01*
X182083000Y-132312000D02*
X182083000Y-132112000D01*
X181783000Y-132312000D02*
X182083000Y-132312000D01*
X181783000Y-132112000D02*
X181783000Y-132312000D01*
X173423000Y-132112000D02*
X183543000Y-132112000D01*
X173423000Y-127392000D02*
X173423000Y-132112000D01*
X183543000Y-127392000D02*
X173423000Y-127392000D01*
X183543000Y-132112000D02*
X183543000Y-127392000D01*
X145235000Y-132412000D02*
X145235000Y-131162000D01*
X143985000Y-132412000D02*
X145235000Y-132412000D01*
X137875000Y-128002000D02*
X137875000Y-128502000D01*
X137775000Y-128502000D02*
X137775000Y-128002000D01*
X137975000Y-128502000D02*
X137775000Y-128502000D01*
X137975000Y-128002000D02*
X137975000Y-128502000D01*
X139875000Y-128002000D02*
X139875000Y-128502000D01*
X139775000Y-128502000D02*
X139775000Y-128002000D01*
X139975000Y-128502000D02*
X139775000Y-128502000D01*
X139975000Y-128002000D02*
X139975000Y-128502000D01*
X141875000Y-128002000D02*
X141875000Y-128502000D01*
X141775000Y-128502000D02*
X141775000Y-128002000D01*
X141975000Y-128502000D02*
X141775000Y-128502000D01*
X141975000Y-128002000D02*
X141975000Y-128502000D01*
X134815000Y-129502000D02*
X135425000Y-129502000D01*
X134815000Y-130802000D02*
X135425000Y-130802000D01*
X144935000Y-129502000D02*
X144325000Y-129502000D01*
X144935000Y-130802000D02*
X144325000Y-130802000D01*
X137375000Y-131502000D02*
X137375000Y-132112000D01*
X135425000Y-131502000D02*
X137375000Y-131502000D01*
X135425000Y-128002000D02*
X135425000Y-131502000D01*
X144325000Y-128002000D02*
X135425000Y-128002000D01*
X144325000Y-131502000D02*
X144325000Y-128002000D01*
X142375000Y-131502000D02*
X144325000Y-131502000D01*
X142375000Y-132112000D02*
X142375000Y-131502000D01*
X143175000Y-132212000D02*
X143475000Y-132212000D01*
X143475000Y-132312000D02*
X143475000Y-132112000D01*
X143175000Y-132312000D02*
X143475000Y-132312000D01*
X143175000Y-132112000D02*
X143175000Y-132312000D01*
X134815000Y-132112000D02*
X144935000Y-132112000D01*
X134815000Y-127392000D02*
X134815000Y-132112000D01*
X144935000Y-127392000D02*
X134815000Y-127392000D01*
X144935000Y-132112000D02*
X144935000Y-127392000D01*
X205814000Y-132412000D02*
X205814000Y-131162000D01*
X204564000Y-132412000D02*
X205814000Y-132412000D01*
X198454000Y-128002000D02*
X198454000Y-128502000D01*
X198354000Y-128502000D02*
X198354000Y-128002000D01*
X198554000Y-128502000D02*
X198354000Y-128502000D01*
X198554000Y-128002000D02*
X198554000Y-128502000D01*
X200454000Y-128002000D02*
X200454000Y-128502000D01*
X200354000Y-128502000D02*
X200354000Y-128002000D01*
X200554000Y-128502000D02*
X200354000Y-128502000D01*
X200554000Y-128002000D02*
X200554000Y-128502000D01*
X202454000Y-128002000D02*
X202454000Y-128502000D01*
X202354000Y-128502000D02*
X202354000Y-128002000D01*
X202554000Y-128502000D02*
X202354000Y-128502000D01*
X202554000Y-128002000D02*
X202554000Y-128502000D01*
X195394000Y-129502000D02*
X196004000Y-129502000D01*
X195394000Y-130802000D02*
X196004000Y-130802000D01*
X205514000Y-129502000D02*
X204904000Y-129502000D01*
X205514000Y-130802000D02*
X204904000Y-130802000D01*
X197954000Y-131502000D02*
X197954000Y-132112000D01*
X196004000Y-131502000D02*
X197954000Y-131502000D01*
X196004000Y-128002000D02*
X196004000Y-131502000D01*
X204904000Y-128002000D02*
X196004000Y-128002000D01*
X204904000Y-131502000D02*
X204904000Y-128002000D01*
X202954000Y-131502000D02*
X204904000Y-131502000D01*
X202954000Y-132112000D02*
X202954000Y-131502000D01*
X203754000Y-132212000D02*
X204054000Y-132212000D01*
X204054000Y-132312000D02*
X204054000Y-132112000D01*
X203754000Y-132312000D02*
X204054000Y-132312000D01*
X203754000Y-132112000D02*
X203754000Y-132312000D01*
X195394000Y-132112000D02*
X205514000Y-132112000D01*
X195394000Y-127392000D02*
X195394000Y-132112000D01*
X205514000Y-127392000D02*
X195394000Y-127392000D01*
X205514000Y-132112000D02*
X205514000Y-127392000D01*
X166063000Y-132285000D02*
X166063000Y-131035000D01*
X164813000Y-132285000D02*
X166063000Y-132285000D01*
X158703000Y-127875000D02*
X158703000Y-128375000D01*
X158603000Y-128375000D02*
X158603000Y-127875000D01*
X158803000Y-128375000D02*
X158603000Y-128375000D01*
X158803000Y-127875000D02*
X158803000Y-128375000D01*
X160703000Y-127875000D02*
X160703000Y-128375000D01*
X160603000Y-128375000D02*
X160603000Y-127875000D01*
X160803000Y-128375000D02*
X160603000Y-128375000D01*
X160803000Y-127875000D02*
X160803000Y-128375000D01*
X162703000Y-127875000D02*
X162703000Y-128375000D01*
X162603000Y-128375000D02*
X162603000Y-127875000D01*
X162803000Y-128375000D02*
X162603000Y-128375000D01*
X162803000Y-127875000D02*
X162803000Y-128375000D01*
X155643000Y-129375000D02*
X156253000Y-129375000D01*
X155643000Y-130675000D02*
X156253000Y-130675000D01*
X165763000Y-129375000D02*
X165153000Y-129375000D01*
X165763000Y-130675000D02*
X165153000Y-130675000D01*
X158203000Y-131375000D02*
X158203000Y-131985000D01*
X156253000Y-131375000D02*
X158203000Y-131375000D01*
X156253000Y-127875000D02*
X156253000Y-131375000D01*
X165153000Y-127875000D02*
X156253000Y-127875000D01*
X165153000Y-131375000D02*
X165153000Y-127875000D01*
X163203000Y-131375000D02*
X165153000Y-131375000D01*
X163203000Y-131985000D02*
X163203000Y-131375000D01*
X164003000Y-132085000D02*
X164303000Y-132085000D01*
X164303000Y-132185000D02*
X164303000Y-131985000D01*
X164003000Y-132185000D02*
X164303000Y-132185000D01*
X164003000Y-131985000D02*
X164003000Y-132185000D01*
X155643000Y-131985000D02*
X165763000Y-131985000D01*
X155643000Y-127265000D02*
X155643000Y-131985000D01*
X165763000Y-127265000D02*
X155643000Y-127265000D01*
X165763000Y-131985000D02*
X165763000Y-127265000D01*
X150875000Y-80563000D02*
X150875000Y-87463000D01*
X147575000Y-80563000D02*
X147575000Y-87463000D01*
X150875000Y-80563000D02*
X147575000Y-80563000D01*
X147166000Y-84845000D02*
X147166000Y-82385000D01*
X145696000Y-84845000D02*
X147166000Y-84845000D01*
X145696000Y-82385000D02*
X145696000Y-84845000D01*
X149667000Y-72263000D02*
G75*
G03X149667000Y-72263000I-950000J0D01*
G01*
X201991000Y-75438000D02*
G75*
G03X201991000Y-75438000I-950000J0D01*
G01*
X201991000Y-78105000D02*
G75*
G03X201991000Y-78105000I-950000J0D01*
G01*
X201991000Y-80645000D02*
G75*
G03X201991000Y-80645000I-950000J0D01*
G01*
X201991000Y-83185000D02*
G75*
G03X201991000Y-83185000I-950000J0D01*
G01*
X201991000Y-85725000D02*
G75*
G03X201991000Y-85725000I-950000J0D01*
G01*
X145984000Y-72390000D02*
G75*
G03X145984000Y-72390000I-950000J0D01*
G01*
X204912000Y-78232000D02*
G75*
G03X204912000Y-78232000I-950000J0D01*
G01*
X204912000Y-75692000D02*
G75*
G03X204912000Y-75692000I-950000J0D01*
G01*
X164145000Y-74803000D02*
G75*
G03X164145000Y-74803000I-950000J0D01*
G01*
X164018000Y-78486000D02*
G75*
G03X164018000Y-78486000I-950000J0D01*
G01*
X204912000Y-83312000D02*
G75*
G03X204912000Y-83312000I-950000J0D01*
G01*
X204912000Y-80772000D02*
G75*
G03X204912000Y-80772000I-950000J0D01*
G01*
X204912000Y-85852000D02*
G75*
G03X204912000Y-85852000I-950000J0D01*
G01*
X149942733Y-78869000D02*
X150285267Y-78869000D01*
X149942733Y-77849000D02*
X150285267Y-77849000D01*
X147329000Y-77624000D02*
X144869000Y-77624000D01*
X147329000Y-79094000D02*
X147329000Y-77624000D01*
X144869000Y-79094000D02*
X147329000Y-79094000D01*
X187132000Y-110744000D02*
G75*
G03X187132000Y-110744000I-950000J0D01*
G01*
X181290000Y-113792000D02*
G75*
G03X181290000Y-113792000I-950000J0D01*
G01*
X145222000Y-111760000D02*
G75*
G03X145222000Y-111760000I-950000J0D01*
G01*
X139761000Y-109982000D02*
G75*
G03X139761000Y-109982000I-950000J0D01*
G01*
X209611000Y-110871000D02*
G75*
G03X209611000Y-110871000I-950000J0D01*
G01*
X168209000Y-112395000D02*
G75*
G03X168209000Y-112395000I-950000J0D01*
G01*
X204785000Y-111887000D02*
G75*
G03X204785000Y-111887000I-950000J0D01*
G01*
X159573000Y-111887000D02*
G75*
G03X159573000Y-111887000I-950000J0D01*
G01*
X178098267Y-125347000D02*
X177755733Y-125347000D01*
X178098267Y-126367000D02*
X177755733Y-126367000D01*
X165149000Y-82751000D02*
X166399000Y-82751000D01*
X165149000Y-81501000D02*
X165149000Y-82751000D01*
X169559000Y-75391000D02*
X169059000Y-75391000D01*
X169059000Y-75291000D02*
X169559000Y-75291000D01*
X169059000Y-75491000D02*
X169059000Y-75291000D01*
X169559000Y-75491000D02*
X169059000Y-75491000D01*
X169559000Y-77391000D02*
X169059000Y-77391000D01*
X169059000Y-77291000D02*
X169559000Y-77291000D01*
X169059000Y-77491000D02*
X169059000Y-77291000D01*
X169559000Y-77491000D02*
X169059000Y-77491000D01*
X169559000Y-79391000D02*
X169059000Y-79391000D01*
X169059000Y-79291000D02*
X169559000Y-79291000D01*
X169059000Y-79491000D02*
X169059000Y-79291000D01*
X169559000Y-79491000D02*
X169059000Y-79491000D01*
X168059000Y-72331000D02*
X168059000Y-72941000D01*
X166759000Y-72331000D02*
X166759000Y-72941000D01*
X168059000Y-82451000D02*
X168059000Y-81841000D01*
X166759000Y-82451000D02*
X166759000Y-81841000D01*
X166059000Y-74891000D02*
X165449000Y-74891000D01*
X166059000Y-72941000D02*
X166059000Y-74891000D01*
X169559000Y-72941000D02*
X166059000Y-72941000D01*
X169559000Y-81841000D02*
X169559000Y-72941000D01*
X166059000Y-81841000D02*
X169559000Y-81841000D01*
X166059000Y-79891000D02*
X166059000Y-81841000D01*
X165449000Y-79891000D02*
X166059000Y-79891000D01*
X165349000Y-80691000D02*
X165349000Y-80991000D01*
X165249000Y-80991000D02*
X165449000Y-80991000D01*
X165249000Y-80691000D02*
X165249000Y-80991000D01*
X165449000Y-80691000D02*
X165249000Y-80691000D01*
X165449000Y-72331000D02*
X165449000Y-82451000D01*
X170169000Y-72331000D02*
X165449000Y-72331000D01*
X170169000Y-82451000D02*
X170169000Y-72331000D01*
X165449000Y-82451000D02*
X170169000Y-82451000D01*
D15*
X133874000Y-124068000D02*
G75*
G03X133874000Y-124068000I-127000J0D01*
G01*
X133567000Y-122442000D02*
X138467000Y-122442000D01*
X133567000Y-117842000D02*
X133567000Y-122442000D01*
X138467000Y-117842000D02*
X133567000Y-117842000D01*
X138467000Y-122442000D02*
X138467000Y-117842000D01*
D12*
X135718733Y-115572000D02*
X136061267Y-115572000D01*
X135718733Y-114552000D02*
X136061267Y-114552000D01*
X140591000Y-119043267D02*
X140591000Y-118700733D01*
X139571000Y-119043267D02*
X139571000Y-118700733D01*
X139123267Y-125347000D02*
X138780733Y-125347000D01*
X139123267Y-126367000D02*
X138780733Y-126367000D01*
X159048267Y-125347000D02*
X158705733Y-125347000D01*
X159048267Y-126367000D02*
X158705733Y-126367000D01*
D15*
X166481000Y-116216000D02*
G75*
G03X166481000Y-116216000I-127000J0D01*
G01*
X166534000Y-117842000D02*
X161634000Y-117842000D01*
X166534000Y-122442000D02*
X166534000Y-117842000D01*
X161634000Y-122442000D02*
X166534000Y-122442000D01*
X161634000Y-117842000D02*
X161634000Y-122442000D01*
X153305000Y-124195000D02*
G75*
G03X153305000Y-124195000I-127000J0D01*
G01*
X152998000Y-122569000D02*
X157898000Y-122569000D01*
X152998000Y-117969000D02*
X152998000Y-122569000D01*
X157898000Y-117969000D02*
X152998000Y-117969000D01*
X157898000Y-122569000D02*
X157898000Y-117969000D01*
D12*
X164128267Y-125347000D02*
X163785733Y-125347000D01*
X164128267Y-126367000D02*
X163785733Y-126367000D01*
X164128267Y-114171000D02*
X163785733Y-114171000D01*
X164128267Y-115191000D02*
X163785733Y-115191000D01*
X167511000Y-124034733D02*
X167511000Y-124377267D01*
X168531000Y-124034733D02*
X168531000Y-124377267D01*
X158621000Y-119297267D02*
X158621000Y-118954733D01*
X159641000Y-119297267D02*
X159641000Y-118954733D01*
X179707000Y-119297267D02*
X179707000Y-118954733D01*
X178687000Y-119297267D02*
X178687000Y-118954733D01*
D15*
X173371000Y-124195000D02*
G75*
G03X173371000Y-124195000I-127000J0D01*
G01*
X173064000Y-122569000D02*
X177964000Y-122569000D01*
X173064000Y-117969000D02*
X173064000Y-122569000D01*
X177964000Y-117969000D02*
X173064000Y-117969000D01*
X177964000Y-122569000D02*
X177964000Y-117969000D01*
D12*
X174961733Y-115318000D02*
X175304267Y-115318000D01*
X174961733Y-114298000D02*
X175304267Y-114298000D01*
X156796000Y-81333000D02*
X155546000Y-81333000D01*
X156796000Y-82583000D02*
X156796000Y-81333000D01*
X152386000Y-84693000D02*
X152886000Y-84693000D01*
X152886000Y-84793000D02*
X152386000Y-84793000D01*
X152886000Y-84593000D02*
X152886000Y-84793000D01*
X152386000Y-84593000D02*
X152886000Y-84593000D01*
X153886000Y-87753000D02*
X153886000Y-87143000D01*
X155186000Y-87753000D02*
X155186000Y-87143000D01*
X153886000Y-81633000D02*
X153886000Y-82243000D01*
X155186000Y-81633000D02*
X155186000Y-82243000D01*
X155886000Y-85193000D02*
X156496000Y-85193000D01*
X155886000Y-87143000D02*
X155886000Y-85193000D01*
X152386000Y-87143000D02*
X155886000Y-87143000D01*
X152386000Y-82243000D02*
X152386000Y-87143000D01*
X155886000Y-82243000D02*
X152386000Y-82243000D01*
X155886000Y-84193000D02*
X155886000Y-82243000D01*
X156496000Y-84193000D02*
X155886000Y-84193000D01*
X156596000Y-83393000D02*
X156596000Y-83093000D01*
X156696000Y-83093000D02*
X156496000Y-83093000D01*
X156696000Y-83393000D02*
X156696000Y-83093000D01*
X156496000Y-83393000D02*
X156696000Y-83393000D01*
X156496000Y-87753000D02*
X156496000Y-81633000D01*
X151776000Y-87753000D02*
X156496000Y-87753000D01*
X151776000Y-81633000D02*
X151776000Y-87753000D01*
X156496000Y-81633000D02*
X151776000Y-81633000D01*
X197567733Y-115064000D02*
X197910267Y-115064000D01*
X197567733Y-114044000D02*
X197910267Y-114044000D01*
X200323267Y-125347000D02*
X199980733Y-125347000D01*
X200323267Y-126367000D02*
X199980733Y-126367000D01*
D15*
X195596000Y-124322000D02*
G75*
G03X195596000Y-124322000I-127000J0D01*
G01*
X195289000Y-122696000D02*
X200189000Y-122696000D01*
X195289000Y-118096000D02*
X195289000Y-122696000D01*
X200189000Y-118096000D02*
X195289000Y-118096000D01*
X200189000Y-122696000D02*
X200189000Y-118096000D01*
D12*
X202313000Y-119424267D02*
X202313000Y-119081733D01*
X201293000Y-119424267D02*
X201293000Y-119081733D01*
X188013000Y-109777000D02*
X188013000Y-111027000D01*
X189263000Y-109777000D02*
X188013000Y-109777000D01*
X191373000Y-114187000D02*
X191373000Y-113687000D01*
X191473000Y-113687000D02*
X191473000Y-114187000D01*
X191273000Y-113687000D02*
X191473000Y-113687000D01*
X191273000Y-114187000D02*
X191273000Y-113687000D01*
X194433000Y-112687000D02*
X193823000Y-112687000D01*
X194433000Y-111387000D02*
X193823000Y-111387000D01*
X188313000Y-112687000D02*
X188923000Y-112687000D01*
X188313000Y-111387000D02*
X188923000Y-111387000D01*
X191873000Y-110687000D02*
X191873000Y-110077000D01*
X193823000Y-110687000D02*
X191873000Y-110687000D01*
X193823000Y-114187000D02*
X193823000Y-110687000D01*
X188923000Y-114187000D02*
X193823000Y-114187000D01*
X188923000Y-110687000D02*
X188923000Y-114187000D01*
X190873000Y-110687000D02*
X188923000Y-110687000D01*
X190873000Y-110077000D02*
X190873000Y-110687000D01*
X190073000Y-109977000D02*
X189773000Y-109977000D01*
X189773000Y-109877000D02*
X189773000Y-110077000D01*
X190073000Y-109877000D02*
X189773000Y-109877000D01*
X190073000Y-110077000D02*
X190073000Y-109877000D01*
X194433000Y-110077000D02*
X188313000Y-110077000D01*
X194433000Y-114797000D02*
X194433000Y-110077000D01*
X188313000Y-114797000D02*
X194433000Y-114797000D01*
X188313000Y-110077000D02*
X188313000Y-114797000D01*
D10*
X175006095Y-89749380D02*
X175006095Y-90558904D01*
X175053714Y-90654142D01*
X175101333Y-90701761D01*
X175196571Y-90749380D01*
X175387047Y-90749380D01*
X175482285Y-90701761D01*
X175529904Y-90654142D01*
X175577523Y-90558904D01*
X175577523Y-89749380D01*
X176577523Y-90749380D02*
X176006095Y-90749380D01*
X176291809Y-90749380D02*
X176291809Y-89749380D01*
X176196571Y-89892238D01*
X176101333Y-89987476D01*
X176006095Y-90035095D01*
X153992676Y-102398580D02*
X153992676Y-103208104D01*
X154040295Y-103303342D01*
X154087914Y-103350961D01*
X154183152Y-103398580D01*
X154373628Y-103398580D01*
X154468866Y-103350961D01*
X154516485Y-103303342D01*
X154564104Y-103208104D01*
X154564104Y-102398580D01*
X154992676Y-103350961D02*
X155135533Y-103398580D01*
X155373628Y-103398580D01*
X155468866Y-103350961D01*
X155516485Y-103303342D01*
X155564104Y-103208104D01*
X155564104Y-103112866D01*
X155516485Y-103017628D01*
X155468866Y-102970009D01*
X155373628Y-102922390D01*
X155183152Y-102874771D01*
X155087914Y-102827152D01*
X155040295Y-102779533D01*
X154992676Y-102684295D01*
X154992676Y-102589057D01*
X155040295Y-102493819D01*
X155087914Y-102446200D01*
X155183152Y-102398580D01*
X155421247Y-102398580D01*
X155564104Y-102446200D01*
X156326009Y-102874771D02*
X156468866Y-102922390D01*
X156516485Y-102970009D01*
X156564104Y-103065247D01*
X156564104Y-103208104D01*
X156516485Y-103303342D01*
X156468866Y-103350961D01*
X156373628Y-103398580D01*
X155992676Y-103398580D01*
X155992676Y-102398580D01*
X156326009Y-102398580D01*
X156421247Y-102446200D01*
X156468866Y-102493819D01*
X156516485Y-102589057D01*
X156516485Y-102684295D01*
X156468866Y-102779533D01*
X156421247Y-102827152D01*
X156326009Y-102874771D01*
X155992676Y-102874771D01*
X157754580Y-103398580D02*
X157754580Y-102398580D01*
X157754580Y-102874771D02*
X158326009Y-102874771D01*
X158326009Y-103398580D02*
X158326009Y-102398580D01*
X158945057Y-103398580D02*
X158849819Y-103350961D01*
X158802200Y-103303342D01*
X158754580Y-103208104D01*
X158754580Y-102922390D01*
X158802200Y-102827152D01*
X158849819Y-102779533D01*
X158945057Y-102731914D01*
X159087914Y-102731914D01*
X159183152Y-102779533D01*
X159230771Y-102827152D01*
X159278390Y-102922390D01*
X159278390Y-103208104D01*
X159230771Y-103303342D01*
X159183152Y-103350961D01*
X159087914Y-103398580D01*
X158945057Y-103398580D01*
X159659342Y-103350961D02*
X159754580Y-103398580D01*
X159945057Y-103398580D01*
X160040295Y-103350961D01*
X160087914Y-103255723D01*
X160087914Y-103208104D01*
X160040295Y-103112866D01*
X159945057Y-103065247D01*
X159802200Y-103065247D01*
X159706961Y-103017628D01*
X159659342Y-102922390D01*
X159659342Y-102874771D01*
X159706961Y-102779533D01*
X159802200Y-102731914D01*
X159945057Y-102731914D01*
X160040295Y-102779533D01*
X160373628Y-102731914D02*
X160754580Y-102731914D01*
X160516485Y-102398580D02*
X160516485Y-103255723D01*
X160564104Y-103350961D01*
X160659342Y-103398580D01*
X160754580Y-103398580D01*
X163631571Y-100037542D02*
X163631571Y-99704209D01*
X164155380Y-99561352D02*
X164155380Y-100037542D01*
X163155380Y-100037542D01*
X163155380Y-99561352D01*
X163488714Y-99275638D02*
X163488714Y-98894685D01*
X163155380Y-99132780D02*
X164012523Y-99132780D01*
X164107761Y-99085161D01*
X164155380Y-98989923D01*
X164155380Y-98894685D01*
X164155380Y-98561352D02*
X163155380Y-98561352D01*
X164155380Y-98132780D02*
X163631571Y-98132780D01*
X163536333Y-98180400D01*
X163488714Y-98275638D01*
X163488714Y-98418495D01*
X163536333Y-98513733D01*
X163583952Y-98561352D01*
X164107761Y-97275638D02*
X164155380Y-97370876D01*
X164155380Y-97561352D01*
X164107761Y-97656590D01*
X164012523Y-97704209D01*
X163631571Y-97704209D01*
X163536333Y-97656590D01*
X163488714Y-97561352D01*
X163488714Y-97370876D01*
X163536333Y-97275638D01*
X163631571Y-97228019D01*
X163726809Y-97228019D01*
X163822047Y-97704209D01*
X164155380Y-96799447D02*
X163488714Y-96799447D01*
X163679190Y-96799447D02*
X163583952Y-96751828D01*
X163536333Y-96704209D01*
X163488714Y-96608971D01*
X163488714Y-96513733D01*
X163488714Y-96180400D02*
X164155380Y-96180400D01*
X163583952Y-96180400D02*
X163536333Y-96132780D01*
X163488714Y-96037542D01*
X163488714Y-95894685D01*
X163536333Y-95799447D01*
X163631571Y-95751828D01*
X164155380Y-95751828D01*
X164107761Y-94894685D02*
X164155380Y-94989923D01*
X164155380Y-95180400D01*
X164107761Y-95275638D01*
X164012523Y-95323257D01*
X163631571Y-95323257D01*
X163536333Y-95275638D01*
X163488714Y-95180400D01*
X163488714Y-94989923D01*
X163536333Y-94894685D01*
X163631571Y-94847066D01*
X163726809Y-94847066D01*
X163822047Y-95323257D01*
X163488714Y-94561352D02*
X163488714Y-94180400D01*
X163155380Y-94418495D02*
X164012523Y-94418495D01*
X164107761Y-94370876D01*
X164155380Y-94275638D01*
X164155380Y-94180400D01*
X148550380Y-101718904D02*
X149359904Y-101718904D01*
X149455142Y-101671285D01*
X149502761Y-101623666D01*
X149550380Y-101528428D01*
X149550380Y-101337952D01*
X149502761Y-101242714D01*
X149455142Y-101195095D01*
X149359904Y-101147476D01*
X148550380Y-101147476D01*
X149502761Y-100718904D02*
X149550380Y-100576047D01*
X149550380Y-100337952D01*
X149502761Y-100242714D01*
X149455142Y-100195095D01*
X149359904Y-100147476D01*
X149264666Y-100147476D01*
X149169428Y-100195095D01*
X149121809Y-100242714D01*
X149074190Y-100337952D01*
X149026571Y-100528428D01*
X148978952Y-100623666D01*
X148931333Y-100671285D01*
X148836095Y-100718904D01*
X148740857Y-100718904D01*
X148645619Y-100671285D01*
X148598000Y-100623666D01*
X148550380Y-100528428D01*
X148550380Y-100290333D01*
X148598000Y-100147476D01*
X149026571Y-99385571D02*
X149074190Y-99242714D01*
X149121809Y-99195095D01*
X149217047Y-99147476D01*
X149359904Y-99147476D01*
X149455142Y-99195095D01*
X149502761Y-99242714D01*
X149550380Y-99337952D01*
X149550380Y-99718904D01*
X148550380Y-99718904D01*
X148550380Y-99385571D01*
X148598000Y-99290333D01*
X148645619Y-99242714D01*
X148740857Y-99195095D01*
X148836095Y-99195095D01*
X148931333Y-99242714D01*
X148978952Y-99290333D01*
X149026571Y-99385571D01*
X149026571Y-99718904D01*
X196778952Y-100909380D02*
X196778952Y-99909380D01*
X197112285Y-100623666D01*
X197445619Y-99909380D01*
X197445619Y-100909380D01*
X197921809Y-100909380D02*
X197921809Y-100242714D01*
X197921809Y-99909380D02*
X197874190Y-99957000D01*
X197921809Y-100004619D01*
X197969428Y-99957000D01*
X197921809Y-99909380D01*
X197921809Y-100004619D01*
X198826571Y-100861761D02*
X198731333Y-100909380D01*
X198540857Y-100909380D01*
X198445619Y-100861761D01*
X198398000Y-100814142D01*
X198350380Y-100718904D01*
X198350380Y-100433190D01*
X198398000Y-100337952D01*
X198445619Y-100290333D01*
X198540857Y-100242714D01*
X198731333Y-100242714D01*
X198826571Y-100290333D01*
X199255142Y-100909380D02*
X199255142Y-100242714D01*
X199255142Y-100433190D02*
X199302761Y-100337952D01*
X199350380Y-100290333D01*
X199445619Y-100242714D01*
X199540857Y-100242714D01*
X200017047Y-100909380D02*
X199921809Y-100861761D01*
X199874190Y-100814142D01*
X199826571Y-100718904D01*
X199826571Y-100433190D01*
X199874190Y-100337952D01*
X199921809Y-100290333D01*
X200017047Y-100242714D01*
X200159904Y-100242714D01*
X200255142Y-100290333D01*
X200302761Y-100337952D01*
X200350380Y-100433190D01*
X200350380Y-100718904D01*
X200302761Y-100814142D01*
X200255142Y-100861761D01*
X200159904Y-100909380D01*
X200017047Y-100909380D01*
X201493238Y-100861761D02*
X201636095Y-100909380D01*
X201874190Y-100909380D01*
X201969428Y-100861761D01*
X202017047Y-100814142D01*
X202064666Y-100718904D01*
X202064666Y-100623666D01*
X202017047Y-100528428D01*
X201969428Y-100480809D01*
X201874190Y-100433190D01*
X201683714Y-100385571D01*
X201588476Y-100337952D01*
X201540857Y-100290333D01*
X201493238Y-100195095D01*
X201493238Y-100099857D01*
X201540857Y-100004619D01*
X201588476Y-99957000D01*
X201683714Y-99909380D01*
X201921809Y-99909380D01*
X202064666Y-99957000D01*
X202493238Y-100909380D02*
X202493238Y-99909380D01*
X202731333Y-99909380D01*
X202874190Y-99957000D01*
X202969428Y-100052238D01*
X203017047Y-100147476D01*
X203064666Y-100337952D01*
X203064666Y-100480809D01*
X203017047Y-100671285D01*
X202969428Y-100766523D01*
X202874190Y-100861761D01*
X202731333Y-100909380D01*
X202493238Y-100909380D01*
X174814666Y-103540333D02*
X174114666Y-103540333D01*
X174614666Y-103307000D01*
X174114666Y-103073666D01*
X174814666Y-103073666D01*
X174814666Y-102740333D02*
X174114666Y-102740333D01*
X174814666Y-102407000D02*
X174114666Y-102407000D01*
X174614666Y-102173666D01*
X174114666Y-101940333D01*
X174814666Y-101940333D01*
X174114666Y-101673666D02*
X174814666Y-101207000D01*
X174114666Y-101207000D02*
X174814666Y-101673666D01*
X174814666Y-100540333D02*
X174481333Y-100773666D01*
X174814666Y-100940333D02*
X174114666Y-100940333D01*
X174114666Y-100673666D01*
X174148000Y-100607000D01*
X174181333Y-100573666D01*
X174248000Y-100540333D01*
X174348000Y-100540333D01*
X174414666Y-100573666D01*
X174448000Y-100607000D01*
X174481333Y-100673666D01*
X174481333Y-100940333D01*
X174114666Y-100340333D02*
X174114666Y-99940333D01*
X174814666Y-100140333D02*
X174114666Y-100140333D01*
X174814666Y-99340333D02*
X174814666Y-99740333D01*
X174814666Y-99540333D02*
X174114666Y-99540333D01*
X174214666Y-99607000D01*
X174281333Y-99673666D01*
X174314666Y-99740333D01*
X174114666Y-98907000D02*
X174114666Y-98840333D01*
X174148000Y-98773666D01*
X174181333Y-98740333D01*
X174248000Y-98707000D01*
X174381333Y-98673666D01*
X174548000Y-98673666D01*
X174681333Y-98707000D01*
X174748000Y-98740333D01*
X174781333Y-98773666D01*
X174814666Y-98840333D01*
X174814666Y-98907000D01*
X174781333Y-98973666D01*
X174748000Y-99007000D01*
X174681333Y-99040333D01*
X174548000Y-99073666D01*
X174381333Y-99073666D01*
X174248000Y-99040333D01*
X174181333Y-99007000D01*
X174148000Y-98973666D01*
X174114666Y-98907000D01*
X174114666Y-98073666D02*
X174114666Y-98207000D01*
X174148000Y-98273666D01*
X174181333Y-98307000D01*
X174281333Y-98373666D01*
X174414666Y-98407000D01*
X174681333Y-98407000D01*
X174748000Y-98373666D01*
X174781333Y-98340333D01*
X174814666Y-98273666D01*
X174814666Y-98140333D01*
X174781333Y-98073666D01*
X174748000Y-98040333D01*
X174681333Y-98007000D01*
X174514666Y-98007000D01*
X174448000Y-98040333D01*
X174414666Y-98073666D01*
X174381333Y-98140333D01*
X174381333Y-98273666D01*
X174414666Y-98340333D01*
X174448000Y-98373666D01*
X174514666Y-98407000D01*
X174181333Y-97740333D02*
X174148000Y-97707000D01*
X174114666Y-97640333D01*
X174114666Y-97473666D01*
X174148000Y-97407000D01*
X174181333Y-97373666D01*
X174248000Y-97340333D01*
X174314666Y-97340333D01*
X174414666Y-97373666D01*
X174814666Y-97773666D01*
X174814666Y-97340333D01*
X173544666Y-101660333D02*
X172844666Y-101660333D01*
X172844666Y-101493666D01*
X172878000Y-101393666D01*
X172944666Y-101327000D01*
X173011333Y-101293666D01*
X173144666Y-101260333D01*
X173244666Y-101260333D01*
X173378000Y-101293666D01*
X173444666Y-101327000D01*
X173511333Y-101393666D01*
X173544666Y-101493666D01*
X173544666Y-101660333D01*
X172844666Y-101060333D02*
X173544666Y-100827000D01*
X172844666Y-100593666D01*
X172844666Y-100160333D02*
X173344666Y-100160333D01*
X173444666Y-100193666D01*
X173511333Y-100260333D01*
X173544666Y-100360333D01*
X173544666Y-100427000D01*
X172844666Y-99527000D02*
X172844666Y-99660333D01*
X172878000Y-99727000D01*
X172911333Y-99760333D01*
X173011333Y-99827000D01*
X173144666Y-99860333D01*
X173411333Y-99860333D01*
X173478000Y-99827000D01*
X173511333Y-99793666D01*
X173544666Y-99727000D01*
X173544666Y-99593666D01*
X173511333Y-99527000D01*
X173478000Y-99493666D01*
X173411333Y-99460333D01*
X173244666Y-99460333D01*
X173178000Y-99493666D01*
X173144666Y-99527000D01*
X173111333Y-99593666D01*
X173111333Y-99727000D01*
X173144666Y-99793666D01*
X173178000Y-99827000D01*
X173244666Y-99860333D01*
X173344666Y-99193666D02*
X173344666Y-98860333D01*
X173544666Y-99260333D02*
X172844666Y-99027000D01*
X173544666Y-98793666D01*
X155154333Y-113989142D02*
X155106714Y-114036761D01*
X154963857Y-114084380D01*
X154868619Y-114084380D01*
X154725761Y-114036761D01*
X154630523Y-113941523D01*
X154582904Y-113846285D01*
X154535285Y-113655809D01*
X154535285Y-113512952D01*
X154582904Y-113322476D01*
X154630523Y-113227238D01*
X154725761Y-113132000D01*
X154868619Y-113084380D01*
X154963857Y-113084380D01*
X155106714Y-113132000D01*
X155154333Y-113179619D01*
X156106714Y-114084380D02*
X155535285Y-114084380D01*
X155821000Y-114084380D02*
X155821000Y-113084380D01*
X155725761Y-113227238D01*
X155630523Y-113322476D01*
X155535285Y-113370095D01*
X179450921Y-115657256D02*
X179450921Y-116466964D01*
X179498551Y-116562224D01*
X179546181Y-116609854D01*
X179641441Y-116657484D01*
X179831960Y-116657484D01*
X179927220Y-116609854D01*
X179974850Y-116562224D01*
X180022480Y-116466964D01*
X180022480Y-115657256D01*
X180546409Y-116657484D02*
X180736928Y-116657484D01*
X180832188Y-116609854D01*
X180879818Y-116562224D01*
X180975078Y-116419334D01*
X181022708Y-116228814D01*
X181022708Y-115847775D01*
X180975078Y-115752515D01*
X180927448Y-115704886D01*
X180832188Y-115657256D01*
X180641669Y-115657256D01*
X180546409Y-115704886D01*
X180498779Y-115752515D01*
X180451149Y-115847775D01*
X180451149Y-116085925D01*
X180498779Y-116181185D01*
X180546409Y-116228814D01*
X180641669Y-116276444D01*
X180832188Y-116276444D01*
X180927448Y-116228814D01*
X180975078Y-116181185D01*
X181022708Y-116085925D01*
X147027061Y-119760823D02*
X147836769Y-119760823D01*
X147932029Y-119713193D01*
X147979659Y-119665563D01*
X148027289Y-119570303D01*
X148027289Y-119379784D01*
X147979659Y-119284524D01*
X147932029Y-119236894D01*
X147836769Y-119189264D01*
X147027061Y-119189264D01*
X147027061Y-118808225D02*
X147027061Y-118141406D01*
X148027289Y-118570075D01*
X210057921Y-115784256D02*
X210057921Y-116593964D01*
X210105551Y-116689224D01*
X210153181Y-116736854D01*
X210248441Y-116784484D01*
X210438960Y-116784484D01*
X210534220Y-116736854D01*
X210581850Y-116689224D01*
X210629480Y-116593964D01*
X210629480Y-115784256D01*
X211582078Y-115784256D02*
X211105779Y-115784256D01*
X211058149Y-116260555D01*
X211105779Y-116212925D01*
X211201039Y-116165295D01*
X211439188Y-116165295D01*
X211534448Y-116212925D01*
X211582078Y-116260555D01*
X211629708Y-116355814D01*
X211629708Y-116593964D01*
X211582078Y-116689224D01*
X211534448Y-116736854D01*
X211439188Y-116784484D01*
X211201039Y-116784484D01*
X211105779Y-116736854D01*
X211058149Y-116689224D01*
X187523380Y-125229857D02*
X187047190Y-125563190D01*
X187523380Y-125801285D02*
X186523380Y-125801285D01*
X186523380Y-125420333D01*
X186571000Y-125325095D01*
X186618619Y-125277476D01*
X186713857Y-125229857D01*
X186856714Y-125229857D01*
X186951952Y-125277476D01*
X186999571Y-125325095D01*
X187047190Y-125420333D01*
X187047190Y-125801285D01*
X187523380Y-124277476D02*
X187523380Y-124848904D01*
X187523380Y-124563190D02*
X186523380Y-124563190D01*
X186666238Y-124658428D01*
X186761476Y-124753666D01*
X186809095Y-124848904D01*
X186523380Y-123420333D02*
X186523380Y-123610809D01*
X186571000Y-123706047D01*
X186618619Y-123753666D01*
X186761476Y-123848904D01*
X186951952Y-123896523D01*
X187332904Y-123896523D01*
X187428142Y-123848904D01*
X187475761Y-123801285D01*
X187523380Y-123706047D01*
X187523380Y-123515571D01*
X187475761Y-123420333D01*
X187428142Y-123372714D01*
X187332904Y-123325095D01*
X187094809Y-123325095D01*
X186999571Y-123372714D01*
X186951952Y-123420333D01*
X186904333Y-123515571D01*
X186904333Y-123706047D01*
X186951952Y-123801285D01*
X186999571Y-123848904D01*
X187094809Y-123896523D01*
X149550380Y-125102857D02*
X149074190Y-125436190D01*
X149550380Y-125674285D02*
X148550380Y-125674285D01*
X148550380Y-125293333D01*
X148598000Y-125198095D01*
X148645619Y-125150476D01*
X148740857Y-125102857D01*
X148883714Y-125102857D01*
X148978952Y-125150476D01*
X149026571Y-125198095D01*
X149074190Y-125293333D01*
X149074190Y-125674285D01*
X149550380Y-124150476D02*
X149550380Y-124721904D01*
X149550380Y-124436190D02*
X148550380Y-124436190D01*
X148693238Y-124531428D01*
X148788476Y-124626666D01*
X148836095Y-124721904D01*
X148883714Y-123293333D02*
X149550380Y-123293333D01*
X148502761Y-123531428D02*
X149217047Y-123769523D01*
X149217047Y-123150476D01*
X182618142Y-113863380D02*
X182284809Y-113387190D01*
X182046714Y-113863380D02*
X182046714Y-112863380D01*
X182427666Y-112863380D01*
X182522904Y-112911000D01*
X182570523Y-112958619D01*
X182618142Y-113053857D01*
X182618142Y-113196714D01*
X182570523Y-113291952D01*
X182522904Y-113339571D01*
X182427666Y-113387190D01*
X182046714Y-113387190D01*
X183570523Y-113863380D02*
X182999095Y-113863380D01*
X183284809Y-113863380D02*
X183284809Y-112863380D01*
X183189571Y-113006238D01*
X183094333Y-113101476D01*
X182999095Y-113149095D01*
X183951476Y-112958619D02*
X183999095Y-112911000D01*
X184094333Y-112863380D01*
X184332428Y-112863380D01*
X184427666Y-112911000D01*
X184475285Y-112958619D01*
X184522904Y-113053857D01*
X184522904Y-113149095D01*
X184475285Y-113291952D01*
X183903857Y-113863380D01*
X184522904Y-113863380D01*
X146931142Y-115768380D02*
X146597809Y-115292190D01*
X146359714Y-115768380D02*
X146359714Y-114768380D01*
X146740666Y-114768380D01*
X146835904Y-114816000D01*
X146883523Y-114863619D01*
X146931142Y-114958857D01*
X146931142Y-115101714D01*
X146883523Y-115196952D01*
X146835904Y-115244571D01*
X146740666Y-115292190D01*
X146359714Y-115292190D01*
X147883523Y-115768380D02*
X147312095Y-115768380D01*
X147597809Y-115768380D02*
X147597809Y-114768380D01*
X147502571Y-114911238D01*
X147407333Y-115006476D01*
X147312095Y-115054095D01*
X148502571Y-114768380D02*
X148597809Y-114768380D01*
X148693047Y-114816000D01*
X148740666Y-114863619D01*
X148788285Y-114958857D01*
X148835904Y-115149333D01*
X148835904Y-115387428D01*
X148788285Y-115577904D01*
X148740666Y-115673142D01*
X148693047Y-115720761D01*
X148597809Y-115768380D01*
X148502571Y-115768380D01*
X148407333Y-115720761D01*
X148359714Y-115673142D01*
X148312095Y-115577904D01*
X148264476Y-115387428D01*
X148264476Y-115149333D01*
X148312095Y-114958857D01*
X148359714Y-114863619D01*
X148407333Y-114816000D01*
X148502571Y-114768380D01*
X210002380Y-124993666D02*
X209526190Y-125327000D01*
X210002380Y-125565095D02*
X209002380Y-125565095D01*
X209002380Y-125184142D01*
X209050000Y-125088904D01*
X209097619Y-125041285D01*
X209192857Y-124993666D01*
X209335714Y-124993666D01*
X209430952Y-125041285D01*
X209478571Y-125088904D01*
X209526190Y-125184142D01*
X209526190Y-125565095D01*
X209430952Y-124422238D02*
X209383333Y-124517476D01*
X209335714Y-124565095D01*
X209240476Y-124612714D01*
X209192857Y-124612714D01*
X209097619Y-124565095D01*
X209050000Y-124517476D01*
X209002380Y-124422238D01*
X209002380Y-124231761D01*
X209050000Y-124136523D01*
X209097619Y-124088904D01*
X209192857Y-124041285D01*
X209240476Y-124041285D01*
X209335714Y-124088904D01*
X209383333Y-124136523D01*
X209430952Y-124231761D01*
X209430952Y-124422238D01*
X209478571Y-124517476D01*
X209526190Y-124565095D01*
X209621428Y-124612714D01*
X209811904Y-124612714D01*
X209907142Y-124565095D01*
X209954761Y-124517476D01*
X210002380Y-124422238D01*
X210002380Y-124231761D01*
X209954761Y-124136523D01*
X209907142Y-124088904D01*
X209811904Y-124041285D01*
X209621428Y-124041285D01*
X209526190Y-124088904D01*
X209478571Y-124136523D01*
X209430952Y-124231761D01*
X203668333Y-115006380D02*
X203335000Y-114530190D01*
X203096904Y-115006380D02*
X203096904Y-114006380D01*
X203477857Y-114006380D01*
X203573095Y-114054000D01*
X203620714Y-114101619D01*
X203668333Y-114196857D01*
X203668333Y-114339714D01*
X203620714Y-114434952D01*
X203573095Y-114482571D01*
X203477857Y-114530190D01*
X203096904Y-114530190D01*
X204525476Y-114339714D02*
X204525476Y-115006380D01*
X204287380Y-113958761D02*
X204049285Y-114673047D01*
X204668333Y-114673047D01*
X181316333Y-126468142D02*
X181268714Y-126515761D01*
X181125857Y-126563380D01*
X181030619Y-126563380D01*
X180887761Y-126515761D01*
X180792523Y-126420523D01*
X180744904Y-126325285D01*
X180697285Y-126134809D01*
X180697285Y-125991952D01*
X180744904Y-125801476D01*
X180792523Y-125706238D01*
X180887761Y-125611000D01*
X181030619Y-125563380D01*
X181125857Y-125563380D01*
X181268714Y-125611000D01*
X181316333Y-125658619D01*
X181887761Y-125991952D02*
X181792523Y-125944333D01*
X181744904Y-125896714D01*
X181697285Y-125801476D01*
X181697285Y-125753857D01*
X181744904Y-125658619D01*
X181792523Y-125611000D01*
X181887761Y-125563380D01*
X182078238Y-125563380D01*
X182173476Y-125611000D01*
X182221095Y-125658619D01*
X182268714Y-125753857D01*
X182268714Y-125801476D01*
X182221095Y-125896714D01*
X182173476Y-125944333D01*
X182078238Y-125991952D01*
X181887761Y-125991952D01*
X181792523Y-126039571D01*
X181744904Y-126087190D01*
X181697285Y-126182428D01*
X181697285Y-126372904D01*
X181744904Y-126468142D01*
X181792523Y-126515761D01*
X181887761Y-126563380D01*
X182078238Y-126563380D01*
X182173476Y-126515761D01*
X182221095Y-126468142D01*
X182268714Y-126372904D01*
X182268714Y-126182428D01*
X182221095Y-126087190D01*
X182173476Y-126039571D01*
X182078238Y-125991952D01*
X141311333Y-126214142D02*
X141263714Y-126261761D01*
X141120857Y-126309380D01*
X141025619Y-126309380D01*
X140882761Y-126261761D01*
X140787523Y-126166523D01*
X140739904Y-126071285D01*
X140692285Y-125880809D01*
X140692285Y-125737952D01*
X140739904Y-125547476D01*
X140787523Y-125452238D01*
X140882761Y-125357000D01*
X141025619Y-125309380D01*
X141120857Y-125309380D01*
X141263714Y-125357000D01*
X141311333Y-125404619D01*
X142168476Y-125309380D02*
X141978000Y-125309380D01*
X141882761Y-125357000D01*
X141835142Y-125404619D01*
X141739904Y-125547476D01*
X141692285Y-125737952D01*
X141692285Y-126118904D01*
X141739904Y-126214142D01*
X141787523Y-126261761D01*
X141882761Y-126309380D01*
X142073238Y-126309380D01*
X142168476Y-126261761D01*
X142216095Y-126214142D01*
X142263714Y-126118904D01*
X142263714Y-125880809D01*
X142216095Y-125785571D01*
X142168476Y-125737952D01*
X142073238Y-125690333D01*
X141882761Y-125690333D01*
X141787523Y-125737952D01*
X141739904Y-125785571D01*
X141692285Y-125880809D01*
X203146333Y-126341142D02*
X203098714Y-126388761D01*
X202955857Y-126436380D01*
X202860619Y-126436380D01*
X202717761Y-126388761D01*
X202622523Y-126293523D01*
X202574904Y-126198285D01*
X202527285Y-126007809D01*
X202527285Y-125864952D01*
X202574904Y-125674476D01*
X202622523Y-125579238D01*
X202717761Y-125484000D01*
X202860619Y-125436380D01*
X202955857Y-125436380D01*
X203098714Y-125484000D01*
X203146333Y-125531619D01*
X204003476Y-125769714D02*
X204003476Y-126436380D01*
X203765380Y-125388761D02*
X203527285Y-126103047D01*
X204146333Y-126103047D01*
X198405904Y-88860380D02*
X198405904Y-89669904D01*
X198453523Y-89765142D01*
X198501142Y-89812761D01*
X198596380Y-89860380D01*
X198786857Y-89860380D01*
X198882095Y-89812761D01*
X198929714Y-89765142D01*
X198977333Y-89669904D01*
X198977333Y-88860380D01*
X199977333Y-89860380D02*
X199405904Y-89860380D01*
X199691619Y-89860380D02*
X199691619Y-88860380D01*
X199596380Y-89003238D01*
X199501142Y-89098476D01*
X199405904Y-89146095D01*
X200596380Y-88860380D02*
X200691619Y-88860380D01*
X200786857Y-88908000D01*
X200834476Y-88955619D01*
X200882095Y-89050857D01*
X200929714Y-89241333D01*
X200929714Y-89479428D01*
X200882095Y-89669904D01*
X200834476Y-89765142D01*
X200786857Y-89812761D01*
X200691619Y-89860380D01*
X200596380Y-89860380D01*
X200501142Y-89812761D01*
X200453523Y-89765142D01*
X200405904Y-89669904D01*
X200358285Y-89479428D01*
X200358285Y-89241333D01*
X200405904Y-89050857D01*
X200453523Y-88955619D01*
X200501142Y-88908000D01*
X200596380Y-88860380D01*
X144454571Y-87723333D02*
X144454571Y-88056666D01*
X144978380Y-88056666D02*
X143978380Y-88056666D01*
X143978380Y-87580476D01*
X144978380Y-86675714D02*
X144978380Y-87247142D01*
X144978380Y-86961428D02*
X143978380Y-86961428D01*
X144121238Y-87056666D01*
X144216476Y-87151904D01*
X144264095Y-87247142D01*
X170767476Y-127214380D02*
X170767476Y-127928666D01*
X170719857Y-128071523D01*
X170624619Y-128166761D01*
X170481761Y-128214380D01*
X170386523Y-128214380D01*
X171767476Y-128214380D02*
X171196047Y-128214380D01*
X171481761Y-128214380D02*
X171481761Y-127214380D01*
X171386523Y-127357238D01*
X171291285Y-127452476D01*
X171196047Y-127500095D01*
X172386523Y-127214380D02*
X172481761Y-127214380D01*
X172577000Y-127262000D01*
X172624619Y-127309619D01*
X172672238Y-127404857D01*
X172719857Y-127595333D01*
X172719857Y-127833428D01*
X172672238Y-128023904D01*
X172624619Y-128119142D01*
X172577000Y-128166761D01*
X172481761Y-128214380D01*
X172386523Y-128214380D01*
X172291285Y-128166761D01*
X172243666Y-128119142D01*
X172196047Y-128023904D01*
X172148428Y-127833428D01*
X172148428Y-127595333D01*
X172196047Y-127404857D01*
X172243666Y-127309619D01*
X172291285Y-127262000D01*
X172386523Y-127214380D01*
X133397666Y-125817380D02*
X133397666Y-126531666D01*
X133350047Y-126674523D01*
X133254809Y-126769761D01*
X133111952Y-126817380D01*
X133016714Y-126817380D01*
X134350047Y-125817380D02*
X133873857Y-125817380D01*
X133826238Y-126293571D01*
X133873857Y-126245952D01*
X133969095Y-126198333D01*
X134207190Y-126198333D01*
X134302428Y-126245952D01*
X134350047Y-126293571D01*
X134397666Y-126388809D01*
X134397666Y-126626904D01*
X134350047Y-126722142D01*
X134302428Y-126769761D01*
X134207190Y-126817380D01*
X133969095Y-126817380D01*
X133873857Y-126769761D01*
X133826238Y-126722142D01*
X193595666Y-127214380D02*
X193595666Y-127928666D01*
X193548047Y-128071523D01*
X193452809Y-128166761D01*
X193309952Y-128214380D01*
X193214714Y-128214380D01*
X193976619Y-127214380D02*
X194595666Y-127214380D01*
X194262333Y-127595333D01*
X194405190Y-127595333D01*
X194500428Y-127642952D01*
X194548047Y-127690571D01*
X194595666Y-127785809D01*
X194595666Y-128023904D01*
X194548047Y-128119142D01*
X194500428Y-128166761D01*
X194405190Y-128214380D01*
X194119476Y-128214380D01*
X194024238Y-128166761D01*
X193976619Y-128119142D01*
X153971666Y-126325380D02*
X153971666Y-127039666D01*
X153924047Y-127182523D01*
X153828809Y-127277761D01*
X153685952Y-127325380D01*
X153590714Y-127325380D01*
X154971666Y-127325380D02*
X154400238Y-127325380D01*
X154685952Y-127325380D02*
X154685952Y-126325380D01*
X154590714Y-126468238D01*
X154495476Y-126563476D01*
X154400238Y-126611095D01*
X147089904Y-90622380D02*
X147089904Y-89622380D01*
X147328000Y-89622380D01*
X147470857Y-89670000D01*
X147566095Y-89765238D01*
X147613714Y-89860476D01*
X147661333Y-90050952D01*
X147661333Y-90193809D01*
X147613714Y-90384285D01*
X147566095Y-90479523D01*
X147470857Y-90574761D01*
X147328000Y-90622380D01*
X147089904Y-90622380D01*
X147994666Y-89622380D02*
X148613714Y-89622380D01*
X148280380Y-90003333D01*
X148423238Y-90003333D01*
X148518476Y-90050952D01*
X148566095Y-90098571D01*
X148613714Y-90193809D01*
X148613714Y-90431904D01*
X148566095Y-90527142D01*
X148518476Y-90574761D01*
X148423238Y-90622380D01*
X148137523Y-90622380D01*
X148042285Y-90574761D01*
X147994666Y-90527142D01*
X144978380Y-83923095D02*
X143978380Y-83923095D01*
X143978380Y-83685000D01*
X144026000Y-83542142D01*
X144121238Y-83446904D01*
X144216476Y-83399285D01*
X144406952Y-83351666D01*
X144549809Y-83351666D01*
X144740285Y-83399285D01*
X144835523Y-83446904D01*
X144930761Y-83542142D01*
X144978380Y-83685000D01*
X144978380Y-83923095D01*
X144073619Y-82970714D02*
X144026000Y-82923095D01*
X143978380Y-82827857D01*
X143978380Y-82589761D01*
X144026000Y-82494523D01*
X144073619Y-82446904D01*
X144168857Y-82399285D01*
X144264095Y-82399285D01*
X144406952Y-82446904D01*
X144978380Y-83018333D01*
X144978380Y-82399285D01*
X144367333Y-70194380D02*
X143891142Y-70194380D01*
X143843523Y-70670571D01*
X143891142Y-70622952D01*
X143986380Y-70575333D01*
X144224476Y-70575333D01*
X144319714Y-70622952D01*
X144367333Y-70670571D01*
X144414952Y-70765809D01*
X144414952Y-71003904D01*
X144367333Y-71099142D01*
X144319714Y-71146761D01*
X144224476Y-71194380D01*
X143986380Y-71194380D01*
X143891142Y-71146761D01*
X143843523Y-71099142D01*
X144700666Y-70194380D02*
X145034000Y-71194380D01*
X145367333Y-70194380D01*
X146224476Y-71194380D02*
X145653047Y-71194380D01*
X145938761Y-71194380D02*
X145938761Y-70194380D01*
X145843523Y-70337238D01*
X145748285Y-70432476D01*
X145653047Y-70480095D01*
X205502095Y-78763761D02*
X205644952Y-78811380D01*
X205883047Y-78811380D01*
X205978285Y-78763761D01*
X206025904Y-78716142D01*
X206073523Y-78620904D01*
X206073523Y-78525666D01*
X206025904Y-78430428D01*
X205978285Y-78382809D01*
X205883047Y-78335190D01*
X205692571Y-78287571D01*
X205597333Y-78239952D01*
X205549714Y-78192333D01*
X205502095Y-78097095D01*
X205502095Y-78001857D01*
X205549714Y-77906619D01*
X205597333Y-77859000D01*
X205692571Y-77811380D01*
X205930666Y-77811380D01*
X206073523Y-77859000D01*
X207073523Y-78716142D02*
X207025904Y-78763761D01*
X206883047Y-78811380D01*
X206787809Y-78811380D01*
X206644952Y-78763761D01*
X206549714Y-78668523D01*
X206502095Y-78573285D01*
X206454476Y-78382809D01*
X206454476Y-78239952D01*
X206502095Y-78049476D01*
X206549714Y-77954238D01*
X206644952Y-77859000D01*
X206787809Y-77811380D01*
X206883047Y-77811380D01*
X207025904Y-77859000D01*
X207073523Y-77906619D01*
X207502095Y-78811380D02*
X207502095Y-77811380D01*
X208073523Y-78811380D02*
X207644952Y-78239952D01*
X208073523Y-77811380D02*
X207502095Y-78382809D01*
X209025904Y-78811380D02*
X208454476Y-78811380D01*
X208740190Y-78811380D02*
X208740190Y-77811380D01*
X208644952Y-77954238D01*
X208549714Y-78049476D01*
X208454476Y-78097095D01*
X205771904Y-75144380D02*
X206390952Y-75144380D01*
X206057619Y-75525333D01*
X206200476Y-75525333D01*
X206295714Y-75572952D01*
X206343333Y-75620571D01*
X206390952Y-75715809D01*
X206390952Y-75953904D01*
X206343333Y-76049142D01*
X206295714Y-76096761D01*
X206200476Y-76144380D01*
X205914761Y-76144380D01*
X205819523Y-76096761D01*
X205771904Y-76049142D01*
X206676666Y-75144380D02*
X207010000Y-76144380D01*
X207343333Y-75144380D01*
X207581428Y-75144380D02*
X208200476Y-75144380D01*
X207867142Y-75525333D01*
X208010000Y-75525333D01*
X208105238Y-75572952D01*
X208152857Y-75620571D01*
X208200476Y-75715809D01*
X208200476Y-75953904D01*
X208152857Y-76049142D01*
X208105238Y-76096761D01*
X208010000Y-76144380D01*
X207724285Y-76144380D01*
X207629047Y-76096761D01*
X207581428Y-76049142D01*
X162552142Y-73607380D02*
X162218809Y-73131190D01*
X161980714Y-73607380D02*
X161980714Y-72607380D01*
X162361666Y-72607380D01*
X162456904Y-72655000D01*
X162504523Y-72702619D01*
X162552142Y-72797857D01*
X162552142Y-72940714D01*
X162504523Y-73035952D01*
X162456904Y-73083571D01*
X162361666Y-73131190D01*
X161980714Y-73131190D01*
X162885476Y-72607380D02*
X163552142Y-73607380D01*
X163552142Y-72607380D02*
X162885476Y-73607380D01*
X164075952Y-73035952D02*
X163980714Y-72988333D01*
X163933095Y-72940714D01*
X163885476Y-72845476D01*
X163885476Y-72797857D01*
X163933095Y-72702619D01*
X163980714Y-72655000D01*
X164075952Y-72607380D01*
X164266428Y-72607380D01*
X164361666Y-72655000D01*
X164409285Y-72702619D01*
X164456904Y-72797857D01*
X164456904Y-72845476D01*
X164409285Y-72940714D01*
X164361666Y-72988333D01*
X164266428Y-73035952D01*
X164075952Y-73035952D01*
X163980714Y-73083571D01*
X163933095Y-73131190D01*
X163885476Y-73226428D01*
X163885476Y-73416904D01*
X163933095Y-73512142D01*
X163980714Y-73559761D01*
X164075952Y-73607380D01*
X164266428Y-73607380D01*
X164361666Y-73559761D01*
X164409285Y-73512142D01*
X164456904Y-73416904D01*
X164456904Y-73226428D01*
X164409285Y-73131190D01*
X164361666Y-73083571D01*
X164266428Y-73035952D01*
X161829904Y-76290380D02*
X162401333Y-76290380D01*
X162115619Y-77290380D02*
X162115619Y-76290380D01*
X162639428Y-76290380D02*
X163306095Y-77290380D01*
X163306095Y-76290380D02*
X162639428Y-77290380D01*
X163829904Y-76718952D02*
X163734666Y-76671333D01*
X163687047Y-76623714D01*
X163639428Y-76528476D01*
X163639428Y-76480857D01*
X163687047Y-76385619D01*
X163734666Y-76338000D01*
X163829904Y-76290380D01*
X164020380Y-76290380D01*
X164115619Y-76338000D01*
X164163238Y-76385619D01*
X164210857Y-76480857D01*
X164210857Y-76528476D01*
X164163238Y-76623714D01*
X164115619Y-76671333D01*
X164020380Y-76718952D01*
X163829904Y-76718952D01*
X163734666Y-76766571D01*
X163687047Y-76814190D01*
X163639428Y-76909428D01*
X163639428Y-77099904D01*
X163687047Y-77195142D01*
X163734666Y-77242761D01*
X163829904Y-77290380D01*
X164020380Y-77290380D01*
X164115619Y-77242761D01*
X164163238Y-77195142D01*
X164210857Y-77099904D01*
X164210857Y-76909428D01*
X164163238Y-76814190D01*
X164115619Y-76766571D01*
X164020380Y-76718952D01*
X205724380Y-83891380D02*
X205724380Y-82891380D01*
X206057714Y-83605666D01*
X206391047Y-82891380D01*
X206391047Y-83891380D01*
X206867238Y-83891380D02*
X206867238Y-82891380D01*
X207295809Y-83843761D02*
X207438666Y-83891380D01*
X207676761Y-83891380D01*
X207772000Y-83843761D01*
X207819619Y-83796142D01*
X207867238Y-83700904D01*
X207867238Y-83605666D01*
X207819619Y-83510428D01*
X207772000Y-83462809D01*
X207676761Y-83415190D01*
X207486285Y-83367571D01*
X207391047Y-83319952D01*
X207343428Y-83272333D01*
X207295809Y-83177095D01*
X207295809Y-83081857D01*
X207343428Y-82986619D01*
X207391047Y-82939000D01*
X207486285Y-82891380D01*
X207724380Y-82891380D01*
X207867238Y-82939000D01*
X208486285Y-82891380D02*
X208676761Y-82891380D01*
X208772000Y-82939000D01*
X208867238Y-83034238D01*
X208914857Y-83224714D01*
X208914857Y-83558047D01*
X208867238Y-83748523D01*
X208772000Y-83843761D01*
X208676761Y-83891380D01*
X208486285Y-83891380D01*
X208391047Y-83843761D01*
X208295809Y-83748523D01*
X208248190Y-83558047D01*
X208248190Y-83224714D01*
X208295809Y-83034238D01*
X208391047Y-82939000D01*
X208486285Y-82891380D01*
X209867238Y-83891380D02*
X209295809Y-83891380D01*
X209581523Y-83891380D02*
X209581523Y-82891380D01*
X209486285Y-83034238D01*
X209391047Y-83129476D01*
X209295809Y-83177095D01*
X205597380Y-81224380D02*
X205597380Y-80224380D01*
X205930714Y-80938666D01*
X206264047Y-80224380D01*
X206264047Y-81224380D01*
X206930714Y-80224380D02*
X207121190Y-80224380D01*
X207216428Y-80272000D01*
X207311666Y-80367238D01*
X207359285Y-80557714D01*
X207359285Y-80891047D01*
X207311666Y-81081523D01*
X207216428Y-81176761D01*
X207121190Y-81224380D01*
X206930714Y-81224380D01*
X206835476Y-81176761D01*
X206740238Y-81081523D01*
X206692619Y-80891047D01*
X206692619Y-80557714D01*
X206740238Y-80367238D01*
X206835476Y-80272000D01*
X206930714Y-80224380D01*
X207740238Y-81176761D02*
X207883095Y-81224380D01*
X208121190Y-81224380D01*
X208216428Y-81176761D01*
X208264047Y-81129142D01*
X208311666Y-81033904D01*
X208311666Y-80938666D01*
X208264047Y-80843428D01*
X208216428Y-80795809D01*
X208121190Y-80748190D01*
X207930714Y-80700571D01*
X207835476Y-80652952D01*
X207787857Y-80605333D01*
X207740238Y-80510095D01*
X207740238Y-80414857D01*
X207787857Y-80319619D01*
X207835476Y-80272000D01*
X207930714Y-80224380D01*
X208168809Y-80224380D01*
X208311666Y-80272000D01*
X208740238Y-81224380D02*
X208740238Y-80224380D01*
X209740238Y-81224380D02*
X209168809Y-81224380D01*
X209454523Y-81224380D02*
X209454523Y-80224380D01*
X209359285Y-80367238D01*
X209264047Y-80462476D01*
X209168809Y-80510095D01*
X206367142Y-86336142D02*
X206319523Y-86383761D01*
X206176666Y-86431380D01*
X206081428Y-86431380D01*
X205938571Y-86383761D01*
X205843333Y-86288523D01*
X205795714Y-86193285D01*
X205748095Y-86002809D01*
X205748095Y-85859952D01*
X205795714Y-85669476D01*
X205843333Y-85574238D01*
X205938571Y-85479000D01*
X206081428Y-85431380D01*
X206176666Y-85431380D01*
X206319523Y-85479000D01*
X206367142Y-85526619D01*
X206748095Y-86383761D02*
X206890952Y-86431380D01*
X207129047Y-86431380D01*
X207224285Y-86383761D01*
X207271904Y-86336142D01*
X207319523Y-86240904D01*
X207319523Y-86145666D01*
X207271904Y-86050428D01*
X207224285Y-86002809D01*
X207129047Y-85955190D01*
X206938571Y-85907571D01*
X206843333Y-85859952D01*
X206795714Y-85812333D01*
X206748095Y-85717095D01*
X206748095Y-85621857D01*
X206795714Y-85526619D01*
X206843333Y-85479000D01*
X206938571Y-85431380D01*
X207176666Y-85431380D01*
X207319523Y-85479000D01*
X208271904Y-86431380D02*
X207700476Y-86431380D01*
X207986190Y-86431380D02*
X207986190Y-85431380D01*
X207890952Y-85574238D01*
X207795714Y-85669476D01*
X207700476Y-85717095D01*
X149598142Y-77414380D02*
X149264809Y-76938190D01*
X149026714Y-77414380D02*
X149026714Y-76414380D01*
X149407666Y-76414380D01*
X149502904Y-76462000D01*
X149550523Y-76509619D01*
X149598142Y-76604857D01*
X149598142Y-76747714D01*
X149550523Y-76842952D01*
X149502904Y-76890571D01*
X149407666Y-76938190D01*
X149026714Y-76938190D01*
X150550523Y-77414380D02*
X149979095Y-77414380D01*
X150264809Y-77414380D02*
X150264809Y-76414380D01*
X150169571Y-76557238D01*
X150074333Y-76652476D01*
X149979095Y-76700095D01*
X150883857Y-76414380D02*
X151550523Y-76414380D01*
X151121952Y-77414380D01*
X145057904Y-77160380D02*
X145057904Y-76160380D01*
X145296000Y-76160380D01*
X145438857Y-76208000D01*
X145534095Y-76303238D01*
X145581714Y-76398476D01*
X145629333Y-76588952D01*
X145629333Y-76731809D01*
X145581714Y-76922285D01*
X145534095Y-77017523D01*
X145438857Y-77112761D01*
X145296000Y-77160380D01*
X145057904Y-77160380D01*
X146581714Y-77160380D02*
X146010285Y-77160380D01*
X146296000Y-77160380D02*
X146296000Y-76160380D01*
X146200761Y-76303238D01*
X146105523Y-76398476D01*
X146010285Y-76446095D01*
X184943904Y-112101380D02*
X185515333Y-112101380D01*
X185229619Y-113101380D02*
X185229619Y-112101380D01*
X185753428Y-112101380D02*
X186420095Y-113101380D01*
X186420095Y-112101380D02*
X185753428Y-113101380D01*
X187277238Y-112101380D02*
X186801047Y-112101380D01*
X186753428Y-112577571D01*
X186801047Y-112529952D01*
X186896285Y-112482333D01*
X187134380Y-112482333D01*
X187229619Y-112529952D01*
X187277238Y-112577571D01*
X187324857Y-112672809D01*
X187324857Y-112910904D01*
X187277238Y-113006142D01*
X187229619Y-113053761D01*
X187134380Y-113101380D01*
X186896285Y-113101380D01*
X186801047Y-113053761D01*
X186753428Y-113006142D01*
X176776142Y-113482380D02*
X176442809Y-113006190D01*
X176204714Y-113482380D02*
X176204714Y-112482380D01*
X176585666Y-112482380D01*
X176680904Y-112530000D01*
X176728523Y-112577619D01*
X176776142Y-112672857D01*
X176776142Y-112815714D01*
X176728523Y-112910952D01*
X176680904Y-112958571D01*
X176585666Y-113006190D01*
X176204714Y-113006190D01*
X177109476Y-112482380D02*
X177776142Y-113482380D01*
X177776142Y-112482380D02*
X177109476Y-113482380D01*
X178633285Y-112482380D02*
X178157095Y-112482380D01*
X178109476Y-112958571D01*
X178157095Y-112910952D01*
X178252333Y-112863333D01*
X178490428Y-112863333D01*
X178585666Y-112910952D01*
X178633285Y-112958571D01*
X178680904Y-113053809D01*
X178680904Y-113291904D01*
X178633285Y-113387142D01*
X178585666Y-113434761D01*
X178490428Y-113482380D01*
X178252333Y-113482380D01*
X178157095Y-113434761D01*
X178109476Y-113387142D01*
X142271904Y-109307380D02*
X142843333Y-109307380D01*
X142557619Y-110307380D02*
X142557619Y-109307380D01*
X143081428Y-109307380D02*
X143748095Y-110307380D01*
X143748095Y-109307380D02*
X143081428Y-110307380D01*
X144033809Y-109307380D02*
X144652857Y-109307380D01*
X144319523Y-109688333D01*
X144462380Y-109688333D01*
X144557619Y-109735952D01*
X144605238Y-109783571D01*
X144652857Y-109878809D01*
X144652857Y-110116904D01*
X144605238Y-110212142D01*
X144557619Y-110259761D01*
X144462380Y-110307380D01*
X144176666Y-110307380D01*
X144081428Y-110259761D01*
X144033809Y-110212142D01*
X139438142Y-108656380D02*
X139104809Y-108180190D01*
X138866714Y-108656380D02*
X138866714Y-107656380D01*
X139247666Y-107656380D01*
X139342904Y-107704000D01*
X139390523Y-107751619D01*
X139438142Y-107846857D01*
X139438142Y-107989714D01*
X139390523Y-108084952D01*
X139342904Y-108132571D01*
X139247666Y-108180190D01*
X138866714Y-108180190D01*
X139771476Y-107656380D02*
X140438142Y-108656380D01*
X140438142Y-107656380D02*
X139771476Y-108656380D01*
X140723857Y-107656380D02*
X141342904Y-107656380D01*
X141009571Y-108037333D01*
X141152428Y-108037333D01*
X141247666Y-108084952D01*
X141295285Y-108132571D01*
X141342904Y-108227809D01*
X141342904Y-108465904D01*
X141295285Y-108561142D01*
X141247666Y-108608761D01*
X141152428Y-108656380D01*
X140866714Y-108656380D01*
X140771476Y-108608761D01*
X140723857Y-108561142D01*
X209073904Y-108926380D02*
X209645333Y-108926380D01*
X209359619Y-109926380D02*
X209359619Y-108926380D01*
X209883428Y-108926380D02*
X210550095Y-109926380D01*
X210550095Y-108926380D02*
X209883428Y-109926380D01*
X210835809Y-108926380D02*
X211502476Y-108926380D01*
X211073904Y-109926380D01*
X163480904Y-110831380D02*
X164052333Y-110831380D01*
X163766619Y-111831380D02*
X163766619Y-110831380D01*
X164290428Y-110831380D02*
X164957095Y-111831380D01*
X164957095Y-110831380D02*
X164290428Y-111831380D01*
X165290428Y-110926619D02*
X165338047Y-110879000D01*
X165433285Y-110831380D01*
X165671380Y-110831380D01*
X165766619Y-110879000D01*
X165814238Y-110926619D01*
X165861857Y-111021857D01*
X165861857Y-111117095D01*
X165814238Y-111259952D01*
X165242809Y-111831380D01*
X165861857Y-111831380D01*
X201160142Y-111069380D02*
X200826809Y-110593190D01*
X200588714Y-111069380D02*
X200588714Y-110069380D01*
X200969666Y-110069380D01*
X201064904Y-110117000D01*
X201112523Y-110164619D01*
X201160142Y-110259857D01*
X201160142Y-110402714D01*
X201112523Y-110497952D01*
X201064904Y-110545571D01*
X200969666Y-110593190D01*
X200588714Y-110593190D01*
X201493476Y-110069380D02*
X202160142Y-111069380D01*
X202160142Y-110069380D02*
X201493476Y-111069380D01*
X202445857Y-110069380D02*
X203112523Y-110069380D01*
X202683952Y-111069380D01*
X154678142Y-112466380D02*
X154344809Y-111990190D01*
X154106714Y-112466380D02*
X154106714Y-111466380D01*
X154487666Y-111466380D01*
X154582904Y-111514000D01*
X154630523Y-111561619D01*
X154678142Y-111656857D01*
X154678142Y-111799714D01*
X154630523Y-111894952D01*
X154582904Y-111942571D01*
X154487666Y-111990190D01*
X154106714Y-111990190D01*
X155011476Y-111466380D02*
X155678142Y-112466380D01*
X155678142Y-111466380D02*
X155011476Y-112466380D01*
X156011476Y-111561619D02*
X156059095Y-111514000D01*
X156154333Y-111466380D01*
X156392428Y-111466380D01*
X156487666Y-111514000D01*
X156535285Y-111561619D01*
X156582904Y-111656857D01*
X156582904Y-111752095D01*
X156535285Y-111894952D01*
X155963857Y-112466380D01*
X156582904Y-112466380D01*
X174250142Y-126309380D02*
X173916809Y-125833190D01*
X173678714Y-126309380D02*
X173678714Y-125309380D01*
X174059666Y-125309380D01*
X174154904Y-125357000D01*
X174202523Y-125404619D01*
X174250142Y-125499857D01*
X174250142Y-125642714D01*
X174202523Y-125737952D01*
X174154904Y-125785571D01*
X174059666Y-125833190D01*
X173678714Y-125833190D01*
X175202523Y-126309380D02*
X174631095Y-126309380D01*
X174916809Y-126309380D02*
X174916809Y-125309380D01*
X174821571Y-125452238D01*
X174726333Y-125547476D01*
X174631095Y-125595095D01*
X176154904Y-126309380D02*
X175583476Y-126309380D01*
X175869190Y-126309380D02*
X175869190Y-125309380D01*
X175773952Y-125452238D01*
X175678714Y-125547476D01*
X175583476Y-125595095D01*
X163409380Y-81359333D02*
X164123666Y-81359333D01*
X164266523Y-81406952D01*
X164361761Y-81502190D01*
X164409380Y-81645047D01*
X164409380Y-81740285D01*
X163409380Y-80454571D02*
X163409380Y-80645047D01*
X163457000Y-80740285D01*
X163504619Y-80787904D01*
X163647476Y-80883142D01*
X163837952Y-80930761D01*
X164218904Y-80930761D01*
X164314142Y-80883142D01*
X164361761Y-80835523D01*
X164409380Y-80740285D01*
X164409380Y-80549809D01*
X164361761Y-80454571D01*
X164314142Y-80406952D01*
X164218904Y-80359333D01*
X163980809Y-80359333D01*
X163885571Y-80406952D01*
X163837952Y-80454571D01*
X163790333Y-80549809D01*
X163790333Y-80740285D01*
X163837952Y-80835523D01*
X163885571Y-80883142D01*
X163980809Y-80930761D01*
X131912451Y-122047333D02*
X132722159Y-122047333D01*
X132817419Y-121999703D01*
X132865049Y-121952073D01*
X132912679Y-121856813D01*
X132912679Y-121666294D01*
X132865049Y-121571034D01*
X132817419Y-121523404D01*
X132722159Y-121475774D01*
X131912451Y-121475774D01*
X131912451Y-120570806D02*
X131912451Y-120761326D01*
X131960081Y-120856585D01*
X132007710Y-120904215D01*
X132150600Y-120999475D01*
X132341120Y-121047105D01*
X132722159Y-121047105D01*
X132817419Y-120999475D01*
X132865049Y-120951845D01*
X132912679Y-120856585D01*
X132912679Y-120666066D01*
X132865049Y-120570806D01*
X132817419Y-120523176D01*
X132722159Y-120475546D01*
X132484009Y-120475546D01*
X132388750Y-120523176D01*
X132341120Y-120570806D01*
X132293490Y-120666066D01*
X132293490Y-120856585D01*
X132341120Y-120951845D01*
X132388750Y-120999475D01*
X132484009Y-121047105D01*
X133070333Y-115419142D02*
X133022714Y-115466761D01*
X132879857Y-115514380D01*
X132784619Y-115514380D01*
X132641761Y-115466761D01*
X132546523Y-115371523D01*
X132498904Y-115276285D01*
X132451285Y-115085809D01*
X132451285Y-114942952D01*
X132498904Y-114752476D01*
X132546523Y-114657238D01*
X132641761Y-114562000D01*
X132784619Y-114514380D01*
X132879857Y-114514380D01*
X133022714Y-114562000D01*
X133070333Y-114609619D01*
X133975095Y-114514380D02*
X133498904Y-114514380D01*
X133451285Y-114990571D01*
X133498904Y-114942952D01*
X133594142Y-114895333D01*
X133832238Y-114895333D01*
X133927476Y-114942952D01*
X133975095Y-114990571D01*
X134022714Y-115085809D01*
X134022714Y-115323904D01*
X133975095Y-115419142D01*
X133927476Y-115466761D01*
X133832238Y-115514380D01*
X133594142Y-115514380D01*
X133498904Y-115466761D01*
X133451285Y-115419142D01*
X140533380Y-122689857D02*
X140057190Y-123023190D01*
X140533380Y-123261285D02*
X139533380Y-123261285D01*
X139533380Y-122880333D01*
X139581000Y-122785095D01*
X139628619Y-122737476D01*
X139723857Y-122689857D01*
X139866714Y-122689857D01*
X139961952Y-122737476D01*
X140009571Y-122785095D01*
X140057190Y-122880333D01*
X140057190Y-123261285D01*
X140533380Y-121737476D02*
X140533380Y-122308904D01*
X140533380Y-122023190D02*
X139533380Y-122023190D01*
X139676238Y-122118428D01*
X139771476Y-122213666D01*
X139819095Y-122308904D01*
X139533380Y-121404142D02*
X139533380Y-120785095D01*
X139914333Y-121118428D01*
X139914333Y-120975571D01*
X139961952Y-120880333D01*
X140009571Y-120832714D01*
X140104809Y-120785095D01*
X140342904Y-120785095D01*
X140438142Y-120832714D01*
X140485761Y-120880333D01*
X140533380Y-120975571D01*
X140533380Y-121261285D01*
X140485761Y-121356523D01*
X140438142Y-121404142D01*
X135751333Y-126309380D02*
X135418000Y-125833190D01*
X135179904Y-126309380D02*
X135179904Y-125309380D01*
X135560857Y-125309380D01*
X135656095Y-125357000D01*
X135703714Y-125404619D01*
X135751333Y-125499857D01*
X135751333Y-125642714D01*
X135703714Y-125737952D01*
X135656095Y-125785571D01*
X135560857Y-125833190D01*
X135179904Y-125833190D01*
X136227523Y-126309380D02*
X136418000Y-126309380D01*
X136513238Y-126261761D01*
X136560857Y-126214142D01*
X136656095Y-126071285D01*
X136703714Y-125880809D01*
X136703714Y-125499857D01*
X136656095Y-125404619D01*
X136608476Y-125357000D01*
X136513238Y-125309380D01*
X136322761Y-125309380D01*
X136227523Y-125357000D01*
X136179904Y-125404619D01*
X136132285Y-125499857D01*
X136132285Y-125737952D01*
X136179904Y-125833190D01*
X136227523Y-125880809D01*
X136322761Y-125928428D01*
X136513238Y-125928428D01*
X136608476Y-125880809D01*
X136656095Y-125833190D01*
X136703714Y-125737952D01*
X161504333Y-126309380D02*
X161171000Y-125833190D01*
X160932904Y-126309380D02*
X160932904Y-125309380D01*
X161313857Y-125309380D01*
X161409095Y-125357000D01*
X161456714Y-125404619D01*
X161504333Y-125499857D01*
X161504333Y-125642714D01*
X161456714Y-125737952D01*
X161409095Y-125785571D01*
X161313857Y-125833190D01*
X160932904Y-125833190D01*
X162456714Y-126309380D02*
X161885285Y-126309380D01*
X162171000Y-126309380D02*
X162171000Y-125309380D01*
X162075761Y-125452238D01*
X161980523Y-125547476D01*
X161885285Y-125595095D01*
X167093061Y-119760823D02*
X167902769Y-119760823D01*
X167998029Y-119713193D01*
X168045659Y-119665563D01*
X168093289Y-119570303D01*
X168093289Y-119379784D01*
X168045659Y-119284524D01*
X167998029Y-119236894D01*
X167902769Y-119189264D01*
X167093061Y-119189264D01*
X167426470Y-118284296D02*
X168093289Y-118284296D01*
X167045431Y-118522445D02*
X167759879Y-118760595D01*
X167759879Y-118141406D01*
X150709256Y-118237078D02*
X151518964Y-118237078D01*
X151614224Y-118189448D01*
X151661854Y-118141818D01*
X151709484Y-118046558D01*
X151709484Y-117856039D01*
X151661854Y-117760779D01*
X151614224Y-117713149D01*
X151518964Y-117665519D01*
X150709256Y-117665519D01*
X150804515Y-117236850D02*
X150756886Y-117189220D01*
X150709256Y-117093960D01*
X150709256Y-116855811D01*
X150756886Y-116760551D01*
X150804515Y-116712921D01*
X150899775Y-116665291D01*
X150995035Y-116665291D01*
X151137925Y-116712921D01*
X151709484Y-117284480D01*
X151709484Y-116665291D01*
X166838333Y-126214142D02*
X166790714Y-126261761D01*
X166647857Y-126309380D01*
X166552619Y-126309380D01*
X166409761Y-126261761D01*
X166314523Y-126166523D01*
X166266904Y-126071285D01*
X166219285Y-125880809D01*
X166219285Y-125737952D01*
X166266904Y-125547476D01*
X166314523Y-125452238D01*
X166409761Y-125357000D01*
X166552619Y-125309380D01*
X166647857Y-125309380D01*
X166790714Y-125357000D01*
X166838333Y-125404619D01*
X167171666Y-125309380D02*
X167790714Y-125309380D01*
X167457380Y-125690333D01*
X167600238Y-125690333D01*
X167695476Y-125737952D01*
X167743095Y-125785571D01*
X167790714Y-125880809D01*
X167790714Y-126118904D01*
X167743095Y-126214142D01*
X167695476Y-126261761D01*
X167600238Y-126309380D01*
X167314523Y-126309380D01*
X167219285Y-126261761D01*
X167171666Y-126214142D01*
X160756333Y-115133380D02*
X160423000Y-114657190D01*
X160184904Y-115133380D02*
X160184904Y-114133380D01*
X160565857Y-114133380D01*
X160661095Y-114181000D01*
X160708714Y-114228619D01*
X160756333Y-114323857D01*
X160756333Y-114466714D01*
X160708714Y-114561952D01*
X160661095Y-114609571D01*
X160565857Y-114657190D01*
X160184904Y-114657190D01*
X161089666Y-114133380D02*
X161708714Y-114133380D01*
X161375380Y-114514333D01*
X161518238Y-114514333D01*
X161613476Y-114561952D01*
X161661095Y-114609571D01*
X161708714Y-114704809D01*
X161708714Y-114942904D01*
X161661095Y-115038142D01*
X161613476Y-115085761D01*
X161518238Y-115133380D01*
X161232523Y-115133380D01*
X161137285Y-115085761D01*
X161089666Y-115038142D01*
X166822380Y-124626666D02*
X166346190Y-124960000D01*
X166822380Y-125198095D02*
X165822380Y-125198095D01*
X165822380Y-124817142D01*
X165870000Y-124721904D01*
X165917619Y-124674285D01*
X166012857Y-124626666D01*
X166155714Y-124626666D01*
X166250952Y-124674285D01*
X166298571Y-124721904D01*
X166346190Y-124817142D01*
X166346190Y-125198095D01*
X165822380Y-124293333D02*
X165822380Y-123626666D01*
X166822380Y-124055238D01*
X159583380Y-116371666D02*
X159107190Y-116705000D01*
X159583380Y-116943095D02*
X158583380Y-116943095D01*
X158583380Y-116562142D01*
X158631000Y-116466904D01*
X158678619Y-116419285D01*
X158773857Y-116371666D01*
X158916714Y-116371666D01*
X159011952Y-116419285D01*
X159059571Y-116466904D01*
X159107190Y-116562142D01*
X159107190Y-116943095D01*
X158583380Y-115466904D02*
X158583380Y-115943095D01*
X159059571Y-115990714D01*
X159011952Y-115943095D01*
X158964333Y-115847857D01*
X158964333Y-115609761D01*
X159011952Y-115514523D01*
X159059571Y-115466904D01*
X159154809Y-115419285D01*
X159392904Y-115419285D01*
X159488142Y-115466904D01*
X159535761Y-115514523D01*
X159583380Y-115609761D01*
X159583380Y-115847857D01*
X159535761Y-115943095D01*
X159488142Y-115990714D01*
X181300380Y-119895857D02*
X180824190Y-120229190D01*
X181300380Y-120467285D02*
X180300380Y-120467285D01*
X180300380Y-120086333D01*
X180348000Y-119991095D01*
X180395619Y-119943476D01*
X180490857Y-119895857D01*
X180633714Y-119895857D01*
X180728952Y-119943476D01*
X180776571Y-119991095D01*
X180824190Y-120086333D01*
X180824190Y-120467285D01*
X181300380Y-118943476D02*
X181300380Y-119514904D01*
X181300380Y-119229190D02*
X180300380Y-119229190D01*
X180443238Y-119324428D01*
X180538476Y-119419666D01*
X180586095Y-119514904D01*
X180300380Y-118038714D02*
X180300380Y-118514904D01*
X180776571Y-118562523D01*
X180728952Y-118514904D01*
X180681333Y-118419666D01*
X180681333Y-118181571D01*
X180728952Y-118086333D01*
X180776571Y-118038714D01*
X180871809Y-117991095D01*
X181109904Y-117991095D01*
X181205142Y-118038714D01*
X181252761Y-118086333D01*
X181300380Y-118181571D01*
X181300380Y-118419666D01*
X181252761Y-118514904D01*
X181205142Y-118562523D01*
X171409451Y-122174333D02*
X172219159Y-122174333D01*
X172314419Y-122126703D01*
X172362049Y-122079073D01*
X172409679Y-121983813D01*
X172409679Y-121793294D01*
X172362049Y-121698034D01*
X172314419Y-121650404D01*
X172219159Y-121602774D01*
X171409451Y-121602774D01*
X171838120Y-120983585D02*
X171790490Y-121078845D01*
X171742860Y-121126475D01*
X171647600Y-121174105D01*
X171599970Y-121174105D01*
X171504710Y-121126475D01*
X171457081Y-121078845D01*
X171409451Y-120983585D01*
X171409451Y-120793066D01*
X171457081Y-120697806D01*
X171504710Y-120650176D01*
X171599970Y-120602546D01*
X171647600Y-120602546D01*
X171742860Y-120650176D01*
X171790490Y-120697806D01*
X171838120Y-120793066D01*
X171838120Y-120983585D01*
X171885750Y-121078845D01*
X171933380Y-121126475D01*
X172028639Y-121174105D01*
X172219159Y-121174105D01*
X172314419Y-121126475D01*
X172362049Y-121078845D01*
X172409679Y-120983585D01*
X172409679Y-120793066D01*
X172362049Y-120697806D01*
X172314419Y-120650176D01*
X172219159Y-120602546D01*
X172028639Y-120602546D01*
X171933380Y-120650176D01*
X171885750Y-120697806D01*
X171838120Y-120793066D01*
X172440333Y-115292142D02*
X172392714Y-115339761D01*
X172249857Y-115387380D01*
X172154619Y-115387380D01*
X172011761Y-115339761D01*
X171916523Y-115244523D01*
X171868904Y-115149285D01*
X171821285Y-114958809D01*
X171821285Y-114815952D01*
X171868904Y-114625476D01*
X171916523Y-114530238D01*
X172011761Y-114435000D01*
X172154619Y-114387380D01*
X172249857Y-114387380D01*
X172392714Y-114435000D01*
X172440333Y-114482619D01*
X172773666Y-114387380D02*
X173440333Y-114387380D01*
X173011761Y-115387380D01*
X159964380Y-87748714D02*
X158964380Y-87748714D01*
X158964380Y-87367761D01*
X159012000Y-87272523D01*
X159059619Y-87224904D01*
X159154857Y-87177285D01*
X159297714Y-87177285D01*
X159392952Y-87224904D01*
X159440571Y-87272523D01*
X159488190Y-87367761D01*
X159488190Y-87748714D01*
X158964380Y-86558238D02*
X158964380Y-86367761D01*
X159012000Y-86272523D01*
X159107238Y-86177285D01*
X159297714Y-86129666D01*
X159631047Y-86129666D01*
X159821523Y-86177285D01*
X159916761Y-86272523D01*
X159964380Y-86367761D01*
X159964380Y-86558238D01*
X159916761Y-86653476D01*
X159821523Y-86748714D01*
X159631047Y-86796333D01*
X159297714Y-86796333D01*
X159107238Y-86748714D01*
X159012000Y-86653476D01*
X158964380Y-86558238D01*
X158964380Y-85796333D02*
X159964380Y-85558238D01*
X159250095Y-85367761D01*
X159964380Y-85177285D01*
X158964380Y-84939190D01*
X159440571Y-84558238D02*
X159440571Y-84224904D01*
X159964380Y-84082047D02*
X159964380Y-84558238D01*
X158964380Y-84558238D01*
X158964380Y-84082047D01*
X159964380Y-83082047D02*
X159488190Y-83415380D01*
X159964380Y-83653476D02*
X158964380Y-83653476D01*
X158964380Y-83272523D01*
X159012000Y-83177285D01*
X159059619Y-83129666D01*
X159154857Y-83082047D01*
X159297714Y-83082047D01*
X159392952Y-83129666D01*
X159440571Y-83177285D01*
X159488190Y-83272523D01*
X159488190Y-83653476D01*
X159964380Y-82129666D02*
X159964380Y-82701095D01*
X159964380Y-82415380D02*
X158964380Y-82415380D01*
X159107238Y-82510619D01*
X159202476Y-82605857D01*
X159250095Y-82701095D01*
X197572333Y-113260142D02*
X197524714Y-113307761D01*
X197381857Y-113355380D01*
X197286619Y-113355380D01*
X197143761Y-113307761D01*
X197048523Y-113212523D01*
X197000904Y-113117285D01*
X196953285Y-112926809D01*
X196953285Y-112783952D01*
X197000904Y-112593476D01*
X197048523Y-112498238D01*
X197143761Y-112403000D01*
X197286619Y-112355380D01*
X197381857Y-112355380D01*
X197524714Y-112403000D01*
X197572333Y-112450619D01*
X197953285Y-112450619D02*
X198000904Y-112403000D01*
X198096142Y-112355380D01*
X198334238Y-112355380D01*
X198429476Y-112403000D01*
X198477095Y-112450619D01*
X198524714Y-112545857D01*
X198524714Y-112641095D01*
X198477095Y-112783952D01*
X197905666Y-113355380D01*
X198524714Y-113355380D01*
X196951333Y-126309380D02*
X196618000Y-125833190D01*
X196379904Y-126309380D02*
X196379904Y-125309380D01*
X196760857Y-125309380D01*
X196856095Y-125357000D01*
X196903714Y-125404619D01*
X196951333Y-125499857D01*
X196951333Y-125642714D01*
X196903714Y-125737952D01*
X196856095Y-125785571D01*
X196760857Y-125833190D01*
X196379904Y-125833190D01*
X197332285Y-125404619D02*
X197379904Y-125357000D01*
X197475142Y-125309380D01*
X197713238Y-125309380D01*
X197808476Y-125357000D01*
X197856095Y-125404619D01*
X197903714Y-125499857D01*
X197903714Y-125595095D01*
X197856095Y-125737952D01*
X197284666Y-126309380D01*
X197903714Y-126309380D01*
X193634451Y-122301333D02*
X194444159Y-122301333D01*
X194539419Y-122253703D01*
X194587049Y-122206073D01*
X194634679Y-122110813D01*
X194634679Y-121920294D01*
X194587049Y-121825034D01*
X194539419Y-121777404D01*
X194444159Y-121729774D01*
X193634451Y-121729774D01*
X193634451Y-121348735D02*
X193634451Y-120729546D01*
X194015490Y-121062955D01*
X194015490Y-120920066D01*
X194063120Y-120824806D01*
X194110750Y-120777176D01*
X194206009Y-120729546D01*
X194444159Y-120729546D01*
X194539419Y-120777176D01*
X194587049Y-120824806D01*
X194634679Y-120920066D01*
X194634679Y-121205845D01*
X194587049Y-121301105D01*
X194539419Y-121348735D01*
X203906380Y-119546666D02*
X203430190Y-119880000D01*
X203906380Y-120118095D02*
X202906380Y-120118095D01*
X202906380Y-119737142D01*
X202954000Y-119641904D01*
X203001619Y-119594285D01*
X203096857Y-119546666D01*
X203239714Y-119546666D01*
X203334952Y-119594285D01*
X203382571Y-119641904D01*
X203430190Y-119737142D01*
X203430190Y-120118095D01*
X202906380Y-118689523D02*
X202906380Y-118880000D01*
X202954000Y-118975238D01*
X203001619Y-119022857D01*
X203144476Y-119118095D01*
X203334952Y-119165714D01*
X203715904Y-119165714D01*
X203811142Y-119118095D01*
X203858761Y-119070476D01*
X203906380Y-118975238D01*
X203906380Y-118784761D01*
X203858761Y-118689523D01*
X203811142Y-118641904D01*
X203715904Y-118594285D01*
X203477809Y-118594285D01*
X203382571Y-118641904D01*
X203334952Y-118689523D01*
X203287333Y-118784761D01*
X203287333Y-118975238D01*
X203334952Y-119070476D01*
X203382571Y-119118095D01*
X203477809Y-119165714D01*
X195754666Y-110450380D02*
X195754666Y-111164666D01*
X195707047Y-111307523D01*
X195611809Y-111402761D01*
X195468952Y-111450380D01*
X195373714Y-111450380D01*
X196183238Y-110545619D02*
X196230857Y-110498000D01*
X196326095Y-110450380D01*
X196564190Y-110450380D01*
X196659428Y-110498000D01*
X196707047Y-110545619D01*
X196754666Y-110640857D01*
X196754666Y-110736095D01*
X196707047Y-110878952D01*
X196135619Y-111450380D01*
X196754666Y-111450380D01*
M02*
