G04 #@! TF.GenerationSoftware,KiCad,Pcbnew,5.1.5+dfsg1-2build2*
G04 #@! TF.CreationDate,2021-08-10T13:41:00-07:00*
G04 #@! TF.ProjectId,Telemetry Board Shrink,54656c65-6d65-4747-9279-20426f617264,rev?*
G04 #@! TF.SameCoordinates,Original*
G04 #@! TF.FileFunction,Copper,L2,Bot*
G04 #@! TF.FilePolarity,Positive*
%FSLAX46Y46*%
G04 Gerber Fmt 4.6, Leading zero omitted, Abs format (unit mm)*
G04 Created by KiCad (PCBNEW 5.1.5+dfsg1-2build2) date 2021-08-10 13:41:00*
%MOMM*%
%LPD*%
G04 APERTURE LIST*
%ADD10C,1.600000*%
%ADD11R,1.600000X1.600000*%
%ADD12C,1.700000*%
%ADD13R,1.700000X1.700000*%
%ADD14O,1.200000X1.750000*%
%ADD15C,0.100000*%
%ADD16O,1.750000X1.200000*%
%ADD17C,0.500000*%
%ADD18C,0.800000*%
%ADD19C,0.152400*%
%ADD20C,0.254000*%
G04 APERTURE END LIST*
D10*
X187198000Y-108077000D03*
X189738000Y-108077000D03*
X192278000Y-108077000D03*
X194818000Y-108077000D03*
X184658000Y-108077000D03*
X182118000Y-108077000D03*
X179578000Y-108077000D03*
X197358000Y-108077000D03*
X199898000Y-108077000D03*
X202438000Y-108077000D03*
X204978000Y-108077000D03*
X204978000Y-92837000D03*
X202438000Y-92837000D03*
X199898000Y-92837000D03*
X197358000Y-92837000D03*
X194818000Y-92837000D03*
X192278000Y-92837000D03*
X189738000Y-92837000D03*
X187198000Y-92837000D03*
X184658000Y-92837000D03*
X182118000Y-92837000D03*
X177038000Y-108077000D03*
X174498000Y-108077000D03*
X171958000Y-108077000D03*
X169418000Y-108077000D03*
X166878000Y-108077000D03*
X164338000Y-108077000D03*
X161798000Y-108077000D03*
X159258000Y-108077000D03*
X156718000Y-108077000D03*
X154178000Y-108077000D03*
X151638000Y-108077000D03*
X149098000Y-108077000D03*
D11*
X146558000Y-108077000D03*
D10*
X179578000Y-92837000D03*
X177038000Y-92837000D03*
X174498000Y-92837000D03*
X171958000Y-92837000D03*
X169418000Y-92837000D03*
X166878000Y-92837000D03*
X164338000Y-92837000D03*
X161798000Y-92837000D03*
X159258000Y-92837000D03*
X156718000Y-92837000D03*
X154178000Y-92837000D03*
X151638000Y-92837000D03*
X149098000Y-92837000D03*
X146558000Y-92837000D03*
D12*
X191419000Y-75528000D03*
X191419000Y-78068000D03*
X191419000Y-80608000D03*
X191419000Y-83148000D03*
X191419000Y-85688000D03*
X183919000Y-85688000D03*
X183919000Y-83148000D03*
X183919000Y-80608000D03*
X183919000Y-78068000D03*
D13*
X183919000Y-75528000D03*
D14*
X175483000Y-130302000D03*
X177483000Y-130302000D03*
X179483000Y-130302000D03*
G04 #@! TA.AperFunction,ComponentPad*
D15*
G36*
X181857505Y-129428204D02*
G01*
X181881773Y-129431804D01*
X181905572Y-129437765D01*
X181928671Y-129446030D01*
X181950850Y-129456520D01*
X181971893Y-129469132D01*
X181991599Y-129483747D01*
X182009777Y-129500223D01*
X182026253Y-129518401D01*
X182040868Y-129538107D01*
X182053480Y-129559150D01*
X182063970Y-129581329D01*
X182072235Y-129604428D01*
X182078196Y-129628227D01*
X182081796Y-129652495D01*
X182083000Y-129676999D01*
X182083000Y-130927001D01*
X182081796Y-130951505D01*
X182078196Y-130975773D01*
X182072235Y-130999572D01*
X182063970Y-131022671D01*
X182053480Y-131044850D01*
X182040868Y-131065893D01*
X182026253Y-131085599D01*
X182009777Y-131103777D01*
X181991599Y-131120253D01*
X181971893Y-131134868D01*
X181950850Y-131147480D01*
X181928671Y-131157970D01*
X181905572Y-131166235D01*
X181881773Y-131172196D01*
X181857505Y-131175796D01*
X181833001Y-131177000D01*
X181132999Y-131177000D01*
X181108495Y-131175796D01*
X181084227Y-131172196D01*
X181060428Y-131166235D01*
X181037329Y-131157970D01*
X181015150Y-131147480D01*
X180994107Y-131134868D01*
X180974401Y-131120253D01*
X180956223Y-131103777D01*
X180939747Y-131085599D01*
X180925132Y-131065893D01*
X180912520Y-131044850D01*
X180902030Y-131022671D01*
X180893765Y-130999572D01*
X180887804Y-130975773D01*
X180884204Y-130951505D01*
X180883000Y-130927001D01*
X180883000Y-129676999D01*
X180884204Y-129652495D01*
X180887804Y-129628227D01*
X180893765Y-129604428D01*
X180902030Y-129581329D01*
X180912520Y-129559150D01*
X180925132Y-129538107D01*
X180939747Y-129518401D01*
X180956223Y-129500223D01*
X180974401Y-129483747D01*
X180994107Y-129469132D01*
X181015150Y-129456520D01*
X181037329Y-129446030D01*
X181060428Y-129437765D01*
X181084227Y-129431804D01*
X181108495Y-129428204D01*
X181132999Y-129427000D01*
X181833001Y-129427000D01*
X181857505Y-129428204D01*
G37*
G04 #@! TD.AperFunction*
D14*
X136875000Y-130302000D03*
X138875000Y-130302000D03*
X140875000Y-130302000D03*
G04 #@! TA.AperFunction,ComponentPad*
D15*
G36*
X143249505Y-129428204D02*
G01*
X143273773Y-129431804D01*
X143297572Y-129437765D01*
X143320671Y-129446030D01*
X143342850Y-129456520D01*
X143363893Y-129469132D01*
X143383599Y-129483747D01*
X143401777Y-129500223D01*
X143418253Y-129518401D01*
X143432868Y-129538107D01*
X143445480Y-129559150D01*
X143455970Y-129581329D01*
X143464235Y-129604428D01*
X143470196Y-129628227D01*
X143473796Y-129652495D01*
X143475000Y-129676999D01*
X143475000Y-130927001D01*
X143473796Y-130951505D01*
X143470196Y-130975773D01*
X143464235Y-130999572D01*
X143455970Y-131022671D01*
X143445480Y-131044850D01*
X143432868Y-131065893D01*
X143418253Y-131085599D01*
X143401777Y-131103777D01*
X143383599Y-131120253D01*
X143363893Y-131134868D01*
X143342850Y-131147480D01*
X143320671Y-131157970D01*
X143297572Y-131166235D01*
X143273773Y-131172196D01*
X143249505Y-131175796D01*
X143225001Y-131177000D01*
X142524999Y-131177000D01*
X142500495Y-131175796D01*
X142476227Y-131172196D01*
X142452428Y-131166235D01*
X142429329Y-131157970D01*
X142407150Y-131147480D01*
X142386107Y-131134868D01*
X142366401Y-131120253D01*
X142348223Y-131103777D01*
X142331747Y-131085599D01*
X142317132Y-131065893D01*
X142304520Y-131044850D01*
X142294030Y-131022671D01*
X142285765Y-130999572D01*
X142279804Y-130975773D01*
X142276204Y-130951505D01*
X142275000Y-130927001D01*
X142275000Y-129676999D01*
X142276204Y-129652495D01*
X142279804Y-129628227D01*
X142285765Y-129604428D01*
X142294030Y-129581329D01*
X142304520Y-129559150D01*
X142317132Y-129538107D01*
X142331747Y-129518401D01*
X142348223Y-129500223D01*
X142366401Y-129483747D01*
X142386107Y-129469132D01*
X142407150Y-129456520D01*
X142429329Y-129446030D01*
X142452428Y-129437765D01*
X142476227Y-129431804D01*
X142500495Y-129428204D01*
X142524999Y-129427000D01*
X143225001Y-129427000D01*
X143249505Y-129428204D01*
G37*
G04 #@! TD.AperFunction*
D14*
X197454000Y-130302000D03*
X199454000Y-130302000D03*
X201454000Y-130302000D03*
G04 #@! TA.AperFunction,ComponentPad*
D15*
G36*
X203828505Y-129428204D02*
G01*
X203852773Y-129431804D01*
X203876572Y-129437765D01*
X203899671Y-129446030D01*
X203921850Y-129456520D01*
X203942893Y-129469132D01*
X203962599Y-129483747D01*
X203980777Y-129500223D01*
X203997253Y-129518401D01*
X204011868Y-129538107D01*
X204024480Y-129559150D01*
X204034970Y-129581329D01*
X204043235Y-129604428D01*
X204049196Y-129628227D01*
X204052796Y-129652495D01*
X204054000Y-129676999D01*
X204054000Y-130927001D01*
X204052796Y-130951505D01*
X204049196Y-130975773D01*
X204043235Y-130999572D01*
X204034970Y-131022671D01*
X204024480Y-131044850D01*
X204011868Y-131065893D01*
X203997253Y-131085599D01*
X203980777Y-131103777D01*
X203962599Y-131120253D01*
X203942893Y-131134868D01*
X203921850Y-131147480D01*
X203899671Y-131157970D01*
X203876572Y-131166235D01*
X203852773Y-131172196D01*
X203828505Y-131175796D01*
X203804001Y-131177000D01*
X203103999Y-131177000D01*
X203079495Y-131175796D01*
X203055227Y-131172196D01*
X203031428Y-131166235D01*
X203008329Y-131157970D01*
X202986150Y-131147480D01*
X202965107Y-131134868D01*
X202945401Y-131120253D01*
X202927223Y-131103777D01*
X202910747Y-131085599D01*
X202896132Y-131065893D01*
X202883520Y-131044850D01*
X202873030Y-131022671D01*
X202864765Y-130999572D01*
X202858804Y-130975773D01*
X202855204Y-130951505D01*
X202854000Y-130927001D01*
X202854000Y-129676999D01*
X202855204Y-129652495D01*
X202858804Y-129628227D01*
X202864765Y-129604428D01*
X202873030Y-129581329D01*
X202883520Y-129559150D01*
X202896132Y-129538107D01*
X202910747Y-129518401D01*
X202927223Y-129500223D01*
X202945401Y-129483747D01*
X202965107Y-129469132D01*
X202986150Y-129456520D01*
X203008329Y-129446030D01*
X203031428Y-129437765D01*
X203055227Y-129431804D01*
X203079495Y-129428204D01*
X203103999Y-129427000D01*
X203804001Y-129427000D01*
X203828505Y-129428204D01*
G37*
G04 #@! TD.AperFunction*
D14*
X157703000Y-130175000D03*
X159703000Y-130175000D03*
X161703000Y-130175000D03*
G04 #@! TA.AperFunction,ComponentPad*
D15*
G36*
X164077505Y-129301204D02*
G01*
X164101773Y-129304804D01*
X164125572Y-129310765D01*
X164148671Y-129319030D01*
X164170850Y-129329520D01*
X164191893Y-129342132D01*
X164211599Y-129356747D01*
X164229777Y-129373223D01*
X164246253Y-129391401D01*
X164260868Y-129411107D01*
X164273480Y-129432150D01*
X164283970Y-129454329D01*
X164292235Y-129477428D01*
X164298196Y-129501227D01*
X164301796Y-129525495D01*
X164303000Y-129549999D01*
X164303000Y-130800001D01*
X164301796Y-130824505D01*
X164298196Y-130848773D01*
X164292235Y-130872572D01*
X164283970Y-130895671D01*
X164273480Y-130917850D01*
X164260868Y-130938893D01*
X164246253Y-130958599D01*
X164229777Y-130976777D01*
X164211599Y-130993253D01*
X164191893Y-131007868D01*
X164170850Y-131020480D01*
X164148671Y-131030970D01*
X164125572Y-131039235D01*
X164101773Y-131045196D01*
X164077505Y-131048796D01*
X164053001Y-131050000D01*
X163352999Y-131050000D01*
X163328495Y-131048796D01*
X163304227Y-131045196D01*
X163280428Y-131039235D01*
X163257329Y-131030970D01*
X163235150Y-131020480D01*
X163214107Y-131007868D01*
X163194401Y-130993253D01*
X163176223Y-130976777D01*
X163159747Y-130958599D01*
X163145132Y-130938893D01*
X163132520Y-130917850D01*
X163122030Y-130895671D01*
X163113765Y-130872572D01*
X163107804Y-130848773D01*
X163104204Y-130824505D01*
X163103000Y-130800001D01*
X163103000Y-129549999D01*
X163104204Y-129525495D01*
X163107804Y-129501227D01*
X163113765Y-129477428D01*
X163122030Y-129454329D01*
X163132520Y-129432150D01*
X163145132Y-129411107D01*
X163159747Y-129391401D01*
X163176223Y-129373223D01*
X163194401Y-129356747D01*
X163214107Y-129342132D01*
X163235150Y-129329520D01*
X163257329Y-129319030D01*
X163280428Y-129310765D01*
X163304227Y-129304804D01*
X163328495Y-129301204D01*
X163352999Y-129300000D01*
X164053001Y-129300000D01*
X164077505Y-129301204D01*
G37*
G04 #@! TD.AperFunction*
D16*
X167259000Y-74391000D03*
X167259000Y-76391000D03*
X167259000Y-78391000D03*
G04 #@! TA.AperFunction,ComponentPad*
D15*
G36*
X167908505Y-79792204D02*
G01*
X167932773Y-79795804D01*
X167956572Y-79801765D01*
X167979671Y-79810030D01*
X168001850Y-79820520D01*
X168022893Y-79833132D01*
X168042599Y-79847747D01*
X168060777Y-79864223D01*
X168077253Y-79882401D01*
X168091868Y-79902107D01*
X168104480Y-79923150D01*
X168114970Y-79945329D01*
X168123235Y-79968428D01*
X168129196Y-79992227D01*
X168132796Y-80016495D01*
X168134000Y-80040999D01*
X168134000Y-80741001D01*
X168132796Y-80765505D01*
X168129196Y-80789773D01*
X168123235Y-80813572D01*
X168114970Y-80836671D01*
X168104480Y-80858850D01*
X168091868Y-80879893D01*
X168077253Y-80899599D01*
X168060777Y-80917777D01*
X168042599Y-80934253D01*
X168022893Y-80948868D01*
X168001850Y-80961480D01*
X167979671Y-80971970D01*
X167956572Y-80980235D01*
X167932773Y-80986196D01*
X167908505Y-80989796D01*
X167884001Y-80991000D01*
X166633999Y-80991000D01*
X166609495Y-80989796D01*
X166585227Y-80986196D01*
X166561428Y-80980235D01*
X166538329Y-80971970D01*
X166516150Y-80961480D01*
X166495107Y-80948868D01*
X166475401Y-80934253D01*
X166457223Y-80917777D01*
X166440747Y-80899599D01*
X166426132Y-80879893D01*
X166413520Y-80858850D01*
X166403030Y-80836671D01*
X166394765Y-80813572D01*
X166388804Y-80789773D01*
X166385204Y-80765505D01*
X166384000Y-80741001D01*
X166384000Y-80040999D01*
X166385204Y-80016495D01*
X166388804Y-79992227D01*
X166394765Y-79968428D01*
X166403030Y-79945329D01*
X166413520Y-79923150D01*
X166426132Y-79902107D01*
X166440747Y-79882401D01*
X166457223Y-79864223D01*
X166475401Y-79847747D01*
X166495107Y-79833132D01*
X166516150Y-79820520D01*
X166538329Y-79810030D01*
X166561428Y-79801765D01*
X166585227Y-79795804D01*
X166609495Y-79792204D01*
X166633999Y-79791000D01*
X167884001Y-79791000D01*
X167908505Y-79792204D01*
G37*
G04 #@! TD.AperFunction*
D16*
X154686000Y-85693000D03*
G04 #@! TA.AperFunction,ComponentPad*
D15*
G36*
X155335505Y-83094204D02*
G01*
X155359773Y-83097804D01*
X155383572Y-83103765D01*
X155406671Y-83112030D01*
X155428850Y-83122520D01*
X155449893Y-83135132D01*
X155469599Y-83149747D01*
X155487777Y-83166223D01*
X155504253Y-83184401D01*
X155518868Y-83204107D01*
X155531480Y-83225150D01*
X155541970Y-83247329D01*
X155550235Y-83270428D01*
X155556196Y-83294227D01*
X155559796Y-83318495D01*
X155561000Y-83342999D01*
X155561000Y-84043001D01*
X155559796Y-84067505D01*
X155556196Y-84091773D01*
X155550235Y-84115572D01*
X155541970Y-84138671D01*
X155531480Y-84160850D01*
X155518868Y-84181893D01*
X155504253Y-84201599D01*
X155487777Y-84219777D01*
X155469599Y-84236253D01*
X155449893Y-84250868D01*
X155428850Y-84263480D01*
X155406671Y-84273970D01*
X155383572Y-84282235D01*
X155359773Y-84288196D01*
X155335505Y-84291796D01*
X155311001Y-84293000D01*
X154060999Y-84293000D01*
X154036495Y-84291796D01*
X154012227Y-84288196D01*
X153988428Y-84282235D01*
X153965329Y-84273970D01*
X153943150Y-84263480D01*
X153922107Y-84250868D01*
X153902401Y-84236253D01*
X153884223Y-84219777D01*
X153867747Y-84201599D01*
X153853132Y-84181893D01*
X153840520Y-84160850D01*
X153830030Y-84138671D01*
X153821765Y-84115572D01*
X153815804Y-84091773D01*
X153812204Y-84067505D01*
X153811000Y-84043001D01*
X153811000Y-83342999D01*
X153812204Y-83318495D01*
X153815804Y-83294227D01*
X153821765Y-83270428D01*
X153830030Y-83247329D01*
X153840520Y-83225150D01*
X153853132Y-83204107D01*
X153867747Y-83184401D01*
X153884223Y-83166223D01*
X153902401Y-83149747D01*
X153922107Y-83135132D01*
X153943150Y-83122520D01*
X153965329Y-83112030D01*
X153988428Y-83103765D01*
X154012227Y-83097804D01*
X154036495Y-83094204D01*
X154060999Y-83093000D01*
X155311001Y-83093000D01*
X155335505Y-83094204D01*
G37*
G04 #@! TD.AperFunction*
D14*
X192373000Y-111887000D03*
G04 #@! TA.AperFunction,ComponentPad*
D15*
G36*
X190747505Y-111013204D02*
G01*
X190771773Y-111016804D01*
X190795572Y-111022765D01*
X190818671Y-111031030D01*
X190840850Y-111041520D01*
X190861893Y-111054132D01*
X190881599Y-111068747D01*
X190899777Y-111085223D01*
X190916253Y-111103401D01*
X190930868Y-111123107D01*
X190943480Y-111144150D01*
X190953970Y-111166329D01*
X190962235Y-111189428D01*
X190968196Y-111213227D01*
X190971796Y-111237495D01*
X190973000Y-111261999D01*
X190973000Y-112512001D01*
X190971796Y-112536505D01*
X190968196Y-112560773D01*
X190962235Y-112584572D01*
X190953970Y-112607671D01*
X190943480Y-112629850D01*
X190930868Y-112650893D01*
X190916253Y-112670599D01*
X190899777Y-112688777D01*
X190881599Y-112705253D01*
X190861893Y-112719868D01*
X190840850Y-112732480D01*
X190818671Y-112742970D01*
X190795572Y-112751235D01*
X190771773Y-112757196D01*
X190747505Y-112760796D01*
X190723001Y-112762000D01*
X190022999Y-112762000D01*
X189998495Y-112760796D01*
X189974227Y-112757196D01*
X189950428Y-112751235D01*
X189927329Y-112742970D01*
X189905150Y-112732480D01*
X189884107Y-112719868D01*
X189864401Y-112705253D01*
X189846223Y-112688777D01*
X189829747Y-112670599D01*
X189815132Y-112650893D01*
X189802520Y-112629850D01*
X189792030Y-112607671D01*
X189783765Y-112584572D01*
X189777804Y-112560773D01*
X189774204Y-112536505D01*
X189773000Y-112512001D01*
X189773000Y-111261999D01*
X189774204Y-111237495D01*
X189777804Y-111213227D01*
X189783765Y-111189428D01*
X189792030Y-111166329D01*
X189802520Y-111144150D01*
X189815132Y-111123107D01*
X189829747Y-111103401D01*
X189846223Y-111085223D01*
X189864401Y-111068747D01*
X189884107Y-111054132D01*
X189905150Y-111041520D01*
X189927329Y-111031030D01*
X189950428Y-111022765D01*
X189974227Y-111016804D01*
X189998495Y-111013204D01*
X190022999Y-111012000D01*
X190723001Y-111012000D01*
X190747505Y-111013204D01*
G37*
G04 #@! TD.AperFunction*
D17*
X165227000Y-71247000D03*
D18*
X146558000Y-111760000D03*
X200025000Y-114554000D03*
X201676000Y-83566000D03*
X201676000Y-81026000D03*
X201676000Y-78486000D03*
X201549000Y-75946000D03*
X147066000Y-72263000D03*
X172720000Y-81280000D03*
X152654000Y-78359000D03*
D17*
X137922000Y-115062000D03*
X145020000Y-113933000D03*
X157480000Y-114808000D03*
X177419000Y-114681000D03*
X185039000Y-113919000D03*
X207377000Y-113425000D03*
X164845992Y-113538000D03*
D18*
X168148000Y-115697000D03*
X208026000Y-105664000D03*
X201803000Y-86106000D03*
D17*
X164084000Y-124714000D03*
X166765000Y-125081000D03*
X207010000Y-124968000D03*
X209804000Y-125476000D03*
X144272000Y-124968000D03*
X146558000Y-125222000D03*
X184404000Y-125095000D03*
X187388500Y-125412500D03*
X160274000Y-95377000D03*
X166471890Y-102387110D03*
X160274000Y-93980000D03*
X166721889Y-103788111D03*
X162941000Y-95250000D03*
X169545000Y-101092000D03*
X162941000Y-93853000D03*
X168656000Y-100203000D03*
X179959006Y-97536000D03*
X181229000Y-97536000D03*
X185420000Y-97536000D03*
X186817000Y-97536000D03*
D19*
X161703000Y-127095000D02*
X164084000Y-124714000D01*
X161703000Y-130175000D02*
X161703000Y-127095000D01*
X164451000Y-125081000D02*
X164084000Y-124714000D01*
X166765000Y-125081000D02*
X164451000Y-125081000D01*
X209296000Y-124968000D02*
X209804000Y-125476000D01*
X201454000Y-129274600D02*
X205760600Y-124968000D01*
X205760600Y-124968000D02*
X207010000Y-124968000D01*
X201454000Y-130302000D02*
X201454000Y-129274600D01*
X207010000Y-124968000D02*
X209296000Y-124968000D01*
X140875000Y-129274600D02*
X144272000Y-125877600D01*
X140875000Y-130302000D02*
X140875000Y-129274600D01*
X144272000Y-125877600D02*
X144272000Y-124968000D01*
X144272000Y-124968000D02*
X146304000Y-124968000D01*
X146304000Y-124968000D02*
X146558000Y-125222000D01*
X179483000Y-130016000D02*
X179483000Y-130302000D01*
X184404000Y-125095000D02*
X179483000Y-130016000D01*
X184404000Y-125095000D02*
X187071000Y-125095000D01*
X187071000Y-125095000D02*
X187388500Y-125412500D01*
X187388500Y-125412500D02*
X187452000Y-125476000D01*
X160274000Y-94996000D02*
X160274000Y-95377000D01*
X166471890Y-103538112D02*
X166471890Y-102387110D01*
X160274000Y-94361000D02*
X160274000Y-94996000D01*
X166721889Y-103788111D02*
X166471890Y-103538112D01*
X160274000Y-93980000D02*
X160274000Y-94996000D01*
X162941000Y-93853000D02*
X162941000Y-95250000D01*
X168656000Y-100203000D02*
X169545000Y-101092000D01*
X181229000Y-97536000D02*
X179959006Y-97536000D01*
X186817000Y-97536000D02*
X185420000Y-97536000D01*
D20*
G36*
X212391000Y-68651747D02*
G01*
X212391001Y-121666000D01*
X131974000Y-121666000D01*
X131974000Y-111261999D01*
X189394176Y-111261999D01*
X189394176Y-112512001D01*
X189406259Y-112634678D01*
X189442042Y-112752641D01*
X189500152Y-112861356D01*
X189578354Y-112956646D01*
X189673644Y-113034848D01*
X189782359Y-113092958D01*
X189900322Y-113128741D01*
X190022999Y-113140824D01*
X190723001Y-113140824D01*
X190845678Y-113128741D01*
X190963641Y-113092958D01*
X191072356Y-113034848D01*
X191167646Y-112956646D01*
X191245848Y-112861356D01*
X191293842Y-112771566D01*
X191416693Y-112953725D01*
X191589526Y-113125078D01*
X191792467Y-113259421D01*
X192017718Y-113351591D01*
X192055391Y-113355462D01*
X192246000Y-113230731D01*
X192246000Y-112014000D01*
X192500000Y-112014000D01*
X192500000Y-113230731D01*
X192690609Y-113355462D01*
X192728282Y-113351591D01*
X192953533Y-113259421D01*
X193156474Y-113125078D01*
X193329307Y-112953725D01*
X193465390Y-112751946D01*
X193559493Y-112527496D01*
X193608000Y-112289000D01*
X193608000Y-112014000D01*
X192500000Y-112014000D01*
X192246000Y-112014000D01*
X192226000Y-112014000D01*
X192226000Y-111760000D01*
X192246000Y-111760000D01*
X192246000Y-110543269D01*
X192500000Y-110543269D01*
X192500000Y-111760000D01*
X193608000Y-111760000D01*
X193608000Y-111485000D01*
X193559493Y-111246504D01*
X193465390Y-111022054D01*
X193329307Y-110820275D01*
X193156474Y-110648922D01*
X192953533Y-110514579D01*
X192728282Y-110422409D01*
X192690609Y-110418538D01*
X192500000Y-110543269D01*
X192246000Y-110543269D01*
X192055391Y-110418538D01*
X192017718Y-110422409D01*
X191792467Y-110514579D01*
X191589526Y-110648922D01*
X191416693Y-110820275D01*
X191293842Y-111002434D01*
X191245848Y-110912644D01*
X191167646Y-110817354D01*
X191072356Y-110739152D01*
X190963641Y-110681042D01*
X190845678Y-110645259D01*
X190723001Y-110633176D01*
X190022999Y-110633176D01*
X189900322Y-110645259D01*
X189782359Y-110681042D01*
X189673644Y-110739152D01*
X189578354Y-110817354D01*
X189500152Y-110912644D01*
X189442042Y-111021359D01*
X189406259Y-111139322D01*
X189394176Y-111261999D01*
X131974000Y-111261999D01*
X131974000Y-108877000D01*
X145119928Y-108877000D01*
X145132188Y-109001482D01*
X145168498Y-109121180D01*
X145227463Y-109231494D01*
X145306815Y-109328185D01*
X145403506Y-109407537D01*
X145513820Y-109466502D01*
X145633518Y-109502812D01*
X145758000Y-109515072D01*
X146272250Y-109512000D01*
X146431000Y-109353250D01*
X146431000Y-108204000D01*
X145281750Y-108204000D01*
X145123000Y-108362750D01*
X145119928Y-108877000D01*
X131974000Y-108877000D01*
X131974000Y-107277000D01*
X145119928Y-107277000D01*
X145123000Y-107791250D01*
X145281750Y-107950000D01*
X146431000Y-107950000D01*
X146431000Y-106800750D01*
X146685000Y-106800750D01*
X146685000Y-107950000D01*
X146705000Y-107950000D01*
X146705000Y-108204000D01*
X146685000Y-108204000D01*
X146685000Y-109353250D01*
X146843750Y-109512000D01*
X147358000Y-109515072D01*
X147482482Y-109502812D01*
X147602180Y-109466502D01*
X147712494Y-109407537D01*
X147809185Y-109328185D01*
X147888537Y-109231494D01*
X147947502Y-109121180D01*
X147983812Y-109001482D01*
X147996072Y-108877000D01*
X147993741Y-108486732D01*
X148054956Y-108634519D01*
X148183764Y-108827294D01*
X148347706Y-108991236D01*
X148540481Y-109120044D01*
X148754682Y-109208769D01*
X148982076Y-109254000D01*
X149213924Y-109254000D01*
X149441318Y-109208769D01*
X149655519Y-109120044D01*
X149848294Y-108991236D01*
X150012236Y-108827294D01*
X150141044Y-108634519D01*
X150229769Y-108420318D01*
X150275000Y-108192924D01*
X150275000Y-107961076D01*
X150461000Y-107961076D01*
X150461000Y-108192924D01*
X150506231Y-108420318D01*
X150594956Y-108634519D01*
X150723764Y-108827294D01*
X150887706Y-108991236D01*
X151080481Y-109120044D01*
X151294682Y-109208769D01*
X151522076Y-109254000D01*
X151753924Y-109254000D01*
X151981318Y-109208769D01*
X152195519Y-109120044D01*
X152388294Y-108991236D01*
X152552236Y-108827294D01*
X152681044Y-108634519D01*
X152769769Y-108420318D01*
X152815000Y-108192924D01*
X152815000Y-107961076D01*
X153001000Y-107961076D01*
X153001000Y-108192924D01*
X153046231Y-108420318D01*
X153134956Y-108634519D01*
X153263764Y-108827294D01*
X153427706Y-108991236D01*
X153620481Y-109120044D01*
X153834682Y-109208769D01*
X154062076Y-109254000D01*
X154293924Y-109254000D01*
X154521318Y-109208769D01*
X154735519Y-109120044D01*
X154928294Y-108991236D01*
X155092236Y-108827294D01*
X155221044Y-108634519D01*
X155309769Y-108420318D01*
X155355000Y-108192924D01*
X155355000Y-107961076D01*
X155541000Y-107961076D01*
X155541000Y-108192924D01*
X155586231Y-108420318D01*
X155674956Y-108634519D01*
X155803764Y-108827294D01*
X155967706Y-108991236D01*
X156160481Y-109120044D01*
X156374682Y-109208769D01*
X156602076Y-109254000D01*
X156833924Y-109254000D01*
X157061318Y-109208769D01*
X157275519Y-109120044D01*
X157468294Y-108991236D01*
X157632236Y-108827294D01*
X157761044Y-108634519D01*
X157849769Y-108420318D01*
X157895000Y-108192924D01*
X157895000Y-107961076D01*
X158081000Y-107961076D01*
X158081000Y-108192924D01*
X158126231Y-108420318D01*
X158214956Y-108634519D01*
X158343764Y-108827294D01*
X158507706Y-108991236D01*
X158700481Y-109120044D01*
X158914682Y-109208769D01*
X159142076Y-109254000D01*
X159373924Y-109254000D01*
X159601318Y-109208769D01*
X159815519Y-109120044D01*
X160008294Y-108991236D01*
X160172236Y-108827294D01*
X160301044Y-108634519D01*
X160389769Y-108420318D01*
X160435000Y-108192924D01*
X160435000Y-107961076D01*
X160621000Y-107961076D01*
X160621000Y-108192924D01*
X160666231Y-108420318D01*
X160754956Y-108634519D01*
X160883764Y-108827294D01*
X161047706Y-108991236D01*
X161240481Y-109120044D01*
X161454682Y-109208769D01*
X161682076Y-109254000D01*
X161913924Y-109254000D01*
X162141318Y-109208769D01*
X162355519Y-109120044D01*
X162548294Y-108991236D01*
X162712236Y-108827294D01*
X162841044Y-108634519D01*
X162929769Y-108420318D01*
X162975000Y-108192924D01*
X162975000Y-107961076D01*
X163161000Y-107961076D01*
X163161000Y-108192924D01*
X163206231Y-108420318D01*
X163294956Y-108634519D01*
X163423764Y-108827294D01*
X163587706Y-108991236D01*
X163780481Y-109120044D01*
X163994682Y-109208769D01*
X164222076Y-109254000D01*
X164453924Y-109254000D01*
X164681318Y-109208769D01*
X164895519Y-109120044D01*
X165088294Y-108991236D01*
X165252236Y-108827294D01*
X165381044Y-108634519D01*
X165469769Y-108420318D01*
X165515000Y-108192924D01*
X165515000Y-107961076D01*
X165701000Y-107961076D01*
X165701000Y-108192924D01*
X165746231Y-108420318D01*
X165834956Y-108634519D01*
X165963764Y-108827294D01*
X166127706Y-108991236D01*
X166320481Y-109120044D01*
X166534682Y-109208769D01*
X166762076Y-109254000D01*
X166993924Y-109254000D01*
X167221318Y-109208769D01*
X167435519Y-109120044D01*
X167628294Y-108991236D01*
X167792236Y-108827294D01*
X167921044Y-108634519D01*
X168009769Y-108420318D01*
X168055000Y-108192924D01*
X168055000Y-107961076D01*
X168241000Y-107961076D01*
X168241000Y-108192924D01*
X168286231Y-108420318D01*
X168374956Y-108634519D01*
X168503764Y-108827294D01*
X168667706Y-108991236D01*
X168860481Y-109120044D01*
X169074682Y-109208769D01*
X169302076Y-109254000D01*
X169533924Y-109254000D01*
X169761318Y-109208769D01*
X169975519Y-109120044D01*
X170168294Y-108991236D01*
X170332236Y-108827294D01*
X170461044Y-108634519D01*
X170549769Y-108420318D01*
X170595000Y-108192924D01*
X170595000Y-107961076D01*
X170781000Y-107961076D01*
X170781000Y-108192924D01*
X170826231Y-108420318D01*
X170914956Y-108634519D01*
X171043764Y-108827294D01*
X171207706Y-108991236D01*
X171400481Y-109120044D01*
X171614682Y-109208769D01*
X171842076Y-109254000D01*
X172073924Y-109254000D01*
X172301318Y-109208769D01*
X172515519Y-109120044D01*
X172708294Y-108991236D01*
X172872236Y-108827294D01*
X173001044Y-108634519D01*
X173089769Y-108420318D01*
X173135000Y-108192924D01*
X173135000Y-107961076D01*
X173321000Y-107961076D01*
X173321000Y-108192924D01*
X173366231Y-108420318D01*
X173454956Y-108634519D01*
X173583764Y-108827294D01*
X173747706Y-108991236D01*
X173940481Y-109120044D01*
X174154682Y-109208769D01*
X174382076Y-109254000D01*
X174613924Y-109254000D01*
X174841318Y-109208769D01*
X175055519Y-109120044D01*
X175248294Y-108991236D01*
X175412236Y-108827294D01*
X175541044Y-108634519D01*
X175629769Y-108420318D01*
X175675000Y-108192924D01*
X175675000Y-107961076D01*
X175861000Y-107961076D01*
X175861000Y-108192924D01*
X175906231Y-108420318D01*
X175994956Y-108634519D01*
X176123764Y-108827294D01*
X176287706Y-108991236D01*
X176480481Y-109120044D01*
X176694682Y-109208769D01*
X176922076Y-109254000D01*
X177153924Y-109254000D01*
X177381318Y-109208769D01*
X177595519Y-109120044D01*
X177788294Y-108991236D01*
X177952236Y-108827294D01*
X178081044Y-108634519D01*
X178169769Y-108420318D01*
X178215000Y-108192924D01*
X178215000Y-107961076D01*
X178401000Y-107961076D01*
X178401000Y-108192924D01*
X178446231Y-108420318D01*
X178534956Y-108634519D01*
X178663764Y-108827294D01*
X178827706Y-108991236D01*
X179020481Y-109120044D01*
X179234682Y-109208769D01*
X179462076Y-109254000D01*
X179693924Y-109254000D01*
X179921318Y-109208769D01*
X180135519Y-109120044D01*
X180328294Y-108991236D01*
X180492236Y-108827294D01*
X180621044Y-108634519D01*
X180709769Y-108420318D01*
X180755000Y-108192924D01*
X180755000Y-107961076D01*
X180941000Y-107961076D01*
X180941000Y-108192924D01*
X180986231Y-108420318D01*
X181074956Y-108634519D01*
X181203764Y-108827294D01*
X181367706Y-108991236D01*
X181560481Y-109120044D01*
X181774682Y-109208769D01*
X182002076Y-109254000D01*
X182233924Y-109254000D01*
X182461318Y-109208769D01*
X182675519Y-109120044D01*
X182868294Y-108991236D01*
X183032236Y-108827294D01*
X183161044Y-108634519D01*
X183249769Y-108420318D01*
X183295000Y-108192924D01*
X183295000Y-107961076D01*
X183481000Y-107961076D01*
X183481000Y-108192924D01*
X183526231Y-108420318D01*
X183614956Y-108634519D01*
X183743764Y-108827294D01*
X183907706Y-108991236D01*
X184100481Y-109120044D01*
X184314682Y-109208769D01*
X184542076Y-109254000D01*
X184773924Y-109254000D01*
X185001318Y-109208769D01*
X185215519Y-109120044D01*
X185408294Y-108991236D01*
X185572236Y-108827294D01*
X185701044Y-108634519D01*
X185789769Y-108420318D01*
X185835000Y-108192924D01*
X185835000Y-107961076D01*
X186021000Y-107961076D01*
X186021000Y-108192924D01*
X186066231Y-108420318D01*
X186154956Y-108634519D01*
X186283764Y-108827294D01*
X186447706Y-108991236D01*
X186640481Y-109120044D01*
X186854682Y-109208769D01*
X187082076Y-109254000D01*
X187313924Y-109254000D01*
X187541318Y-109208769D01*
X187755519Y-109120044D01*
X187948294Y-108991236D01*
X188112236Y-108827294D01*
X188241044Y-108634519D01*
X188329769Y-108420318D01*
X188375000Y-108192924D01*
X188375000Y-107961076D01*
X188561000Y-107961076D01*
X188561000Y-108192924D01*
X188606231Y-108420318D01*
X188694956Y-108634519D01*
X188823764Y-108827294D01*
X188987706Y-108991236D01*
X189180481Y-109120044D01*
X189394682Y-109208769D01*
X189622076Y-109254000D01*
X189853924Y-109254000D01*
X190081318Y-109208769D01*
X190295519Y-109120044D01*
X190488294Y-108991236D01*
X190652236Y-108827294D01*
X190781044Y-108634519D01*
X190869769Y-108420318D01*
X190915000Y-108192924D01*
X190915000Y-107961076D01*
X191101000Y-107961076D01*
X191101000Y-108192924D01*
X191146231Y-108420318D01*
X191234956Y-108634519D01*
X191363764Y-108827294D01*
X191527706Y-108991236D01*
X191720481Y-109120044D01*
X191934682Y-109208769D01*
X192162076Y-109254000D01*
X192393924Y-109254000D01*
X192621318Y-109208769D01*
X192835519Y-109120044D01*
X193028294Y-108991236D01*
X193192236Y-108827294D01*
X193321044Y-108634519D01*
X193409769Y-108420318D01*
X193455000Y-108192924D01*
X193455000Y-107961076D01*
X193641000Y-107961076D01*
X193641000Y-108192924D01*
X193686231Y-108420318D01*
X193774956Y-108634519D01*
X193903764Y-108827294D01*
X194067706Y-108991236D01*
X194260481Y-109120044D01*
X194474682Y-109208769D01*
X194702076Y-109254000D01*
X194933924Y-109254000D01*
X195161318Y-109208769D01*
X195375519Y-109120044D01*
X195568294Y-108991236D01*
X195732236Y-108827294D01*
X195861044Y-108634519D01*
X195949769Y-108420318D01*
X195995000Y-108192924D01*
X195995000Y-107961076D01*
X196181000Y-107961076D01*
X196181000Y-108192924D01*
X196226231Y-108420318D01*
X196314956Y-108634519D01*
X196443764Y-108827294D01*
X196607706Y-108991236D01*
X196800481Y-109120044D01*
X197014682Y-109208769D01*
X197242076Y-109254000D01*
X197473924Y-109254000D01*
X197701318Y-109208769D01*
X197915519Y-109120044D01*
X198108294Y-108991236D01*
X198272236Y-108827294D01*
X198401044Y-108634519D01*
X198489769Y-108420318D01*
X198535000Y-108192924D01*
X198535000Y-107961076D01*
X198721000Y-107961076D01*
X198721000Y-108192924D01*
X198766231Y-108420318D01*
X198854956Y-108634519D01*
X198983764Y-108827294D01*
X199147706Y-108991236D01*
X199340481Y-109120044D01*
X199554682Y-109208769D01*
X199782076Y-109254000D01*
X200013924Y-109254000D01*
X200241318Y-109208769D01*
X200455519Y-109120044D01*
X200648294Y-108991236D01*
X200812236Y-108827294D01*
X200941044Y-108634519D01*
X201029769Y-108420318D01*
X201075000Y-108192924D01*
X201075000Y-107961076D01*
X201261000Y-107961076D01*
X201261000Y-108192924D01*
X201306231Y-108420318D01*
X201394956Y-108634519D01*
X201523764Y-108827294D01*
X201687706Y-108991236D01*
X201880481Y-109120044D01*
X202094682Y-109208769D01*
X202322076Y-109254000D01*
X202553924Y-109254000D01*
X202781318Y-109208769D01*
X202995519Y-109120044D01*
X203188294Y-108991236D01*
X203352236Y-108827294D01*
X203481044Y-108634519D01*
X203569769Y-108420318D01*
X203615000Y-108192924D01*
X203615000Y-107961076D01*
X203801000Y-107961076D01*
X203801000Y-108192924D01*
X203846231Y-108420318D01*
X203934956Y-108634519D01*
X204063764Y-108827294D01*
X204227706Y-108991236D01*
X204420481Y-109120044D01*
X204634682Y-109208769D01*
X204862076Y-109254000D01*
X205093924Y-109254000D01*
X205321318Y-109208769D01*
X205535519Y-109120044D01*
X205728294Y-108991236D01*
X205892236Y-108827294D01*
X206021044Y-108634519D01*
X206109769Y-108420318D01*
X206155000Y-108192924D01*
X206155000Y-107961076D01*
X206109769Y-107733682D01*
X206021044Y-107519481D01*
X205892236Y-107326706D01*
X205728294Y-107162764D01*
X205535519Y-107033956D01*
X205321318Y-106945231D01*
X205093924Y-106900000D01*
X204862076Y-106900000D01*
X204634682Y-106945231D01*
X204420481Y-107033956D01*
X204227706Y-107162764D01*
X204063764Y-107326706D01*
X203934956Y-107519481D01*
X203846231Y-107733682D01*
X203801000Y-107961076D01*
X203615000Y-107961076D01*
X203569769Y-107733682D01*
X203481044Y-107519481D01*
X203352236Y-107326706D01*
X203188294Y-107162764D01*
X202995519Y-107033956D01*
X202781318Y-106945231D01*
X202553924Y-106900000D01*
X202322076Y-106900000D01*
X202094682Y-106945231D01*
X201880481Y-107033956D01*
X201687706Y-107162764D01*
X201523764Y-107326706D01*
X201394956Y-107519481D01*
X201306231Y-107733682D01*
X201261000Y-107961076D01*
X201075000Y-107961076D01*
X201029769Y-107733682D01*
X200941044Y-107519481D01*
X200812236Y-107326706D01*
X200648294Y-107162764D01*
X200455519Y-107033956D01*
X200241318Y-106945231D01*
X200013924Y-106900000D01*
X199782076Y-106900000D01*
X199554682Y-106945231D01*
X199340481Y-107033956D01*
X199147706Y-107162764D01*
X198983764Y-107326706D01*
X198854956Y-107519481D01*
X198766231Y-107733682D01*
X198721000Y-107961076D01*
X198535000Y-107961076D01*
X198489769Y-107733682D01*
X198401044Y-107519481D01*
X198272236Y-107326706D01*
X198108294Y-107162764D01*
X197915519Y-107033956D01*
X197701318Y-106945231D01*
X197473924Y-106900000D01*
X197242076Y-106900000D01*
X197014682Y-106945231D01*
X196800481Y-107033956D01*
X196607706Y-107162764D01*
X196443764Y-107326706D01*
X196314956Y-107519481D01*
X196226231Y-107733682D01*
X196181000Y-107961076D01*
X195995000Y-107961076D01*
X195949769Y-107733682D01*
X195861044Y-107519481D01*
X195732236Y-107326706D01*
X195568294Y-107162764D01*
X195375519Y-107033956D01*
X195161318Y-106945231D01*
X194933924Y-106900000D01*
X194702076Y-106900000D01*
X194474682Y-106945231D01*
X194260481Y-107033956D01*
X194067706Y-107162764D01*
X193903764Y-107326706D01*
X193774956Y-107519481D01*
X193686231Y-107733682D01*
X193641000Y-107961076D01*
X193455000Y-107961076D01*
X193409769Y-107733682D01*
X193321044Y-107519481D01*
X193192236Y-107326706D01*
X193028294Y-107162764D01*
X192835519Y-107033956D01*
X192621318Y-106945231D01*
X192393924Y-106900000D01*
X192162076Y-106900000D01*
X191934682Y-106945231D01*
X191720481Y-107033956D01*
X191527706Y-107162764D01*
X191363764Y-107326706D01*
X191234956Y-107519481D01*
X191146231Y-107733682D01*
X191101000Y-107961076D01*
X190915000Y-107961076D01*
X190869769Y-107733682D01*
X190781044Y-107519481D01*
X190652236Y-107326706D01*
X190488294Y-107162764D01*
X190295519Y-107033956D01*
X190081318Y-106945231D01*
X189853924Y-106900000D01*
X189622076Y-106900000D01*
X189394682Y-106945231D01*
X189180481Y-107033956D01*
X188987706Y-107162764D01*
X188823764Y-107326706D01*
X188694956Y-107519481D01*
X188606231Y-107733682D01*
X188561000Y-107961076D01*
X188375000Y-107961076D01*
X188329769Y-107733682D01*
X188241044Y-107519481D01*
X188112236Y-107326706D01*
X187948294Y-107162764D01*
X187755519Y-107033956D01*
X187541318Y-106945231D01*
X187313924Y-106900000D01*
X187082076Y-106900000D01*
X186854682Y-106945231D01*
X186640481Y-107033956D01*
X186447706Y-107162764D01*
X186283764Y-107326706D01*
X186154956Y-107519481D01*
X186066231Y-107733682D01*
X186021000Y-107961076D01*
X185835000Y-107961076D01*
X185789769Y-107733682D01*
X185701044Y-107519481D01*
X185572236Y-107326706D01*
X185408294Y-107162764D01*
X185215519Y-107033956D01*
X185001318Y-106945231D01*
X184773924Y-106900000D01*
X184542076Y-106900000D01*
X184314682Y-106945231D01*
X184100481Y-107033956D01*
X183907706Y-107162764D01*
X183743764Y-107326706D01*
X183614956Y-107519481D01*
X183526231Y-107733682D01*
X183481000Y-107961076D01*
X183295000Y-107961076D01*
X183249769Y-107733682D01*
X183161044Y-107519481D01*
X183032236Y-107326706D01*
X182868294Y-107162764D01*
X182675519Y-107033956D01*
X182461318Y-106945231D01*
X182233924Y-106900000D01*
X182002076Y-106900000D01*
X181774682Y-106945231D01*
X181560481Y-107033956D01*
X181367706Y-107162764D01*
X181203764Y-107326706D01*
X181074956Y-107519481D01*
X180986231Y-107733682D01*
X180941000Y-107961076D01*
X180755000Y-107961076D01*
X180709769Y-107733682D01*
X180621044Y-107519481D01*
X180492236Y-107326706D01*
X180328294Y-107162764D01*
X180135519Y-107033956D01*
X179921318Y-106945231D01*
X179693924Y-106900000D01*
X179462076Y-106900000D01*
X179234682Y-106945231D01*
X179020481Y-107033956D01*
X178827706Y-107162764D01*
X178663764Y-107326706D01*
X178534956Y-107519481D01*
X178446231Y-107733682D01*
X178401000Y-107961076D01*
X178215000Y-107961076D01*
X178169769Y-107733682D01*
X178081044Y-107519481D01*
X177952236Y-107326706D01*
X177788294Y-107162764D01*
X177595519Y-107033956D01*
X177381318Y-106945231D01*
X177153924Y-106900000D01*
X176922076Y-106900000D01*
X176694682Y-106945231D01*
X176480481Y-107033956D01*
X176287706Y-107162764D01*
X176123764Y-107326706D01*
X175994956Y-107519481D01*
X175906231Y-107733682D01*
X175861000Y-107961076D01*
X175675000Y-107961076D01*
X175629769Y-107733682D01*
X175541044Y-107519481D01*
X175412236Y-107326706D01*
X175248294Y-107162764D01*
X175055519Y-107033956D01*
X174841318Y-106945231D01*
X174613924Y-106900000D01*
X174382076Y-106900000D01*
X174154682Y-106945231D01*
X173940481Y-107033956D01*
X173747706Y-107162764D01*
X173583764Y-107326706D01*
X173454956Y-107519481D01*
X173366231Y-107733682D01*
X173321000Y-107961076D01*
X173135000Y-107961076D01*
X173089769Y-107733682D01*
X173001044Y-107519481D01*
X172872236Y-107326706D01*
X172708294Y-107162764D01*
X172515519Y-107033956D01*
X172301318Y-106945231D01*
X172073924Y-106900000D01*
X171842076Y-106900000D01*
X171614682Y-106945231D01*
X171400481Y-107033956D01*
X171207706Y-107162764D01*
X171043764Y-107326706D01*
X170914956Y-107519481D01*
X170826231Y-107733682D01*
X170781000Y-107961076D01*
X170595000Y-107961076D01*
X170549769Y-107733682D01*
X170461044Y-107519481D01*
X170332236Y-107326706D01*
X170168294Y-107162764D01*
X169975519Y-107033956D01*
X169761318Y-106945231D01*
X169533924Y-106900000D01*
X169302076Y-106900000D01*
X169074682Y-106945231D01*
X168860481Y-107033956D01*
X168667706Y-107162764D01*
X168503764Y-107326706D01*
X168374956Y-107519481D01*
X168286231Y-107733682D01*
X168241000Y-107961076D01*
X168055000Y-107961076D01*
X168009769Y-107733682D01*
X167921044Y-107519481D01*
X167792236Y-107326706D01*
X167628294Y-107162764D01*
X167435519Y-107033956D01*
X167221318Y-106945231D01*
X166993924Y-106900000D01*
X166762076Y-106900000D01*
X166534682Y-106945231D01*
X166320481Y-107033956D01*
X166127706Y-107162764D01*
X165963764Y-107326706D01*
X165834956Y-107519481D01*
X165746231Y-107733682D01*
X165701000Y-107961076D01*
X165515000Y-107961076D01*
X165469769Y-107733682D01*
X165381044Y-107519481D01*
X165252236Y-107326706D01*
X165088294Y-107162764D01*
X164895519Y-107033956D01*
X164681318Y-106945231D01*
X164453924Y-106900000D01*
X164222076Y-106900000D01*
X163994682Y-106945231D01*
X163780481Y-107033956D01*
X163587706Y-107162764D01*
X163423764Y-107326706D01*
X163294956Y-107519481D01*
X163206231Y-107733682D01*
X163161000Y-107961076D01*
X162975000Y-107961076D01*
X162929769Y-107733682D01*
X162841044Y-107519481D01*
X162712236Y-107326706D01*
X162548294Y-107162764D01*
X162355519Y-107033956D01*
X162141318Y-106945231D01*
X161913924Y-106900000D01*
X161682076Y-106900000D01*
X161454682Y-106945231D01*
X161240481Y-107033956D01*
X161047706Y-107162764D01*
X160883764Y-107326706D01*
X160754956Y-107519481D01*
X160666231Y-107733682D01*
X160621000Y-107961076D01*
X160435000Y-107961076D01*
X160389769Y-107733682D01*
X160301044Y-107519481D01*
X160172236Y-107326706D01*
X160008294Y-107162764D01*
X159815519Y-107033956D01*
X159601318Y-106945231D01*
X159373924Y-106900000D01*
X159142076Y-106900000D01*
X158914682Y-106945231D01*
X158700481Y-107033956D01*
X158507706Y-107162764D01*
X158343764Y-107326706D01*
X158214956Y-107519481D01*
X158126231Y-107733682D01*
X158081000Y-107961076D01*
X157895000Y-107961076D01*
X157849769Y-107733682D01*
X157761044Y-107519481D01*
X157632236Y-107326706D01*
X157468294Y-107162764D01*
X157275519Y-107033956D01*
X157061318Y-106945231D01*
X156833924Y-106900000D01*
X156602076Y-106900000D01*
X156374682Y-106945231D01*
X156160481Y-107033956D01*
X155967706Y-107162764D01*
X155803764Y-107326706D01*
X155674956Y-107519481D01*
X155586231Y-107733682D01*
X155541000Y-107961076D01*
X155355000Y-107961076D01*
X155309769Y-107733682D01*
X155221044Y-107519481D01*
X155092236Y-107326706D01*
X154928294Y-107162764D01*
X154735519Y-107033956D01*
X154521318Y-106945231D01*
X154293924Y-106900000D01*
X154062076Y-106900000D01*
X153834682Y-106945231D01*
X153620481Y-107033956D01*
X153427706Y-107162764D01*
X153263764Y-107326706D01*
X153134956Y-107519481D01*
X153046231Y-107733682D01*
X153001000Y-107961076D01*
X152815000Y-107961076D01*
X152769769Y-107733682D01*
X152681044Y-107519481D01*
X152552236Y-107326706D01*
X152388294Y-107162764D01*
X152195519Y-107033956D01*
X151981318Y-106945231D01*
X151753924Y-106900000D01*
X151522076Y-106900000D01*
X151294682Y-106945231D01*
X151080481Y-107033956D01*
X150887706Y-107162764D01*
X150723764Y-107326706D01*
X150594956Y-107519481D01*
X150506231Y-107733682D01*
X150461000Y-107961076D01*
X150275000Y-107961076D01*
X150229769Y-107733682D01*
X150141044Y-107519481D01*
X150012236Y-107326706D01*
X149848294Y-107162764D01*
X149655519Y-107033956D01*
X149441318Y-106945231D01*
X149213924Y-106900000D01*
X148982076Y-106900000D01*
X148754682Y-106945231D01*
X148540481Y-107033956D01*
X148347706Y-107162764D01*
X148183764Y-107326706D01*
X148054956Y-107519481D01*
X147993741Y-107667268D01*
X147996072Y-107277000D01*
X147983812Y-107152518D01*
X147947502Y-107032820D01*
X147888537Y-106922506D01*
X147809185Y-106825815D01*
X147712494Y-106746463D01*
X147602180Y-106687498D01*
X147482482Y-106651188D01*
X147358000Y-106638928D01*
X146843750Y-106642000D01*
X146685000Y-106800750D01*
X146431000Y-106800750D01*
X146272250Y-106642000D01*
X145758000Y-106638928D01*
X145633518Y-106651188D01*
X145513820Y-106687498D01*
X145403506Y-106746463D01*
X145306815Y-106825815D01*
X145227463Y-106922506D01*
X145168498Y-107032820D01*
X145132188Y-107152518D01*
X145119928Y-107277000D01*
X131974000Y-107277000D01*
X131974000Y-102325356D01*
X165844890Y-102325356D01*
X165844890Y-102448864D01*
X165868985Y-102569999D01*
X165916250Y-102684106D01*
X165984867Y-102786799D01*
X166018691Y-102820623D01*
X166018690Y-103515858D01*
X166016498Y-103538112D01*
X166018690Y-103560366D01*
X166018690Y-103560367D01*
X166025248Y-103626954D01*
X166047185Y-103699267D01*
X166051163Y-103712382D01*
X166093245Y-103791114D01*
X166094889Y-103793117D01*
X166094889Y-103849865D01*
X166118984Y-103971000D01*
X166166249Y-104085107D01*
X166234866Y-104187800D01*
X166322200Y-104275134D01*
X166424893Y-104343751D01*
X166539000Y-104391016D01*
X166660135Y-104415111D01*
X166783643Y-104415111D01*
X166904778Y-104391016D01*
X167018885Y-104343751D01*
X167121578Y-104275134D01*
X167208912Y-104187800D01*
X167277529Y-104085107D01*
X167324794Y-103971000D01*
X167348889Y-103849865D01*
X167348889Y-103726357D01*
X167324794Y-103605222D01*
X167277529Y-103491115D01*
X167208912Y-103388422D01*
X167121578Y-103301088D01*
X167018885Y-103232471D01*
X166925090Y-103193620D01*
X166925090Y-102820622D01*
X166958913Y-102786799D01*
X167027530Y-102684106D01*
X167074795Y-102569999D01*
X167098890Y-102448864D01*
X167098890Y-102325356D01*
X167074795Y-102204221D01*
X167027530Y-102090114D01*
X166958913Y-101987421D01*
X166871579Y-101900087D01*
X166768886Y-101831470D01*
X166654779Y-101784205D01*
X166533644Y-101760110D01*
X166410136Y-101760110D01*
X166289001Y-101784205D01*
X166174894Y-101831470D01*
X166072201Y-101900087D01*
X165984867Y-101987421D01*
X165916250Y-102090114D01*
X165868985Y-102204221D01*
X165844890Y-102325356D01*
X131974000Y-102325356D01*
X131974000Y-100141246D01*
X168029000Y-100141246D01*
X168029000Y-100264754D01*
X168053095Y-100385889D01*
X168100360Y-100499996D01*
X168168977Y-100602689D01*
X168256311Y-100690023D01*
X168359004Y-100758640D01*
X168473111Y-100805905D01*
X168594246Y-100830000D01*
X168642079Y-100830000D01*
X168918000Y-101105922D01*
X168918000Y-101153754D01*
X168942095Y-101274889D01*
X168989360Y-101388996D01*
X169057977Y-101491689D01*
X169145311Y-101579023D01*
X169248004Y-101647640D01*
X169362111Y-101694905D01*
X169483246Y-101719000D01*
X169606754Y-101719000D01*
X169727889Y-101694905D01*
X169841996Y-101647640D01*
X169944689Y-101579023D01*
X170032023Y-101491689D01*
X170100640Y-101388996D01*
X170147905Y-101274889D01*
X170172000Y-101153754D01*
X170172000Y-101030246D01*
X170147905Y-100909111D01*
X170100640Y-100795004D01*
X170032023Y-100692311D01*
X169944689Y-100604977D01*
X169841996Y-100536360D01*
X169727889Y-100489095D01*
X169606754Y-100465000D01*
X169558922Y-100465000D01*
X169283000Y-100189079D01*
X169283000Y-100141246D01*
X169258905Y-100020111D01*
X169211640Y-99906004D01*
X169143023Y-99803311D01*
X169055689Y-99715977D01*
X168952996Y-99647360D01*
X168838889Y-99600095D01*
X168717754Y-99576000D01*
X168594246Y-99576000D01*
X168473111Y-99600095D01*
X168359004Y-99647360D01*
X168256311Y-99715977D01*
X168168977Y-99803311D01*
X168100360Y-99906004D01*
X168053095Y-100020111D01*
X168029000Y-100141246D01*
X131974000Y-100141246D01*
X131974000Y-97474246D01*
X179332006Y-97474246D01*
X179332006Y-97597754D01*
X179356101Y-97718889D01*
X179403366Y-97832996D01*
X179471983Y-97935689D01*
X179559317Y-98023023D01*
X179662010Y-98091640D01*
X179776117Y-98138905D01*
X179897252Y-98163000D01*
X180020760Y-98163000D01*
X180141895Y-98138905D01*
X180256002Y-98091640D01*
X180358695Y-98023023D01*
X180392518Y-97989200D01*
X180795488Y-97989200D01*
X180829311Y-98023023D01*
X180932004Y-98091640D01*
X181046111Y-98138905D01*
X181167246Y-98163000D01*
X181290754Y-98163000D01*
X181411889Y-98138905D01*
X181525996Y-98091640D01*
X181628689Y-98023023D01*
X181716023Y-97935689D01*
X181784640Y-97832996D01*
X181831905Y-97718889D01*
X181856000Y-97597754D01*
X181856000Y-97474246D01*
X184793000Y-97474246D01*
X184793000Y-97597754D01*
X184817095Y-97718889D01*
X184864360Y-97832996D01*
X184932977Y-97935689D01*
X185020311Y-98023023D01*
X185123004Y-98091640D01*
X185237111Y-98138905D01*
X185358246Y-98163000D01*
X185481754Y-98163000D01*
X185602889Y-98138905D01*
X185716996Y-98091640D01*
X185819689Y-98023023D01*
X185853512Y-97989200D01*
X186383488Y-97989200D01*
X186417311Y-98023023D01*
X186520004Y-98091640D01*
X186634111Y-98138905D01*
X186755246Y-98163000D01*
X186878754Y-98163000D01*
X186999889Y-98138905D01*
X187113996Y-98091640D01*
X187216689Y-98023023D01*
X187304023Y-97935689D01*
X187372640Y-97832996D01*
X187419905Y-97718889D01*
X187444000Y-97597754D01*
X187444000Y-97474246D01*
X187419905Y-97353111D01*
X187372640Y-97239004D01*
X187304023Y-97136311D01*
X187216689Y-97048977D01*
X187113996Y-96980360D01*
X186999889Y-96933095D01*
X186878754Y-96909000D01*
X186755246Y-96909000D01*
X186634111Y-96933095D01*
X186520004Y-96980360D01*
X186417311Y-97048977D01*
X186383488Y-97082800D01*
X185853512Y-97082800D01*
X185819689Y-97048977D01*
X185716996Y-96980360D01*
X185602889Y-96933095D01*
X185481754Y-96909000D01*
X185358246Y-96909000D01*
X185237111Y-96933095D01*
X185123004Y-96980360D01*
X185020311Y-97048977D01*
X184932977Y-97136311D01*
X184864360Y-97239004D01*
X184817095Y-97353111D01*
X184793000Y-97474246D01*
X181856000Y-97474246D01*
X181831905Y-97353111D01*
X181784640Y-97239004D01*
X181716023Y-97136311D01*
X181628689Y-97048977D01*
X181525996Y-96980360D01*
X181411889Y-96933095D01*
X181290754Y-96909000D01*
X181167246Y-96909000D01*
X181046111Y-96933095D01*
X180932004Y-96980360D01*
X180829311Y-97048977D01*
X180795488Y-97082800D01*
X180392518Y-97082800D01*
X180358695Y-97048977D01*
X180256002Y-96980360D01*
X180141895Y-96933095D01*
X180020760Y-96909000D01*
X179897252Y-96909000D01*
X179776117Y-96933095D01*
X179662010Y-96980360D01*
X179559317Y-97048977D01*
X179471983Y-97136311D01*
X179403366Y-97239004D01*
X179356101Y-97353111D01*
X179332006Y-97474246D01*
X131974000Y-97474246D01*
X131974000Y-92721076D01*
X145381000Y-92721076D01*
X145381000Y-92952924D01*
X145426231Y-93180318D01*
X145514956Y-93394519D01*
X145643764Y-93587294D01*
X145807706Y-93751236D01*
X146000481Y-93880044D01*
X146214682Y-93968769D01*
X146442076Y-94014000D01*
X146673924Y-94014000D01*
X146901318Y-93968769D01*
X147115519Y-93880044D01*
X147190861Y-93829702D01*
X148284903Y-93829702D01*
X148356486Y-94073671D01*
X148611996Y-94194571D01*
X148886184Y-94263300D01*
X149168512Y-94277217D01*
X149448130Y-94235787D01*
X149714292Y-94140603D01*
X149839514Y-94073671D01*
X149911097Y-93829702D01*
X149098000Y-93016605D01*
X148284903Y-93829702D01*
X147190861Y-93829702D01*
X147308294Y-93751236D01*
X147472236Y-93587294D01*
X147601044Y-93394519D01*
X147689769Y-93180318D01*
X147694603Y-93156016D01*
X147699213Y-93187130D01*
X147794397Y-93453292D01*
X147861329Y-93578514D01*
X148105298Y-93650097D01*
X148918395Y-92837000D01*
X149277605Y-92837000D01*
X150090702Y-93650097D01*
X150334671Y-93578514D01*
X150455571Y-93323004D01*
X150499641Y-93147189D01*
X150506231Y-93180318D01*
X150594956Y-93394519D01*
X150723764Y-93587294D01*
X150887706Y-93751236D01*
X151080481Y-93880044D01*
X151294682Y-93968769D01*
X151522076Y-94014000D01*
X151753924Y-94014000D01*
X151981318Y-93968769D01*
X152195519Y-93880044D01*
X152388294Y-93751236D01*
X152552236Y-93587294D01*
X152681044Y-93394519D01*
X152769769Y-93180318D01*
X152815000Y-92952924D01*
X152815000Y-92721076D01*
X153001000Y-92721076D01*
X153001000Y-92952924D01*
X153046231Y-93180318D01*
X153134956Y-93394519D01*
X153263764Y-93587294D01*
X153427706Y-93751236D01*
X153620481Y-93880044D01*
X153834682Y-93968769D01*
X154062076Y-94014000D01*
X154293924Y-94014000D01*
X154521318Y-93968769D01*
X154735519Y-93880044D01*
X154928294Y-93751236D01*
X155092236Y-93587294D01*
X155221044Y-93394519D01*
X155309769Y-93180318D01*
X155355000Y-92952924D01*
X155355000Y-92721076D01*
X155541000Y-92721076D01*
X155541000Y-92952924D01*
X155586231Y-93180318D01*
X155674956Y-93394519D01*
X155803764Y-93587294D01*
X155967706Y-93751236D01*
X156160481Y-93880044D01*
X156374682Y-93968769D01*
X156602076Y-94014000D01*
X156833924Y-94014000D01*
X157061318Y-93968769D01*
X157275519Y-93880044D01*
X157468294Y-93751236D01*
X157632236Y-93587294D01*
X157761044Y-93394519D01*
X157849769Y-93180318D01*
X157895000Y-92952924D01*
X157895000Y-92721076D01*
X158081000Y-92721076D01*
X158081000Y-92952924D01*
X158126231Y-93180318D01*
X158214956Y-93394519D01*
X158343764Y-93587294D01*
X158507706Y-93751236D01*
X158700481Y-93880044D01*
X158914682Y-93968769D01*
X159142076Y-94014000D01*
X159373924Y-94014000D01*
X159601318Y-93968769D01*
X159647000Y-93949847D01*
X159647000Y-94041754D01*
X159671095Y-94162889D01*
X159718360Y-94276996D01*
X159786977Y-94379689D01*
X159820800Y-94413512D01*
X159820801Y-94943487D01*
X159786977Y-94977311D01*
X159718360Y-95080004D01*
X159671095Y-95194111D01*
X159647000Y-95315246D01*
X159647000Y-95438754D01*
X159671095Y-95559889D01*
X159718360Y-95673996D01*
X159786977Y-95776689D01*
X159874311Y-95864023D01*
X159977004Y-95932640D01*
X160091111Y-95979905D01*
X160212246Y-96004000D01*
X160335754Y-96004000D01*
X160456889Y-95979905D01*
X160570996Y-95932640D01*
X160673689Y-95864023D01*
X160761023Y-95776689D01*
X160829640Y-95673996D01*
X160876905Y-95559889D01*
X160901000Y-95438754D01*
X160901000Y-95315246D01*
X160876905Y-95194111D01*
X160829640Y-95080004D01*
X160761023Y-94977311D01*
X160727200Y-94943488D01*
X160727200Y-94413512D01*
X160761023Y-94379689D01*
X160829640Y-94276996D01*
X160876905Y-94162889D01*
X160901000Y-94041754D01*
X160901000Y-93918246D01*
X160876905Y-93797111D01*
X160829640Y-93683004D01*
X160761023Y-93580311D01*
X160673689Y-93492977D01*
X160570996Y-93424360D01*
X160456889Y-93377095D01*
X160335754Y-93353000D01*
X160318242Y-93353000D01*
X160389769Y-93180318D01*
X160435000Y-92952924D01*
X160435000Y-92721076D01*
X160621000Y-92721076D01*
X160621000Y-92952924D01*
X160666231Y-93180318D01*
X160754956Y-93394519D01*
X160883764Y-93587294D01*
X161047706Y-93751236D01*
X161240481Y-93880044D01*
X161454682Y-93968769D01*
X161682076Y-94014000D01*
X161913924Y-94014000D01*
X162141318Y-93968769D01*
X162314000Y-93897242D01*
X162314000Y-93914754D01*
X162338095Y-94035889D01*
X162385360Y-94149996D01*
X162453977Y-94252689D01*
X162487800Y-94286512D01*
X162487801Y-94816487D01*
X162453977Y-94850311D01*
X162385360Y-94953004D01*
X162338095Y-95067111D01*
X162314000Y-95188246D01*
X162314000Y-95311754D01*
X162338095Y-95432889D01*
X162385360Y-95546996D01*
X162453977Y-95649689D01*
X162541311Y-95737023D01*
X162644004Y-95805640D01*
X162758111Y-95852905D01*
X162879246Y-95877000D01*
X163002754Y-95877000D01*
X163123889Y-95852905D01*
X163237996Y-95805640D01*
X163340689Y-95737023D01*
X163428023Y-95649689D01*
X163496640Y-95546996D01*
X163543905Y-95432889D01*
X163568000Y-95311754D01*
X163568000Y-95188246D01*
X163543905Y-95067111D01*
X163496640Y-94953004D01*
X163428023Y-94850311D01*
X163394200Y-94816488D01*
X163394200Y-94286512D01*
X163428023Y-94252689D01*
X163496640Y-94149996D01*
X163543905Y-94035889D01*
X163568000Y-93914754D01*
X163568000Y-93791246D01*
X163553173Y-93716703D01*
X163587706Y-93751236D01*
X163780481Y-93880044D01*
X163994682Y-93968769D01*
X164222076Y-94014000D01*
X164453924Y-94014000D01*
X164681318Y-93968769D01*
X164895519Y-93880044D01*
X165088294Y-93751236D01*
X165252236Y-93587294D01*
X165381044Y-93394519D01*
X165469769Y-93180318D01*
X165515000Y-92952924D01*
X165515000Y-92721076D01*
X165701000Y-92721076D01*
X165701000Y-92952924D01*
X165746231Y-93180318D01*
X165834956Y-93394519D01*
X165963764Y-93587294D01*
X166127706Y-93751236D01*
X166320481Y-93880044D01*
X166534682Y-93968769D01*
X166762076Y-94014000D01*
X166993924Y-94014000D01*
X167221318Y-93968769D01*
X167435519Y-93880044D01*
X167628294Y-93751236D01*
X167792236Y-93587294D01*
X167921044Y-93394519D01*
X168009769Y-93180318D01*
X168055000Y-92952924D01*
X168055000Y-92721076D01*
X168241000Y-92721076D01*
X168241000Y-92952924D01*
X168286231Y-93180318D01*
X168374956Y-93394519D01*
X168503764Y-93587294D01*
X168667706Y-93751236D01*
X168860481Y-93880044D01*
X169074682Y-93968769D01*
X169302076Y-94014000D01*
X169533924Y-94014000D01*
X169761318Y-93968769D01*
X169975519Y-93880044D01*
X170168294Y-93751236D01*
X170332236Y-93587294D01*
X170461044Y-93394519D01*
X170549769Y-93180318D01*
X170595000Y-92952924D01*
X170595000Y-92721076D01*
X170781000Y-92721076D01*
X170781000Y-92952924D01*
X170826231Y-93180318D01*
X170914956Y-93394519D01*
X171043764Y-93587294D01*
X171207706Y-93751236D01*
X171400481Y-93880044D01*
X171614682Y-93968769D01*
X171842076Y-94014000D01*
X172073924Y-94014000D01*
X172301318Y-93968769D01*
X172515519Y-93880044D01*
X172708294Y-93751236D01*
X172872236Y-93587294D01*
X173001044Y-93394519D01*
X173089769Y-93180318D01*
X173135000Y-92952924D01*
X173135000Y-92721076D01*
X173321000Y-92721076D01*
X173321000Y-92952924D01*
X173366231Y-93180318D01*
X173454956Y-93394519D01*
X173583764Y-93587294D01*
X173747706Y-93751236D01*
X173940481Y-93880044D01*
X174154682Y-93968769D01*
X174382076Y-94014000D01*
X174613924Y-94014000D01*
X174841318Y-93968769D01*
X175055519Y-93880044D01*
X175248294Y-93751236D01*
X175412236Y-93587294D01*
X175541044Y-93394519D01*
X175629769Y-93180318D01*
X175675000Y-92952924D01*
X175675000Y-92721076D01*
X175861000Y-92721076D01*
X175861000Y-92952924D01*
X175906231Y-93180318D01*
X175994956Y-93394519D01*
X176123764Y-93587294D01*
X176287706Y-93751236D01*
X176480481Y-93880044D01*
X176694682Y-93968769D01*
X176922076Y-94014000D01*
X177153924Y-94014000D01*
X177381318Y-93968769D01*
X177595519Y-93880044D01*
X177788294Y-93751236D01*
X177952236Y-93587294D01*
X178081044Y-93394519D01*
X178169769Y-93180318D01*
X178215000Y-92952924D01*
X178215000Y-92721076D01*
X178401000Y-92721076D01*
X178401000Y-92952924D01*
X178446231Y-93180318D01*
X178534956Y-93394519D01*
X178663764Y-93587294D01*
X178827706Y-93751236D01*
X179020481Y-93880044D01*
X179234682Y-93968769D01*
X179462076Y-94014000D01*
X179693924Y-94014000D01*
X179921318Y-93968769D01*
X180135519Y-93880044D01*
X180328294Y-93751236D01*
X180492236Y-93587294D01*
X180621044Y-93394519D01*
X180709769Y-93180318D01*
X180755000Y-92952924D01*
X180755000Y-92721076D01*
X180941000Y-92721076D01*
X180941000Y-92952924D01*
X180986231Y-93180318D01*
X181074956Y-93394519D01*
X181203764Y-93587294D01*
X181367706Y-93751236D01*
X181560481Y-93880044D01*
X181774682Y-93968769D01*
X182002076Y-94014000D01*
X182233924Y-94014000D01*
X182461318Y-93968769D01*
X182675519Y-93880044D01*
X182868294Y-93751236D01*
X183032236Y-93587294D01*
X183161044Y-93394519D01*
X183249769Y-93180318D01*
X183295000Y-92952924D01*
X183295000Y-92721076D01*
X183481000Y-92721076D01*
X183481000Y-92952924D01*
X183526231Y-93180318D01*
X183614956Y-93394519D01*
X183743764Y-93587294D01*
X183907706Y-93751236D01*
X184100481Y-93880044D01*
X184314682Y-93968769D01*
X184542076Y-94014000D01*
X184773924Y-94014000D01*
X185001318Y-93968769D01*
X185215519Y-93880044D01*
X185408294Y-93751236D01*
X185572236Y-93587294D01*
X185701044Y-93394519D01*
X185789769Y-93180318D01*
X185835000Y-92952924D01*
X185835000Y-92721076D01*
X186021000Y-92721076D01*
X186021000Y-92952924D01*
X186066231Y-93180318D01*
X186154956Y-93394519D01*
X186283764Y-93587294D01*
X186447706Y-93751236D01*
X186640481Y-93880044D01*
X186854682Y-93968769D01*
X187082076Y-94014000D01*
X187313924Y-94014000D01*
X187541318Y-93968769D01*
X187755519Y-93880044D01*
X187948294Y-93751236D01*
X188112236Y-93587294D01*
X188241044Y-93394519D01*
X188329769Y-93180318D01*
X188375000Y-92952924D01*
X188375000Y-92721076D01*
X188561000Y-92721076D01*
X188561000Y-92952924D01*
X188606231Y-93180318D01*
X188694956Y-93394519D01*
X188823764Y-93587294D01*
X188987706Y-93751236D01*
X189180481Y-93880044D01*
X189394682Y-93968769D01*
X189622076Y-94014000D01*
X189853924Y-94014000D01*
X190081318Y-93968769D01*
X190295519Y-93880044D01*
X190488294Y-93751236D01*
X190652236Y-93587294D01*
X190781044Y-93394519D01*
X190869769Y-93180318D01*
X190915000Y-92952924D01*
X190915000Y-92721076D01*
X191101000Y-92721076D01*
X191101000Y-92952924D01*
X191146231Y-93180318D01*
X191234956Y-93394519D01*
X191363764Y-93587294D01*
X191527706Y-93751236D01*
X191720481Y-93880044D01*
X191934682Y-93968769D01*
X192162076Y-94014000D01*
X192393924Y-94014000D01*
X192621318Y-93968769D01*
X192835519Y-93880044D01*
X193028294Y-93751236D01*
X193192236Y-93587294D01*
X193321044Y-93394519D01*
X193409769Y-93180318D01*
X193455000Y-92952924D01*
X193455000Y-92721076D01*
X193641000Y-92721076D01*
X193641000Y-92952924D01*
X193686231Y-93180318D01*
X193774956Y-93394519D01*
X193903764Y-93587294D01*
X194067706Y-93751236D01*
X194260481Y-93880044D01*
X194474682Y-93968769D01*
X194702076Y-94014000D01*
X194933924Y-94014000D01*
X195161318Y-93968769D01*
X195375519Y-93880044D01*
X195568294Y-93751236D01*
X195732236Y-93587294D01*
X195861044Y-93394519D01*
X195949769Y-93180318D01*
X195995000Y-92952924D01*
X195995000Y-92721076D01*
X196181000Y-92721076D01*
X196181000Y-92952924D01*
X196226231Y-93180318D01*
X196314956Y-93394519D01*
X196443764Y-93587294D01*
X196607706Y-93751236D01*
X196800481Y-93880044D01*
X197014682Y-93968769D01*
X197242076Y-94014000D01*
X197473924Y-94014000D01*
X197701318Y-93968769D01*
X197915519Y-93880044D01*
X198108294Y-93751236D01*
X198272236Y-93587294D01*
X198401044Y-93394519D01*
X198489769Y-93180318D01*
X198535000Y-92952924D01*
X198535000Y-92721076D01*
X198721000Y-92721076D01*
X198721000Y-92952924D01*
X198766231Y-93180318D01*
X198854956Y-93394519D01*
X198983764Y-93587294D01*
X199147706Y-93751236D01*
X199340481Y-93880044D01*
X199554682Y-93968769D01*
X199782076Y-94014000D01*
X200013924Y-94014000D01*
X200241318Y-93968769D01*
X200455519Y-93880044D01*
X200648294Y-93751236D01*
X200812236Y-93587294D01*
X200941044Y-93394519D01*
X201029769Y-93180318D01*
X201075000Y-92952924D01*
X201075000Y-92721076D01*
X201261000Y-92721076D01*
X201261000Y-92952924D01*
X201306231Y-93180318D01*
X201394956Y-93394519D01*
X201523764Y-93587294D01*
X201687706Y-93751236D01*
X201880481Y-93880044D01*
X202094682Y-93968769D01*
X202322076Y-94014000D01*
X202553924Y-94014000D01*
X202781318Y-93968769D01*
X202995519Y-93880044D01*
X203188294Y-93751236D01*
X203352236Y-93587294D01*
X203481044Y-93394519D01*
X203569769Y-93180318D01*
X203615000Y-92952924D01*
X203615000Y-92721076D01*
X203801000Y-92721076D01*
X203801000Y-92952924D01*
X203846231Y-93180318D01*
X203934956Y-93394519D01*
X204063764Y-93587294D01*
X204227706Y-93751236D01*
X204420481Y-93880044D01*
X204634682Y-93968769D01*
X204862076Y-94014000D01*
X205093924Y-94014000D01*
X205321318Y-93968769D01*
X205535519Y-93880044D01*
X205728294Y-93751236D01*
X205892236Y-93587294D01*
X206021044Y-93394519D01*
X206109769Y-93180318D01*
X206155000Y-92952924D01*
X206155000Y-92721076D01*
X206109769Y-92493682D01*
X206021044Y-92279481D01*
X205892236Y-92086706D01*
X205728294Y-91922764D01*
X205535519Y-91793956D01*
X205321318Y-91705231D01*
X205093924Y-91660000D01*
X204862076Y-91660000D01*
X204634682Y-91705231D01*
X204420481Y-91793956D01*
X204227706Y-91922764D01*
X204063764Y-92086706D01*
X203934956Y-92279481D01*
X203846231Y-92493682D01*
X203801000Y-92721076D01*
X203615000Y-92721076D01*
X203569769Y-92493682D01*
X203481044Y-92279481D01*
X203352236Y-92086706D01*
X203188294Y-91922764D01*
X202995519Y-91793956D01*
X202781318Y-91705231D01*
X202553924Y-91660000D01*
X202322076Y-91660000D01*
X202094682Y-91705231D01*
X201880481Y-91793956D01*
X201687706Y-91922764D01*
X201523764Y-92086706D01*
X201394956Y-92279481D01*
X201306231Y-92493682D01*
X201261000Y-92721076D01*
X201075000Y-92721076D01*
X201029769Y-92493682D01*
X200941044Y-92279481D01*
X200812236Y-92086706D01*
X200648294Y-91922764D01*
X200455519Y-91793956D01*
X200241318Y-91705231D01*
X200013924Y-91660000D01*
X199782076Y-91660000D01*
X199554682Y-91705231D01*
X199340481Y-91793956D01*
X199147706Y-91922764D01*
X198983764Y-92086706D01*
X198854956Y-92279481D01*
X198766231Y-92493682D01*
X198721000Y-92721076D01*
X198535000Y-92721076D01*
X198489769Y-92493682D01*
X198401044Y-92279481D01*
X198272236Y-92086706D01*
X198108294Y-91922764D01*
X197915519Y-91793956D01*
X197701318Y-91705231D01*
X197473924Y-91660000D01*
X197242076Y-91660000D01*
X197014682Y-91705231D01*
X196800481Y-91793956D01*
X196607706Y-91922764D01*
X196443764Y-92086706D01*
X196314956Y-92279481D01*
X196226231Y-92493682D01*
X196181000Y-92721076D01*
X195995000Y-92721076D01*
X195949769Y-92493682D01*
X195861044Y-92279481D01*
X195732236Y-92086706D01*
X195568294Y-91922764D01*
X195375519Y-91793956D01*
X195161318Y-91705231D01*
X194933924Y-91660000D01*
X194702076Y-91660000D01*
X194474682Y-91705231D01*
X194260481Y-91793956D01*
X194067706Y-91922764D01*
X193903764Y-92086706D01*
X193774956Y-92279481D01*
X193686231Y-92493682D01*
X193641000Y-92721076D01*
X193455000Y-92721076D01*
X193409769Y-92493682D01*
X193321044Y-92279481D01*
X193192236Y-92086706D01*
X193028294Y-91922764D01*
X192835519Y-91793956D01*
X192621318Y-91705231D01*
X192393924Y-91660000D01*
X192162076Y-91660000D01*
X191934682Y-91705231D01*
X191720481Y-91793956D01*
X191527706Y-91922764D01*
X191363764Y-92086706D01*
X191234956Y-92279481D01*
X191146231Y-92493682D01*
X191101000Y-92721076D01*
X190915000Y-92721076D01*
X190869769Y-92493682D01*
X190781044Y-92279481D01*
X190652236Y-92086706D01*
X190488294Y-91922764D01*
X190295519Y-91793956D01*
X190081318Y-91705231D01*
X189853924Y-91660000D01*
X189622076Y-91660000D01*
X189394682Y-91705231D01*
X189180481Y-91793956D01*
X188987706Y-91922764D01*
X188823764Y-92086706D01*
X188694956Y-92279481D01*
X188606231Y-92493682D01*
X188561000Y-92721076D01*
X188375000Y-92721076D01*
X188329769Y-92493682D01*
X188241044Y-92279481D01*
X188112236Y-92086706D01*
X187948294Y-91922764D01*
X187755519Y-91793956D01*
X187541318Y-91705231D01*
X187313924Y-91660000D01*
X187082076Y-91660000D01*
X186854682Y-91705231D01*
X186640481Y-91793956D01*
X186447706Y-91922764D01*
X186283764Y-92086706D01*
X186154956Y-92279481D01*
X186066231Y-92493682D01*
X186021000Y-92721076D01*
X185835000Y-92721076D01*
X185789769Y-92493682D01*
X185701044Y-92279481D01*
X185572236Y-92086706D01*
X185408294Y-91922764D01*
X185215519Y-91793956D01*
X185001318Y-91705231D01*
X184773924Y-91660000D01*
X184542076Y-91660000D01*
X184314682Y-91705231D01*
X184100481Y-91793956D01*
X183907706Y-91922764D01*
X183743764Y-92086706D01*
X183614956Y-92279481D01*
X183526231Y-92493682D01*
X183481000Y-92721076D01*
X183295000Y-92721076D01*
X183249769Y-92493682D01*
X183161044Y-92279481D01*
X183032236Y-92086706D01*
X182868294Y-91922764D01*
X182675519Y-91793956D01*
X182461318Y-91705231D01*
X182233924Y-91660000D01*
X182002076Y-91660000D01*
X181774682Y-91705231D01*
X181560481Y-91793956D01*
X181367706Y-91922764D01*
X181203764Y-92086706D01*
X181074956Y-92279481D01*
X180986231Y-92493682D01*
X180941000Y-92721076D01*
X180755000Y-92721076D01*
X180709769Y-92493682D01*
X180621044Y-92279481D01*
X180492236Y-92086706D01*
X180328294Y-91922764D01*
X180135519Y-91793956D01*
X179921318Y-91705231D01*
X179693924Y-91660000D01*
X179462076Y-91660000D01*
X179234682Y-91705231D01*
X179020481Y-91793956D01*
X178827706Y-91922764D01*
X178663764Y-92086706D01*
X178534956Y-92279481D01*
X178446231Y-92493682D01*
X178401000Y-92721076D01*
X178215000Y-92721076D01*
X178169769Y-92493682D01*
X178081044Y-92279481D01*
X177952236Y-92086706D01*
X177788294Y-91922764D01*
X177595519Y-91793956D01*
X177381318Y-91705231D01*
X177153924Y-91660000D01*
X176922076Y-91660000D01*
X176694682Y-91705231D01*
X176480481Y-91793956D01*
X176287706Y-91922764D01*
X176123764Y-92086706D01*
X175994956Y-92279481D01*
X175906231Y-92493682D01*
X175861000Y-92721076D01*
X175675000Y-92721076D01*
X175629769Y-92493682D01*
X175541044Y-92279481D01*
X175412236Y-92086706D01*
X175248294Y-91922764D01*
X175055519Y-91793956D01*
X174841318Y-91705231D01*
X174613924Y-91660000D01*
X174382076Y-91660000D01*
X174154682Y-91705231D01*
X173940481Y-91793956D01*
X173747706Y-91922764D01*
X173583764Y-92086706D01*
X173454956Y-92279481D01*
X173366231Y-92493682D01*
X173321000Y-92721076D01*
X173135000Y-92721076D01*
X173089769Y-92493682D01*
X173001044Y-92279481D01*
X172872236Y-92086706D01*
X172708294Y-91922764D01*
X172515519Y-91793956D01*
X172301318Y-91705231D01*
X172073924Y-91660000D01*
X171842076Y-91660000D01*
X171614682Y-91705231D01*
X171400481Y-91793956D01*
X171207706Y-91922764D01*
X171043764Y-92086706D01*
X170914956Y-92279481D01*
X170826231Y-92493682D01*
X170781000Y-92721076D01*
X170595000Y-92721076D01*
X170549769Y-92493682D01*
X170461044Y-92279481D01*
X170332236Y-92086706D01*
X170168294Y-91922764D01*
X169975519Y-91793956D01*
X169761318Y-91705231D01*
X169533924Y-91660000D01*
X169302076Y-91660000D01*
X169074682Y-91705231D01*
X168860481Y-91793956D01*
X168667706Y-91922764D01*
X168503764Y-92086706D01*
X168374956Y-92279481D01*
X168286231Y-92493682D01*
X168241000Y-92721076D01*
X168055000Y-92721076D01*
X168009769Y-92493682D01*
X167921044Y-92279481D01*
X167792236Y-92086706D01*
X167628294Y-91922764D01*
X167435519Y-91793956D01*
X167221318Y-91705231D01*
X166993924Y-91660000D01*
X166762076Y-91660000D01*
X166534682Y-91705231D01*
X166320481Y-91793956D01*
X166127706Y-91922764D01*
X165963764Y-92086706D01*
X165834956Y-92279481D01*
X165746231Y-92493682D01*
X165701000Y-92721076D01*
X165515000Y-92721076D01*
X165469769Y-92493682D01*
X165381044Y-92279481D01*
X165252236Y-92086706D01*
X165088294Y-91922764D01*
X164895519Y-91793956D01*
X164681318Y-91705231D01*
X164453924Y-91660000D01*
X164222076Y-91660000D01*
X163994682Y-91705231D01*
X163780481Y-91793956D01*
X163587706Y-91922764D01*
X163423764Y-92086706D01*
X163294956Y-92279481D01*
X163206231Y-92493682D01*
X163161000Y-92721076D01*
X163161000Y-92952924D01*
X163206231Y-93180318D01*
X163261108Y-93312803D01*
X163237996Y-93297360D01*
X163123889Y-93250095D01*
X163002754Y-93226000D01*
X162910847Y-93226000D01*
X162929769Y-93180318D01*
X162975000Y-92952924D01*
X162975000Y-92721076D01*
X162929769Y-92493682D01*
X162841044Y-92279481D01*
X162712236Y-92086706D01*
X162548294Y-91922764D01*
X162355519Y-91793956D01*
X162141318Y-91705231D01*
X161913924Y-91660000D01*
X161682076Y-91660000D01*
X161454682Y-91705231D01*
X161240481Y-91793956D01*
X161047706Y-91922764D01*
X160883764Y-92086706D01*
X160754956Y-92279481D01*
X160666231Y-92493682D01*
X160621000Y-92721076D01*
X160435000Y-92721076D01*
X160389769Y-92493682D01*
X160301044Y-92279481D01*
X160172236Y-92086706D01*
X160008294Y-91922764D01*
X159815519Y-91793956D01*
X159601318Y-91705231D01*
X159373924Y-91660000D01*
X159142076Y-91660000D01*
X158914682Y-91705231D01*
X158700481Y-91793956D01*
X158507706Y-91922764D01*
X158343764Y-92086706D01*
X158214956Y-92279481D01*
X158126231Y-92493682D01*
X158081000Y-92721076D01*
X157895000Y-92721076D01*
X157849769Y-92493682D01*
X157761044Y-92279481D01*
X157632236Y-92086706D01*
X157468294Y-91922764D01*
X157275519Y-91793956D01*
X157061318Y-91705231D01*
X156833924Y-91660000D01*
X156602076Y-91660000D01*
X156374682Y-91705231D01*
X156160481Y-91793956D01*
X155967706Y-91922764D01*
X155803764Y-92086706D01*
X155674956Y-92279481D01*
X155586231Y-92493682D01*
X155541000Y-92721076D01*
X155355000Y-92721076D01*
X155309769Y-92493682D01*
X155221044Y-92279481D01*
X155092236Y-92086706D01*
X154928294Y-91922764D01*
X154735519Y-91793956D01*
X154521318Y-91705231D01*
X154293924Y-91660000D01*
X154062076Y-91660000D01*
X153834682Y-91705231D01*
X153620481Y-91793956D01*
X153427706Y-91922764D01*
X153263764Y-92086706D01*
X153134956Y-92279481D01*
X153046231Y-92493682D01*
X153001000Y-92721076D01*
X152815000Y-92721076D01*
X152769769Y-92493682D01*
X152681044Y-92279481D01*
X152552236Y-92086706D01*
X152388294Y-91922764D01*
X152195519Y-91793956D01*
X151981318Y-91705231D01*
X151753924Y-91660000D01*
X151522076Y-91660000D01*
X151294682Y-91705231D01*
X151080481Y-91793956D01*
X150887706Y-91922764D01*
X150723764Y-92086706D01*
X150594956Y-92279481D01*
X150506231Y-92493682D01*
X150501397Y-92517984D01*
X150496787Y-92486870D01*
X150401603Y-92220708D01*
X150334671Y-92095486D01*
X150090702Y-92023903D01*
X149277605Y-92837000D01*
X148918395Y-92837000D01*
X148105298Y-92023903D01*
X147861329Y-92095486D01*
X147740429Y-92350996D01*
X147696359Y-92526811D01*
X147689769Y-92493682D01*
X147601044Y-92279481D01*
X147472236Y-92086706D01*
X147308294Y-91922764D01*
X147190862Y-91844298D01*
X148284903Y-91844298D01*
X149098000Y-92657395D01*
X149911097Y-91844298D01*
X149839514Y-91600329D01*
X149584004Y-91479429D01*
X149309816Y-91410700D01*
X149027488Y-91396783D01*
X148747870Y-91438213D01*
X148481708Y-91533397D01*
X148356486Y-91600329D01*
X148284903Y-91844298D01*
X147190862Y-91844298D01*
X147115519Y-91793956D01*
X146901318Y-91705231D01*
X146673924Y-91660000D01*
X146442076Y-91660000D01*
X146214682Y-91705231D01*
X146000481Y-91793956D01*
X145807706Y-91922764D01*
X145643764Y-92086706D01*
X145514956Y-92279481D01*
X145426231Y-92493682D01*
X145381000Y-92721076D01*
X131974000Y-92721076D01*
X131974000Y-86010609D01*
X153217538Y-86010609D01*
X153221409Y-86048282D01*
X153313579Y-86273533D01*
X153447922Y-86476474D01*
X153619275Y-86649307D01*
X153821054Y-86785390D01*
X154045504Y-86879493D01*
X154284000Y-86928000D01*
X154559000Y-86928000D01*
X154559000Y-85820000D01*
X154813000Y-85820000D01*
X154813000Y-86928000D01*
X155088000Y-86928000D01*
X155326496Y-86879493D01*
X155550946Y-86785390D01*
X155752725Y-86649307D01*
X155924078Y-86476474D01*
X156058421Y-86273533D01*
X156150591Y-86048282D01*
X156154462Y-86010609D01*
X156029731Y-85820000D01*
X154813000Y-85820000D01*
X154559000Y-85820000D01*
X153342269Y-85820000D01*
X153217538Y-86010609D01*
X131974000Y-86010609D01*
X131974000Y-85567151D01*
X182692000Y-85567151D01*
X182692000Y-85808849D01*
X182739153Y-86045903D01*
X182831647Y-86269202D01*
X182965927Y-86470167D01*
X183136833Y-86641073D01*
X183337798Y-86775353D01*
X183561097Y-86867847D01*
X183798151Y-86915000D01*
X184039849Y-86915000D01*
X184276903Y-86867847D01*
X184500202Y-86775353D01*
X184701167Y-86641073D01*
X184872073Y-86470167D01*
X185006353Y-86269202D01*
X185098847Y-86045903D01*
X185146000Y-85808849D01*
X185146000Y-85567151D01*
X190192000Y-85567151D01*
X190192000Y-85808849D01*
X190239153Y-86045903D01*
X190331647Y-86269202D01*
X190465927Y-86470167D01*
X190636833Y-86641073D01*
X190837798Y-86775353D01*
X191061097Y-86867847D01*
X191298151Y-86915000D01*
X191539849Y-86915000D01*
X191776903Y-86867847D01*
X192000202Y-86775353D01*
X192201167Y-86641073D01*
X192372073Y-86470167D01*
X192506353Y-86269202D01*
X192598847Y-86045903D01*
X192646000Y-85808849D01*
X192646000Y-85567151D01*
X192598847Y-85330097D01*
X192506353Y-85106798D01*
X192372073Y-84905833D01*
X192201167Y-84734927D01*
X192000202Y-84600647D01*
X191776903Y-84508153D01*
X191539849Y-84461000D01*
X191298151Y-84461000D01*
X191061097Y-84508153D01*
X190837798Y-84600647D01*
X190636833Y-84734927D01*
X190465927Y-84905833D01*
X190331647Y-85106798D01*
X190239153Y-85330097D01*
X190192000Y-85567151D01*
X185146000Y-85567151D01*
X185098847Y-85330097D01*
X185006353Y-85106798D01*
X184872073Y-84905833D01*
X184701167Y-84734927D01*
X184500202Y-84600647D01*
X184276903Y-84508153D01*
X184039849Y-84461000D01*
X183798151Y-84461000D01*
X183561097Y-84508153D01*
X183337798Y-84600647D01*
X183136833Y-84734927D01*
X182965927Y-84905833D01*
X182831647Y-85106798D01*
X182739153Y-85330097D01*
X182692000Y-85567151D01*
X131974000Y-85567151D01*
X131974000Y-85375391D01*
X153217538Y-85375391D01*
X153342269Y-85566000D01*
X154559000Y-85566000D01*
X154559000Y-85546000D01*
X154813000Y-85546000D01*
X154813000Y-85566000D01*
X156029731Y-85566000D01*
X156154462Y-85375391D01*
X156150591Y-85337718D01*
X156058421Y-85112467D01*
X155924078Y-84909526D01*
X155752725Y-84736693D01*
X155570566Y-84613842D01*
X155660356Y-84565848D01*
X155755646Y-84487646D01*
X155833848Y-84392356D01*
X155891958Y-84283641D01*
X155927741Y-84165678D01*
X155939824Y-84043001D01*
X155939824Y-83342999D01*
X155927741Y-83220322D01*
X155891958Y-83102359D01*
X155851759Y-83027151D01*
X182692000Y-83027151D01*
X182692000Y-83268849D01*
X182739153Y-83505903D01*
X182831647Y-83729202D01*
X182965927Y-83930167D01*
X183136833Y-84101073D01*
X183337798Y-84235353D01*
X183561097Y-84327847D01*
X183798151Y-84375000D01*
X184039849Y-84375000D01*
X184276903Y-84327847D01*
X184500202Y-84235353D01*
X184701167Y-84101073D01*
X184872073Y-83930167D01*
X185006353Y-83729202D01*
X185098847Y-83505903D01*
X185146000Y-83268849D01*
X185146000Y-83027151D01*
X190192000Y-83027151D01*
X190192000Y-83268849D01*
X190239153Y-83505903D01*
X190331647Y-83729202D01*
X190465927Y-83930167D01*
X190636833Y-84101073D01*
X190837798Y-84235353D01*
X191061097Y-84327847D01*
X191298151Y-84375000D01*
X191539849Y-84375000D01*
X191776903Y-84327847D01*
X192000202Y-84235353D01*
X192201167Y-84101073D01*
X192372073Y-83930167D01*
X192506353Y-83729202D01*
X192598847Y-83505903D01*
X192646000Y-83268849D01*
X192646000Y-83027151D01*
X192598847Y-82790097D01*
X192506353Y-82566798D01*
X192372073Y-82365833D01*
X192201167Y-82194927D01*
X192000202Y-82060647D01*
X191776903Y-81968153D01*
X191539849Y-81921000D01*
X191298151Y-81921000D01*
X191061097Y-81968153D01*
X190837798Y-82060647D01*
X190636833Y-82194927D01*
X190465927Y-82365833D01*
X190331647Y-82566798D01*
X190239153Y-82790097D01*
X190192000Y-83027151D01*
X185146000Y-83027151D01*
X185098847Y-82790097D01*
X185006353Y-82566798D01*
X184872073Y-82365833D01*
X184701167Y-82194927D01*
X184500202Y-82060647D01*
X184392049Y-82015848D01*
X184552747Y-81958919D01*
X184690157Y-81885472D01*
X184767792Y-81636397D01*
X183919000Y-80787605D01*
X183070208Y-81636397D01*
X183147843Y-81885472D01*
X183411883Y-82011371D01*
X183439709Y-82018434D01*
X183337798Y-82060647D01*
X183136833Y-82194927D01*
X182965927Y-82365833D01*
X182831647Y-82566798D01*
X182739153Y-82790097D01*
X182692000Y-83027151D01*
X155851759Y-83027151D01*
X155833848Y-82993644D01*
X155755646Y-82898354D01*
X155660356Y-82820152D01*
X155551641Y-82762042D01*
X155433678Y-82726259D01*
X155311001Y-82714176D01*
X154060999Y-82714176D01*
X153938322Y-82726259D01*
X153820359Y-82762042D01*
X153711644Y-82820152D01*
X153616354Y-82898354D01*
X153538152Y-82993644D01*
X153480042Y-83102359D01*
X153444259Y-83220322D01*
X153432176Y-83342999D01*
X153432176Y-84043001D01*
X153444259Y-84165678D01*
X153480042Y-84283641D01*
X153538152Y-84392356D01*
X153616354Y-84487646D01*
X153711644Y-84565848D01*
X153801434Y-84613842D01*
X153619275Y-84736693D01*
X153447922Y-84909526D01*
X153313579Y-85112467D01*
X153221409Y-85337718D01*
X153217538Y-85375391D01*
X131974000Y-85375391D01*
X131974000Y-80040999D01*
X166005176Y-80040999D01*
X166005176Y-80741001D01*
X166017259Y-80863678D01*
X166053042Y-80981641D01*
X166111152Y-81090356D01*
X166189354Y-81185646D01*
X166284644Y-81263848D01*
X166393359Y-81321958D01*
X166511322Y-81357741D01*
X166633999Y-81369824D01*
X167884001Y-81369824D01*
X168006678Y-81357741D01*
X168124641Y-81321958D01*
X168233356Y-81263848D01*
X168328646Y-81185646D01*
X168406848Y-81090356D01*
X168464958Y-80981641D01*
X168500741Y-80863678D01*
X168512824Y-80741001D01*
X168512824Y-80676531D01*
X182428389Y-80676531D01*
X182470401Y-80966019D01*
X182568081Y-81241747D01*
X182641528Y-81379157D01*
X182890603Y-81456792D01*
X183739395Y-80608000D01*
X184098605Y-80608000D01*
X184947397Y-81456792D01*
X185196472Y-81379157D01*
X185322371Y-81115117D01*
X185394339Y-80831589D01*
X185409611Y-80539469D01*
X185402019Y-80487151D01*
X190192000Y-80487151D01*
X190192000Y-80728849D01*
X190239153Y-80965903D01*
X190331647Y-81189202D01*
X190465927Y-81390167D01*
X190636833Y-81561073D01*
X190837798Y-81695353D01*
X191061097Y-81787847D01*
X191298151Y-81835000D01*
X191539849Y-81835000D01*
X191776903Y-81787847D01*
X192000202Y-81695353D01*
X192201167Y-81561073D01*
X192372073Y-81390167D01*
X192506353Y-81189202D01*
X192598847Y-80965903D01*
X192646000Y-80728849D01*
X192646000Y-80487151D01*
X192598847Y-80250097D01*
X192506353Y-80026798D01*
X192372073Y-79825833D01*
X192201167Y-79654927D01*
X192000202Y-79520647D01*
X191776903Y-79428153D01*
X191539849Y-79381000D01*
X191298151Y-79381000D01*
X191061097Y-79428153D01*
X190837798Y-79520647D01*
X190636833Y-79654927D01*
X190465927Y-79825833D01*
X190331647Y-80026798D01*
X190239153Y-80250097D01*
X190192000Y-80487151D01*
X185402019Y-80487151D01*
X185367599Y-80249981D01*
X185269919Y-79974253D01*
X185196472Y-79836843D01*
X184947397Y-79759208D01*
X184098605Y-80608000D01*
X183739395Y-80608000D01*
X182890603Y-79759208D01*
X182641528Y-79836843D01*
X182515629Y-80100883D01*
X182443661Y-80384411D01*
X182428389Y-80676531D01*
X168512824Y-80676531D01*
X168512824Y-80040999D01*
X168500741Y-79918322D01*
X168464958Y-79800359D01*
X168406848Y-79691644D01*
X168328646Y-79596354D01*
X168233356Y-79518152D01*
X168124641Y-79460042D01*
X168006678Y-79424259D01*
X167884001Y-79412176D01*
X166633999Y-79412176D01*
X166511322Y-79424259D01*
X166393359Y-79460042D01*
X166284644Y-79518152D01*
X166189354Y-79596354D01*
X166111152Y-79691644D01*
X166053042Y-79800359D01*
X166017259Y-79918322D01*
X166005176Y-80040999D01*
X131974000Y-80040999D01*
X131974000Y-78391000D01*
X166002273Y-78391000D01*
X166021137Y-78582525D01*
X166077003Y-78766691D01*
X166167724Y-78936418D01*
X166289814Y-79085186D01*
X166438582Y-79207276D01*
X166608309Y-79297997D01*
X166792475Y-79353863D01*
X166936007Y-79368000D01*
X167581993Y-79368000D01*
X167725525Y-79353863D01*
X167909691Y-79297997D01*
X168079418Y-79207276D01*
X168228186Y-79085186D01*
X168350276Y-78936418D01*
X168440997Y-78766691D01*
X168496863Y-78582525D01*
X168515727Y-78391000D01*
X168496863Y-78199475D01*
X168440997Y-78015309D01*
X168404566Y-77947151D01*
X182692000Y-77947151D01*
X182692000Y-78188849D01*
X182739153Y-78425903D01*
X182831647Y-78649202D01*
X182965927Y-78850167D01*
X183136833Y-79021073D01*
X183337798Y-79155353D01*
X183445951Y-79200152D01*
X183285253Y-79257081D01*
X183147843Y-79330528D01*
X183070208Y-79579603D01*
X183919000Y-80428395D01*
X184767792Y-79579603D01*
X184690157Y-79330528D01*
X184426117Y-79204629D01*
X184398291Y-79197566D01*
X184500202Y-79155353D01*
X184701167Y-79021073D01*
X184872073Y-78850167D01*
X185006353Y-78649202D01*
X185098847Y-78425903D01*
X185146000Y-78188849D01*
X185146000Y-77947151D01*
X190192000Y-77947151D01*
X190192000Y-78188849D01*
X190239153Y-78425903D01*
X190331647Y-78649202D01*
X190465927Y-78850167D01*
X190636833Y-79021073D01*
X190837798Y-79155353D01*
X191061097Y-79247847D01*
X191298151Y-79295000D01*
X191539849Y-79295000D01*
X191776903Y-79247847D01*
X192000202Y-79155353D01*
X192201167Y-79021073D01*
X192372073Y-78850167D01*
X192506353Y-78649202D01*
X192598847Y-78425903D01*
X192646000Y-78188849D01*
X192646000Y-77947151D01*
X192598847Y-77710097D01*
X192506353Y-77486798D01*
X192372073Y-77285833D01*
X192201167Y-77114927D01*
X192000202Y-76980647D01*
X191892049Y-76935848D01*
X192052747Y-76878919D01*
X192190157Y-76805472D01*
X192267792Y-76556397D01*
X191419000Y-75707605D01*
X190570208Y-76556397D01*
X190647843Y-76805472D01*
X190911883Y-76931371D01*
X190939709Y-76938434D01*
X190837798Y-76980647D01*
X190636833Y-77114927D01*
X190465927Y-77285833D01*
X190331647Y-77486798D01*
X190239153Y-77710097D01*
X190192000Y-77947151D01*
X185146000Y-77947151D01*
X185098847Y-77710097D01*
X185006353Y-77486798D01*
X184872073Y-77285833D01*
X184701167Y-77114927D01*
X184500202Y-76980647D01*
X184276903Y-76888153D01*
X184039849Y-76841000D01*
X183798151Y-76841000D01*
X183561097Y-76888153D01*
X183337798Y-76980647D01*
X183136833Y-77114927D01*
X182965927Y-77285833D01*
X182831647Y-77486798D01*
X182739153Y-77710097D01*
X182692000Y-77947151D01*
X168404566Y-77947151D01*
X168350276Y-77845582D01*
X168228186Y-77696814D01*
X168079418Y-77574724D01*
X167909691Y-77484003D01*
X167725525Y-77428137D01*
X167581993Y-77414000D01*
X166936007Y-77414000D01*
X166792475Y-77428137D01*
X166608309Y-77484003D01*
X166438582Y-77574724D01*
X166289814Y-77696814D01*
X166167724Y-77845582D01*
X166077003Y-78015309D01*
X166021137Y-78199475D01*
X166002273Y-78391000D01*
X131974000Y-78391000D01*
X131974000Y-74708609D01*
X165790538Y-74708609D01*
X165794409Y-74746282D01*
X165886579Y-74971533D01*
X166020922Y-75174474D01*
X166192275Y-75347307D01*
X166394054Y-75483390D01*
X166514769Y-75534001D01*
X166438582Y-75574724D01*
X166289814Y-75696814D01*
X166167724Y-75845582D01*
X166077003Y-76015309D01*
X166021137Y-76199475D01*
X166002273Y-76391000D01*
X166021137Y-76582525D01*
X166077003Y-76766691D01*
X166167724Y-76936418D01*
X166289814Y-77085186D01*
X166438582Y-77207276D01*
X166608309Y-77297997D01*
X166792475Y-77353863D01*
X166936007Y-77368000D01*
X167581993Y-77368000D01*
X167725525Y-77353863D01*
X167909691Y-77297997D01*
X168079418Y-77207276D01*
X168228186Y-77085186D01*
X168350276Y-76936418D01*
X168440997Y-76766691D01*
X168496863Y-76582525D01*
X168515727Y-76391000D01*
X168496863Y-76199475D01*
X168440997Y-76015309D01*
X168350276Y-75845582D01*
X168228186Y-75696814D01*
X168079418Y-75574724D01*
X168003231Y-75534001D01*
X168123946Y-75483390D01*
X168325725Y-75347307D01*
X168497078Y-75174474D01*
X168631421Y-74971533D01*
X168723591Y-74746282D01*
X168727462Y-74708609D01*
X168707433Y-74678000D01*
X182690176Y-74678000D01*
X182690176Y-76378000D01*
X182697455Y-76451905D01*
X182719012Y-76522970D01*
X182754019Y-76588463D01*
X182801131Y-76645869D01*
X182858537Y-76692981D01*
X182924030Y-76727988D01*
X182995095Y-76749545D01*
X183069000Y-76756824D01*
X184769000Y-76756824D01*
X184842905Y-76749545D01*
X184913970Y-76727988D01*
X184979463Y-76692981D01*
X185036869Y-76645869D01*
X185083981Y-76588463D01*
X185118988Y-76522970D01*
X185140545Y-76451905D01*
X185147824Y-76378000D01*
X185147824Y-75596531D01*
X189928389Y-75596531D01*
X189970401Y-75886019D01*
X190068081Y-76161747D01*
X190141528Y-76299157D01*
X190390603Y-76376792D01*
X191239395Y-75528000D01*
X191598605Y-75528000D01*
X192447397Y-76376792D01*
X192696472Y-76299157D01*
X192822371Y-76035117D01*
X192894339Y-75751589D01*
X192909611Y-75459469D01*
X192867599Y-75169981D01*
X192769919Y-74894253D01*
X192696472Y-74756843D01*
X192447397Y-74679208D01*
X191598605Y-75528000D01*
X191239395Y-75528000D01*
X190390603Y-74679208D01*
X190141528Y-74756843D01*
X190015629Y-75020883D01*
X189943661Y-75304411D01*
X189928389Y-75596531D01*
X185147824Y-75596531D01*
X185147824Y-74678000D01*
X185140545Y-74604095D01*
X185118988Y-74533030D01*
X185101121Y-74499603D01*
X190570208Y-74499603D01*
X191419000Y-75348395D01*
X192267792Y-74499603D01*
X192190157Y-74250528D01*
X191926117Y-74124629D01*
X191642589Y-74052661D01*
X191350469Y-74037389D01*
X191060981Y-74079401D01*
X190785253Y-74177081D01*
X190647843Y-74250528D01*
X190570208Y-74499603D01*
X185101121Y-74499603D01*
X185083981Y-74467537D01*
X185036869Y-74410131D01*
X184979463Y-74363019D01*
X184913970Y-74328012D01*
X184842905Y-74306455D01*
X184769000Y-74299176D01*
X183069000Y-74299176D01*
X182995095Y-74306455D01*
X182924030Y-74328012D01*
X182858537Y-74363019D01*
X182801131Y-74410131D01*
X182754019Y-74467537D01*
X182719012Y-74533030D01*
X182697455Y-74604095D01*
X182690176Y-74678000D01*
X168707433Y-74678000D01*
X168602731Y-74518000D01*
X167386000Y-74518000D01*
X167386000Y-74538000D01*
X167132000Y-74538000D01*
X167132000Y-74518000D01*
X165915269Y-74518000D01*
X165790538Y-74708609D01*
X131974000Y-74708609D01*
X131974000Y-74073391D01*
X165790538Y-74073391D01*
X165915269Y-74264000D01*
X167132000Y-74264000D01*
X167132000Y-73156000D01*
X167386000Y-73156000D01*
X167386000Y-74264000D01*
X168602731Y-74264000D01*
X168727462Y-74073391D01*
X168723591Y-74035718D01*
X168631421Y-73810467D01*
X168497078Y-73607526D01*
X168325725Y-73434693D01*
X168123946Y-73298610D01*
X167899496Y-73204507D01*
X167661000Y-73156000D01*
X167386000Y-73156000D01*
X167132000Y-73156000D01*
X166857000Y-73156000D01*
X166618504Y-73204507D01*
X166394054Y-73298610D01*
X166192275Y-73434693D01*
X166020922Y-73607526D01*
X165886579Y-73810467D01*
X165794409Y-74035718D01*
X165790538Y-74073391D01*
X131974000Y-74073391D01*
X131974000Y-68601252D01*
X212391000Y-68651747D01*
G37*
X212391000Y-68651747D02*
X212391001Y-121666000D01*
X131974000Y-121666000D01*
X131974000Y-111261999D01*
X189394176Y-111261999D01*
X189394176Y-112512001D01*
X189406259Y-112634678D01*
X189442042Y-112752641D01*
X189500152Y-112861356D01*
X189578354Y-112956646D01*
X189673644Y-113034848D01*
X189782359Y-113092958D01*
X189900322Y-113128741D01*
X190022999Y-113140824D01*
X190723001Y-113140824D01*
X190845678Y-113128741D01*
X190963641Y-113092958D01*
X191072356Y-113034848D01*
X191167646Y-112956646D01*
X191245848Y-112861356D01*
X191293842Y-112771566D01*
X191416693Y-112953725D01*
X191589526Y-113125078D01*
X191792467Y-113259421D01*
X192017718Y-113351591D01*
X192055391Y-113355462D01*
X192246000Y-113230731D01*
X192246000Y-112014000D01*
X192500000Y-112014000D01*
X192500000Y-113230731D01*
X192690609Y-113355462D01*
X192728282Y-113351591D01*
X192953533Y-113259421D01*
X193156474Y-113125078D01*
X193329307Y-112953725D01*
X193465390Y-112751946D01*
X193559493Y-112527496D01*
X193608000Y-112289000D01*
X193608000Y-112014000D01*
X192500000Y-112014000D01*
X192246000Y-112014000D01*
X192226000Y-112014000D01*
X192226000Y-111760000D01*
X192246000Y-111760000D01*
X192246000Y-110543269D01*
X192500000Y-110543269D01*
X192500000Y-111760000D01*
X193608000Y-111760000D01*
X193608000Y-111485000D01*
X193559493Y-111246504D01*
X193465390Y-111022054D01*
X193329307Y-110820275D01*
X193156474Y-110648922D01*
X192953533Y-110514579D01*
X192728282Y-110422409D01*
X192690609Y-110418538D01*
X192500000Y-110543269D01*
X192246000Y-110543269D01*
X192055391Y-110418538D01*
X192017718Y-110422409D01*
X191792467Y-110514579D01*
X191589526Y-110648922D01*
X191416693Y-110820275D01*
X191293842Y-111002434D01*
X191245848Y-110912644D01*
X191167646Y-110817354D01*
X191072356Y-110739152D01*
X190963641Y-110681042D01*
X190845678Y-110645259D01*
X190723001Y-110633176D01*
X190022999Y-110633176D01*
X189900322Y-110645259D01*
X189782359Y-110681042D01*
X189673644Y-110739152D01*
X189578354Y-110817354D01*
X189500152Y-110912644D01*
X189442042Y-111021359D01*
X189406259Y-111139322D01*
X189394176Y-111261999D01*
X131974000Y-111261999D01*
X131974000Y-108877000D01*
X145119928Y-108877000D01*
X145132188Y-109001482D01*
X145168498Y-109121180D01*
X145227463Y-109231494D01*
X145306815Y-109328185D01*
X145403506Y-109407537D01*
X145513820Y-109466502D01*
X145633518Y-109502812D01*
X145758000Y-109515072D01*
X146272250Y-109512000D01*
X146431000Y-109353250D01*
X146431000Y-108204000D01*
X145281750Y-108204000D01*
X145123000Y-108362750D01*
X145119928Y-108877000D01*
X131974000Y-108877000D01*
X131974000Y-107277000D01*
X145119928Y-107277000D01*
X145123000Y-107791250D01*
X145281750Y-107950000D01*
X146431000Y-107950000D01*
X146431000Y-106800750D01*
X146685000Y-106800750D01*
X146685000Y-107950000D01*
X146705000Y-107950000D01*
X146705000Y-108204000D01*
X146685000Y-108204000D01*
X146685000Y-109353250D01*
X146843750Y-109512000D01*
X147358000Y-109515072D01*
X147482482Y-109502812D01*
X147602180Y-109466502D01*
X147712494Y-109407537D01*
X147809185Y-109328185D01*
X147888537Y-109231494D01*
X147947502Y-109121180D01*
X147983812Y-109001482D01*
X147996072Y-108877000D01*
X147993741Y-108486732D01*
X148054956Y-108634519D01*
X148183764Y-108827294D01*
X148347706Y-108991236D01*
X148540481Y-109120044D01*
X148754682Y-109208769D01*
X148982076Y-109254000D01*
X149213924Y-109254000D01*
X149441318Y-109208769D01*
X149655519Y-109120044D01*
X149848294Y-108991236D01*
X150012236Y-108827294D01*
X150141044Y-108634519D01*
X150229769Y-108420318D01*
X150275000Y-108192924D01*
X150275000Y-107961076D01*
X150461000Y-107961076D01*
X150461000Y-108192924D01*
X150506231Y-108420318D01*
X150594956Y-108634519D01*
X150723764Y-108827294D01*
X150887706Y-108991236D01*
X151080481Y-109120044D01*
X151294682Y-109208769D01*
X151522076Y-109254000D01*
X151753924Y-109254000D01*
X151981318Y-109208769D01*
X152195519Y-109120044D01*
X152388294Y-108991236D01*
X152552236Y-108827294D01*
X152681044Y-108634519D01*
X152769769Y-108420318D01*
X152815000Y-108192924D01*
X152815000Y-107961076D01*
X153001000Y-107961076D01*
X153001000Y-108192924D01*
X153046231Y-108420318D01*
X153134956Y-108634519D01*
X153263764Y-108827294D01*
X153427706Y-108991236D01*
X153620481Y-109120044D01*
X153834682Y-109208769D01*
X154062076Y-109254000D01*
X154293924Y-109254000D01*
X154521318Y-109208769D01*
X154735519Y-109120044D01*
X154928294Y-108991236D01*
X155092236Y-108827294D01*
X155221044Y-108634519D01*
X155309769Y-108420318D01*
X155355000Y-108192924D01*
X155355000Y-107961076D01*
X155541000Y-107961076D01*
X155541000Y-108192924D01*
X155586231Y-108420318D01*
X155674956Y-108634519D01*
X155803764Y-108827294D01*
X155967706Y-108991236D01*
X156160481Y-109120044D01*
X156374682Y-109208769D01*
X156602076Y-109254000D01*
X156833924Y-109254000D01*
X157061318Y-109208769D01*
X157275519Y-109120044D01*
X157468294Y-108991236D01*
X157632236Y-108827294D01*
X157761044Y-108634519D01*
X157849769Y-108420318D01*
X157895000Y-108192924D01*
X157895000Y-107961076D01*
X158081000Y-107961076D01*
X158081000Y-108192924D01*
X158126231Y-108420318D01*
X158214956Y-108634519D01*
X158343764Y-108827294D01*
X158507706Y-108991236D01*
X158700481Y-109120044D01*
X158914682Y-109208769D01*
X159142076Y-109254000D01*
X159373924Y-109254000D01*
X159601318Y-109208769D01*
X159815519Y-109120044D01*
X160008294Y-108991236D01*
X160172236Y-108827294D01*
X160301044Y-108634519D01*
X160389769Y-108420318D01*
X160435000Y-108192924D01*
X160435000Y-107961076D01*
X160621000Y-107961076D01*
X160621000Y-108192924D01*
X160666231Y-108420318D01*
X160754956Y-108634519D01*
X160883764Y-108827294D01*
X161047706Y-108991236D01*
X161240481Y-109120044D01*
X161454682Y-109208769D01*
X161682076Y-109254000D01*
X161913924Y-109254000D01*
X162141318Y-109208769D01*
X162355519Y-109120044D01*
X162548294Y-108991236D01*
X162712236Y-108827294D01*
X162841044Y-108634519D01*
X162929769Y-108420318D01*
X162975000Y-108192924D01*
X162975000Y-107961076D01*
X163161000Y-107961076D01*
X163161000Y-108192924D01*
X163206231Y-108420318D01*
X163294956Y-108634519D01*
X163423764Y-108827294D01*
X163587706Y-108991236D01*
X163780481Y-109120044D01*
X163994682Y-109208769D01*
X164222076Y-109254000D01*
X164453924Y-109254000D01*
X164681318Y-109208769D01*
X164895519Y-109120044D01*
X165088294Y-108991236D01*
X165252236Y-108827294D01*
X165381044Y-108634519D01*
X165469769Y-108420318D01*
X165515000Y-108192924D01*
X165515000Y-107961076D01*
X165701000Y-107961076D01*
X165701000Y-108192924D01*
X165746231Y-108420318D01*
X165834956Y-108634519D01*
X165963764Y-108827294D01*
X166127706Y-108991236D01*
X166320481Y-109120044D01*
X166534682Y-109208769D01*
X166762076Y-109254000D01*
X166993924Y-109254000D01*
X167221318Y-109208769D01*
X167435519Y-109120044D01*
X167628294Y-108991236D01*
X167792236Y-108827294D01*
X167921044Y-108634519D01*
X168009769Y-108420318D01*
X168055000Y-108192924D01*
X168055000Y-107961076D01*
X168241000Y-107961076D01*
X168241000Y-108192924D01*
X168286231Y-108420318D01*
X168374956Y-108634519D01*
X168503764Y-108827294D01*
X168667706Y-108991236D01*
X168860481Y-109120044D01*
X169074682Y-109208769D01*
X169302076Y-109254000D01*
X169533924Y-109254000D01*
X169761318Y-109208769D01*
X169975519Y-109120044D01*
X170168294Y-108991236D01*
X170332236Y-108827294D01*
X170461044Y-108634519D01*
X170549769Y-108420318D01*
X170595000Y-108192924D01*
X170595000Y-107961076D01*
X170781000Y-107961076D01*
X170781000Y-108192924D01*
X170826231Y-108420318D01*
X170914956Y-108634519D01*
X171043764Y-108827294D01*
X171207706Y-108991236D01*
X171400481Y-109120044D01*
X171614682Y-109208769D01*
X171842076Y-109254000D01*
X172073924Y-109254000D01*
X172301318Y-109208769D01*
X172515519Y-109120044D01*
X172708294Y-108991236D01*
X172872236Y-108827294D01*
X173001044Y-108634519D01*
X173089769Y-108420318D01*
X173135000Y-108192924D01*
X173135000Y-107961076D01*
X173321000Y-107961076D01*
X173321000Y-108192924D01*
X173366231Y-108420318D01*
X173454956Y-108634519D01*
X173583764Y-108827294D01*
X173747706Y-108991236D01*
X173940481Y-109120044D01*
X174154682Y-109208769D01*
X174382076Y-109254000D01*
X174613924Y-109254000D01*
X174841318Y-109208769D01*
X175055519Y-109120044D01*
X175248294Y-108991236D01*
X175412236Y-108827294D01*
X175541044Y-108634519D01*
X175629769Y-108420318D01*
X175675000Y-108192924D01*
X175675000Y-107961076D01*
X175861000Y-107961076D01*
X175861000Y-108192924D01*
X175906231Y-108420318D01*
X175994956Y-108634519D01*
X176123764Y-108827294D01*
X176287706Y-108991236D01*
X176480481Y-109120044D01*
X176694682Y-109208769D01*
X176922076Y-109254000D01*
X177153924Y-109254000D01*
X177381318Y-109208769D01*
X177595519Y-109120044D01*
X177788294Y-108991236D01*
X177952236Y-108827294D01*
X178081044Y-108634519D01*
X178169769Y-108420318D01*
X178215000Y-108192924D01*
X178215000Y-107961076D01*
X178401000Y-107961076D01*
X178401000Y-108192924D01*
X178446231Y-108420318D01*
X178534956Y-108634519D01*
X178663764Y-108827294D01*
X178827706Y-108991236D01*
X179020481Y-109120044D01*
X179234682Y-109208769D01*
X179462076Y-109254000D01*
X179693924Y-109254000D01*
X179921318Y-109208769D01*
X180135519Y-109120044D01*
X180328294Y-108991236D01*
X180492236Y-108827294D01*
X180621044Y-108634519D01*
X180709769Y-108420318D01*
X180755000Y-108192924D01*
X180755000Y-107961076D01*
X180941000Y-107961076D01*
X180941000Y-108192924D01*
X180986231Y-108420318D01*
X181074956Y-108634519D01*
X181203764Y-108827294D01*
X181367706Y-108991236D01*
X181560481Y-109120044D01*
X181774682Y-109208769D01*
X182002076Y-109254000D01*
X182233924Y-109254000D01*
X182461318Y-109208769D01*
X182675519Y-109120044D01*
X182868294Y-108991236D01*
X183032236Y-108827294D01*
X183161044Y-108634519D01*
X183249769Y-108420318D01*
X183295000Y-108192924D01*
X183295000Y-107961076D01*
X183481000Y-107961076D01*
X183481000Y-108192924D01*
X183526231Y-108420318D01*
X183614956Y-108634519D01*
X183743764Y-108827294D01*
X183907706Y-108991236D01*
X184100481Y-109120044D01*
X184314682Y-109208769D01*
X184542076Y-109254000D01*
X184773924Y-109254000D01*
X185001318Y-109208769D01*
X185215519Y-109120044D01*
X185408294Y-108991236D01*
X185572236Y-108827294D01*
X185701044Y-108634519D01*
X185789769Y-108420318D01*
X185835000Y-108192924D01*
X185835000Y-107961076D01*
X186021000Y-107961076D01*
X186021000Y-108192924D01*
X186066231Y-108420318D01*
X186154956Y-108634519D01*
X186283764Y-108827294D01*
X186447706Y-108991236D01*
X186640481Y-109120044D01*
X186854682Y-109208769D01*
X187082076Y-109254000D01*
X187313924Y-109254000D01*
X187541318Y-109208769D01*
X187755519Y-109120044D01*
X187948294Y-108991236D01*
X188112236Y-108827294D01*
X188241044Y-108634519D01*
X188329769Y-108420318D01*
X188375000Y-108192924D01*
X188375000Y-107961076D01*
X188561000Y-107961076D01*
X188561000Y-108192924D01*
X188606231Y-108420318D01*
X188694956Y-108634519D01*
X188823764Y-108827294D01*
X188987706Y-108991236D01*
X189180481Y-109120044D01*
X189394682Y-109208769D01*
X189622076Y-109254000D01*
X189853924Y-109254000D01*
X190081318Y-109208769D01*
X190295519Y-109120044D01*
X190488294Y-108991236D01*
X190652236Y-108827294D01*
X190781044Y-108634519D01*
X190869769Y-108420318D01*
X190915000Y-108192924D01*
X190915000Y-107961076D01*
X191101000Y-107961076D01*
X191101000Y-108192924D01*
X191146231Y-108420318D01*
X191234956Y-108634519D01*
X191363764Y-108827294D01*
X191527706Y-108991236D01*
X191720481Y-109120044D01*
X191934682Y-109208769D01*
X192162076Y-109254000D01*
X192393924Y-109254000D01*
X192621318Y-109208769D01*
X192835519Y-109120044D01*
X193028294Y-108991236D01*
X193192236Y-108827294D01*
X193321044Y-108634519D01*
X193409769Y-108420318D01*
X193455000Y-108192924D01*
X193455000Y-107961076D01*
X193641000Y-107961076D01*
X193641000Y-108192924D01*
X193686231Y-108420318D01*
X193774956Y-108634519D01*
X193903764Y-108827294D01*
X194067706Y-108991236D01*
X194260481Y-109120044D01*
X194474682Y-109208769D01*
X194702076Y-109254000D01*
X194933924Y-109254000D01*
X195161318Y-109208769D01*
X195375519Y-109120044D01*
X195568294Y-108991236D01*
X195732236Y-108827294D01*
X195861044Y-108634519D01*
X195949769Y-108420318D01*
X195995000Y-108192924D01*
X195995000Y-107961076D01*
X196181000Y-107961076D01*
X196181000Y-108192924D01*
X196226231Y-108420318D01*
X196314956Y-108634519D01*
X196443764Y-108827294D01*
X196607706Y-108991236D01*
X196800481Y-109120044D01*
X197014682Y-109208769D01*
X197242076Y-109254000D01*
X197473924Y-109254000D01*
X197701318Y-109208769D01*
X197915519Y-109120044D01*
X198108294Y-108991236D01*
X198272236Y-108827294D01*
X198401044Y-108634519D01*
X198489769Y-108420318D01*
X198535000Y-108192924D01*
X198535000Y-107961076D01*
X198721000Y-107961076D01*
X198721000Y-108192924D01*
X198766231Y-108420318D01*
X198854956Y-108634519D01*
X198983764Y-108827294D01*
X199147706Y-108991236D01*
X199340481Y-109120044D01*
X199554682Y-109208769D01*
X199782076Y-109254000D01*
X200013924Y-109254000D01*
X200241318Y-109208769D01*
X200455519Y-109120044D01*
X200648294Y-108991236D01*
X200812236Y-108827294D01*
X200941044Y-108634519D01*
X201029769Y-108420318D01*
X201075000Y-108192924D01*
X201075000Y-107961076D01*
X201261000Y-107961076D01*
X201261000Y-108192924D01*
X201306231Y-108420318D01*
X201394956Y-108634519D01*
X201523764Y-108827294D01*
X201687706Y-108991236D01*
X201880481Y-109120044D01*
X202094682Y-109208769D01*
X202322076Y-109254000D01*
X202553924Y-109254000D01*
X202781318Y-109208769D01*
X202995519Y-109120044D01*
X203188294Y-108991236D01*
X203352236Y-108827294D01*
X203481044Y-108634519D01*
X203569769Y-108420318D01*
X203615000Y-108192924D01*
X203615000Y-107961076D01*
X203801000Y-107961076D01*
X203801000Y-108192924D01*
X203846231Y-108420318D01*
X203934956Y-108634519D01*
X204063764Y-108827294D01*
X204227706Y-108991236D01*
X204420481Y-109120044D01*
X204634682Y-109208769D01*
X204862076Y-109254000D01*
X205093924Y-109254000D01*
X205321318Y-109208769D01*
X205535519Y-109120044D01*
X205728294Y-108991236D01*
X205892236Y-108827294D01*
X206021044Y-108634519D01*
X206109769Y-108420318D01*
X206155000Y-108192924D01*
X206155000Y-107961076D01*
X206109769Y-107733682D01*
X206021044Y-107519481D01*
X205892236Y-107326706D01*
X205728294Y-107162764D01*
X205535519Y-107033956D01*
X205321318Y-106945231D01*
X205093924Y-106900000D01*
X204862076Y-106900000D01*
X204634682Y-106945231D01*
X204420481Y-107033956D01*
X204227706Y-107162764D01*
X204063764Y-107326706D01*
X203934956Y-107519481D01*
X203846231Y-107733682D01*
X203801000Y-107961076D01*
X203615000Y-107961076D01*
X203569769Y-107733682D01*
X203481044Y-107519481D01*
X203352236Y-107326706D01*
X203188294Y-107162764D01*
X202995519Y-107033956D01*
X202781318Y-106945231D01*
X202553924Y-106900000D01*
X202322076Y-106900000D01*
X202094682Y-106945231D01*
X201880481Y-107033956D01*
X201687706Y-107162764D01*
X201523764Y-107326706D01*
X201394956Y-107519481D01*
X201306231Y-107733682D01*
X201261000Y-107961076D01*
X201075000Y-107961076D01*
X201029769Y-107733682D01*
X200941044Y-107519481D01*
X200812236Y-107326706D01*
X200648294Y-107162764D01*
X200455519Y-107033956D01*
X200241318Y-106945231D01*
X200013924Y-106900000D01*
X199782076Y-106900000D01*
X199554682Y-106945231D01*
X199340481Y-107033956D01*
X199147706Y-107162764D01*
X198983764Y-107326706D01*
X198854956Y-107519481D01*
X198766231Y-107733682D01*
X198721000Y-107961076D01*
X198535000Y-107961076D01*
X198489769Y-107733682D01*
X198401044Y-107519481D01*
X198272236Y-107326706D01*
X198108294Y-107162764D01*
X197915519Y-107033956D01*
X197701318Y-106945231D01*
X197473924Y-106900000D01*
X197242076Y-106900000D01*
X197014682Y-106945231D01*
X196800481Y-107033956D01*
X196607706Y-107162764D01*
X196443764Y-107326706D01*
X196314956Y-107519481D01*
X196226231Y-107733682D01*
X196181000Y-107961076D01*
X195995000Y-107961076D01*
X195949769Y-107733682D01*
X195861044Y-107519481D01*
X195732236Y-107326706D01*
X195568294Y-107162764D01*
X195375519Y-107033956D01*
X195161318Y-106945231D01*
X194933924Y-106900000D01*
X194702076Y-106900000D01*
X194474682Y-106945231D01*
X194260481Y-107033956D01*
X194067706Y-107162764D01*
X193903764Y-107326706D01*
X193774956Y-107519481D01*
X193686231Y-107733682D01*
X193641000Y-107961076D01*
X193455000Y-107961076D01*
X193409769Y-107733682D01*
X193321044Y-107519481D01*
X193192236Y-107326706D01*
X193028294Y-107162764D01*
X192835519Y-107033956D01*
X192621318Y-106945231D01*
X192393924Y-106900000D01*
X192162076Y-106900000D01*
X191934682Y-106945231D01*
X191720481Y-107033956D01*
X191527706Y-107162764D01*
X191363764Y-107326706D01*
X191234956Y-107519481D01*
X191146231Y-107733682D01*
X191101000Y-107961076D01*
X190915000Y-107961076D01*
X190869769Y-107733682D01*
X190781044Y-107519481D01*
X190652236Y-107326706D01*
X190488294Y-107162764D01*
X190295519Y-107033956D01*
X190081318Y-106945231D01*
X189853924Y-106900000D01*
X189622076Y-106900000D01*
X189394682Y-106945231D01*
X189180481Y-107033956D01*
X188987706Y-107162764D01*
X188823764Y-107326706D01*
X188694956Y-107519481D01*
X188606231Y-107733682D01*
X188561000Y-107961076D01*
X188375000Y-107961076D01*
X188329769Y-107733682D01*
X188241044Y-107519481D01*
X188112236Y-107326706D01*
X187948294Y-107162764D01*
X187755519Y-107033956D01*
X187541318Y-106945231D01*
X187313924Y-106900000D01*
X187082076Y-106900000D01*
X186854682Y-106945231D01*
X186640481Y-107033956D01*
X186447706Y-107162764D01*
X186283764Y-107326706D01*
X186154956Y-107519481D01*
X186066231Y-107733682D01*
X186021000Y-107961076D01*
X185835000Y-107961076D01*
X185789769Y-107733682D01*
X185701044Y-107519481D01*
X185572236Y-107326706D01*
X185408294Y-107162764D01*
X185215519Y-107033956D01*
X185001318Y-106945231D01*
X184773924Y-106900000D01*
X184542076Y-106900000D01*
X184314682Y-106945231D01*
X184100481Y-107033956D01*
X183907706Y-107162764D01*
X183743764Y-107326706D01*
X183614956Y-107519481D01*
X183526231Y-107733682D01*
X183481000Y-107961076D01*
X183295000Y-107961076D01*
X183249769Y-107733682D01*
X183161044Y-107519481D01*
X183032236Y-107326706D01*
X182868294Y-107162764D01*
X182675519Y-107033956D01*
X182461318Y-106945231D01*
X182233924Y-106900000D01*
X182002076Y-106900000D01*
X181774682Y-106945231D01*
X181560481Y-107033956D01*
X181367706Y-107162764D01*
X181203764Y-107326706D01*
X181074956Y-107519481D01*
X180986231Y-107733682D01*
X180941000Y-107961076D01*
X180755000Y-107961076D01*
X180709769Y-107733682D01*
X180621044Y-107519481D01*
X180492236Y-107326706D01*
X180328294Y-107162764D01*
X180135519Y-107033956D01*
X179921318Y-106945231D01*
X179693924Y-106900000D01*
X179462076Y-106900000D01*
X179234682Y-106945231D01*
X179020481Y-107033956D01*
X178827706Y-107162764D01*
X178663764Y-107326706D01*
X178534956Y-107519481D01*
X178446231Y-107733682D01*
X178401000Y-107961076D01*
X178215000Y-107961076D01*
X178169769Y-107733682D01*
X178081044Y-107519481D01*
X177952236Y-107326706D01*
X177788294Y-107162764D01*
X177595519Y-107033956D01*
X177381318Y-106945231D01*
X177153924Y-106900000D01*
X176922076Y-106900000D01*
X176694682Y-106945231D01*
X176480481Y-107033956D01*
X176287706Y-107162764D01*
X176123764Y-107326706D01*
X175994956Y-107519481D01*
X175906231Y-107733682D01*
X175861000Y-107961076D01*
X175675000Y-107961076D01*
X175629769Y-107733682D01*
X175541044Y-107519481D01*
X175412236Y-107326706D01*
X175248294Y-107162764D01*
X175055519Y-107033956D01*
X174841318Y-106945231D01*
X174613924Y-106900000D01*
X174382076Y-106900000D01*
X174154682Y-106945231D01*
X173940481Y-107033956D01*
X173747706Y-107162764D01*
X173583764Y-107326706D01*
X173454956Y-107519481D01*
X173366231Y-107733682D01*
X173321000Y-107961076D01*
X173135000Y-107961076D01*
X173089769Y-107733682D01*
X173001044Y-107519481D01*
X172872236Y-107326706D01*
X172708294Y-107162764D01*
X172515519Y-107033956D01*
X172301318Y-106945231D01*
X172073924Y-106900000D01*
X171842076Y-106900000D01*
X171614682Y-106945231D01*
X171400481Y-107033956D01*
X171207706Y-107162764D01*
X171043764Y-107326706D01*
X170914956Y-107519481D01*
X170826231Y-107733682D01*
X170781000Y-107961076D01*
X170595000Y-107961076D01*
X170549769Y-107733682D01*
X170461044Y-107519481D01*
X170332236Y-107326706D01*
X170168294Y-107162764D01*
X169975519Y-107033956D01*
X169761318Y-106945231D01*
X169533924Y-106900000D01*
X169302076Y-106900000D01*
X169074682Y-106945231D01*
X168860481Y-107033956D01*
X168667706Y-107162764D01*
X168503764Y-107326706D01*
X168374956Y-107519481D01*
X168286231Y-107733682D01*
X168241000Y-107961076D01*
X168055000Y-107961076D01*
X168009769Y-107733682D01*
X167921044Y-107519481D01*
X167792236Y-107326706D01*
X167628294Y-107162764D01*
X167435519Y-107033956D01*
X167221318Y-106945231D01*
X166993924Y-106900000D01*
X166762076Y-106900000D01*
X166534682Y-106945231D01*
X166320481Y-107033956D01*
X166127706Y-107162764D01*
X165963764Y-107326706D01*
X165834956Y-107519481D01*
X165746231Y-107733682D01*
X165701000Y-107961076D01*
X165515000Y-107961076D01*
X165469769Y-107733682D01*
X165381044Y-107519481D01*
X165252236Y-107326706D01*
X165088294Y-107162764D01*
X164895519Y-107033956D01*
X164681318Y-106945231D01*
X164453924Y-106900000D01*
X164222076Y-106900000D01*
X163994682Y-106945231D01*
X163780481Y-107033956D01*
X163587706Y-107162764D01*
X163423764Y-107326706D01*
X163294956Y-107519481D01*
X163206231Y-107733682D01*
X163161000Y-107961076D01*
X162975000Y-107961076D01*
X162929769Y-107733682D01*
X162841044Y-107519481D01*
X162712236Y-107326706D01*
X162548294Y-107162764D01*
X162355519Y-107033956D01*
X162141318Y-106945231D01*
X161913924Y-106900000D01*
X161682076Y-106900000D01*
X161454682Y-106945231D01*
X161240481Y-107033956D01*
X161047706Y-107162764D01*
X160883764Y-107326706D01*
X160754956Y-107519481D01*
X160666231Y-107733682D01*
X160621000Y-107961076D01*
X160435000Y-107961076D01*
X160389769Y-107733682D01*
X160301044Y-107519481D01*
X160172236Y-107326706D01*
X160008294Y-107162764D01*
X159815519Y-107033956D01*
X159601318Y-106945231D01*
X159373924Y-106900000D01*
X159142076Y-106900000D01*
X158914682Y-106945231D01*
X158700481Y-107033956D01*
X158507706Y-107162764D01*
X158343764Y-107326706D01*
X158214956Y-107519481D01*
X158126231Y-107733682D01*
X158081000Y-107961076D01*
X157895000Y-107961076D01*
X157849769Y-107733682D01*
X157761044Y-107519481D01*
X157632236Y-107326706D01*
X157468294Y-107162764D01*
X157275519Y-107033956D01*
X157061318Y-106945231D01*
X156833924Y-106900000D01*
X156602076Y-106900000D01*
X156374682Y-106945231D01*
X156160481Y-107033956D01*
X155967706Y-107162764D01*
X155803764Y-107326706D01*
X155674956Y-107519481D01*
X155586231Y-107733682D01*
X155541000Y-107961076D01*
X155355000Y-107961076D01*
X155309769Y-107733682D01*
X155221044Y-107519481D01*
X155092236Y-107326706D01*
X154928294Y-107162764D01*
X154735519Y-107033956D01*
X154521318Y-106945231D01*
X154293924Y-106900000D01*
X154062076Y-106900000D01*
X153834682Y-106945231D01*
X153620481Y-107033956D01*
X153427706Y-107162764D01*
X153263764Y-107326706D01*
X153134956Y-107519481D01*
X153046231Y-107733682D01*
X153001000Y-107961076D01*
X152815000Y-107961076D01*
X152769769Y-107733682D01*
X152681044Y-107519481D01*
X152552236Y-107326706D01*
X152388294Y-107162764D01*
X152195519Y-107033956D01*
X151981318Y-106945231D01*
X151753924Y-106900000D01*
X151522076Y-106900000D01*
X151294682Y-106945231D01*
X151080481Y-107033956D01*
X150887706Y-107162764D01*
X150723764Y-107326706D01*
X150594956Y-107519481D01*
X150506231Y-107733682D01*
X150461000Y-107961076D01*
X150275000Y-107961076D01*
X150229769Y-107733682D01*
X150141044Y-107519481D01*
X150012236Y-107326706D01*
X149848294Y-107162764D01*
X149655519Y-107033956D01*
X149441318Y-106945231D01*
X149213924Y-106900000D01*
X148982076Y-106900000D01*
X148754682Y-106945231D01*
X148540481Y-107033956D01*
X148347706Y-107162764D01*
X148183764Y-107326706D01*
X148054956Y-107519481D01*
X147993741Y-107667268D01*
X147996072Y-107277000D01*
X147983812Y-107152518D01*
X147947502Y-107032820D01*
X147888537Y-106922506D01*
X147809185Y-106825815D01*
X147712494Y-106746463D01*
X147602180Y-106687498D01*
X147482482Y-106651188D01*
X147358000Y-106638928D01*
X146843750Y-106642000D01*
X146685000Y-106800750D01*
X146431000Y-106800750D01*
X146272250Y-106642000D01*
X145758000Y-106638928D01*
X145633518Y-106651188D01*
X145513820Y-106687498D01*
X145403506Y-106746463D01*
X145306815Y-106825815D01*
X145227463Y-106922506D01*
X145168498Y-107032820D01*
X145132188Y-107152518D01*
X145119928Y-107277000D01*
X131974000Y-107277000D01*
X131974000Y-102325356D01*
X165844890Y-102325356D01*
X165844890Y-102448864D01*
X165868985Y-102569999D01*
X165916250Y-102684106D01*
X165984867Y-102786799D01*
X166018691Y-102820623D01*
X166018690Y-103515858D01*
X166016498Y-103538112D01*
X166018690Y-103560366D01*
X166018690Y-103560367D01*
X166025248Y-103626954D01*
X166047185Y-103699267D01*
X166051163Y-103712382D01*
X166093245Y-103791114D01*
X166094889Y-103793117D01*
X166094889Y-103849865D01*
X166118984Y-103971000D01*
X166166249Y-104085107D01*
X166234866Y-104187800D01*
X166322200Y-104275134D01*
X166424893Y-104343751D01*
X166539000Y-104391016D01*
X166660135Y-104415111D01*
X166783643Y-104415111D01*
X166904778Y-104391016D01*
X167018885Y-104343751D01*
X167121578Y-104275134D01*
X167208912Y-104187800D01*
X167277529Y-104085107D01*
X167324794Y-103971000D01*
X167348889Y-103849865D01*
X167348889Y-103726357D01*
X167324794Y-103605222D01*
X167277529Y-103491115D01*
X167208912Y-103388422D01*
X167121578Y-103301088D01*
X167018885Y-103232471D01*
X166925090Y-103193620D01*
X166925090Y-102820622D01*
X166958913Y-102786799D01*
X167027530Y-102684106D01*
X167074795Y-102569999D01*
X167098890Y-102448864D01*
X167098890Y-102325356D01*
X167074795Y-102204221D01*
X167027530Y-102090114D01*
X166958913Y-101987421D01*
X166871579Y-101900087D01*
X166768886Y-101831470D01*
X166654779Y-101784205D01*
X166533644Y-101760110D01*
X166410136Y-101760110D01*
X166289001Y-101784205D01*
X166174894Y-101831470D01*
X166072201Y-101900087D01*
X165984867Y-101987421D01*
X165916250Y-102090114D01*
X165868985Y-102204221D01*
X165844890Y-102325356D01*
X131974000Y-102325356D01*
X131974000Y-100141246D01*
X168029000Y-100141246D01*
X168029000Y-100264754D01*
X168053095Y-100385889D01*
X168100360Y-100499996D01*
X168168977Y-100602689D01*
X168256311Y-100690023D01*
X168359004Y-100758640D01*
X168473111Y-100805905D01*
X168594246Y-100830000D01*
X168642079Y-100830000D01*
X168918000Y-101105922D01*
X168918000Y-101153754D01*
X168942095Y-101274889D01*
X168989360Y-101388996D01*
X169057977Y-101491689D01*
X169145311Y-101579023D01*
X169248004Y-101647640D01*
X169362111Y-101694905D01*
X169483246Y-101719000D01*
X169606754Y-101719000D01*
X169727889Y-101694905D01*
X169841996Y-101647640D01*
X169944689Y-101579023D01*
X170032023Y-101491689D01*
X170100640Y-101388996D01*
X170147905Y-101274889D01*
X170172000Y-101153754D01*
X170172000Y-101030246D01*
X170147905Y-100909111D01*
X170100640Y-100795004D01*
X170032023Y-100692311D01*
X169944689Y-100604977D01*
X169841996Y-100536360D01*
X169727889Y-100489095D01*
X169606754Y-100465000D01*
X169558922Y-100465000D01*
X169283000Y-100189079D01*
X169283000Y-100141246D01*
X169258905Y-100020111D01*
X169211640Y-99906004D01*
X169143023Y-99803311D01*
X169055689Y-99715977D01*
X168952996Y-99647360D01*
X168838889Y-99600095D01*
X168717754Y-99576000D01*
X168594246Y-99576000D01*
X168473111Y-99600095D01*
X168359004Y-99647360D01*
X168256311Y-99715977D01*
X168168977Y-99803311D01*
X168100360Y-99906004D01*
X168053095Y-100020111D01*
X168029000Y-100141246D01*
X131974000Y-100141246D01*
X131974000Y-97474246D01*
X179332006Y-97474246D01*
X179332006Y-97597754D01*
X179356101Y-97718889D01*
X179403366Y-97832996D01*
X179471983Y-97935689D01*
X179559317Y-98023023D01*
X179662010Y-98091640D01*
X179776117Y-98138905D01*
X179897252Y-98163000D01*
X180020760Y-98163000D01*
X180141895Y-98138905D01*
X180256002Y-98091640D01*
X180358695Y-98023023D01*
X180392518Y-97989200D01*
X180795488Y-97989200D01*
X180829311Y-98023023D01*
X180932004Y-98091640D01*
X181046111Y-98138905D01*
X181167246Y-98163000D01*
X181290754Y-98163000D01*
X181411889Y-98138905D01*
X181525996Y-98091640D01*
X181628689Y-98023023D01*
X181716023Y-97935689D01*
X181784640Y-97832996D01*
X181831905Y-97718889D01*
X181856000Y-97597754D01*
X181856000Y-97474246D01*
X184793000Y-97474246D01*
X184793000Y-97597754D01*
X184817095Y-97718889D01*
X184864360Y-97832996D01*
X184932977Y-97935689D01*
X185020311Y-98023023D01*
X185123004Y-98091640D01*
X185237111Y-98138905D01*
X185358246Y-98163000D01*
X185481754Y-98163000D01*
X185602889Y-98138905D01*
X185716996Y-98091640D01*
X185819689Y-98023023D01*
X185853512Y-97989200D01*
X186383488Y-97989200D01*
X186417311Y-98023023D01*
X186520004Y-98091640D01*
X186634111Y-98138905D01*
X186755246Y-98163000D01*
X186878754Y-98163000D01*
X186999889Y-98138905D01*
X187113996Y-98091640D01*
X187216689Y-98023023D01*
X187304023Y-97935689D01*
X187372640Y-97832996D01*
X187419905Y-97718889D01*
X187444000Y-97597754D01*
X187444000Y-97474246D01*
X187419905Y-97353111D01*
X187372640Y-97239004D01*
X187304023Y-97136311D01*
X187216689Y-97048977D01*
X187113996Y-96980360D01*
X186999889Y-96933095D01*
X186878754Y-96909000D01*
X186755246Y-96909000D01*
X186634111Y-96933095D01*
X186520004Y-96980360D01*
X186417311Y-97048977D01*
X186383488Y-97082800D01*
X185853512Y-97082800D01*
X185819689Y-97048977D01*
X185716996Y-96980360D01*
X185602889Y-96933095D01*
X185481754Y-96909000D01*
X185358246Y-96909000D01*
X185237111Y-96933095D01*
X185123004Y-96980360D01*
X185020311Y-97048977D01*
X184932977Y-97136311D01*
X184864360Y-97239004D01*
X184817095Y-97353111D01*
X184793000Y-97474246D01*
X181856000Y-97474246D01*
X181831905Y-97353111D01*
X181784640Y-97239004D01*
X181716023Y-97136311D01*
X181628689Y-97048977D01*
X181525996Y-96980360D01*
X181411889Y-96933095D01*
X181290754Y-96909000D01*
X181167246Y-96909000D01*
X181046111Y-96933095D01*
X180932004Y-96980360D01*
X180829311Y-97048977D01*
X180795488Y-97082800D01*
X180392518Y-97082800D01*
X180358695Y-97048977D01*
X180256002Y-96980360D01*
X180141895Y-96933095D01*
X180020760Y-96909000D01*
X179897252Y-96909000D01*
X179776117Y-96933095D01*
X179662010Y-96980360D01*
X179559317Y-97048977D01*
X179471983Y-97136311D01*
X179403366Y-97239004D01*
X179356101Y-97353111D01*
X179332006Y-97474246D01*
X131974000Y-97474246D01*
X131974000Y-92721076D01*
X145381000Y-92721076D01*
X145381000Y-92952924D01*
X145426231Y-93180318D01*
X145514956Y-93394519D01*
X145643764Y-93587294D01*
X145807706Y-93751236D01*
X146000481Y-93880044D01*
X146214682Y-93968769D01*
X146442076Y-94014000D01*
X146673924Y-94014000D01*
X146901318Y-93968769D01*
X147115519Y-93880044D01*
X147190861Y-93829702D01*
X148284903Y-93829702D01*
X148356486Y-94073671D01*
X148611996Y-94194571D01*
X148886184Y-94263300D01*
X149168512Y-94277217D01*
X149448130Y-94235787D01*
X149714292Y-94140603D01*
X149839514Y-94073671D01*
X149911097Y-93829702D01*
X149098000Y-93016605D01*
X148284903Y-93829702D01*
X147190861Y-93829702D01*
X147308294Y-93751236D01*
X147472236Y-93587294D01*
X147601044Y-93394519D01*
X147689769Y-93180318D01*
X147694603Y-93156016D01*
X147699213Y-93187130D01*
X147794397Y-93453292D01*
X147861329Y-93578514D01*
X148105298Y-93650097D01*
X148918395Y-92837000D01*
X149277605Y-92837000D01*
X150090702Y-93650097D01*
X150334671Y-93578514D01*
X150455571Y-93323004D01*
X150499641Y-93147189D01*
X150506231Y-93180318D01*
X150594956Y-93394519D01*
X150723764Y-93587294D01*
X150887706Y-93751236D01*
X151080481Y-93880044D01*
X151294682Y-93968769D01*
X151522076Y-94014000D01*
X151753924Y-94014000D01*
X151981318Y-93968769D01*
X152195519Y-93880044D01*
X152388294Y-93751236D01*
X152552236Y-93587294D01*
X152681044Y-93394519D01*
X152769769Y-93180318D01*
X152815000Y-92952924D01*
X152815000Y-92721076D01*
X153001000Y-92721076D01*
X153001000Y-92952924D01*
X153046231Y-93180318D01*
X153134956Y-93394519D01*
X153263764Y-93587294D01*
X153427706Y-93751236D01*
X153620481Y-93880044D01*
X153834682Y-93968769D01*
X154062076Y-94014000D01*
X154293924Y-94014000D01*
X154521318Y-93968769D01*
X154735519Y-93880044D01*
X154928294Y-93751236D01*
X155092236Y-93587294D01*
X155221044Y-93394519D01*
X155309769Y-93180318D01*
X155355000Y-92952924D01*
X155355000Y-92721076D01*
X155541000Y-92721076D01*
X155541000Y-92952924D01*
X155586231Y-93180318D01*
X155674956Y-93394519D01*
X155803764Y-93587294D01*
X155967706Y-93751236D01*
X156160481Y-93880044D01*
X156374682Y-93968769D01*
X156602076Y-94014000D01*
X156833924Y-94014000D01*
X157061318Y-93968769D01*
X157275519Y-93880044D01*
X157468294Y-93751236D01*
X157632236Y-93587294D01*
X157761044Y-93394519D01*
X157849769Y-93180318D01*
X157895000Y-92952924D01*
X157895000Y-92721076D01*
X158081000Y-92721076D01*
X158081000Y-92952924D01*
X158126231Y-93180318D01*
X158214956Y-93394519D01*
X158343764Y-93587294D01*
X158507706Y-93751236D01*
X158700481Y-93880044D01*
X158914682Y-93968769D01*
X159142076Y-94014000D01*
X159373924Y-94014000D01*
X159601318Y-93968769D01*
X159647000Y-93949847D01*
X159647000Y-94041754D01*
X159671095Y-94162889D01*
X159718360Y-94276996D01*
X159786977Y-94379689D01*
X159820800Y-94413512D01*
X159820801Y-94943487D01*
X159786977Y-94977311D01*
X159718360Y-95080004D01*
X159671095Y-95194111D01*
X159647000Y-95315246D01*
X159647000Y-95438754D01*
X159671095Y-95559889D01*
X159718360Y-95673996D01*
X159786977Y-95776689D01*
X159874311Y-95864023D01*
X159977004Y-95932640D01*
X160091111Y-95979905D01*
X160212246Y-96004000D01*
X160335754Y-96004000D01*
X160456889Y-95979905D01*
X160570996Y-95932640D01*
X160673689Y-95864023D01*
X160761023Y-95776689D01*
X160829640Y-95673996D01*
X160876905Y-95559889D01*
X160901000Y-95438754D01*
X160901000Y-95315246D01*
X160876905Y-95194111D01*
X160829640Y-95080004D01*
X160761023Y-94977311D01*
X160727200Y-94943488D01*
X160727200Y-94413512D01*
X160761023Y-94379689D01*
X160829640Y-94276996D01*
X160876905Y-94162889D01*
X160901000Y-94041754D01*
X160901000Y-93918246D01*
X160876905Y-93797111D01*
X160829640Y-93683004D01*
X160761023Y-93580311D01*
X160673689Y-93492977D01*
X160570996Y-93424360D01*
X160456889Y-93377095D01*
X160335754Y-93353000D01*
X160318242Y-93353000D01*
X160389769Y-93180318D01*
X160435000Y-92952924D01*
X160435000Y-92721076D01*
X160621000Y-92721076D01*
X160621000Y-92952924D01*
X160666231Y-93180318D01*
X160754956Y-93394519D01*
X160883764Y-93587294D01*
X161047706Y-93751236D01*
X161240481Y-93880044D01*
X161454682Y-93968769D01*
X161682076Y-94014000D01*
X161913924Y-94014000D01*
X162141318Y-93968769D01*
X162314000Y-93897242D01*
X162314000Y-93914754D01*
X162338095Y-94035889D01*
X162385360Y-94149996D01*
X162453977Y-94252689D01*
X162487800Y-94286512D01*
X162487801Y-94816487D01*
X162453977Y-94850311D01*
X162385360Y-94953004D01*
X162338095Y-95067111D01*
X162314000Y-95188246D01*
X162314000Y-95311754D01*
X162338095Y-95432889D01*
X162385360Y-95546996D01*
X162453977Y-95649689D01*
X162541311Y-95737023D01*
X162644004Y-95805640D01*
X162758111Y-95852905D01*
X162879246Y-95877000D01*
X163002754Y-95877000D01*
X163123889Y-95852905D01*
X163237996Y-95805640D01*
X163340689Y-95737023D01*
X163428023Y-95649689D01*
X163496640Y-95546996D01*
X163543905Y-95432889D01*
X163568000Y-95311754D01*
X163568000Y-95188246D01*
X163543905Y-95067111D01*
X163496640Y-94953004D01*
X163428023Y-94850311D01*
X163394200Y-94816488D01*
X163394200Y-94286512D01*
X163428023Y-94252689D01*
X163496640Y-94149996D01*
X163543905Y-94035889D01*
X163568000Y-93914754D01*
X163568000Y-93791246D01*
X163553173Y-93716703D01*
X163587706Y-93751236D01*
X163780481Y-93880044D01*
X163994682Y-93968769D01*
X164222076Y-94014000D01*
X164453924Y-94014000D01*
X164681318Y-93968769D01*
X164895519Y-93880044D01*
X165088294Y-93751236D01*
X165252236Y-93587294D01*
X165381044Y-93394519D01*
X165469769Y-93180318D01*
X165515000Y-92952924D01*
X165515000Y-92721076D01*
X165701000Y-92721076D01*
X165701000Y-92952924D01*
X165746231Y-93180318D01*
X165834956Y-93394519D01*
X165963764Y-93587294D01*
X166127706Y-93751236D01*
X166320481Y-93880044D01*
X166534682Y-93968769D01*
X166762076Y-94014000D01*
X166993924Y-94014000D01*
X167221318Y-93968769D01*
X167435519Y-93880044D01*
X167628294Y-93751236D01*
X167792236Y-93587294D01*
X167921044Y-93394519D01*
X168009769Y-93180318D01*
X168055000Y-92952924D01*
X168055000Y-92721076D01*
X168241000Y-92721076D01*
X168241000Y-92952924D01*
X168286231Y-93180318D01*
X168374956Y-93394519D01*
X168503764Y-93587294D01*
X168667706Y-93751236D01*
X168860481Y-93880044D01*
X169074682Y-93968769D01*
X169302076Y-94014000D01*
X169533924Y-94014000D01*
X169761318Y-93968769D01*
X169975519Y-93880044D01*
X170168294Y-93751236D01*
X170332236Y-93587294D01*
X170461044Y-93394519D01*
X170549769Y-93180318D01*
X170595000Y-92952924D01*
X170595000Y-92721076D01*
X170781000Y-92721076D01*
X170781000Y-92952924D01*
X170826231Y-93180318D01*
X170914956Y-93394519D01*
X171043764Y-93587294D01*
X171207706Y-93751236D01*
X171400481Y-93880044D01*
X171614682Y-93968769D01*
X171842076Y-94014000D01*
X172073924Y-94014000D01*
X172301318Y-93968769D01*
X172515519Y-93880044D01*
X172708294Y-93751236D01*
X172872236Y-93587294D01*
X173001044Y-93394519D01*
X173089769Y-93180318D01*
X173135000Y-92952924D01*
X173135000Y-92721076D01*
X173321000Y-92721076D01*
X173321000Y-92952924D01*
X173366231Y-93180318D01*
X173454956Y-93394519D01*
X173583764Y-93587294D01*
X173747706Y-93751236D01*
X173940481Y-93880044D01*
X174154682Y-93968769D01*
X174382076Y-94014000D01*
X174613924Y-94014000D01*
X174841318Y-93968769D01*
X175055519Y-93880044D01*
X175248294Y-93751236D01*
X175412236Y-93587294D01*
X175541044Y-93394519D01*
X175629769Y-93180318D01*
X175675000Y-92952924D01*
X175675000Y-92721076D01*
X175861000Y-92721076D01*
X175861000Y-92952924D01*
X175906231Y-93180318D01*
X175994956Y-93394519D01*
X176123764Y-93587294D01*
X176287706Y-93751236D01*
X176480481Y-93880044D01*
X176694682Y-93968769D01*
X176922076Y-94014000D01*
X177153924Y-94014000D01*
X177381318Y-93968769D01*
X177595519Y-93880044D01*
X177788294Y-93751236D01*
X177952236Y-93587294D01*
X178081044Y-93394519D01*
X178169769Y-93180318D01*
X178215000Y-92952924D01*
X178215000Y-92721076D01*
X178401000Y-92721076D01*
X178401000Y-92952924D01*
X178446231Y-93180318D01*
X178534956Y-93394519D01*
X178663764Y-93587294D01*
X178827706Y-93751236D01*
X179020481Y-93880044D01*
X179234682Y-93968769D01*
X179462076Y-94014000D01*
X179693924Y-94014000D01*
X179921318Y-93968769D01*
X180135519Y-93880044D01*
X180328294Y-93751236D01*
X180492236Y-93587294D01*
X180621044Y-93394519D01*
X180709769Y-93180318D01*
X180755000Y-92952924D01*
X180755000Y-92721076D01*
X180941000Y-92721076D01*
X180941000Y-92952924D01*
X180986231Y-93180318D01*
X181074956Y-93394519D01*
X181203764Y-93587294D01*
X181367706Y-93751236D01*
X181560481Y-93880044D01*
X181774682Y-93968769D01*
X182002076Y-94014000D01*
X182233924Y-94014000D01*
X182461318Y-93968769D01*
X182675519Y-93880044D01*
X182868294Y-93751236D01*
X183032236Y-93587294D01*
X183161044Y-93394519D01*
X183249769Y-93180318D01*
X183295000Y-92952924D01*
X183295000Y-92721076D01*
X183481000Y-92721076D01*
X183481000Y-92952924D01*
X183526231Y-93180318D01*
X183614956Y-93394519D01*
X183743764Y-93587294D01*
X183907706Y-93751236D01*
X184100481Y-93880044D01*
X184314682Y-93968769D01*
X184542076Y-94014000D01*
X184773924Y-94014000D01*
X185001318Y-93968769D01*
X185215519Y-93880044D01*
X185408294Y-93751236D01*
X185572236Y-93587294D01*
X185701044Y-93394519D01*
X185789769Y-93180318D01*
X185835000Y-92952924D01*
X185835000Y-92721076D01*
X186021000Y-92721076D01*
X186021000Y-92952924D01*
X186066231Y-93180318D01*
X186154956Y-93394519D01*
X186283764Y-93587294D01*
X186447706Y-93751236D01*
X186640481Y-93880044D01*
X186854682Y-93968769D01*
X187082076Y-94014000D01*
X187313924Y-94014000D01*
X187541318Y-93968769D01*
X187755519Y-93880044D01*
X187948294Y-93751236D01*
X188112236Y-93587294D01*
X188241044Y-93394519D01*
X188329769Y-93180318D01*
X188375000Y-92952924D01*
X188375000Y-92721076D01*
X188561000Y-92721076D01*
X188561000Y-92952924D01*
X188606231Y-93180318D01*
X188694956Y-93394519D01*
X188823764Y-93587294D01*
X188987706Y-93751236D01*
X189180481Y-93880044D01*
X189394682Y-93968769D01*
X189622076Y-94014000D01*
X189853924Y-94014000D01*
X190081318Y-93968769D01*
X190295519Y-93880044D01*
X190488294Y-93751236D01*
X190652236Y-93587294D01*
X190781044Y-93394519D01*
X190869769Y-93180318D01*
X190915000Y-92952924D01*
X190915000Y-92721076D01*
X191101000Y-92721076D01*
X191101000Y-92952924D01*
X191146231Y-93180318D01*
X191234956Y-93394519D01*
X191363764Y-93587294D01*
X191527706Y-93751236D01*
X191720481Y-93880044D01*
X191934682Y-93968769D01*
X192162076Y-94014000D01*
X192393924Y-94014000D01*
X192621318Y-93968769D01*
X192835519Y-93880044D01*
X193028294Y-93751236D01*
X193192236Y-93587294D01*
X193321044Y-93394519D01*
X193409769Y-93180318D01*
X193455000Y-92952924D01*
X193455000Y-92721076D01*
X193641000Y-92721076D01*
X193641000Y-92952924D01*
X193686231Y-93180318D01*
X193774956Y-93394519D01*
X193903764Y-93587294D01*
X194067706Y-93751236D01*
X194260481Y-93880044D01*
X194474682Y-93968769D01*
X194702076Y-94014000D01*
X194933924Y-94014000D01*
X195161318Y-93968769D01*
X195375519Y-93880044D01*
X195568294Y-93751236D01*
X195732236Y-93587294D01*
X195861044Y-93394519D01*
X195949769Y-93180318D01*
X195995000Y-92952924D01*
X195995000Y-92721076D01*
X196181000Y-92721076D01*
X196181000Y-92952924D01*
X196226231Y-93180318D01*
X196314956Y-93394519D01*
X196443764Y-93587294D01*
X196607706Y-93751236D01*
X196800481Y-93880044D01*
X197014682Y-93968769D01*
X197242076Y-94014000D01*
X197473924Y-94014000D01*
X197701318Y-93968769D01*
X197915519Y-93880044D01*
X198108294Y-93751236D01*
X198272236Y-93587294D01*
X198401044Y-93394519D01*
X198489769Y-93180318D01*
X198535000Y-92952924D01*
X198535000Y-92721076D01*
X198721000Y-92721076D01*
X198721000Y-92952924D01*
X198766231Y-93180318D01*
X198854956Y-93394519D01*
X198983764Y-93587294D01*
X199147706Y-93751236D01*
X199340481Y-93880044D01*
X199554682Y-93968769D01*
X199782076Y-94014000D01*
X200013924Y-94014000D01*
X200241318Y-93968769D01*
X200455519Y-93880044D01*
X200648294Y-93751236D01*
X200812236Y-93587294D01*
X200941044Y-93394519D01*
X201029769Y-93180318D01*
X201075000Y-92952924D01*
X201075000Y-92721076D01*
X201261000Y-92721076D01*
X201261000Y-92952924D01*
X201306231Y-93180318D01*
X201394956Y-93394519D01*
X201523764Y-93587294D01*
X201687706Y-93751236D01*
X201880481Y-93880044D01*
X202094682Y-93968769D01*
X202322076Y-94014000D01*
X202553924Y-94014000D01*
X202781318Y-93968769D01*
X202995519Y-93880044D01*
X203188294Y-93751236D01*
X203352236Y-93587294D01*
X203481044Y-93394519D01*
X203569769Y-93180318D01*
X203615000Y-92952924D01*
X203615000Y-92721076D01*
X203801000Y-92721076D01*
X203801000Y-92952924D01*
X203846231Y-93180318D01*
X203934956Y-93394519D01*
X204063764Y-93587294D01*
X204227706Y-93751236D01*
X204420481Y-93880044D01*
X204634682Y-93968769D01*
X204862076Y-94014000D01*
X205093924Y-94014000D01*
X205321318Y-93968769D01*
X205535519Y-93880044D01*
X205728294Y-93751236D01*
X205892236Y-93587294D01*
X206021044Y-93394519D01*
X206109769Y-93180318D01*
X206155000Y-92952924D01*
X206155000Y-92721076D01*
X206109769Y-92493682D01*
X206021044Y-92279481D01*
X205892236Y-92086706D01*
X205728294Y-91922764D01*
X205535519Y-91793956D01*
X205321318Y-91705231D01*
X205093924Y-91660000D01*
X204862076Y-91660000D01*
X204634682Y-91705231D01*
X204420481Y-91793956D01*
X204227706Y-91922764D01*
X204063764Y-92086706D01*
X203934956Y-92279481D01*
X203846231Y-92493682D01*
X203801000Y-92721076D01*
X203615000Y-92721076D01*
X203569769Y-92493682D01*
X203481044Y-92279481D01*
X203352236Y-92086706D01*
X203188294Y-91922764D01*
X202995519Y-91793956D01*
X202781318Y-91705231D01*
X202553924Y-91660000D01*
X202322076Y-91660000D01*
X202094682Y-91705231D01*
X201880481Y-91793956D01*
X201687706Y-91922764D01*
X201523764Y-92086706D01*
X201394956Y-92279481D01*
X201306231Y-92493682D01*
X201261000Y-92721076D01*
X201075000Y-92721076D01*
X201029769Y-92493682D01*
X200941044Y-92279481D01*
X200812236Y-92086706D01*
X200648294Y-91922764D01*
X200455519Y-91793956D01*
X200241318Y-91705231D01*
X200013924Y-91660000D01*
X199782076Y-91660000D01*
X199554682Y-91705231D01*
X199340481Y-91793956D01*
X199147706Y-91922764D01*
X198983764Y-92086706D01*
X198854956Y-92279481D01*
X198766231Y-92493682D01*
X198721000Y-92721076D01*
X198535000Y-92721076D01*
X198489769Y-92493682D01*
X198401044Y-92279481D01*
X198272236Y-92086706D01*
X198108294Y-91922764D01*
X197915519Y-91793956D01*
X197701318Y-91705231D01*
X197473924Y-91660000D01*
X197242076Y-91660000D01*
X197014682Y-91705231D01*
X196800481Y-91793956D01*
X196607706Y-91922764D01*
X196443764Y-92086706D01*
X196314956Y-92279481D01*
X196226231Y-92493682D01*
X196181000Y-92721076D01*
X195995000Y-92721076D01*
X195949769Y-92493682D01*
X195861044Y-92279481D01*
X195732236Y-92086706D01*
X195568294Y-91922764D01*
X195375519Y-91793956D01*
X195161318Y-91705231D01*
X194933924Y-91660000D01*
X194702076Y-91660000D01*
X194474682Y-91705231D01*
X194260481Y-91793956D01*
X194067706Y-91922764D01*
X193903764Y-92086706D01*
X193774956Y-92279481D01*
X193686231Y-92493682D01*
X193641000Y-92721076D01*
X193455000Y-92721076D01*
X193409769Y-92493682D01*
X193321044Y-92279481D01*
X193192236Y-92086706D01*
X193028294Y-91922764D01*
X192835519Y-91793956D01*
X192621318Y-91705231D01*
X192393924Y-91660000D01*
X192162076Y-91660000D01*
X191934682Y-91705231D01*
X191720481Y-91793956D01*
X191527706Y-91922764D01*
X191363764Y-92086706D01*
X191234956Y-92279481D01*
X191146231Y-92493682D01*
X191101000Y-92721076D01*
X190915000Y-92721076D01*
X190869769Y-92493682D01*
X190781044Y-92279481D01*
X190652236Y-92086706D01*
X190488294Y-91922764D01*
X190295519Y-91793956D01*
X190081318Y-91705231D01*
X189853924Y-91660000D01*
X189622076Y-91660000D01*
X189394682Y-91705231D01*
X189180481Y-91793956D01*
X188987706Y-91922764D01*
X188823764Y-92086706D01*
X188694956Y-92279481D01*
X188606231Y-92493682D01*
X188561000Y-92721076D01*
X188375000Y-92721076D01*
X188329769Y-92493682D01*
X188241044Y-92279481D01*
X188112236Y-92086706D01*
X187948294Y-91922764D01*
X187755519Y-91793956D01*
X187541318Y-91705231D01*
X187313924Y-91660000D01*
X187082076Y-91660000D01*
X186854682Y-91705231D01*
X186640481Y-91793956D01*
X186447706Y-91922764D01*
X186283764Y-92086706D01*
X186154956Y-92279481D01*
X186066231Y-92493682D01*
X186021000Y-92721076D01*
X185835000Y-92721076D01*
X185789769Y-92493682D01*
X185701044Y-92279481D01*
X185572236Y-92086706D01*
X185408294Y-91922764D01*
X185215519Y-91793956D01*
X185001318Y-91705231D01*
X184773924Y-91660000D01*
X184542076Y-91660000D01*
X184314682Y-91705231D01*
X184100481Y-91793956D01*
X183907706Y-91922764D01*
X183743764Y-92086706D01*
X183614956Y-92279481D01*
X183526231Y-92493682D01*
X183481000Y-92721076D01*
X183295000Y-92721076D01*
X183249769Y-92493682D01*
X183161044Y-92279481D01*
X183032236Y-92086706D01*
X182868294Y-91922764D01*
X182675519Y-91793956D01*
X182461318Y-91705231D01*
X182233924Y-91660000D01*
X182002076Y-91660000D01*
X181774682Y-91705231D01*
X181560481Y-91793956D01*
X181367706Y-91922764D01*
X181203764Y-92086706D01*
X181074956Y-92279481D01*
X180986231Y-92493682D01*
X180941000Y-92721076D01*
X180755000Y-92721076D01*
X180709769Y-92493682D01*
X180621044Y-92279481D01*
X180492236Y-92086706D01*
X180328294Y-91922764D01*
X180135519Y-91793956D01*
X179921318Y-91705231D01*
X179693924Y-91660000D01*
X179462076Y-91660000D01*
X179234682Y-91705231D01*
X179020481Y-91793956D01*
X178827706Y-91922764D01*
X178663764Y-92086706D01*
X178534956Y-92279481D01*
X178446231Y-92493682D01*
X178401000Y-92721076D01*
X178215000Y-92721076D01*
X178169769Y-92493682D01*
X178081044Y-92279481D01*
X177952236Y-92086706D01*
X177788294Y-91922764D01*
X177595519Y-91793956D01*
X177381318Y-91705231D01*
X177153924Y-91660000D01*
X176922076Y-91660000D01*
X176694682Y-91705231D01*
X176480481Y-91793956D01*
X176287706Y-91922764D01*
X176123764Y-92086706D01*
X175994956Y-92279481D01*
X175906231Y-92493682D01*
X175861000Y-92721076D01*
X175675000Y-92721076D01*
X175629769Y-92493682D01*
X175541044Y-92279481D01*
X175412236Y-92086706D01*
X175248294Y-91922764D01*
X175055519Y-91793956D01*
X174841318Y-91705231D01*
X174613924Y-91660000D01*
X174382076Y-91660000D01*
X174154682Y-91705231D01*
X173940481Y-91793956D01*
X173747706Y-91922764D01*
X173583764Y-92086706D01*
X173454956Y-92279481D01*
X173366231Y-92493682D01*
X173321000Y-92721076D01*
X173135000Y-92721076D01*
X173089769Y-92493682D01*
X173001044Y-92279481D01*
X172872236Y-92086706D01*
X172708294Y-91922764D01*
X172515519Y-91793956D01*
X172301318Y-91705231D01*
X172073924Y-91660000D01*
X171842076Y-91660000D01*
X171614682Y-91705231D01*
X171400481Y-91793956D01*
X171207706Y-91922764D01*
X171043764Y-92086706D01*
X170914956Y-92279481D01*
X170826231Y-92493682D01*
X170781000Y-92721076D01*
X170595000Y-92721076D01*
X170549769Y-92493682D01*
X170461044Y-92279481D01*
X170332236Y-92086706D01*
X170168294Y-91922764D01*
X169975519Y-91793956D01*
X169761318Y-91705231D01*
X169533924Y-91660000D01*
X169302076Y-91660000D01*
X169074682Y-91705231D01*
X168860481Y-91793956D01*
X168667706Y-91922764D01*
X168503764Y-92086706D01*
X168374956Y-92279481D01*
X168286231Y-92493682D01*
X168241000Y-92721076D01*
X168055000Y-92721076D01*
X168009769Y-92493682D01*
X167921044Y-92279481D01*
X167792236Y-92086706D01*
X167628294Y-91922764D01*
X167435519Y-91793956D01*
X167221318Y-91705231D01*
X166993924Y-91660000D01*
X166762076Y-91660000D01*
X166534682Y-91705231D01*
X166320481Y-91793956D01*
X166127706Y-91922764D01*
X165963764Y-92086706D01*
X165834956Y-92279481D01*
X165746231Y-92493682D01*
X165701000Y-92721076D01*
X165515000Y-92721076D01*
X165469769Y-92493682D01*
X165381044Y-92279481D01*
X165252236Y-92086706D01*
X165088294Y-91922764D01*
X164895519Y-91793956D01*
X164681318Y-91705231D01*
X164453924Y-91660000D01*
X164222076Y-91660000D01*
X163994682Y-91705231D01*
X163780481Y-91793956D01*
X163587706Y-91922764D01*
X163423764Y-92086706D01*
X163294956Y-92279481D01*
X163206231Y-92493682D01*
X163161000Y-92721076D01*
X163161000Y-92952924D01*
X163206231Y-93180318D01*
X163261108Y-93312803D01*
X163237996Y-93297360D01*
X163123889Y-93250095D01*
X163002754Y-93226000D01*
X162910847Y-93226000D01*
X162929769Y-93180318D01*
X162975000Y-92952924D01*
X162975000Y-92721076D01*
X162929769Y-92493682D01*
X162841044Y-92279481D01*
X162712236Y-92086706D01*
X162548294Y-91922764D01*
X162355519Y-91793956D01*
X162141318Y-91705231D01*
X161913924Y-91660000D01*
X161682076Y-91660000D01*
X161454682Y-91705231D01*
X161240481Y-91793956D01*
X161047706Y-91922764D01*
X160883764Y-92086706D01*
X160754956Y-92279481D01*
X160666231Y-92493682D01*
X160621000Y-92721076D01*
X160435000Y-92721076D01*
X160389769Y-92493682D01*
X160301044Y-92279481D01*
X160172236Y-92086706D01*
X160008294Y-91922764D01*
X159815519Y-91793956D01*
X159601318Y-91705231D01*
X159373924Y-91660000D01*
X159142076Y-91660000D01*
X158914682Y-91705231D01*
X158700481Y-91793956D01*
X158507706Y-91922764D01*
X158343764Y-92086706D01*
X158214956Y-92279481D01*
X158126231Y-92493682D01*
X158081000Y-92721076D01*
X157895000Y-92721076D01*
X157849769Y-92493682D01*
X157761044Y-92279481D01*
X157632236Y-92086706D01*
X157468294Y-91922764D01*
X157275519Y-91793956D01*
X157061318Y-91705231D01*
X156833924Y-91660000D01*
X156602076Y-91660000D01*
X156374682Y-91705231D01*
X156160481Y-91793956D01*
X155967706Y-91922764D01*
X155803764Y-92086706D01*
X155674956Y-92279481D01*
X155586231Y-92493682D01*
X155541000Y-92721076D01*
X155355000Y-92721076D01*
X155309769Y-92493682D01*
X155221044Y-92279481D01*
X155092236Y-92086706D01*
X154928294Y-91922764D01*
X154735519Y-91793956D01*
X154521318Y-91705231D01*
X154293924Y-91660000D01*
X154062076Y-91660000D01*
X153834682Y-91705231D01*
X153620481Y-91793956D01*
X153427706Y-91922764D01*
X153263764Y-92086706D01*
X153134956Y-92279481D01*
X153046231Y-92493682D01*
X153001000Y-92721076D01*
X152815000Y-92721076D01*
X152769769Y-92493682D01*
X152681044Y-92279481D01*
X152552236Y-92086706D01*
X152388294Y-91922764D01*
X152195519Y-91793956D01*
X151981318Y-91705231D01*
X151753924Y-91660000D01*
X151522076Y-91660000D01*
X151294682Y-91705231D01*
X151080481Y-91793956D01*
X150887706Y-91922764D01*
X150723764Y-92086706D01*
X150594956Y-92279481D01*
X150506231Y-92493682D01*
X150501397Y-92517984D01*
X150496787Y-92486870D01*
X150401603Y-92220708D01*
X150334671Y-92095486D01*
X150090702Y-92023903D01*
X149277605Y-92837000D01*
X148918395Y-92837000D01*
X148105298Y-92023903D01*
X147861329Y-92095486D01*
X147740429Y-92350996D01*
X147696359Y-92526811D01*
X147689769Y-92493682D01*
X147601044Y-92279481D01*
X147472236Y-92086706D01*
X147308294Y-91922764D01*
X147190862Y-91844298D01*
X148284903Y-91844298D01*
X149098000Y-92657395D01*
X149911097Y-91844298D01*
X149839514Y-91600329D01*
X149584004Y-91479429D01*
X149309816Y-91410700D01*
X149027488Y-91396783D01*
X148747870Y-91438213D01*
X148481708Y-91533397D01*
X148356486Y-91600329D01*
X148284903Y-91844298D01*
X147190862Y-91844298D01*
X147115519Y-91793956D01*
X146901318Y-91705231D01*
X146673924Y-91660000D01*
X146442076Y-91660000D01*
X146214682Y-91705231D01*
X146000481Y-91793956D01*
X145807706Y-91922764D01*
X145643764Y-92086706D01*
X145514956Y-92279481D01*
X145426231Y-92493682D01*
X145381000Y-92721076D01*
X131974000Y-92721076D01*
X131974000Y-86010609D01*
X153217538Y-86010609D01*
X153221409Y-86048282D01*
X153313579Y-86273533D01*
X153447922Y-86476474D01*
X153619275Y-86649307D01*
X153821054Y-86785390D01*
X154045504Y-86879493D01*
X154284000Y-86928000D01*
X154559000Y-86928000D01*
X154559000Y-85820000D01*
X154813000Y-85820000D01*
X154813000Y-86928000D01*
X155088000Y-86928000D01*
X155326496Y-86879493D01*
X155550946Y-86785390D01*
X155752725Y-86649307D01*
X155924078Y-86476474D01*
X156058421Y-86273533D01*
X156150591Y-86048282D01*
X156154462Y-86010609D01*
X156029731Y-85820000D01*
X154813000Y-85820000D01*
X154559000Y-85820000D01*
X153342269Y-85820000D01*
X153217538Y-86010609D01*
X131974000Y-86010609D01*
X131974000Y-85567151D01*
X182692000Y-85567151D01*
X182692000Y-85808849D01*
X182739153Y-86045903D01*
X182831647Y-86269202D01*
X182965927Y-86470167D01*
X183136833Y-86641073D01*
X183337798Y-86775353D01*
X183561097Y-86867847D01*
X183798151Y-86915000D01*
X184039849Y-86915000D01*
X184276903Y-86867847D01*
X184500202Y-86775353D01*
X184701167Y-86641073D01*
X184872073Y-86470167D01*
X185006353Y-86269202D01*
X185098847Y-86045903D01*
X185146000Y-85808849D01*
X185146000Y-85567151D01*
X190192000Y-85567151D01*
X190192000Y-85808849D01*
X190239153Y-86045903D01*
X190331647Y-86269202D01*
X190465927Y-86470167D01*
X190636833Y-86641073D01*
X190837798Y-86775353D01*
X191061097Y-86867847D01*
X191298151Y-86915000D01*
X191539849Y-86915000D01*
X191776903Y-86867847D01*
X192000202Y-86775353D01*
X192201167Y-86641073D01*
X192372073Y-86470167D01*
X192506353Y-86269202D01*
X192598847Y-86045903D01*
X192646000Y-85808849D01*
X192646000Y-85567151D01*
X192598847Y-85330097D01*
X192506353Y-85106798D01*
X192372073Y-84905833D01*
X192201167Y-84734927D01*
X192000202Y-84600647D01*
X191776903Y-84508153D01*
X191539849Y-84461000D01*
X191298151Y-84461000D01*
X191061097Y-84508153D01*
X190837798Y-84600647D01*
X190636833Y-84734927D01*
X190465927Y-84905833D01*
X190331647Y-85106798D01*
X190239153Y-85330097D01*
X190192000Y-85567151D01*
X185146000Y-85567151D01*
X185098847Y-85330097D01*
X185006353Y-85106798D01*
X184872073Y-84905833D01*
X184701167Y-84734927D01*
X184500202Y-84600647D01*
X184276903Y-84508153D01*
X184039849Y-84461000D01*
X183798151Y-84461000D01*
X183561097Y-84508153D01*
X183337798Y-84600647D01*
X183136833Y-84734927D01*
X182965927Y-84905833D01*
X182831647Y-85106798D01*
X182739153Y-85330097D01*
X182692000Y-85567151D01*
X131974000Y-85567151D01*
X131974000Y-85375391D01*
X153217538Y-85375391D01*
X153342269Y-85566000D01*
X154559000Y-85566000D01*
X154559000Y-85546000D01*
X154813000Y-85546000D01*
X154813000Y-85566000D01*
X156029731Y-85566000D01*
X156154462Y-85375391D01*
X156150591Y-85337718D01*
X156058421Y-85112467D01*
X155924078Y-84909526D01*
X155752725Y-84736693D01*
X155570566Y-84613842D01*
X155660356Y-84565848D01*
X155755646Y-84487646D01*
X155833848Y-84392356D01*
X155891958Y-84283641D01*
X155927741Y-84165678D01*
X155939824Y-84043001D01*
X155939824Y-83342999D01*
X155927741Y-83220322D01*
X155891958Y-83102359D01*
X155851759Y-83027151D01*
X182692000Y-83027151D01*
X182692000Y-83268849D01*
X182739153Y-83505903D01*
X182831647Y-83729202D01*
X182965927Y-83930167D01*
X183136833Y-84101073D01*
X183337798Y-84235353D01*
X183561097Y-84327847D01*
X183798151Y-84375000D01*
X184039849Y-84375000D01*
X184276903Y-84327847D01*
X184500202Y-84235353D01*
X184701167Y-84101073D01*
X184872073Y-83930167D01*
X185006353Y-83729202D01*
X185098847Y-83505903D01*
X185146000Y-83268849D01*
X185146000Y-83027151D01*
X190192000Y-83027151D01*
X190192000Y-83268849D01*
X190239153Y-83505903D01*
X190331647Y-83729202D01*
X190465927Y-83930167D01*
X190636833Y-84101073D01*
X190837798Y-84235353D01*
X191061097Y-84327847D01*
X191298151Y-84375000D01*
X191539849Y-84375000D01*
X191776903Y-84327847D01*
X192000202Y-84235353D01*
X192201167Y-84101073D01*
X192372073Y-83930167D01*
X192506353Y-83729202D01*
X192598847Y-83505903D01*
X192646000Y-83268849D01*
X192646000Y-83027151D01*
X192598847Y-82790097D01*
X192506353Y-82566798D01*
X192372073Y-82365833D01*
X192201167Y-82194927D01*
X192000202Y-82060647D01*
X191776903Y-81968153D01*
X191539849Y-81921000D01*
X191298151Y-81921000D01*
X191061097Y-81968153D01*
X190837798Y-82060647D01*
X190636833Y-82194927D01*
X190465927Y-82365833D01*
X190331647Y-82566798D01*
X190239153Y-82790097D01*
X190192000Y-83027151D01*
X185146000Y-83027151D01*
X185098847Y-82790097D01*
X185006353Y-82566798D01*
X184872073Y-82365833D01*
X184701167Y-82194927D01*
X184500202Y-82060647D01*
X184392049Y-82015848D01*
X184552747Y-81958919D01*
X184690157Y-81885472D01*
X184767792Y-81636397D01*
X183919000Y-80787605D01*
X183070208Y-81636397D01*
X183147843Y-81885472D01*
X183411883Y-82011371D01*
X183439709Y-82018434D01*
X183337798Y-82060647D01*
X183136833Y-82194927D01*
X182965927Y-82365833D01*
X182831647Y-82566798D01*
X182739153Y-82790097D01*
X182692000Y-83027151D01*
X155851759Y-83027151D01*
X155833848Y-82993644D01*
X155755646Y-82898354D01*
X155660356Y-82820152D01*
X155551641Y-82762042D01*
X155433678Y-82726259D01*
X155311001Y-82714176D01*
X154060999Y-82714176D01*
X153938322Y-82726259D01*
X153820359Y-82762042D01*
X153711644Y-82820152D01*
X153616354Y-82898354D01*
X153538152Y-82993644D01*
X153480042Y-83102359D01*
X153444259Y-83220322D01*
X153432176Y-83342999D01*
X153432176Y-84043001D01*
X153444259Y-84165678D01*
X153480042Y-84283641D01*
X153538152Y-84392356D01*
X153616354Y-84487646D01*
X153711644Y-84565848D01*
X153801434Y-84613842D01*
X153619275Y-84736693D01*
X153447922Y-84909526D01*
X153313579Y-85112467D01*
X153221409Y-85337718D01*
X153217538Y-85375391D01*
X131974000Y-85375391D01*
X131974000Y-80040999D01*
X166005176Y-80040999D01*
X166005176Y-80741001D01*
X166017259Y-80863678D01*
X166053042Y-80981641D01*
X166111152Y-81090356D01*
X166189354Y-81185646D01*
X166284644Y-81263848D01*
X166393359Y-81321958D01*
X166511322Y-81357741D01*
X166633999Y-81369824D01*
X167884001Y-81369824D01*
X168006678Y-81357741D01*
X168124641Y-81321958D01*
X168233356Y-81263848D01*
X168328646Y-81185646D01*
X168406848Y-81090356D01*
X168464958Y-80981641D01*
X168500741Y-80863678D01*
X168512824Y-80741001D01*
X168512824Y-80676531D01*
X182428389Y-80676531D01*
X182470401Y-80966019D01*
X182568081Y-81241747D01*
X182641528Y-81379157D01*
X182890603Y-81456792D01*
X183739395Y-80608000D01*
X184098605Y-80608000D01*
X184947397Y-81456792D01*
X185196472Y-81379157D01*
X185322371Y-81115117D01*
X185394339Y-80831589D01*
X185409611Y-80539469D01*
X185402019Y-80487151D01*
X190192000Y-80487151D01*
X190192000Y-80728849D01*
X190239153Y-80965903D01*
X190331647Y-81189202D01*
X190465927Y-81390167D01*
X190636833Y-81561073D01*
X190837798Y-81695353D01*
X191061097Y-81787847D01*
X191298151Y-81835000D01*
X191539849Y-81835000D01*
X191776903Y-81787847D01*
X192000202Y-81695353D01*
X192201167Y-81561073D01*
X192372073Y-81390167D01*
X192506353Y-81189202D01*
X192598847Y-80965903D01*
X192646000Y-80728849D01*
X192646000Y-80487151D01*
X192598847Y-80250097D01*
X192506353Y-80026798D01*
X192372073Y-79825833D01*
X192201167Y-79654927D01*
X192000202Y-79520647D01*
X191776903Y-79428153D01*
X191539849Y-79381000D01*
X191298151Y-79381000D01*
X191061097Y-79428153D01*
X190837798Y-79520647D01*
X190636833Y-79654927D01*
X190465927Y-79825833D01*
X190331647Y-80026798D01*
X190239153Y-80250097D01*
X190192000Y-80487151D01*
X185402019Y-80487151D01*
X185367599Y-80249981D01*
X185269919Y-79974253D01*
X185196472Y-79836843D01*
X184947397Y-79759208D01*
X184098605Y-80608000D01*
X183739395Y-80608000D01*
X182890603Y-79759208D01*
X182641528Y-79836843D01*
X182515629Y-80100883D01*
X182443661Y-80384411D01*
X182428389Y-80676531D01*
X168512824Y-80676531D01*
X168512824Y-80040999D01*
X168500741Y-79918322D01*
X168464958Y-79800359D01*
X168406848Y-79691644D01*
X168328646Y-79596354D01*
X168233356Y-79518152D01*
X168124641Y-79460042D01*
X168006678Y-79424259D01*
X167884001Y-79412176D01*
X166633999Y-79412176D01*
X166511322Y-79424259D01*
X166393359Y-79460042D01*
X166284644Y-79518152D01*
X166189354Y-79596354D01*
X166111152Y-79691644D01*
X166053042Y-79800359D01*
X166017259Y-79918322D01*
X166005176Y-80040999D01*
X131974000Y-80040999D01*
X131974000Y-78391000D01*
X166002273Y-78391000D01*
X166021137Y-78582525D01*
X166077003Y-78766691D01*
X166167724Y-78936418D01*
X166289814Y-79085186D01*
X166438582Y-79207276D01*
X166608309Y-79297997D01*
X166792475Y-79353863D01*
X166936007Y-79368000D01*
X167581993Y-79368000D01*
X167725525Y-79353863D01*
X167909691Y-79297997D01*
X168079418Y-79207276D01*
X168228186Y-79085186D01*
X168350276Y-78936418D01*
X168440997Y-78766691D01*
X168496863Y-78582525D01*
X168515727Y-78391000D01*
X168496863Y-78199475D01*
X168440997Y-78015309D01*
X168404566Y-77947151D01*
X182692000Y-77947151D01*
X182692000Y-78188849D01*
X182739153Y-78425903D01*
X182831647Y-78649202D01*
X182965927Y-78850167D01*
X183136833Y-79021073D01*
X183337798Y-79155353D01*
X183445951Y-79200152D01*
X183285253Y-79257081D01*
X183147843Y-79330528D01*
X183070208Y-79579603D01*
X183919000Y-80428395D01*
X184767792Y-79579603D01*
X184690157Y-79330528D01*
X184426117Y-79204629D01*
X184398291Y-79197566D01*
X184500202Y-79155353D01*
X184701167Y-79021073D01*
X184872073Y-78850167D01*
X185006353Y-78649202D01*
X185098847Y-78425903D01*
X185146000Y-78188849D01*
X185146000Y-77947151D01*
X190192000Y-77947151D01*
X190192000Y-78188849D01*
X190239153Y-78425903D01*
X190331647Y-78649202D01*
X190465927Y-78850167D01*
X190636833Y-79021073D01*
X190837798Y-79155353D01*
X191061097Y-79247847D01*
X191298151Y-79295000D01*
X191539849Y-79295000D01*
X191776903Y-79247847D01*
X192000202Y-79155353D01*
X192201167Y-79021073D01*
X192372073Y-78850167D01*
X192506353Y-78649202D01*
X192598847Y-78425903D01*
X192646000Y-78188849D01*
X192646000Y-77947151D01*
X192598847Y-77710097D01*
X192506353Y-77486798D01*
X192372073Y-77285833D01*
X192201167Y-77114927D01*
X192000202Y-76980647D01*
X191892049Y-76935848D01*
X192052747Y-76878919D01*
X192190157Y-76805472D01*
X192267792Y-76556397D01*
X191419000Y-75707605D01*
X190570208Y-76556397D01*
X190647843Y-76805472D01*
X190911883Y-76931371D01*
X190939709Y-76938434D01*
X190837798Y-76980647D01*
X190636833Y-77114927D01*
X190465927Y-77285833D01*
X190331647Y-77486798D01*
X190239153Y-77710097D01*
X190192000Y-77947151D01*
X185146000Y-77947151D01*
X185098847Y-77710097D01*
X185006353Y-77486798D01*
X184872073Y-77285833D01*
X184701167Y-77114927D01*
X184500202Y-76980647D01*
X184276903Y-76888153D01*
X184039849Y-76841000D01*
X183798151Y-76841000D01*
X183561097Y-76888153D01*
X183337798Y-76980647D01*
X183136833Y-77114927D01*
X182965927Y-77285833D01*
X182831647Y-77486798D01*
X182739153Y-77710097D01*
X182692000Y-77947151D01*
X168404566Y-77947151D01*
X168350276Y-77845582D01*
X168228186Y-77696814D01*
X168079418Y-77574724D01*
X167909691Y-77484003D01*
X167725525Y-77428137D01*
X167581993Y-77414000D01*
X166936007Y-77414000D01*
X166792475Y-77428137D01*
X166608309Y-77484003D01*
X166438582Y-77574724D01*
X166289814Y-77696814D01*
X166167724Y-77845582D01*
X166077003Y-78015309D01*
X166021137Y-78199475D01*
X166002273Y-78391000D01*
X131974000Y-78391000D01*
X131974000Y-74708609D01*
X165790538Y-74708609D01*
X165794409Y-74746282D01*
X165886579Y-74971533D01*
X166020922Y-75174474D01*
X166192275Y-75347307D01*
X166394054Y-75483390D01*
X166514769Y-75534001D01*
X166438582Y-75574724D01*
X166289814Y-75696814D01*
X166167724Y-75845582D01*
X166077003Y-76015309D01*
X166021137Y-76199475D01*
X166002273Y-76391000D01*
X166021137Y-76582525D01*
X166077003Y-76766691D01*
X166167724Y-76936418D01*
X166289814Y-77085186D01*
X166438582Y-77207276D01*
X166608309Y-77297997D01*
X166792475Y-77353863D01*
X166936007Y-77368000D01*
X167581993Y-77368000D01*
X167725525Y-77353863D01*
X167909691Y-77297997D01*
X168079418Y-77207276D01*
X168228186Y-77085186D01*
X168350276Y-76936418D01*
X168440997Y-76766691D01*
X168496863Y-76582525D01*
X168515727Y-76391000D01*
X168496863Y-76199475D01*
X168440997Y-76015309D01*
X168350276Y-75845582D01*
X168228186Y-75696814D01*
X168079418Y-75574724D01*
X168003231Y-75534001D01*
X168123946Y-75483390D01*
X168325725Y-75347307D01*
X168497078Y-75174474D01*
X168631421Y-74971533D01*
X168723591Y-74746282D01*
X168727462Y-74708609D01*
X168707433Y-74678000D01*
X182690176Y-74678000D01*
X182690176Y-76378000D01*
X182697455Y-76451905D01*
X182719012Y-76522970D01*
X182754019Y-76588463D01*
X182801131Y-76645869D01*
X182858537Y-76692981D01*
X182924030Y-76727988D01*
X182995095Y-76749545D01*
X183069000Y-76756824D01*
X184769000Y-76756824D01*
X184842905Y-76749545D01*
X184913970Y-76727988D01*
X184979463Y-76692981D01*
X185036869Y-76645869D01*
X185083981Y-76588463D01*
X185118988Y-76522970D01*
X185140545Y-76451905D01*
X185147824Y-76378000D01*
X185147824Y-75596531D01*
X189928389Y-75596531D01*
X189970401Y-75886019D01*
X190068081Y-76161747D01*
X190141528Y-76299157D01*
X190390603Y-76376792D01*
X191239395Y-75528000D01*
X191598605Y-75528000D01*
X192447397Y-76376792D01*
X192696472Y-76299157D01*
X192822371Y-76035117D01*
X192894339Y-75751589D01*
X192909611Y-75459469D01*
X192867599Y-75169981D01*
X192769919Y-74894253D01*
X192696472Y-74756843D01*
X192447397Y-74679208D01*
X191598605Y-75528000D01*
X191239395Y-75528000D01*
X190390603Y-74679208D01*
X190141528Y-74756843D01*
X190015629Y-75020883D01*
X189943661Y-75304411D01*
X189928389Y-75596531D01*
X185147824Y-75596531D01*
X185147824Y-74678000D01*
X185140545Y-74604095D01*
X185118988Y-74533030D01*
X185101121Y-74499603D01*
X190570208Y-74499603D01*
X191419000Y-75348395D01*
X192267792Y-74499603D01*
X192190157Y-74250528D01*
X191926117Y-74124629D01*
X191642589Y-74052661D01*
X191350469Y-74037389D01*
X191060981Y-74079401D01*
X190785253Y-74177081D01*
X190647843Y-74250528D01*
X190570208Y-74499603D01*
X185101121Y-74499603D01*
X185083981Y-74467537D01*
X185036869Y-74410131D01*
X184979463Y-74363019D01*
X184913970Y-74328012D01*
X184842905Y-74306455D01*
X184769000Y-74299176D01*
X183069000Y-74299176D01*
X182995095Y-74306455D01*
X182924030Y-74328012D01*
X182858537Y-74363019D01*
X182801131Y-74410131D01*
X182754019Y-74467537D01*
X182719012Y-74533030D01*
X182697455Y-74604095D01*
X182690176Y-74678000D01*
X168707433Y-74678000D01*
X168602731Y-74518000D01*
X167386000Y-74518000D01*
X167386000Y-74538000D01*
X167132000Y-74538000D01*
X167132000Y-74518000D01*
X165915269Y-74518000D01*
X165790538Y-74708609D01*
X131974000Y-74708609D01*
X131974000Y-74073391D01*
X165790538Y-74073391D01*
X165915269Y-74264000D01*
X167132000Y-74264000D01*
X167132000Y-73156000D01*
X167386000Y-73156000D01*
X167386000Y-74264000D01*
X168602731Y-74264000D01*
X168727462Y-74073391D01*
X168723591Y-74035718D01*
X168631421Y-73810467D01*
X168497078Y-73607526D01*
X168325725Y-73434693D01*
X168123946Y-73298610D01*
X167899496Y-73204507D01*
X167661000Y-73156000D01*
X167386000Y-73156000D01*
X167132000Y-73156000D01*
X166857000Y-73156000D01*
X166618504Y-73204507D01*
X166394054Y-73298610D01*
X166192275Y-73434693D01*
X166020922Y-73607526D01*
X165886579Y-73810467D01*
X165794409Y-74035718D01*
X165790538Y-74073391D01*
X131974000Y-74073391D01*
X131974000Y-68601252D01*
X212391000Y-68651747D01*
M02*
