M48
; DRILL file {KiCad 5.1.5+dfsg1-2build2} date Sun 29 Aug 2021 07:27:29 PM PDT
; FORMAT={-:-/ absolute / inch / decimal}
; #@! TF.CreationDate,2021-08-29T19:27:29-07:00
; #@! TF.GenerationSoftware,Kicad,Pcbnew,5.1.5+dfsg1-2build2
; #@! TF.FileFunction,Plated,1,2,PTH
FMAT,2
INCH
T1C0.0130
T2C0.0157
T3C0.0295
T4C0.0394
T5C0.0433
%
G90
G05
T1
X5.43Y-4.53
X5.68Y-4.92
X5.7094Y-4.4856
X5.77Y-4.93
X6.2Y-4.52
X6.31Y-3.7
X6.31Y-3.755
X6.415Y-3.695
X6.415Y-3.75
X6.46Y-4.91
X6.49Y-4.47
X6.505Y-2.805
X6.554Y-4.031
X6.5639Y-4.0861
X6.5656Y-4.9244
X6.64Y-3.945
X6.675Y-3.98
X6.985Y-4.515
X7.085Y-3.84
X7.135Y-3.84
X7.26Y-4.925
X7.285Y-4.485
X7.3Y-3.84
X7.355Y-3.84
X7.3775Y-4.9375
X8.15Y-4.92
X8.1644Y-4.4656
X8.26Y-4.94
T2
X5.77Y-4.4
X5.79Y-2.845
X6.01Y-3.085
X6.62Y-4.555
X6.8Y-3.2
X7.855Y-3.015
X7.86Y-3.115
X7.86Y-3.215
X7.86Y-3.315
X7.86Y-3.415
X7.875Y-4.51
X8.19Y-4.16
T3
X6.9088Y-5.13
X6.9875Y-5.13
X7.0663Y-5.13
X7.145Y-5.13
X7.7738Y-5.13
X7.8525Y-5.13
X7.9313Y-5.13
X8.01Y-5.13
X6.585Y-2.9288
X6.585Y-3.0075
X6.585Y-3.0863
X6.585Y-3.165
X6.09Y-3.295
X6.09Y-3.3737
X5.3888Y-5.13
X5.4675Y-5.13
X5.5463Y-5.13
X5.625Y-5.13
X7.495Y-4.405
X7.5737Y-4.405
X6.2088Y-5.125
X6.2875Y-5.125
X6.3663Y-5.125
X6.445Y-5.125
T4
X7.2409Y-2.9735
X7.2409Y-3.0735
X7.2409Y-3.1735
X7.2409Y-3.2735
X7.2409Y-3.3735
X7.5362Y-2.9735
X7.5362Y-3.0735
X7.5362Y-3.1735
X7.5362Y-3.2735
X7.5362Y-3.3735
T5
X5.77Y-3.655
X5.77Y-4.255
X5.87Y-3.655
X5.87Y-4.255
X5.97Y-3.655
X5.97Y-4.255
X6.07Y-3.655
X6.07Y-4.255
X6.17Y-3.655
X6.17Y-4.255
X6.27Y-3.655
X6.27Y-4.255
X6.37Y-3.655
X6.37Y-4.255
X6.47Y-3.655
X6.47Y-4.255
X6.57Y-3.655
X6.57Y-4.255
X6.67Y-3.655
X6.67Y-4.255
X6.77Y-3.655
X6.77Y-4.255
X6.87Y-3.655
X6.87Y-4.255
X6.97Y-3.655
X6.97Y-4.255
X7.07Y-3.655
X7.07Y-4.255
X7.17Y-3.655
X7.17Y-4.255
X7.27Y-3.655
X7.27Y-4.255
X7.37Y-3.655
X7.37Y-4.255
X7.47Y-3.655
X7.47Y-4.255
X7.57Y-3.655
X7.57Y-4.255
X7.67Y-3.655
X7.67Y-4.255
X7.77Y-3.655
X7.77Y-4.255
X7.87Y-3.655
X7.87Y-4.255
X7.97Y-3.655
X7.97Y-4.255
X8.07Y-3.655
X8.07Y-4.255
T0
M30
